M48
;Layer_Color=9339205
;FILE_FORMAT=4:2
METRIC,TZ
;TYPE=PLATED
T01F00S00C0.30
T02F00S00C0.50
T04F00S00C1.00
T05F00S00C1.35
T06F00S00C2.03
T07F00S00C3.18
%
T01
X272Y122
X672
X1072
X1472
X1872
X2272
X2672
X3072
X3472
X3672Y522
X3272
X2872
X2472
X2072
X1672
X1272
X872
X672Y922
X1072
X1472
X1872
X2272
X2672
X3072
X3272Y1322
X3672
X3472Y1722
X3072
X2672
X2272
X1872
X1472
X1172Y1766
X1272Y2122
X1672
X2072
X2472
X2872
X3272
X3672
X3472Y2522
X3072
X2672
X2272
X1872
X1472
X272
Y1722
X472Y1322
X872
X1272
X1672
X2072
X2472
X2872
X272Y922
X3872
X4272
X4491Y933
X4488Y852
X4578
X4580Y933
X4669
X4667Y852
X4757
X4758Y933
X5072Y922
X5472
X5672Y522
X6072
X6472
X6872
X7272
X7672
X7472Y922
X7072
X6672
X6272
X6472Y1322
X6872
X7272
X7672
X7472Y1722
X7072
X6672
X6272
X5872
X5472
X5072
X4672
X4272
X3872
X4072Y2122
X4472
X4872
X5272
X5072Y2522
X5472
X5872
X6272
X6672
X7072
X7472
X7672Y2122
X7272
X6872
X6472
X6072
Y1322
X5872Y122
X6272
X6672
X7072
X7472
X5472
X5072
X4672
X4272
X3872
X4072Y522
X4472
X4872
X5272
X4672Y2522
X4272
X3872
X7872
X8272
X8672
X9072
X9472
X9872
X10272
X10672
X11072
X11472
Y1722
X11072
X10672
X10272
X9872
X9472
X9072
X8672
X8272
X7872
X8072Y2122
X8472
X8872
X9272
X9672
X10072
X10472
Y1322
X10872
X11272
X11672
X11472Y922
X11072
X10672
X10272
X9872
X9472
X9072
X8672
X8272
X7872
X8072Y1322
X8472
X8872
X9272
X9672
X10072
Y522
X10472
X10872
X11272
X11672
X11472Y122
X11072
X10672
X10272
X9872
X9472
X9072
X8672
X8272
X7872
X8872Y522
X9272
X9672
X12072
X12472
X12872
X13272
X13672
X14072
X14472
X14872
X15272
X15672
X15472Y922
X15072
X14672
X14272
X13872
X13472
X13072
X12672
X12272
X11872
X12072Y1322
X12472
X12872
X13272
X13672
X14072
X14472
X14872
X15272
X15672
X15472Y1722
X15072
X14672
X14272
X13872
X13472
X13072
X12672
X12272
X11872
Y2522
X12272
X12672
X13072
X13472
X13872
X14272
X14672
X15072
X15472
X15672Y2122
X15272
X14872
X14472
X14072
X13872Y122
X14272
X14672
X15072
X15472
X13472
X13072
X12672
X12272
X11872
X15872
X16272
Y922
X15872
X16072Y1322
X16472
X16272Y1722
X15872
X16072Y2122
X16472
X16272Y2522
X15872
X16072Y2922
X16472
X16272Y3322
X15872
X16072Y3722
X16472
X16272Y4122
X15872
X16072Y4522
X16472
X16272Y4922
X15872
X16072Y5322
X16472
X16272Y5722
X15872
Y6522
X15472
X15072
X14672
X14272
X14472Y6122
X14872
X15272
X15672
X15472Y5722
X15072
X14672
X14272
X14472Y5322
X14872
X15272
X15672
X15472Y4922
X15327Y4941
X15254Y4623
X14930Y4628
X14931Y4726
Y4849
X14858Y4788
X14857Y4914
X14672Y4922
X14272
X14072Y5322
X13672
Y6122
X12930Y6733
X12821Y6736
X12729Y6739
X12666Y6591
X12606Y6502
X12532Y6441
X12450Y6438
X12392Y6198
X12057Y6084
X12024Y6016
X12118Y5878
X12203Y5866
X12030Y5763
X11956Y5712
X11863Y5538
X11851Y5294
X11769Y5298
X12022
X12101Y5297
X12121Y5388
X12201Y5385
X12272Y4922
X12672
X12872Y4522
X12472
X12072
X11872Y4922
X11863Y6103
X11923Y6161
X11828Y6584
X13672Y4522
X14072
X14931Y4519
Y4301
X14834Y4300
X14624Y4073
X14627Y3997
X14492Y4013
X14493Y3929
X14872Y3722
X15272
X15672
X15472Y4122
X15672Y4522
X15472Y3322
X15072
X14672
X14272
X13872
X14072Y2922
X14472
X14872
X15272
X15672
X13672
X13272
X12872
X12472
X12072
X11672
X11272
X10872
X10472
X10072
X9672
X9272
X8872
X8472
X8072
Y4522
X7932Y4609
X7931Y4781
X7934Y4958
X7827Y4684
X8498Y5081
X8570Y5139
X8623Y5192
X8733Y5185
X8672Y4922
X8145Y5839
X7962Y5836
X8003Y6200
X8082Y6174
X8069Y6257
X8196Y6179
X8591Y6361
X8675Y6432
X11209Y6133
X11275Y6067
X11382Y6067
X11463Y6062
X11632Y6067
X11723Y6065
X11711Y5919
X11631Y5923
X11699Y6458
X11704Y6768
X11570Y6767
X11514Y6657
X11442Y6716
X11285Y6776
X11277Y6200
X11672Y4522
X7654Y4604
X7582Y4682
X7507Y4684
X7429Y4683
X7362Y4637
X7376Y4781
X7657Y4779
X7731Y4684
X7743Y5175
X7683Y5275
X7614Y5808
X7670Y5882
X7726Y5947
X7674Y6081
X7594Y6019
X7521Y6085
X7707Y6407
X7452Y6662
X7345Y6665
X7219Y6660
X6812Y6665
X6405Y6225
X5961Y5886
X5880Y5857
X5980Y5782
X6047Y5504
X6122Y5563
X6188Y5482
X6115Y5204
X6167Y5130
X5839Y5207
X5841Y5329
X5582Y5271
X5580Y5195
X5583Y5834
X5506Y5778
X5413Y5704
X5222Y5553
X4883Y5647
X4769Y5120
X4672Y4922
X4423Y4995
X4272Y4922
X3872
X4072Y5322
X3872Y5722
X4072Y4522
X3872Y4122
X4272
X4672
X5072
X5472
X5872
X5966Y4343
X6272Y4122
X6527Y4307
X6558Y4747
X6609Y5055
X6578Y5482
X6505Y5528
X6757Y5659
X6865Y5590
X6948Y5525
X6946Y5659
X7148
X7085Y4747
X7204Y4595
X7272Y4522
Y2922
X7672
X6872
X6472
X6072
X5672
X5272
X4872
X4472
X4072
X3872Y3322
X4072Y3722
X4472
X4872
X5272
X5672
X6072
X6472
X5689Y4606
X5272Y4522
X4872
X5451Y6038
X5521Y6397
X5464Y6464
X5853Y6787
X4408Y6649
X3072Y6522
X2672
X2872Y6122
X2472
X2272Y5722
X2672
X3072
X3472
X3272Y5322
X2872
X2472
X2072
X1672
X1272
X872
X472
X300Y5366
X295Y5466
X212Y5413
X127Y5366
X131Y5466
X272Y5722
X1072
X1472
X1872
X1892Y6405
X1708
X1523
X1431Y6532
X1615
X1800
X872Y6122
X272Y4922
X472Y4522
X272Y4122
X291Y3795
X296Y3695
X208Y3742
X123Y3695
X127Y3795
X472Y3722
X872
X1272
X1072Y3322
X1472
X1872
X2272
X2672
X3072
X3472
X3672Y3722
X3272
X2872
X2472
X2072
X1872Y4122
X1732Y4312
X1729Y4574
X1909Y4621
X2072Y4522
X2472
X2872
X3272
X3672
X3472Y4922
X3072
X2672
X2272
X1872
X2272Y4122
X2672
X3072
X3272Y2922
X3672
X2872
X2472
X2072
X1672
X872
X472
X272Y3322
X1472Y4122
Y7322
X1282Y7389
X1255Y7525
X1160Y7457
X1043Y7385
X1045Y7535
X1227Y7896
X1303Y8428
X1272Y8522
X1672
X2072
X2472
X2872
X2672Y8922
X2272
X1872
X1472
X1672Y9322
X2072
X2472
X2872
X3272
X3072Y9722
X2672
X3272Y10122
X3472Y10522
X2272
X1672Y10122
X1272Y9322
X472
X291Y9597
X286Y9697
X203Y9644
X118Y9597
X122Y9697
X472Y10122
X272Y10522
Y8922
X472Y8522
X272Y8122
X472Y7722
X272Y7322
X472Y6922
X2175Y7581
X2302
Y7810
X2175
Y8040
X2302
X4140Y8333
X4213Y8405
X4136Y8489
X4556Y8477
X4651Y8478
X4744Y8480
X4781Y8727
X4701Y8778
X4619Y8730
X5028Y8902
X5015Y9095
X4933Y9135
X5084Y9203
X5102Y9295
X5218Y9297
X5218Y9412
X4855Y9384
X4685Y9385
X4519Y9380
X4349Y9381
X4403Y9276
X4233Y9277
X4266Y9482
X4217Y9576
X4436Y9481
X4381Y9984
X4377Y10117
X4297Y10054
X4462
X4540Y10117
X4537Y9984
X4622Y10054
X4699Y10117
X4698Y9984
X4775Y10054
X5152Y10251
X5241Y10251
X5495Y10328
X5591Y10324
X5663Y10387
X5665Y10471
X5321Y10619
X5254Y9914
X5655Y9910
X6136Y9914
X6403Y9751
X6111Y10601
X6067Y8477
X6215Y8473
X6378Y8462
X6430Y8568
X6140Y8350
X5813Y8358
X5818Y8275
X5821Y8191
X5446Y8298
X5440Y8390
X5417Y8498
X5019Y8452
X5625Y7677
X5874Y7323
X5905Y7233
X6098Y7257
X6154Y7322
X6116Y7402
X6205Y7399
X6358Y7404
X6325Y7303
X6410Y7311
X6355Y7218
X6553Y7241
X6636Y7235
X6780Y7267
X6836Y7200
X6799Y6916
X6707
X6767Y6845
X6851Y6850
X6925Y6838
X6914Y6916
X7109Y6898
X7223Y6900
X7348Y6898
X7449Y6847
X7558Y6847
X7504Y6907
X7126Y7256
X7117Y7660
X7443Y7994
X7534
X7630
X7608Y8084
X7463
X6059Y6874
X5608Y6979
X5511Y6930
X5447Y6881
X5518Y6818
X4438Y6910
X4220Y9915
X3872Y10522
X7872
X8272
X8672
X9072
X9472
X9872
X10272
X10672
X11072
X11472
X11672Y10122
X11272
X10872
X10472
X10072
X9672
X9272
X8872
X8472
X8072
X8272Y9722
X8672
X9072
X9472
X9872
X10272
X10672
X11072
X11472
X11672Y9322
X11272
X10872
X10472
X10072
X9672
X9272
X8872
X8472
X8672Y8922
X9072
X9472
X9872
X10272
X10672
X11072
X11472
X11672Y8522
X11272
X10872
X10472
X10072
X9672
X9272
X8872
X8472
X8672Y8122
X9072
X9472
X9872
X10272
X10672
X11072
X11076Y7908
X11557
X11695Y7904
X11693Y7731
X11672Y7226
X11605Y7275
X11532Y7229
X11467Y7313
X11344Y7309
X11211
X11056Y7313
X11592Y7101
X11472Y8122
X10407Y7090
X10187Y7091
X7789Y7259
X7789Y7670
X11980Y7592
X12079
X12042Y7524
X12149Y7521
X12068Y7728
X11949Y7905
X11872Y8122
X12072Y8522
X12472
X12872
X13272
X13672
X13472Y8922
X13872
X14272
X14672
X15072
X15472
X15672Y8522
X15272
X14872
X14472
X14272Y8122
X14672
X15072
X15472
X15672Y7722
X15272
X14872
X14472
X14272Y7322
X14672
X15072
X15472
X15672Y6922
X15272
X14872
X14472
X13672
X13872Y7322
X13672Y7722
X13472Y8122
X13872
X13072
X12672
Y8922
X13072
X13272Y9322
X13672
X13472Y9722
X13872
X14272
X14672
X15072
X14906Y10123
X14829Y10122
X14534Y10088
Y10163
X14672Y10522
X14272
X13872
X13472
X13072
X12672
X12872Y10122
X13272
X13672
X14072
X14472Y9322
X14872
X15272
X15223Y10461
X15226Y10553
X15328Y10554
X15331Y10462
X15054Y10451
X13072Y9722
X12672
X12872Y9322
X12472
X12072
X11872Y9722
X12072Y10122
X12472
X11872Y10522
Y8922
X11884Y7284
X11800Y7306
X12431Y7177
X12519Y7178
X12581Y7028
X12842Y7088
X12869Y7180
X12867Y7277
X12781Y7275
X12931Y7345
X15872Y7322
X16272
X16472Y7722
X16072
X15872Y8122
X16272
X16472Y8522
X16072
X15872Y8922
X16272
X16072Y9322
X15872Y9722
X16272
X16472Y10122
X16072
X15872Y10522
X16272
X16472Y6922
X16072
Y10922
X15872Y11322
X16272
X16472Y11722
X15672
X15272
X14872
X14472
X14072
X13672
X13272
X12872
X12472
X12072
X11872Y12122
X12272
X12672
X13072
X13472
X13872
X14272
X14672
X15072
X15472
X12357Y10938
X11672Y11722
X11272
X10872
X10472
X10072
X9672
X9272
X8872
X9072Y12122
X9472
X9872
X10272
X10672
X11072
X11472
X7872
X8072Y11722
X7672
X7272
X6872
X6472
X6072
X5672
X5272
X4872
X4472
X4072
X3872Y12122
X4272
X4672
X5072
X5472
X5872
X6272
X6672
X7072
X7472
X3472
X3072
X2672
X2272
X1872
X1472
X1072
X1272Y11722
X1672
X2072
X2472
X2872
X3272
X3672
X872
X815Y11040
X812Y10948
X1035
X1038Y11040
X1274
X1271Y10948
X472Y10922
X279Y11023
X274Y11123
X191Y11070
X106Y11023
X110Y11123
X272Y11322
T02
X336Y336
X500Y271
X664Y336
X732Y500
X664Y664
X500Y732
X336Y664
X267Y500
X8118
X8186Y336
X8350Y271
X8514Y336
X8582Y500
X8514Y664
X8350Y732
X8186Y664
X16026
X15957Y500
X16026Y336
X16190Y271
X16354Y336
X16423Y500
X16354Y664
X16190Y732
Y6021
X16026Y6086
X15957Y6250
X16026Y6414
X16190Y6482
X16354Y6414
X16423Y6250
X16354Y6086
X664
X500Y6021
X336Y6086
X267Y6250
X336Y6414
X500Y6482
X664Y6414
X732Y6250
X16026Y11832
X16190Y11767
X16354Y11832
X16423Y11996
X16354Y12160
X16190Y12229
X16026Y12160
X15957Y11996
X8582
X8514Y12160
X8350Y12229
X8186Y12160
X8118Y11996
X8186Y11832
X8350Y11767
X8514Y11832
X664
X500Y11767
X336Y11832
X267Y11996
X336Y12160
X500Y12229
X664Y12160
X732Y11996
T04
X16209Y3998
Y4796
T05
X15839Y9877
Y10367
T06
X3545Y838
X5704
T07
X500Y500
X8350
X16190
Y6250
X500
X16190Y11996
X8350
X500
M30
