G04*
G04 #@! TF.GenerationSoftware,Altium Limited,Altium Designer,24.1.2 (44)*
G04*
G04 Layer_Color=128*
%FSLAX44Y44*%
%MOMM*%
G71*
G04*
G04 #@! TF.SameCoordinates,83B34F58-023A-4855-A863-A0BE80A54967*
G04*
G04*
G04 #@! TF.FilePolarity,Positive*
G04*
G01*
G75*
%ADD10C,0.1270*%
D10*
X819100Y50000D02*
X850900D01*
X835000Y34100D02*
Y65900D01*
X831500Y72860D02*
X838500D01*
X835000Y69360D02*
Y76360D01*
X808640Y50000D02*
X815640D01*
X812140Y46500D02*
Y53500D01*
X831500Y27140D02*
X838500D01*
X835000Y23640D02*
Y30640D01*
X854360Y50000D02*
X861360D01*
X857860Y46500D02*
Y53500D01*
X847664Y66164D02*
X854665D01*
X851164Y62664D02*
Y69665D01*
X815336Y66164D02*
X822336D01*
X818836Y62664D02*
Y69665D01*
X815336Y33835D02*
X822336D01*
X818836Y30336D02*
Y37336D01*
X847664Y33835D02*
X854665D01*
X851164Y30336D02*
Y37336D01*
X1603100Y50000D02*
X1634900D01*
X1619000Y34100D02*
Y65900D01*
X1615500Y72860D02*
X1622500D01*
X1619000Y69360D02*
Y76360D01*
X1592640Y50000D02*
X1599640D01*
X1596140Y46500D02*
Y53500D01*
X1615500Y27140D02*
X1622500D01*
X1619000Y23640D02*
Y30640D01*
X1638360Y50000D02*
X1645360D01*
X1641860Y46500D02*
Y53500D01*
X1631664Y66164D02*
X1638664D01*
X1635164Y62664D02*
Y69665D01*
X1599335Y66164D02*
X1606335D01*
X1602836Y62664D02*
Y69665D01*
X1599335Y33835D02*
X1606335D01*
X1602836Y30336D02*
Y37336D01*
X1631664Y33835D02*
X1638664D01*
X1635164Y30336D02*
Y37336D01*
X847664Y1183436D02*
X854665D01*
X851164Y1179936D02*
Y1186936D01*
X815336Y1183436D02*
X822336D01*
X818836Y1179936D02*
Y1186936D01*
X815336Y1215764D02*
X822336D01*
X818836Y1212264D02*
Y1219264D01*
X847664Y1215764D02*
X854665D01*
X851164Y1212264D02*
Y1219264D01*
X854360Y1199600D02*
X861360D01*
X857860Y1196100D02*
Y1203100D01*
X831500Y1176740D02*
X838500D01*
X835000Y1173240D02*
Y1180240D01*
X808640Y1199600D02*
X815640D01*
X812140Y1196100D02*
Y1203100D01*
X831500Y1222460D02*
X838500D01*
X835000Y1218960D02*
Y1225960D01*
X819100Y1199600D02*
X850900D01*
X835000Y1183700D02*
Y1215500D01*
X1631664Y608835D02*
X1638664D01*
X1635164Y605336D02*
Y612336D01*
X1599335Y608835D02*
X1606335D01*
X1602836Y605336D02*
Y612336D01*
X1599335Y641164D02*
X1606335D01*
X1602836Y637664D02*
Y644664D01*
X1631664Y641164D02*
X1638664D01*
X1635164Y637664D02*
Y644664D01*
X1638360Y625000D02*
X1645360D01*
X1641860Y621500D02*
Y628500D01*
X1615500Y602140D02*
X1622500D01*
X1619000Y598640D02*
Y605640D01*
X1592640Y625000D02*
X1599640D01*
X1596140Y621500D02*
Y628500D01*
X1615500Y647860D02*
X1622500D01*
X1619000Y644360D02*
Y651360D01*
X1603100Y625000D02*
X1634900D01*
X1619000Y609100D02*
Y640900D01*
X1631664Y1183436D02*
X1638664D01*
X1635164Y1179936D02*
Y1186936D01*
X1599335Y1183436D02*
X1606335D01*
X1602836Y1179936D02*
Y1186936D01*
X1599335Y1215764D02*
X1606335D01*
X1602836Y1212264D02*
Y1219264D01*
X1631664Y1215764D02*
X1638664D01*
X1635164Y1212264D02*
Y1219264D01*
X1638360Y1199600D02*
X1645360D01*
X1641860Y1196100D02*
Y1203100D01*
X1615500Y1176740D02*
X1622500D01*
X1619000Y1173240D02*
Y1180240D01*
X1592640Y1199600D02*
X1599640D01*
X1596140Y1196100D02*
Y1203100D01*
X1615500Y1222460D02*
X1622500D01*
X1619000Y1218960D02*
Y1225960D01*
X1603100Y1199600D02*
X1634900D01*
X1619000Y1183700D02*
Y1215500D01*
X34100Y50000D02*
X65900D01*
X50000Y34100D02*
Y65900D01*
X46500Y72860D02*
X53500D01*
X50000Y69360D02*
Y76360D01*
X23640Y50000D02*
X30640D01*
X27140Y46500D02*
Y53500D01*
X46500Y27140D02*
X53500D01*
X50000Y23640D02*
Y30640D01*
X69360Y50000D02*
X76360D01*
X72860Y46500D02*
Y53500D01*
X62664Y66164D02*
X69665D01*
X66164Y62664D02*
Y69665D01*
X30336Y66164D02*
X37336D01*
X33835Y62664D02*
Y69665D01*
X30336Y33835D02*
X37336D01*
X33835Y30336D02*
Y37336D01*
X62664Y33835D02*
X69665D01*
X66164Y30336D02*
Y37336D01*
X34100Y1199600D02*
X65900D01*
X50000Y1183700D02*
Y1215500D01*
X46500Y1222460D02*
X53500D01*
X50000Y1218960D02*
Y1225960D01*
X23640Y1199600D02*
X30640D01*
X27140Y1196100D02*
Y1203100D01*
X46500Y1176740D02*
X53500D01*
X50000Y1173240D02*
Y1180240D01*
X69360Y1199600D02*
X76360D01*
X72860Y1196100D02*
Y1203100D01*
X62664Y1215764D02*
X69665D01*
X66164Y1212264D02*
Y1219264D01*
X30336Y1215764D02*
X37336D01*
X33835Y1212264D02*
Y1219264D01*
X30336Y1183436D02*
X37336D01*
X33835Y1179936D02*
Y1186936D01*
X62664Y1183436D02*
X69665D01*
X66164Y1179936D02*
Y1186936D01*
X34100Y625000D02*
X65900D01*
X50000Y609100D02*
Y640900D01*
X46500Y647860D02*
X53500D01*
X50000Y644360D02*
Y651360D01*
X23640Y625000D02*
X30640D01*
X27140Y621500D02*
Y628500D01*
X46500Y602140D02*
X53500D01*
X50000Y598640D02*
Y605640D01*
X69360Y625000D02*
X76360D01*
X72860Y621500D02*
Y628500D01*
X62664Y641164D02*
X69665D01*
X66164Y637664D02*
Y644664D01*
X30336Y641164D02*
X37336D01*
X33835Y637664D02*
Y644664D01*
X30336Y608835D02*
X37336D01*
X33835Y605336D02*
Y612336D01*
X62664Y608835D02*
X69665D01*
X66164Y605336D02*
Y612336D01*
X1577141Y987660D02*
X1590641D01*
X1583891Y980910D02*
Y994410D01*
X1577141Y1036660D02*
X1590641D01*
X1583891Y1029910D02*
Y1043410D01*
X1635391Y936160D02*
X1641391D01*
X1638391Y933160D02*
Y939160D01*
X1574391Y936160D02*
X1580391D01*
X1577391Y933160D02*
Y939160D01*
X1635391Y1088160D02*
X1641391D01*
X1638391Y1085160D02*
Y1091160D01*
X1574391Y1088160D02*
X1580391D01*
X1577391Y1085160D02*
Y1091160D01*
X1615950Y479595D02*
X1625950D01*
X1620950Y474595D02*
Y484595D01*
X1615950Y399795D02*
X1625950D01*
X1620950Y394795D02*
Y404795D01*
X560235Y83814D02*
X580535D01*
X570385Y73664D02*
Y93964D01*
X344335Y83814D02*
X364635D01*
X354485Y73664D02*
Y93964D01*
X1127000Y677600D02*
X1130000D01*
X1128500Y676100D02*
Y679100D01*
X1168900Y676800D02*
X1171900D01*
X1170400Y675300D02*
Y678300D01*
X1017234Y709103D02*
X1020234D01*
X1018734Y707603D02*
Y710603D01*
X1039234Y709003D02*
X1042234D01*
X1040734Y707503D02*
Y710503D01*
X454134Y847703D02*
X457134D01*
X455634Y846203D02*
Y849203D01*
X520254Y941160D02*
X523254D01*
X521754Y939660D02*
Y942660D01*
X425127Y948225D02*
X428127D01*
X426627Y946725D02*
Y949725D01*
X442083Y948112D02*
X445083D01*
X443583Y946612D02*
Y949612D01*
X421827Y927725D02*
X424827D01*
X423327Y926225D02*
Y929225D01*
X438783Y927612D02*
X441783D01*
X440283Y926112D02*
Y929112D01*
X433427Y938125D02*
X436427D01*
X434927Y936625D02*
Y939625D01*
X450383Y938012D02*
X453383D01*
X451883Y936512D02*
Y939512D01*
X641500Y856800D02*
X644500D01*
X643000Y855300D02*
Y858300D01*
X1645655Y1172170D02*
X1648655D01*
X1647155Y1170670D02*
Y1173670D01*
X1625655Y1132170D02*
X1628655D01*
X1627155Y1130670D02*
Y1133670D01*
X1625655Y1052170D02*
X1628655D01*
X1627155Y1050670D02*
Y1053670D01*
X1645655Y1012170D02*
X1648655D01*
X1647155Y1010670D02*
Y1013670D01*
X1625655Y972170D02*
X1628655D01*
X1627155Y970670D02*
Y973670D01*
X1625655Y892170D02*
X1628655D01*
X1627155Y890670D02*
Y893670D01*
X1645655Y852170D02*
X1648655D01*
X1647155Y850670D02*
Y853670D01*
X1625655Y812170D02*
X1628655D01*
X1627155Y810670D02*
Y813670D01*
X1645655Y772170D02*
X1648655D01*
X1647155Y770670D02*
Y773670D01*
X1625655Y732170D02*
X1628655D01*
X1627155Y730670D02*
Y733670D01*
X1645655Y692170D02*
X1648655D01*
X1647155Y690670D02*
Y693670D01*
X1625655Y572170D02*
X1628655D01*
X1627155Y570670D02*
Y573670D01*
X1645655Y532170D02*
X1648655D01*
X1647155Y530670D02*
Y533670D01*
X1625655Y492170D02*
X1628655D01*
X1627155Y490670D02*
Y493670D01*
X1645655Y452170D02*
X1648655D01*
X1647155Y450670D02*
Y453670D01*
X1625655Y412170D02*
X1628655D01*
X1627155Y410670D02*
Y413670D01*
X1645655Y372170D02*
X1648655D01*
X1647155Y370670D02*
Y373670D01*
X1625655Y332170D02*
X1628655D01*
X1627155Y330670D02*
Y333670D01*
X1645655Y292170D02*
X1648655D01*
X1647155Y290670D02*
Y293670D01*
X1625655Y252170D02*
X1628655D01*
X1627155Y250670D02*
Y253670D01*
X1645655Y212170D02*
X1648655D01*
X1647155Y210670D02*
Y213670D01*
X1625655Y172170D02*
X1628655D01*
X1627155Y170670D02*
Y173670D01*
X1645655Y132170D02*
X1648655D01*
X1647155Y130670D02*
Y133670D01*
X1625655Y92170D02*
X1628655D01*
X1627155Y90670D02*
Y93670D01*
X1625655Y12170D02*
X1628655D01*
X1627155Y10670D02*
Y13670D01*
X1585655Y1132170D02*
X1588655D01*
X1587155Y1130670D02*
Y1133670D01*
X1605655Y1092170D02*
X1608655D01*
X1607155Y1090670D02*
Y1093670D01*
X1585655Y1052170D02*
X1588655D01*
X1587155Y1050670D02*
Y1053670D01*
X1605655Y1012170D02*
X1608655D01*
X1607155Y1010670D02*
Y1013670D01*
X1585655Y972170D02*
X1588655D01*
X1587155Y970670D02*
Y973670D01*
X1605655Y932170D02*
X1608655D01*
X1607155Y930670D02*
Y933670D01*
X1585655Y892170D02*
X1588655D01*
X1587155Y890670D02*
Y893670D01*
X1605655Y852170D02*
X1608655D01*
X1607155Y850670D02*
Y853670D01*
X1585655Y812170D02*
X1588655D01*
X1587155Y810670D02*
Y813670D01*
X1605655Y772170D02*
X1608655D01*
X1607155Y770670D02*
Y773670D01*
X1585655Y732170D02*
X1588655D01*
X1587155Y730670D02*
Y733670D01*
X1605655Y692170D02*
X1608655D01*
X1607155Y690670D02*
Y693670D01*
X1585655Y652170D02*
X1588655D01*
X1587155Y650670D02*
Y653670D01*
X1585655Y572170D02*
X1588655D01*
X1587155Y570670D02*
Y573670D01*
X1605655Y532170D02*
X1608655D01*
X1607155Y530670D02*
Y533670D01*
X1585655Y492170D02*
X1588655D01*
X1587155Y490670D02*
Y493670D01*
X1605655Y452170D02*
X1608655D01*
X1607155Y450670D02*
Y453670D01*
X1585655Y412170D02*
X1588655D01*
X1587155Y410670D02*
Y413670D01*
X1605655Y372170D02*
X1608655D01*
X1607155Y370670D02*
Y373670D01*
X1585655Y332170D02*
X1588655D01*
X1587155Y330670D02*
Y333670D01*
X1605655Y292170D02*
X1608655D01*
X1607155Y290670D02*
Y293670D01*
X1585655Y252170D02*
X1588655D01*
X1587155Y250670D02*
Y253670D01*
X1605655Y212170D02*
X1608655D01*
X1607155Y210670D02*
Y213670D01*
X1585655Y172170D02*
X1588655D01*
X1587155Y170670D02*
Y173670D01*
X1605655Y132170D02*
X1608655D01*
X1607155Y130670D02*
Y133670D01*
X1585655Y92170D02*
X1588655D01*
X1587155Y90670D02*
Y93670D01*
X1585655Y12170D02*
X1588655D01*
X1587155Y10670D02*
Y13670D01*
X1545655Y1212170D02*
X1548655D01*
X1547155Y1210670D02*
Y1213670D01*
X1565655Y1172170D02*
X1568655D01*
X1567155Y1170670D02*
Y1173670D01*
X1545655Y892170D02*
X1548655D01*
X1547155Y890670D02*
Y893670D01*
X1565655Y852170D02*
X1568655D01*
X1567155Y850670D02*
Y853670D01*
X1545655Y812170D02*
X1548655D01*
X1547155Y810670D02*
Y813670D01*
X1565655Y772170D02*
X1568655D01*
X1567155Y770670D02*
Y773670D01*
X1545655Y732170D02*
X1548655D01*
X1547155Y730670D02*
Y733670D01*
X1565655Y692170D02*
X1568655D01*
X1567155Y690670D02*
Y693670D01*
X1545655Y652170D02*
X1548655D01*
X1547155Y650670D02*
Y653670D01*
X1565655Y612170D02*
X1568655D01*
X1567155Y610670D02*
Y613670D01*
X1545655Y572170D02*
X1548655D01*
X1547155Y570670D02*
Y573670D01*
X1565655Y532170D02*
X1568655D01*
X1567155Y530670D02*
Y533670D01*
X1545655Y492170D02*
X1548655D01*
X1547155Y490670D02*
Y493670D01*
X1565655Y452170D02*
X1568655D01*
X1567155Y450670D02*
Y453670D01*
X1545655Y412170D02*
X1548655D01*
X1547155Y410670D02*
Y413670D01*
X1565655Y372170D02*
X1568655D01*
X1567155Y370670D02*
Y373670D01*
X1545655Y332170D02*
X1548655D01*
X1547155Y330670D02*
Y333670D01*
X1565655Y292170D02*
X1568655D01*
X1567155Y290670D02*
Y293670D01*
X1545655Y252170D02*
X1548655D01*
X1547155Y250670D02*
Y253670D01*
X1565655Y212170D02*
X1568655D01*
X1567155Y210670D02*
Y213670D01*
X1545655Y172170D02*
X1548655D01*
X1547155Y170670D02*
Y173670D01*
X1565655Y132170D02*
X1568655D01*
X1567155Y130670D02*
Y133670D01*
X1545655Y92170D02*
X1548655D01*
X1547155Y90670D02*
Y93670D01*
X1565655Y52170D02*
X1568655D01*
X1567155Y50670D02*
Y53670D01*
X1545655Y12170D02*
X1548655D01*
X1547155Y10670D02*
Y13670D01*
X1505655Y1212170D02*
X1508655D01*
X1507155Y1210670D02*
Y1213670D01*
X1525655Y1172170D02*
X1528655D01*
X1527155Y1170670D02*
Y1173670D01*
X1505655Y972170D02*
X1508655D01*
X1507155Y970670D02*
Y973670D01*
X1525655Y932170D02*
X1528655D01*
X1527155Y930670D02*
Y933670D01*
X1505655Y892170D02*
X1508655D01*
X1507155Y890670D02*
Y893670D01*
X1525655Y852170D02*
X1528655D01*
X1527155Y850670D02*
Y853670D01*
X1505655Y812170D02*
X1508655D01*
X1507155Y810670D02*
Y813670D01*
X1525655Y772170D02*
X1528655D01*
X1527155Y770670D02*
Y773670D01*
X1505655Y732170D02*
X1508655D01*
X1507155Y730670D02*
Y733670D01*
X1525655Y692170D02*
X1528655D01*
X1527155Y690670D02*
Y693670D01*
X1505655Y652170D02*
X1508655D01*
X1507155Y650670D02*
Y653670D01*
X1525655Y612170D02*
X1528655D01*
X1527155Y610670D02*
Y613670D01*
X1505655Y572170D02*
X1508655D01*
X1507155Y570670D02*
Y573670D01*
X1525655Y532170D02*
X1528655D01*
X1527155Y530670D02*
Y533670D01*
X1525655Y372170D02*
X1528655D01*
X1527155Y370670D02*
Y373670D01*
X1505655Y332170D02*
X1508655D01*
X1507155Y330670D02*
Y333670D01*
X1525655Y292170D02*
X1528655D01*
X1527155Y290670D02*
Y293670D01*
X1505655Y252170D02*
X1508655D01*
X1507155Y250670D02*
Y253670D01*
X1525655Y212170D02*
X1528655D01*
X1527155Y210670D02*
Y213670D01*
X1505655Y172170D02*
X1508655D01*
X1507155Y170670D02*
Y173670D01*
X1525655Y132170D02*
X1528655D01*
X1527155Y130670D02*
Y133670D01*
X1505655Y92170D02*
X1508655D01*
X1507155Y90670D02*
Y93670D01*
X1525655Y52170D02*
X1528655D01*
X1527155Y50670D02*
Y53670D01*
X1505655Y12170D02*
X1508655D01*
X1507155Y10670D02*
Y13670D01*
X1465655Y1212170D02*
X1468655D01*
X1467155Y1210670D02*
Y1213670D01*
X1485655Y1172170D02*
X1488655D01*
X1487155Y1170670D02*
Y1173670D01*
X1465655Y1052170D02*
X1468655D01*
X1467155Y1050670D02*
Y1053670D01*
X1465655Y972170D02*
X1468655D01*
X1467155Y970670D02*
Y973670D01*
X1485655Y932170D02*
X1488655D01*
X1487155Y930670D02*
Y933670D01*
X1465655Y892170D02*
X1468655D01*
X1467155Y890670D02*
Y893670D01*
X1485655Y852170D02*
X1488655D01*
X1487155Y850670D02*
Y853670D01*
X1465655Y812170D02*
X1468655D01*
X1467155Y810670D02*
Y813670D01*
X1485655Y772170D02*
X1488655D01*
X1487155Y770670D02*
Y773670D01*
X1465655Y732170D02*
X1468655D01*
X1467155Y730670D02*
Y733670D01*
X1485655Y692170D02*
X1488655D01*
X1487155Y690670D02*
Y693670D01*
X1465655Y652170D02*
X1468655D01*
X1467155Y650670D02*
Y653670D01*
X1485655Y612170D02*
X1488655D01*
X1487155Y610670D02*
Y613670D01*
X1465655Y572170D02*
X1468655D01*
X1467155Y570670D02*
Y573670D01*
X1485655Y532170D02*
X1488655D01*
X1487155Y530670D02*
Y533670D01*
X1465655Y492170D02*
X1468655D01*
X1467155Y490670D02*
Y493670D01*
X1485655Y372170D02*
X1488655D01*
X1487155Y370670D02*
Y373670D01*
X1465655Y332170D02*
X1468655D01*
X1467155Y330670D02*
Y333670D01*
X1485655Y292170D02*
X1488655D01*
X1487155Y290670D02*
Y293670D01*
X1465655Y252170D02*
X1468655D01*
X1467155Y250670D02*
Y253670D01*
X1485655Y212170D02*
X1488655D01*
X1487155Y210670D02*
Y213670D01*
X1465655Y172170D02*
X1468655D01*
X1467155Y170670D02*
Y173670D01*
X1485655Y132170D02*
X1488655D01*
X1487155Y130670D02*
Y133670D01*
X1465655Y92170D02*
X1468655D01*
X1467155Y90670D02*
Y93670D01*
X1485655Y52170D02*
X1488655D01*
X1487155Y50670D02*
Y53670D01*
X1465655Y12170D02*
X1468655D01*
X1467155Y10670D02*
Y13670D01*
X1425655Y1212170D02*
X1428655D01*
X1427155Y1210670D02*
Y1213670D01*
X1445655Y1172170D02*
X1448655D01*
X1447155Y1170670D02*
Y1173670D01*
X1425655Y1052170D02*
X1428655D01*
X1427155Y1050670D02*
Y1053670D01*
X1425655Y972170D02*
X1428655D01*
X1427155Y970670D02*
Y973670D01*
X1445655Y932170D02*
X1448655D01*
X1447155Y930670D02*
Y933670D01*
X1425655Y892170D02*
X1428655D01*
X1427155Y890670D02*
Y893670D01*
X1445655Y852170D02*
X1448655D01*
X1447155Y850670D02*
Y853670D01*
X1425655Y812170D02*
X1428655D01*
X1427155Y810670D02*
Y813670D01*
X1445655Y772170D02*
X1448655D01*
X1447155Y770670D02*
Y773670D01*
X1425655Y732170D02*
X1428655D01*
X1427155Y730670D02*
Y733670D01*
X1445655Y692170D02*
X1448655D01*
X1447155Y690670D02*
Y693670D01*
X1425655Y652170D02*
X1428655D01*
X1427155Y650670D02*
Y653670D01*
X1445655Y612170D02*
X1448655D01*
X1447155Y610670D02*
Y613670D01*
X1425655Y572170D02*
X1428655D01*
X1427155Y570670D02*
Y573670D01*
X1445655Y532170D02*
X1448655D01*
X1447155Y530670D02*
Y533670D01*
X1425655Y492170D02*
X1428655D01*
X1427155Y490670D02*
Y493670D01*
X1425655Y332170D02*
X1428655D01*
X1427155Y330670D02*
Y333670D01*
X1445655Y292170D02*
X1448655D01*
X1447155Y290670D02*
Y293670D01*
X1425655Y252170D02*
X1428655D01*
X1427155Y250670D02*
Y253670D01*
X1445655Y212170D02*
X1448655D01*
X1447155Y210670D02*
Y213670D01*
X1425655Y172170D02*
X1428655D01*
X1427155Y170670D02*
Y173670D01*
X1445655Y132170D02*
X1448655D01*
X1447155Y130670D02*
Y133670D01*
X1425655Y92170D02*
X1428655D01*
X1427155Y90670D02*
Y93670D01*
X1445655Y52170D02*
X1448655D01*
X1447155Y50670D02*
Y53670D01*
X1425655Y12170D02*
X1428655D01*
X1427155Y10670D02*
Y13670D01*
X1385655Y1212170D02*
X1388655D01*
X1387155Y1210670D02*
Y1213670D01*
X1405655Y1172170D02*
X1408655D01*
X1407155Y1170670D02*
Y1173670D01*
X1385655Y1052170D02*
X1388655D01*
X1387155Y1050670D02*
Y1053670D01*
X1405655Y1012170D02*
X1408655D01*
X1407155Y1010670D02*
Y1013670D01*
X1385655Y972170D02*
X1388655D01*
X1387155Y970670D02*
Y973670D01*
X1385655Y892170D02*
X1388655D01*
X1387155Y890670D02*
Y893670D01*
X1385655Y812170D02*
X1388655D01*
X1387155Y810670D02*
Y813670D01*
X1385655Y732170D02*
X1388655D01*
X1387155Y730670D02*
Y733670D01*
X1405655Y532170D02*
X1408655D01*
X1407155Y530670D02*
Y533670D01*
X1405655Y452170D02*
X1408655D01*
X1407155Y450670D02*
Y453670D01*
X1385655Y332170D02*
X1388655D01*
X1387155Y330670D02*
Y333670D01*
X1405655Y292170D02*
X1408655D01*
X1407155Y290670D02*
Y293670D01*
X1385655Y252170D02*
X1388655D01*
X1387155Y250670D02*
Y253670D01*
X1405655Y212170D02*
X1408655D01*
X1407155Y210670D02*
Y213670D01*
X1385655Y172170D02*
X1388655D01*
X1387155Y170670D02*
Y173670D01*
X1405655Y132170D02*
X1408655D01*
X1407155Y130670D02*
Y133670D01*
X1385655Y92170D02*
X1388655D01*
X1387155Y90670D02*
Y93670D01*
X1405655Y52170D02*
X1408655D01*
X1407155Y50670D02*
Y53670D01*
X1385655Y12170D02*
X1388655D01*
X1387155Y10670D02*
Y13670D01*
X1345655Y1212170D02*
X1348655D01*
X1347155Y1210670D02*
Y1213670D01*
X1365655Y1172170D02*
X1368655D01*
X1367155Y1170670D02*
Y1173670D01*
X1345655Y1052170D02*
X1348655D01*
X1347155Y1050670D02*
Y1053670D01*
X1365655Y1012170D02*
X1368655D01*
X1367155Y1010670D02*
Y1013670D01*
X1345655Y972170D02*
X1348655D01*
X1347155Y970670D02*
Y973670D01*
X1365655Y932170D02*
X1368655D01*
X1367155Y930670D02*
Y933670D01*
X1345655Y892170D02*
X1348655D01*
X1347155Y890670D02*
Y893670D01*
X1365655Y852170D02*
X1368655D01*
X1367155Y850670D02*
Y853670D01*
X1345655Y812170D02*
X1348655D01*
X1347155Y810670D02*
Y813670D01*
X1365655Y772170D02*
X1368655D01*
X1367155Y770670D02*
Y773670D01*
X1365655Y692170D02*
X1368655D01*
X1367155Y690670D02*
Y693670D01*
X1365655Y612170D02*
X1368655D01*
X1367155Y610670D02*
Y613670D01*
X1365655Y532170D02*
X1368655D01*
X1367155Y530670D02*
Y533670D01*
X1365655Y452170D02*
X1368655D01*
X1367155Y450670D02*
Y453670D01*
X1365655Y292170D02*
X1368655D01*
X1367155Y290670D02*
Y293670D01*
X1345655Y252170D02*
X1348655D01*
X1347155Y250670D02*
Y253670D01*
X1345655Y172170D02*
X1348655D01*
X1347155Y170670D02*
Y173670D01*
X1365655Y132170D02*
X1368655D01*
X1367155Y130670D02*
Y133670D01*
X1345655Y92170D02*
X1348655D01*
X1347155Y90670D02*
Y93670D01*
X1365655Y52170D02*
X1368655D01*
X1367155Y50670D02*
Y53670D01*
X1345655Y12170D02*
X1348655D01*
X1347155Y10670D02*
Y13670D01*
X1305655Y1212170D02*
X1308655D01*
X1307155Y1210670D02*
Y1213670D01*
X1325655Y1172170D02*
X1328655D01*
X1327155Y1170670D02*
Y1173670D01*
X1305655Y1052170D02*
X1308655D01*
X1307155Y1050670D02*
Y1053670D01*
X1325655Y1012170D02*
X1328655D01*
X1327155Y1010670D02*
Y1013670D01*
X1305655Y972170D02*
X1308655D01*
X1307155Y970670D02*
Y973670D01*
X1325655Y932170D02*
X1328655D01*
X1327155Y930670D02*
Y933670D01*
X1305655Y892170D02*
X1308655D01*
X1307155Y890670D02*
Y893670D01*
X1325655Y852170D02*
X1328655D01*
X1327155Y850670D02*
Y853670D01*
X1305655Y812170D02*
X1308655D01*
X1307155Y810670D02*
Y813670D01*
X1325655Y292170D02*
X1328655D01*
X1327155Y290670D02*
Y293670D01*
X1305655Y252170D02*
X1308655D01*
X1307155Y250670D02*
Y253670D01*
X1305655Y172170D02*
X1308655D01*
X1307155Y170670D02*
Y173670D01*
X1325655Y132170D02*
X1328655D01*
X1327155Y130670D02*
Y133670D01*
X1305655Y92170D02*
X1308655D01*
X1307155Y90670D02*
Y93670D01*
X1325655Y52170D02*
X1328655D01*
X1327155Y50670D02*
Y53670D01*
X1305655Y12170D02*
X1308655D01*
X1307155Y10670D02*
Y13670D01*
X1265655Y1212170D02*
X1268655D01*
X1267155Y1210670D02*
Y1213670D01*
X1285655Y1172170D02*
X1288655D01*
X1287155Y1170670D02*
Y1173670D01*
X1265655Y1052170D02*
X1268655D01*
X1267155Y1050670D02*
Y1053670D01*
X1285655Y1012170D02*
X1288655D01*
X1287155Y1010670D02*
Y1013670D01*
X1265655Y972170D02*
X1268655D01*
X1267155Y970670D02*
Y973670D01*
X1285655Y932170D02*
X1288655D01*
X1287155Y930670D02*
Y933670D01*
X1265655Y892170D02*
X1268655D01*
X1267155Y890670D02*
Y893670D01*
X1285655Y852170D02*
X1288655D01*
X1287155Y850670D02*
Y853670D01*
X1265655Y812170D02*
X1268655D01*
X1267155Y810670D02*
Y813670D01*
X1265655Y492170D02*
X1268655D01*
X1267155Y490670D02*
Y493670D01*
X1285655Y452170D02*
X1288655D01*
X1287155Y450670D02*
Y453670D01*
X1285655Y292170D02*
X1288655D01*
X1287155Y290670D02*
Y293670D01*
X1265655Y252170D02*
X1268655D01*
X1267155Y250670D02*
Y253670D01*
X1265655Y172170D02*
X1268655D01*
X1267155Y170670D02*
Y173670D01*
X1285655Y132170D02*
X1288655D01*
X1287155Y130670D02*
Y133670D01*
X1265655Y92170D02*
X1268655D01*
X1267155Y90670D02*
Y93670D01*
X1285655Y52170D02*
X1288655D01*
X1287155Y50670D02*
Y53670D01*
X1265655Y12170D02*
X1268655D01*
X1267155Y10670D02*
Y13670D01*
X1225655Y1212170D02*
X1228655D01*
X1227155Y1210670D02*
Y1213670D01*
X1245655Y1172170D02*
X1248655D01*
X1247155Y1170670D02*
Y1173670D01*
X1245655Y1012170D02*
X1248655D01*
X1247155Y1010670D02*
Y1013670D01*
X1245655Y932170D02*
X1248655D01*
X1247155Y930670D02*
Y933670D01*
X1245655Y852170D02*
X1248655D01*
X1247155Y850670D02*
Y853670D01*
X1225655Y492170D02*
X1228655D01*
X1227155Y490670D02*
Y493670D01*
X1245655Y452170D02*
X1248655D01*
X1247155Y450670D02*
Y453670D01*
X1245655Y292170D02*
X1248655D01*
X1247155Y290670D02*
Y293670D01*
X1225655Y252170D02*
X1228655D01*
X1227155Y250670D02*
Y253670D01*
X1225655Y172170D02*
X1228655D01*
X1227155Y170670D02*
Y173670D01*
X1245655Y132170D02*
X1248655D01*
X1247155Y130670D02*
Y133670D01*
X1225655Y92170D02*
X1228655D01*
X1227155Y90670D02*
Y93670D01*
X1245655Y52170D02*
X1248655D01*
X1247155Y50670D02*
Y53670D01*
X1225655Y12170D02*
X1228655D01*
X1227155Y10670D02*
Y13670D01*
X1185655Y1212170D02*
X1188655D01*
X1187155Y1210670D02*
Y1213670D01*
X1205655Y1172170D02*
X1208655D01*
X1207155Y1170670D02*
Y1173670D01*
X1185655Y1052170D02*
X1188655D01*
X1187155Y1050670D02*
Y1053670D01*
X1205655Y1012170D02*
X1208655D01*
X1207155Y1010670D02*
Y1013670D01*
X1185655Y972170D02*
X1188655D01*
X1187155Y970670D02*
Y973670D01*
X1205655Y932170D02*
X1208655D01*
X1207155Y930670D02*
Y933670D01*
X1185655Y892170D02*
X1188655D01*
X1187155Y890670D02*
Y893670D01*
X1205655Y852170D02*
X1208655D01*
X1207155Y850670D02*
Y853670D01*
X1185655Y812170D02*
X1188655D01*
X1187155Y810670D02*
Y813670D01*
X1185655Y492170D02*
X1188655D01*
X1187155Y490670D02*
Y493670D01*
X1205655Y452170D02*
X1208655D01*
X1207155Y450670D02*
Y453670D01*
X1205655Y292170D02*
X1208655D01*
X1207155Y290670D02*
Y293670D01*
X1185655Y252170D02*
X1188655D01*
X1187155Y250670D02*
Y253670D01*
X1185655Y172170D02*
X1188655D01*
X1187155Y170670D02*
Y173670D01*
X1205655Y132170D02*
X1208655D01*
X1207155Y130670D02*
Y133670D01*
X1185655Y92170D02*
X1188655D01*
X1187155Y90670D02*
Y93670D01*
X1205655Y52170D02*
X1208655D01*
X1207155Y50670D02*
Y53670D01*
X1185655Y12170D02*
X1188655D01*
X1187155Y10670D02*
Y13670D01*
X1145655Y1212170D02*
X1148655D01*
X1147155Y1210670D02*
Y1213670D01*
X1165655Y1172170D02*
X1168655D01*
X1167155Y1170670D02*
Y1173670D01*
X1145655Y1052170D02*
X1148655D01*
X1147155Y1050670D02*
Y1053670D01*
X1165655Y1012170D02*
X1168655D01*
X1167155Y1010670D02*
Y1013670D01*
X1145655Y972170D02*
X1148655D01*
X1147155Y970670D02*
Y973670D01*
X1165655Y932170D02*
X1168655D01*
X1167155Y930670D02*
Y933670D01*
X1145655Y892170D02*
X1148655D01*
X1147155Y890670D02*
Y893670D01*
X1165655Y852170D02*
X1168655D01*
X1167155Y850670D02*
Y853670D01*
X1145655Y812170D02*
X1148655D01*
X1147155Y810670D02*
Y813670D01*
X1165655Y452170D02*
X1168655D01*
X1167155Y450670D02*
Y453670D01*
X1165655Y292170D02*
X1168655D01*
X1167155Y290670D02*
Y293670D01*
X1145655Y252170D02*
X1148655D01*
X1147155Y250670D02*
Y253670D01*
X1145655Y172170D02*
X1148655D01*
X1147155Y170670D02*
Y173670D01*
X1165655Y132170D02*
X1168655D01*
X1167155Y130670D02*
Y133670D01*
X1145655Y92170D02*
X1148655D01*
X1147155Y90670D02*
Y93670D01*
X1165655Y52170D02*
X1168655D01*
X1167155Y50670D02*
Y53670D01*
X1145655Y12170D02*
X1148655D01*
X1147155Y10670D02*
Y13670D01*
X1105655Y1212170D02*
X1108655D01*
X1107155Y1210670D02*
Y1213670D01*
X1125655Y1172170D02*
X1128655D01*
X1127155Y1170670D02*
Y1173670D01*
X1105655Y1052170D02*
X1108655D01*
X1107155Y1050670D02*
Y1053670D01*
X1125655Y1012170D02*
X1128655D01*
X1127155Y1010670D02*
Y1013670D01*
X1105655Y972170D02*
X1108655D01*
X1107155Y970670D02*
Y973670D01*
X1125655Y932170D02*
X1128655D01*
X1127155Y930670D02*
Y933670D01*
X1105655Y892170D02*
X1108655D01*
X1107155Y890670D02*
Y893670D01*
X1125655Y852170D02*
X1128655D01*
X1127155Y850670D02*
Y853670D01*
X1105655Y812170D02*
X1108655D01*
X1107155Y810670D02*
Y813670D01*
X1125655Y292170D02*
X1128655D01*
X1127155Y290670D02*
Y293670D01*
X1105655Y252170D02*
X1108655D01*
X1107155Y250670D02*
Y253670D01*
X1105655Y172170D02*
X1108655D01*
X1107155Y170670D02*
Y173670D01*
X1125655Y132170D02*
X1128655D01*
X1127155Y130670D02*
Y133670D01*
X1105655Y92170D02*
X1108655D01*
X1107155Y90670D02*
Y93670D01*
X1125655Y52170D02*
X1128655D01*
X1127155Y50670D02*
Y53670D01*
X1105655Y12170D02*
X1108655D01*
X1107155Y10670D02*
Y13670D01*
X1065655Y1212170D02*
X1068655D01*
X1067155Y1210670D02*
Y1213670D01*
X1085655Y1172170D02*
X1088655D01*
X1087155Y1170670D02*
Y1173670D01*
X1065655Y1052170D02*
X1068655D01*
X1067155Y1050670D02*
Y1053670D01*
X1085655Y1012170D02*
X1088655D01*
X1087155Y1010670D02*
Y1013670D01*
X1065655Y972170D02*
X1068655D01*
X1067155Y970670D02*
Y973670D01*
X1085655Y932170D02*
X1088655D01*
X1087155Y930670D02*
Y933670D01*
X1065655Y892170D02*
X1068655D01*
X1067155Y890670D02*
Y893670D01*
X1085655Y852170D02*
X1088655D01*
X1087155Y850670D02*
Y853670D01*
X1065655Y812170D02*
X1068655D01*
X1067155Y810670D02*
Y813670D01*
X1085655Y292170D02*
X1088655D01*
X1087155Y290670D02*
Y293670D01*
X1065655Y252170D02*
X1068655D01*
X1067155Y250670D02*
Y253670D01*
X1065655Y172170D02*
X1068655D01*
X1067155Y170670D02*
Y173670D01*
X1085655Y132170D02*
X1088655D01*
X1087155Y130670D02*
Y133670D01*
X1065655Y92170D02*
X1068655D01*
X1067155Y90670D02*
Y93670D01*
X1085655Y52170D02*
X1088655D01*
X1087155Y50670D02*
Y53670D01*
X1065655Y12170D02*
X1068655D01*
X1067155Y10670D02*
Y13670D01*
X1025655Y1212170D02*
X1028655D01*
X1027155Y1210670D02*
Y1213670D01*
X1045655Y1172170D02*
X1048655D01*
X1047155Y1170670D02*
Y1173670D01*
X1025655Y1052170D02*
X1028655D01*
X1027155Y1050670D02*
Y1053670D01*
X1045655Y1012170D02*
X1048655D01*
X1047155Y1010670D02*
Y1013670D01*
X1025655Y972170D02*
X1028655D01*
X1027155Y970670D02*
Y973670D01*
X1045655Y932170D02*
X1048655D01*
X1047155Y930670D02*
Y933670D01*
X1025655Y892170D02*
X1028655D01*
X1027155Y890670D02*
Y893670D01*
X1045655Y852170D02*
X1048655D01*
X1047155Y850670D02*
Y853670D01*
X1025655Y812170D02*
X1028655D01*
X1027155Y810670D02*
Y813670D01*
X1045655Y292170D02*
X1048655D01*
X1047155Y290670D02*
Y293670D01*
X1025655Y252170D02*
X1028655D01*
X1027155Y250670D02*
Y253670D01*
X1045655Y212170D02*
X1048655D01*
X1047155Y210670D02*
Y213670D01*
X1025655Y172170D02*
X1028655D01*
X1027155Y170670D02*
Y173670D01*
X1045655Y132170D02*
X1048655D01*
X1047155Y130670D02*
Y133670D01*
X1025655Y92170D02*
X1028655D01*
X1027155Y90670D02*
Y93670D01*
X1045655Y52170D02*
X1048655D01*
X1047155Y50670D02*
Y53670D01*
X1025655Y12170D02*
X1028655D01*
X1027155Y10670D02*
Y13670D01*
X985655Y1212170D02*
X988655D01*
X987155Y1210670D02*
Y1213670D01*
X1005655Y1172170D02*
X1008655D01*
X1007155Y1170670D02*
Y1173670D01*
X985655Y1052170D02*
X988655D01*
X987155Y1050670D02*
Y1053670D01*
X1005655Y1012170D02*
X1008655D01*
X1007155Y1010670D02*
Y1013670D01*
X985655Y972170D02*
X988655D01*
X987155Y970670D02*
Y973670D01*
X1005655Y932170D02*
X1008655D01*
X1007155Y930670D02*
Y933670D01*
X985655Y892170D02*
X988655D01*
X987155Y890670D02*
Y893670D01*
X1005655Y852170D02*
X1008655D01*
X1007155Y850670D02*
Y853670D01*
X985655Y812170D02*
X988655D01*
X987155Y810670D02*
Y813670D01*
X1005655Y292170D02*
X1008655D01*
X1007155Y290670D02*
Y293670D01*
X985655Y252170D02*
X988655D01*
X987155Y250670D02*
Y253670D01*
X1005655Y212170D02*
X1008655D01*
X1007155Y210670D02*
Y213670D01*
X985655Y172170D02*
X988655D01*
X987155Y170670D02*
Y173670D01*
X1005655Y132170D02*
X1008655D01*
X1007155Y130670D02*
Y133670D01*
X985655Y92170D02*
X988655D01*
X987155Y90670D02*
Y93670D01*
X1005655Y52170D02*
X1008655D01*
X1007155Y50670D02*
Y53670D01*
X985655Y12170D02*
X988655D01*
X987155Y10670D02*
Y13670D01*
X945655Y1212170D02*
X948655D01*
X947155Y1210670D02*
Y1213670D01*
X965655Y1172170D02*
X968655D01*
X967155Y1170670D02*
Y1173670D01*
X945655Y1052170D02*
X948655D01*
X947155Y1050670D02*
Y1053670D01*
X965655Y1012170D02*
X968655D01*
X967155Y1010670D02*
Y1013670D01*
X945655Y972170D02*
X948655D01*
X947155Y970670D02*
Y973670D01*
X965655Y932170D02*
X968655D01*
X967155Y930670D02*
Y933670D01*
X945655Y892170D02*
X948655D01*
X947155Y890670D02*
Y893670D01*
X965655Y852170D02*
X968655D01*
X967155Y850670D02*
Y853670D01*
X945655Y812170D02*
X948655D01*
X947155Y810670D02*
Y813670D01*
X965655Y292170D02*
X968655D01*
X967155Y290670D02*
Y293670D01*
X945655Y252170D02*
X948655D01*
X947155Y250670D02*
Y253670D01*
X965655Y212170D02*
X968655D01*
X967155Y210670D02*
Y213670D01*
X945655Y172170D02*
X948655D01*
X947155Y170670D02*
Y173670D01*
X965655Y132170D02*
X968655D01*
X967155Y130670D02*
Y133670D01*
X945655Y92170D02*
X948655D01*
X947155Y90670D02*
Y93670D01*
X965655Y52170D02*
X968655D01*
X967155Y50670D02*
Y53670D01*
X945655Y12170D02*
X948655D01*
X947155Y10670D02*
Y13670D01*
X905655Y1212170D02*
X908655D01*
X907155Y1210670D02*
Y1213670D01*
X925655Y1172170D02*
X928655D01*
X927155Y1170670D02*
Y1173670D01*
X905655Y1052170D02*
X908655D01*
X907155Y1050670D02*
Y1053670D01*
X925655Y1012170D02*
X928655D01*
X927155Y1010670D02*
Y1013670D01*
X905655Y972170D02*
X908655D01*
X907155Y970670D02*
Y973670D01*
X925655Y932170D02*
X928655D01*
X927155Y930670D02*
Y933670D01*
X905655Y892170D02*
X908655D01*
X907155Y890670D02*
Y893670D01*
X925655Y852170D02*
X928655D01*
X927155Y850670D02*
Y853670D01*
X905655Y812170D02*
X908655D01*
X907155Y810670D02*
Y813670D01*
X925655Y292170D02*
X928655D01*
X927155Y290670D02*
Y293670D01*
X905655Y252170D02*
X908655D01*
X907155Y250670D02*
Y253670D01*
X925655Y212170D02*
X928655D01*
X927155Y210670D02*
Y213670D01*
X905655Y172170D02*
X908655D01*
X907155Y170670D02*
Y173670D01*
X925655Y132170D02*
X928655D01*
X927155Y130670D02*
Y133670D01*
X905655Y92170D02*
X908655D01*
X907155Y90670D02*
Y93670D01*
X925655Y52170D02*
X928655D01*
X927155Y50670D02*
Y53670D01*
X905655Y12170D02*
X908655D01*
X907155Y10670D02*
Y13670D01*
X885655Y1172170D02*
X888655D01*
X887155Y1170670D02*
Y1173670D01*
X865655Y1052170D02*
X868655D01*
X867155Y1050670D02*
Y1053670D01*
X885655Y1012170D02*
X888655D01*
X887155Y1010670D02*
Y1013670D01*
X865655Y972170D02*
X868655D01*
X867155Y970670D02*
Y973670D01*
X885655Y932170D02*
X888655D01*
X887155Y930670D02*
Y933670D01*
X865655Y892170D02*
X868655D01*
X867155Y890670D02*
Y893670D01*
X885655Y852170D02*
X888655D01*
X887155Y850670D02*
Y853670D01*
X865655Y812170D02*
X868655D01*
X867155Y810670D02*
Y813670D01*
X865655Y492170D02*
X868655D01*
X867155Y490670D02*
Y493670D01*
X885655Y292170D02*
X888655D01*
X887155Y290670D02*
Y293670D01*
X865655Y252170D02*
X868655D01*
X867155Y250670D02*
Y253670D01*
X885655Y212170D02*
X888655D01*
X887155Y210670D02*
Y213670D01*
X865655Y172170D02*
X868655D01*
X867155Y170670D02*
Y173670D01*
X885655Y132170D02*
X888655D01*
X887155Y130670D02*
Y133670D01*
X865655Y92170D02*
X868655D01*
X867155Y90670D02*
Y93670D01*
X885655Y52170D02*
X888655D01*
X887155Y50670D02*
Y53670D01*
X865655Y12170D02*
X868655D01*
X867155Y10670D02*
Y13670D01*
X825655Y1052170D02*
X828655D01*
X827155Y1050670D02*
Y1053670D01*
X845655Y1012170D02*
X848655D01*
X847155Y1010670D02*
Y1013670D01*
X825655Y972170D02*
X828655D01*
X827155Y970670D02*
Y973670D01*
X845655Y932170D02*
X848655D01*
X847155Y930670D02*
Y933670D01*
X845655Y852170D02*
X848655D01*
X847155Y850670D02*
Y853670D01*
X845655Y292170D02*
X848655D01*
X847155Y290670D02*
Y293670D01*
X825655Y252170D02*
X828655D01*
X827155Y250670D02*
Y253670D01*
X845655Y212170D02*
X848655D01*
X847155Y210670D02*
Y213670D01*
X825655Y172170D02*
X828655D01*
X827155Y170670D02*
Y173670D01*
X845655Y132170D02*
X848655D01*
X847155Y130670D02*
Y133670D01*
X825655Y92170D02*
X828655D01*
X827155Y90670D02*
Y93670D01*
X825655Y12170D02*
X828655D01*
X827155Y10670D02*
Y13670D01*
X785655Y1212170D02*
X788655D01*
X787155Y1210670D02*
Y1213670D01*
X805655Y1172170D02*
X808655D01*
X807155Y1170670D02*
Y1173670D01*
X785655Y1052170D02*
X788655D01*
X787155Y1050670D02*
Y1053670D01*
X805655Y1012170D02*
X808655D01*
X807155Y1010670D02*
Y1013670D01*
X805655Y452170D02*
X808655D01*
X807155Y450670D02*
Y453670D01*
X805655Y292170D02*
X808655D01*
X807155Y290670D02*
Y293670D01*
X785655Y252170D02*
X788655D01*
X787155Y250670D02*
Y253670D01*
X805655Y212170D02*
X808655D01*
X807155Y210670D02*
Y213670D01*
X785655Y172170D02*
X788655D01*
X787155Y170670D02*
Y173670D01*
X805655Y132170D02*
X808655D01*
X807155Y130670D02*
Y133670D01*
X785655Y92170D02*
X788655D01*
X787155Y90670D02*
Y93670D01*
X785655Y12170D02*
X788655D01*
X787155Y10670D02*
Y13670D01*
X745655Y1212170D02*
X748655D01*
X747155Y1210670D02*
Y1213670D01*
X765655Y1172170D02*
X768655D01*
X767155Y1170670D02*
Y1173670D01*
X765655Y292170D02*
X768655D01*
X767155Y290670D02*
Y293670D01*
X745655Y252170D02*
X748655D01*
X747155Y250670D02*
Y253670D01*
X765655Y212170D02*
X768655D01*
X767155Y210670D02*
Y213670D01*
X745655Y172170D02*
X748655D01*
X747155Y170670D02*
Y173670D01*
X765655Y132170D02*
X768655D01*
X767155Y130670D02*
Y133670D01*
X745655Y92170D02*
X748655D01*
X747155Y90670D02*
Y93670D01*
X765655Y52170D02*
X768655D01*
X767155Y50670D02*
Y53670D01*
X745655Y12170D02*
X748655D01*
X747155Y10670D02*
Y13670D01*
X705655Y1212170D02*
X708655D01*
X707155Y1210670D02*
Y1213670D01*
X725655Y1172170D02*
X728655D01*
X727155Y1170670D02*
Y1173670D01*
X725655Y452170D02*
X728655D01*
X727155Y450670D02*
Y453670D01*
X725655Y292170D02*
X728655D01*
X727155Y290670D02*
Y293670D01*
X705655Y252170D02*
X708655D01*
X707155Y250670D02*
Y253670D01*
X725655Y212170D02*
X728655D01*
X727155Y210670D02*
Y213670D01*
X705655Y172170D02*
X708655D01*
X707155Y170670D02*
Y173670D01*
X725655Y132170D02*
X728655D01*
X727155Y130670D02*
Y133670D01*
X705655Y92170D02*
X708655D01*
X707155Y90670D02*
Y93670D01*
X725655Y52170D02*
X728655D01*
X727155Y50670D02*
Y53670D01*
X705655Y12170D02*
X708655D01*
X707155Y10670D02*
Y13670D01*
X665655Y1212170D02*
X668655D01*
X667155Y1210670D02*
Y1213670D01*
X685655Y1172170D02*
X688655D01*
X687155Y1170670D02*
Y1173670D01*
X685655Y292170D02*
X688655D01*
X687155Y290670D02*
Y293670D01*
X665655Y252170D02*
X668655D01*
X667155Y250670D02*
Y253670D01*
X685655Y212170D02*
X688655D01*
X687155Y210670D02*
Y213670D01*
X665655Y172170D02*
X668655D01*
X667155Y170670D02*
Y173670D01*
X685655Y132170D02*
X688655D01*
X687155Y130670D02*
Y133670D01*
X665655Y92170D02*
X668655D01*
X667155Y90670D02*
Y93670D01*
X685655Y52170D02*
X688655D01*
X687155Y50670D02*
Y53670D01*
X665655Y12170D02*
X668655D01*
X667155Y10670D02*
Y13670D01*
X625655Y1212170D02*
X628655D01*
X627155Y1210670D02*
Y1213670D01*
X645655Y1172170D02*
X648655D01*
X647155Y1170670D02*
Y1173670D01*
X625655Y412170D02*
X628655D01*
X627155Y410670D02*
Y413670D01*
X645655Y372170D02*
X648655D01*
X647155Y370670D02*
Y373670D01*
X645655Y292170D02*
X648655D01*
X647155Y290670D02*
Y293670D01*
X625655Y252170D02*
X628655D01*
X627155Y250670D02*
Y253670D01*
X645655Y212170D02*
X648655D01*
X647155Y210670D02*
Y213670D01*
X625655Y172170D02*
X628655D01*
X627155Y170670D02*
Y173670D01*
X645655Y132170D02*
X648655D01*
X647155Y130670D02*
Y133670D01*
X625655Y92170D02*
X628655D01*
X627155Y90670D02*
Y93670D01*
X645655Y52170D02*
X648655D01*
X647155Y50670D02*
Y53670D01*
X625655Y12170D02*
X628655D01*
X627155Y10670D02*
Y13670D01*
X585655Y1212170D02*
X588655D01*
X587155Y1210670D02*
Y1213670D01*
X605655Y1172170D02*
X608655D01*
X607155Y1170670D02*
Y1173670D01*
X585655Y412170D02*
X588655D01*
X587155Y410670D02*
Y413670D01*
X605655Y372170D02*
X608655D01*
X607155Y370670D02*
Y373670D01*
X605655Y292170D02*
X608655D01*
X607155Y290670D02*
Y293670D01*
X585655Y252170D02*
X588655D01*
X587155Y250670D02*
Y253670D01*
X605655Y212170D02*
X608655D01*
X607155Y210670D02*
Y213670D01*
X585655Y172170D02*
X588655D01*
X587155Y170670D02*
Y173670D01*
X605655Y132170D02*
X608655D01*
X607155Y130670D02*
Y133670D01*
X605655Y52170D02*
X608655D01*
X607155Y50670D02*
Y53670D01*
X585655Y12170D02*
X588655D01*
X587155Y10670D02*
Y13670D01*
X545655Y1212170D02*
X548655D01*
X547155Y1210670D02*
Y1213670D01*
X565655Y1172170D02*
X568655D01*
X567155Y1170670D02*
Y1173670D01*
X545655Y412170D02*
X548655D01*
X547155Y410670D02*
Y413670D01*
X565655Y372170D02*
X568655D01*
X567155Y370670D02*
Y373670D01*
X565655Y292170D02*
X568655D01*
X567155Y290670D02*
Y293670D01*
X545655Y252170D02*
X548655D01*
X547155Y250670D02*
Y253670D01*
X545655Y172170D02*
X548655D01*
X547155Y170670D02*
Y173670D01*
X545655Y92170D02*
X548655D01*
X547155Y90670D02*
Y93670D01*
X565655Y52170D02*
X568655D01*
X567155Y50670D02*
Y53670D01*
X545655Y12170D02*
X548655D01*
X547155Y10670D02*
Y13670D01*
X505655Y1212170D02*
X508655D01*
X507155Y1210670D02*
Y1213670D01*
X525655Y1172170D02*
X528655D01*
X527155Y1170670D02*
Y1173670D01*
X525655Y452170D02*
X528655D01*
X527155Y450670D02*
Y453670D01*
X505655Y412170D02*
X508655D01*
X507155Y410670D02*
Y413670D01*
X525655Y372170D02*
X528655D01*
X527155Y370670D02*
Y373670D01*
X525655Y292170D02*
X528655D01*
X527155Y290670D02*
Y293670D01*
X505655Y252170D02*
X508655D01*
X507155Y250670D02*
Y253670D01*
X525655Y212170D02*
X528655D01*
X527155Y210670D02*
Y213670D01*
X505655Y172170D02*
X508655D01*
X507155Y170670D02*
Y173670D01*
X505655Y92170D02*
X508655D01*
X507155Y90670D02*
Y93670D01*
X525655Y52170D02*
X528655D01*
X527155Y50670D02*
Y53670D01*
X505655Y12170D02*
X508655D01*
X507155Y10670D02*
Y13670D01*
X465655Y1212170D02*
X468655D01*
X467155Y1210670D02*
Y1213670D01*
X485655Y1172170D02*
X488655D01*
X487155Y1170670D02*
Y1173670D01*
X465655Y492170D02*
X468655D01*
X467155Y490670D02*
Y493670D01*
X485655Y452170D02*
X488655D01*
X487155Y450670D02*
Y453670D01*
X465655Y412170D02*
X468655D01*
X467155Y410670D02*
Y413670D01*
X485655Y372170D02*
X488655D01*
X487155Y370670D02*
Y373670D01*
X485655Y292170D02*
X488655D01*
X487155Y290670D02*
Y293670D01*
X465655Y252170D02*
X468655D01*
X467155Y250670D02*
Y253670D01*
X485655Y212170D02*
X488655D01*
X487155Y210670D02*
Y213670D01*
X465655Y172170D02*
X468655D01*
X467155Y170670D02*
Y173670D01*
X485655Y52170D02*
X488655D01*
X487155Y50670D02*
Y53670D01*
X465655Y12170D02*
X468655D01*
X467155Y10670D02*
Y13670D01*
X425655Y1212170D02*
X428655D01*
X427155Y1210670D02*
Y1213670D01*
X445655Y1172170D02*
X448655D01*
X447155Y1170670D02*
Y1173670D01*
X425655Y492170D02*
X428655D01*
X427155Y490670D02*
Y493670D01*
X425655Y412170D02*
X428655D01*
X427155Y410670D02*
Y413670D01*
X445655Y372170D02*
X448655D01*
X447155Y370670D02*
Y373670D01*
X445655Y292170D02*
X448655D01*
X447155Y290670D02*
Y293670D01*
X425655Y252170D02*
X428655D01*
X427155Y250670D02*
Y253670D01*
X445655Y212170D02*
X448655D01*
X447155Y210670D02*
Y213670D01*
X425655Y172170D02*
X428655D01*
X427155Y170670D02*
Y173670D01*
X425655Y92170D02*
X428655D01*
X427155Y90670D02*
Y93670D01*
X445655Y52170D02*
X448655D01*
X447155Y50670D02*
Y53670D01*
X425655Y12170D02*
X428655D01*
X427155Y10670D02*
Y13670D01*
X385655Y1212170D02*
X388655D01*
X387155Y1210670D02*
Y1213670D01*
X405655Y1172170D02*
X408655D01*
X407155Y1170670D02*
Y1173670D01*
X385655Y1052170D02*
X388655D01*
X387155Y1050670D02*
Y1053670D01*
X385655Y572170D02*
X388655D01*
X387155Y570670D02*
Y573670D01*
X405655Y532170D02*
X408655D01*
X407155Y530670D02*
Y533670D01*
X385655Y492170D02*
X388655D01*
X387155Y490670D02*
Y493670D01*
X405655Y452170D02*
X408655D01*
X407155Y450670D02*
Y453670D01*
X385655Y412170D02*
X388655D01*
X387155Y410670D02*
Y413670D01*
X405655Y372170D02*
X408655D01*
X407155Y370670D02*
Y373670D01*
X385655Y332170D02*
X388655D01*
X387155Y330670D02*
Y333670D01*
X405655Y292170D02*
X408655D01*
X407155Y290670D02*
Y293670D01*
X385655Y252170D02*
X388655D01*
X387155Y250670D02*
Y253670D01*
X405655Y212170D02*
X408655D01*
X407155Y210670D02*
Y213670D01*
X385655Y172170D02*
X388655D01*
X387155Y170670D02*
Y173670D01*
X385655Y92170D02*
X388655D01*
X387155Y90670D02*
Y93670D01*
X405655Y52170D02*
X408655D01*
X407155Y50670D02*
Y53670D01*
X385655Y12170D02*
X388655D01*
X387155Y10670D02*
Y13670D01*
X345655Y1212170D02*
X348655D01*
X347155Y1210670D02*
Y1213670D01*
X365655Y1172170D02*
X368655D01*
X367155Y1170670D02*
Y1173670D01*
X345655Y1052170D02*
X348655D01*
X347155Y1050670D02*
Y1053670D01*
X345655Y572170D02*
X348655D01*
X347155Y570670D02*
Y573670D01*
X345655Y492170D02*
X348655D01*
X347155Y490670D02*
Y493670D01*
X365655Y452170D02*
X368655D01*
X367155Y450670D02*
Y453670D01*
X365655Y372170D02*
X368655D01*
X367155Y370670D02*
Y373670D01*
X345655Y332170D02*
X348655D01*
X347155Y330670D02*
Y333670D01*
X365655Y292170D02*
X368655D01*
X367155Y290670D02*
Y293670D01*
X345655Y252170D02*
X348655D01*
X347155Y250670D02*
Y253670D01*
X365655Y212170D02*
X368655D01*
X367155Y210670D02*
Y213670D01*
X345655Y172170D02*
X348655D01*
X347155Y170670D02*
Y173670D01*
X365655Y132170D02*
X368655D01*
X367155Y130670D02*
Y133670D01*
X365655Y52170D02*
X368655D01*
X367155Y50670D02*
Y53670D01*
X345655Y12170D02*
X348655D01*
X347155Y10670D02*
Y13670D01*
X305655Y1212170D02*
X308655D01*
X307155Y1210670D02*
Y1213670D01*
X325655Y1172170D02*
X328655D01*
X327155Y1170670D02*
Y1173670D01*
X325655Y1012170D02*
X328655D01*
X327155Y1010670D02*
Y1013670D01*
X305655Y972170D02*
X308655D01*
X307155Y970670D02*
Y973670D01*
X325655Y932170D02*
X328655D01*
X327155Y930670D02*
Y933670D01*
X305655Y652170D02*
X308655D01*
X307155Y650670D02*
Y653670D01*
X305655Y572170D02*
X308655D01*
X307155Y570670D02*
Y573670D01*
X325655Y532170D02*
X328655D01*
X327155Y530670D02*
Y533670D01*
X305655Y492170D02*
X308655D01*
X307155Y490670D02*
Y493670D01*
X325655Y452170D02*
X328655D01*
X327155Y450670D02*
Y453670D01*
X305655Y412170D02*
X308655D01*
X307155Y410670D02*
Y413670D01*
X325655Y372170D02*
X328655D01*
X327155Y370670D02*
Y373670D01*
X305655Y332170D02*
X308655D01*
X307155Y330670D02*
Y333670D01*
X325655Y292170D02*
X328655D01*
X327155Y290670D02*
Y293670D01*
X305655Y252170D02*
X308655D01*
X307155Y250670D02*
Y253670D01*
X325655Y212170D02*
X328655D01*
X327155Y210670D02*
Y213670D01*
X305655Y172170D02*
X308655D01*
X307155Y170670D02*
Y173670D01*
X325655Y132170D02*
X328655D01*
X327155Y130670D02*
Y133670D01*
X305655Y92170D02*
X308655D01*
X307155Y90670D02*
Y93670D01*
X325655Y52170D02*
X328655D01*
X327155Y50670D02*
Y53670D01*
X305655Y12170D02*
X308655D01*
X307155Y10670D02*
Y13670D01*
X265655Y1212170D02*
X268655D01*
X267155Y1210670D02*
Y1213670D01*
X285655Y1172170D02*
X288655D01*
X287155Y1170670D02*
Y1173670D01*
X265655Y972170D02*
X268655D01*
X267155Y970670D02*
Y973670D01*
X285655Y932170D02*
X288655D01*
X287155Y930670D02*
Y933670D01*
X265655Y892170D02*
X268655D01*
X267155Y890670D02*
Y893670D01*
X285655Y852170D02*
X288655D01*
X287155Y850670D02*
Y853670D01*
X265655Y652170D02*
X268655D01*
X267155Y650670D02*
Y653670D01*
X285655Y612170D02*
X288655D01*
X287155Y610670D02*
Y613670D01*
X265655Y572170D02*
X268655D01*
X267155Y570670D02*
Y573670D01*
X285655Y532170D02*
X288655D01*
X287155Y530670D02*
Y533670D01*
X265655Y492170D02*
X268655D01*
X267155Y490670D02*
Y493670D01*
X285655Y452170D02*
X288655D01*
X287155Y450670D02*
Y453670D01*
X265655Y412170D02*
X268655D01*
X267155Y410670D02*
Y413670D01*
X285655Y372170D02*
X288655D01*
X287155Y370670D02*
Y373670D01*
X265655Y332170D02*
X268655D01*
X267155Y330670D02*
Y333670D01*
X285655Y292170D02*
X288655D01*
X287155Y290670D02*
Y293670D01*
X265655Y252170D02*
X268655D01*
X267155Y250670D02*
Y253670D01*
X285655Y212170D02*
X288655D01*
X287155Y210670D02*
Y213670D01*
X265655Y172170D02*
X268655D01*
X267155Y170670D02*
Y173670D01*
X285655Y132170D02*
X288655D01*
X287155Y130670D02*
Y133670D01*
X265655Y92170D02*
X268655D01*
X267155Y90670D02*
Y93670D01*
X285655Y52170D02*
X288655D01*
X287155Y50670D02*
Y53670D01*
X265655Y12170D02*
X268655D01*
X267155Y10670D02*
Y13670D01*
X225655Y1212170D02*
X228655D01*
X227155Y1210670D02*
Y1213670D01*
X245655Y1172170D02*
X248655D01*
X247155Y1170670D02*
Y1173670D01*
X225655Y1052170D02*
X228655D01*
X227155Y1050670D02*
Y1053670D01*
X245655Y932170D02*
X248655D01*
X247155Y930670D02*
Y933670D01*
X225655Y892170D02*
X228655D01*
X227155Y890670D02*
Y893670D01*
X245655Y852170D02*
X248655D01*
X247155Y850670D02*
Y853670D01*
X245655Y612170D02*
X248655D01*
X247155Y610670D02*
Y613670D01*
X225655Y572170D02*
X228655D01*
X227155Y570670D02*
Y573670D01*
X245655Y532170D02*
X248655D01*
X247155Y530670D02*
Y533670D01*
X225655Y492170D02*
X228655D01*
X227155Y490670D02*
Y493670D01*
X245655Y452170D02*
X248655D01*
X247155Y450670D02*
Y453670D01*
X225655Y412170D02*
X228655D01*
X227155Y410670D02*
Y413670D01*
X245655Y372170D02*
X248655D01*
X247155Y370670D02*
Y373670D01*
X225655Y332170D02*
X228655D01*
X227155Y330670D02*
Y333670D01*
X245655Y292170D02*
X248655D01*
X247155Y290670D02*
Y293670D01*
X225655Y252170D02*
X228655D01*
X227155Y250670D02*
Y253670D01*
X245655Y212170D02*
X248655D01*
X247155Y210670D02*
Y213670D01*
X225655Y172170D02*
X228655D01*
X227155Y170670D02*
Y173670D01*
X245655Y132170D02*
X248655D01*
X247155Y130670D02*
Y133670D01*
X225655Y92170D02*
X228655D01*
X227155Y90670D02*
Y93670D01*
X245655Y52170D02*
X248655D01*
X247155Y50670D02*
Y53670D01*
X225655Y12170D02*
X228655D01*
X227155Y10670D02*
Y13670D01*
X185655Y1212170D02*
X188655D01*
X187155Y1210670D02*
Y1213670D01*
X205655Y1172170D02*
X208655D01*
X207155Y1170670D02*
Y1173670D01*
X205655Y932170D02*
X208655D01*
X207155Y930670D02*
Y933670D01*
X185655Y892170D02*
X188655D01*
X187155Y890670D02*
Y893670D01*
X205655Y852170D02*
X208655D01*
X207155Y850670D02*
Y853670D01*
X185655Y572170D02*
X188655D01*
X187155Y570670D02*
Y573670D01*
X205655Y532170D02*
X208655D01*
X207155Y530670D02*
Y533670D01*
X185655Y492170D02*
X188655D01*
X187155Y490670D02*
Y493670D01*
X205655Y452170D02*
X208655D01*
X207155Y450670D02*
Y453670D01*
X185655Y412170D02*
X188655D01*
X187155Y410670D02*
Y413670D01*
X205655Y372170D02*
X208655D01*
X207155Y370670D02*
Y373670D01*
X185655Y332170D02*
X188655D01*
X187155Y330670D02*
Y333670D01*
X205655Y292170D02*
X208655D01*
X207155Y290670D02*
Y293670D01*
X185655Y252170D02*
X188655D01*
X187155Y250670D02*
Y253670D01*
X205655Y212170D02*
X208655D01*
X207155Y210670D02*
Y213670D01*
X185655Y172170D02*
X188655D01*
X187155Y170670D02*
Y173670D01*
X205655Y132170D02*
X208655D01*
X207155Y130670D02*
Y133670D01*
X185655Y92170D02*
X188655D01*
X187155Y90670D02*
Y93670D01*
X205655Y52170D02*
X208655D01*
X207155Y50670D02*
Y53670D01*
X185655Y12170D02*
X188655D01*
X187155Y10670D02*
Y13670D01*
X145655Y1212170D02*
X148655D01*
X147155Y1210670D02*
Y1213670D01*
X165655Y1172170D02*
X168655D01*
X167155Y1170670D02*
Y1173670D01*
X165655Y1012170D02*
X168655D01*
X167155Y1010670D02*
Y1013670D01*
X165655Y932170D02*
X168655D01*
X167155Y930670D02*
Y933670D01*
X145655Y892170D02*
X148655D01*
X147155Y890670D02*
Y893670D01*
X165655Y852170D02*
X168655D01*
X167155Y850670D02*
Y853670D01*
X145655Y732170D02*
X148655D01*
X147155Y730670D02*
Y733670D01*
X145655Y572170D02*
X148655D01*
X147155Y570670D02*
Y573670D01*
X165655Y532170D02*
X168655D01*
X167155Y530670D02*
Y533670D01*
X145655Y412170D02*
X148655D01*
X147155Y410670D02*
Y413670D01*
X145655Y332170D02*
X148655D01*
X147155Y330670D02*
Y333670D01*
X165655Y292170D02*
X168655D01*
X167155Y290670D02*
Y293670D01*
X145655Y252170D02*
X148655D01*
X147155Y250670D02*
Y253670D01*
X165655Y212170D02*
X168655D01*
X167155Y210670D02*
Y213670D01*
X145655Y172170D02*
X148655D01*
X147155Y170670D02*
Y173670D01*
X165655Y132170D02*
X168655D01*
X167155Y130670D02*
Y133670D01*
X145655Y92170D02*
X148655D01*
X147155Y90670D02*
Y93670D01*
X165655Y52170D02*
X168655D01*
X167155Y50670D02*
Y53670D01*
X145655Y12170D02*
X148655D01*
X147155Y10670D02*
Y13670D01*
X105655Y1212170D02*
X108655D01*
X107155Y1210670D02*
Y1213670D01*
X125655Y1172170D02*
X128655D01*
X127155Y1170670D02*
Y1173670D01*
X125655Y932170D02*
X128655D01*
X127155Y930670D02*
Y933670D01*
X125655Y852170D02*
X128655D01*
X127155Y850670D02*
Y853670D01*
X105655Y572170D02*
X108655D01*
X107155Y570670D02*
Y573670D01*
X125655Y532170D02*
X128655D01*
X127155Y530670D02*
Y533670D01*
X125655Y372170D02*
X128655D01*
X127155Y370670D02*
Y373670D01*
X105655Y332170D02*
X108655D01*
X107155Y330670D02*
Y333670D01*
X125655Y212170D02*
X128655D01*
X127155Y210670D02*
Y213670D01*
X125655Y132170D02*
X128655D01*
X127155Y130670D02*
Y133670D01*
X105655Y92170D02*
X108655D01*
X107155Y90670D02*
Y93670D01*
X125655Y52170D02*
X128655D01*
X127155Y50670D02*
Y53670D01*
X105655Y12170D02*
X108655D01*
X107155Y10670D02*
Y13670D01*
X85655Y1172170D02*
X88655D01*
X87155Y1170670D02*
Y1173670D01*
X85655Y612170D02*
X88655D01*
X87155Y610670D02*
Y613670D01*
X85655Y532170D02*
X88655D01*
X87155Y530670D02*
Y533670D01*
X85655Y372170D02*
X88655D01*
X87155Y370670D02*
Y373670D01*
X85655Y292170D02*
X88655D01*
X87155Y290670D02*
Y293670D01*
X85655Y132170D02*
X88655D01*
X87155Y130670D02*
Y133670D01*
X65655Y92170D02*
X68655D01*
X67155Y90670D02*
Y93670D01*
X85655Y52170D02*
X88655D01*
X87155Y50670D02*
Y53670D01*
X65655Y12170D02*
X68655D01*
X67155Y10670D02*
Y13670D01*
X25655Y1132170D02*
X28655D01*
X27155Y1130670D02*
Y1133670D01*
X45655Y1092170D02*
X48655D01*
X47155Y1090670D02*
Y1093670D01*
X25655Y1052170D02*
X28655D01*
X27155Y1050670D02*
Y1053670D01*
X45655Y1012170D02*
X48655D01*
X47155Y1010670D02*
Y1013670D01*
X45655Y932170D02*
X48655D01*
X47155Y930670D02*
Y933670D01*
X25655Y892170D02*
X28655D01*
X27155Y890670D02*
Y893670D01*
X45655Y852170D02*
X48655D01*
X47155Y850670D02*
Y853670D01*
X25655Y812170D02*
X28655D01*
X27155Y810670D02*
Y813670D01*
X45655Y772170D02*
X48655D01*
X47155Y770670D02*
Y773670D01*
X25655Y732170D02*
X28655D01*
X27155Y730670D02*
Y733670D01*
X45655Y692170D02*
X48655D01*
X47155Y690670D02*
Y693670D01*
X25655Y572170D02*
X28655D01*
X27155Y570670D02*
Y573670D01*
X45655Y532170D02*
X48655D01*
X47155Y530670D02*
Y533670D01*
X25655Y492170D02*
X28655D01*
X27155Y490670D02*
Y493670D01*
X45655Y452170D02*
X48655D01*
X47155Y450670D02*
Y453670D01*
X25655Y412170D02*
X28655D01*
X27155Y410670D02*
Y413670D01*
X45655Y372170D02*
X48655D01*
X47155Y370670D02*
Y373670D01*
X25655Y332170D02*
X28655D01*
X27155Y330670D02*
Y333670D01*
X45655Y292170D02*
X48655D01*
X47155Y290670D02*
Y293670D01*
X25655Y252170D02*
X28655D01*
X27155Y250670D02*
Y253670D01*
X25655Y172170D02*
X28655D01*
X27155Y170670D02*
Y173670D01*
X45655Y132170D02*
X48655D01*
X47155Y130670D02*
Y133670D01*
X25655Y92170D02*
X28655D01*
X27155Y90670D02*
Y93670D01*
X25655Y12170D02*
X28655D01*
X27155Y10670D02*
Y13670D01*
X1104100Y731300D02*
X1107100D01*
X1105600Y729800D02*
Y732800D01*
X1145200Y731300D02*
X1148200D01*
X1146700Y729800D02*
Y732800D01*
X1234200Y1093800D02*
X1237200D01*
X1235700Y1092300D02*
Y1095300D01*
X1202672Y752415D02*
X1205672D01*
X1204172Y750915D02*
Y753915D01*
X857600Y636100D02*
X860600D01*
X859100Y634600D02*
Y637600D01*
X720400Y666000D02*
X723400D01*
X721900Y664500D02*
Y667500D01*
X679700Y666500D02*
X682700D01*
X681200Y665000D02*
Y668000D01*
X733000Y666543D02*
X736000D01*
X734500Y665043D02*
Y668043D01*
X743700Y666200D02*
X746700D01*
X745200Y664700D02*
Y667700D01*
X501300Y890200D02*
X504300D01*
X502800Y888700D02*
Y891700D01*
X619033Y739900D02*
X622033D01*
X620533Y738400D02*
Y741400D01*
X631033Y730300D02*
X634033D01*
X632533Y728800D02*
Y731800D01*
X669200Y691583D02*
X672200D01*
X670700Y690083D02*
Y693083D01*
X1205300Y772800D02*
X1208300D01*
X1206800Y771300D02*
Y774300D01*
X1167800Y773100D02*
X1170800D01*
X1169300Y771600D02*
Y774600D01*
X1193400Y790500D02*
X1196400D01*
X1194900Y789000D02*
Y792000D01*
X1168000Y790400D02*
X1171000D01*
X1169500Y788900D02*
Y791900D01*
X1186900Y728400D02*
X1189900D01*
X1188400Y726900D02*
Y729900D01*
X1204194Y608360D02*
X1207194D01*
X1205694Y606860D02*
Y609860D01*
X1155500Y676700D02*
X1158500D01*
X1157000Y675200D02*
Y678200D01*
X28122Y369452D02*
X31122D01*
X29622Y367952D02*
Y370952D01*
X10816Y369452D02*
X13816D01*
X12316Y367952D02*
Y370952D01*
X27639Y379452D02*
X30639D01*
X29139Y377952D02*
Y380952D01*
X19325Y374234D02*
X22325D01*
X20825Y372734D02*
Y375734D01*
X11234Y379452D02*
X14234D01*
X12734Y377952D02*
Y380952D01*
X28522Y536552D02*
X31522D01*
X30022Y535052D02*
Y538052D01*
X11216Y536552D02*
X14216D01*
X12716Y535052D02*
Y538052D01*
X28039Y546552D02*
X31039D01*
X29539Y545052D02*
Y548052D01*
X19725Y541334D02*
X22725D01*
X21225Y539834D02*
Y542834D01*
X11634Y546552D02*
X14634D01*
X13134Y545052D02*
Y548052D01*
X27622Y959652D02*
X30622D01*
X29122Y958152D02*
Y961152D01*
X10316Y959652D02*
X13316D01*
X11816Y958152D02*
Y961152D01*
X27139Y969652D02*
X30139D01*
X28639Y968152D02*
Y971152D01*
X18825Y964434D02*
X21825D01*
X20325Y962934D02*
Y965934D01*
X10734Y969652D02*
X13734D01*
X12234Y968152D02*
Y971152D01*
X1154200Y790800D02*
X1157200D01*
X1155700Y789300D02*
Y792300D01*
X1106100Y790800D02*
X1109100D01*
X1107600Y789300D02*
Y792300D01*
X475400Y512000D02*
X478400D01*
X476900Y510500D02*
Y513500D01*
X1132900Y730900D02*
X1135900D01*
X1134400Y729400D02*
Y732400D01*
X440800Y499500D02*
X443800D01*
X442300Y498000D02*
Y501000D01*
X818100Y617900D02*
X821100D01*
X819600Y616400D02*
Y619400D01*
X567400Y460600D02*
X570400D01*
X568900Y459100D02*
Y462100D01*
X595100Y434300D02*
X598100D01*
X596600Y432800D02*
Y435800D01*
X654271Y474720D02*
X657271D01*
X655771Y473220D02*
Y476220D01*
X128800Y842800D02*
X131800D01*
X130300Y841300D02*
Y844300D01*
X228709Y781042D02*
X231709D01*
X230209Y779542D02*
Y782542D01*
X228709Y758055D02*
X231709D01*
X230209Y756555D02*
Y759555D01*
X228709Y804029D02*
X231709D01*
X230209Y802529D02*
Y805529D01*
X216009Y804029D02*
X219009D01*
X217509Y802529D02*
Y805529D01*
X216009Y758055D02*
X219009D01*
X217509Y756555D02*
Y759555D01*
X216009Y781042D02*
X219009D01*
X217509Y779542D02*
Y782542D01*
X102307Y1103991D02*
X105307D01*
X103807Y1102491D02*
Y1105491D01*
X79955Y1103991D02*
X82955D01*
X81455Y1102491D02*
Y1105491D01*
X125929Y1103991D02*
X128929D01*
X127429Y1102491D02*
Y1105491D01*
X102007Y1094791D02*
X105007D01*
X103507Y1093291D02*
Y1096291D01*
X79655Y1094791D02*
X82655D01*
X81155Y1093291D02*
Y1096291D01*
X125629Y1094791D02*
X128629D01*
X127129Y1093291D02*
Y1096291D01*
X169259Y640491D02*
X172259D01*
X170760Y638991D02*
Y641991D01*
X150790Y640491D02*
X153790D01*
X152290Y638991D02*
Y641991D01*
X187729Y640491D02*
X190729D01*
X189229Y638991D02*
Y641991D01*
X178494Y653191D02*
X181494D01*
X179994Y651691D02*
Y654691D01*
X141555Y653191D02*
X144555D01*
X143055Y651691D02*
Y654691D01*
X160025Y653191D02*
X163025D01*
X161525Y651691D02*
Y654691D01*
X126700Y738900D02*
X129700D01*
X128200Y737400D02*
Y740400D01*
X102800Y738500D02*
X105800D01*
X104300Y737000D02*
Y740000D01*
X103000Y753500D02*
X106000D01*
X104500Y752000D02*
Y755000D01*
X124000Y752500D02*
X127000D01*
X125500Y751000D02*
Y754000D01*
X114500Y745700D02*
X117500D01*
X116000Y744200D02*
Y747200D01*
X1531631Y1046152D02*
X1534631D01*
X1533131Y1044652D02*
Y1047652D01*
X1520809Y1046052D02*
X1523809D01*
X1522309Y1044552D02*
Y1047552D01*
X1531331Y1055352D02*
X1534331D01*
X1532831Y1053852D02*
Y1056852D01*
X1521109Y1055252D02*
X1524109D01*
X1522609Y1053752D02*
Y1056752D01*
X1503900Y1045100D02*
X1506900D01*
X1505400Y1043600D02*
Y1046600D01*
X1151736Y722900D02*
X1154735D01*
X1153235Y721400D02*
Y724400D01*
X1523900Y462300D02*
X1526900D01*
X1525400Y460800D02*
Y463800D01*
X1461200Y399700D02*
X1464200D01*
X1462700Y398200D02*
Y401200D01*
X1447800Y392900D02*
X1450800D01*
X1449300Y391400D02*
Y394400D01*
X1481900Y430000D02*
X1484900D01*
X1483400Y428500D02*
Y431500D01*
X1491500Y462800D02*
X1494500D01*
X1493000Y461300D02*
Y464300D01*
X1484200Y491400D02*
X1487200D01*
X1485700Y489900D02*
Y492900D01*
X1484300Y478800D02*
X1487300D01*
X1485800Y477300D02*
Y480300D01*
X1447700Y401300D02*
X1450700D01*
X1449200Y399800D02*
Y402800D01*
X1460900Y407300D02*
X1463900D01*
X1462400Y405800D02*
Y408800D01*
X1489100Y1012300D02*
X1492100D01*
X1490600Y1010800D02*
Y1013800D01*
X1481400Y1012200D02*
X1484400D01*
X1482900Y1010700D02*
Y1013700D01*
X855500Y513900D02*
X858500D01*
X857000Y512400D02*
Y515400D01*
X860803Y519203D02*
X863803D01*
X862303Y517703D02*
Y520703D01*
X1451900Y1016300D02*
X1454900D01*
X1453400Y1014800D02*
Y1017800D01*
X1451900Y1008800D02*
X1454900D01*
X1453400Y1007300D02*
Y1010300D01*
X1531200Y494100D02*
X1534200D01*
X1532700Y492600D02*
Y495600D01*
X1491600Y484900D02*
X1494600D01*
X1493100Y483400D02*
Y486400D01*
X1491600Y472600D02*
X1494600D01*
X1493100Y471100D02*
Y474100D01*
X1491600Y451900D02*
X1494600D01*
X1493100Y450400D02*
Y453400D01*
X1491600Y430100D02*
X1494600D01*
X1493100Y428600D02*
Y431600D01*
X718884Y459516D02*
X721884D01*
X720384Y458016D02*
Y461016D01*
X734733Y463739D02*
X737733D01*
X736233Y462239D02*
Y465239D01*
X741372Y468308D02*
X744372D01*
X742872Y466808D02*
Y469808D01*
X749205Y468419D02*
X752205D01*
X750705Y466919D02*
Y469919D01*
X756703Y468240D02*
X759703D01*
X758203Y466740D02*
Y469740D01*
X771591Y468419D02*
X774591D01*
X773091Y466919D02*
Y469919D01*
X781243Y468419D02*
X784243D01*
X782743Y466919D02*
Y469919D01*
X189400Y462086D02*
X192400D01*
X190900Y460586D02*
Y463586D01*
X764199Y477869D02*
X767199D01*
X765699Y476369D02*
Y479369D01*
X766765Y527481D02*
X769765D01*
X768265Y525981D02*
Y528981D01*
X559300Y697900D02*
X562300D01*
X560800Y696400D02*
Y699400D01*
X733300Y689800D02*
X736300D01*
X734800Y688300D02*
Y691300D01*
X720800Y690000D02*
X723800D01*
X722300Y688500D02*
Y691500D01*
X651200Y430700D02*
X654200D01*
X652700Y429200D02*
Y432200D01*
X1291600Y734500D02*
X1294600D01*
X1293100Y733000D02*
Y736000D01*
X1218800Y586600D02*
X1221800D01*
X1220300Y585100D02*
Y588100D01*
X1210325Y587775D02*
X1213325D01*
X1211825Y586275D02*
Y589275D01*
X1194100Y571200D02*
X1197100D01*
X1195600Y569700D02*
Y572700D01*
X1184800Y553800D02*
X1187800D01*
X1186300Y552300D02*
Y555300D01*
X1183600Y529400D02*
X1186600D01*
X1185100Y527900D02*
Y530900D01*
X1208600Y529700D02*
X1211600D01*
X1210100Y528200D02*
Y531200D01*
X1218600Y538500D02*
X1221600D01*
X1220100Y537000D02*
Y540000D01*
X1126000Y606700D02*
X1129000D01*
X1127500Y605200D02*
Y608200D01*
X1144800Y606200D02*
X1147800D01*
X1146300Y604700D02*
Y607700D01*
X1169600Y591900D02*
X1172600D01*
X1171100Y590400D02*
Y593400D01*
X1170800Y606500D02*
X1173800D01*
X1172300Y605000D02*
Y608000D01*
X1184800Y610300D02*
X1187800D01*
X1186300Y608800D02*
Y611800D01*
X1259100Y650200D02*
X1262100D01*
X1260600Y648700D02*
Y651700D01*
X1265100Y659100D02*
X1268100D01*
X1266600Y657600D02*
Y660600D01*
X1256600Y702800D02*
X1259600D01*
X1258100Y701300D02*
Y704300D01*
X1280600Y673600D02*
X1283600D01*
X1282100Y672100D02*
Y675100D01*
X1291500Y673300D02*
X1294500D01*
X1293000Y671800D02*
Y674800D01*
X1285400Y718000D02*
X1288400D01*
X1286900Y716500D02*
Y719500D01*
X1285200Y727700D02*
X1288200D01*
X1286700Y726200D02*
Y729200D01*
X1250400Y717800D02*
X1253400D01*
X1251900Y716300D02*
Y719300D01*
X1178500Y730600D02*
X1181500D01*
X1180000Y729100D02*
Y732100D01*
X1159000Y727500D02*
X1162000D01*
X1160500Y726000D02*
Y729000D01*
X866000Y643200D02*
X869000D01*
X867500Y641700D02*
Y644700D01*
X1276600Y727500D02*
X1279600D01*
X1278100Y726000D02*
Y729000D01*
X1251700Y644100D02*
X1254700D01*
X1253200Y642600D02*
Y645600D01*
X1165672Y722600D02*
X1168672D01*
X1167172Y721100D02*
Y724100D01*
X1126200Y620000D02*
X1129200D01*
X1127700Y618500D02*
Y621500D01*
X1119400Y613300D02*
X1122400D01*
X1120900Y611800D02*
Y614800D01*
X1210600Y538800D02*
X1213600D01*
X1212100Y537300D02*
Y540300D01*
X1175400Y529800D02*
X1178400D01*
X1176900Y528300D02*
Y531300D01*
X1149900Y665700D02*
X1152900D01*
X1151400Y664200D02*
Y667200D01*
X1142672Y671600D02*
X1145672D01*
X1144172Y670100D02*
Y673100D01*
X1136672Y606700D02*
X1139672D01*
X1138172Y605200D02*
Y608200D01*
X1119600Y730900D02*
X1122600D01*
X1121100Y729400D02*
Y732400D01*
X1181300Y658400D02*
X1184300D01*
X1182800Y656900D02*
Y659900D01*
X1168400Y645800D02*
X1171400D01*
X1169900Y644300D02*
Y647300D01*
X1161672Y606700D02*
X1164672D01*
X1163172Y605200D02*
Y608200D01*
X1213395Y752100D02*
X1216395D01*
X1214895Y750600D02*
Y753600D01*
X1206400Y759200D02*
X1209400D01*
X1207900Y757700D02*
Y760700D01*
X1196500Y759200D02*
X1199500D01*
X1198000Y757700D02*
Y760700D01*
X1271400Y673900D02*
X1274400D01*
X1272900Y672400D02*
Y675400D01*
X1243500Y643800D02*
X1246500D01*
X1245000Y642300D02*
Y645300D01*
X1237672Y619800D02*
X1240672D01*
X1239172Y618300D02*
Y621300D01*
X1190807Y616093D02*
X1193807D01*
X1192307Y614593D02*
Y617593D01*
X1200857Y601643D02*
X1203857D01*
X1202357Y600143D02*
Y603143D01*
X1200700Y529800D02*
X1203700D01*
X1202200Y528300D02*
Y531300D01*
X1201500Y576300D02*
X1204500D01*
X1203000Y574800D02*
Y577800D01*
X1161600Y592300D02*
X1164600D01*
X1163100Y590800D02*
Y593800D01*
X1282672Y708800D02*
X1285672D01*
X1284172Y707300D02*
Y710300D01*
X1241600Y717700D02*
X1244600D01*
X1243100Y716200D02*
Y719200D01*
X1157672Y710100D02*
X1160672D01*
X1159172Y708600D02*
Y711600D01*
X639523Y731062D02*
X642523D01*
X641023Y729562D02*
Y732562D01*
X633964Y721791D02*
X636964D01*
X635464Y720291D02*
Y723291D01*
X777400Y725900D02*
X780400D01*
X778900Y724400D02*
Y727400D01*
X750612Y608477D02*
X753612D01*
X752112Y606977D02*
Y609977D01*
X596512Y578212D02*
X599512D01*
X598012Y576712D02*
Y579712D01*
X690962Y683824D02*
X693962D01*
X692462Y682325D02*
Y685324D01*
X675188Y684488D02*
X678188D01*
X676688Y682988D02*
Y685988D01*
X759900Y580800D02*
X762900D01*
X761400Y579300D02*
Y582300D01*
X610021Y520400D02*
X613021D01*
X611521Y518900D02*
Y521900D01*
X615212Y513000D02*
X618212D01*
X616712Y511500D02*
Y514500D01*
X659400Y505500D02*
X662400D01*
X660900Y504000D02*
Y507000D01*
X706988Y474743D02*
X709988D01*
X708488Y473243D02*
Y476243D01*
X9534Y1112252D02*
X12534D01*
X11034Y1110752D02*
Y1113752D01*
X17625Y1107034D02*
X20625D01*
X19125Y1105534D02*
Y1108534D01*
X25939Y1112252D02*
X28939D01*
X27439Y1110752D02*
Y1113752D01*
X9116Y1102252D02*
X12116D01*
X10616Y1100752D02*
Y1103752D01*
X26422Y1102252D02*
X29422D01*
X27922Y1100752D02*
Y1103752D01*
X613857Y732205D02*
X616857D01*
X615357Y730705D02*
Y733705D01*
X121199Y789559D02*
X124199D01*
X122699Y788059D02*
Y791059D01*
X171678Y431200D02*
X174678D01*
X173178Y429700D02*
Y432700D01*
X171424Y457362D02*
X174424D01*
X172924Y455862D02*
Y458862D01*
X115694Y176642D02*
X118694D01*
X117194Y175142D02*
Y178142D01*
X609581Y1060117D02*
X612581D01*
X611081Y1058617D02*
Y1061617D01*
X530629Y1061869D02*
X533629D01*
X532129Y1060369D02*
Y1063369D01*
X565012Y1047112D02*
X568012D01*
X566512Y1045612D02*
Y1048612D01*
X412543Y833281D02*
X415543D01*
X414043Y831781D02*
Y834781D01*
X412107Y848911D02*
X415107D01*
X413607Y847411D02*
Y850411D01*
X491796Y913483D02*
X494796D01*
X493296Y911983D02*
Y914983D01*
X468564Y877757D02*
X471564D01*
X470064Y876257D02*
Y879257D01*
X476584Y872721D02*
X479584D01*
X478084Y871221D02*
Y874221D01*
X460412Y872986D02*
X463412D01*
X461912Y871486D02*
Y874486D01*
X500422Y845153D02*
X503422D01*
X501922Y843653D02*
Y846653D01*
X472931Y847972D02*
X475931D01*
X474431Y846472D02*
Y849472D01*
X463634Y847803D02*
X466634D01*
X465134Y846303D02*
Y849303D01*
X499961Y909451D02*
X502961D01*
X501461Y907951D02*
Y910951D01*
X439258Y664875D02*
X442258D01*
X440758Y663375D02*
Y666375D01*
X442273Y690963D02*
X445273D01*
X443773Y689463D02*
Y692463D01*
X486820Y564688D02*
X489820D01*
X488320Y563188D02*
Y566188D01*
X483983Y938412D02*
X486983D01*
X485483Y936912D02*
Y939912D01*
X436567Y998419D02*
X439567D01*
X438067Y996919D02*
Y999919D01*
X444673Y1005419D02*
X447673D01*
X446173Y1003919D02*
Y1006919D01*
X460691Y1005419D02*
X463691D01*
X462191Y1003919D02*
Y1006919D01*
X476033Y1005419D02*
X479033D01*
X477533Y1003919D02*
Y1006919D01*
X452199Y998419D02*
X455199D01*
X453699Y996919D02*
Y999919D01*
X468314Y998419D02*
X471314D01*
X469814Y996919D02*
Y999919D01*
X871830Y518488D02*
X874830D01*
X873330Y516988D02*
Y519988D01*
X848318Y508098D02*
X851318D01*
X849818Y506598D02*
Y509598D01*
X468432Y1011719D02*
X471432D01*
X469932Y1010219D02*
Y1013219D01*
X452490Y1011719D02*
X455490D01*
X453990Y1010219D02*
Y1013219D01*
X436181Y1011719D02*
X439181D01*
X437681Y1010219D02*
Y1013219D01*
X467027Y938525D02*
X470027D01*
X468527Y937025D02*
Y940025D01*
X420222Y957627D02*
X423222D01*
X421722Y956127D02*
Y959127D01*
X420497Y991500D02*
X423497D01*
X421997Y990000D02*
Y993000D01*
X428172Y1005419D02*
X431172D01*
X429672Y1003919D02*
Y1006919D01*
X419827Y840452D02*
X422827D01*
X421327Y838952D02*
Y841952D01*
X805395Y625653D02*
X808395D01*
X806895Y624153D02*
Y627153D01*
X765495Y588187D02*
X768495D01*
X766995Y586687D02*
Y589687D01*
X794705Y583615D02*
X797705D01*
X796205Y582115D02*
Y585115D01*
X765869Y608101D02*
X768869D01*
X767369Y606601D02*
Y609601D01*
X771083Y594673D02*
X774083D01*
X772583Y593173D02*
Y596173D01*
X812993Y583869D02*
X815993D01*
X814493Y582369D02*
Y585369D01*
X757875Y601903D02*
X760875D01*
X759375Y600403D02*
Y603403D01*
X769220Y640692D02*
X772220D01*
X770720Y639192D02*
Y642192D01*
X798829Y620023D02*
X801829D01*
X800329Y618523D02*
Y621523D01*
X806709Y617419D02*
X809709D01*
X808209Y615919D02*
Y618919D01*
X693105Y565919D02*
X696105D01*
X694605Y564419D02*
Y567419D01*
X674159Y565919D02*
X677159D01*
X675659Y564419D02*
Y567419D01*
X713294Y565919D02*
X716294D01*
X714794Y564419D02*
Y567419D01*
X684977Y558977D02*
X687977D01*
X686477Y557477D02*
Y560477D01*
X656250Y548211D02*
X659250D01*
X657750Y546711D02*
Y549711D01*
X693277Y552545D02*
X696277D01*
X694777Y551045D02*
Y554045D01*
X648968Y552806D02*
X651968D01*
X650468Y551306D02*
Y554306D01*
X683556Y685008D02*
X686556D01*
X685056Y683508D02*
Y686508D01*
X743397Y684707D02*
X746397D01*
X744897Y683207D02*
Y686207D01*
X709361Y689787D02*
X712361D01*
X710861Y688287D02*
Y691287D01*
X748868Y690743D02*
X751868D01*
X750368Y689243D02*
Y692243D01*
X754298Y684743D02*
X757298D01*
X755798Y683243D02*
Y686243D01*
X543166Y688127D02*
X546166D01*
X544666Y686627D02*
Y689627D01*
X560953Y767725D02*
X563953D01*
X562453Y766225D02*
Y769225D01*
X583780Y678674D02*
X586780D01*
X585280Y677174D02*
Y680174D01*
X610110Y740242D02*
X613110D01*
X611610Y738742D02*
Y741742D01*
X604386Y687398D02*
X607386D01*
X605886Y685898D02*
Y688898D01*
X585947Y732261D02*
X588947D01*
X587447Y730761D02*
Y733761D01*
X549571Y692995D02*
X552571D01*
X551071Y691495D02*
Y694495D01*
X550321Y681805D02*
X553321D01*
X551821Y680305D02*
Y683305D01*
X608327Y725730D02*
X611327D01*
X609827Y724230D02*
Y727230D01*
X588965Y723315D02*
X591965D01*
X590465Y721815D02*
Y724815D01*
X549087Y577773D02*
X552087D01*
X550587Y576273D02*
Y579273D01*
X520748Y555317D02*
X523748D01*
X522248Y553817D02*
Y556817D01*
X550583Y639684D02*
X553583D01*
X552083Y638184D02*
Y641184D01*
X556811Y583408D02*
X559811D01*
X558311Y581908D02*
Y584908D01*
X556530Y519549D02*
X559530D01*
X558030Y518049D02*
Y521049D01*
X556730Y527146D02*
X559730D01*
X558230Y525646D02*
Y528646D01*
X543588Y603818D02*
X546588D01*
X545088Y602318D02*
Y605318D01*
X539840Y570375D02*
X542840D01*
X541340Y568875D02*
Y571875D01*
X544863Y646359D02*
X547863D01*
X546363Y644859D02*
Y647859D01*
X759262Y808419D02*
X762262D01*
X760762Y806919D02*
Y809919D01*
X761539Y799419D02*
X764539D01*
X763039Y797919D02*
Y800919D01*
X742825Y799419D02*
X745825D01*
X744325Y797919D02*
Y800919D01*
X744825Y808419D02*
X747825D01*
X746325Y806919D02*
Y809919D01*
X777433Y767003D02*
X780433D01*
X778933Y765503D02*
Y768503D01*
X751943Y799419D02*
X754943D01*
X753443Y797919D02*
Y800919D01*
X710178Y765986D02*
X713178D01*
X711678Y764486D02*
Y767486D01*
X711139Y725601D02*
X714139D01*
X712639Y724101D02*
Y727101D01*
X603198Y550378D02*
X606198D01*
X604698Y548878D02*
Y551878D01*
X610665Y556282D02*
X613665D01*
X612165Y554782D02*
Y557782D01*
X617320Y548189D02*
X620320D01*
X618820Y546689D02*
Y549689D01*
X594577Y588633D02*
X597577D01*
X596077Y587133D02*
Y590133D01*
X586506Y585719D02*
X589506D01*
X588006Y584219D02*
Y587219D01*
X582569Y532891D02*
X585569D01*
X584069Y531391D02*
Y534391D01*
X582369Y520701D02*
X585369D01*
X583869Y519201D02*
Y522201D01*
X513698Y1025146D02*
X516698D01*
X515198Y1023646D02*
Y1026646D01*
X564042Y990958D02*
X567042D01*
X565542Y989458D02*
Y992458D01*
X522590Y1025118D02*
X525590D01*
X524090Y1023618D02*
Y1026618D01*
X557594Y1032361D02*
X560594D01*
X559094Y1030861D02*
Y1033861D01*
X547965Y1032787D02*
X550965D01*
X549465Y1031287D02*
Y1034287D01*
X564768Y1038740D02*
X567768D01*
X566268Y1037240D02*
Y1040240D01*
X523941Y991419D02*
X526941D01*
X525441Y989919D02*
Y992919D01*
X639003Y622477D02*
X642003D01*
X640503Y620977D02*
Y623977D01*
X678366Y691583D02*
X681366D01*
X679866Y690083D02*
Y693083D01*
X676522Y726716D02*
X679522D01*
X678022Y725216D02*
Y728216D01*
X662114Y723495D02*
X665114D01*
X663614Y721995D02*
Y724995D01*
X689866Y691583D02*
X692866D01*
X691366Y690083D02*
Y693083D01*
X682076Y720007D02*
X685076D01*
X683576Y718507D02*
Y721507D01*
X653847Y724144D02*
X656847D01*
X655347Y722644D02*
Y725644D01*
X634270Y740387D02*
X637270D01*
X635770Y738887D02*
Y741887D01*
X612079Y991419D02*
X615079D01*
X613579Y989919D02*
Y992919D01*
X638844Y975090D02*
X641844D01*
X640344Y973590D02*
Y976590D01*
X612516Y835038D02*
X615516D01*
X614016Y833538D02*
Y836538D01*
X619993Y847327D02*
X622993D01*
X621493Y845827D02*
Y848827D01*
X605176Y847700D02*
X608176D01*
X606676Y846200D02*
Y849200D01*
X636311Y846231D02*
X639311D01*
X637811Y844731D02*
Y847731D01*
X520318Y929748D02*
X523318D01*
X521818Y928248D02*
Y931248D01*
X540158Y849792D02*
X543158D01*
X541658Y848292D02*
Y851292D01*
X580583Y819073D02*
X583583D01*
X582083Y817573D02*
Y820573D01*
X579821Y835837D02*
X582821D01*
X581321Y834337D02*
Y837337D01*
X580329Y827455D02*
X583329D01*
X581829Y825955D02*
Y828955D01*
X543134Y829836D02*
X546134D01*
X544634Y828336D02*
Y831336D01*
X506916Y920337D02*
X509916D01*
X508416Y918837D02*
Y921837D01*
X508730Y929510D02*
X511730D01*
X510230Y928010D02*
Y931010D01*
X542471Y838986D02*
X545471D01*
X543971Y837486D02*
Y840486D01*
X772771Y517505D02*
X775771D01*
X774271Y516005D02*
Y519005D01*
X791671Y460883D02*
X794671D01*
X793171Y459383D02*
Y462383D01*
X791875Y495752D02*
X794875D01*
X793375Y494252D02*
Y497252D01*
X736144Y478089D02*
X739144D01*
X737644Y476589D02*
Y479589D01*
X791636Y478104D02*
X794636D01*
X793136Y476604D02*
Y479604D01*
X763945Y460382D02*
X766945D01*
X765445Y458882D02*
Y461882D01*
X465422Y93293D02*
X468422D01*
X466922Y91793D02*
Y94793D01*
X474205Y85158D02*
X477205D01*
X475705Y83658D02*
Y86658D01*
X474316Y93293D02*
X477316D01*
X475816Y91793D02*
Y94793D01*
X447317Y85158D02*
X450317D01*
X448817Y83658D02*
Y86658D01*
X447634Y93293D02*
X450634D01*
X449134Y91793D02*
Y94793D01*
X456280Y85158D02*
X459280D01*
X457780Y83658D02*
Y86658D01*
X456528Y93293D02*
X459528D01*
X458028Y91793D02*
Y94793D01*
X465242Y85158D02*
X468242D01*
X466742Y83658D02*
Y86658D01*
M02*
