G04*
G04 #@! TF.GenerationSoftware,Altium Limited,Altium Designer,24.1.2 (44)*
G04*
G04 Layer_Color=128*
%FSLAX44Y44*%
%MOMM*%
G71*
G04*
G04 #@! TF.SameCoordinates,791D3A81-C46F-493C-8474-DD763FBEB128*
G04*
G04*
G04 #@! TF.FilePolarity,Positive*
G04*
G01*
G75*
%ADD103C,0.1270*%
D103*
X1756449Y212407D02*
X1776750D01*
X1766599Y202257D02*
Y222557D01*
X1756449Y428307D02*
X1776750D01*
X1766599Y418157D02*
Y438457D01*
X1104100Y1180000D02*
X1135900D01*
X1120000Y1164100D02*
Y1195900D01*
X1117500Y1203250D02*
X1122500D01*
X1120000Y1200750D02*
Y1205750D01*
X1094250Y1180000D02*
X1099250D01*
X1096750Y1177500D02*
Y1182500D01*
X1117500Y1157140D02*
X1122500D01*
X1120000Y1154640D02*
Y1159640D01*
X1140750Y1180000D02*
X1145750D01*
X1143250Y1177500D02*
Y1182500D01*
X1133940Y1196440D02*
X1138940D01*
X1136440Y1193940D02*
Y1198940D01*
X1101060Y1163560D02*
X1106060D01*
X1103560Y1161060D02*
Y1166060D01*
X1133940Y1163560D02*
X1138940D01*
X1136440Y1161060D02*
Y1166060D01*
X1101060Y1196440D02*
X1106060D01*
X1103560Y1193940D02*
Y1198940D01*
X734100Y1180000D02*
X765900D01*
X750000Y1164100D02*
Y1195900D01*
X747500Y1203250D02*
X752500D01*
X750000Y1200750D02*
Y1205750D01*
X724250Y1180000D02*
X729250D01*
X726750Y1177500D02*
Y1182500D01*
X747500Y1157140D02*
X752500D01*
X750000Y1154640D02*
Y1159640D01*
X770750Y1180000D02*
X775750D01*
X773250Y1177500D02*
Y1182500D01*
X763940Y1196440D02*
X768940D01*
X766440Y1193940D02*
Y1198940D01*
X731060Y1163560D02*
X736060D01*
X733560Y1161060D02*
Y1166060D01*
X763940Y1163560D02*
X768940D01*
X766440Y1161060D02*
Y1166060D01*
X731060Y1196440D02*
X736060D01*
X733560Y1193940D02*
Y1198940D01*
X77082Y813907D02*
X83082D01*
X80082Y810908D02*
Y816908D01*
X16082Y813907D02*
X22082D01*
X19082Y810908D02*
Y816908D01*
X77082Y965908D02*
X83082D01*
X80082Y962907D02*
Y968907D01*
X16082Y965908D02*
X22082D01*
X19082Y962907D02*
Y968907D01*
X66832Y865407D02*
X80332D01*
X73582Y858658D02*
Y872158D01*
X66832Y914408D02*
X80332D01*
X73582Y907657D02*
Y921158D01*
X628175Y1178220D02*
X638175D01*
X633175Y1173220D02*
Y1183220D01*
X548375Y1178220D02*
X558375D01*
X553375Y1173220D02*
Y1183220D01*
X31060Y66440D02*
X36060D01*
X33560Y63940D02*
Y68940D01*
X63940Y33560D02*
X68940D01*
X66440Y31060D02*
Y36060D01*
X31060Y33560D02*
X36060D01*
X33560Y31060D02*
Y36060D01*
X63940Y66440D02*
X68940D01*
X66440Y63940D02*
Y68940D01*
X70750Y50000D02*
X75750D01*
X73250Y47500D02*
Y52500D01*
X47500Y27140D02*
X52500D01*
X50000Y24640D02*
Y29640D01*
X24250Y50000D02*
X29250D01*
X26750Y47500D02*
Y52500D01*
X47500Y73250D02*
X52500D01*
X50000Y70750D02*
Y75750D01*
X34100Y50000D02*
X65900D01*
X50000Y34100D02*
Y65900D01*
X31060Y1196440D02*
X36060D01*
X33560Y1193940D02*
Y1198940D01*
X63940Y1163560D02*
X68940D01*
X66440Y1161060D02*
Y1166060D01*
X31060Y1163560D02*
X36060D01*
X33560Y1161060D02*
Y1166060D01*
X63940Y1196440D02*
X68940D01*
X66440Y1193940D02*
Y1198940D01*
X70750Y1180000D02*
X75750D01*
X73250Y1177500D02*
Y1182500D01*
X47500Y1157140D02*
X52500D01*
X50000Y1154640D02*
Y1159640D01*
X24250Y1180000D02*
X29250D01*
X26750Y1177500D02*
Y1182500D01*
X47500Y1203250D02*
X52500D01*
X50000Y1200750D02*
Y1205750D01*
X34100Y1180000D02*
X65900D01*
X50000Y1164100D02*
Y1195900D01*
X1801060Y1196440D02*
X1806060D01*
X1803560Y1193940D02*
Y1198940D01*
X1833940Y1163560D02*
X1838940D01*
X1836440Y1161060D02*
Y1166060D01*
X1801060Y1163560D02*
X1806060D01*
X1803560Y1161060D02*
Y1166060D01*
X1833940Y1196440D02*
X1838940D01*
X1836440Y1193940D02*
Y1198940D01*
X1840750Y1180000D02*
X1845750D01*
X1843250Y1177500D02*
Y1182500D01*
X1817500Y1157140D02*
X1822500D01*
X1820000Y1154640D02*
Y1159640D01*
X1794250Y1180000D02*
X1799250D01*
X1796750Y1177500D02*
Y1182500D01*
X1817500Y1203250D02*
X1822500D01*
X1820000Y1200750D02*
Y1205750D01*
X1804100Y1180000D02*
X1835900D01*
X1820000Y1164100D02*
Y1195900D01*
X1801060Y66440D02*
X1806060D01*
X1803560Y63940D02*
Y68940D01*
X1833940Y33560D02*
X1838940D01*
X1836440Y31060D02*
Y36060D01*
X1801060Y33560D02*
X1806060D01*
X1803560Y31060D02*
Y36060D01*
X1833940Y66440D02*
X1838940D01*
X1836440Y63940D02*
Y68940D01*
X1840750Y50000D02*
X1845750D01*
X1843250Y47500D02*
Y52500D01*
X1817500Y27140D02*
X1822500D01*
X1820000Y24640D02*
Y29640D01*
X1794250Y50000D02*
X1799250D01*
X1796750Y47500D02*
Y52500D01*
X1817500Y73250D02*
X1822500D01*
X1820000Y70750D02*
Y75750D01*
X1804100Y50000D02*
X1835900D01*
X1820000Y34100D02*
Y65900D01*
X1825655Y1132170D02*
X1828655D01*
X1827155Y1130670D02*
Y1133670D01*
X1845655Y1092170D02*
X1848655D01*
X1847155Y1090670D02*
Y1093670D01*
X1845655Y1012170D02*
X1848655D01*
X1847155Y1010670D02*
Y1013670D01*
X1845655Y932170D02*
X1848655D01*
X1847155Y930670D02*
Y933670D01*
X1845655Y852170D02*
X1848655D01*
X1847155Y850670D02*
Y853670D01*
X1825655Y172170D02*
X1828655D01*
X1827155Y170670D02*
Y173670D01*
X1845655Y132170D02*
X1848655D01*
X1847155Y130670D02*
Y133670D01*
X1825655Y92170D02*
X1828655D01*
X1827155Y90670D02*
Y93670D01*
X1825655Y12170D02*
X1828655D01*
X1827155Y10670D02*
Y13670D01*
X1785655Y1132170D02*
X1788655D01*
X1787155Y1130670D02*
Y1133670D01*
X1805655Y1092170D02*
X1808655D01*
X1807155Y1090670D02*
Y1093670D01*
X1785655Y1052170D02*
X1788655D01*
X1787155Y1050670D02*
Y1053670D01*
X1785655Y972170D02*
X1788655D01*
X1787155Y970670D02*
Y973670D01*
X1785655Y892170D02*
X1788655D01*
X1787155Y890670D02*
Y893670D01*
X1785655Y172170D02*
X1788655D01*
X1787155Y170670D02*
Y173670D01*
X1805655Y132170D02*
X1808655D01*
X1807155Y130670D02*
Y133670D01*
X1785655Y92170D02*
X1788655D01*
X1787155Y90670D02*
Y93670D01*
X1785655Y12170D02*
X1788655D01*
X1787155Y10670D02*
Y13670D01*
X1765655Y1172170D02*
X1768655D01*
X1767155Y1170670D02*
Y1173670D01*
X1765655Y1092170D02*
X1768655D01*
X1767155Y1090670D02*
Y1093670D01*
X1745655Y1052170D02*
X1748655D01*
X1747155Y1050670D02*
Y1053670D01*
X1765655Y1012170D02*
X1768655D01*
X1767155Y1010670D02*
Y1013670D01*
X1745655Y972170D02*
X1748655D01*
X1747155Y970670D02*
Y973670D01*
X1745655Y892170D02*
X1748655D01*
X1747155Y890670D02*
Y893670D01*
X1765655Y532170D02*
X1768655D01*
X1767155Y530670D02*
Y533670D01*
X1745655Y492170D02*
X1748655D01*
X1747155Y490670D02*
Y493670D01*
X1745655Y172170D02*
X1748655D01*
X1747155Y170670D02*
Y173670D01*
X1765655Y132170D02*
X1768655D01*
X1767155Y130670D02*
Y133670D01*
X1745655Y92170D02*
X1748655D01*
X1747155Y90670D02*
Y93670D01*
X1765655Y52170D02*
X1768655D01*
X1767155Y50670D02*
Y53670D01*
X1745655Y12170D02*
X1748655D01*
X1747155Y10670D02*
Y13670D01*
X1725655Y1172170D02*
X1728655D01*
X1727155Y1170670D02*
Y1173670D01*
X1705655Y1132170D02*
X1708655D01*
X1707155Y1130670D02*
Y1133670D01*
X1725655Y1092170D02*
X1728655D01*
X1727155Y1090670D02*
Y1093670D01*
X1705655Y1052170D02*
X1708655D01*
X1707155Y1050670D02*
Y1053670D01*
X1725655Y1012170D02*
X1728655D01*
X1727155Y1010670D02*
Y1013670D01*
X1705655Y972170D02*
X1708655D01*
X1707155Y970670D02*
Y973670D01*
X1725655Y932170D02*
X1728655D01*
X1727155Y930670D02*
Y933670D01*
X1725655Y852170D02*
X1728655D01*
X1727155Y850670D02*
Y853670D01*
X1705655Y812170D02*
X1708655D01*
X1707155Y810670D02*
Y813670D01*
X1705655Y732170D02*
X1708655D01*
X1707155Y730670D02*
Y733670D01*
X1725655Y692170D02*
X1728655D01*
X1727155Y690670D02*
Y693670D01*
X1725655Y132170D02*
X1728655D01*
X1727155Y130670D02*
Y133670D01*
X1705655Y92170D02*
X1708655D01*
X1707155Y90670D02*
Y93670D01*
X1725655Y52170D02*
X1728655D01*
X1727155Y50670D02*
Y53670D01*
X1705655Y12170D02*
X1708655D01*
X1707155Y10670D02*
Y13670D01*
X1665655Y1132170D02*
X1668655D01*
X1667155Y1130670D02*
Y1133670D01*
X1685655Y1092170D02*
X1688655D01*
X1687155Y1090670D02*
Y1093670D01*
X1685655Y1012170D02*
X1688655D01*
X1687155Y1010670D02*
Y1013670D01*
X1665655Y172170D02*
X1668655D01*
X1667155Y170670D02*
Y173670D01*
X1685655Y132170D02*
X1688655D01*
X1687155Y130670D02*
Y133670D01*
X1665655Y92170D02*
X1668655D01*
X1667155Y90670D02*
Y93670D01*
X1685655Y52170D02*
X1688655D01*
X1687155Y50670D02*
Y53670D01*
X1665655Y12170D02*
X1668655D01*
X1667155Y10670D02*
Y13670D01*
X1625655Y1132170D02*
X1628655D01*
X1627155Y1130670D02*
Y1133670D01*
X1625655Y652170D02*
X1628655D01*
X1627155Y650670D02*
Y653670D01*
X1625655Y572170D02*
X1628655D01*
X1627155Y570670D02*
Y573670D01*
X1625655Y492170D02*
X1628655D01*
X1627155Y490670D02*
Y493670D01*
X1625655Y172170D02*
X1628655D01*
X1627155Y170670D02*
Y173670D01*
X1645655Y132170D02*
X1648655D01*
X1647155Y130670D02*
Y133670D01*
X1625655Y92170D02*
X1628655D01*
X1627155Y90670D02*
Y93670D01*
X1645655Y52170D02*
X1648655D01*
X1647155Y50670D02*
Y53670D01*
X1625655Y12170D02*
X1628655D01*
X1627155Y10670D02*
Y13670D01*
X1585655Y1052170D02*
X1588655D01*
X1587155Y1050670D02*
Y1053670D01*
X1605655Y1012170D02*
X1608655D01*
X1607155Y1010670D02*
Y1013670D01*
X1585655Y972170D02*
X1588655D01*
X1587155Y970670D02*
Y973670D01*
X1605655Y932170D02*
X1608655D01*
X1607155Y930670D02*
Y933670D01*
X1585655Y812170D02*
X1588655D01*
X1587155Y810670D02*
Y813670D01*
X1585655Y652170D02*
X1588655D01*
X1587155Y650670D02*
Y653670D01*
X1605655Y612170D02*
X1608655D01*
X1607155Y610670D02*
Y613670D01*
X1585655Y572170D02*
X1588655D01*
X1587155Y570670D02*
Y573670D01*
X1605655Y532170D02*
X1608655D01*
X1607155Y530670D02*
Y533670D01*
X1605655Y452170D02*
X1608655D01*
X1607155Y450670D02*
Y453670D01*
X1605655Y212170D02*
X1608655D01*
X1607155Y210670D02*
Y213670D01*
X1585655Y172170D02*
X1588655D01*
X1587155Y170670D02*
Y173670D01*
X1605655Y132170D02*
X1608655D01*
X1607155Y130670D02*
Y133670D01*
X1585655Y92170D02*
X1588655D01*
X1587155Y90670D02*
Y93670D01*
X1605655Y52170D02*
X1608655D01*
X1607155Y50670D02*
Y53670D01*
X1585655Y12170D02*
X1588655D01*
X1587155Y10670D02*
Y13670D01*
X1565655Y1172170D02*
X1568655D01*
X1567155Y1170670D02*
Y1173670D01*
X1545655Y1052170D02*
X1548655D01*
X1547155Y1050670D02*
Y1053670D01*
X1565655Y1012170D02*
X1568655D01*
X1567155Y1010670D02*
Y1013670D01*
X1545655Y972170D02*
X1548655D01*
X1547155Y970670D02*
Y973670D01*
X1565655Y932170D02*
X1568655D01*
X1567155Y930670D02*
Y933670D01*
X1545655Y812170D02*
X1548655D01*
X1547155Y810670D02*
Y813670D01*
X1545655Y732170D02*
X1548655D01*
X1547155Y730670D02*
Y733670D01*
X1565655Y692170D02*
X1568655D01*
X1567155Y690670D02*
Y693670D01*
X1545655Y652170D02*
X1548655D01*
X1547155Y650670D02*
Y653670D01*
X1565655Y612170D02*
X1568655D01*
X1567155Y610670D02*
Y613670D01*
X1545655Y572170D02*
X1548655D01*
X1547155Y570670D02*
Y573670D01*
X1565655Y532170D02*
X1568655D01*
X1567155Y530670D02*
Y533670D01*
X1545655Y492170D02*
X1548655D01*
X1547155Y490670D02*
Y493670D01*
X1565655Y452170D02*
X1568655D01*
X1567155Y450670D02*
Y453670D01*
X1545655Y412170D02*
X1548655D01*
X1547155Y410670D02*
Y413670D01*
X1565655Y212170D02*
X1568655D01*
X1567155Y210670D02*
Y213670D01*
X1545655Y172170D02*
X1548655D01*
X1547155Y170670D02*
Y173670D01*
X1565655Y132170D02*
X1568655D01*
X1567155Y130670D02*
Y133670D01*
X1545655Y92170D02*
X1548655D01*
X1547155Y90670D02*
Y93670D01*
X1565655Y52170D02*
X1568655D01*
X1567155Y50670D02*
Y53670D01*
X1545655Y12170D02*
X1548655D01*
X1547155Y10670D02*
Y13670D01*
X1505655Y1052170D02*
X1508655D01*
X1507155Y1050670D02*
Y1053670D01*
X1525655Y1012170D02*
X1528655D01*
X1527155Y1010670D02*
Y1013670D01*
X1505655Y972170D02*
X1508655D01*
X1507155Y970670D02*
Y973670D01*
X1505655Y892170D02*
X1508655D01*
X1507155Y890670D02*
Y893670D01*
X1525655Y692170D02*
X1528655D01*
X1527155Y690670D02*
Y693670D01*
X1525655Y612170D02*
X1528655D01*
X1527155Y610670D02*
Y613670D01*
X1525655Y532170D02*
X1528655D01*
X1527155Y530670D02*
Y533670D01*
X1505655Y492170D02*
X1508655D01*
X1507155Y490670D02*
Y493670D01*
X1525655Y452170D02*
X1528655D01*
X1527155Y450670D02*
Y453670D01*
X1505655Y412170D02*
X1508655D01*
X1507155Y410670D02*
Y413670D01*
X1525655Y212170D02*
X1528655D01*
X1527155Y210670D02*
Y213670D01*
X1505655Y172170D02*
X1508655D01*
X1507155Y170670D02*
Y173670D01*
X1525655Y132170D02*
X1528655D01*
X1527155Y130670D02*
Y133670D01*
X1505655Y92170D02*
X1508655D01*
X1507155Y90670D02*
Y93670D01*
X1525655Y52170D02*
X1528655D01*
X1527155Y50670D02*
Y53670D01*
X1505655Y12170D02*
X1508655D01*
X1507155Y10670D02*
Y13670D01*
X1485655Y1172170D02*
X1488655D01*
X1487155Y1170670D02*
Y1173670D01*
X1485655Y1012170D02*
X1488655D01*
X1487155Y1010670D02*
Y1013670D01*
X1465655Y972170D02*
X1468655D01*
X1467155Y970670D02*
Y973670D01*
X1465655Y892170D02*
X1468655D01*
X1467155Y890670D02*
Y893670D01*
X1485655Y852170D02*
X1488655D01*
X1487155Y850670D02*
Y853670D01*
X1485655Y772170D02*
X1488655D01*
X1487155Y770670D02*
Y773670D01*
X1485655Y452170D02*
X1488655D01*
X1487155Y450670D02*
Y453670D01*
X1465655Y412170D02*
X1468655D01*
X1467155Y410670D02*
Y413670D01*
X1485655Y212170D02*
X1488655D01*
X1487155Y210670D02*
Y213670D01*
X1465655Y172170D02*
X1468655D01*
X1467155Y170670D02*
Y173670D01*
X1485655Y132170D02*
X1488655D01*
X1487155Y130670D02*
Y133670D01*
X1465655Y92170D02*
X1468655D01*
X1467155Y90670D02*
Y93670D01*
X1485655Y52170D02*
X1488655D01*
X1487155Y50670D02*
Y53670D01*
X1465655Y12170D02*
X1468655D01*
X1467155Y10670D02*
Y13670D01*
X1445655Y1172170D02*
X1448655D01*
X1447155Y1170670D02*
Y1173670D01*
X1425655Y1132170D02*
X1428655D01*
X1427155Y1130670D02*
Y1133670D01*
X1425655Y1052170D02*
X1428655D01*
X1427155Y1050670D02*
Y1053670D01*
X1445655Y1012170D02*
X1448655D01*
X1447155Y1010670D02*
Y1013670D01*
X1445655Y212170D02*
X1448655D01*
X1447155Y210670D02*
Y213670D01*
X1425655Y172170D02*
X1428655D01*
X1427155Y170670D02*
Y173670D01*
X1445655Y132170D02*
X1448655D01*
X1447155Y130670D02*
Y133670D01*
X1425655Y92170D02*
X1428655D01*
X1427155Y90670D02*
Y93670D01*
X1445655Y52170D02*
X1448655D01*
X1447155Y50670D02*
Y53670D01*
X1425655Y12170D02*
X1428655D01*
X1427155Y10670D02*
Y13670D01*
X1405655Y1172170D02*
X1408655D01*
X1407155Y1170670D02*
Y1173670D01*
X1385655Y1132170D02*
X1388655D01*
X1387155Y1130670D02*
Y1133670D01*
X1385655Y1052170D02*
X1388655D01*
X1387155Y1050670D02*
Y1053670D01*
X1405655Y1012170D02*
X1408655D01*
X1407155Y1010670D02*
Y1013670D01*
X1385655Y972170D02*
X1388655D01*
X1387155Y970670D02*
Y973670D01*
X1385655Y412170D02*
X1388655D01*
X1387155Y410670D02*
Y413670D01*
X1405655Y212170D02*
X1408655D01*
X1407155Y210670D02*
Y213670D01*
X1385655Y172170D02*
X1388655D01*
X1387155Y170670D02*
Y173670D01*
X1405655Y132170D02*
X1408655D01*
X1407155Y130670D02*
Y133670D01*
X1385655Y92170D02*
X1388655D01*
X1387155Y90670D02*
Y93670D01*
X1405655Y52170D02*
X1408655D01*
X1407155Y50670D02*
Y53670D01*
X1385655Y12170D02*
X1388655D01*
X1387155Y10670D02*
Y13670D01*
X1365655Y1172170D02*
X1368655D01*
X1367155Y1170670D02*
Y1173670D01*
X1365655Y1012170D02*
X1368655D01*
X1367155Y1010670D02*
Y1013670D01*
X1365655Y212170D02*
X1368655D01*
X1367155Y210670D02*
Y213670D01*
X1345655Y172170D02*
X1348655D01*
X1347155Y170670D02*
Y173670D01*
X1365655Y132170D02*
X1368655D01*
X1367155Y130670D02*
Y133670D01*
X1345655Y92170D02*
X1348655D01*
X1347155Y90670D02*
Y93670D01*
X1365655Y52170D02*
X1368655D01*
X1367155Y50670D02*
Y53670D01*
X1345655Y12170D02*
X1348655D01*
X1347155Y10670D02*
Y13670D01*
X1325655Y1172170D02*
X1328655D01*
X1327155Y1170670D02*
Y1173670D01*
X1325655Y1012170D02*
X1328655D01*
X1327155Y1010670D02*
Y1013670D01*
X1305655Y732170D02*
X1308655D01*
X1307155Y730670D02*
Y733670D01*
X1325655Y212170D02*
X1328655D01*
X1327155Y210670D02*
Y213670D01*
X1305655Y172170D02*
X1308655D01*
X1307155Y170670D02*
Y173670D01*
X1325655Y132170D02*
X1328655D01*
X1327155Y130670D02*
Y133670D01*
X1305655Y92170D02*
X1308655D01*
X1307155Y90670D02*
Y93670D01*
X1325655Y52170D02*
X1328655D01*
X1327155Y50670D02*
Y53670D01*
X1305655Y12170D02*
X1308655D01*
X1307155Y10670D02*
Y13670D01*
X1285655Y1172170D02*
X1288655D01*
X1287155Y1170670D02*
Y1173670D01*
X1285655Y1012170D02*
X1288655D01*
X1287155Y1010670D02*
Y1013670D01*
X1285655Y212170D02*
X1288655D01*
X1287155Y210670D02*
Y213670D01*
X1265655Y172170D02*
X1268655D01*
X1267155Y170670D02*
Y173670D01*
X1285655Y132170D02*
X1288655D01*
X1287155Y130670D02*
Y133670D01*
X1265655Y92170D02*
X1268655D01*
X1267155Y90670D02*
Y93670D01*
X1285655Y52170D02*
X1288655D01*
X1287155Y50670D02*
Y53670D01*
X1265655Y12170D02*
X1268655D01*
X1267155Y10670D02*
Y13670D01*
X1245655Y1172170D02*
X1248655D01*
X1247155Y1170670D02*
Y1173670D01*
X1225655Y1132170D02*
X1228655D01*
X1227155Y1130670D02*
Y1133670D01*
X1225655Y1052170D02*
X1228655D01*
X1227155Y1050670D02*
Y1053670D01*
X1245655Y212170D02*
X1248655D01*
X1247155Y210670D02*
Y213670D01*
X1225655Y172170D02*
X1228655D01*
X1227155Y170670D02*
Y173670D01*
X1245655Y132170D02*
X1248655D01*
X1247155Y130670D02*
Y133670D01*
X1225655Y92170D02*
X1228655D01*
X1227155Y90670D02*
Y93670D01*
X1245655Y52170D02*
X1248655D01*
X1247155Y50670D02*
Y53670D01*
X1225655Y12170D02*
X1228655D01*
X1227155Y10670D02*
Y13670D01*
X1205655Y1172170D02*
X1208655D01*
X1207155Y1170670D02*
Y1173670D01*
X1185655Y1132170D02*
X1188655D01*
X1187155Y1130670D02*
Y1133670D01*
X1205655Y1092170D02*
X1208655D01*
X1207155Y1090670D02*
Y1093670D01*
X1185655Y1052170D02*
X1188655D01*
X1187155Y1050670D02*
Y1053670D01*
X1205655Y1012170D02*
X1208655D01*
X1207155Y1010670D02*
Y1013670D01*
X1205655Y452170D02*
X1208655D01*
X1207155Y450670D02*
Y453670D01*
X1205655Y212170D02*
X1208655D01*
X1207155Y210670D02*
Y213670D01*
X1185655Y172170D02*
X1188655D01*
X1187155Y170670D02*
Y173670D01*
X1205655Y132170D02*
X1208655D01*
X1207155Y130670D02*
Y133670D01*
X1205655Y52170D02*
X1208655D01*
X1207155Y50670D02*
Y53670D01*
X1185655Y12170D02*
X1188655D01*
X1187155Y10670D02*
Y13670D01*
X1165655Y1172170D02*
X1168655D01*
X1167155Y1170670D02*
Y1173670D01*
X1145655Y1132170D02*
X1148655D01*
X1147155Y1130670D02*
Y1133670D01*
X1165655Y1092170D02*
X1168655D01*
X1167155Y1090670D02*
Y1093670D01*
X1145655Y1052170D02*
X1148655D01*
X1147155Y1050670D02*
Y1053670D01*
X1165655Y1012170D02*
X1168655D01*
X1167155Y1010670D02*
Y1013670D01*
X1165655Y212170D02*
X1168655D01*
X1167155Y210670D02*
Y213670D01*
X1145655Y172170D02*
X1148655D01*
X1147155Y170670D02*
Y173670D01*
X1165655Y132170D02*
X1168655D01*
X1167155Y130670D02*
Y133670D01*
X1165655Y52170D02*
X1168655D01*
X1167155Y50670D02*
Y53670D01*
X1145655Y12170D02*
X1148655D01*
X1147155Y10670D02*
Y13670D01*
X1105655Y1132170D02*
X1108655D01*
X1107155Y1130670D02*
Y1133670D01*
X1125655Y1092170D02*
X1128655D01*
X1127155Y1090670D02*
Y1093670D01*
X1105655Y1052170D02*
X1108655D01*
X1107155Y1050670D02*
Y1053670D01*
X1125655Y212170D02*
X1128655D01*
X1127155Y210670D02*
Y213670D01*
X1105655Y172170D02*
X1108655D01*
X1107155Y170670D02*
Y173670D01*
X1125655Y132170D02*
X1128655D01*
X1127155Y130670D02*
Y133670D01*
X1125655Y52170D02*
X1128655D01*
X1127155Y50670D02*
Y53670D01*
X1105655Y12170D02*
X1108655D01*
X1107155Y10670D02*
Y13670D01*
X1065655Y1132170D02*
X1068655D01*
X1067155Y1130670D02*
Y1133670D01*
X1065655Y972170D02*
X1068655D01*
X1067155Y970670D02*
Y973670D01*
X1065655Y412170D02*
X1068655D01*
X1067155Y410670D02*
Y413670D01*
X1085655Y212170D02*
X1088655D01*
X1087155Y210670D02*
Y213670D01*
X1065655Y172170D02*
X1068655D01*
X1067155Y170670D02*
Y173670D01*
X1085655Y132170D02*
X1088655D01*
X1087155Y130670D02*
Y133670D01*
X1085655Y52170D02*
X1088655D01*
X1087155Y50670D02*
Y53670D01*
X1065655Y12170D02*
X1068655D01*
X1067155Y10670D02*
Y13670D01*
X1045655Y1172170D02*
X1048655D01*
X1047155Y1170670D02*
Y1173670D01*
X1025655Y1132170D02*
X1028655D01*
X1027155Y1130670D02*
Y1133670D01*
X1045655Y1092170D02*
X1048655D01*
X1047155Y1090670D02*
Y1093670D01*
X1025655Y572170D02*
X1028655D01*
X1027155Y570670D02*
Y573670D01*
X1025655Y492170D02*
X1028655D01*
X1027155Y490670D02*
Y493670D01*
X1045655Y452170D02*
X1048655D01*
X1047155Y450670D02*
Y453670D01*
X1025655Y412170D02*
X1028655D01*
X1027155Y410670D02*
Y413670D01*
X1045655Y212170D02*
X1048655D01*
X1047155Y210670D02*
Y213670D01*
X1025655Y172170D02*
X1028655D01*
X1027155Y170670D02*
Y173670D01*
X1045655Y132170D02*
X1048655D01*
X1047155Y130670D02*
Y133670D01*
X1045655Y52170D02*
X1048655D01*
X1047155Y50670D02*
Y53670D01*
X1025655Y12170D02*
X1028655D01*
X1027155Y10670D02*
Y13670D01*
X1005655Y1172170D02*
X1008655D01*
X1007155Y1170670D02*
Y1173670D01*
X985655Y1132170D02*
X988655D01*
X987155Y1130670D02*
Y1133670D01*
X1005655Y1092170D02*
X1008655D01*
X1007155Y1090670D02*
Y1093670D01*
X1005655Y212170D02*
X1008655D01*
X1007155Y210670D02*
Y213670D01*
X985655Y172170D02*
X988655D01*
X987155Y170670D02*
Y173670D01*
X1005655Y132170D02*
X1008655D01*
X1007155Y130670D02*
Y133670D01*
X1005655Y52170D02*
X1008655D01*
X1007155Y50670D02*
Y53670D01*
X985655Y12170D02*
X988655D01*
X987155Y10670D02*
Y13670D01*
X965655Y1172170D02*
X968655D01*
X967155Y1170670D02*
Y1173670D01*
X945655Y1132170D02*
X948655D01*
X947155Y1130670D02*
Y1133670D01*
X965655Y1092170D02*
X968655D01*
X967155Y1090670D02*
Y1093670D01*
X965655Y1012170D02*
X968655D01*
X967155Y1010670D02*
Y1013670D01*
X965655Y212170D02*
X968655D01*
X967155Y210670D02*
Y213670D01*
X945655Y172170D02*
X948655D01*
X947155Y170670D02*
Y173670D01*
X965655Y132170D02*
X968655D01*
X967155Y130670D02*
Y133670D01*
X965655Y52170D02*
X968655D01*
X967155Y50670D02*
Y53670D01*
X945655Y12170D02*
X948655D01*
X947155Y10670D02*
Y13670D01*
X925655Y1172170D02*
X928655D01*
X927155Y1170670D02*
Y1173670D01*
X905655Y1132170D02*
X908655D01*
X907155Y1130670D02*
Y1133670D01*
X925655Y1092170D02*
X928655D01*
X927155Y1090670D02*
Y1093670D01*
X925655Y1012170D02*
X928655D01*
X927155Y1010670D02*
Y1013670D01*
X925655Y212170D02*
X928655D01*
X927155Y210670D02*
Y213670D01*
X905655Y172170D02*
X908655D01*
X907155Y170670D02*
Y173670D01*
X925655Y132170D02*
X928655D01*
X927155Y130670D02*
Y133670D01*
X925655Y52170D02*
X928655D01*
X927155Y50670D02*
Y53670D01*
X905655Y12170D02*
X908655D01*
X907155Y10670D02*
Y13670D01*
X885655Y1172170D02*
X888655D01*
X887155Y1170670D02*
Y1173670D01*
X865655Y1132170D02*
X868655D01*
X867155Y1130670D02*
Y1133670D01*
X885655Y1092170D02*
X888655D01*
X887155Y1090670D02*
Y1093670D01*
X885655Y1012170D02*
X888655D01*
X887155Y1010670D02*
Y1013670D01*
X865655Y652170D02*
X868655D01*
X867155Y650670D02*
Y653670D01*
X865655Y492170D02*
X868655D01*
X867155Y490670D02*
Y493670D01*
X885655Y452170D02*
X888655D01*
X887155Y450670D02*
Y453670D01*
X865655Y412170D02*
X868655D01*
X867155Y410670D02*
Y413670D01*
X885655Y372170D02*
X888655D01*
X887155Y370670D02*
Y373670D01*
X865655Y332170D02*
X868655D01*
X867155Y330670D02*
Y333670D01*
X885655Y212170D02*
X888655D01*
X887155Y210670D02*
Y213670D01*
X865655Y172170D02*
X868655D01*
X867155Y170670D02*
Y173670D01*
X885655Y132170D02*
X888655D01*
X887155Y130670D02*
Y133670D01*
X885655Y52170D02*
X888655D01*
X887155Y50670D02*
Y53670D01*
X865655Y12170D02*
X868655D01*
X867155Y10670D02*
Y13670D01*
X845655Y1172170D02*
X848655D01*
X847155Y1170670D02*
Y1173670D01*
X825655Y1132170D02*
X828655D01*
X827155Y1130670D02*
Y1133670D01*
X845655Y1092170D02*
X848655D01*
X847155Y1090670D02*
Y1093670D01*
X845655Y1012170D02*
X848655D01*
X847155Y1010670D02*
Y1013670D01*
X825655Y652170D02*
X828655D01*
X827155Y650670D02*
Y653670D01*
X825655Y492170D02*
X828655D01*
X827155Y490670D02*
Y493670D01*
X845655Y452170D02*
X848655D01*
X847155Y450670D02*
Y453670D01*
X825655Y412170D02*
X828655D01*
X827155Y410670D02*
Y413670D01*
X845655Y372170D02*
X848655D01*
X847155Y370670D02*
Y373670D01*
X825655Y332170D02*
X828655D01*
X827155Y330670D02*
Y333670D01*
X845655Y212170D02*
X848655D01*
X847155Y210670D02*
Y213670D01*
X825655Y172170D02*
X828655D01*
X827155Y170670D02*
Y173670D01*
X845655Y132170D02*
X848655D01*
X847155Y130670D02*
Y133670D01*
X845655Y52170D02*
X848655D01*
X847155Y50670D02*
Y53670D01*
X825655Y12170D02*
X828655D01*
X827155Y10670D02*
Y13670D01*
X805655Y1172170D02*
X808655D01*
X807155Y1170670D02*
Y1173670D01*
X785655Y1132170D02*
X788655D01*
X787155Y1130670D02*
Y1133670D01*
X805655Y1092170D02*
X808655D01*
X807155Y1090670D02*
Y1093670D01*
X805655Y1012170D02*
X808655D01*
X807155Y1010670D02*
Y1013670D01*
X785655Y652170D02*
X788655D01*
X787155Y650670D02*
Y653670D01*
X805655Y452170D02*
X808655D01*
X807155Y450670D02*
Y453670D01*
X805655Y372170D02*
X808655D01*
X807155Y370670D02*
Y373670D01*
X805655Y212170D02*
X808655D01*
X807155Y210670D02*
Y213670D01*
X785655Y172170D02*
X788655D01*
X787155Y170670D02*
Y173670D01*
X805655Y132170D02*
X808655D01*
X807155Y130670D02*
Y133670D01*
X805655Y52170D02*
X808655D01*
X807155Y50670D02*
Y53670D01*
X785655Y12170D02*
X788655D01*
X787155Y10670D02*
Y13670D01*
X745655Y1132170D02*
X748655D01*
X747155Y1130670D02*
Y1133670D01*
X765655Y1092170D02*
X768655D01*
X767155Y1090670D02*
Y1093670D01*
X765655Y1012170D02*
X768655D01*
X767155Y1010670D02*
Y1013670D01*
X745655Y652170D02*
X748655D01*
X747155Y650670D02*
Y653670D01*
X765655Y212170D02*
X768655D01*
X767155Y210670D02*
Y213670D01*
X745655Y172170D02*
X748655D01*
X747155Y170670D02*
Y173670D01*
X765655Y132170D02*
X768655D01*
X767155Y130670D02*
Y133670D01*
X765655Y52170D02*
X768655D01*
X767155Y50670D02*
Y53670D01*
X745655Y12170D02*
X748655D01*
X747155Y10670D02*
Y13670D01*
X705655Y1132170D02*
X708655D01*
X707155Y1130670D02*
Y1133670D01*
X725655Y1012170D02*
X728655D01*
X727155Y1010670D02*
Y1013670D01*
X725655Y932170D02*
X728655D01*
X727155Y930670D02*
Y933670D01*
X705655Y652170D02*
X708655D01*
X707155Y650670D02*
Y653670D01*
X725655Y452170D02*
X728655D01*
X727155Y450670D02*
Y453670D01*
X705655Y412170D02*
X708655D01*
X707155Y410670D02*
Y413670D01*
X725655Y372170D02*
X728655D01*
X727155Y370670D02*
Y373670D01*
X705655Y332170D02*
X708655D01*
X707155Y330670D02*
Y333670D01*
X725655Y212170D02*
X728655D01*
X727155Y210670D02*
Y213670D01*
X705655Y172170D02*
X708655D01*
X707155Y170670D02*
Y173670D01*
X725655Y132170D02*
X728655D01*
X727155Y130670D02*
Y133670D01*
X725655Y52170D02*
X728655D01*
X727155Y50670D02*
Y53670D01*
X705655Y12170D02*
X708655D01*
X707155Y10670D02*
Y13670D01*
X665655Y1132170D02*
X668655D01*
X667155Y1130670D02*
Y1133670D01*
X685655Y1012170D02*
X688655D01*
X687155Y1010670D02*
Y1013670D01*
X665655Y652170D02*
X668655D01*
X667155Y650670D02*
Y653670D01*
X665655Y492170D02*
X668655D01*
X667155Y490670D02*
Y493670D01*
X665655Y412170D02*
X668655D01*
X667155Y410670D02*
Y413670D01*
X685655Y372170D02*
X688655D01*
X687155Y370670D02*
Y373670D01*
X665655Y332170D02*
X668655D01*
X667155Y330670D02*
Y333670D01*
X685655Y212170D02*
X688655D01*
X687155Y210670D02*
Y213670D01*
X665655Y172170D02*
X668655D01*
X667155Y170670D02*
Y173670D01*
X685655Y132170D02*
X688655D01*
X687155Y130670D02*
Y133670D01*
X685655Y52170D02*
X688655D01*
X687155Y50670D02*
Y53670D01*
X665655Y12170D02*
X668655D01*
X667155Y10670D02*
Y13670D01*
X645655Y1172170D02*
X648655D01*
X647155Y1170670D02*
Y1173670D01*
X625655Y1132170D02*
X628655D01*
X627155Y1130670D02*
Y1133670D01*
X645655Y1092170D02*
X648655D01*
X647155Y1090670D02*
Y1093670D01*
X645655Y1012170D02*
X648655D01*
X647155Y1010670D02*
Y1013670D01*
X625655Y652170D02*
X628655D01*
X627155Y650670D02*
Y653670D01*
X625655Y412170D02*
X628655D01*
X627155Y410670D02*
Y413670D01*
X645655Y372170D02*
X648655D01*
X647155Y370670D02*
Y373670D01*
X625655Y332170D02*
X628655D01*
X627155Y330670D02*
Y333670D01*
X645655Y212170D02*
X648655D01*
X647155Y210670D02*
Y213670D01*
X625655Y172170D02*
X628655D01*
X627155Y170670D02*
Y173670D01*
X645655Y132170D02*
X648655D01*
X647155Y130670D02*
Y133670D01*
X645655Y52170D02*
X648655D01*
X647155Y50670D02*
Y53670D01*
X625655Y12170D02*
X628655D01*
X627155Y10670D02*
Y13670D01*
X605655Y1172170D02*
X608655D01*
X607155Y1170670D02*
Y1173670D01*
X585655Y1132170D02*
X588655D01*
X587155Y1130670D02*
Y1133670D01*
X605655Y1012170D02*
X608655D01*
X607155Y1010670D02*
Y1013670D01*
X585655Y652170D02*
X588655D01*
X587155Y650670D02*
Y653670D01*
X605655Y452170D02*
X608655D01*
X607155Y450670D02*
Y453670D01*
X585655Y412170D02*
X588655D01*
X587155Y410670D02*
Y413670D01*
X605655Y372170D02*
X608655D01*
X607155Y370670D02*
Y373670D01*
X585655Y332170D02*
X588655D01*
X587155Y330670D02*
Y333670D01*
X605655Y212170D02*
X608655D01*
X607155Y210670D02*
Y213670D01*
X585655Y172170D02*
X588655D01*
X587155Y170670D02*
Y173670D01*
X605655Y132170D02*
X608655D01*
X607155Y130670D02*
Y133670D01*
X605655Y52170D02*
X608655D01*
X607155Y50670D02*
Y53670D01*
X585655Y12170D02*
X588655D01*
X587155Y10670D02*
Y13670D01*
X565655Y1172170D02*
X568655D01*
X567155Y1170670D02*
Y1173670D01*
X545655Y1132170D02*
X548655D01*
X547155Y1130670D02*
Y1133670D01*
X565655Y1092170D02*
X568655D01*
X567155Y1090670D02*
Y1093670D01*
X565655Y1012170D02*
X568655D01*
X567155Y1010670D02*
Y1013670D01*
X565655Y692170D02*
X568655D01*
X567155Y690670D02*
Y693670D01*
X545655Y652170D02*
X548655D01*
X547155Y650670D02*
Y653670D01*
X565655Y452170D02*
X568655D01*
X567155Y450670D02*
Y453670D01*
X545655Y412170D02*
X548655D01*
X547155Y410670D02*
Y413670D01*
X565655Y372170D02*
X568655D01*
X567155Y370670D02*
Y373670D01*
X545655Y332170D02*
X548655D01*
X547155Y330670D02*
Y333670D01*
X565655Y212170D02*
X568655D01*
X567155Y210670D02*
Y213670D01*
X545655Y172170D02*
X548655D01*
X547155Y170670D02*
Y173670D01*
X565655Y132170D02*
X568655D01*
X567155Y130670D02*
Y133670D01*
X565655Y52170D02*
X568655D01*
X567155Y50670D02*
Y53670D01*
X545655Y12170D02*
X548655D01*
X547155Y10670D02*
Y13670D01*
X505655Y1132170D02*
X508655D01*
X507155Y1130670D02*
Y1133670D01*
X525655Y1092170D02*
X528655D01*
X527155Y1090670D02*
Y1093670D01*
X505655Y1052170D02*
X508655D01*
X507155Y1050670D02*
Y1053670D01*
X525655Y852170D02*
X528655D01*
X527155Y850670D02*
Y853670D01*
X505655Y652170D02*
X508655D01*
X507155Y650670D02*
Y653670D01*
X525655Y452170D02*
X528655D01*
X527155Y450670D02*
Y453670D01*
X505655Y412170D02*
X508655D01*
X507155Y410670D02*
Y413670D01*
X525655Y372170D02*
X528655D01*
X527155Y370670D02*
Y373670D01*
X505655Y332170D02*
X508655D01*
X507155Y330670D02*
Y333670D01*
X525655Y212170D02*
X528655D01*
X527155Y210670D02*
Y213670D01*
X505655Y172170D02*
X508655D01*
X507155Y170670D02*
Y173670D01*
X525655Y132170D02*
X528655D01*
X527155Y130670D02*
Y133670D01*
X525655Y52170D02*
X528655D01*
X527155Y50670D02*
Y53670D01*
X505655Y12170D02*
X508655D01*
X507155Y10670D02*
Y13670D01*
X485655Y1172170D02*
X488655D01*
X487155Y1170670D02*
Y1173670D01*
X465655Y1132170D02*
X468655D01*
X467155Y1130670D02*
Y1133670D01*
X485655Y1092170D02*
X488655D01*
X487155Y1090670D02*
Y1093670D01*
X465655Y1052170D02*
X468655D01*
X467155Y1050670D02*
Y1053670D01*
X465655Y652170D02*
X468655D01*
X467155Y650670D02*
Y653670D01*
X485655Y452170D02*
X488655D01*
X487155Y450670D02*
Y453670D01*
X465655Y412170D02*
X468655D01*
X467155Y410670D02*
Y413670D01*
X485655Y372170D02*
X488655D01*
X487155Y370670D02*
Y373670D01*
X465655Y332170D02*
X468655D01*
X467155Y330670D02*
Y333670D01*
X485655Y212170D02*
X488655D01*
X487155Y210670D02*
Y213670D01*
X465655Y172170D02*
X468655D01*
X467155Y170670D02*
Y173670D01*
X485655Y132170D02*
X488655D01*
X487155Y130670D02*
Y133670D01*
X485655Y52170D02*
X488655D01*
X487155Y50670D02*
Y53670D01*
X465655Y12170D02*
X468655D01*
X467155Y10670D02*
Y13670D01*
X445655Y1172170D02*
X448655D01*
X447155Y1170670D02*
Y1173670D01*
X425655Y1132170D02*
X428655D01*
X427155Y1130670D02*
Y1133670D01*
X445655Y1092170D02*
X448655D01*
X447155Y1090670D02*
Y1093670D01*
X425655Y1052170D02*
X428655D01*
X427155Y1050670D02*
Y1053670D01*
X425655Y972170D02*
X428655D01*
X427155Y970670D02*
Y973670D01*
X425655Y652170D02*
X428655D01*
X427155Y650670D02*
Y653670D01*
X425655Y492170D02*
X428655D01*
X427155Y490670D02*
Y493670D01*
X445655Y452170D02*
X448655D01*
X447155Y450670D02*
Y453670D01*
X425655Y412170D02*
X428655D01*
X427155Y410670D02*
Y413670D01*
X445655Y372170D02*
X448655D01*
X447155Y370670D02*
Y373670D01*
X425655Y332170D02*
X428655D01*
X427155Y330670D02*
Y333670D01*
X445655Y212170D02*
X448655D01*
X447155Y210670D02*
Y213670D01*
X425655Y172170D02*
X428655D01*
X427155Y170670D02*
Y173670D01*
X445655Y132170D02*
X448655D01*
X447155Y130670D02*
Y133670D01*
X445655Y52170D02*
X448655D01*
X447155Y50670D02*
Y53670D01*
X425655Y12170D02*
X428655D01*
X427155Y10670D02*
Y13670D01*
X405655Y1172170D02*
X408655D01*
X407155Y1170670D02*
Y1173670D01*
X385655Y1132170D02*
X388655D01*
X387155Y1130670D02*
Y1133670D01*
X405655Y1092170D02*
X408655D01*
X407155Y1090670D02*
Y1093670D01*
X385655Y1052170D02*
X388655D01*
X387155Y1050670D02*
Y1053670D01*
X385655Y972170D02*
X388655D01*
X387155Y970670D02*
Y973670D01*
X405655Y932170D02*
X408655D01*
X407155Y930670D02*
Y933670D01*
X385655Y892170D02*
X388655D01*
X387155Y890670D02*
Y893670D01*
X385655Y812170D02*
X388655D01*
X387155Y810670D02*
Y813670D01*
X385655Y652170D02*
X388655D01*
X387155Y650670D02*
Y653670D01*
X385655Y492170D02*
X388655D01*
X387155Y490670D02*
Y493670D01*
X405655Y452170D02*
X408655D01*
X407155Y450670D02*
Y453670D01*
X385655Y412170D02*
X388655D01*
X387155Y410670D02*
Y413670D01*
X405655Y372170D02*
X408655D01*
X407155Y370670D02*
Y373670D01*
X385655Y332170D02*
X388655D01*
X387155Y330670D02*
Y333670D01*
X405655Y212170D02*
X408655D01*
X407155Y210670D02*
Y213670D01*
X385655Y172170D02*
X388655D01*
X387155Y170670D02*
Y173670D01*
X405655Y132170D02*
X408655D01*
X407155Y130670D02*
Y133670D01*
X405655Y52170D02*
X408655D01*
X407155Y50670D02*
Y53670D01*
X385655Y12170D02*
X388655D01*
X387155Y10670D02*
Y13670D01*
X365655Y1172170D02*
X368655D01*
X367155Y1170670D02*
Y1173670D01*
X345655Y1132170D02*
X348655D01*
X347155Y1130670D02*
Y1133670D01*
X365655Y1092170D02*
X368655D01*
X367155Y1090670D02*
Y1093670D01*
X345655Y1052170D02*
X348655D01*
X347155Y1050670D02*
Y1053670D01*
X345655Y972170D02*
X348655D01*
X347155Y970670D02*
Y973670D01*
X345655Y892170D02*
X348655D01*
X347155Y890670D02*
Y893670D01*
X365655Y852170D02*
X368655D01*
X367155Y850670D02*
Y853670D01*
X345655Y652170D02*
X348655D01*
X347155Y650670D02*
Y653670D01*
X345655Y492170D02*
X348655D01*
X347155Y490670D02*
Y493670D01*
X365655Y452170D02*
X368655D01*
X367155Y450670D02*
Y453670D01*
X345655Y412170D02*
X348655D01*
X347155Y410670D02*
Y413670D01*
X365655Y372170D02*
X368655D01*
X367155Y370670D02*
Y373670D01*
X345655Y332170D02*
X348655D01*
X347155Y330670D02*
Y333670D01*
X365655Y212170D02*
X368655D01*
X367155Y210670D02*
Y213670D01*
X345655Y172170D02*
X348655D01*
X347155Y170670D02*
Y173670D01*
X365655Y132170D02*
X368655D01*
X367155Y130670D02*
Y133670D01*
X365655Y52170D02*
X368655D01*
X367155Y50670D02*
Y53670D01*
X345655Y12170D02*
X348655D01*
X347155Y10670D02*
Y13670D01*
X325655Y1172170D02*
X328655D01*
X327155Y1170670D02*
Y1173670D01*
X305655Y1132170D02*
X308655D01*
X307155Y1130670D02*
Y1133670D01*
X325655Y1092170D02*
X328655D01*
X327155Y1090670D02*
Y1093670D01*
X305655Y1052170D02*
X308655D01*
X307155Y1050670D02*
Y1053670D01*
X325655Y932170D02*
X328655D01*
X327155Y930670D02*
Y933670D01*
X325655Y852170D02*
X328655D01*
X327155Y850670D02*
Y853670D01*
X325655Y692170D02*
X328655D01*
X327155Y690670D02*
Y693670D01*
X305655Y492170D02*
X308655D01*
X307155Y490670D02*
Y493670D01*
X325655Y452170D02*
X328655D01*
X327155Y450670D02*
Y453670D01*
X305655Y412170D02*
X308655D01*
X307155Y410670D02*
Y413670D01*
X325655Y372170D02*
X328655D01*
X327155Y370670D02*
Y373670D01*
X305655Y332170D02*
X308655D01*
X307155Y330670D02*
Y333670D01*
X325655Y212170D02*
X328655D01*
X327155Y210670D02*
Y213670D01*
X305655Y172170D02*
X308655D01*
X307155Y170670D02*
Y173670D01*
X325655Y132170D02*
X328655D01*
X327155Y130670D02*
Y133670D01*
X325655Y52170D02*
X328655D01*
X327155Y50670D02*
Y53670D01*
X305655Y12170D02*
X308655D01*
X307155Y10670D02*
Y13670D01*
X285655Y1172170D02*
X288655D01*
X287155Y1170670D02*
Y1173670D01*
X265655Y1132170D02*
X268655D01*
X267155Y1130670D02*
Y1133670D01*
X285655Y1092170D02*
X288655D01*
X287155Y1090670D02*
Y1093670D01*
X265655Y1052170D02*
X268655D01*
X267155Y1050670D02*
Y1053670D01*
X265655Y492170D02*
X268655D01*
X267155Y490670D02*
Y493670D01*
X285655Y452170D02*
X288655D01*
X287155Y450670D02*
Y453670D01*
X265655Y412170D02*
X268655D01*
X267155Y410670D02*
Y413670D01*
X285655Y372170D02*
X288655D01*
X287155Y370670D02*
Y373670D01*
X265655Y332170D02*
X268655D01*
X267155Y330670D02*
Y333670D01*
X285655Y212170D02*
X288655D01*
X287155Y210670D02*
Y213670D01*
X265655Y172170D02*
X268655D01*
X267155Y170670D02*
Y173670D01*
X285655Y132170D02*
X288655D01*
X287155Y130670D02*
Y133670D01*
X265655Y92170D02*
X268655D01*
X267155Y90670D02*
Y93670D01*
X285655Y52170D02*
X288655D01*
X287155Y50670D02*
Y53670D01*
X265655Y12170D02*
X268655D01*
X267155Y10670D02*
Y13670D01*
X245655Y1172170D02*
X248655D01*
X247155Y1170670D02*
Y1173670D01*
X225655Y1132170D02*
X228655D01*
X227155Y1130670D02*
Y1133670D01*
X245655Y1092170D02*
X248655D01*
X247155Y1090670D02*
Y1093670D01*
X225655Y1052170D02*
X228655D01*
X227155Y1050670D02*
Y1053670D01*
X225655Y972170D02*
X228655D01*
X227155Y970670D02*
Y973670D01*
X225655Y812170D02*
X228655D01*
X227155Y810670D02*
Y813670D01*
X225655Y732170D02*
X228655D01*
X227155Y730670D02*
Y733670D01*
X225655Y652170D02*
X228655D01*
X227155Y650670D02*
Y653670D01*
X225655Y572170D02*
X228655D01*
X227155Y570670D02*
Y573670D01*
X245655Y532170D02*
X248655D01*
X247155Y530670D02*
Y533670D01*
X225655Y492170D02*
X228655D01*
X227155Y490670D02*
Y493670D01*
X245655Y452170D02*
X248655D01*
X247155Y450670D02*
Y453670D01*
X225655Y412170D02*
X228655D01*
X227155Y410670D02*
Y413670D01*
X245655Y372170D02*
X248655D01*
X247155Y370670D02*
Y373670D01*
X225655Y332170D02*
X228655D01*
X227155Y330670D02*
Y333670D01*
X245655Y212170D02*
X248655D01*
X247155Y210670D02*
Y213670D01*
X225655Y172170D02*
X228655D01*
X227155Y170670D02*
Y173670D01*
X245655Y132170D02*
X248655D01*
X247155Y130670D02*
Y133670D01*
X225655Y92170D02*
X228655D01*
X227155Y90670D02*
Y93670D01*
X245655Y52170D02*
X248655D01*
X247155Y50670D02*
Y53670D01*
X225655Y12170D02*
X228655D01*
X227155Y10670D02*
Y13670D01*
X205655Y1172170D02*
X208655D01*
X207155Y1170670D02*
Y1173670D01*
X185655Y1132170D02*
X188655D01*
X187155Y1130670D02*
Y1133670D01*
X205655Y1092170D02*
X208655D01*
X207155Y1090670D02*
Y1093670D01*
X185655Y1052170D02*
X188655D01*
X187155Y1050670D02*
Y1053670D01*
X205655Y1012170D02*
X208655D01*
X207155Y1010670D02*
Y1013670D01*
X185655Y972170D02*
X188655D01*
X187155Y970670D02*
Y973670D01*
X205655Y932170D02*
X208655D01*
X207155Y930670D02*
Y933670D01*
X205655Y852170D02*
X208655D01*
X207155Y850670D02*
Y853670D01*
X185655Y812170D02*
X188655D01*
X187155Y810670D02*
Y813670D01*
X205655Y772170D02*
X208655D01*
X207155Y770670D02*
Y773670D01*
X185655Y732170D02*
X188655D01*
X187155Y730670D02*
Y733670D01*
X205655Y692170D02*
X208655D01*
X207155Y690670D02*
Y693670D01*
X185655Y652170D02*
X188655D01*
X187155Y650670D02*
Y653670D01*
X205655Y612170D02*
X208655D01*
X207155Y610670D02*
Y613670D01*
X185655Y572170D02*
X188655D01*
X187155Y570670D02*
Y573670D01*
X205655Y532170D02*
X208655D01*
X207155Y530670D02*
Y533670D01*
X185655Y492170D02*
X188655D01*
X187155Y490670D02*
Y493670D01*
X205655Y452170D02*
X208655D01*
X207155Y450670D02*
Y453670D01*
X185655Y412170D02*
X188655D01*
X187155Y410670D02*
Y413670D01*
X205655Y372170D02*
X208655D01*
X207155Y370670D02*
Y373670D01*
X185655Y332170D02*
X188655D01*
X187155Y330670D02*
Y333670D01*
X205655Y212170D02*
X208655D01*
X207155Y210670D02*
Y213670D01*
X185655Y172170D02*
X188655D01*
X187155Y170670D02*
Y173670D01*
X205655Y132170D02*
X208655D01*
X207155Y130670D02*
Y133670D01*
X185655Y92170D02*
X188655D01*
X187155Y90670D02*
Y93670D01*
X205655Y52170D02*
X208655D01*
X207155Y50670D02*
Y53670D01*
X185655Y12170D02*
X188655D01*
X187155Y10670D02*
Y13670D01*
X165655Y1172170D02*
X168655D01*
X167155Y1170670D02*
Y1173670D01*
X145655Y1132170D02*
X148655D01*
X147155Y1130670D02*
Y1133670D01*
X165655Y1092170D02*
X168655D01*
X167155Y1090670D02*
Y1093670D01*
X145655Y1052170D02*
X148655D01*
X147155Y1050670D02*
Y1053670D01*
X165655Y1012170D02*
X168655D01*
X167155Y1010670D02*
Y1013670D01*
X145655Y972170D02*
X148655D01*
X147155Y970670D02*
Y973670D01*
X165655Y932170D02*
X168655D01*
X167155Y930670D02*
Y933670D01*
X145655Y812170D02*
X148655D01*
X147155Y810670D02*
Y813670D01*
X165655Y772170D02*
X168655D01*
X167155Y770670D02*
Y773670D01*
X145655Y732170D02*
X148655D01*
X147155Y730670D02*
Y733670D01*
X165655Y692170D02*
X168655D01*
X167155Y690670D02*
Y693670D01*
X145655Y652170D02*
X148655D01*
X147155Y650670D02*
Y653670D01*
X165655Y612170D02*
X168655D01*
X167155Y610670D02*
Y613670D01*
X145655Y572170D02*
X148655D01*
X147155Y570670D02*
Y573670D01*
X165655Y532170D02*
X168655D01*
X167155Y530670D02*
Y533670D01*
X145655Y492170D02*
X148655D01*
X147155Y490670D02*
Y493670D01*
X165655Y452170D02*
X168655D01*
X167155Y450670D02*
Y453670D01*
X145655Y412170D02*
X148655D01*
X147155Y410670D02*
Y413670D01*
X165655Y372170D02*
X168655D01*
X167155Y370670D02*
Y373670D01*
X145655Y332170D02*
X148655D01*
X147155Y330670D02*
Y333670D01*
X165655Y212170D02*
X168655D01*
X167155Y210670D02*
Y213670D01*
X145655Y172170D02*
X148655D01*
X147155Y170670D02*
Y173670D01*
X165655Y132170D02*
X168655D01*
X167155Y130670D02*
Y133670D01*
X145655Y92170D02*
X148655D01*
X147155Y90670D02*
Y93670D01*
X165655Y52170D02*
X168655D01*
X167155Y50670D02*
Y53670D01*
X145655Y12170D02*
X148655D01*
X147155Y10670D02*
Y13670D01*
X125655Y1172170D02*
X128655D01*
X127155Y1170670D02*
Y1173670D01*
X105655Y1132170D02*
X108655D01*
X107155Y1130670D02*
Y1133670D01*
X125655Y1092170D02*
X128655D01*
X127155Y1090670D02*
Y1093670D01*
X105655Y1052170D02*
X108655D01*
X107155Y1050670D02*
Y1053670D01*
X125655Y1012170D02*
X128655D01*
X127155Y1010670D02*
Y1013670D01*
X105655Y972170D02*
X108655D01*
X107155Y970670D02*
Y973670D01*
X125655Y932170D02*
X128655D01*
X127155Y930670D02*
Y933670D01*
X125655Y212170D02*
X128655D01*
X127155Y210670D02*
Y213670D01*
X105655Y172170D02*
X108655D01*
X107155Y170670D02*
Y173670D01*
X125655Y132170D02*
X128655D01*
X127155Y130670D02*
Y133670D01*
X105655Y92170D02*
X108655D01*
X107155Y90670D02*
Y93670D01*
X125655Y52170D02*
X128655D01*
X127155Y50670D02*
Y53670D01*
X105655Y12170D02*
X108655D01*
X107155Y10670D02*
Y13670D01*
X85655Y1172170D02*
X88655D01*
X87155Y1170670D02*
Y1173670D01*
X65655Y1132170D02*
X68655D01*
X67155Y1130670D02*
Y1133670D01*
X85655Y1092170D02*
X88655D01*
X87155Y1090670D02*
Y1093670D01*
X65655Y1052170D02*
X68655D01*
X67155Y1050670D02*
Y1053670D01*
X85655Y1012170D02*
X88655D01*
X87155Y1010670D02*
Y1013670D01*
X65655Y892170D02*
X68655D01*
X67155Y890670D02*
Y893670D01*
X85655Y772170D02*
X88655D01*
X87155Y770670D02*
Y773670D01*
X65655Y732170D02*
X68655D01*
X67155Y730670D02*
Y733670D01*
X85655Y692170D02*
X88655D01*
X87155Y690670D02*
Y693670D01*
X65655Y652170D02*
X68655D01*
X67155Y650670D02*
Y653670D01*
X85655Y612170D02*
X88655D01*
X87155Y610670D02*
Y613670D01*
X65655Y572170D02*
X68655D01*
X67155Y570670D02*
Y573670D01*
X85655Y532170D02*
X88655D01*
X87155Y530670D02*
Y533670D01*
X65655Y492170D02*
X68655D01*
X67155Y490670D02*
Y493670D01*
X85655Y452170D02*
X88655D01*
X87155Y450670D02*
Y453670D01*
X65655Y412170D02*
X68655D01*
X67155Y410670D02*
Y413670D01*
X85655Y372170D02*
X88655D01*
X87155Y370670D02*
Y373670D01*
X65655Y332170D02*
X68655D01*
X67155Y330670D02*
Y333670D01*
X85655Y292170D02*
X88655D01*
X87155Y290670D02*
Y293670D01*
X65655Y252170D02*
X68655D01*
X67155Y250670D02*
Y253670D01*
X85655Y212170D02*
X88655D01*
X87155Y210670D02*
Y213670D01*
X65655Y172170D02*
X68655D01*
X67155Y170670D02*
Y173670D01*
X85655Y132170D02*
X88655D01*
X87155Y130670D02*
Y133670D01*
X65655Y92170D02*
X68655D01*
X67155Y90670D02*
Y93670D01*
X85655Y52170D02*
X88655D01*
X87155Y50670D02*
Y53670D01*
X65655Y12170D02*
X68655D01*
X67155Y10670D02*
Y13670D01*
X25655Y1132170D02*
X28655D01*
X27155Y1130670D02*
Y1133670D01*
X45655Y1092170D02*
X48655D01*
X47155Y1090670D02*
Y1093670D01*
X25655Y1052170D02*
X28655D01*
X27155Y1050670D02*
Y1053670D01*
X45655Y1012170D02*
X48655D01*
X47155Y1010670D02*
Y1013670D01*
X45655Y932170D02*
X48655D01*
X47155Y930670D02*
Y933670D01*
X25655Y892170D02*
X28655D01*
X27155Y890670D02*
Y893670D01*
X45655Y852170D02*
X48655D01*
X47155Y850670D02*
Y853670D01*
X45655Y772170D02*
X48655D01*
X47155Y770670D02*
Y773670D01*
X25655Y732170D02*
X28655D01*
X27155Y730670D02*
Y733670D01*
X45655Y692170D02*
X48655D01*
X47155Y690670D02*
Y693670D01*
X25655Y652170D02*
X28655D01*
X27155Y650670D02*
Y653670D01*
X45655Y612170D02*
X48655D01*
X47155Y610670D02*
Y613670D01*
X25655Y572170D02*
X28655D01*
X27155Y570670D02*
Y573670D01*
X45655Y532170D02*
X48655D01*
X47155Y530670D02*
Y533670D01*
X25655Y492170D02*
X28655D01*
X27155Y490670D02*
Y493670D01*
X45655Y452170D02*
X48655D01*
X47155Y450670D02*
Y453670D01*
X25655Y412170D02*
X28655D01*
X27155Y410670D02*
Y413670D01*
X45655Y372170D02*
X48655D01*
X47155Y370670D02*
Y373670D01*
X25655Y332170D02*
X28655D01*
X27155Y330670D02*
Y333670D01*
X45655Y292170D02*
X48655D01*
X47155Y290670D02*
Y293670D01*
X25655Y252170D02*
X28655D01*
X27155Y250670D02*
Y253670D01*
X45655Y212170D02*
X48655D01*
X47155Y210670D02*
Y213670D01*
X25655Y172170D02*
X28655D01*
X27155Y170670D02*
Y173670D01*
X45655Y132170D02*
X48655D01*
X47155Y130670D02*
Y133670D01*
X25655Y92170D02*
X28655D01*
X27155Y90670D02*
Y93670D01*
X1763755Y333627D02*
X1766755D01*
X1765255Y332127D02*
Y335127D01*
X1763755Y315702D02*
X1766755D01*
X1765255Y314202D02*
Y317202D01*
X1763755Y324664D02*
X1766755D01*
X1765255Y323164D02*
Y326164D01*
X1763755Y306739D02*
X1766755D01*
X1765255Y305239D02*
Y308239D01*
X1755620Y324844D02*
X1758620D01*
X1757120Y323344D02*
Y326344D01*
X1755620Y315950D02*
X1758620D01*
X1757120Y314450D02*
Y317450D01*
X1755620Y307056D02*
X1758620D01*
X1757120Y305556D02*
Y308556D01*
X1755620Y333738D02*
X1758620D01*
X1757120Y332238D02*
Y335238D01*
X989833Y713000D02*
X992833D01*
X991333Y711500D02*
Y714500D01*
X989296Y730710D02*
X992296D01*
X990796Y729210D02*
Y732210D01*
X978952Y713000D02*
X981952D01*
X980452Y711500D02*
Y714500D01*
X978415Y730710D02*
X981415D01*
X979915Y729210D02*
Y732210D01*
X283629Y757884D02*
X286629D01*
X285129Y756384D02*
Y759384D01*
X294419Y758106D02*
X297419D01*
X295919Y756606D02*
Y759606D01*
X294346Y740618D02*
X297346D01*
X295846Y739118D02*
Y742118D01*
X284001Y740916D02*
X287001D01*
X285501Y739416D02*
Y742416D01*
X288954Y749008D02*
X291954D01*
X290454Y747508D02*
Y750508D01*
X537867Y755000D02*
X540867D01*
X539367Y753500D02*
Y756500D01*
X523815Y755000D02*
X526815D01*
X525315Y753500D02*
Y756500D01*
X874500Y712000D02*
X877500D01*
X876000Y710500D02*
Y713500D01*
X882500Y712000D02*
X885500D01*
X884000Y710500D02*
Y713500D01*
X874500Y729000D02*
X877500D01*
X876000Y727500D02*
Y730500D01*
X882500Y729000D02*
X885500D01*
X884000Y727500D02*
Y730500D01*
X1855638Y958000D02*
X1858638D01*
X1857138Y956500D02*
Y959500D01*
X1839233Y958000D02*
X1842233D01*
X1840733Y956500D02*
Y959500D01*
X1847547Y963218D02*
X1850547D01*
X1849047Y961718D02*
Y964718D01*
X1856056Y968000D02*
X1859056D01*
X1857556Y966500D02*
Y969500D01*
X1838750Y968000D02*
X1841750D01*
X1840250Y966500D02*
Y969500D01*
X1838724Y815580D02*
X1841724D01*
X1840224Y814080D02*
Y817080D01*
X1855129Y815580D02*
X1858129D01*
X1856629Y814080D02*
Y817080D01*
X1847038Y820798D02*
X1850038D01*
X1848538Y819298D02*
Y822298D01*
X1838241Y825580D02*
X1841241D01*
X1839741Y824080D02*
Y827080D01*
X1855547Y825580D02*
X1858547D01*
X1857047Y824080D02*
Y827080D01*
X1391921Y1195170D02*
X1394921D01*
X1393421Y1193670D02*
Y1196670D01*
X1401921Y1195653D02*
X1404921D01*
X1403421Y1194153D02*
Y1197153D01*
X1396703Y1203967D02*
X1399703D01*
X1398203Y1202467D02*
Y1205467D01*
X1401921Y1212058D02*
X1404921D01*
X1403421Y1210558D02*
Y1213558D01*
X1391921Y1212476D02*
X1394921D01*
X1393421Y1210976D02*
Y1213976D01*
X1224344Y1195448D02*
X1227344D01*
X1225844Y1193948D02*
Y1196948D01*
X1224344Y1212754D02*
X1227344D01*
X1225844Y1211254D02*
Y1214254D01*
X1234344Y1195931D02*
X1237344D01*
X1235844Y1194431D02*
Y1197431D01*
X1229126Y1204245D02*
X1232126D01*
X1230626Y1202745D02*
Y1205745D01*
X1234344Y1212336D02*
X1237344D01*
X1235844Y1210836D02*
Y1213836D01*
X1307258Y845011D02*
X1310258D01*
X1308758Y843511D02*
Y846511D01*
X1224546Y697357D02*
X1227546D01*
X1226046Y695857D02*
Y698857D01*
X1109771Y743676D02*
X1112771D01*
X1111271Y742176D02*
Y745176D01*
X1098200Y820318D02*
X1101200D01*
X1099700Y818818D02*
Y821818D01*
X532532Y1028233D02*
X535532D01*
X534032Y1026733D02*
Y1029733D01*
X1150775Y862500D02*
X1153775D01*
X1152275Y861000D02*
Y864000D01*
X1189910Y862500D02*
X1192910D01*
X1191410Y861000D02*
Y864000D01*
X1493588Y579054D02*
X1496588D01*
X1495088Y577554D02*
Y580554D01*
X1493477Y595466D02*
X1496477D01*
X1494977Y593966D02*
Y596966D01*
X1343321Y873102D02*
X1346321D01*
X1344821Y871602D02*
Y874602D01*
X1003239Y675947D02*
X1006239D01*
X1004739Y674447D02*
Y677447D01*
X954009Y656185D02*
X957009D01*
X955509Y654685D02*
Y657685D01*
X988190Y656185D02*
X991190D01*
X989690Y654685D02*
Y657685D01*
X917807Y656185D02*
X920807D01*
X919307Y654685D02*
Y657685D01*
X1649237Y468748D02*
X1652237D01*
X1650737Y467248D02*
Y470248D01*
X1647954Y672801D02*
X1650954D01*
X1649454Y671301D02*
Y674301D01*
X1647592Y701249D02*
X1650592D01*
X1649092Y699749D02*
Y702749D01*
X1648159Y686515D02*
X1651159D01*
X1649659Y685015D02*
Y688015D01*
X1721139Y514000D02*
X1724139D01*
X1722639Y512500D02*
Y515500D01*
X1698787Y514000D02*
X1701787D01*
X1700287Y512500D02*
Y515500D01*
X1675165Y514000D02*
X1678165D01*
X1676665Y512500D02*
Y515500D01*
X1675027Y530000D02*
X1678027D01*
X1676527Y528500D02*
Y531500D01*
X1698649Y530000D02*
X1701649D01*
X1700149Y528500D02*
Y531500D01*
X1721001Y530000D02*
X1724001D01*
X1722501Y528500D02*
Y531500D01*
X1680900Y706846D02*
X1683900D01*
X1682400Y705346D02*
Y708346D01*
X1691542Y736393D02*
X1694542D01*
X1693042Y734893D02*
Y737893D01*
X1672479Y735985D02*
X1675479D01*
X1673979Y734485D02*
Y737485D01*
X1724610Y749389D02*
X1727610D01*
X1726110Y747889D02*
Y750889D01*
X1787239Y611750D02*
X1790239D01*
X1788739Y610250D02*
Y613250D01*
X1752357Y630732D02*
X1755357D01*
X1753857Y629232D02*
Y632232D01*
X1724657Y732500D02*
X1727657D01*
X1726157Y731000D02*
Y734000D01*
X1729418Y702824D02*
X1732418D01*
X1730918Y701324D02*
Y704324D01*
X1713232Y675160D02*
X1716232D01*
X1714732Y673660D02*
Y676660D01*
X1673395Y550882D02*
X1676395D01*
X1674895Y549382D02*
Y552382D01*
X1673187Y568315D02*
X1676187D01*
X1674687Y566815D02*
Y569815D01*
X1051560Y808300D02*
X1054560D01*
X1053060Y806800D02*
Y809800D01*
X1421796Y737456D02*
X1424796D01*
X1423296Y735956D02*
Y738956D01*
X618659Y1035360D02*
X621659D01*
X620159Y1033860D02*
Y1036860D01*
X535900Y1045000D02*
X538900D01*
X537400Y1043500D02*
Y1046500D01*
X1324229Y858044D02*
X1327229D01*
X1325729Y856544D02*
Y859544D01*
X1246749Y880230D02*
X1249749D01*
X1248249Y878730D02*
Y881730D01*
X1207819Y880208D02*
X1210819D01*
X1209319Y878708D02*
Y881708D01*
X1015751Y920321D02*
X1018751D01*
X1017251Y918821D02*
Y921821D01*
X186823Y894124D02*
X189823D01*
X188323Y892624D02*
Y895623D01*
X186823Y886624D02*
X189823D01*
X188323Y885124D02*
Y888123D01*
X1008681Y913947D02*
X1011681D01*
X1010181Y912447D02*
Y915447D01*
X1003378Y908644D02*
X1006378D01*
X1004878Y907144D02*
Y910144D01*
X1278122Y696158D02*
X1281122D01*
X1279622Y694658D02*
Y697658D01*
X1280289Y749745D02*
X1283289D01*
X1281789Y748245D02*
Y751245D01*
X1281500Y908818D02*
X1284500D01*
X1283000Y907318D02*
Y910318D01*
X1072433Y950315D02*
X1075433D01*
X1073933Y948815D02*
Y951815D01*
X579209Y1045000D02*
X582209D01*
X580709Y1043500D02*
Y1046500D01*
X1251553Y593381D02*
X1254553D01*
X1253053Y591881D02*
Y594881D01*
X1380086Y490007D02*
X1383086D01*
X1381586Y488507D02*
Y491507D01*
X1227758Y582188D02*
X1230758D01*
X1229258Y580688D02*
Y583688D01*
X1313486Y788735D02*
X1316486D01*
X1314986Y787235D02*
Y790235D01*
X1320481Y824601D02*
X1323481D01*
X1321981Y823101D02*
Y826101D01*
X1377249Y863731D02*
X1380249D01*
X1378749Y862231D02*
Y865231D01*
X1317039Y901270D02*
X1320039D01*
X1318539Y899770D02*
Y902770D01*
X1157081Y953676D02*
X1160081D01*
X1158581Y952176D02*
Y955176D01*
X997539Y901531D02*
X1000539D01*
X999039Y900031D02*
Y903031D01*
X1153891Y662433D02*
X1156891D01*
X1155391Y660933D02*
Y663933D01*
X1277563Y842700D02*
X1280563D01*
X1279063Y841200D02*
Y844200D01*
X1343751Y498671D02*
X1346751D01*
X1345251Y497171D02*
Y500171D01*
X1428488Y415000D02*
X1431488D01*
X1429988Y413500D02*
Y416500D01*
X1411979Y415000D02*
X1414979D01*
X1413479Y413500D02*
Y416500D01*
X1396037Y415000D02*
X1399037D01*
X1397537Y413500D02*
Y416500D01*
X574832Y757788D02*
X577832D01*
X576332Y756288D02*
Y759288D01*
X378150Y837987D02*
X381150D01*
X379650Y836487D02*
Y839487D01*
X372438Y844593D02*
X375438D01*
X373938Y843093D02*
Y846093D01*
X477072Y837485D02*
X480072D01*
X478572Y835985D02*
Y838985D01*
X353694Y794149D02*
X356694D01*
X355195Y792649D02*
Y795649D01*
X477154Y859240D02*
X480154D01*
X478654Y857740D02*
Y860740D01*
X469159Y863712D02*
X472159D01*
X470659Y862212D02*
Y865212D01*
X452266Y818212D02*
X455266D01*
X453766Y816712D02*
Y819712D01*
X1307339Y901273D02*
X1310339D01*
X1308839Y899773D02*
Y902773D01*
X332900Y793981D02*
X335900D01*
X334400Y792481D02*
Y795481D01*
X341695Y794054D02*
X344695D01*
X343195Y792554D02*
Y795554D01*
X564152Y706682D02*
X567152D01*
X565652Y705182D02*
Y708182D01*
X471400Y793373D02*
X474400D01*
X472900Y791873D02*
Y794873D01*
X462438Y793147D02*
X465438D01*
X463938Y791647D02*
Y794647D01*
X423150Y803322D02*
X426150D01*
X424650Y801822D02*
Y804822D01*
X438667Y795130D02*
X441667D01*
X440167Y793630D02*
Y796630D01*
X434106Y818800D02*
X437106D01*
X435606Y817300D02*
Y820300D01*
X406650Y794429D02*
X409650D01*
X408150Y792929D02*
Y795929D01*
X404729Y802698D02*
X407729D01*
X406229Y801198D02*
Y804198D01*
X398005Y748872D02*
X401005D01*
X399505Y747372D02*
Y750372D01*
X391717Y756478D02*
X394717D01*
X393217Y754978D02*
Y757978D01*
X403217Y756263D02*
X406217D01*
X404717Y754763D02*
Y757763D01*
X382519Y756823D02*
X385519D01*
X384019Y755323D02*
Y758323D01*
X451650Y756712D02*
X454650D01*
X453150Y755212D02*
Y758212D01*
X356417Y756834D02*
X359417D01*
X357916Y755334D02*
Y758334D01*
X361695Y747740D02*
X364695D01*
X363195Y746240D02*
Y749240D01*
X347498Y757000D02*
X350498D01*
X348998Y755500D02*
Y758500D01*
X337294Y757000D02*
X340294D01*
X338794Y755500D02*
Y758500D01*
X387479Y794000D02*
X390479D01*
X388979Y792500D02*
Y795500D01*
X1099870Y950550D02*
X1102870D01*
X1101370Y949050D02*
Y952050D01*
X1145185Y968903D02*
X1148185D01*
X1146685Y967403D02*
Y970403D01*
X1204474Y965081D02*
X1207474D01*
X1205974Y963581D02*
Y966581D01*
X1251604Y907690D02*
X1254604D01*
X1253104Y906190D02*
Y909190D01*
X1246181Y913285D02*
X1249181D01*
X1247681Y911785D02*
Y914785D01*
X1129336Y964680D02*
X1132336D01*
X1130836Y963180D02*
Y966180D01*
X1107366Y960179D02*
X1110366D01*
X1108866Y958679D02*
Y961679D01*
X1122697Y960111D02*
X1125697D01*
X1124197Y958611D02*
Y961611D01*
X1114864Y960000D02*
X1117864D01*
X1116364Y958500D02*
Y961500D01*
X1444242Y587967D02*
X1447242D01*
X1445742Y586467D02*
Y589467D01*
X1424811Y763544D02*
X1427811D01*
X1426311Y762044D02*
Y765044D01*
X1314498Y735424D02*
X1317498D01*
X1315998Y733924D02*
Y736924D01*
X1333440Y366550D02*
X1336440D01*
X1334940Y365050D02*
Y368050D01*
X1254488Y368302D02*
X1257488D01*
X1255988Y366802D02*
Y369802D01*
X1225225Y453329D02*
X1228225D01*
X1226725Y451829D02*
Y454829D01*
X1259683Y741021D02*
X1262683D01*
X1261183Y739521D02*
Y742521D01*
X1210222Y704275D02*
X1213222D01*
X1211722Y702775D02*
Y705775D01*
X1187547Y701703D02*
X1190547D01*
X1189047Y700203D02*
Y703203D01*
X1194939Y735921D02*
X1197939D01*
X1196439Y734421D02*
Y737421D01*
X1201955Y704924D02*
X1204955D01*
X1203455Y703424D02*
Y706424D01*
X1138135Y772723D02*
X1141135D01*
X1139635Y771223D02*
Y774223D01*
X1101178Y767256D02*
X1104178D01*
X1102678Y765756D02*
Y768756D01*
X1058674Y802766D02*
X1061674D01*
X1060174Y801266D02*
Y804266D01*
X1065240Y808396D02*
X1068240D01*
X1066740Y806896D02*
Y809896D01*
X1059387Y780126D02*
X1062387D01*
X1060887Y778626D02*
Y781626D01*
X1153999Y779490D02*
X1156999D01*
X1155499Y777990D02*
Y780990D01*
X1118209Y775498D02*
X1121209D01*
X1119709Y773998D02*
Y776998D01*
X1094849Y787727D02*
X1097849D01*
X1096349Y786227D02*
Y789227D01*
X1313748Y746614D02*
X1316748D01*
X1315248Y745114D02*
Y748114D01*
X1319206Y782060D02*
X1322206D01*
X1320706Y780560D02*
Y783560D01*
X1215101Y875613D02*
X1218101D01*
X1216601Y874113D02*
Y877113D01*
X1269492Y839786D02*
X1272492D01*
X1270992Y838286D02*
Y841286D01*
X1270287Y848965D02*
X1273287D01*
X1271787Y847465D02*
Y850465D01*
X1072194Y932667D02*
X1075194D01*
X1073694Y931167D02*
Y934167D01*
X1180513Y743411D02*
X1183513D01*
X1182013Y741911D02*
Y744911D01*
X1185704Y736836D02*
X1188704D01*
X1187204Y735336D02*
Y738336D01*
X1174203Y737175D02*
X1177204D01*
X1175704Y735675D02*
Y738675D01*
X1119244Y620000D02*
X1122244D01*
X1120744Y618500D02*
Y621500D01*
X1104807Y620000D02*
X1107807D01*
X1106307Y618500D02*
Y621500D01*
X1323911Y578627D02*
X1326911D01*
X1325411Y577127D02*
Y580127D01*
X1316104Y395632D02*
X1319104D01*
X1317604Y394132D02*
Y397132D01*
X1299057Y381307D02*
X1302057D01*
X1300557Y379807D02*
Y382807D01*
X1350371Y403273D02*
X1353371D01*
X1351871Y401773D02*
Y404773D01*
X1299301Y389679D02*
X1302301D01*
X1300801Y388179D02*
Y391179D01*
X1102530Y629000D02*
X1105530D01*
X1104030Y627500D02*
Y630500D01*
X1306475Y396058D02*
X1309475D01*
X1307975Y394558D02*
Y397558D01*
X1112126Y629000D02*
X1115126D01*
X1113626Y627500D02*
Y630500D01*
X1341479Y403301D02*
X1344479D01*
X1342979Y401801D02*
Y404801D01*
X1121244Y629000D02*
X1124244D01*
X1122744Y627500D02*
Y630500D01*
X1320935Y598583D02*
X1323935D01*
X1322435Y597083D02*
Y600083D01*
X1321598Y589433D02*
X1324598D01*
X1323098Y587933D02*
Y590933D01*
X1258893Y580719D02*
X1261893D01*
X1260393Y579219D02*
Y582219D01*
X1244076Y581092D02*
X1247076D01*
X1245576Y579592D02*
Y582592D01*
X1303116Y660694D02*
X1306116D01*
X1304616Y659194D02*
Y662194D01*
X1363647Y583266D02*
X1366647D01*
X1365147Y581766D02*
Y584766D01*
X1260871Y878041D02*
X1263871D01*
X1262371Y876541D02*
Y879541D01*
X1253404Y872137D02*
X1256404D01*
X1254904Y870637D02*
Y873637D01*
X1364108Y518968D02*
X1367108D01*
X1365608Y517468D02*
Y520468D01*
X1372273Y514936D02*
X1375273D01*
X1373773Y513436D02*
Y516436D01*
X1357153Y508082D02*
X1360153D01*
X1358653Y506582D02*
Y509582D01*
X1355339Y498909D02*
X1358339D01*
X1356839Y497409D02*
Y500409D01*
X1435897Y423000D02*
X1438897D01*
X1437397Y421500D02*
Y424500D01*
X1427502Y430000D02*
X1430502D01*
X1429002Y428500D02*
Y431500D01*
X1419396Y423000D02*
X1422396D01*
X1420896Y421500D02*
Y424500D01*
X1411870Y430000D02*
X1414870D01*
X1413370Y428500D02*
Y431500D01*
X1403378Y423000D02*
X1406378D01*
X1404878Y421500D02*
Y424500D01*
X1395755Y430000D02*
X1398755D01*
X1397255Y428500D02*
Y431500D01*
X1388036Y423000D02*
X1391036D01*
X1389536Y421500D02*
Y424500D01*
X1443847Y470792D02*
X1446847D01*
X1445347Y469292D02*
Y472292D01*
X1255742Y702689D02*
X1258742D01*
X1257242Y701189D02*
Y704189D01*
X1403657Y555433D02*
X1406657D01*
X1405157Y553933D02*
Y556933D01*
X1395505Y550662D02*
X1398505D01*
X1397005Y549162D02*
Y552162D01*
X1387485Y555698D02*
X1390485D01*
X1388985Y554198D02*
Y557198D01*
X1443572Y436919D02*
X1446572D01*
X1445072Y435419D02*
Y438419D01*
X1787538Y787857D02*
X1790538D01*
X1789038Y786357D02*
Y789357D01*
X1765186Y787603D02*
X1768186D01*
X1766686Y786103D02*
Y789103D01*
X1741564Y787857D02*
X1744564D01*
X1743064Y786357D02*
Y789357D01*
X1718704Y787349D02*
X1721704D01*
X1720204Y785849D02*
Y788849D01*
X1451962Y579508D02*
X1454962D01*
X1453462Y578008D02*
Y581008D01*
X1451526Y595138D02*
X1454526D01*
X1453026Y593638D02*
Y596638D01*
X1225066Y805942D02*
X1228066D01*
X1226566Y804442D02*
Y807442D01*
X1181993Y708412D02*
X1184993D01*
X1183493Y706912D02*
Y709912D01*
X573119Y706654D02*
X576119D01*
X574619Y705154D02*
Y708154D01*
X103656Y835152D02*
X106656D01*
X105156Y833652D02*
Y836652D01*
X121944Y835660D02*
X124944D01*
X123444Y834160D02*
Y837160D01*
X1092986Y833746D02*
X1095986D01*
X1094486Y832246D02*
Y835246D01*
X1280946Y870458D02*
X1283946D01*
X1282446Y868958D02*
Y871958D01*
X575130Y748737D02*
X578130D01*
X576630Y747237D02*
Y750237D01*
X145312Y890016D02*
X148312D01*
X146812Y888516D02*
Y891516D01*
X1086636Y661416D02*
X1089636D01*
X1088136Y659916D02*
Y662916D01*
X1384070Y1079500D02*
X1387070D01*
X1385570Y1078000D02*
Y1081000D01*
X602512Y1045000D02*
X605512D01*
X604012Y1043500D02*
Y1046500D01*
X612418Y1087374D02*
X615418D01*
X613918Y1085874D02*
Y1088874D01*
X568769Y1045000D02*
X571769D01*
X570269Y1043500D02*
Y1046500D01*
X486376Y863500D02*
X489376D01*
X487876Y862000D02*
Y865000D01*
X362482Y794000D02*
X365482D01*
X363982Y792500D02*
Y795500D01*
X466739Y800271D02*
X469739D01*
X468239Y798771D02*
Y801771D01*
X413141Y755877D02*
X416141D01*
X414641Y754377D02*
Y757377D01*
X341400Y749808D02*
X344400D01*
X342900Y748308D02*
Y751308D01*
X322350Y757000D02*
X325350D01*
X323850Y755500D02*
Y758500D01*
X1400335Y581916D02*
X1403335D01*
X1401835Y580416D02*
Y583416D01*
X1391038Y581747D02*
X1394038D01*
X1392538Y580247D02*
Y583247D01*
X1320903Y740292D02*
X1323903D01*
X1322403Y738792D02*
Y741792D01*
X1073998Y967836D02*
X1076998D01*
X1075498Y966336D02*
Y969336D01*
X1127925Y950330D02*
X1130925D01*
X1129425Y948830D02*
Y951830D01*
X1100124Y968037D02*
X1103124D01*
X1101624Y966537D02*
Y969537D01*
X1082826Y960000D02*
X1085826D01*
X1084326Y958500D02*
Y961500D01*
X1092478Y960000D02*
X1095478D01*
X1093978Y958500D02*
Y961500D01*
X152932Y870204D02*
X155932D01*
X154432Y868704D02*
Y871704D01*
X120912Y860975D02*
X123912D01*
X122412Y859475D02*
Y862475D01*
X121436Y847598D02*
X124436D01*
X122936Y846098D02*
Y849098D01*
X774470Y435610D02*
X777470D01*
X775970Y434110D02*
Y437110D01*
X762278Y435864D02*
X765278D01*
X763778Y434364D02*
Y437364D01*
X1718842Y772160D02*
X1721842D01*
X1720342Y770660D02*
Y773660D01*
X1741702Y772668D02*
X1744702D01*
X1743202Y771168D02*
Y774168D01*
X1765324Y772414D02*
X1768324D01*
X1766824Y770914D02*
Y773914D01*
X1787676Y772668D02*
X1790676D01*
X1789176Y771168D02*
Y774168D01*
X286790Y813816D02*
X289790D01*
X288290Y812316D02*
Y815316D01*
X1251990Y948690D02*
X1254990D01*
X1253490Y947190D02*
Y950190D01*
X1468652Y1117346D02*
X1471652D01*
X1470152Y1115846D02*
Y1118846D01*
X1051076Y844550D02*
X1054076D01*
X1052576Y843050D02*
Y846050D01*
X1069364Y844804D02*
X1072364D01*
X1070864Y843304D02*
Y846304D01*
X1086890Y703580D02*
X1089890D01*
X1088390Y702080D02*
Y705080D01*
X1718588Y832866D02*
X1721588D01*
X1720088Y831366D02*
Y834366D01*
X1358924Y915416D02*
X1361924D01*
X1360424Y913916D02*
Y916916D01*
X1154708Y738632D02*
X1157708D01*
X1156208Y737132D02*
Y740132D01*
X1152930Y702818D02*
X1155930D01*
X1154430Y701318D02*
Y704318D01*
X366034Y838136D02*
X369034D01*
X367534Y836636D02*
Y839636D01*
X929664Y767588D02*
X932664D01*
X931164Y766088D02*
Y769088D01*
X913916Y767588D02*
X916916D01*
X915416Y766088D02*
Y769088D01*
X1091298Y910914D02*
X1094298D01*
X1092798Y909414D02*
Y912414D01*
X1205000Y919734D02*
X1208000D01*
X1206500Y918234D02*
Y921234D01*
X1170964Y862500D02*
X1173964D01*
X1172464Y861000D02*
Y864000D01*
X1106854Y775500D02*
X1109854D01*
X1108354Y774000D02*
Y777000D01*
X1254245Y994406D02*
X1257245D01*
X1255745Y992906D02*
Y995906D01*
X1285860Y964530D02*
X1288860D01*
X1287360Y963030D02*
Y966030D01*
X535964Y1089152D02*
X538964D01*
X537464Y1087652D02*
Y1090652D01*
X1250159Y687577D02*
X1253159D01*
X1251659Y686077D02*
Y689077D01*
X1229799Y688032D02*
X1232799D01*
X1231299Y686532D02*
Y689532D01*
X186968Y878078D02*
X189968D01*
X188468Y876578D02*
Y879578D01*
X186968Y902208D02*
X189968D01*
X188468Y900708D02*
Y903708D01*
X1281500Y895528D02*
X1284500D01*
X1283000Y894028D02*
Y897028D01*
X1098574Y840232D02*
X1101574D01*
X1100074Y838732D02*
Y841732D01*
X1120672Y743712D02*
X1123672D01*
X1122172Y742212D02*
Y745212D01*
X1168678Y747268D02*
X1171678D01*
X1170178Y745768D02*
Y748768D01*
X1148247Y772720D02*
X1151247D01*
X1149747Y771220D02*
Y774220D01*
X970812Y767080D02*
X973812D01*
X972312Y765580D02*
Y768580D01*
X601750Y1087628D02*
X604750D01*
X603250Y1086128D02*
Y1089128D01*
X623340Y1045000D02*
X626340D01*
X624840Y1043500D02*
Y1046500D01*
X612926Y1045000D02*
X615926D01*
X614426Y1043500D02*
Y1046500D01*
X558316Y1045000D02*
X561316D01*
X559816Y1043500D02*
Y1046500D01*
X546886Y1045000D02*
X549886D01*
X548386Y1043500D02*
Y1046500D01*
X952270Y767588D02*
X955270D01*
X953770Y766088D02*
Y769088D01*
X937538Y767588D02*
X940538D01*
X939038Y766088D02*
Y769088D01*
X921790Y767588D02*
X924790D01*
X923290Y766088D02*
Y769088D01*
X487450Y794000D02*
X490450D01*
X488950Y792500D02*
Y795500D01*
X443254Y818800D02*
X446254D01*
X444754Y817300D02*
Y820300D01*
X1115201Y737676D02*
X1118201D01*
X1116701Y736176D02*
Y739176D01*
X1194840Y919480D02*
X1197840D01*
X1196340Y917980D02*
Y920980D01*
X1170792Y875874D02*
X1173792D01*
X1172292Y874374D02*
Y877374D01*
X1179092Y869442D02*
X1182092D01*
X1180592Y867942D02*
Y870942D01*
X1426742Y498094D02*
X1429742D01*
X1428242Y496594D02*
Y499594D01*
X1283740Y600964D02*
X1286740D01*
X1285240Y599464D02*
Y602464D01*
X1284248Y592582D02*
X1287248D01*
X1285748Y591082D02*
Y594082D01*
X1283486Y609346D02*
X1286486D01*
X1284986Y607846D02*
Y610846D01*
X1340128Y437000D02*
X1343128D01*
X1341628Y435500D02*
Y438500D01*
X1300027Y437461D02*
X1303027D01*
X1301527Y435961D02*
Y438961D01*
X1251990Y437000D02*
X1254990D01*
X1253490Y435500D02*
Y438500D01*
X1275104Y705104D02*
X1278104D01*
X1276604Y703604D02*
Y706604D01*
X1314982Y850646D02*
X1317982D01*
X1316482Y849146D02*
Y852146D01*
X1106194Y826516D02*
X1109194D01*
X1107694Y825016D02*
Y828016D01*
X1250212Y696214D02*
X1253212D01*
X1251712Y694714D02*
Y697714D01*
X1230105Y706628D02*
X1233105D01*
X1231605Y705128D02*
Y708128D01*
X170458Y890524D02*
X173458D01*
X171958Y889024D02*
Y892024D01*
X644676Y454152D02*
X647676D01*
X646176Y452652D02*
Y455652D01*
X748562Y498094D02*
X751562D01*
X750062Y496594D02*
Y499594D01*
X1337842Y1052830D02*
X1340842D01*
X1339342Y1051330D02*
Y1054330D01*
X1312442Y1052576D02*
X1315442D01*
X1313942Y1051076D02*
Y1054076D01*
X1286280Y1052322D02*
X1289280D01*
X1287780Y1050822D02*
Y1053822D01*
X1097304Y900938D02*
X1100304D01*
X1098804Y899438D02*
Y902438D01*
M02*
