M48
;Layer_Color=9339205
;FILE_FORMAT=4:2
METRIC,TZ
;TYPE=PLATED
T01F00S00C0.30
T02F00S00C0.50
T04F00S00C1.00
T05F00S00C1.35
T06F00S00C2.03
T07F00S00C3.18
%
T01
X672Y122
X1072
X1472
X1872
X2272
X2672
X3072
X3472
X3672Y522
X3272
X2872
X2472
X2072
X1672
X1272
X872
X672Y922
X1072
X1472
X1872
X2272
X2672
X2872Y1322
X3272
X3672
X3472Y1722
X3072
X2672
X2272
X1872
X1472
X1072
X672
X272
X472Y2122
X872
X1272
X1672
X2072
X2472
X2872
X3272
X3672
X2472Y1322
X2072
X1672
X1272
X872
X472
X272Y922
Y2522
X672
X4072Y2122
X4472
X4872
X5272
X5672
X6072
X6472
X6872
X7272
X7672
X7472Y1722
X7072
X6672
X6272
X5872
X5472
X5072
X4672
X4272
X3872
X4072Y1322
X4472
X4872
X5272
X5672
X6072
X6472
X6872
X7272
X7672
Y522
X7272
X6872
X6472
X6072
X5672
X5272
X4872
X4472
X4072
X3872Y122
X4272
X4672
X5072
X5472
X5872
X6272
X6672
X7072
X7472
X7872
X8272
X8672
X9072
X9472
X9872
X10272
X10672
X11072
X11472
X11672Y522
X11272
X10872
X10472
X10072
X9672
X9272
X8872
X8472
X8072
Y1322
X8472
X8872
X9272
X9672
X10072
X10472
X10872
X11272
X11672
X11472Y1722
X11072
X10672
X10272
X9872
X9472
X9072
X8672
X8272
X7872
X8072Y2122
X8472
X8872
X9272
X9672
X10072
X10472
X10872
X11272
X11672
X12072
X12472
X12872
X13272
X13672
X14072
X14472
X14872
X15272
X15672
X15472Y1722
X15072
X14672
X14272
X13872
X13472
X13072
X12672
X12272
X11872
X12072Y1322
X12472
X12872
X13272
X13672
X14072
X14472
X14872
X15272
X15672
X15472Y922
X15072
X14672
X14272
X13872
X13472
X13072
X12672
X12272
X12472Y522
X12872
X13272
X13672
X14072
X14472
X14872
X15272
X15672
X15472Y122
X15072
X14672
X14272
X13872
X13472
X13072
X12672
X12272
X11872
X12072Y522
X16072
X16472
X16872
X17272
X17672
X17472Y922
X17872
X18272
X18472Y1322
X18072
X17672
X17272
X16872
X16472
X16072
X15872Y1722
X16272
X16672
X17472
X17872
X18272
Y122
X17872
X17472
X17072
X16672
X16272
X15872
Y922
X16272
X16672
X17072
X16072Y2122
Y4522
X16272Y4922
X16507Y4687
X16767Y5140
X16765Y5300
X16749Y5509
X16747Y5683
X16272Y5722
X15872
X16072Y6122
X15872Y6522
X16272
X16495Y6728
X17147Y6752
X17539Y6307
X17887Y6117
X17672Y5322
X17225Y5300
X17226Y5140
X17003
X17001Y5300
X17472Y4922
X17571Y3337
X17653Y3336
Y3247
X17571Y3248
Y3159
X17653Y3157
Y3067
X17571Y3071
X16072Y5322
X15672
X15272
X15072Y4922
X15472
X15672Y4522
X15272
X14872
X14451Y4369
X14374Y4230
X14290Y4300
X14209Y4230
X14134Y4300
X14135Y4150
X13975
X13872Y4122
X13895Y4230
X13973Y4300
X14049Y4230
X14300Y4150
X14672Y4122
X15072
X15472
Y5722
X14951Y5791
X14950Y5955
X14530Y5951
X14457Y5880
X14535Y5795
X14018Y5819
X13925Y5817
X13651Y5833
X13254Y5786
X13231Y5894
X13224Y5986
X12852Y6010
X12850Y6093
X12857Y5926
X12531Y5934
X12456Y5811
X12604Y5807
X12293Y5822
X12267Y4533
X12072Y4522
X12535Y4370
X13015Y4375
X13416Y4370
X13430Y4033
X13519Y4033
X13176Y3956
X13080Y3961
X13008Y3897
X13006Y3813
X13349Y3665
X12560Y3683
X13453Y4987
X13568Y4989
X13587Y5081
X13656Y5190
X13738Y5149
X13816Y4900
X14282Y4981
X14453Y4708
X14052Y5554
X13970Y5507
X13890Y5557
X13046Y6607
X15472Y6522
X15672Y6122
X15272
X11207Y6200
X11227Y6290
X11136
X11040
X11063Y6200
X10881Y6614
X11554Y6624
X10047Y6759
X9897Y6562
X9555
X9193
X8672Y6522
X8272
X7872
X8272Y4922
X8672
X8872Y4522
X8472
X8072
X8272Y4122
X8672
X8872Y3722
X8472
X8072
X8272Y3322
X8672
X10272Y4122
X10672
X10472Y4522
X10272Y4922
Y5722
X7501Y4981
X7272Y4522
X7638Y4359
X7760Y4356
X7072Y4122
X6672
X6272
X5872
X5472
X5072
X4672
X4272
X3872
X4072Y4522
X4472
X4872
X5272
X5672
X6072
X6462Y4542
X6672Y4922
X6872Y3722
X7272
X7072Y3322
X6672
X6272
X5872
X5472
X5072
X4672
X4272
X3872
X4072Y3722
X4472
X4872
X5272
X5672
X6072
X6472
X6272Y6522
X6672
X7072
X7472
X5872
X5472
X5072
X4672
X4272
X3872
Y4922
X4272
X3472
X3072
X2672
X2272
X1872
X1472
X1672Y5322
X2072
X2472
X2272Y5722
X1872
X1472
X1672Y6122
X2072
X1872Y6522
X2272
X1472
X672
X272
X472Y6122
X872
X672Y5722
X272
X472Y5322
X872
X672Y4922
X272
X472Y4522
X872
X672Y4122
X272
X472Y3722
X872
X672Y3322
X272
X472Y2922
X872
X1472Y3322
X1872
X2272
X2672
X3072
X3472
X3672Y3722
X3272
X2872
X2472
X2072
X1672
X1472Y4122
X1872
X2272
X2672
X3072
X3472
X3672Y4522
X3272
X2872
X2472
X2072
X1672
X3472Y6522
X3272Y6922
X3238Y7570
X3388
X3490
X3579Y7568
X3632Y7477
X3429Y7498
X3432Y7941
X3344Y7940
X3552Y7941
X3640Y7940
X3675Y8381
X3797Y8380
X3739Y8446
X3672Y8522
X3272
X3472Y8922
X3272Y9322
X3472Y9722
Y10522
X3072
X2672
X2272
X1872
X1472
X1072
X672
X272
X472Y10122
X872
X1272
X1672
X2072
X1872Y9722
X2272
X2072Y9322
X1672
X1272
X1072Y9722
X1472
X1468Y8900
X1720Y8905
X1883Y8941
Y8866
X1885Y8781
Y9022
X1544Y8702
X1224Y8610
X1229Y8476
X1234Y8357
X1052Y8352
X1472Y8122
X1872
X2272
X2072Y8522
Y7722
X1672
X1472Y7322
X1872
X2272
X2072Y6922
X1672
X872
X472
X272Y7322
X672
X872Y7722
X472
Y8522
X272Y8922
X672
X472Y9322
X2883Y8138
X2851Y7579
X2959Y7581
X2905Y7490
X2855Y7409
X2958Y7406
X3840Y7568
X3932Y7565
X4047Y7563
X4146Y7559
X3995Y7489
X4081Y7944
X4062Y8027
X4247Y8033
X4402Y7951
X4639Y7931
X4729Y7934
X4682Y8003
X4890Y7940
X4786Y8375
X4787Y8592
X4707Y8637
X4879Y8635
X5272Y8522
X5253Y7550
X5394
X5763Y7578
X5766Y7487
X5746Y7067
X5657Y7067
X5672Y6922
X4531Y7567
X4538Y8182
X4448Y8188
X4356
X3872Y8122
X3890Y7940
X3872Y8922
X4072Y9322
X3872Y9722
X4272
Y10522
X4672
X5072
X5374Y10450
X5484
X5598
X5703
X5807
X6040
X6144
X6248
X6202Y10354
X6072Y10122
X6472
X6872
X7272
X7672
X7272Y9322
X5672Y10122
X5340Y10282
X3872Y10522
X8072Y10122
X8472
X8872
X9272
X9672
X10672Y9722
X10755Y9678
X10843Y9600
X10940
X11089Y9602
X11164Y9600
X11242Y9601
X11308Y9647
X11294Y9503
X11014Y9506
X11016Y9680
X10739Y9503
X10737Y9327
X10928Y9109
X10988Y9009
X11001Y8402
X10945Y8337
X10997Y8203
X11077Y8265
X10963Y7877
X11084Y7755
X11197Y7755
X11396Y7727
X11497Y7727
X11555Y7795
X11562Y7386
X11702Y7473
X11222Y7437
X11113Y7437
X11167Y7377
X11027Y7673
X10609Y7801
X10602Y8028
X10667Y8084
X10531Y8083
X10526Y8446
X10709Y8448
X11523Y8625
X11725
X11723Y8759
X11586Y9537
X11467Y9689
X11672Y10122
X11472Y10522
X11072
X10173Y9203
X10102Y9139
X10049Y9086
X9990Y9015
X9723Y7671
X9538Y7676
X9390
X9312
X9233
X9154
X8840Y7290
X8760
Y7120
X8840
X9805Y7130
X9913
X9908Y7307
X9799
X10884Y7036
X11544Y7028
X11835Y7084
X11890Y7017
X12035Y7049
X12117Y7043
X12260Y6974
X12313Y6880
X12316Y7066
X12572Y7027
X12517Y6962
X12517Y6876
X12796Y6962
X12766Y7051
X12818Y7497
X12612Y7410
X13072Y7322
X13160Y7354
X13224Y7403
X13152Y7466
X13207Y7821
X13150Y7887
X13220Y8246
X13165Y8506
X13088Y8450
X13257Y8580
X13448Y8731
X13787Y8637
X13604Y9154
X13185Y9013
X13088Y9013
X12830Y8955
Y9088
X12531Y9077
X12477Y9133
X12482Y8802
X12549Y8721
X12624Y8780
X12824Y8705
X12791Y8427
X12710Y8398
X12718Y8490
X12166Y8756
X12093Y8802
X11914Y8625
X11806Y8694
X11963Y9195
X12065Y9197
X12060Y9651
X12072Y10122
X11872Y10522
X12272
X12878Y10523
X13139Y10526
X13393Y10528
X13872Y10522
X14272
X14472Y10122
X14872
X15272
X15672
X15472Y10522
X15072
Y9722
X15472
X15672Y9322
X15072Y8922
X14672
X14872Y8522
Y7722
X14263Y7635
X14233Y7375
X15472Y7322
X15672Y6922
X15272
X15472Y8122
X14672Y9722
X13872
X14072Y10122
X13672
X13272
X12872
X12874Y9645
X12535Y9487
X12557Y9944
X12266Y8059
X11964Y7359
X11872Y7368
X11820Y7434
X11757Y7372
X15872Y8122
X17072
X17201Y8329
X17272Y8522
X17472Y8922
X17872
Y9722
X17472
X17072
X17272Y10122
X17672
X17472Y10522
X17872
X17072
X16872Y10122
X16072
X15872Y10522
Y9722
X16072Y9322
X17272
X18472
X18407Y9580
X18402Y9680
X18490Y9632
X18576Y9680
X18571Y9580
X18472Y10122
Y8522
X18485Y8208
X18570Y8256
X18566Y8156
X18402
X18397Y8256
X17890Y7879
X17892Y7727
X17668Y7724
X17667Y7876
X17431Y7879
X17432Y7727
X17203Y7722
X17202Y7873
X17261Y7494
X17262Y7325
X17072Y7322
X16930Y7364
X16740Y7360
X16824Y7068
X16491Y7012
X16497Y6865
X17272Y6922
X17309Y7028
X17272Y10922
X17672
X18072
X18472
X18272Y11322
X17872
X17672Y11722
X17272
X17072Y11322
X16672
X16272
X16872Y10922
X15672Y11722
X14872
X14472
X14072
X14034Y11957
X13934Y11952
X13982Y12040
X13934Y12125
X14034Y12121
X13672Y11722
X13272
X12872
X12472
X12358Y11959
X12258Y11954
X12306Y12042
X12258Y12128
X12358Y12123
X12072Y11722
X11872Y11322
X12272
X12072Y10922
X13856Y10795
X13872Y11322
X14272
X14702Y11173
X11672Y10922
X11272
X11072Y11322
X11472
X11672Y11722
X10472
X10072
X9672
X9272
X8872
X8472
X8072
X7872Y11322
X8272
X8672
X9072
X9472
X9872
X10272
X10672
X10472Y10922
X10072
X9672
X9272
X8872
X8472
X8072
X7672
X7472Y11322
X7072
X6672
X6272
X5872
X5472
X5072
X4672
X4272
X3872
X4072Y11722
X4472
X4872
X5672
X6072
X6472
Y10922
X6139Y10874
X6033Y10876
X5672Y10922
X5375Y10892
X5272Y10922
X4872
X4472
X4072
X3672
X3272
X2872
X2472
X2072
X1672
X1272
X872
X472
X272Y11322
X672
X1072
X1472
X1872
X2272
X2672
X3072
X3472
X3672Y11722
X3272
X2872
X2472
X2072
X1672
X1272
X872
T02
X336Y336
X500Y271
X664Y336
X732Y500
X664Y664
X500Y732
X336Y664
X267Y500
X17968
X18036Y664
X18200Y732
X18364Y664
X18432Y500
X18364Y336
X18200Y271
X18036Y336
Y11636
X18200Y11571
X18364Y11636
X18432Y11800
X18364Y11964
X18200Y12032
X18036Y11964
X17968Y11800
X11432
X11364Y11964
X11200Y12032
X11036Y11964
X10968Y11800
X11036Y11636
X11200Y11571
X11364Y11636
X7664
X7500Y11571
X7336Y11636
X7268Y11800
X7336Y11964
X7500Y12032
X7664Y11964
X7732Y11800
X732
X664Y11636
X500Y11571
X336Y11636
X267Y11800
X336Y11964
X500Y12032
X664Y11964
T04
X5534Y11782
X6332
T05
X736Y8654
Y9144
T06
X17666Y2124
Y4283
T07
X500Y500
X18200
Y11800
X11200
X7500
X500
M30
