G04*
G04 #@! TF.GenerationSoftware,Altium Limited,Altium Designer,24.1.2 (44)*
G04*
G04 Layer_Color=0*
%FSLAX44Y44*%
%MOMM*%
G71*
G04*
G04 #@! TF.SameCoordinates,83B34F58-023A-4855-A863-A0BE80A54967*
G04*
G04*
G04 #@! TF.FilePolarity,Positive*
G04*
G01*
G75*
%ADD94C,0.0254*%
G36*
X1069053Y220000D02*
X1363973D01*
X1364478D01*
X1365412Y219613D01*
X1366126Y218899D01*
X1366513Y217965D01*
Y217460D01*
D01*
Y182540D01*
Y182035D01*
X1366126Y181101D01*
X1365412Y180387D01*
X1364478Y180000D01*
X1363973D01*
D01*
X1069053D01*
X1068548D01*
X1067614Y180387D01*
X1066900Y181101D01*
X1066513Y182035D01*
Y182540D01*
D01*
Y217460D01*
Y217965D01*
X1066900Y218899D01*
X1067614Y219613D01*
X1068548Y220000D01*
X1069053D01*
D01*
D02*
G37*
D94*
X-0Y19936D02*
X8D01*
Y1230000D01*
X0D01*
D02*
G02*
X20000Y1250000I20000J0D01*
G01*
X1650000Y1250000D01*
D02*
G02*
X1670000Y1230000I-0J-20000D01*
G01*
X1670000Y1230064D01*
Y20000D01*
D02*
G02*
X1650000Y0I-20000J-0D01*
G01*
Y-64D01*
X20000D01*
D02*
G02*
X-0Y19936I0J20000D01*
G01*
M02*
