G04*
G04 #@! TF.GenerationSoftware,Altium Limited,Altium Designer,24.1.2 (44)*
G04*
G04 Layer_Color=2752767*
%FSLAX44Y44*%
%MOMM*%
G71*
G04*
G04 #@! TF.SameCoordinates,791D3A81-C46F-493C-8474-DD763FBEB128*
G04*
G04*
G04 #@! TF.FilePolarity,Positive*
G04*
G01*
G75*
%ADD103C,0.1270*%
%ADD107C,0.1693*%
D103*
X1761519Y207327D02*
X1764059D01*
X1766599Y209867D01*
X1769140Y207327D01*
X1771680D01*
Y209867D01*
X1769140Y212407D01*
X1771680Y214947D01*
Y217487D01*
X1769140D01*
X1766599Y214947D01*
X1764059Y217487D01*
X1761519D01*
Y214947D01*
X1764059Y212407D01*
X1761519Y209867D01*
Y207327D01*
Y423227D02*
X1764059D01*
X1766599Y425767D01*
X1769140Y423227D01*
X1771680D01*
Y425767D01*
X1769140Y428307D01*
X1771680Y430847D01*
Y433387D01*
X1769140D01*
X1766599Y430847D01*
X1764059Y433387D01*
X1761519D01*
Y430847D01*
X1764059Y428307D01*
X1761519Y425767D01*
Y423227D01*
X1114920Y1174920D02*
X1117460Y1180000D01*
X1114920Y1185080D01*
X1120000Y1182540D01*
X1125080Y1185080D01*
X1122540Y1180000D01*
X1125080Y1174920D01*
X1120000Y1177460D01*
X1114920Y1174920D01*
Y1198170D02*
Y1208330D01*
X1125080D01*
Y1198170D01*
X1114920D01*
X1091670Y1174920D02*
Y1185080D01*
X1101830D01*
Y1174920D01*
X1091670D01*
X1114920Y1152060D02*
Y1162220D01*
X1125080D01*
Y1152060D01*
X1114920D01*
X1138170Y1174920D02*
Y1185080D01*
X1148330D01*
Y1174920D01*
X1138170D01*
X1131360Y1191360D02*
Y1201520D01*
X1141520D01*
Y1191360D01*
X1131360D01*
X1098480Y1158480D02*
Y1168640D01*
X1108640D01*
Y1158480D01*
X1098480D01*
X1131360D02*
Y1168640D01*
X1141520D01*
Y1158480D01*
X1131360D01*
X1098480Y1191360D02*
Y1201520D01*
X1108640D01*
Y1191360D01*
X1098480D01*
X744920Y1174920D02*
X747460Y1180000D01*
X744920Y1185080D01*
X750000Y1182540D01*
X755080Y1185080D01*
X752540Y1180000D01*
X755080Y1174920D01*
X750000Y1177460D01*
X744920Y1174920D01*
Y1198170D02*
Y1208330D01*
X755080D01*
Y1198170D01*
X744920D01*
X721670Y1174920D02*
Y1185080D01*
X731830D01*
Y1174920D01*
X721670D01*
X744920Y1152060D02*
Y1162220D01*
X755080D01*
Y1152060D01*
X744920D01*
X768170Y1174920D02*
Y1185080D01*
X778330D01*
Y1174920D01*
X768170D01*
X761360Y1191360D02*
Y1201520D01*
X771520D01*
Y1191360D01*
X761360D01*
X728480Y1158480D02*
Y1168640D01*
X738640D01*
Y1158480D01*
X728480D01*
X761360D02*
Y1168640D01*
X771520D01*
Y1158480D01*
X761360D01*
X728480Y1191360D02*
Y1201520D01*
X738640D01*
Y1191360D01*
X728480D01*
X73582Y860328D02*
X68502Y870488D01*
X78662D01*
X73582Y860328D01*
Y909327D02*
X68502Y919488D01*
X78662D01*
X73582Y909327D01*
X633175Y1173139D02*
X635715Y1175679D01*
X638255D01*
X635715Y1178220D01*
X638255Y1180760D01*
X635715D01*
X633175Y1183299D01*
X630635Y1180760D01*
X628095D01*
X630635Y1178220D01*
X628095Y1175679D01*
X630635D01*
X633175Y1173139D01*
X553375D02*
X555915Y1175679D01*
X558455D01*
X555915Y1178220D01*
X558455Y1180760D01*
X555915D01*
X553375Y1183299D01*
X550835Y1180760D01*
X548295D01*
X550835Y1178220D01*
X548295Y1175679D01*
X550835D01*
X553375Y1173139D01*
X28480Y61360D02*
Y71520D01*
X38640D01*
Y61360D01*
X28480D01*
X61360Y28480D02*
Y38640D01*
X71520D01*
Y28480D01*
X61360D01*
X28480D02*
Y38640D01*
X38640D01*
Y28480D01*
X28480D01*
X61360Y61360D02*
Y71520D01*
X71520D01*
Y61360D01*
X61360D01*
X68170Y44920D02*
Y55080D01*
X78330D01*
Y44920D01*
X68170D01*
X44920Y22060D02*
Y32220D01*
X55080D01*
Y22060D01*
X44920D01*
X21670Y44920D02*
Y55080D01*
X31830D01*
Y44920D01*
X21670D01*
X44920Y68170D02*
Y78330D01*
X55080D01*
Y68170D01*
X44920D01*
Y44920D02*
X47460Y50000D01*
X44920Y55080D01*
X50000Y52540D01*
X55080Y55080D01*
X52540Y50000D01*
X55080Y44920D01*
X50000Y47460D01*
X44920Y44920D01*
X28480Y1191360D02*
Y1201520D01*
X38640D01*
Y1191360D01*
X28480D01*
X61360Y1158480D02*
Y1168640D01*
X71520D01*
Y1158480D01*
X61360D01*
X28480D02*
Y1168640D01*
X38640D01*
Y1158480D01*
X28480D01*
X61360Y1191360D02*
Y1201520D01*
X71520D01*
Y1191360D01*
X61360D01*
X68170Y1174920D02*
Y1185080D01*
X78330D01*
Y1174920D01*
X68170D01*
X44920Y1152060D02*
Y1162220D01*
X55080D01*
Y1152060D01*
X44920D01*
X21670Y1174920D02*
Y1185080D01*
X31830D01*
Y1174920D01*
X21670D01*
X44920Y1198170D02*
Y1208330D01*
X55080D01*
Y1198170D01*
X44920D01*
Y1174920D02*
X47460Y1180000D01*
X44920Y1185080D01*
X50000Y1182540D01*
X55080Y1185080D01*
X52540Y1180000D01*
X55080Y1174920D01*
X50000Y1177460D01*
X44920Y1174920D01*
X1798480Y1191360D02*
Y1201520D01*
X1808640D01*
Y1191360D01*
X1798480D01*
X1831360Y1158480D02*
Y1168640D01*
X1841520D01*
Y1158480D01*
X1831360D01*
X1798480D02*
Y1168640D01*
X1808640D01*
Y1158480D01*
X1798480D01*
X1831360Y1191360D02*
Y1201520D01*
X1841520D01*
Y1191360D01*
X1831360D01*
X1838170Y1174920D02*
Y1185080D01*
X1848330D01*
Y1174920D01*
X1838170D01*
X1814920Y1152060D02*
Y1162220D01*
X1825080D01*
Y1152060D01*
X1814920D01*
X1791670Y1174920D02*
Y1185080D01*
X1801830D01*
Y1174920D01*
X1791670D01*
X1814920Y1198170D02*
Y1208330D01*
X1825080D01*
Y1198170D01*
X1814920D01*
Y1174920D02*
X1817460Y1180000D01*
X1814920Y1185080D01*
X1820000Y1182540D01*
X1825080Y1185080D01*
X1822540Y1180000D01*
X1825080Y1174920D01*
X1820000Y1177460D01*
X1814920Y1174920D01*
X1798480Y61360D02*
Y71520D01*
X1808640D01*
Y61360D01*
X1798480D01*
X1831360Y28480D02*
Y38640D01*
X1841520D01*
Y28480D01*
X1831360D01*
X1798480D02*
Y38640D01*
X1808640D01*
Y28480D01*
X1798480D01*
X1831360Y61360D02*
Y71520D01*
X1841520D01*
Y61360D01*
X1831360D01*
X1838170Y44920D02*
Y55080D01*
X1848330D01*
Y44920D01*
X1838170D01*
X1814920Y22060D02*
Y32220D01*
X1825080D01*
Y22060D01*
X1814920D01*
X1791670Y44920D02*
Y55080D01*
X1801830D01*
Y44920D01*
X1791670D01*
X1814920Y68170D02*
Y78330D01*
X1825080D01*
Y68170D01*
X1814920D01*
Y44920D02*
X1817460Y50000D01*
X1814920Y55080D01*
X1820000Y52540D01*
X1825080Y55080D01*
X1822540Y50000D01*
X1825080Y44920D01*
X1820000Y47460D01*
X1814920Y44920D01*
X1824615Y1129630D02*
Y1127090D01*
X1829695D01*
Y1129630D01*
X1832235D01*
Y1134710D01*
X1829695D01*
Y1137250D01*
X1824615D01*
Y1134710D01*
X1822075D01*
Y1129630D01*
X1824615D01*
X1844615Y1089630D02*
Y1087090D01*
X1849695D01*
Y1089630D01*
X1852235D01*
Y1094710D01*
X1849695D01*
Y1097250D01*
X1844615D01*
Y1094710D01*
X1842075D01*
Y1089630D01*
X1844615D01*
Y1009630D02*
Y1007090D01*
X1849695D01*
Y1009630D01*
X1852235D01*
Y1014710D01*
X1849695D01*
Y1017250D01*
X1844615D01*
Y1014710D01*
X1842075D01*
Y1009630D01*
X1844615D01*
Y929630D02*
Y927090D01*
X1849695D01*
Y929630D01*
X1852235D01*
Y934710D01*
X1849695D01*
Y937250D01*
X1844615D01*
Y934710D01*
X1842075D01*
Y929630D01*
X1844615D01*
Y849630D02*
Y847090D01*
X1849695D01*
Y849630D01*
X1852235D01*
Y854710D01*
X1849695D01*
Y857250D01*
X1844615D01*
Y854710D01*
X1842075D01*
Y849630D01*
X1844615D01*
X1824615Y169630D02*
Y167090D01*
X1829695D01*
Y169630D01*
X1832235D01*
Y174710D01*
X1829695D01*
Y177250D01*
X1824615D01*
Y174710D01*
X1822075D01*
Y169630D01*
X1824615D01*
X1844615Y129630D02*
Y127090D01*
X1849695D01*
Y129630D01*
X1852235D01*
Y134710D01*
X1849695D01*
Y137250D01*
X1844615D01*
Y134710D01*
X1842075D01*
Y129630D01*
X1844615D01*
X1824615Y89630D02*
Y87090D01*
X1829695D01*
Y89630D01*
X1832235D01*
Y94710D01*
X1829695D01*
Y97250D01*
X1824615D01*
Y94710D01*
X1822075D01*
Y89630D01*
X1824615D01*
Y9630D02*
Y7090D01*
X1829695D01*
Y9630D01*
X1832235D01*
Y14710D01*
X1829695D01*
Y17250D01*
X1824615D01*
Y14710D01*
X1822075D01*
Y9630D01*
X1824615D01*
X1784615Y1129630D02*
Y1127090D01*
X1789695D01*
Y1129630D01*
X1792235D01*
Y1134710D01*
X1789695D01*
Y1137250D01*
X1784615D01*
Y1134710D01*
X1782075D01*
Y1129630D01*
X1784615D01*
X1804615Y1089630D02*
Y1087090D01*
X1809695D01*
Y1089630D01*
X1812235D01*
Y1094710D01*
X1809695D01*
Y1097250D01*
X1804615D01*
Y1094710D01*
X1802075D01*
Y1089630D01*
X1804615D01*
X1784615Y1049630D02*
Y1047090D01*
X1789695D01*
Y1049630D01*
X1792235D01*
Y1054710D01*
X1789695D01*
Y1057250D01*
X1784615D01*
Y1054710D01*
X1782075D01*
Y1049630D01*
X1784615D01*
Y969630D02*
Y967090D01*
X1789695D01*
Y969630D01*
X1792235D01*
Y974710D01*
X1789695D01*
Y977250D01*
X1784615D01*
Y974710D01*
X1782075D01*
Y969630D01*
X1784615D01*
Y889630D02*
Y887090D01*
X1789695D01*
Y889630D01*
X1792235D01*
Y894710D01*
X1789695D01*
Y897250D01*
X1784615D01*
Y894710D01*
X1782075D01*
Y889630D01*
X1784615D01*
Y169630D02*
Y167090D01*
X1789695D01*
Y169630D01*
X1792235D01*
Y174710D01*
X1789695D01*
Y177250D01*
X1784615D01*
Y174710D01*
X1782075D01*
Y169630D01*
X1784615D01*
X1804615Y129630D02*
Y127090D01*
X1809695D01*
Y129630D01*
X1812235D01*
Y134710D01*
X1809695D01*
Y137250D01*
X1804615D01*
Y134710D01*
X1802075D01*
Y129630D01*
X1804615D01*
X1784615Y89630D02*
Y87090D01*
X1789695D01*
Y89630D01*
X1792235D01*
Y94710D01*
X1789695D01*
Y97250D01*
X1784615D01*
Y94710D01*
X1782075D01*
Y89630D01*
X1784615D01*
Y9630D02*
Y7090D01*
X1789695D01*
Y9630D01*
X1792235D01*
Y14710D01*
X1789695D01*
Y17250D01*
X1784615D01*
Y14710D01*
X1782075D01*
Y9630D01*
X1784615D01*
X1764615Y1169630D02*
Y1167090D01*
X1769695D01*
Y1169630D01*
X1772235D01*
Y1174710D01*
X1769695D01*
Y1177250D01*
X1764615D01*
Y1174710D01*
X1762075D01*
Y1169630D01*
X1764615D01*
Y1089630D02*
Y1087090D01*
X1769695D01*
Y1089630D01*
X1772235D01*
Y1094710D01*
X1769695D01*
Y1097250D01*
X1764615D01*
Y1094710D01*
X1762075D01*
Y1089630D01*
X1764615D01*
X1744615Y1049630D02*
Y1047090D01*
X1749695D01*
Y1049630D01*
X1752235D01*
Y1054710D01*
X1749695D01*
Y1057250D01*
X1744615D01*
Y1054710D01*
X1742075D01*
Y1049630D01*
X1744615D01*
X1764615Y1009630D02*
Y1007090D01*
X1769695D01*
Y1009630D01*
X1772235D01*
Y1014710D01*
X1769695D01*
Y1017250D01*
X1764615D01*
Y1014710D01*
X1762075D01*
Y1009630D01*
X1764615D01*
X1744615Y969630D02*
Y967090D01*
X1749695D01*
Y969630D01*
X1752235D01*
Y974710D01*
X1749695D01*
Y977250D01*
X1744615D01*
Y974710D01*
X1742075D01*
Y969630D01*
X1744615D01*
Y889630D02*
Y887090D01*
X1749695D01*
Y889630D01*
X1752235D01*
Y894710D01*
X1749695D01*
Y897250D01*
X1744615D01*
Y894710D01*
X1742075D01*
Y889630D01*
X1744615D01*
X1764615Y529630D02*
Y527090D01*
X1769695D01*
Y529630D01*
X1772235D01*
Y534710D01*
X1769695D01*
Y537250D01*
X1764615D01*
Y534710D01*
X1762075D01*
Y529630D01*
X1764615D01*
X1744615Y489630D02*
Y487090D01*
X1749695D01*
Y489630D01*
X1752235D01*
Y494710D01*
X1749695D01*
Y497250D01*
X1744615D01*
Y494710D01*
X1742075D01*
Y489630D01*
X1744615D01*
Y169630D02*
Y167090D01*
X1749695D01*
Y169630D01*
X1752235D01*
Y174710D01*
X1749695D01*
Y177250D01*
X1744615D01*
Y174710D01*
X1742075D01*
Y169630D01*
X1744615D01*
X1764615Y129630D02*
Y127090D01*
X1769695D01*
Y129630D01*
X1772235D01*
Y134710D01*
X1769695D01*
Y137250D01*
X1764615D01*
Y134710D01*
X1762075D01*
Y129630D01*
X1764615D01*
X1744615Y89630D02*
Y87090D01*
X1749695D01*
Y89630D01*
X1752235D01*
Y94710D01*
X1749695D01*
Y97250D01*
X1744615D01*
Y94710D01*
X1742075D01*
Y89630D01*
X1744615D01*
X1764615Y49630D02*
Y47090D01*
X1769695D01*
Y49630D01*
X1772235D01*
Y54710D01*
X1769695D01*
Y57250D01*
X1764615D01*
Y54710D01*
X1762075D01*
Y49630D01*
X1764615D01*
X1744615Y9630D02*
Y7090D01*
X1749695D01*
Y9630D01*
X1752235D01*
Y14710D01*
X1749695D01*
Y17250D01*
X1744615D01*
Y14710D01*
X1742075D01*
Y9630D01*
X1744615D01*
X1724615Y1169630D02*
Y1167090D01*
X1729695D01*
Y1169630D01*
X1732235D01*
Y1174710D01*
X1729695D01*
Y1177250D01*
X1724615D01*
Y1174710D01*
X1722075D01*
Y1169630D01*
X1724615D01*
X1704615Y1129630D02*
Y1127090D01*
X1709695D01*
Y1129630D01*
X1712235D01*
Y1134710D01*
X1709695D01*
Y1137250D01*
X1704615D01*
Y1134710D01*
X1702075D01*
Y1129630D01*
X1704615D01*
X1724615Y1089630D02*
Y1087090D01*
X1729695D01*
Y1089630D01*
X1732235D01*
Y1094710D01*
X1729695D01*
Y1097250D01*
X1724615D01*
Y1094710D01*
X1722075D01*
Y1089630D01*
X1724615D01*
X1704615Y1049630D02*
Y1047090D01*
X1709695D01*
Y1049630D01*
X1712235D01*
Y1054710D01*
X1709695D01*
Y1057250D01*
X1704615D01*
Y1054710D01*
X1702075D01*
Y1049630D01*
X1704615D01*
X1724615Y1009630D02*
Y1007090D01*
X1729695D01*
Y1009630D01*
X1732235D01*
Y1014710D01*
X1729695D01*
Y1017250D01*
X1724615D01*
Y1014710D01*
X1722075D01*
Y1009630D01*
X1724615D01*
X1704615Y969630D02*
Y967090D01*
X1709695D01*
Y969630D01*
X1712235D01*
Y974710D01*
X1709695D01*
Y977250D01*
X1704615D01*
Y974710D01*
X1702075D01*
Y969630D01*
X1704615D01*
X1724615Y929630D02*
Y927090D01*
X1729695D01*
Y929630D01*
X1732235D01*
Y934710D01*
X1729695D01*
Y937250D01*
X1724615D01*
Y934710D01*
X1722075D01*
Y929630D01*
X1724615D01*
Y849630D02*
Y847090D01*
X1729695D01*
Y849630D01*
X1732235D01*
Y854710D01*
X1729695D01*
Y857250D01*
X1724615D01*
Y854710D01*
X1722075D01*
Y849630D01*
X1724615D01*
X1704615Y809630D02*
Y807090D01*
X1709695D01*
Y809630D01*
X1712235D01*
Y814710D01*
X1709695D01*
Y817250D01*
X1704615D01*
Y814710D01*
X1702075D01*
Y809630D01*
X1704615D01*
Y729630D02*
Y727090D01*
X1709695D01*
Y729630D01*
X1712235D01*
Y734710D01*
X1709695D01*
Y737250D01*
X1704615D01*
Y734710D01*
X1702075D01*
Y729630D01*
X1704615D01*
X1724615Y689630D02*
Y687090D01*
X1729695D01*
Y689630D01*
X1732235D01*
Y694710D01*
X1729695D01*
Y697250D01*
X1724615D01*
Y694710D01*
X1722075D01*
Y689630D01*
X1724615D01*
Y129630D02*
Y127090D01*
X1729695D01*
Y129630D01*
X1732235D01*
Y134710D01*
X1729695D01*
Y137250D01*
X1724615D01*
Y134710D01*
X1722075D01*
Y129630D01*
X1724615D01*
X1704615Y89630D02*
Y87090D01*
X1709695D01*
Y89630D01*
X1712235D01*
Y94710D01*
X1709695D01*
Y97250D01*
X1704615D01*
Y94710D01*
X1702075D01*
Y89630D01*
X1704615D01*
X1724615Y49630D02*
Y47090D01*
X1729695D01*
Y49630D01*
X1732235D01*
Y54710D01*
X1729695D01*
Y57250D01*
X1724615D01*
Y54710D01*
X1722075D01*
Y49630D01*
X1724615D01*
X1704615Y9630D02*
Y7090D01*
X1709695D01*
Y9630D01*
X1712235D01*
Y14710D01*
X1709695D01*
Y17250D01*
X1704615D01*
Y14710D01*
X1702075D01*
Y9630D01*
X1704615D01*
X1664615Y1129630D02*
Y1127090D01*
X1669695D01*
Y1129630D01*
X1672235D01*
Y1134710D01*
X1669695D01*
Y1137250D01*
X1664615D01*
Y1134710D01*
X1662075D01*
Y1129630D01*
X1664615D01*
X1684615Y1089630D02*
Y1087090D01*
X1689695D01*
Y1089630D01*
X1692235D01*
Y1094710D01*
X1689695D01*
Y1097250D01*
X1684615D01*
Y1094710D01*
X1682075D01*
Y1089630D01*
X1684615D01*
Y1009630D02*
Y1007090D01*
X1689695D01*
Y1009630D01*
X1692235D01*
Y1014710D01*
X1689695D01*
Y1017250D01*
X1684615D01*
Y1014710D01*
X1682075D01*
Y1009630D01*
X1684615D01*
X1664615Y169630D02*
Y167090D01*
X1669695D01*
Y169630D01*
X1672235D01*
Y174710D01*
X1669695D01*
Y177250D01*
X1664615D01*
Y174710D01*
X1662075D01*
Y169630D01*
X1664615D01*
X1684615Y129630D02*
Y127090D01*
X1689695D01*
Y129630D01*
X1692235D01*
Y134710D01*
X1689695D01*
Y137250D01*
X1684615D01*
Y134710D01*
X1682075D01*
Y129630D01*
X1684615D01*
X1664615Y89630D02*
Y87090D01*
X1669695D01*
Y89630D01*
X1672235D01*
Y94710D01*
X1669695D01*
Y97250D01*
X1664615D01*
Y94710D01*
X1662075D01*
Y89630D01*
X1664615D01*
X1684615Y49630D02*
Y47090D01*
X1689695D01*
Y49630D01*
X1692235D01*
Y54710D01*
X1689695D01*
Y57250D01*
X1684615D01*
Y54710D01*
X1682075D01*
Y49630D01*
X1684615D01*
X1664615Y9630D02*
Y7090D01*
X1669695D01*
Y9630D01*
X1672235D01*
Y14710D01*
X1669695D01*
Y17250D01*
X1664615D01*
Y14710D01*
X1662075D01*
Y9630D01*
X1664615D01*
X1624615Y1129630D02*
Y1127090D01*
X1629695D01*
Y1129630D01*
X1632235D01*
Y1134710D01*
X1629695D01*
Y1137250D01*
X1624615D01*
Y1134710D01*
X1622075D01*
Y1129630D01*
X1624615D01*
Y649630D02*
Y647090D01*
X1629695D01*
Y649630D01*
X1632235D01*
Y654710D01*
X1629695D01*
Y657250D01*
X1624615D01*
Y654710D01*
X1622075D01*
Y649630D01*
X1624615D01*
Y569630D02*
Y567090D01*
X1629695D01*
Y569630D01*
X1632235D01*
Y574710D01*
X1629695D01*
Y577250D01*
X1624615D01*
Y574710D01*
X1622075D01*
Y569630D01*
X1624615D01*
Y489630D02*
Y487090D01*
X1629695D01*
Y489630D01*
X1632235D01*
Y494710D01*
X1629695D01*
Y497250D01*
X1624615D01*
Y494710D01*
X1622075D01*
Y489630D01*
X1624615D01*
Y169630D02*
Y167090D01*
X1629695D01*
Y169630D01*
X1632235D01*
Y174710D01*
X1629695D01*
Y177250D01*
X1624615D01*
Y174710D01*
X1622075D01*
Y169630D01*
X1624615D01*
X1644615Y129630D02*
Y127090D01*
X1649695D01*
Y129630D01*
X1652235D01*
Y134710D01*
X1649695D01*
Y137250D01*
X1644615D01*
Y134710D01*
X1642075D01*
Y129630D01*
X1644615D01*
X1624615Y89630D02*
Y87090D01*
X1629695D01*
Y89630D01*
X1632235D01*
Y94710D01*
X1629695D01*
Y97250D01*
X1624615D01*
Y94710D01*
X1622075D01*
Y89630D01*
X1624615D01*
X1644615Y49630D02*
Y47090D01*
X1649695D01*
Y49630D01*
X1652235D01*
Y54710D01*
X1649695D01*
Y57250D01*
X1644615D01*
Y54710D01*
X1642075D01*
Y49630D01*
X1644615D01*
X1624615Y9630D02*
Y7090D01*
X1629695D01*
Y9630D01*
X1632235D01*
Y14710D01*
X1629695D01*
Y17250D01*
X1624615D01*
Y14710D01*
X1622075D01*
Y9630D01*
X1624615D01*
X1584615Y1049630D02*
Y1047090D01*
X1589695D01*
Y1049630D01*
X1592235D01*
Y1054710D01*
X1589695D01*
Y1057250D01*
X1584615D01*
Y1054710D01*
X1582075D01*
Y1049630D01*
X1584615D01*
X1604615Y1009630D02*
Y1007090D01*
X1609695D01*
Y1009630D01*
X1612235D01*
Y1014710D01*
X1609695D01*
Y1017250D01*
X1604615D01*
Y1014710D01*
X1602075D01*
Y1009630D01*
X1604615D01*
X1584615Y969630D02*
Y967090D01*
X1589695D01*
Y969630D01*
X1592235D01*
Y974710D01*
X1589695D01*
Y977250D01*
X1584615D01*
Y974710D01*
X1582075D01*
Y969630D01*
X1584615D01*
X1604615Y929630D02*
Y927090D01*
X1609695D01*
Y929630D01*
X1612235D01*
Y934710D01*
X1609695D01*
Y937250D01*
X1604615D01*
Y934710D01*
X1602075D01*
Y929630D01*
X1604615D01*
X1584615Y809630D02*
Y807090D01*
X1589695D01*
Y809630D01*
X1592235D01*
Y814710D01*
X1589695D01*
Y817250D01*
X1584615D01*
Y814710D01*
X1582075D01*
Y809630D01*
X1584615D01*
Y649630D02*
Y647090D01*
X1589695D01*
Y649630D01*
X1592235D01*
Y654710D01*
X1589695D01*
Y657250D01*
X1584615D01*
Y654710D01*
X1582075D01*
Y649630D01*
X1584615D01*
X1604615Y609630D02*
Y607090D01*
X1609695D01*
Y609630D01*
X1612235D01*
Y614710D01*
X1609695D01*
Y617250D01*
X1604615D01*
Y614710D01*
X1602075D01*
Y609630D01*
X1604615D01*
X1584615Y569630D02*
Y567090D01*
X1589695D01*
Y569630D01*
X1592235D01*
Y574710D01*
X1589695D01*
Y577250D01*
X1584615D01*
Y574710D01*
X1582075D01*
Y569630D01*
X1584615D01*
X1604615Y529630D02*
Y527090D01*
X1609695D01*
Y529630D01*
X1612235D01*
Y534710D01*
X1609695D01*
Y537250D01*
X1604615D01*
Y534710D01*
X1602075D01*
Y529630D01*
X1604615D01*
Y449630D02*
Y447090D01*
X1609695D01*
Y449630D01*
X1612235D01*
Y454710D01*
X1609695D01*
Y457250D01*
X1604615D01*
Y454710D01*
X1602075D01*
Y449630D01*
X1604615D01*
Y209630D02*
Y207090D01*
X1609695D01*
Y209630D01*
X1612235D01*
Y214710D01*
X1609695D01*
Y217250D01*
X1604615D01*
Y214710D01*
X1602075D01*
Y209630D01*
X1604615D01*
X1584615Y169630D02*
Y167090D01*
X1589695D01*
Y169630D01*
X1592235D01*
Y174710D01*
X1589695D01*
Y177250D01*
X1584615D01*
Y174710D01*
X1582075D01*
Y169630D01*
X1584615D01*
X1604615Y129630D02*
Y127090D01*
X1609695D01*
Y129630D01*
X1612235D01*
Y134710D01*
X1609695D01*
Y137250D01*
X1604615D01*
Y134710D01*
X1602075D01*
Y129630D01*
X1604615D01*
X1584615Y89630D02*
Y87090D01*
X1589695D01*
Y89630D01*
X1592235D01*
Y94710D01*
X1589695D01*
Y97250D01*
X1584615D01*
Y94710D01*
X1582075D01*
Y89630D01*
X1584615D01*
X1604615Y49630D02*
Y47090D01*
X1609695D01*
Y49630D01*
X1612235D01*
Y54710D01*
X1609695D01*
Y57250D01*
X1604615D01*
Y54710D01*
X1602075D01*
Y49630D01*
X1604615D01*
X1584615Y9630D02*
Y7090D01*
X1589695D01*
Y9630D01*
X1592235D01*
Y14710D01*
X1589695D01*
Y17250D01*
X1584615D01*
Y14710D01*
X1582075D01*
Y9630D01*
X1584615D01*
X1564615Y1169630D02*
Y1167090D01*
X1569695D01*
Y1169630D01*
X1572235D01*
Y1174710D01*
X1569695D01*
Y1177250D01*
X1564615D01*
Y1174710D01*
X1562075D01*
Y1169630D01*
X1564615D01*
X1544615Y1049630D02*
Y1047090D01*
X1549695D01*
Y1049630D01*
X1552235D01*
Y1054710D01*
X1549695D01*
Y1057250D01*
X1544615D01*
Y1054710D01*
X1542075D01*
Y1049630D01*
X1544615D01*
X1564615Y1009630D02*
Y1007090D01*
X1569695D01*
Y1009630D01*
X1572235D01*
Y1014710D01*
X1569695D01*
Y1017250D01*
X1564615D01*
Y1014710D01*
X1562075D01*
Y1009630D01*
X1564615D01*
X1544615Y969630D02*
Y967090D01*
X1549695D01*
Y969630D01*
X1552235D01*
Y974710D01*
X1549695D01*
Y977250D01*
X1544615D01*
Y974710D01*
X1542075D01*
Y969630D01*
X1544615D01*
X1564615Y929630D02*
Y927090D01*
X1569695D01*
Y929630D01*
X1572235D01*
Y934710D01*
X1569695D01*
Y937250D01*
X1564615D01*
Y934710D01*
X1562075D01*
Y929630D01*
X1564615D01*
X1544615Y809630D02*
Y807090D01*
X1549695D01*
Y809630D01*
X1552235D01*
Y814710D01*
X1549695D01*
Y817250D01*
X1544615D01*
Y814710D01*
X1542075D01*
Y809630D01*
X1544615D01*
Y729630D02*
Y727090D01*
X1549695D01*
Y729630D01*
X1552235D01*
Y734710D01*
X1549695D01*
Y737250D01*
X1544615D01*
Y734710D01*
X1542075D01*
Y729630D01*
X1544615D01*
X1564615Y689630D02*
Y687090D01*
X1569695D01*
Y689630D01*
X1572235D01*
Y694710D01*
X1569695D01*
Y697250D01*
X1564615D01*
Y694710D01*
X1562075D01*
Y689630D01*
X1564615D01*
X1544615Y649630D02*
Y647090D01*
X1549695D01*
Y649630D01*
X1552235D01*
Y654710D01*
X1549695D01*
Y657250D01*
X1544615D01*
Y654710D01*
X1542075D01*
Y649630D01*
X1544615D01*
X1564615Y609630D02*
Y607090D01*
X1569695D01*
Y609630D01*
X1572235D01*
Y614710D01*
X1569695D01*
Y617250D01*
X1564615D01*
Y614710D01*
X1562075D01*
Y609630D01*
X1564615D01*
X1544615Y569630D02*
Y567090D01*
X1549695D01*
Y569630D01*
X1552235D01*
Y574710D01*
X1549695D01*
Y577250D01*
X1544615D01*
Y574710D01*
X1542075D01*
Y569630D01*
X1544615D01*
X1564615Y529630D02*
Y527090D01*
X1569695D01*
Y529630D01*
X1572235D01*
Y534710D01*
X1569695D01*
Y537250D01*
X1564615D01*
Y534710D01*
X1562075D01*
Y529630D01*
X1564615D01*
X1544615Y489630D02*
Y487090D01*
X1549695D01*
Y489630D01*
X1552235D01*
Y494710D01*
X1549695D01*
Y497250D01*
X1544615D01*
Y494710D01*
X1542075D01*
Y489630D01*
X1544615D01*
X1564615Y449630D02*
Y447090D01*
X1569695D01*
Y449630D01*
X1572235D01*
Y454710D01*
X1569695D01*
Y457250D01*
X1564615D01*
Y454710D01*
X1562075D01*
Y449630D01*
X1564615D01*
X1544615Y409630D02*
Y407090D01*
X1549695D01*
Y409630D01*
X1552235D01*
Y414710D01*
X1549695D01*
Y417250D01*
X1544615D01*
Y414710D01*
X1542075D01*
Y409630D01*
X1544615D01*
X1564615Y209630D02*
Y207090D01*
X1569695D01*
Y209630D01*
X1572235D01*
Y214710D01*
X1569695D01*
Y217250D01*
X1564615D01*
Y214710D01*
X1562075D01*
Y209630D01*
X1564615D01*
X1544615Y169630D02*
Y167090D01*
X1549695D01*
Y169630D01*
X1552235D01*
Y174710D01*
X1549695D01*
Y177250D01*
X1544615D01*
Y174710D01*
X1542075D01*
Y169630D01*
X1544615D01*
X1564615Y129630D02*
Y127090D01*
X1569695D01*
Y129630D01*
X1572235D01*
Y134710D01*
X1569695D01*
Y137250D01*
X1564615D01*
Y134710D01*
X1562075D01*
Y129630D01*
X1564615D01*
X1544615Y89630D02*
Y87090D01*
X1549695D01*
Y89630D01*
X1552235D01*
Y94710D01*
X1549695D01*
Y97250D01*
X1544615D01*
Y94710D01*
X1542075D01*
Y89630D01*
X1544615D01*
X1564615Y49630D02*
Y47090D01*
X1569695D01*
Y49630D01*
X1572235D01*
Y54710D01*
X1569695D01*
Y57250D01*
X1564615D01*
Y54710D01*
X1562075D01*
Y49630D01*
X1564615D01*
X1544615Y9630D02*
Y7090D01*
X1549695D01*
Y9630D01*
X1552235D01*
Y14710D01*
X1549695D01*
Y17250D01*
X1544615D01*
Y14710D01*
X1542075D01*
Y9630D01*
X1544615D01*
X1504615Y1049630D02*
Y1047090D01*
X1509695D01*
Y1049630D01*
X1512235D01*
Y1054710D01*
X1509695D01*
Y1057250D01*
X1504615D01*
Y1054710D01*
X1502075D01*
Y1049630D01*
X1504615D01*
X1524615Y1009630D02*
Y1007090D01*
X1529695D01*
Y1009630D01*
X1532235D01*
Y1014710D01*
X1529695D01*
Y1017250D01*
X1524615D01*
Y1014710D01*
X1522075D01*
Y1009630D01*
X1524615D01*
X1504615Y969630D02*
Y967090D01*
X1509695D01*
Y969630D01*
X1512235D01*
Y974710D01*
X1509695D01*
Y977250D01*
X1504615D01*
Y974710D01*
X1502075D01*
Y969630D01*
X1504615D01*
Y889630D02*
Y887090D01*
X1509695D01*
Y889630D01*
X1512235D01*
Y894710D01*
X1509695D01*
Y897250D01*
X1504615D01*
Y894710D01*
X1502075D01*
Y889630D01*
X1504615D01*
X1524615Y689630D02*
Y687090D01*
X1529695D01*
Y689630D01*
X1532235D01*
Y694710D01*
X1529695D01*
Y697250D01*
X1524615D01*
Y694710D01*
X1522075D01*
Y689630D01*
X1524615D01*
Y609630D02*
Y607090D01*
X1529695D01*
Y609630D01*
X1532235D01*
Y614710D01*
X1529695D01*
Y617250D01*
X1524615D01*
Y614710D01*
X1522075D01*
Y609630D01*
X1524615D01*
Y529630D02*
Y527090D01*
X1529695D01*
Y529630D01*
X1532235D01*
Y534710D01*
X1529695D01*
Y537250D01*
X1524615D01*
Y534710D01*
X1522075D01*
Y529630D01*
X1524615D01*
X1504615Y489630D02*
Y487090D01*
X1509695D01*
Y489630D01*
X1512235D01*
Y494710D01*
X1509695D01*
Y497250D01*
X1504615D01*
Y494710D01*
X1502075D01*
Y489630D01*
X1504615D01*
X1524615Y449630D02*
Y447090D01*
X1529695D01*
Y449630D01*
X1532235D01*
Y454710D01*
X1529695D01*
Y457250D01*
X1524615D01*
Y454710D01*
X1522075D01*
Y449630D01*
X1524615D01*
X1504615Y409630D02*
Y407090D01*
X1509695D01*
Y409630D01*
X1512235D01*
Y414710D01*
X1509695D01*
Y417250D01*
X1504615D01*
Y414710D01*
X1502075D01*
Y409630D01*
X1504615D01*
X1524615Y209630D02*
Y207090D01*
X1529695D01*
Y209630D01*
X1532235D01*
Y214710D01*
X1529695D01*
Y217250D01*
X1524615D01*
Y214710D01*
X1522075D01*
Y209630D01*
X1524615D01*
X1504615Y169630D02*
Y167090D01*
X1509695D01*
Y169630D01*
X1512235D01*
Y174710D01*
X1509695D01*
Y177250D01*
X1504615D01*
Y174710D01*
X1502075D01*
Y169630D01*
X1504615D01*
X1524615Y129630D02*
Y127090D01*
X1529695D01*
Y129630D01*
X1532235D01*
Y134710D01*
X1529695D01*
Y137250D01*
X1524615D01*
Y134710D01*
X1522075D01*
Y129630D01*
X1524615D01*
X1504615Y89630D02*
Y87090D01*
X1509695D01*
Y89630D01*
X1512235D01*
Y94710D01*
X1509695D01*
Y97250D01*
X1504615D01*
Y94710D01*
X1502075D01*
Y89630D01*
X1504615D01*
X1524615Y49630D02*
Y47090D01*
X1529695D01*
Y49630D01*
X1532235D01*
Y54710D01*
X1529695D01*
Y57250D01*
X1524615D01*
Y54710D01*
X1522075D01*
Y49630D01*
X1524615D01*
X1504615Y9630D02*
Y7090D01*
X1509695D01*
Y9630D01*
X1512235D01*
Y14710D01*
X1509695D01*
Y17250D01*
X1504615D01*
Y14710D01*
X1502075D01*
Y9630D01*
X1504615D01*
X1484615Y1169630D02*
Y1167090D01*
X1489695D01*
Y1169630D01*
X1492235D01*
Y1174710D01*
X1489695D01*
Y1177250D01*
X1484615D01*
Y1174710D01*
X1482075D01*
Y1169630D01*
X1484615D01*
Y1009630D02*
Y1007090D01*
X1489695D01*
Y1009630D01*
X1492235D01*
Y1014710D01*
X1489695D01*
Y1017250D01*
X1484615D01*
Y1014710D01*
X1482075D01*
Y1009630D01*
X1484615D01*
X1464615Y969630D02*
Y967090D01*
X1469695D01*
Y969630D01*
X1472235D01*
Y974710D01*
X1469695D01*
Y977250D01*
X1464615D01*
Y974710D01*
X1462075D01*
Y969630D01*
X1464615D01*
Y889630D02*
Y887090D01*
X1469695D01*
Y889630D01*
X1472235D01*
Y894710D01*
X1469695D01*
Y897250D01*
X1464615D01*
Y894710D01*
X1462075D01*
Y889630D01*
X1464615D01*
X1484615Y849630D02*
Y847090D01*
X1489695D01*
Y849630D01*
X1492235D01*
Y854710D01*
X1489695D01*
Y857250D01*
X1484615D01*
Y854710D01*
X1482075D01*
Y849630D01*
X1484615D01*
Y769630D02*
Y767090D01*
X1489695D01*
Y769630D01*
X1492235D01*
Y774710D01*
X1489695D01*
Y777250D01*
X1484615D01*
Y774710D01*
X1482075D01*
Y769630D01*
X1484615D01*
Y449630D02*
Y447090D01*
X1489695D01*
Y449630D01*
X1492235D01*
Y454710D01*
X1489695D01*
Y457250D01*
X1484615D01*
Y454710D01*
X1482075D01*
Y449630D01*
X1484615D01*
X1464615Y409630D02*
Y407090D01*
X1469695D01*
Y409630D01*
X1472235D01*
Y414710D01*
X1469695D01*
Y417250D01*
X1464615D01*
Y414710D01*
X1462075D01*
Y409630D01*
X1464615D01*
X1484615Y209630D02*
Y207090D01*
X1489695D01*
Y209630D01*
X1492235D01*
Y214710D01*
X1489695D01*
Y217250D01*
X1484615D01*
Y214710D01*
X1482075D01*
Y209630D01*
X1484615D01*
X1464615Y169630D02*
Y167090D01*
X1469695D01*
Y169630D01*
X1472235D01*
Y174710D01*
X1469695D01*
Y177250D01*
X1464615D01*
Y174710D01*
X1462075D01*
Y169630D01*
X1464615D01*
X1484615Y129630D02*
Y127090D01*
X1489695D01*
Y129630D01*
X1492235D01*
Y134710D01*
X1489695D01*
Y137250D01*
X1484615D01*
Y134710D01*
X1482075D01*
Y129630D01*
X1484615D01*
X1464615Y89630D02*
Y87090D01*
X1469695D01*
Y89630D01*
X1472235D01*
Y94710D01*
X1469695D01*
Y97250D01*
X1464615D01*
Y94710D01*
X1462075D01*
Y89630D01*
X1464615D01*
X1484615Y49630D02*
Y47090D01*
X1489695D01*
Y49630D01*
X1492235D01*
Y54710D01*
X1489695D01*
Y57250D01*
X1484615D01*
Y54710D01*
X1482075D01*
Y49630D01*
X1484615D01*
X1464615Y9630D02*
Y7090D01*
X1469695D01*
Y9630D01*
X1472235D01*
Y14710D01*
X1469695D01*
Y17250D01*
X1464615D01*
Y14710D01*
X1462075D01*
Y9630D01*
X1464615D01*
X1444615Y1169630D02*
Y1167090D01*
X1449695D01*
Y1169630D01*
X1452235D01*
Y1174710D01*
X1449695D01*
Y1177250D01*
X1444615D01*
Y1174710D01*
X1442075D01*
Y1169630D01*
X1444615D01*
X1424615Y1129630D02*
Y1127090D01*
X1429695D01*
Y1129630D01*
X1432235D01*
Y1134710D01*
X1429695D01*
Y1137250D01*
X1424615D01*
Y1134710D01*
X1422075D01*
Y1129630D01*
X1424615D01*
Y1049630D02*
Y1047090D01*
X1429695D01*
Y1049630D01*
X1432235D01*
Y1054710D01*
X1429695D01*
Y1057250D01*
X1424615D01*
Y1054710D01*
X1422075D01*
Y1049630D01*
X1424615D01*
X1444615Y1009630D02*
Y1007090D01*
X1449695D01*
Y1009630D01*
X1452235D01*
Y1014710D01*
X1449695D01*
Y1017250D01*
X1444615D01*
Y1014710D01*
X1442075D01*
Y1009630D01*
X1444615D01*
Y209630D02*
Y207090D01*
X1449695D01*
Y209630D01*
X1452235D01*
Y214710D01*
X1449695D01*
Y217250D01*
X1444615D01*
Y214710D01*
X1442075D01*
Y209630D01*
X1444615D01*
X1424615Y169630D02*
Y167090D01*
X1429695D01*
Y169630D01*
X1432235D01*
Y174710D01*
X1429695D01*
Y177250D01*
X1424615D01*
Y174710D01*
X1422075D01*
Y169630D01*
X1424615D01*
X1444615Y129630D02*
Y127090D01*
X1449695D01*
Y129630D01*
X1452235D01*
Y134710D01*
X1449695D01*
Y137250D01*
X1444615D01*
Y134710D01*
X1442075D01*
Y129630D01*
X1444615D01*
X1424615Y89630D02*
Y87090D01*
X1429695D01*
Y89630D01*
X1432235D01*
Y94710D01*
X1429695D01*
Y97250D01*
X1424615D01*
Y94710D01*
X1422075D01*
Y89630D01*
X1424615D01*
X1444615Y49630D02*
Y47090D01*
X1449695D01*
Y49630D01*
X1452235D01*
Y54710D01*
X1449695D01*
Y57250D01*
X1444615D01*
Y54710D01*
X1442075D01*
Y49630D01*
X1444615D01*
X1424615Y9630D02*
Y7090D01*
X1429695D01*
Y9630D01*
X1432235D01*
Y14710D01*
X1429695D01*
Y17250D01*
X1424615D01*
Y14710D01*
X1422075D01*
Y9630D01*
X1424615D01*
X1404615Y1169630D02*
Y1167090D01*
X1409695D01*
Y1169630D01*
X1412235D01*
Y1174710D01*
X1409695D01*
Y1177250D01*
X1404615D01*
Y1174710D01*
X1402075D01*
Y1169630D01*
X1404615D01*
X1384615Y1129630D02*
Y1127090D01*
X1389695D01*
Y1129630D01*
X1392235D01*
Y1134710D01*
X1389695D01*
Y1137250D01*
X1384615D01*
Y1134710D01*
X1382075D01*
Y1129630D01*
X1384615D01*
Y1049630D02*
Y1047090D01*
X1389695D01*
Y1049630D01*
X1392235D01*
Y1054710D01*
X1389695D01*
Y1057250D01*
X1384615D01*
Y1054710D01*
X1382075D01*
Y1049630D01*
X1384615D01*
X1404615Y1009630D02*
Y1007090D01*
X1409695D01*
Y1009630D01*
X1412235D01*
Y1014710D01*
X1409695D01*
Y1017250D01*
X1404615D01*
Y1014710D01*
X1402075D01*
Y1009630D01*
X1404615D01*
X1384615Y969630D02*
Y967090D01*
X1389695D01*
Y969630D01*
X1392235D01*
Y974710D01*
X1389695D01*
Y977250D01*
X1384615D01*
Y974710D01*
X1382075D01*
Y969630D01*
X1384615D01*
Y409630D02*
Y407090D01*
X1389695D01*
Y409630D01*
X1392235D01*
Y414710D01*
X1389695D01*
Y417250D01*
X1384615D01*
Y414710D01*
X1382075D01*
Y409630D01*
X1384615D01*
X1404615Y209630D02*
Y207090D01*
X1409695D01*
Y209630D01*
X1412235D01*
Y214710D01*
X1409695D01*
Y217250D01*
X1404615D01*
Y214710D01*
X1402075D01*
Y209630D01*
X1404615D01*
X1384615Y169630D02*
Y167090D01*
X1389695D01*
Y169630D01*
X1392235D01*
Y174710D01*
X1389695D01*
Y177250D01*
X1384615D01*
Y174710D01*
X1382075D01*
Y169630D01*
X1384615D01*
X1404615Y129630D02*
Y127090D01*
X1409695D01*
Y129630D01*
X1412235D01*
Y134710D01*
X1409695D01*
Y137250D01*
X1404615D01*
Y134710D01*
X1402075D01*
Y129630D01*
X1404615D01*
X1384615Y89630D02*
Y87090D01*
X1389695D01*
Y89630D01*
X1392235D01*
Y94710D01*
X1389695D01*
Y97250D01*
X1384615D01*
Y94710D01*
X1382075D01*
Y89630D01*
X1384615D01*
X1404615Y49630D02*
Y47090D01*
X1409695D01*
Y49630D01*
X1412235D01*
Y54710D01*
X1409695D01*
Y57250D01*
X1404615D01*
Y54710D01*
X1402075D01*
Y49630D01*
X1404615D01*
X1384615Y9630D02*
Y7090D01*
X1389695D01*
Y9630D01*
X1392235D01*
Y14710D01*
X1389695D01*
Y17250D01*
X1384615D01*
Y14710D01*
X1382075D01*
Y9630D01*
X1384615D01*
X1364615Y1169630D02*
Y1167090D01*
X1369695D01*
Y1169630D01*
X1372235D01*
Y1174710D01*
X1369695D01*
Y1177250D01*
X1364615D01*
Y1174710D01*
X1362075D01*
Y1169630D01*
X1364615D01*
Y1009630D02*
Y1007090D01*
X1369695D01*
Y1009630D01*
X1372235D01*
Y1014710D01*
X1369695D01*
Y1017250D01*
X1364615D01*
Y1014710D01*
X1362075D01*
Y1009630D01*
X1364615D01*
Y209630D02*
Y207090D01*
X1369695D01*
Y209630D01*
X1372235D01*
Y214710D01*
X1369695D01*
Y217250D01*
X1364615D01*
Y214710D01*
X1362075D01*
Y209630D01*
X1364615D01*
X1344615Y169630D02*
Y167090D01*
X1349695D01*
Y169630D01*
X1352235D01*
Y174710D01*
X1349695D01*
Y177250D01*
X1344615D01*
Y174710D01*
X1342075D01*
Y169630D01*
X1344615D01*
X1364615Y129630D02*
Y127090D01*
X1369695D01*
Y129630D01*
X1372235D01*
Y134710D01*
X1369695D01*
Y137250D01*
X1364615D01*
Y134710D01*
X1362075D01*
Y129630D01*
X1364615D01*
X1344615Y89630D02*
Y87090D01*
X1349695D01*
Y89630D01*
X1352235D01*
Y94710D01*
X1349695D01*
Y97250D01*
X1344615D01*
Y94710D01*
X1342075D01*
Y89630D01*
X1344615D01*
X1364615Y49630D02*
Y47090D01*
X1369695D01*
Y49630D01*
X1372235D01*
Y54710D01*
X1369695D01*
Y57250D01*
X1364615D01*
Y54710D01*
X1362075D01*
Y49630D01*
X1364615D01*
X1344615Y9630D02*
Y7090D01*
X1349695D01*
Y9630D01*
X1352235D01*
Y14710D01*
X1349695D01*
Y17250D01*
X1344615D01*
Y14710D01*
X1342075D01*
Y9630D01*
X1344615D01*
X1324615Y1169630D02*
Y1167090D01*
X1329695D01*
Y1169630D01*
X1332235D01*
Y1174710D01*
X1329695D01*
Y1177250D01*
X1324615D01*
Y1174710D01*
X1322075D01*
Y1169630D01*
X1324615D01*
Y1009630D02*
Y1007090D01*
X1329695D01*
Y1009630D01*
X1332235D01*
Y1014710D01*
X1329695D01*
Y1017250D01*
X1324615D01*
Y1014710D01*
X1322075D01*
Y1009630D01*
X1324615D01*
X1304615Y729630D02*
Y727090D01*
X1309695D01*
Y729630D01*
X1312235D01*
Y734710D01*
X1309695D01*
Y737250D01*
X1304615D01*
Y734710D01*
X1302075D01*
Y729630D01*
X1304615D01*
X1324615Y209630D02*
Y207090D01*
X1329695D01*
Y209630D01*
X1332235D01*
Y214710D01*
X1329695D01*
Y217250D01*
X1324615D01*
Y214710D01*
X1322075D01*
Y209630D01*
X1324615D01*
X1304615Y169630D02*
Y167090D01*
X1309695D01*
Y169630D01*
X1312235D01*
Y174710D01*
X1309695D01*
Y177250D01*
X1304615D01*
Y174710D01*
X1302075D01*
Y169630D01*
X1304615D01*
X1324615Y129630D02*
Y127090D01*
X1329695D01*
Y129630D01*
X1332235D01*
Y134710D01*
X1329695D01*
Y137250D01*
X1324615D01*
Y134710D01*
X1322075D01*
Y129630D01*
X1324615D01*
X1304615Y89630D02*
Y87090D01*
X1309695D01*
Y89630D01*
X1312235D01*
Y94710D01*
X1309695D01*
Y97250D01*
X1304615D01*
Y94710D01*
X1302075D01*
Y89630D01*
X1304615D01*
X1324615Y49630D02*
Y47090D01*
X1329695D01*
Y49630D01*
X1332235D01*
Y54710D01*
X1329695D01*
Y57250D01*
X1324615D01*
Y54710D01*
X1322075D01*
Y49630D01*
X1324615D01*
X1304615Y9630D02*
Y7090D01*
X1309695D01*
Y9630D01*
X1312235D01*
Y14710D01*
X1309695D01*
Y17250D01*
X1304615D01*
Y14710D01*
X1302075D01*
Y9630D01*
X1304615D01*
X1284615Y1169630D02*
Y1167090D01*
X1289695D01*
Y1169630D01*
X1292235D01*
Y1174710D01*
X1289695D01*
Y1177250D01*
X1284615D01*
Y1174710D01*
X1282075D01*
Y1169630D01*
X1284615D01*
Y1009630D02*
Y1007090D01*
X1289695D01*
Y1009630D01*
X1292235D01*
Y1014710D01*
X1289695D01*
Y1017250D01*
X1284615D01*
Y1014710D01*
X1282075D01*
Y1009630D01*
X1284615D01*
Y209630D02*
Y207090D01*
X1289695D01*
Y209630D01*
X1292235D01*
Y214710D01*
X1289695D01*
Y217250D01*
X1284615D01*
Y214710D01*
X1282075D01*
Y209630D01*
X1284615D01*
X1264615Y169630D02*
Y167090D01*
X1269695D01*
Y169630D01*
X1272235D01*
Y174710D01*
X1269695D01*
Y177250D01*
X1264615D01*
Y174710D01*
X1262075D01*
Y169630D01*
X1264615D01*
X1284615Y129630D02*
Y127090D01*
X1289695D01*
Y129630D01*
X1292235D01*
Y134710D01*
X1289695D01*
Y137250D01*
X1284615D01*
Y134710D01*
X1282075D01*
Y129630D01*
X1284615D01*
X1264615Y89630D02*
Y87090D01*
X1269695D01*
Y89630D01*
X1272235D01*
Y94710D01*
X1269695D01*
Y97250D01*
X1264615D01*
Y94710D01*
X1262075D01*
Y89630D01*
X1264615D01*
X1284615Y49630D02*
Y47090D01*
X1289695D01*
Y49630D01*
X1292235D01*
Y54710D01*
X1289695D01*
Y57250D01*
X1284615D01*
Y54710D01*
X1282075D01*
Y49630D01*
X1284615D01*
X1264615Y9630D02*
Y7090D01*
X1269695D01*
Y9630D01*
X1272235D01*
Y14710D01*
X1269695D01*
Y17250D01*
X1264615D01*
Y14710D01*
X1262075D01*
Y9630D01*
X1264615D01*
X1244615Y1169630D02*
Y1167090D01*
X1249695D01*
Y1169630D01*
X1252235D01*
Y1174710D01*
X1249695D01*
Y1177250D01*
X1244615D01*
Y1174710D01*
X1242075D01*
Y1169630D01*
X1244615D01*
X1224615Y1129630D02*
Y1127090D01*
X1229695D01*
Y1129630D01*
X1232235D01*
Y1134710D01*
X1229695D01*
Y1137250D01*
X1224615D01*
Y1134710D01*
X1222075D01*
Y1129630D01*
X1224615D01*
Y1049630D02*
Y1047090D01*
X1229695D01*
Y1049630D01*
X1232235D01*
Y1054710D01*
X1229695D01*
Y1057250D01*
X1224615D01*
Y1054710D01*
X1222075D01*
Y1049630D01*
X1224615D01*
X1244615Y209630D02*
Y207090D01*
X1249695D01*
Y209630D01*
X1252235D01*
Y214710D01*
X1249695D01*
Y217250D01*
X1244615D01*
Y214710D01*
X1242075D01*
Y209630D01*
X1244615D01*
X1224615Y169630D02*
Y167090D01*
X1229695D01*
Y169630D01*
X1232235D01*
Y174710D01*
X1229695D01*
Y177250D01*
X1224615D01*
Y174710D01*
X1222075D01*
Y169630D01*
X1224615D01*
X1244615Y129630D02*
Y127090D01*
X1249695D01*
Y129630D01*
X1252235D01*
Y134710D01*
X1249695D01*
Y137250D01*
X1244615D01*
Y134710D01*
X1242075D01*
Y129630D01*
X1244615D01*
X1224615Y89630D02*
Y87090D01*
X1229695D01*
Y89630D01*
X1232235D01*
Y94710D01*
X1229695D01*
Y97250D01*
X1224615D01*
Y94710D01*
X1222075D01*
Y89630D01*
X1224615D01*
X1244615Y49630D02*
Y47090D01*
X1249695D01*
Y49630D01*
X1252235D01*
Y54710D01*
X1249695D01*
Y57250D01*
X1244615D01*
Y54710D01*
X1242075D01*
Y49630D01*
X1244615D01*
X1224615Y9630D02*
Y7090D01*
X1229695D01*
Y9630D01*
X1232235D01*
Y14710D01*
X1229695D01*
Y17250D01*
X1224615D01*
Y14710D01*
X1222075D01*
Y9630D01*
X1224615D01*
X1204615Y1169630D02*
Y1167090D01*
X1209695D01*
Y1169630D01*
X1212235D01*
Y1174710D01*
X1209695D01*
Y1177250D01*
X1204615D01*
Y1174710D01*
X1202075D01*
Y1169630D01*
X1204615D01*
X1184615Y1129630D02*
Y1127090D01*
X1189695D01*
Y1129630D01*
X1192235D01*
Y1134710D01*
X1189695D01*
Y1137250D01*
X1184615D01*
Y1134710D01*
X1182075D01*
Y1129630D01*
X1184615D01*
X1204615Y1089630D02*
Y1087090D01*
X1209695D01*
Y1089630D01*
X1212235D01*
Y1094710D01*
X1209695D01*
Y1097250D01*
X1204615D01*
Y1094710D01*
X1202075D01*
Y1089630D01*
X1204615D01*
X1184615Y1049630D02*
Y1047090D01*
X1189695D01*
Y1049630D01*
X1192235D01*
Y1054710D01*
X1189695D01*
Y1057250D01*
X1184615D01*
Y1054710D01*
X1182075D01*
Y1049630D01*
X1184615D01*
X1204615Y1009630D02*
Y1007090D01*
X1209695D01*
Y1009630D01*
X1212235D01*
Y1014710D01*
X1209695D01*
Y1017250D01*
X1204615D01*
Y1014710D01*
X1202075D01*
Y1009630D01*
X1204615D01*
Y449630D02*
Y447090D01*
X1209695D01*
Y449630D01*
X1212235D01*
Y454710D01*
X1209695D01*
Y457250D01*
X1204615D01*
Y454710D01*
X1202075D01*
Y449630D01*
X1204615D01*
Y209630D02*
Y207090D01*
X1209695D01*
Y209630D01*
X1212235D01*
Y214710D01*
X1209695D01*
Y217250D01*
X1204615D01*
Y214710D01*
X1202075D01*
Y209630D01*
X1204615D01*
X1184615Y169630D02*
Y167090D01*
X1189695D01*
Y169630D01*
X1192235D01*
Y174710D01*
X1189695D01*
Y177250D01*
X1184615D01*
Y174710D01*
X1182075D01*
Y169630D01*
X1184615D01*
X1204615Y129630D02*
Y127090D01*
X1209695D01*
Y129630D01*
X1212235D01*
Y134710D01*
X1209695D01*
Y137250D01*
X1204615D01*
Y134710D01*
X1202075D01*
Y129630D01*
X1204615D01*
Y49630D02*
Y47090D01*
X1209695D01*
Y49630D01*
X1212235D01*
Y54710D01*
X1209695D01*
Y57250D01*
X1204615D01*
Y54710D01*
X1202075D01*
Y49630D01*
X1204615D01*
X1184615Y9630D02*
Y7090D01*
X1189695D01*
Y9630D01*
X1192235D01*
Y14710D01*
X1189695D01*
Y17250D01*
X1184615D01*
Y14710D01*
X1182075D01*
Y9630D01*
X1184615D01*
X1164615Y1169630D02*
Y1167090D01*
X1169695D01*
Y1169630D01*
X1172235D01*
Y1174710D01*
X1169695D01*
Y1177250D01*
X1164615D01*
Y1174710D01*
X1162075D01*
Y1169630D01*
X1164615D01*
X1144615Y1129630D02*
Y1127090D01*
X1149695D01*
Y1129630D01*
X1152235D01*
Y1134710D01*
X1149695D01*
Y1137250D01*
X1144615D01*
Y1134710D01*
X1142075D01*
Y1129630D01*
X1144615D01*
X1164615Y1089630D02*
Y1087090D01*
X1169695D01*
Y1089630D01*
X1172235D01*
Y1094710D01*
X1169695D01*
Y1097250D01*
X1164615D01*
Y1094710D01*
X1162075D01*
Y1089630D01*
X1164615D01*
X1144615Y1049630D02*
Y1047090D01*
X1149695D01*
Y1049630D01*
X1152235D01*
Y1054710D01*
X1149695D01*
Y1057250D01*
X1144615D01*
Y1054710D01*
X1142075D01*
Y1049630D01*
X1144615D01*
X1164615Y1009630D02*
Y1007090D01*
X1169695D01*
Y1009630D01*
X1172235D01*
Y1014710D01*
X1169695D01*
Y1017250D01*
X1164615D01*
Y1014710D01*
X1162075D01*
Y1009630D01*
X1164615D01*
Y209630D02*
Y207090D01*
X1169695D01*
Y209630D01*
X1172235D01*
Y214710D01*
X1169695D01*
Y217250D01*
X1164615D01*
Y214710D01*
X1162075D01*
Y209630D01*
X1164615D01*
X1144615Y169630D02*
Y167090D01*
X1149695D01*
Y169630D01*
X1152235D01*
Y174710D01*
X1149695D01*
Y177250D01*
X1144615D01*
Y174710D01*
X1142075D01*
Y169630D01*
X1144615D01*
X1164615Y129630D02*
Y127090D01*
X1169695D01*
Y129630D01*
X1172235D01*
Y134710D01*
X1169695D01*
Y137250D01*
X1164615D01*
Y134710D01*
X1162075D01*
Y129630D01*
X1164615D01*
Y49630D02*
Y47090D01*
X1169695D01*
Y49630D01*
X1172235D01*
Y54710D01*
X1169695D01*
Y57250D01*
X1164615D01*
Y54710D01*
X1162075D01*
Y49630D01*
X1164615D01*
X1144615Y9630D02*
Y7090D01*
X1149695D01*
Y9630D01*
X1152235D01*
Y14710D01*
X1149695D01*
Y17250D01*
X1144615D01*
Y14710D01*
X1142075D01*
Y9630D01*
X1144615D01*
X1104615Y1129630D02*
Y1127090D01*
X1109695D01*
Y1129630D01*
X1112235D01*
Y1134710D01*
X1109695D01*
Y1137250D01*
X1104615D01*
Y1134710D01*
X1102075D01*
Y1129630D01*
X1104615D01*
X1124615Y1089630D02*
Y1087090D01*
X1129695D01*
Y1089630D01*
X1132235D01*
Y1094710D01*
X1129695D01*
Y1097250D01*
X1124615D01*
Y1094710D01*
X1122075D01*
Y1089630D01*
X1124615D01*
X1104615Y1049630D02*
Y1047090D01*
X1109695D01*
Y1049630D01*
X1112235D01*
Y1054710D01*
X1109695D01*
Y1057250D01*
X1104615D01*
Y1054710D01*
X1102075D01*
Y1049630D01*
X1104615D01*
X1124615Y209630D02*
Y207090D01*
X1129695D01*
Y209630D01*
X1132235D01*
Y214710D01*
X1129695D01*
Y217250D01*
X1124615D01*
Y214710D01*
X1122075D01*
Y209630D01*
X1124615D01*
X1104615Y169630D02*
Y167090D01*
X1109695D01*
Y169630D01*
X1112235D01*
Y174710D01*
X1109695D01*
Y177250D01*
X1104615D01*
Y174710D01*
X1102075D01*
Y169630D01*
X1104615D01*
X1124615Y129630D02*
Y127090D01*
X1129695D01*
Y129630D01*
X1132235D01*
Y134710D01*
X1129695D01*
Y137250D01*
X1124615D01*
Y134710D01*
X1122075D01*
Y129630D01*
X1124615D01*
Y49630D02*
Y47090D01*
X1129695D01*
Y49630D01*
X1132235D01*
Y54710D01*
X1129695D01*
Y57250D01*
X1124615D01*
Y54710D01*
X1122075D01*
Y49630D01*
X1124615D01*
X1104615Y9630D02*
Y7090D01*
X1109695D01*
Y9630D01*
X1112235D01*
Y14710D01*
X1109695D01*
Y17250D01*
X1104615D01*
Y14710D01*
X1102075D01*
Y9630D01*
X1104615D01*
X1064615Y1129630D02*
Y1127090D01*
X1069695D01*
Y1129630D01*
X1072235D01*
Y1134710D01*
X1069695D01*
Y1137250D01*
X1064615D01*
Y1134710D01*
X1062075D01*
Y1129630D01*
X1064615D01*
Y969630D02*
Y967090D01*
X1069695D01*
Y969630D01*
X1072235D01*
Y974710D01*
X1069695D01*
Y977250D01*
X1064615D01*
Y974710D01*
X1062075D01*
Y969630D01*
X1064615D01*
Y409630D02*
Y407090D01*
X1069695D01*
Y409630D01*
X1072235D01*
Y414710D01*
X1069695D01*
Y417250D01*
X1064615D01*
Y414710D01*
X1062075D01*
Y409630D01*
X1064615D01*
X1084615Y209630D02*
Y207090D01*
X1089695D01*
Y209630D01*
X1092235D01*
Y214710D01*
X1089695D01*
Y217250D01*
X1084615D01*
Y214710D01*
X1082075D01*
Y209630D01*
X1084615D01*
X1064615Y169630D02*
Y167090D01*
X1069695D01*
Y169630D01*
X1072235D01*
Y174710D01*
X1069695D01*
Y177250D01*
X1064615D01*
Y174710D01*
X1062075D01*
Y169630D01*
X1064615D01*
X1084615Y129630D02*
Y127090D01*
X1089695D01*
Y129630D01*
X1092235D01*
Y134710D01*
X1089695D01*
Y137250D01*
X1084615D01*
Y134710D01*
X1082075D01*
Y129630D01*
X1084615D01*
Y49630D02*
Y47090D01*
X1089695D01*
Y49630D01*
X1092235D01*
Y54710D01*
X1089695D01*
Y57250D01*
X1084615D01*
Y54710D01*
X1082075D01*
Y49630D01*
X1084615D01*
X1064615Y9630D02*
Y7090D01*
X1069695D01*
Y9630D01*
X1072235D01*
Y14710D01*
X1069695D01*
Y17250D01*
X1064615D01*
Y14710D01*
X1062075D01*
Y9630D01*
X1064615D01*
X1044615Y1169630D02*
Y1167090D01*
X1049695D01*
Y1169630D01*
X1052235D01*
Y1174710D01*
X1049695D01*
Y1177250D01*
X1044615D01*
Y1174710D01*
X1042075D01*
Y1169630D01*
X1044615D01*
X1024615Y1129630D02*
Y1127090D01*
X1029695D01*
Y1129630D01*
X1032235D01*
Y1134710D01*
X1029695D01*
Y1137250D01*
X1024615D01*
Y1134710D01*
X1022075D01*
Y1129630D01*
X1024615D01*
X1044615Y1089630D02*
Y1087090D01*
X1049695D01*
Y1089630D01*
X1052235D01*
Y1094710D01*
X1049695D01*
Y1097250D01*
X1044615D01*
Y1094710D01*
X1042075D01*
Y1089630D01*
X1044615D01*
X1024615Y569630D02*
Y567090D01*
X1029695D01*
Y569630D01*
X1032235D01*
Y574710D01*
X1029695D01*
Y577250D01*
X1024615D01*
Y574710D01*
X1022075D01*
Y569630D01*
X1024615D01*
Y489630D02*
Y487090D01*
X1029695D01*
Y489630D01*
X1032235D01*
Y494710D01*
X1029695D01*
Y497250D01*
X1024615D01*
Y494710D01*
X1022075D01*
Y489630D01*
X1024615D01*
X1044615Y449630D02*
Y447090D01*
X1049695D01*
Y449630D01*
X1052235D01*
Y454710D01*
X1049695D01*
Y457250D01*
X1044615D01*
Y454710D01*
X1042075D01*
Y449630D01*
X1044615D01*
X1024615Y409630D02*
Y407090D01*
X1029695D01*
Y409630D01*
X1032235D01*
Y414710D01*
X1029695D01*
Y417250D01*
X1024615D01*
Y414710D01*
X1022075D01*
Y409630D01*
X1024615D01*
X1044615Y209630D02*
Y207090D01*
X1049695D01*
Y209630D01*
X1052235D01*
Y214710D01*
X1049695D01*
Y217250D01*
X1044615D01*
Y214710D01*
X1042075D01*
Y209630D01*
X1044615D01*
X1024615Y169630D02*
Y167090D01*
X1029695D01*
Y169630D01*
X1032235D01*
Y174710D01*
X1029695D01*
Y177250D01*
X1024615D01*
Y174710D01*
X1022075D01*
Y169630D01*
X1024615D01*
X1044615Y129630D02*
Y127090D01*
X1049695D01*
Y129630D01*
X1052235D01*
Y134710D01*
X1049695D01*
Y137250D01*
X1044615D01*
Y134710D01*
X1042075D01*
Y129630D01*
X1044615D01*
Y49630D02*
Y47090D01*
X1049695D01*
Y49630D01*
X1052235D01*
Y54710D01*
X1049695D01*
Y57250D01*
X1044615D01*
Y54710D01*
X1042075D01*
Y49630D01*
X1044615D01*
X1024615Y9630D02*
Y7090D01*
X1029695D01*
Y9630D01*
X1032235D01*
Y14710D01*
X1029695D01*
Y17250D01*
X1024615D01*
Y14710D01*
X1022075D01*
Y9630D01*
X1024615D01*
X1004615Y1169630D02*
Y1167090D01*
X1009695D01*
Y1169630D01*
X1012235D01*
Y1174710D01*
X1009695D01*
Y1177250D01*
X1004615D01*
Y1174710D01*
X1002075D01*
Y1169630D01*
X1004615D01*
X984615Y1129630D02*
Y1127090D01*
X989695D01*
Y1129630D01*
X992235D01*
Y1134710D01*
X989695D01*
Y1137250D01*
X984615D01*
Y1134710D01*
X982075D01*
Y1129630D01*
X984615D01*
X1004615Y1089630D02*
Y1087090D01*
X1009695D01*
Y1089630D01*
X1012235D01*
Y1094710D01*
X1009695D01*
Y1097250D01*
X1004615D01*
Y1094710D01*
X1002075D01*
Y1089630D01*
X1004615D01*
Y209630D02*
Y207090D01*
X1009695D01*
Y209630D01*
X1012235D01*
Y214710D01*
X1009695D01*
Y217250D01*
X1004615D01*
Y214710D01*
X1002075D01*
Y209630D01*
X1004615D01*
X984615Y169630D02*
Y167090D01*
X989695D01*
Y169630D01*
X992235D01*
Y174710D01*
X989695D01*
Y177250D01*
X984615D01*
Y174710D01*
X982075D01*
Y169630D01*
X984615D01*
X1004615Y129630D02*
Y127090D01*
X1009695D01*
Y129630D01*
X1012235D01*
Y134710D01*
X1009695D01*
Y137250D01*
X1004615D01*
Y134710D01*
X1002075D01*
Y129630D01*
X1004615D01*
Y49630D02*
Y47090D01*
X1009695D01*
Y49630D01*
X1012235D01*
Y54710D01*
X1009695D01*
Y57250D01*
X1004615D01*
Y54710D01*
X1002075D01*
Y49630D01*
X1004615D01*
X984615Y9630D02*
Y7090D01*
X989695D01*
Y9630D01*
X992235D01*
Y14710D01*
X989695D01*
Y17250D01*
X984615D01*
Y14710D01*
X982075D01*
Y9630D01*
X984615D01*
X964615Y1169630D02*
Y1167090D01*
X969695D01*
Y1169630D01*
X972235D01*
Y1174710D01*
X969695D01*
Y1177250D01*
X964615D01*
Y1174710D01*
X962075D01*
Y1169630D01*
X964615D01*
X944615Y1129630D02*
Y1127090D01*
X949695D01*
Y1129630D01*
X952235D01*
Y1134710D01*
X949695D01*
Y1137250D01*
X944615D01*
Y1134710D01*
X942075D01*
Y1129630D01*
X944615D01*
X964615Y1089630D02*
Y1087090D01*
X969695D01*
Y1089630D01*
X972235D01*
Y1094710D01*
X969695D01*
Y1097250D01*
X964615D01*
Y1094710D01*
X962075D01*
Y1089630D01*
X964615D01*
Y1009630D02*
Y1007090D01*
X969695D01*
Y1009630D01*
X972235D01*
Y1014710D01*
X969695D01*
Y1017250D01*
X964615D01*
Y1014710D01*
X962075D01*
Y1009630D01*
X964615D01*
Y209630D02*
Y207090D01*
X969695D01*
Y209630D01*
X972235D01*
Y214710D01*
X969695D01*
Y217250D01*
X964615D01*
Y214710D01*
X962075D01*
Y209630D01*
X964615D01*
X944615Y169630D02*
Y167090D01*
X949695D01*
Y169630D01*
X952235D01*
Y174710D01*
X949695D01*
Y177250D01*
X944615D01*
Y174710D01*
X942075D01*
Y169630D01*
X944615D01*
X964615Y129630D02*
Y127090D01*
X969695D01*
Y129630D01*
X972235D01*
Y134710D01*
X969695D01*
Y137250D01*
X964615D01*
Y134710D01*
X962075D01*
Y129630D01*
X964615D01*
Y49630D02*
Y47090D01*
X969695D01*
Y49630D01*
X972235D01*
Y54710D01*
X969695D01*
Y57250D01*
X964615D01*
Y54710D01*
X962075D01*
Y49630D01*
X964615D01*
X944615Y9630D02*
Y7090D01*
X949695D01*
Y9630D01*
X952235D01*
Y14710D01*
X949695D01*
Y17250D01*
X944615D01*
Y14710D01*
X942075D01*
Y9630D01*
X944615D01*
X924615Y1169630D02*
Y1167090D01*
X929695D01*
Y1169630D01*
X932235D01*
Y1174710D01*
X929695D01*
Y1177250D01*
X924615D01*
Y1174710D01*
X922075D01*
Y1169630D01*
X924615D01*
X904615Y1129630D02*
Y1127090D01*
X909695D01*
Y1129630D01*
X912235D01*
Y1134710D01*
X909695D01*
Y1137250D01*
X904615D01*
Y1134710D01*
X902075D01*
Y1129630D01*
X904615D01*
X924615Y1089630D02*
Y1087090D01*
X929695D01*
Y1089630D01*
X932235D01*
Y1094710D01*
X929695D01*
Y1097250D01*
X924615D01*
Y1094710D01*
X922075D01*
Y1089630D01*
X924615D01*
Y1009630D02*
Y1007090D01*
X929695D01*
Y1009630D01*
X932235D01*
Y1014710D01*
X929695D01*
Y1017250D01*
X924615D01*
Y1014710D01*
X922075D01*
Y1009630D01*
X924615D01*
Y209630D02*
Y207090D01*
X929695D01*
Y209630D01*
X932235D01*
Y214710D01*
X929695D01*
Y217250D01*
X924615D01*
Y214710D01*
X922075D01*
Y209630D01*
X924615D01*
X904615Y169630D02*
Y167090D01*
X909695D01*
Y169630D01*
X912235D01*
Y174710D01*
X909695D01*
Y177250D01*
X904615D01*
Y174710D01*
X902075D01*
Y169630D01*
X904615D01*
X924615Y129630D02*
Y127090D01*
X929695D01*
Y129630D01*
X932235D01*
Y134710D01*
X929695D01*
Y137250D01*
X924615D01*
Y134710D01*
X922075D01*
Y129630D01*
X924615D01*
Y49630D02*
Y47090D01*
X929695D01*
Y49630D01*
X932235D01*
Y54710D01*
X929695D01*
Y57250D01*
X924615D01*
Y54710D01*
X922075D01*
Y49630D01*
X924615D01*
X904615Y9630D02*
Y7090D01*
X909695D01*
Y9630D01*
X912235D01*
Y14710D01*
X909695D01*
Y17250D01*
X904615D01*
Y14710D01*
X902075D01*
Y9630D01*
X904615D01*
X884615Y1169630D02*
Y1167090D01*
X889695D01*
Y1169630D01*
X892235D01*
Y1174710D01*
X889695D01*
Y1177250D01*
X884615D01*
Y1174710D01*
X882075D01*
Y1169630D01*
X884615D01*
X864615Y1129630D02*
Y1127090D01*
X869695D01*
Y1129630D01*
X872235D01*
Y1134710D01*
X869695D01*
Y1137250D01*
X864615D01*
Y1134710D01*
X862075D01*
Y1129630D01*
X864615D01*
X884615Y1089630D02*
Y1087090D01*
X889695D01*
Y1089630D01*
X892235D01*
Y1094710D01*
X889695D01*
Y1097250D01*
X884615D01*
Y1094710D01*
X882075D01*
Y1089630D01*
X884615D01*
Y1009630D02*
Y1007090D01*
X889695D01*
Y1009630D01*
X892235D01*
Y1014710D01*
X889695D01*
Y1017250D01*
X884615D01*
Y1014710D01*
X882075D01*
Y1009630D01*
X884615D01*
X864615Y649630D02*
Y647090D01*
X869695D01*
Y649630D01*
X872235D01*
Y654710D01*
X869695D01*
Y657250D01*
X864615D01*
Y654710D01*
X862075D01*
Y649630D01*
X864615D01*
Y489630D02*
Y487090D01*
X869695D01*
Y489630D01*
X872235D01*
Y494710D01*
X869695D01*
Y497250D01*
X864615D01*
Y494710D01*
X862075D01*
Y489630D01*
X864615D01*
X884615Y449630D02*
Y447090D01*
X889695D01*
Y449630D01*
X892235D01*
Y454710D01*
X889695D01*
Y457250D01*
X884615D01*
Y454710D01*
X882075D01*
Y449630D01*
X884615D01*
X864615Y409630D02*
Y407090D01*
X869695D01*
Y409630D01*
X872235D01*
Y414710D01*
X869695D01*
Y417250D01*
X864615D01*
Y414710D01*
X862075D01*
Y409630D01*
X864615D01*
X884615Y369630D02*
Y367090D01*
X889695D01*
Y369630D01*
X892235D01*
Y374710D01*
X889695D01*
Y377250D01*
X884615D01*
Y374710D01*
X882075D01*
Y369630D01*
X884615D01*
X864615Y329630D02*
Y327090D01*
X869695D01*
Y329630D01*
X872235D01*
Y334710D01*
X869695D01*
Y337250D01*
X864615D01*
Y334710D01*
X862075D01*
Y329630D01*
X864615D01*
X884615Y209630D02*
Y207090D01*
X889695D01*
Y209630D01*
X892235D01*
Y214710D01*
X889695D01*
Y217250D01*
X884615D01*
Y214710D01*
X882075D01*
Y209630D01*
X884615D01*
X864615Y169630D02*
Y167090D01*
X869695D01*
Y169630D01*
X872235D01*
Y174710D01*
X869695D01*
Y177250D01*
X864615D01*
Y174710D01*
X862075D01*
Y169630D01*
X864615D01*
X884615Y129630D02*
Y127090D01*
X889695D01*
Y129630D01*
X892235D01*
Y134710D01*
X889695D01*
Y137250D01*
X884615D01*
Y134710D01*
X882075D01*
Y129630D01*
X884615D01*
Y49630D02*
Y47090D01*
X889695D01*
Y49630D01*
X892235D01*
Y54710D01*
X889695D01*
Y57250D01*
X884615D01*
Y54710D01*
X882075D01*
Y49630D01*
X884615D01*
X864615Y9630D02*
Y7090D01*
X869695D01*
Y9630D01*
X872235D01*
Y14710D01*
X869695D01*
Y17250D01*
X864615D01*
Y14710D01*
X862075D01*
Y9630D01*
X864615D01*
X844615Y1169630D02*
Y1167090D01*
X849695D01*
Y1169630D01*
X852235D01*
Y1174710D01*
X849695D01*
Y1177250D01*
X844615D01*
Y1174710D01*
X842075D01*
Y1169630D01*
X844615D01*
X824615Y1129630D02*
Y1127090D01*
X829695D01*
Y1129630D01*
X832235D01*
Y1134710D01*
X829695D01*
Y1137250D01*
X824615D01*
Y1134710D01*
X822075D01*
Y1129630D01*
X824615D01*
X844615Y1089630D02*
Y1087090D01*
X849695D01*
Y1089630D01*
X852235D01*
Y1094710D01*
X849695D01*
Y1097250D01*
X844615D01*
Y1094710D01*
X842075D01*
Y1089630D01*
X844615D01*
Y1009630D02*
Y1007090D01*
X849695D01*
Y1009630D01*
X852235D01*
Y1014710D01*
X849695D01*
Y1017250D01*
X844615D01*
Y1014710D01*
X842075D01*
Y1009630D01*
X844615D01*
X824615Y649630D02*
Y647090D01*
X829695D01*
Y649630D01*
X832235D01*
Y654710D01*
X829695D01*
Y657250D01*
X824615D01*
Y654710D01*
X822075D01*
Y649630D01*
X824615D01*
Y489630D02*
Y487090D01*
X829695D01*
Y489630D01*
X832235D01*
Y494710D01*
X829695D01*
Y497250D01*
X824615D01*
Y494710D01*
X822075D01*
Y489630D01*
X824615D01*
X844615Y449630D02*
Y447090D01*
X849695D01*
Y449630D01*
X852235D01*
Y454710D01*
X849695D01*
Y457250D01*
X844615D01*
Y454710D01*
X842075D01*
Y449630D01*
X844615D01*
X824615Y409630D02*
Y407090D01*
X829695D01*
Y409630D01*
X832235D01*
Y414710D01*
X829695D01*
Y417250D01*
X824615D01*
Y414710D01*
X822075D01*
Y409630D01*
X824615D01*
X844615Y369630D02*
Y367090D01*
X849695D01*
Y369630D01*
X852235D01*
Y374710D01*
X849695D01*
Y377250D01*
X844615D01*
Y374710D01*
X842075D01*
Y369630D01*
X844615D01*
X824615Y329630D02*
Y327090D01*
X829695D01*
Y329630D01*
X832235D01*
Y334710D01*
X829695D01*
Y337250D01*
X824615D01*
Y334710D01*
X822075D01*
Y329630D01*
X824615D01*
X844615Y209630D02*
Y207090D01*
X849695D01*
Y209630D01*
X852235D01*
Y214710D01*
X849695D01*
Y217250D01*
X844615D01*
Y214710D01*
X842075D01*
Y209630D01*
X844615D01*
X824615Y169630D02*
Y167090D01*
X829695D01*
Y169630D01*
X832235D01*
Y174710D01*
X829695D01*
Y177250D01*
X824615D01*
Y174710D01*
X822075D01*
Y169630D01*
X824615D01*
X844615Y129630D02*
Y127090D01*
X849695D01*
Y129630D01*
X852235D01*
Y134710D01*
X849695D01*
Y137250D01*
X844615D01*
Y134710D01*
X842075D01*
Y129630D01*
X844615D01*
Y49630D02*
Y47090D01*
X849695D01*
Y49630D01*
X852235D01*
Y54710D01*
X849695D01*
Y57250D01*
X844615D01*
Y54710D01*
X842075D01*
Y49630D01*
X844615D01*
X824615Y9630D02*
Y7090D01*
X829695D01*
Y9630D01*
X832235D01*
Y14710D01*
X829695D01*
Y17250D01*
X824615D01*
Y14710D01*
X822075D01*
Y9630D01*
X824615D01*
X804615Y1169630D02*
Y1167090D01*
X809695D01*
Y1169630D01*
X812235D01*
Y1174710D01*
X809695D01*
Y1177250D01*
X804615D01*
Y1174710D01*
X802075D01*
Y1169630D01*
X804615D01*
X784615Y1129630D02*
Y1127090D01*
X789695D01*
Y1129630D01*
X792235D01*
Y1134710D01*
X789695D01*
Y1137250D01*
X784615D01*
Y1134710D01*
X782075D01*
Y1129630D01*
X784615D01*
X804615Y1089630D02*
Y1087090D01*
X809695D01*
Y1089630D01*
X812235D01*
Y1094710D01*
X809695D01*
Y1097250D01*
X804615D01*
Y1094710D01*
X802075D01*
Y1089630D01*
X804615D01*
Y1009630D02*
Y1007090D01*
X809695D01*
Y1009630D01*
X812235D01*
Y1014710D01*
X809695D01*
Y1017250D01*
X804615D01*
Y1014710D01*
X802075D01*
Y1009630D01*
X804615D01*
X784615Y649630D02*
Y647090D01*
X789695D01*
Y649630D01*
X792235D01*
Y654710D01*
X789695D01*
Y657250D01*
X784615D01*
Y654710D01*
X782075D01*
Y649630D01*
X784615D01*
X804615Y449630D02*
Y447090D01*
X809695D01*
Y449630D01*
X812235D01*
Y454710D01*
X809695D01*
Y457250D01*
X804615D01*
Y454710D01*
X802075D01*
Y449630D01*
X804615D01*
Y369630D02*
Y367090D01*
X809695D01*
Y369630D01*
X812235D01*
Y374710D01*
X809695D01*
Y377250D01*
X804615D01*
Y374710D01*
X802075D01*
Y369630D01*
X804615D01*
Y209630D02*
Y207090D01*
X809695D01*
Y209630D01*
X812235D01*
Y214710D01*
X809695D01*
Y217250D01*
X804615D01*
Y214710D01*
X802075D01*
Y209630D01*
X804615D01*
X784615Y169630D02*
Y167090D01*
X789695D01*
Y169630D01*
X792235D01*
Y174710D01*
X789695D01*
Y177250D01*
X784615D01*
Y174710D01*
X782075D01*
Y169630D01*
X784615D01*
X804615Y129630D02*
Y127090D01*
X809695D01*
Y129630D01*
X812235D01*
Y134710D01*
X809695D01*
Y137250D01*
X804615D01*
Y134710D01*
X802075D01*
Y129630D01*
X804615D01*
Y49630D02*
Y47090D01*
X809695D01*
Y49630D01*
X812235D01*
Y54710D01*
X809695D01*
Y57250D01*
X804615D01*
Y54710D01*
X802075D01*
Y49630D01*
X804615D01*
X784615Y9630D02*
Y7090D01*
X789695D01*
Y9630D01*
X792235D01*
Y14710D01*
X789695D01*
Y17250D01*
X784615D01*
Y14710D01*
X782075D01*
Y9630D01*
X784615D01*
X744615Y1129630D02*
Y1127090D01*
X749695D01*
Y1129630D01*
X752235D01*
Y1134710D01*
X749695D01*
Y1137250D01*
X744615D01*
Y1134710D01*
X742075D01*
Y1129630D01*
X744615D01*
X764615Y1089630D02*
Y1087090D01*
X769695D01*
Y1089630D01*
X772235D01*
Y1094710D01*
X769695D01*
Y1097250D01*
X764615D01*
Y1094710D01*
X762075D01*
Y1089630D01*
X764615D01*
Y1009630D02*
Y1007090D01*
X769695D01*
Y1009630D01*
X772235D01*
Y1014710D01*
X769695D01*
Y1017250D01*
X764615D01*
Y1014710D01*
X762075D01*
Y1009630D01*
X764615D01*
X744615Y649630D02*
Y647090D01*
X749695D01*
Y649630D01*
X752235D01*
Y654710D01*
X749695D01*
Y657250D01*
X744615D01*
Y654710D01*
X742075D01*
Y649630D01*
X744615D01*
X764615Y209630D02*
Y207090D01*
X769695D01*
Y209630D01*
X772235D01*
Y214710D01*
X769695D01*
Y217250D01*
X764615D01*
Y214710D01*
X762075D01*
Y209630D01*
X764615D01*
X744615Y169630D02*
Y167090D01*
X749695D01*
Y169630D01*
X752235D01*
Y174710D01*
X749695D01*
Y177250D01*
X744615D01*
Y174710D01*
X742075D01*
Y169630D01*
X744615D01*
X764615Y129630D02*
Y127090D01*
X769695D01*
Y129630D01*
X772235D01*
Y134710D01*
X769695D01*
Y137250D01*
X764615D01*
Y134710D01*
X762075D01*
Y129630D01*
X764615D01*
Y49630D02*
Y47090D01*
X769695D01*
Y49630D01*
X772235D01*
Y54710D01*
X769695D01*
Y57250D01*
X764615D01*
Y54710D01*
X762075D01*
Y49630D01*
X764615D01*
X744615Y9630D02*
Y7090D01*
X749695D01*
Y9630D01*
X752235D01*
Y14710D01*
X749695D01*
Y17250D01*
X744615D01*
Y14710D01*
X742075D01*
Y9630D01*
X744615D01*
X704615Y1129630D02*
Y1127090D01*
X709695D01*
Y1129630D01*
X712235D01*
Y1134710D01*
X709695D01*
Y1137250D01*
X704615D01*
Y1134710D01*
X702075D01*
Y1129630D01*
X704615D01*
X724615Y1009630D02*
Y1007090D01*
X729695D01*
Y1009630D01*
X732235D01*
Y1014710D01*
X729695D01*
Y1017250D01*
X724615D01*
Y1014710D01*
X722075D01*
Y1009630D01*
X724615D01*
Y929630D02*
Y927090D01*
X729695D01*
Y929630D01*
X732235D01*
Y934710D01*
X729695D01*
Y937250D01*
X724615D01*
Y934710D01*
X722075D01*
Y929630D01*
X724615D01*
X704615Y649630D02*
Y647090D01*
X709695D01*
Y649630D01*
X712235D01*
Y654710D01*
X709695D01*
Y657250D01*
X704615D01*
Y654710D01*
X702075D01*
Y649630D01*
X704615D01*
X724615Y449630D02*
Y447090D01*
X729695D01*
Y449630D01*
X732235D01*
Y454710D01*
X729695D01*
Y457250D01*
X724615D01*
Y454710D01*
X722075D01*
Y449630D01*
X724615D01*
X704615Y409630D02*
Y407090D01*
X709695D01*
Y409630D01*
X712235D01*
Y414710D01*
X709695D01*
Y417250D01*
X704615D01*
Y414710D01*
X702075D01*
Y409630D01*
X704615D01*
X724615Y369630D02*
Y367090D01*
X729695D01*
Y369630D01*
X732235D01*
Y374710D01*
X729695D01*
Y377250D01*
X724615D01*
Y374710D01*
X722075D01*
Y369630D01*
X724615D01*
X704615Y329630D02*
Y327090D01*
X709695D01*
Y329630D01*
X712235D01*
Y334710D01*
X709695D01*
Y337250D01*
X704615D01*
Y334710D01*
X702075D01*
Y329630D01*
X704615D01*
X724615Y209630D02*
Y207090D01*
X729695D01*
Y209630D01*
X732235D01*
Y214710D01*
X729695D01*
Y217250D01*
X724615D01*
Y214710D01*
X722075D01*
Y209630D01*
X724615D01*
X704615Y169630D02*
Y167090D01*
X709695D01*
Y169630D01*
X712235D01*
Y174710D01*
X709695D01*
Y177250D01*
X704615D01*
Y174710D01*
X702075D01*
Y169630D01*
X704615D01*
X724615Y129630D02*
Y127090D01*
X729695D01*
Y129630D01*
X732235D01*
Y134710D01*
X729695D01*
Y137250D01*
X724615D01*
Y134710D01*
X722075D01*
Y129630D01*
X724615D01*
Y49630D02*
Y47090D01*
X729695D01*
Y49630D01*
X732235D01*
Y54710D01*
X729695D01*
Y57250D01*
X724615D01*
Y54710D01*
X722075D01*
Y49630D01*
X724615D01*
X704615Y9630D02*
Y7090D01*
X709695D01*
Y9630D01*
X712235D01*
Y14710D01*
X709695D01*
Y17250D01*
X704615D01*
Y14710D01*
X702075D01*
Y9630D01*
X704615D01*
X664615Y1129630D02*
Y1127090D01*
X669695D01*
Y1129630D01*
X672235D01*
Y1134710D01*
X669695D01*
Y1137250D01*
X664615D01*
Y1134710D01*
X662075D01*
Y1129630D01*
X664615D01*
X684615Y1009630D02*
Y1007090D01*
X689695D01*
Y1009630D01*
X692235D01*
Y1014710D01*
X689695D01*
Y1017250D01*
X684615D01*
Y1014710D01*
X682075D01*
Y1009630D01*
X684615D01*
X664615Y649630D02*
Y647090D01*
X669695D01*
Y649630D01*
X672235D01*
Y654710D01*
X669695D01*
Y657250D01*
X664615D01*
Y654710D01*
X662075D01*
Y649630D01*
X664615D01*
Y489630D02*
Y487090D01*
X669695D01*
Y489630D01*
X672235D01*
Y494710D01*
X669695D01*
Y497250D01*
X664615D01*
Y494710D01*
X662075D01*
Y489630D01*
X664615D01*
Y409630D02*
Y407090D01*
X669695D01*
Y409630D01*
X672235D01*
Y414710D01*
X669695D01*
Y417250D01*
X664615D01*
Y414710D01*
X662075D01*
Y409630D01*
X664615D01*
X684615Y369630D02*
Y367090D01*
X689695D01*
Y369630D01*
X692235D01*
Y374710D01*
X689695D01*
Y377250D01*
X684615D01*
Y374710D01*
X682075D01*
Y369630D01*
X684615D01*
X664615Y329630D02*
Y327090D01*
X669695D01*
Y329630D01*
X672235D01*
Y334710D01*
X669695D01*
Y337250D01*
X664615D01*
Y334710D01*
X662075D01*
Y329630D01*
X664615D01*
X684615Y209630D02*
Y207090D01*
X689695D01*
Y209630D01*
X692235D01*
Y214710D01*
X689695D01*
Y217250D01*
X684615D01*
Y214710D01*
X682075D01*
Y209630D01*
X684615D01*
X664615Y169630D02*
Y167090D01*
X669695D01*
Y169630D01*
X672235D01*
Y174710D01*
X669695D01*
Y177250D01*
X664615D01*
Y174710D01*
X662075D01*
Y169630D01*
X664615D01*
X684615Y129630D02*
Y127090D01*
X689695D01*
Y129630D01*
X692235D01*
Y134710D01*
X689695D01*
Y137250D01*
X684615D01*
Y134710D01*
X682075D01*
Y129630D01*
X684615D01*
Y49630D02*
Y47090D01*
X689695D01*
Y49630D01*
X692235D01*
Y54710D01*
X689695D01*
Y57250D01*
X684615D01*
Y54710D01*
X682075D01*
Y49630D01*
X684615D01*
X664615Y9630D02*
Y7090D01*
X669695D01*
Y9630D01*
X672235D01*
Y14710D01*
X669695D01*
Y17250D01*
X664615D01*
Y14710D01*
X662075D01*
Y9630D01*
X664615D01*
X644615Y1169630D02*
Y1167090D01*
X649695D01*
Y1169630D01*
X652235D01*
Y1174710D01*
X649695D01*
Y1177250D01*
X644615D01*
Y1174710D01*
X642075D01*
Y1169630D01*
X644615D01*
X624615Y1129630D02*
Y1127090D01*
X629695D01*
Y1129630D01*
X632235D01*
Y1134710D01*
X629695D01*
Y1137250D01*
X624615D01*
Y1134710D01*
X622075D01*
Y1129630D01*
X624615D01*
X644615Y1089630D02*
Y1087090D01*
X649695D01*
Y1089630D01*
X652235D01*
Y1094710D01*
X649695D01*
Y1097250D01*
X644615D01*
Y1094710D01*
X642075D01*
Y1089630D01*
X644615D01*
Y1009630D02*
Y1007090D01*
X649695D01*
Y1009630D01*
X652235D01*
Y1014710D01*
X649695D01*
Y1017250D01*
X644615D01*
Y1014710D01*
X642075D01*
Y1009630D01*
X644615D01*
X624615Y649630D02*
Y647090D01*
X629695D01*
Y649630D01*
X632235D01*
Y654710D01*
X629695D01*
Y657250D01*
X624615D01*
Y654710D01*
X622075D01*
Y649630D01*
X624615D01*
Y409630D02*
Y407090D01*
X629695D01*
Y409630D01*
X632235D01*
Y414710D01*
X629695D01*
Y417250D01*
X624615D01*
Y414710D01*
X622075D01*
Y409630D01*
X624615D01*
X644615Y369630D02*
Y367090D01*
X649695D01*
Y369630D01*
X652235D01*
Y374710D01*
X649695D01*
Y377250D01*
X644615D01*
Y374710D01*
X642075D01*
Y369630D01*
X644615D01*
X624615Y329630D02*
Y327090D01*
X629695D01*
Y329630D01*
X632235D01*
Y334710D01*
X629695D01*
Y337250D01*
X624615D01*
Y334710D01*
X622075D01*
Y329630D01*
X624615D01*
X644615Y209630D02*
Y207090D01*
X649695D01*
Y209630D01*
X652235D01*
Y214710D01*
X649695D01*
Y217250D01*
X644615D01*
Y214710D01*
X642075D01*
Y209630D01*
X644615D01*
X624615Y169630D02*
Y167090D01*
X629695D01*
Y169630D01*
X632235D01*
Y174710D01*
X629695D01*
Y177250D01*
X624615D01*
Y174710D01*
X622075D01*
Y169630D01*
X624615D01*
X644615Y129630D02*
Y127090D01*
X649695D01*
Y129630D01*
X652235D01*
Y134710D01*
X649695D01*
Y137250D01*
X644615D01*
Y134710D01*
X642075D01*
Y129630D01*
X644615D01*
Y49630D02*
Y47090D01*
X649695D01*
Y49630D01*
X652235D01*
Y54710D01*
X649695D01*
Y57250D01*
X644615D01*
Y54710D01*
X642075D01*
Y49630D01*
X644615D01*
X624615Y9630D02*
Y7090D01*
X629695D01*
Y9630D01*
X632235D01*
Y14710D01*
X629695D01*
Y17250D01*
X624615D01*
Y14710D01*
X622075D01*
Y9630D01*
X624615D01*
X604615Y1169630D02*
Y1167090D01*
X609695D01*
Y1169630D01*
X612235D01*
Y1174710D01*
X609695D01*
Y1177250D01*
X604615D01*
Y1174710D01*
X602075D01*
Y1169630D01*
X604615D01*
X584615Y1129630D02*
Y1127090D01*
X589695D01*
Y1129630D01*
X592235D01*
Y1134710D01*
X589695D01*
Y1137250D01*
X584615D01*
Y1134710D01*
X582075D01*
Y1129630D01*
X584615D01*
X604615Y1009630D02*
Y1007090D01*
X609695D01*
Y1009630D01*
X612235D01*
Y1014710D01*
X609695D01*
Y1017250D01*
X604615D01*
Y1014710D01*
X602075D01*
Y1009630D01*
X604615D01*
X584615Y649630D02*
Y647090D01*
X589695D01*
Y649630D01*
X592235D01*
Y654710D01*
X589695D01*
Y657250D01*
X584615D01*
Y654710D01*
X582075D01*
Y649630D01*
X584615D01*
X604615Y449630D02*
Y447090D01*
X609695D01*
Y449630D01*
X612235D01*
Y454710D01*
X609695D01*
Y457250D01*
X604615D01*
Y454710D01*
X602075D01*
Y449630D01*
X604615D01*
X584615Y409630D02*
Y407090D01*
X589695D01*
Y409630D01*
X592235D01*
Y414710D01*
X589695D01*
Y417250D01*
X584615D01*
Y414710D01*
X582075D01*
Y409630D01*
X584615D01*
X604615Y369630D02*
Y367090D01*
X609695D01*
Y369630D01*
X612235D01*
Y374710D01*
X609695D01*
Y377250D01*
X604615D01*
Y374710D01*
X602075D01*
Y369630D01*
X604615D01*
X584615Y329630D02*
Y327090D01*
X589695D01*
Y329630D01*
X592235D01*
Y334710D01*
X589695D01*
Y337250D01*
X584615D01*
Y334710D01*
X582075D01*
Y329630D01*
X584615D01*
X604615Y209630D02*
Y207090D01*
X609695D01*
Y209630D01*
X612235D01*
Y214710D01*
X609695D01*
Y217250D01*
X604615D01*
Y214710D01*
X602075D01*
Y209630D01*
X604615D01*
X584615Y169630D02*
Y167090D01*
X589695D01*
Y169630D01*
X592235D01*
Y174710D01*
X589695D01*
Y177250D01*
X584615D01*
Y174710D01*
X582075D01*
Y169630D01*
X584615D01*
X604615Y129630D02*
Y127090D01*
X609695D01*
Y129630D01*
X612235D01*
Y134710D01*
X609695D01*
Y137250D01*
X604615D01*
Y134710D01*
X602075D01*
Y129630D01*
X604615D01*
Y49630D02*
Y47090D01*
X609695D01*
Y49630D01*
X612235D01*
Y54710D01*
X609695D01*
Y57250D01*
X604615D01*
Y54710D01*
X602075D01*
Y49630D01*
X604615D01*
X584615Y9630D02*
Y7090D01*
X589695D01*
Y9630D01*
X592235D01*
Y14710D01*
X589695D01*
Y17250D01*
X584615D01*
Y14710D01*
X582075D01*
Y9630D01*
X584615D01*
X564615Y1169630D02*
Y1167090D01*
X569695D01*
Y1169630D01*
X572235D01*
Y1174710D01*
X569695D01*
Y1177250D01*
X564615D01*
Y1174710D01*
X562075D01*
Y1169630D01*
X564615D01*
X544615Y1129630D02*
Y1127090D01*
X549695D01*
Y1129630D01*
X552235D01*
Y1134710D01*
X549695D01*
Y1137250D01*
X544615D01*
Y1134710D01*
X542075D01*
Y1129630D01*
X544615D01*
X564615Y1089630D02*
Y1087090D01*
X569695D01*
Y1089630D01*
X572235D01*
Y1094710D01*
X569695D01*
Y1097250D01*
X564615D01*
Y1094710D01*
X562075D01*
Y1089630D01*
X564615D01*
Y1009630D02*
Y1007090D01*
X569695D01*
Y1009630D01*
X572235D01*
Y1014710D01*
X569695D01*
Y1017250D01*
X564615D01*
Y1014710D01*
X562075D01*
Y1009630D01*
X564615D01*
Y689630D02*
Y687090D01*
X569695D01*
Y689630D01*
X572235D01*
Y694710D01*
X569695D01*
Y697250D01*
X564615D01*
Y694710D01*
X562075D01*
Y689630D01*
X564615D01*
X544615Y649630D02*
Y647090D01*
X549695D01*
Y649630D01*
X552235D01*
Y654710D01*
X549695D01*
Y657250D01*
X544615D01*
Y654710D01*
X542075D01*
Y649630D01*
X544615D01*
X564615Y449630D02*
Y447090D01*
X569695D01*
Y449630D01*
X572235D01*
Y454710D01*
X569695D01*
Y457250D01*
X564615D01*
Y454710D01*
X562075D01*
Y449630D01*
X564615D01*
X544615Y409630D02*
Y407090D01*
X549695D01*
Y409630D01*
X552235D01*
Y414710D01*
X549695D01*
Y417250D01*
X544615D01*
Y414710D01*
X542075D01*
Y409630D01*
X544615D01*
X564615Y369630D02*
Y367090D01*
X569695D01*
Y369630D01*
X572235D01*
Y374710D01*
X569695D01*
Y377250D01*
X564615D01*
Y374710D01*
X562075D01*
Y369630D01*
X564615D01*
X544615Y329630D02*
Y327090D01*
X549695D01*
Y329630D01*
X552235D01*
Y334710D01*
X549695D01*
Y337250D01*
X544615D01*
Y334710D01*
X542075D01*
Y329630D01*
X544615D01*
X564615Y209630D02*
Y207090D01*
X569695D01*
Y209630D01*
X572235D01*
Y214710D01*
X569695D01*
Y217250D01*
X564615D01*
Y214710D01*
X562075D01*
Y209630D01*
X564615D01*
X544615Y169630D02*
Y167090D01*
X549695D01*
Y169630D01*
X552235D01*
Y174710D01*
X549695D01*
Y177250D01*
X544615D01*
Y174710D01*
X542075D01*
Y169630D01*
X544615D01*
X564615Y129630D02*
Y127090D01*
X569695D01*
Y129630D01*
X572235D01*
Y134710D01*
X569695D01*
Y137250D01*
X564615D01*
Y134710D01*
X562075D01*
Y129630D01*
X564615D01*
Y49630D02*
Y47090D01*
X569695D01*
Y49630D01*
X572235D01*
Y54710D01*
X569695D01*
Y57250D01*
X564615D01*
Y54710D01*
X562075D01*
Y49630D01*
X564615D01*
X544615Y9630D02*
Y7090D01*
X549695D01*
Y9630D01*
X552235D01*
Y14710D01*
X549695D01*
Y17250D01*
X544615D01*
Y14710D01*
X542075D01*
Y9630D01*
X544615D01*
X504615Y1129630D02*
Y1127090D01*
X509695D01*
Y1129630D01*
X512235D01*
Y1134710D01*
X509695D01*
Y1137250D01*
X504615D01*
Y1134710D01*
X502075D01*
Y1129630D01*
X504615D01*
X524615Y1089630D02*
Y1087090D01*
X529695D01*
Y1089630D01*
X532235D01*
Y1094710D01*
X529695D01*
Y1097250D01*
X524615D01*
Y1094710D01*
X522075D01*
Y1089630D01*
X524615D01*
X504615Y1049630D02*
Y1047090D01*
X509695D01*
Y1049630D01*
X512235D01*
Y1054710D01*
X509695D01*
Y1057250D01*
X504615D01*
Y1054710D01*
X502075D01*
Y1049630D01*
X504615D01*
X524615Y849630D02*
Y847090D01*
X529695D01*
Y849630D01*
X532235D01*
Y854710D01*
X529695D01*
Y857250D01*
X524615D01*
Y854710D01*
X522075D01*
Y849630D01*
X524615D01*
X504615Y649630D02*
Y647090D01*
X509695D01*
Y649630D01*
X512235D01*
Y654710D01*
X509695D01*
Y657250D01*
X504615D01*
Y654710D01*
X502075D01*
Y649630D01*
X504615D01*
X524615Y449630D02*
Y447090D01*
X529695D01*
Y449630D01*
X532235D01*
Y454710D01*
X529695D01*
Y457250D01*
X524615D01*
Y454710D01*
X522075D01*
Y449630D01*
X524615D01*
X504615Y409630D02*
Y407090D01*
X509695D01*
Y409630D01*
X512235D01*
Y414710D01*
X509695D01*
Y417250D01*
X504615D01*
Y414710D01*
X502075D01*
Y409630D01*
X504615D01*
X524615Y369630D02*
Y367090D01*
X529695D01*
Y369630D01*
X532235D01*
Y374710D01*
X529695D01*
Y377250D01*
X524615D01*
Y374710D01*
X522075D01*
Y369630D01*
X524615D01*
X504615Y329630D02*
Y327090D01*
X509695D01*
Y329630D01*
X512235D01*
Y334710D01*
X509695D01*
Y337250D01*
X504615D01*
Y334710D01*
X502075D01*
Y329630D01*
X504615D01*
X524615Y209630D02*
Y207090D01*
X529695D01*
Y209630D01*
X532235D01*
Y214710D01*
X529695D01*
Y217250D01*
X524615D01*
Y214710D01*
X522075D01*
Y209630D01*
X524615D01*
X504615Y169630D02*
Y167090D01*
X509695D01*
Y169630D01*
X512235D01*
Y174710D01*
X509695D01*
Y177250D01*
X504615D01*
Y174710D01*
X502075D01*
Y169630D01*
X504615D01*
X524615Y129630D02*
Y127090D01*
X529695D01*
Y129630D01*
X532235D01*
Y134710D01*
X529695D01*
Y137250D01*
X524615D01*
Y134710D01*
X522075D01*
Y129630D01*
X524615D01*
Y49630D02*
Y47090D01*
X529695D01*
Y49630D01*
X532235D01*
Y54710D01*
X529695D01*
Y57250D01*
X524615D01*
Y54710D01*
X522075D01*
Y49630D01*
X524615D01*
X504615Y9630D02*
Y7090D01*
X509695D01*
Y9630D01*
X512235D01*
Y14710D01*
X509695D01*
Y17250D01*
X504615D01*
Y14710D01*
X502075D01*
Y9630D01*
X504615D01*
X484615Y1169630D02*
Y1167090D01*
X489695D01*
Y1169630D01*
X492235D01*
Y1174710D01*
X489695D01*
Y1177250D01*
X484615D01*
Y1174710D01*
X482075D01*
Y1169630D01*
X484615D01*
X464615Y1129630D02*
Y1127090D01*
X469695D01*
Y1129630D01*
X472235D01*
Y1134710D01*
X469695D01*
Y1137250D01*
X464615D01*
Y1134710D01*
X462075D01*
Y1129630D01*
X464615D01*
X484615Y1089630D02*
Y1087090D01*
X489695D01*
Y1089630D01*
X492235D01*
Y1094710D01*
X489695D01*
Y1097250D01*
X484615D01*
Y1094710D01*
X482075D01*
Y1089630D01*
X484615D01*
X464615Y1049630D02*
Y1047090D01*
X469695D01*
Y1049630D01*
X472235D01*
Y1054710D01*
X469695D01*
Y1057250D01*
X464615D01*
Y1054710D01*
X462075D01*
Y1049630D01*
X464615D01*
Y649630D02*
Y647090D01*
X469695D01*
Y649630D01*
X472235D01*
Y654710D01*
X469695D01*
Y657250D01*
X464615D01*
Y654710D01*
X462075D01*
Y649630D01*
X464615D01*
X484615Y449630D02*
Y447090D01*
X489695D01*
Y449630D01*
X492235D01*
Y454710D01*
X489695D01*
Y457250D01*
X484615D01*
Y454710D01*
X482075D01*
Y449630D01*
X484615D01*
X464615Y409630D02*
Y407090D01*
X469695D01*
Y409630D01*
X472235D01*
Y414710D01*
X469695D01*
Y417250D01*
X464615D01*
Y414710D01*
X462075D01*
Y409630D01*
X464615D01*
X484615Y369630D02*
Y367090D01*
X489695D01*
Y369630D01*
X492235D01*
Y374710D01*
X489695D01*
Y377250D01*
X484615D01*
Y374710D01*
X482075D01*
Y369630D01*
X484615D01*
X464615Y329630D02*
Y327090D01*
X469695D01*
Y329630D01*
X472235D01*
Y334710D01*
X469695D01*
Y337250D01*
X464615D01*
Y334710D01*
X462075D01*
Y329630D01*
X464615D01*
X484615Y209630D02*
Y207090D01*
X489695D01*
Y209630D01*
X492235D01*
Y214710D01*
X489695D01*
Y217250D01*
X484615D01*
Y214710D01*
X482075D01*
Y209630D01*
X484615D01*
X464615Y169630D02*
Y167090D01*
X469695D01*
Y169630D01*
X472235D01*
Y174710D01*
X469695D01*
Y177250D01*
X464615D01*
Y174710D01*
X462075D01*
Y169630D01*
X464615D01*
X484615Y129630D02*
Y127090D01*
X489695D01*
Y129630D01*
X492235D01*
Y134710D01*
X489695D01*
Y137250D01*
X484615D01*
Y134710D01*
X482075D01*
Y129630D01*
X484615D01*
Y49630D02*
Y47090D01*
X489695D01*
Y49630D01*
X492235D01*
Y54710D01*
X489695D01*
Y57250D01*
X484615D01*
Y54710D01*
X482075D01*
Y49630D01*
X484615D01*
X464615Y9630D02*
Y7090D01*
X469695D01*
Y9630D01*
X472235D01*
Y14710D01*
X469695D01*
Y17250D01*
X464615D01*
Y14710D01*
X462075D01*
Y9630D01*
X464615D01*
X444615Y1169630D02*
Y1167090D01*
X449695D01*
Y1169630D01*
X452235D01*
Y1174710D01*
X449695D01*
Y1177250D01*
X444615D01*
Y1174710D01*
X442075D01*
Y1169630D01*
X444615D01*
X424615Y1129630D02*
Y1127090D01*
X429695D01*
Y1129630D01*
X432235D01*
Y1134710D01*
X429695D01*
Y1137250D01*
X424615D01*
Y1134710D01*
X422075D01*
Y1129630D01*
X424615D01*
X444615Y1089630D02*
Y1087090D01*
X449695D01*
Y1089630D01*
X452235D01*
Y1094710D01*
X449695D01*
Y1097250D01*
X444615D01*
Y1094710D01*
X442075D01*
Y1089630D01*
X444615D01*
X424615Y1049630D02*
Y1047090D01*
X429695D01*
Y1049630D01*
X432235D01*
Y1054710D01*
X429695D01*
Y1057250D01*
X424615D01*
Y1054710D01*
X422075D01*
Y1049630D01*
X424615D01*
Y969630D02*
Y967090D01*
X429695D01*
Y969630D01*
X432235D01*
Y974710D01*
X429695D01*
Y977250D01*
X424615D01*
Y974710D01*
X422075D01*
Y969630D01*
X424615D01*
Y649630D02*
Y647090D01*
X429695D01*
Y649630D01*
X432235D01*
Y654710D01*
X429695D01*
Y657250D01*
X424615D01*
Y654710D01*
X422075D01*
Y649630D01*
X424615D01*
Y489630D02*
Y487090D01*
X429695D01*
Y489630D01*
X432235D01*
Y494710D01*
X429695D01*
Y497250D01*
X424615D01*
Y494710D01*
X422075D01*
Y489630D01*
X424615D01*
X444615Y449630D02*
Y447090D01*
X449695D01*
Y449630D01*
X452235D01*
Y454710D01*
X449695D01*
Y457250D01*
X444615D01*
Y454710D01*
X442075D01*
Y449630D01*
X444615D01*
X424615Y409630D02*
Y407090D01*
X429695D01*
Y409630D01*
X432235D01*
Y414710D01*
X429695D01*
Y417250D01*
X424615D01*
Y414710D01*
X422075D01*
Y409630D01*
X424615D01*
X444615Y369630D02*
Y367090D01*
X449695D01*
Y369630D01*
X452235D01*
Y374710D01*
X449695D01*
Y377250D01*
X444615D01*
Y374710D01*
X442075D01*
Y369630D01*
X444615D01*
X424615Y329630D02*
Y327090D01*
X429695D01*
Y329630D01*
X432235D01*
Y334710D01*
X429695D01*
Y337250D01*
X424615D01*
Y334710D01*
X422075D01*
Y329630D01*
X424615D01*
X444615Y209630D02*
Y207090D01*
X449695D01*
Y209630D01*
X452235D01*
Y214710D01*
X449695D01*
Y217250D01*
X444615D01*
Y214710D01*
X442075D01*
Y209630D01*
X444615D01*
X424615Y169630D02*
Y167090D01*
X429695D01*
Y169630D01*
X432235D01*
Y174710D01*
X429695D01*
Y177250D01*
X424615D01*
Y174710D01*
X422075D01*
Y169630D01*
X424615D01*
X444615Y129630D02*
Y127090D01*
X449695D01*
Y129630D01*
X452235D01*
Y134710D01*
X449695D01*
Y137250D01*
X444615D01*
Y134710D01*
X442075D01*
Y129630D01*
X444615D01*
Y49630D02*
Y47090D01*
X449695D01*
Y49630D01*
X452235D01*
Y54710D01*
X449695D01*
Y57250D01*
X444615D01*
Y54710D01*
X442075D01*
Y49630D01*
X444615D01*
X424615Y9630D02*
Y7090D01*
X429695D01*
Y9630D01*
X432235D01*
Y14710D01*
X429695D01*
Y17250D01*
X424615D01*
Y14710D01*
X422075D01*
Y9630D01*
X424615D01*
X404615Y1169630D02*
Y1167090D01*
X409695D01*
Y1169630D01*
X412235D01*
Y1174710D01*
X409695D01*
Y1177250D01*
X404615D01*
Y1174710D01*
X402075D01*
Y1169630D01*
X404615D01*
X384615Y1129630D02*
Y1127090D01*
X389695D01*
Y1129630D01*
X392235D01*
Y1134710D01*
X389695D01*
Y1137250D01*
X384615D01*
Y1134710D01*
X382075D01*
Y1129630D01*
X384615D01*
X404615Y1089630D02*
Y1087090D01*
X409695D01*
Y1089630D01*
X412235D01*
Y1094710D01*
X409695D01*
Y1097250D01*
X404615D01*
Y1094710D01*
X402075D01*
Y1089630D01*
X404615D01*
X384615Y1049630D02*
Y1047090D01*
X389695D01*
Y1049630D01*
X392235D01*
Y1054710D01*
X389695D01*
Y1057250D01*
X384615D01*
Y1054710D01*
X382075D01*
Y1049630D01*
X384615D01*
Y969630D02*
Y967090D01*
X389695D01*
Y969630D01*
X392235D01*
Y974710D01*
X389695D01*
Y977250D01*
X384615D01*
Y974710D01*
X382075D01*
Y969630D01*
X384615D01*
X404615Y929630D02*
Y927090D01*
X409695D01*
Y929630D01*
X412235D01*
Y934710D01*
X409695D01*
Y937250D01*
X404615D01*
Y934710D01*
X402075D01*
Y929630D01*
X404615D01*
X384615Y889630D02*
Y887090D01*
X389695D01*
Y889630D01*
X392235D01*
Y894710D01*
X389695D01*
Y897250D01*
X384615D01*
Y894710D01*
X382075D01*
Y889630D01*
X384615D01*
Y809630D02*
Y807090D01*
X389695D01*
Y809630D01*
X392235D01*
Y814710D01*
X389695D01*
Y817250D01*
X384615D01*
Y814710D01*
X382075D01*
Y809630D01*
X384615D01*
Y649630D02*
Y647090D01*
X389695D01*
Y649630D01*
X392235D01*
Y654710D01*
X389695D01*
Y657250D01*
X384615D01*
Y654710D01*
X382075D01*
Y649630D01*
X384615D01*
Y489630D02*
Y487090D01*
X389695D01*
Y489630D01*
X392235D01*
Y494710D01*
X389695D01*
Y497250D01*
X384615D01*
Y494710D01*
X382075D01*
Y489630D01*
X384615D01*
X404615Y449630D02*
Y447090D01*
X409695D01*
Y449630D01*
X412235D01*
Y454710D01*
X409695D01*
Y457250D01*
X404615D01*
Y454710D01*
X402075D01*
Y449630D01*
X404615D01*
X384615Y409630D02*
Y407090D01*
X389695D01*
Y409630D01*
X392235D01*
Y414710D01*
X389695D01*
Y417250D01*
X384615D01*
Y414710D01*
X382075D01*
Y409630D01*
X384615D01*
X404615Y369630D02*
Y367090D01*
X409695D01*
Y369630D01*
X412235D01*
Y374710D01*
X409695D01*
Y377250D01*
X404615D01*
Y374710D01*
X402075D01*
Y369630D01*
X404615D01*
X384615Y329630D02*
Y327090D01*
X389695D01*
Y329630D01*
X392235D01*
Y334710D01*
X389695D01*
Y337250D01*
X384615D01*
Y334710D01*
X382075D01*
Y329630D01*
X384615D01*
X404615Y209630D02*
Y207090D01*
X409695D01*
Y209630D01*
X412235D01*
Y214710D01*
X409695D01*
Y217250D01*
X404615D01*
Y214710D01*
X402075D01*
Y209630D01*
X404615D01*
X384615Y169630D02*
Y167090D01*
X389695D01*
Y169630D01*
X392235D01*
Y174710D01*
X389695D01*
Y177250D01*
X384615D01*
Y174710D01*
X382075D01*
Y169630D01*
X384615D01*
X404615Y129630D02*
Y127090D01*
X409695D01*
Y129630D01*
X412235D01*
Y134710D01*
X409695D01*
Y137250D01*
X404615D01*
Y134710D01*
X402075D01*
Y129630D01*
X404615D01*
Y49630D02*
Y47090D01*
X409695D01*
Y49630D01*
X412235D01*
Y54710D01*
X409695D01*
Y57250D01*
X404615D01*
Y54710D01*
X402075D01*
Y49630D01*
X404615D01*
X384615Y9630D02*
Y7090D01*
X389695D01*
Y9630D01*
X392235D01*
Y14710D01*
X389695D01*
Y17250D01*
X384615D01*
Y14710D01*
X382075D01*
Y9630D01*
X384615D01*
X364615Y1169630D02*
Y1167090D01*
X369695D01*
Y1169630D01*
X372235D01*
Y1174710D01*
X369695D01*
Y1177250D01*
X364615D01*
Y1174710D01*
X362075D01*
Y1169630D01*
X364615D01*
X344615Y1129630D02*
Y1127090D01*
X349695D01*
Y1129630D01*
X352235D01*
Y1134710D01*
X349695D01*
Y1137250D01*
X344615D01*
Y1134710D01*
X342075D01*
Y1129630D01*
X344615D01*
X364615Y1089630D02*
Y1087090D01*
X369695D01*
Y1089630D01*
X372235D01*
Y1094710D01*
X369695D01*
Y1097250D01*
X364615D01*
Y1094710D01*
X362075D01*
Y1089630D01*
X364615D01*
X344615Y1049630D02*
Y1047090D01*
X349695D01*
Y1049630D01*
X352235D01*
Y1054710D01*
X349695D01*
Y1057250D01*
X344615D01*
Y1054710D01*
X342075D01*
Y1049630D01*
X344615D01*
Y969630D02*
Y967090D01*
X349695D01*
Y969630D01*
X352235D01*
Y974710D01*
X349695D01*
Y977250D01*
X344615D01*
Y974710D01*
X342075D01*
Y969630D01*
X344615D01*
Y889630D02*
Y887090D01*
X349695D01*
Y889630D01*
X352235D01*
Y894710D01*
X349695D01*
Y897250D01*
X344615D01*
Y894710D01*
X342075D01*
Y889630D01*
X344615D01*
X364615Y849630D02*
Y847090D01*
X369695D01*
Y849630D01*
X372235D01*
Y854710D01*
X369695D01*
Y857250D01*
X364615D01*
Y854710D01*
X362075D01*
Y849630D01*
X364615D01*
X344615Y649630D02*
Y647090D01*
X349695D01*
Y649630D01*
X352235D01*
Y654710D01*
X349695D01*
Y657250D01*
X344615D01*
Y654710D01*
X342075D01*
Y649630D01*
X344615D01*
Y489630D02*
Y487090D01*
X349695D01*
Y489630D01*
X352235D01*
Y494710D01*
X349695D01*
Y497250D01*
X344615D01*
Y494710D01*
X342075D01*
Y489630D01*
X344615D01*
X364615Y449630D02*
Y447090D01*
X369695D01*
Y449630D01*
X372235D01*
Y454710D01*
X369695D01*
Y457250D01*
X364615D01*
Y454710D01*
X362075D01*
Y449630D01*
X364615D01*
X344615Y409630D02*
Y407090D01*
X349695D01*
Y409630D01*
X352235D01*
Y414710D01*
X349695D01*
Y417250D01*
X344615D01*
Y414710D01*
X342075D01*
Y409630D01*
X344615D01*
X364615Y369630D02*
Y367090D01*
X369695D01*
Y369630D01*
X372235D01*
Y374710D01*
X369695D01*
Y377250D01*
X364615D01*
Y374710D01*
X362075D01*
Y369630D01*
X364615D01*
X344615Y329630D02*
Y327090D01*
X349695D01*
Y329630D01*
X352235D01*
Y334710D01*
X349695D01*
Y337250D01*
X344615D01*
Y334710D01*
X342075D01*
Y329630D01*
X344615D01*
X364615Y209630D02*
Y207090D01*
X369695D01*
Y209630D01*
X372235D01*
Y214710D01*
X369695D01*
Y217250D01*
X364615D01*
Y214710D01*
X362075D01*
Y209630D01*
X364615D01*
X344615Y169630D02*
Y167090D01*
X349695D01*
Y169630D01*
X352235D01*
Y174710D01*
X349695D01*
Y177250D01*
X344615D01*
Y174710D01*
X342075D01*
Y169630D01*
X344615D01*
X364615Y129630D02*
Y127090D01*
X369695D01*
Y129630D01*
X372235D01*
Y134710D01*
X369695D01*
Y137250D01*
X364615D01*
Y134710D01*
X362075D01*
Y129630D01*
X364615D01*
Y49630D02*
Y47090D01*
X369695D01*
Y49630D01*
X372235D01*
Y54710D01*
X369695D01*
Y57250D01*
X364615D01*
Y54710D01*
X362075D01*
Y49630D01*
X364615D01*
X344615Y9630D02*
Y7090D01*
X349695D01*
Y9630D01*
X352235D01*
Y14710D01*
X349695D01*
Y17250D01*
X344615D01*
Y14710D01*
X342075D01*
Y9630D01*
X344615D01*
X324615Y1169630D02*
Y1167090D01*
X329695D01*
Y1169630D01*
X332235D01*
Y1174710D01*
X329695D01*
Y1177250D01*
X324615D01*
Y1174710D01*
X322075D01*
Y1169630D01*
X324615D01*
X304615Y1129630D02*
Y1127090D01*
X309695D01*
Y1129630D01*
X312235D01*
Y1134710D01*
X309695D01*
Y1137250D01*
X304615D01*
Y1134710D01*
X302075D01*
Y1129630D01*
X304615D01*
X324615Y1089630D02*
Y1087090D01*
X329695D01*
Y1089630D01*
X332235D01*
Y1094710D01*
X329695D01*
Y1097250D01*
X324615D01*
Y1094710D01*
X322075D01*
Y1089630D01*
X324615D01*
X304615Y1049630D02*
Y1047090D01*
X309695D01*
Y1049630D01*
X312235D01*
Y1054710D01*
X309695D01*
Y1057250D01*
X304615D01*
Y1054710D01*
X302075D01*
Y1049630D01*
X304615D01*
X324615Y929630D02*
Y927090D01*
X329695D01*
Y929630D01*
X332235D01*
Y934710D01*
X329695D01*
Y937250D01*
X324615D01*
Y934710D01*
X322075D01*
Y929630D01*
X324615D01*
Y849630D02*
Y847090D01*
X329695D01*
Y849630D01*
X332235D01*
Y854710D01*
X329695D01*
Y857250D01*
X324615D01*
Y854710D01*
X322075D01*
Y849630D01*
X324615D01*
Y689630D02*
Y687090D01*
X329695D01*
Y689630D01*
X332235D01*
Y694710D01*
X329695D01*
Y697250D01*
X324615D01*
Y694710D01*
X322075D01*
Y689630D01*
X324615D01*
X304615Y489630D02*
Y487090D01*
X309695D01*
Y489630D01*
X312235D01*
Y494710D01*
X309695D01*
Y497250D01*
X304615D01*
Y494710D01*
X302075D01*
Y489630D01*
X304615D01*
X324615Y449630D02*
Y447090D01*
X329695D01*
Y449630D01*
X332235D01*
Y454710D01*
X329695D01*
Y457250D01*
X324615D01*
Y454710D01*
X322075D01*
Y449630D01*
X324615D01*
X304615Y409630D02*
Y407090D01*
X309695D01*
Y409630D01*
X312235D01*
Y414710D01*
X309695D01*
Y417250D01*
X304615D01*
Y414710D01*
X302075D01*
Y409630D01*
X304615D01*
X324615Y369630D02*
Y367090D01*
X329695D01*
Y369630D01*
X332235D01*
Y374710D01*
X329695D01*
Y377250D01*
X324615D01*
Y374710D01*
X322075D01*
Y369630D01*
X324615D01*
X304615Y329630D02*
Y327090D01*
X309695D01*
Y329630D01*
X312235D01*
Y334710D01*
X309695D01*
Y337250D01*
X304615D01*
Y334710D01*
X302075D01*
Y329630D01*
X304615D01*
X324615Y209630D02*
Y207090D01*
X329695D01*
Y209630D01*
X332235D01*
Y214710D01*
X329695D01*
Y217250D01*
X324615D01*
Y214710D01*
X322075D01*
Y209630D01*
X324615D01*
X304615Y169630D02*
Y167090D01*
X309695D01*
Y169630D01*
X312235D01*
Y174710D01*
X309695D01*
Y177250D01*
X304615D01*
Y174710D01*
X302075D01*
Y169630D01*
X304615D01*
X324615Y129630D02*
Y127090D01*
X329695D01*
Y129630D01*
X332235D01*
Y134710D01*
X329695D01*
Y137250D01*
X324615D01*
Y134710D01*
X322075D01*
Y129630D01*
X324615D01*
Y49630D02*
Y47090D01*
X329695D01*
Y49630D01*
X332235D01*
Y54710D01*
X329695D01*
Y57250D01*
X324615D01*
Y54710D01*
X322075D01*
Y49630D01*
X324615D01*
X304615Y9630D02*
Y7090D01*
X309695D01*
Y9630D01*
X312235D01*
Y14710D01*
X309695D01*
Y17250D01*
X304615D01*
Y14710D01*
X302075D01*
Y9630D01*
X304615D01*
X284615Y1169630D02*
Y1167090D01*
X289695D01*
Y1169630D01*
X292235D01*
Y1174710D01*
X289695D01*
Y1177250D01*
X284615D01*
Y1174710D01*
X282075D01*
Y1169630D01*
X284615D01*
X264615Y1129630D02*
Y1127090D01*
X269695D01*
Y1129630D01*
X272235D01*
Y1134710D01*
X269695D01*
Y1137250D01*
X264615D01*
Y1134710D01*
X262075D01*
Y1129630D01*
X264615D01*
X284615Y1089630D02*
Y1087090D01*
X289695D01*
Y1089630D01*
X292235D01*
Y1094710D01*
X289695D01*
Y1097250D01*
X284615D01*
Y1094710D01*
X282075D01*
Y1089630D01*
X284615D01*
X264615Y1049630D02*
Y1047090D01*
X269695D01*
Y1049630D01*
X272235D01*
Y1054710D01*
X269695D01*
Y1057250D01*
X264615D01*
Y1054710D01*
X262075D01*
Y1049630D01*
X264615D01*
Y489630D02*
Y487090D01*
X269695D01*
Y489630D01*
X272235D01*
Y494710D01*
X269695D01*
Y497250D01*
X264615D01*
Y494710D01*
X262075D01*
Y489630D01*
X264615D01*
X284615Y449630D02*
Y447090D01*
X289695D01*
Y449630D01*
X292235D01*
Y454710D01*
X289695D01*
Y457250D01*
X284615D01*
Y454710D01*
X282075D01*
Y449630D01*
X284615D01*
X264615Y409630D02*
Y407090D01*
X269695D01*
Y409630D01*
X272235D01*
Y414710D01*
X269695D01*
Y417250D01*
X264615D01*
Y414710D01*
X262075D01*
Y409630D01*
X264615D01*
X284615Y369630D02*
Y367090D01*
X289695D01*
Y369630D01*
X292235D01*
Y374710D01*
X289695D01*
Y377250D01*
X284615D01*
Y374710D01*
X282075D01*
Y369630D01*
X284615D01*
X264615Y329630D02*
Y327090D01*
X269695D01*
Y329630D01*
X272235D01*
Y334710D01*
X269695D01*
Y337250D01*
X264615D01*
Y334710D01*
X262075D01*
Y329630D01*
X264615D01*
X284615Y209630D02*
Y207090D01*
X289695D01*
Y209630D01*
X292235D01*
Y214710D01*
X289695D01*
Y217250D01*
X284615D01*
Y214710D01*
X282075D01*
Y209630D01*
X284615D01*
X264615Y169630D02*
Y167090D01*
X269695D01*
Y169630D01*
X272235D01*
Y174710D01*
X269695D01*
Y177250D01*
X264615D01*
Y174710D01*
X262075D01*
Y169630D01*
X264615D01*
X284615Y129630D02*
Y127090D01*
X289695D01*
Y129630D01*
X292235D01*
Y134710D01*
X289695D01*
Y137250D01*
X284615D01*
Y134710D01*
X282075D01*
Y129630D01*
X284615D01*
X264615Y89630D02*
Y87090D01*
X269695D01*
Y89630D01*
X272235D01*
Y94710D01*
X269695D01*
Y97250D01*
X264615D01*
Y94710D01*
X262075D01*
Y89630D01*
X264615D01*
X284615Y49630D02*
Y47090D01*
X289695D01*
Y49630D01*
X292235D01*
Y54710D01*
X289695D01*
Y57250D01*
X284615D01*
Y54710D01*
X282075D01*
Y49630D01*
X284615D01*
X264615Y9630D02*
Y7090D01*
X269695D01*
Y9630D01*
X272235D01*
Y14710D01*
X269695D01*
Y17250D01*
X264615D01*
Y14710D01*
X262075D01*
Y9630D01*
X264615D01*
X244615Y1169630D02*
Y1167090D01*
X249695D01*
Y1169630D01*
X252235D01*
Y1174710D01*
X249695D01*
Y1177250D01*
X244615D01*
Y1174710D01*
X242075D01*
Y1169630D01*
X244615D01*
X224615Y1129630D02*
Y1127090D01*
X229695D01*
Y1129630D01*
X232235D01*
Y1134710D01*
X229695D01*
Y1137250D01*
X224615D01*
Y1134710D01*
X222075D01*
Y1129630D01*
X224615D01*
X244615Y1089630D02*
Y1087090D01*
X249695D01*
Y1089630D01*
X252235D01*
Y1094710D01*
X249695D01*
Y1097250D01*
X244615D01*
Y1094710D01*
X242075D01*
Y1089630D01*
X244615D01*
X224615Y1049630D02*
Y1047090D01*
X229695D01*
Y1049630D01*
X232235D01*
Y1054710D01*
X229695D01*
Y1057250D01*
X224615D01*
Y1054710D01*
X222075D01*
Y1049630D01*
X224615D01*
Y969630D02*
Y967090D01*
X229695D01*
Y969630D01*
X232235D01*
Y974710D01*
X229695D01*
Y977250D01*
X224615D01*
Y974710D01*
X222075D01*
Y969630D01*
X224615D01*
Y809630D02*
Y807090D01*
X229695D01*
Y809630D01*
X232235D01*
Y814710D01*
X229695D01*
Y817250D01*
X224615D01*
Y814710D01*
X222075D01*
Y809630D01*
X224615D01*
Y729630D02*
Y727090D01*
X229695D01*
Y729630D01*
X232235D01*
Y734710D01*
X229695D01*
Y737250D01*
X224615D01*
Y734710D01*
X222075D01*
Y729630D01*
X224615D01*
Y649630D02*
Y647090D01*
X229695D01*
Y649630D01*
X232235D01*
Y654710D01*
X229695D01*
Y657250D01*
X224615D01*
Y654710D01*
X222075D01*
Y649630D01*
X224615D01*
Y569630D02*
Y567090D01*
X229695D01*
Y569630D01*
X232235D01*
Y574710D01*
X229695D01*
Y577250D01*
X224615D01*
Y574710D01*
X222075D01*
Y569630D01*
X224615D01*
X244615Y529630D02*
Y527090D01*
X249695D01*
Y529630D01*
X252235D01*
Y534710D01*
X249695D01*
Y537250D01*
X244615D01*
Y534710D01*
X242075D01*
Y529630D01*
X244615D01*
X224615Y489630D02*
Y487090D01*
X229695D01*
Y489630D01*
X232235D01*
Y494710D01*
X229695D01*
Y497250D01*
X224615D01*
Y494710D01*
X222075D01*
Y489630D01*
X224615D01*
X244615Y449630D02*
Y447090D01*
X249695D01*
Y449630D01*
X252235D01*
Y454710D01*
X249695D01*
Y457250D01*
X244615D01*
Y454710D01*
X242075D01*
Y449630D01*
X244615D01*
X224615Y409630D02*
Y407090D01*
X229695D01*
Y409630D01*
X232235D01*
Y414710D01*
X229695D01*
Y417250D01*
X224615D01*
Y414710D01*
X222075D01*
Y409630D01*
X224615D01*
X244615Y369630D02*
Y367090D01*
X249695D01*
Y369630D01*
X252235D01*
Y374710D01*
X249695D01*
Y377250D01*
X244615D01*
Y374710D01*
X242075D01*
Y369630D01*
X244615D01*
X224615Y329630D02*
Y327090D01*
X229695D01*
Y329630D01*
X232235D01*
Y334710D01*
X229695D01*
Y337250D01*
X224615D01*
Y334710D01*
X222075D01*
Y329630D01*
X224615D01*
X244615Y209630D02*
Y207090D01*
X249695D01*
Y209630D01*
X252235D01*
Y214710D01*
X249695D01*
Y217250D01*
X244615D01*
Y214710D01*
X242075D01*
Y209630D01*
X244615D01*
X224615Y169630D02*
Y167090D01*
X229695D01*
Y169630D01*
X232235D01*
Y174710D01*
X229695D01*
Y177250D01*
X224615D01*
Y174710D01*
X222075D01*
Y169630D01*
X224615D01*
X244615Y129630D02*
Y127090D01*
X249695D01*
Y129630D01*
X252235D01*
Y134710D01*
X249695D01*
Y137250D01*
X244615D01*
Y134710D01*
X242075D01*
Y129630D01*
X244615D01*
X224615Y89630D02*
Y87090D01*
X229695D01*
Y89630D01*
X232235D01*
Y94710D01*
X229695D01*
Y97250D01*
X224615D01*
Y94710D01*
X222075D01*
Y89630D01*
X224615D01*
X244615Y49630D02*
Y47090D01*
X249695D01*
Y49630D01*
X252235D01*
Y54710D01*
X249695D01*
Y57250D01*
X244615D01*
Y54710D01*
X242075D01*
Y49630D01*
X244615D01*
X224615Y9630D02*
Y7090D01*
X229695D01*
Y9630D01*
X232235D01*
Y14710D01*
X229695D01*
Y17250D01*
X224615D01*
Y14710D01*
X222075D01*
Y9630D01*
X224615D01*
X204615Y1169630D02*
Y1167090D01*
X209695D01*
Y1169630D01*
X212235D01*
Y1174710D01*
X209695D01*
Y1177250D01*
X204615D01*
Y1174710D01*
X202075D01*
Y1169630D01*
X204615D01*
X184615Y1129630D02*
Y1127090D01*
X189695D01*
Y1129630D01*
X192235D01*
Y1134710D01*
X189695D01*
Y1137250D01*
X184615D01*
Y1134710D01*
X182075D01*
Y1129630D01*
X184615D01*
X204615Y1089630D02*
Y1087090D01*
X209695D01*
Y1089630D01*
X212235D01*
Y1094710D01*
X209695D01*
Y1097250D01*
X204615D01*
Y1094710D01*
X202075D01*
Y1089630D01*
X204615D01*
X184615Y1049630D02*
Y1047090D01*
X189695D01*
Y1049630D01*
X192235D01*
Y1054710D01*
X189695D01*
Y1057250D01*
X184615D01*
Y1054710D01*
X182075D01*
Y1049630D01*
X184615D01*
X204615Y1009630D02*
Y1007090D01*
X209695D01*
Y1009630D01*
X212235D01*
Y1014710D01*
X209695D01*
Y1017250D01*
X204615D01*
Y1014710D01*
X202075D01*
Y1009630D01*
X204615D01*
X184615Y969630D02*
Y967090D01*
X189695D01*
Y969630D01*
X192235D01*
Y974710D01*
X189695D01*
Y977250D01*
X184615D01*
Y974710D01*
X182075D01*
Y969630D01*
X184615D01*
X204615Y929630D02*
Y927090D01*
X209695D01*
Y929630D01*
X212235D01*
Y934710D01*
X209695D01*
Y937250D01*
X204615D01*
Y934710D01*
X202075D01*
Y929630D01*
X204615D01*
Y849630D02*
Y847090D01*
X209695D01*
Y849630D01*
X212235D01*
Y854710D01*
X209695D01*
Y857250D01*
X204615D01*
Y854710D01*
X202075D01*
Y849630D01*
X204615D01*
X184615Y809630D02*
Y807090D01*
X189695D01*
Y809630D01*
X192235D01*
Y814710D01*
X189695D01*
Y817250D01*
X184615D01*
Y814710D01*
X182075D01*
Y809630D01*
X184615D01*
X204615Y769630D02*
Y767090D01*
X209695D01*
Y769630D01*
X212235D01*
Y774710D01*
X209695D01*
Y777250D01*
X204615D01*
Y774710D01*
X202075D01*
Y769630D01*
X204615D01*
X184615Y729630D02*
Y727090D01*
X189695D01*
Y729630D01*
X192235D01*
Y734710D01*
X189695D01*
Y737250D01*
X184615D01*
Y734710D01*
X182075D01*
Y729630D01*
X184615D01*
X204615Y689630D02*
Y687090D01*
X209695D01*
Y689630D01*
X212235D01*
Y694710D01*
X209695D01*
Y697250D01*
X204615D01*
Y694710D01*
X202075D01*
Y689630D01*
X204615D01*
X184615Y649630D02*
Y647090D01*
X189695D01*
Y649630D01*
X192235D01*
Y654710D01*
X189695D01*
Y657250D01*
X184615D01*
Y654710D01*
X182075D01*
Y649630D01*
X184615D01*
X204615Y609630D02*
Y607090D01*
X209695D01*
Y609630D01*
X212235D01*
Y614710D01*
X209695D01*
Y617250D01*
X204615D01*
Y614710D01*
X202075D01*
Y609630D01*
X204615D01*
X184615Y569630D02*
Y567090D01*
X189695D01*
Y569630D01*
X192235D01*
Y574710D01*
X189695D01*
Y577250D01*
X184615D01*
Y574710D01*
X182075D01*
Y569630D01*
X184615D01*
X204615Y529630D02*
Y527090D01*
X209695D01*
Y529630D01*
X212235D01*
Y534710D01*
X209695D01*
Y537250D01*
X204615D01*
Y534710D01*
X202075D01*
Y529630D01*
X204615D01*
X184615Y489630D02*
Y487090D01*
X189695D01*
Y489630D01*
X192235D01*
Y494710D01*
X189695D01*
Y497250D01*
X184615D01*
Y494710D01*
X182075D01*
Y489630D01*
X184615D01*
X204615Y449630D02*
Y447090D01*
X209695D01*
Y449630D01*
X212235D01*
Y454710D01*
X209695D01*
Y457250D01*
X204615D01*
Y454710D01*
X202075D01*
Y449630D01*
X204615D01*
X184615Y409630D02*
Y407090D01*
X189695D01*
Y409630D01*
X192235D01*
Y414710D01*
X189695D01*
Y417250D01*
X184615D01*
Y414710D01*
X182075D01*
Y409630D01*
X184615D01*
X204615Y369630D02*
Y367090D01*
X209695D01*
Y369630D01*
X212235D01*
Y374710D01*
X209695D01*
Y377250D01*
X204615D01*
Y374710D01*
X202075D01*
Y369630D01*
X204615D01*
X184615Y329630D02*
Y327090D01*
X189695D01*
Y329630D01*
X192235D01*
Y334710D01*
X189695D01*
Y337250D01*
X184615D01*
Y334710D01*
X182075D01*
Y329630D01*
X184615D01*
X204615Y209630D02*
Y207090D01*
X209695D01*
Y209630D01*
X212235D01*
Y214710D01*
X209695D01*
Y217250D01*
X204615D01*
Y214710D01*
X202075D01*
Y209630D01*
X204615D01*
X184615Y169630D02*
Y167090D01*
X189695D01*
Y169630D01*
X192235D01*
Y174710D01*
X189695D01*
Y177250D01*
X184615D01*
Y174710D01*
X182075D01*
Y169630D01*
X184615D01*
X204615Y129630D02*
Y127090D01*
X209695D01*
Y129630D01*
X212235D01*
Y134710D01*
X209695D01*
Y137250D01*
X204615D01*
Y134710D01*
X202075D01*
Y129630D01*
X204615D01*
X184615Y89630D02*
Y87090D01*
X189695D01*
Y89630D01*
X192235D01*
Y94710D01*
X189695D01*
Y97250D01*
X184615D01*
Y94710D01*
X182075D01*
Y89630D01*
X184615D01*
X204615Y49630D02*
Y47090D01*
X209695D01*
Y49630D01*
X212235D01*
Y54710D01*
X209695D01*
Y57250D01*
X204615D01*
Y54710D01*
X202075D01*
Y49630D01*
X204615D01*
X184615Y9630D02*
Y7090D01*
X189695D01*
Y9630D01*
X192235D01*
Y14710D01*
X189695D01*
Y17250D01*
X184615D01*
Y14710D01*
X182075D01*
Y9630D01*
X184615D01*
X164615Y1169630D02*
Y1167090D01*
X169695D01*
Y1169630D01*
X172235D01*
Y1174710D01*
X169695D01*
Y1177250D01*
X164615D01*
Y1174710D01*
X162075D01*
Y1169630D01*
X164615D01*
X144615Y1129630D02*
Y1127090D01*
X149695D01*
Y1129630D01*
X152235D01*
Y1134710D01*
X149695D01*
Y1137250D01*
X144615D01*
Y1134710D01*
X142075D01*
Y1129630D01*
X144615D01*
X164615Y1089630D02*
Y1087090D01*
X169695D01*
Y1089630D01*
X172235D01*
Y1094710D01*
X169695D01*
Y1097250D01*
X164615D01*
Y1094710D01*
X162075D01*
Y1089630D01*
X164615D01*
X144615Y1049630D02*
Y1047090D01*
X149695D01*
Y1049630D01*
X152235D01*
Y1054710D01*
X149695D01*
Y1057250D01*
X144615D01*
Y1054710D01*
X142075D01*
Y1049630D01*
X144615D01*
X164615Y1009630D02*
Y1007090D01*
X169695D01*
Y1009630D01*
X172235D01*
Y1014710D01*
X169695D01*
Y1017250D01*
X164615D01*
Y1014710D01*
X162075D01*
Y1009630D01*
X164615D01*
X144615Y969630D02*
Y967090D01*
X149695D01*
Y969630D01*
X152235D01*
Y974710D01*
X149695D01*
Y977250D01*
X144615D01*
Y974710D01*
X142075D01*
Y969630D01*
X144615D01*
X164615Y929630D02*
Y927090D01*
X169695D01*
Y929630D01*
X172235D01*
Y934710D01*
X169695D01*
Y937250D01*
X164615D01*
Y934710D01*
X162075D01*
Y929630D01*
X164615D01*
X144615Y809630D02*
Y807090D01*
X149695D01*
Y809630D01*
X152235D01*
Y814710D01*
X149695D01*
Y817250D01*
X144615D01*
Y814710D01*
X142075D01*
Y809630D01*
X144615D01*
X164615Y769630D02*
Y767090D01*
X169695D01*
Y769630D01*
X172235D01*
Y774710D01*
X169695D01*
Y777250D01*
X164615D01*
Y774710D01*
X162075D01*
Y769630D01*
X164615D01*
X144615Y729630D02*
Y727090D01*
X149695D01*
Y729630D01*
X152235D01*
Y734710D01*
X149695D01*
Y737250D01*
X144615D01*
Y734710D01*
X142075D01*
Y729630D01*
X144615D01*
X164615Y689630D02*
Y687090D01*
X169695D01*
Y689630D01*
X172235D01*
Y694710D01*
X169695D01*
Y697250D01*
X164615D01*
Y694710D01*
X162075D01*
Y689630D01*
X164615D01*
X144615Y649630D02*
Y647090D01*
X149695D01*
Y649630D01*
X152235D01*
Y654710D01*
X149695D01*
Y657250D01*
X144615D01*
Y654710D01*
X142075D01*
Y649630D01*
X144615D01*
X164615Y609630D02*
Y607090D01*
X169695D01*
Y609630D01*
X172235D01*
Y614710D01*
X169695D01*
Y617250D01*
X164615D01*
Y614710D01*
X162075D01*
Y609630D01*
X164615D01*
X144615Y569630D02*
Y567090D01*
X149695D01*
Y569630D01*
X152235D01*
Y574710D01*
X149695D01*
Y577250D01*
X144615D01*
Y574710D01*
X142075D01*
Y569630D01*
X144615D01*
X164615Y529630D02*
Y527090D01*
X169695D01*
Y529630D01*
X172235D01*
Y534710D01*
X169695D01*
Y537250D01*
X164615D01*
Y534710D01*
X162075D01*
Y529630D01*
X164615D01*
X144615Y489630D02*
Y487090D01*
X149695D01*
Y489630D01*
X152235D01*
Y494710D01*
X149695D01*
Y497250D01*
X144615D01*
Y494710D01*
X142075D01*
Y489630D01*
X144615D01*
X164615Y449630D02*
Y447090D01*
X169695D01*
Y449630D01*
X172235D01*
Y454710D01*
X169695D01*
Y457250D01*
X164615D01*
Y454710D01*
X162075D01*
Y449630D01*
X164615D01*
X144615Y409630D02*
Y407090D01*
X149695D01*
Y409630D01*
X152235D01*
Y414710D01*
X149695D01*
Y417250D01*
X144615D01*
Y414710D01*
X142075D01*
Y409630D01*
X144615D01*
X164615Y369630D02*
Y367090D01*
X169695D01*
Y369630D01*
X172235D01*
Y374710D01*
X169695D01*
Y377250D01*
X164615D01*
Y374710D01*
X162075D01*
Y369630D01*
X164615D01*
X144615Y329630D02*
Y327090D01*
X149695D01*
Y329630D01*
X152235D01*
Y334710D01*
X149695D01*
Y337250D01*
X144615D01*
Y334710D01*
X142075D01*
Y329630D01*
X144615D01*
X164615Y209630D02*
Y207090D01*
X169695D01*
Y209630D01*
X172235D01*
Y214710D01*
X169695D01*
Y217250D01*
X164615D01*
Y214710D01*
X162075D01*
Y209630D01*
X164615D01*
X144615Y169630D02*
Y167090D01*
X149695D01*
Y169630D01*
X152235D01*
Y174710D01*
X149695D01*
Y177250D01*
X144615D01*
Y174710D01*
X142075D01*
Y169630D01*
X144615D01*
X164615Y129630D02*
Y127090D01*
X169695D01*
Y129630D01*
X172235D01*
Y134710D01*
X169695D01*
Y137250D01*
X164615D01*
Y134710D01*
X162075D01*
Y129630D01*
X164615D01*
X144615Y89630D02*
Y87090D01*
X149695D01*
Y89630D01*
X152235D01*
Y94710D01*
X149695D01*
Y97250D01*
X144615D01*
Y94710D01*
X142075D01*
Y89630D01*
X144615D01*
X164615Y49630D02*
Y47090D01*
X169695D01*
Y49630D01*
X172235D01*
Y54710D01*
X169695D01*
Y57250D01*
X164615D01*
Y54710D01*
X162075D01*
Y49630D01*
X164615D01*
X144615Y9630D02*
Y7090D01*
X149695D01*
Y9630D01*
X152235D01*
Y14710D01*
X149695D01*
Y17250D01*
X144615D01*
Y14710D01*
X142075D01*
Y9630D01*
X144615D01*
X124615Y1169630D02*
Y1167090D01*
X129695D01*
Y1169630D01*
X132235D01*
Y1174710D01*
X129695D01*
Y1177250D01*
X124615D01*
Y1174710D01*
X122075D01*
Y1169630D01*
X124615D01*
X104615Y1129630D02*
Y1127090D01*
X109695D01*
Y1129630D01*
X112235D01*
Y1134710D01*
X109695D01*
Y1137250D01*
X104615D01*
Y1134710D01*
X102075D01*
Y1129630D01*
X104615D01*
X124615Y1089630D02*
Y1087090D01*
X129695D01*
Y1089630D01*
X132235D01*
Y1094710D01*
X129695D01*
Y1097250D01*
X124615D01*
Y1094710D01*
X122075D01*
Y1089630D01*
X124615D01*
X104615Y1049630D02*
Y1047090D01*
X109695D01*
Y1049630D01*
X112235D01*
Y1054710D01*
X109695D01*
Y1057250D01*
X104615D01*
Y1054710D01*
X102075D01*
Y1049630D01*
X104615D01*
X124615Y1009630D02*
Y1007090D01*
X129695D01*
Y1009630D01*
X132235D01*
Y1014710D01*
X129695D01*
Y1017250D01*
X124615D01*
Y1014710D01*
X122075D01*
Y1009630D01*
X124615D01*
X104615Y969630D02*
Y967090D01*
X109695D01*
Y969630D01*
X112235D01*
Y974710D01*
X109695D01*
Y977250D01*
X104615D01*
Y974710D01*
X102075D01*
Y969630D01*
X104615D01*
X124615Y929630D02*
Y927090D01*
X129695D01*
Y929630D01*
X132235D01*
Y934710D01*
X129695D01*
Y937250D01*
X124615D01*
Y934710D01*
X122075D01*
Y929630D01*
X124615D01*
Y209630D02*
Y207090D01*
X129695D01*
Y209630D01*
X132235D01*
Y214710D01*
X129695D01*
Y217250D01*
X124615D01*
Y214710D01*
X122075D01*
Y209630D01*
X124615D01*
X104615Y169630D02*
Y167090D01*
X109695D01*
Y169630D01*
X112235D01*
Y174710D01*
X109695D01*
Y177250D01*
X104615D01*
Y174710D01*
X102075D01*
Y169630D01*
X104615D01*
X124615Y129630D02*
Y127090D01*
X129695D01*
Y129630D01*
X132235D01*
Y134710D01*
X129695D01*
Y137250D01*
X124615D01*
Y134710D01*
X122075D01*
Y129630D01*
X124615D01*
X104615Y89630D02*
Y87090D01*
X109695D01*
Y89630D01*
X112235D01*
Y94710D01*
X109695D01*
Y97250D01*
X104615D01*
Y94710D01*
X102075D01*
Y89630D01*
X104615D01*
X124615Y49630D02*
Y47090D01*
X129695D01*
Y49630D01*
X132235D01*
Y54710D01*
X129695D01*
Y57250D01*
X124615D01*
Y54710D01*
X122075D01*
Y49630D01*
X124615D01*
X104615Y9630D02*
Y7090D01*
X109695D01*
Y9630D01*
X112235D01*
Y14710D01*
X109695D01*
Y17250D01*
X104615D01*
Y14710D01*
X102075D01*
Y9630D01*
X104615D01*
X84615Y1169630D02*
Y1167090D01*
X89695D01*
Y1169630D01*
X92235D01*
Y1174710D01*
X89695D01*
Y1177250D01*
X84615D01*
Y1174710D01*
X82075D01*
Y1169630D01*
X84615D01*
X64615Y1129630D02*
Y1127090D01*
X69695D01*
Y1129630D01*
X72235D01*
Y1134710D01*
X69695D01*
Y1137250D01*
X64615D01*
Y1134710D01*
X62075D01*
Y1129630D01*
X64615D01*
X84615Y1089630D02*
Y1087090D01*
X89695D01*
Y1089630D01*
X92235D01*
Y1094710D01*
X89695D01*
Y1097250D01*
X84615D01*
Y1094710D01*
X82075D01*
Y1089630D01*
X84615D01*
X64615Y1049630D02*
Y1047090D01*
X69695D01*
Y1049630D01*
X72235D01*
Y1054710D01*
X69695D01*
Y1057250D01*
X64615D01*
Y1054710D01*
X62075D01*
Y1049630D01*
X64615D01*
X84615Y1009630D02*
Y1007090D01*
X89695D01*
Y1009630D01*
X92235D01*
Y1014710D01*
X89695D01*
Y1017250D01*
X84615D01*
Y1014710D01*
X82075D01*
Y1009630D01*
X84615D01*
X64615Y889630D02*
Y887090D01*
X69695D01*
Y889630D01*
X72235D01*
Y894710D01*
X69695D01*
Y897250D01*
X64615D01*
Y894710D01*
X62075D01*
Y889630D01*
X64615D01*
X84615Y769630D02*
Y767090D01*
X89695D01*
Y769630D01*
X92235D01*
Y774710D01*
X89695D01*
Y777250D01*
X84615D01*
Y774710D01*
X82075D01*
Y769630D01*
X84615D01*
X64615Y729630D02*
Y727090D01*
X69695D01*
Y729630D01*
X72235D01*
Y734710D01*
X69695D01*
Y737250D01*
X64615D01*
Y734710D01*
X62075D01*
Y729630D01*
X64615D01*
X84615Y689630D02*
Y687090D01*
X89695D01*
Y689630D01*
X92235D01*
Y694710D01*
X89695D01*
Y697250D01*
X84615D01*
Y694710D01*
X82075D01*
Y689630D01*
X84615D01*
X64615Y649630D02*
Y647090D01*
X69695D01*
Y649630D01*
X72235D01*
Y654710D01*
X69695D01*
Y657250D01*
X64615D01*
Y654710D01*
X62075D01*
Y649630D01*
X64615D01*
X84615Y609630D02*
Y607090D01*
X89695D01*
Y609630D01*
X92235D01*
Y614710D01*
X89695D01*
Y617250D01*
X84615D01*
Y614710D01*
X82075D01*
Y609630D01*
X84615D01*
X64615Y569630D02*
Y567090D01*
X69695D01*
Y569630D01*
X72235D01*
Y574710D01*
X69695D01*
Y577250D01*
X64615D01*
Y574710D01*
X62075D01*
Y569630D01*
X64615D01*
X84615Y529630D02*
Y527090D01*
X89695D01*
Y529630D01*
X92235D01*
Y534710D01*
X89695D01*
Y537250D01*
X84615D01*
Y534710D01*
X82075D01*
Y529630D01*
X84615D01*
X64615Y489630D02*
Y487090D01*
X69695D01*
Y489630D01*
X72235D01*
Y494710D01*
X69695D01*
Y497250D01*
X64615D01*
Y494710D01*
X62075D01*
Y489630D01*
X64615D01*
X84615Y449630D02*
Y447090D01*
X89695D01*
Y449630D01*
X92235D01*
Y454710D01*
X89695D01*
Y457250D01*
X84615D01*
Y454710D01*
X82075D01*
Y449630D01*
X84615D01*
X64615Y409630D02*
Y407090D01*
X69695D01*
Y409630D01*
X72235D01*
Y414710D01*
X69695D01*
Y417250D01*
X64615D01*
Y414710D01*
X62075D01*
Y409630D01*
X64615D01*
X84615Y369630D02*
Y367090D01*
X89695D01*
Y369630D01*
X92235D01*
Y374710D01*
X89695D01*
Y377250D01*
X84615D01*
Y374710D01*
X82075D01*
Y369630D01*
X84615D01*
X64615Y329630D02*
Y327090D01*
X69695D01*
Y329630D01*
X72235D01*
Y334710D01*
X69695D01*
Y337250D01*
X64615D01*
Y334710D01*
X62075D01*
Y329630D01*
X64615D01*
X84615Y289630D02*
Y287090D01*
X89695D01*
Y289630D01*
X92235D01*
Y294710D01*
X89695D01*
Y297250D01*
X84615D01*
Y294710D01*
X82075D01*
Y289630D01*
X84615D01*
X64615Y249630D02*
Y247090D01*
X69695D01*
Y249630D01*
X72235D01*
Y254710D01*
X69695D01*
Y257250D01*
X64615D01*
Y254710D01*
X62075D01*
Y249630D01*
X64615D01*
X84615Y209630D02*
Y207090D01*
X89695D01*
Y209630D01*
X92235D01*
Y214710D01*
X89695D01*
Y217250D01*
X84615D01*
Y214710D01*
X82075D01*
Y209630D01*
X84615D01*
X64615Y169630D02*
Y167090D01*
X69695D01*
Y169630D01*
X72235D01*
Y174710D01*
X69695D01*
Y177250D01*
X64615D01*
Y174710D01*
X62075D01*
Y169630D01*
X64615D01*
X84615Y129630D02*
Y127090D01*
X89695D01*
Y129630D01*
X92235D01*
Y134710D01*
X89695D01*
Y137250D01*
X84615D01*
Y134710D01*
X82075D01*
Y129630D01*
X84615D01*
X64615Y89630D02*
Y87090D01*
X69695D01*
Y89630D01*
X72235D01*
Y94710D01*
X69695D01*
Y97250D01*
X64615D01*
Y94710D01*
X62075D01*
Y89630D01*
X64615D01*
X84615Y49630D02*
Y47090D01*
X89695D01*
Y49630D01*
X92235D01*
Y54710D01*
X89695D01*
Y57250D01*
X84615D01*
Y54710D01*
X82075D01*
Y49630D01*
X84615D01*
X64615Y9630D02*
Y7090D01*
X69695D01*
Y9630D01*
X72235D01*
Y14710D01*
X69695D01*
Y17250D01*
X64615D01*
Y14710D01*
X62075D01*
Y9630D01*
X64615D01*
X24615Y1129630D02*
Y1127090D01*
X29695D01*
Y1129630D01*
X32235D01*
Y1134710D01*
X29695D01*
Y1137250D01*
X24615D01*
Y1134710D01*
X22075D01*
Y1129630D01*
X24615D01*
X44615Y1089630D02*
Y1087090D01*
X49695D01*
Y1089630D01*
X52235D01*
Y1094710D01*
X49695D01*
Y1097250D01*
X44615D01*
Y1094710D01*
X42075D01*
Y1089630D01*
X44615D01*
X24615Y1049630D02*
Y1047090D01*
X29695D01*
Y1049630D01*
X32235D01*
Y1054710D01*
X29695D01*
Y1057250D01*
X24615D01*
Y1054710D01*
X22075D01*
Y1049630D01*
X24615D01*
X44615Y1009630D02*
Y1007090D01*
X49695D01*
Y1009630D01*
X52235D01*
Y1014710D01*
X49695D01*
Y1017250D01*
X44615D01*
Y1014710D01*
X42075D01*
Y1009630D01*
X44615D01*
Y929630D02*
Y927090D01*
X49695D01*
Y929630D01*
X52235D01*
Y934710D01*
X49695D01*
Y937250D01*
X44615D01*
Y934710D01*
X42075D01*
Y929630D01*
X44615D01*
X24615Y889630D02*
Y887090D01*
X29695D01*
Y889630D01*
X32235D01*
Y894710D01*
X29695D01*
Y897250D01*
X24615D01*
Y894710D01*
X22075D01*
Y889630D01*
X24615D01*
X44615Y849630D02*
Y847090D01*
X49695D01*
Y849630D01*
X52235D01*
Y854710D01*
X49695D01*
Y857250D01*
X44615D01*
Y854710D01*
X42075D01*
Y849630D01*
X44615D01*
Y769630D02*
Y767090D01*
X49695D01*
Y769630D01*
X52235D01*
Y774710D01*
X49695D01*
Y777250D01*
X44615D01*
Y774710D01*
X42075D01*
Y769630D01*
X44615D01*
X24615Y729630D02*
Y727090D01*
X29695D01*
Y729630D01*
X32235D01*
Y734710D01*
X29695D01*
Y737250D01*
X24615D01*
Y734710D01*
X22075D01*
Y729630D01*
X24615D01*
X44615Y689630D02*
Y687090D01*
X49695D01*
Y689630D01*
X52235D01*
Y694710D01*
X49695D01*
Y697250D01*
X44615D01*
Y694710D01*
X42075D01*
Y689630D01*
X44615D01*
X24615Y649630D02*
Y647090D01*
X29695D01*
Y649630D01*
X32235D01*
Y654710D01*
X29695D01*
Y657250D01*
X24615D01*
Y654710D01*
X22075D01*
Y649630D01*
X24615D01*
X44615Y609630D02*
Y607090D01*
X49695D01*
Y609630D01*
X52235D01*
Y614710D01*
X49695D01*
Y617250D01*
X44615D01*
Y614710D01*
X42075D01*
Y609630D01*
X44615D01*
X24615Y569630D02*
Y567090D01*
X29695D01*
Y569630D01*
X32235D01*
Y574710D01*
X29695D01*
Y577250D01*
X24615D01*
Y574710D01*
X22075D01*
Y569630D01*
X24615D01*
X44615Y529630D02*
Y527090D01*
X49695D01*
Y529630D01*
X52235D01*
Y534710D01*
X49695D01*
Y537250D01*
X44615D01*
Y534710D01*
X42075D01*
Y529630D01*
X44615D01*
X24615Y489630D02*
Y487090D01*
X29695D01*
Y489630D01*
X32235D01*
Y494710D01*
X29695D01*
Y497250D01*
X24615D01*
Y494710D01*
X22075D01*
Y489630D01*
X24615D01*
X44615Y449630D02*
Y447090D01*
X49695D01*
Y449630D01*
X52235D01*
Y454710D01*
X49695D01*
Y457250D01*
X44615D01*
Y454710D01*
X42075D01*
Y449630D01*
X44615D01*
X24615Y409630D02*
Y407090D01*
X29695D01*
Y409630D01*
X32235D01*
Y414710D01*
X29695D01*
Y417250D01*
X24615D01*
Y414710D01*
X22075D01*
Y409630D01*
X24615D01*
X44615Y369630D02*
Y367090D01*
X49695D01*
Y369630D01*
X52235D01*
Y374710D01*
X49695D01*
Y377250D01*
X44615D01*
Y374710D01*
X42075D01*
Y369630D01*
X44615D01*
X24615Y329630D02*
Y327090D01*
X29695D01*
Y329630D01*
X32235D01*
Y334710D01*
X29695D01*
Y337250D01*
X24615D01*
Y334710D01*
X22075D01*
Y329630D01*
X24615D01*
X44615Y289630D02*
Y287090D01*
X49695D01*
Y289630D01*
X52235D01*
Y294710D01*
X49695D01*
Y297250D01*
X44615D01*
Y294710D01*
X42075D01*
Y289630D01*
X44615D01*
X24615Y249630D02*
Y247090D01*
X29695D01*
Y249630D01*
X32235D01*
Y254710D01*
X29695D01*
Y257250D01*
X24615D01*
Y254710D01*
X22075D01*
Y249630D01*
X24615D01*
X44615Y209630D02*
Y207090D01*
X49695D01*
Y209630D01*
X52235D01*
Y214710D01*
X49695D01*
Y217250D01*
X44615D01*
Y214710D01*
X42075D01*
Y209630D01*
X44615D01*
X24615Y169630D02*
Y167090D01*
X29695D01*
Y169630D01*
X32235D01*
Y174710D01*
X29695D01*
Y177250D01*
X24615D01*
Y174710D01*
X22075D01*
Y169630D01*
X24615D01*
X44615Y129630D02*
Y127090D01*
X49695D01*
Y129630D01*
X52235D01*
Y134710D01*
X49695D01*
Y137250D01*
X44615D01*
Y134710D01*
X42075D01*
Y129630D01*
X44615D01*
X24615Y89630D02*
Y87090D01*
X29695D01*
Y89630D01*
X32235D01*
Y94710D01*
X29695D01*
Y97250D01*
X24615D01*
Y94710D01*
X22075D01*
Y89630D01*
X24615D01*
X1762715Y331087D02*
Y328547D01*
X1767795D01*
Y331087D01*
X1770335D01*
Y336167D01*
X1767795D01*
Y338707D01*
X1762715D01*
Y336167D01*
X1760175D01*
Y331087D01*
X1762715D01*
Y313162D02*
Y310622D01*
X1767795D01*
Y313162D01*
X1770335D01*
Y318242D01*
X1767795D01*
Y320782D01*
X1762715D01*
Y318242D01*
X1760175D01*
Y313162D01*
X1762715D01*
Y322124D02*
Y319584D01*
X1767795D01*
Y322124D01*
X1770335D01*
Y327204D01*
X1767795D01*
Y329744D01*
X1762715D01*
Y327204D01*
X1760175D01*
Y322124D01*
X1762715D01*
Y304199D02*
Y301659D01*
X1767795D01*
Y304199D01*
X1770335D01*
Y309279D01*
X1767795D01*
Y311819D01*
X1762715D01*
Y309279D01*
X1760175D01*
Y304199D01*
X1762715D01*
X1754580Y322304D02*
Y319764D01*
X1759660D01*
Y322304D01*
X1762200D01*
Y327384D01*
X1759660D01*
Y329924D01*
X1754580D01*
Y327384D01*
X1752040D01*
Y322304D01*
X1754580D01*
Y313410D02*
Y310870D01*
X1759660D01*
Y313410D01*
X1762200D01*
Y318490D01*
X1759660D01*
Y321030D01*
X1754580D01*
Y318490D01*
X1752040D01*
Y313410D01*
X1754580D01*
Y304516D02*
Y301976D01*
X1759660D01*
Y304516D01*
X1762200D01*
Y309596D01*
X1759660D01*
Y312136D01*
X1754580D01*
Y309596D01*
X1752040D01*
Y304516D01*
X1754580D01*
Y331198D02*
Y328658D01*
X1759660D01*
Y331198D01*
X1762200D01*
Y336278D01*
X1759660D01*
Y338818D01*
X1754580D01*
Y336278D01*
X1752040D01*
Y331198D01*
X1754580D01*
X988793Y710460D02*
Y707920D01*
X993873D01*
Y710460D01*
X996413D01*
Y715540D01*
X993873D01*
Y718080D01*
X988793D01*
Y715540D01*
X986253D01*
Y710460D01*
X988793D01*
X988256Y728170D02*
Y725630D01*
X993336D01*
Y728170D01*
X995876D01*
Y733250D01*
X993336D01*
Y735790D01*
X988256D01*
Y733250D01*
X985716D01*
Y728170D01*
X988256D01*
X977912Y710460D02*
Y707920D01*
X982992D01*
Y710460D01*
X985532D01*
Y715540D01*
X982992D01*
Y718080D01*
X977912D01*
Y715540D01*
X975372D01*
Y710460D01*
X977912D01*
X977375Y728170D02*
Y725630D01*
X982455D01*
Y728170D01*
X984995D01*
Y733250D01*
X982455D01*
Y735790D01*
X977375D01*
Y733250D01*
X974835D01*
Y728170D01*
X977375D01*
X282589Y755344D02*
Y752804D01*
X287669D01*
Y755344D01*
X290209D01*
Y760424D01*
X287669D01*
Y762964D01*
X282589D01*
Y760424D01*
X280049D01*
Y755344D01*
X282589D01*
X293379Y755566D02*
Y753026D01*
X298459D01*
Y755566D01*
X300999D01*
Y760646D01*
X298459D01*
Y763186D01*
X293379D01*
Y760646D01*
X290839D01*
Y755566D01*
X293379D01*
X293306Y738078D02*
Y735538D01*
X298386D01*
Y738078D01*
X300926D01*
Y743158D01*
X298386D01*
Y745698D01*
X293306D01*
Y743158D01*
X290766D01*
Y738078D01*
X293306D01*
X282961Y738376D02*
Y735836D01*
X288041D01*
Y738376D01*
X290581D01*
Y743456D01*
X288041D01*
Y745996D01*
X282961D01*
Y743456D01*
X280421D01*
Y738376D01*
X282961D01*
X287914Y746468D02*
Y743928D01*
X292994D01*
Y746468D01*
X295534D01*
Y751548D01*
X292994D01*
Y754088D01*
X287914D01*
Y751548D01*
X285374D01*
Y746468D01*
X287914D01*
X536827Y752460D02*
Y749920D01*
X541907D01*
Y752460D01*
X544447D01*
Y757540D01*
X541907D01*
Y760080D01*
X536827D01*
Y757540D01*
X534287D01*
Y752460D01*
X536827D01*
X522775D02*
Y749920D01*
X527855D01*
Y752460D01*
X530395D01*
Y757540D01*
X527855D01*
Y760080D01*
X522775D01*
Y757540D01*
X520235D01*
Y752460D01*
X522775D01*
X873460Y709460D02*
Y706920D01*
X878540D01*
Y709460D01*
X881080D01*
Y714540D01*
X878540D01*
Y717080D01*
X873460D01*
Y714540D01*
X870920D01*
Y709460D01*
X873460D01*
X881460D02*
Y706920D01*
X886540D01*
Y709460D01*
X889080D01*
Y714540D01*
X886540D01*
Y717080D01*
X881460D01*
Y714540D01*
X878920D01*
Y709460D01*
X881460D01*
X873460Y726460D02*
Y723920D01*
X878540D01*
Y726460D01*
X881080D01*
Y731540D01*
X878540D01*
Y734080D01*
X873460D01*
Y731540D01*
X870920D01*
Y726460D01*
X873460D01*
X881460D02*
Y723920D01*
X886540D01*
Y726460D01*
X889080D01*
Y731540D01*
X886540D01*
Y734080D01*
X881460D01*
Y731540D01*
X878920D01*
Y726460D01*
X881460D01*
X1854598Y955460D02*
Y952920D01*
X1859678D01*
Y955460D01*
X1862218D01*
Y960540D01*
X1859678D01*
Y963080D01*
X1854598D01*
Y960540D01*
X1852058D01*
Y955460D01*
X1854598D01*
X1838193D02*
Y952920D01*
X1843273D01*
Y955460D01*
X1845813D01*
Y960540D01*
X1843273D01*
Y963080D01*
X1838193D01*
Y960540D01*
X1835653D01*
Y955460D01*
X1838193D01*
X1846507Y960678D02*
Y958138D01*
X1851587D01*
Y960678D01*
X1854127D01*
Y965758D01*
X1851587D01*
Y968298D01*
X1846507D01*
Y965758D01*
X1843967D01*
Y960678D01*
X1846507D01*
X1855016Y965460D02*
Y962920D01*
X1860096D01*
Y965460D01*
X1862636D01*
Y970540D01*
X1860096D01*
Y973080D01*
X1855016D01*
Y970540D01*
X1852476D01*
Y965460D01*
X1855016D01*
X1837710D02*
Y962920D01*
X1842790D01*
Y965460D01*
X1845330D01*
Y970540D01*
X1842790D01*
Y973080D01*
X1837710D01*
Y970540D01*
X1835170D01*
Y965460D01*
X1837710D01*
X1837684Y813040D02*
Y810500D01*
X1842764D01*
Y813040D01*
X1845304D01*
Y818120D01*
X1842764D01*
Y820660D01*
X1837684D01*
Y818120D01*
X1835144D01*
Y813040D01*
X1837684D01*
X1854089D02*
Y810500D01*
X1859169D01*
Y813040D01*
X1861709D01*
Y818120D01*
X1859169D01*
Y820660D01*
X1854089D01*
Y818120D01*
X1851549D01*
Y813040D01*
X1854089D01*
X1845998Y818258D02*
Y815718D01*
X1851078D01*
Y818258D01*
X1853618D01*
Y823338D01*
X1851078D01*
Y825878D01*
X1845998D01*
Y823338D01*
X1843458D01*
Y818258D01*
X1845998D01*
X1837201Y823040D02*
Y820500D01*
X1842281D01*
Y823040D01*
X1844821D01*
Y828120D01*
X1842281D01*
Y830660D01*
X1837201D01*
Y828120D01*
X1834661D01*
Y823040D01*
X1837201D01*
X1854507D02*
Y820500D01*
X1859587D01*
Y823040D01*
X1862127D01*
Y828120D01*
X1859587D01*
Y830660D01*
X1854507D01*
Y828120D01*
X1851967D01*
Y823040D01*
X1854507D01*
X1390881Y1192630D02*
Y1190090D01*
X1395961D01*
Y1192630D01*
X1398501D01*
Y1197710D01*
X1395961D01*
Y1200250D01*
X1390881D01*
Y1197710D01*
X1388341D01*
Y1192630D01*
X1390881D01*
X1400881Y1193113D02*
Y1190573D01*
X1405961D01*
Y1193113D01*
X1408501D01*
Y1198193D01*
X1405961D01*
Y1200733D01*
X1400881D01*
Y1198193D01*
X1398341D01*
Y1193113D01*
X1400881D01*
X1395663Y1201427D02*
Y1198887D01*
X1400743D01*
Y1201427D01*
X1403283D01*
Y1206507D01*
X1400743D01*
Y1209047D01*
X1395663D01*
Y1206507D01*
X1393123D01*
Y1201427D01*
X1395663D01*
X1400881Y1209518D02*
Y1206978D01*
X1405961D01*
Y1209518D01*
X1408501D01*
Y1214598D01*
X1405961D01*
Y1217138D01*
X1400881D01*
Y1214598D01*
X1398341D01*
Y1209518D01*
X1400881D01*
X1390881Y1209936D02*
Y1207396D01*
X1395961D01*
Y1209936D01*
X1398501D01*
Y1215016D01*
X1395961D01*
Y1217556D01*
X1390881D01*
Y1215016D01*
X1388341D01*
Y1209936D01*
X1390881D01*
X1223304Y1192908D02*
Y1190368D01*
X1228384D01*
Y1192908D01*
X1230924D01*
Y1197988D01*
X1228384D01*
Y1200528D01*
X1223304D01*
Y1197988D01*
X1220764D01*
Y1192908D01*
X1223304D01*
Y1210214D02*
Y1207674D01*
X1228384D01*
Y1210214D01*
X1230924D01*
Y1215294D01*
X1228384D01*
Y1217834D01*
X1223304D01*
Y1215294D01*
X1220764D01*
Y1210214D01*
X1223304D01*
X1233304Y1193391D02*
Y1190851D01*
X1238384D01*
Y1193391D01*
X1240924D01*
Y1198471D01*
X1238384D01*
Y1201011D01*
X1233304D01*
Y1198471D01*
X1230764D01*
Y1193391D01*
X1233304D01*
X1228086Y1201705D02*
Y1199165D01*
X1233166D01*
Y1201705D01*
X1235706D01*
Y1206785D01*
X1233166D01*
Y1209325D01*
X1228086D01*
Y1206785D01*
X1225546D01*
Y1201705D01*
X1228086D01*
X1233304Y1209796D02*
Y1207256D01*
X1238384D01*
Y1209796D01*
X1240924D01*
Y1214876D01*
X1238384D01*
Y1217416D01*
X1233304D01*
Y1214876D01*
X1230764D01*
Y1209796D01*
X1233304D01*
X1306218Y842471D02*
Y839931D01*
X1311298D01*
Y842471D01*
X1313838D01*
Y847551D01*
X1311298D01*
Y850091D01*
X1306218D01*
Y847551D01*
X1303678D01*
Y842471D01*
X1306218D01*
X1223506Y694817D02*
Y692277D01*
X1228586D01*
Y694817D01*
X1231126D01*
Y699897D01*
X1228586D01*
Y702437D01*
X1223506D01*
Y699897D01*
X1220966D01*
Y694817D01*
X1223506D01*
X1108731Y741136D02*
Y738596D01*
X1113811D01*
Y741136D01*
X1116351D01*
Y746216D01*
X1113811D01*
Y748756D01*
X1108731D01*
Y746216D01*
X1106191D01*
Y741136D01*
X1108731D01*
X1097160Y817778D02*
Y815238D01*
X1102240D01*
Y817778D01*
X1104780D01*
Y822858D01*
X1102240D01*
Y825398D01*
X1097160D01*
Y822858D01*
X1094620D01*
Y817778D01*
X1097160D01*
X531492Y1025693D02*
Y1023153D01*
X536572D01*
Y1025693D01*
X539112D01*
Y1030773D01*
X536572D01*
Y1033313D01*
X531492D01*
Y1030773D01*
X528952D01*
Y1025693D01*
X531492D01*
X1149735Y859960D02*
Y857420D01*
X1154815D01*
Y859960D01*
X1157355D01*
Y865040D01*
X1154815D01*
Y867580D01*
X1149735D01*
Y865040D01*
X1147195D01*
Y859960D01*
X1149735D01*
X1188870D02*
Y857420D01*
X1193950D01*
Y859960D01*
X1196490D01*
Y865040D01*
X1193950D01*
Y867580D01*
X1188870D01*
Y865040D01*
X1186330D01*
Y859960D01*
X1188870D01*
X1492548Y576514D02*
Y573974D01*
X1497628D01*
Y576514D01*
X1500168D01*
Y581594D01*
X1497628D01*
Y584134D01*
X1492548D01*
Y581594D01*
X1490008D01*
Y576514D01*
X1492548D01*
X1492437Y592926D02*
Y590386D01*
X1497517D01*
Y592926D01*
X1500057D01*
Y598006D01*
X1497517D01*
Y600546D01*
X1492437D01*
Y598006D01*
X1489897D01*
Y592926D01*
X1492437D01*
X1342281Y870562D02*
Y868022D01*
X1347361D01*
Y870562D01*
X1349901D01*
Y875642D01*
X1347361D01*
Y878182D01*
X1342281D01*
Y875642D01*
X1339741D01*
Y870562D01*
X1342281D01*
X1002199Y673407D02*
Y670867D01*
X1007279D01*
Y673407D01*
X1009819D01*
Y678487D01*
X1007279D01*
Y681027D01*
X1002199D01*
Y678487D01*
X999659D01*
Y673407D01*
X1002199D01*
X952969Y653645D02*
Y651105D01*
X958049D01*
Y653645D01*
X960589D01*
Y658725D01*
X958049D01*
Y661265D01*
X952969D01*
Y658725D01*
X950429D01*
Y653645D01*
X952969D01*
X987150D02*
Y651105D01*
X992230D01*
Y653645D01*
X994770D01*
Y658725D01*
X992230D01*
Y661265D01*
X987150D01*
Y658725D01*
X984610D01*
Y653645D01*
X987150D01*
X916767D02*
Y651105D01*
X921847D01*
Y653645D01*
X924387D01*
Y658725D01*
X921847D01*
Y661265D01*
X916767D01*
Y658725D01*
X914227D01*
Y653645D01*
X916767D01*
X1648197Y466208D02*
Y463668D01*
X1653277D01*
Y466208D01*
X1655817D01*
Y471288D01*
X1653277D01*
Y473828D01*
X1648197D01*
Y471288D01*
X1645657D01*
Y466208D01*
X1648197D01*
X1646914Y670261D02*
Y667721D01*
X1651994D01*
Y670261D01*
X1654534D01*
Y675341D01*
X1651994D01*
Y677881D01*
X1646914D01*
Y675341D01*
X1644374D01*
Y670261D01*
X1646914D01*
X1646552Y698709D02*
Y696169D01*
X1651632D01*
Y698709D01*
X1654172D01*
Y703789D01*
X1651632D01*
Y706329D01*
X1646552D01*
Y703789D01*
X1644012D01*
Y698709D01*
X1646552D01*
X1647119Y683975D02*
Y681435D01*
X1652199D01*
Y683975D01*
X1654739D01*
Y689055D01*
X1652199D01*
Y691595D01*
X1647119D01*
Y689055D01*
X1644579D01*
Y683975D01*
X1647119D01*
X1720099Y511460D02*
Y508920D01*
X1725179D01*
Y511460D01*
X1727719D01*
Y516540D01*
X1725179D01*
Y519080D01*
X1720099D01*
Y516540D01*
X1717559D01*
Y511460D01*
X1720099D01*
X1697747D02*
Y508920D01*
X1702827D01*
Y511460D01*
X1705367D01*
Y516540D01*
X1702827D01*
Y519080D01*
X1697747D01*
Y516540D01*
X1695207D01*
Y511460D01*
X1697747D01*
X1674125D02*
Y508920D01*
X1679205D01*
Y511460D01*
X1681745D01*
Y516540D01*
X1679205D01*
Y519080D01*
X1674125D01*
Y516540D01*
X1671585D01*
Y511460D01*
X1674125D01*
X1673987Y527460D02*
Y524920D01*
X1679067D01*
Y527460D01*
X1681607D01*
Y532540D01*
X1679067D01*
Y535080D01*
X1673987D01*
Y532540D01*
X1671447D01*
Y527460D01*
X1673987D01*
X1697609D02*
Y524920D01*
X1702689D01*
Y527460D01*
X1705229D01*
Y532540D01*
X1702689D01*
Y535080D01*
X1697609D01*
Y532540D01*
X1695069D01*
Y527460D01*
X1697609D01*
X1719961D02*
Y524920D01*
X1725041D01*
Y527460D01*
X1727581D01*
Y532540D01*
X1725041D01*
Y535080D01*
X1719961D01*
Y532540D01*
X1717421D01*
Y527460D01*
X1719961D01*
X1679860Y704306D02*
Y701766D01*
X1684940D01*
Y704306D01*
X1687480D01*
Y709386D01*
X1684940D01*
Y711926D01*
X1679860D01*
Y709386D01*
X1677320D01*
Y704306D01*
X1679860D01*
X1690502Y733853D02*
Y731313D01*
X1695582D01*
Y733853D01*
X1698122D01*
Y738933D01*
X1695582D01*
Y741473D01*
X1690502D01*
Y738933D01*
X1687962D01*
Y733853D01*
X1690502D01*
X1671439Y733445D02*
Y730905D01*
X1676519D01*
Y733445D01*
X1679059D01*
Y738525D01*
X1676519D01*
Y741065D01*
X1671439D01*
Y738525D01*
X1668899D01*
Y733445D01*
X1671439D01*
X1723570Y746849D02*
Y744309D01*
X1728650D01*
Y746849D01*
X1731190D01*
Y751929D01*
X1728650D01*
Y754469D01*
X1723570D01*
Y751929D01*
X1721030D01*
Y746849D01*
X1723570D01*
X1786199Y609210D02*
Y606670D01*
X1791279D01*
Y609210D01*
X1793819D01*
Y614290D01*
X1791279D01*
Y616830D01*
X1786199D01*
Y614290D01*
X1783659D01*
Y609210D01*
X1786199D01*
X1751317Y628192D02*
Y625652D01*
X1756397D01*
Y628192D01*
X1758937D01*
Y633272D01*
X1756397D01*
Y635812D01*
X1751317D01*
Y633272D01*
X1748777D01*
Y628192D01*
X1751317D01*
X1723617Y729960D02*
Y727420D01*
X1728697D01*
Y729960D01*
X1731237D01*
Y735040D01*
X1728697D01*
Y737580D01*
X1723617D01*
Y735040D01*
X1721077D01*
Y729960D01*
X1723617D01*
X1728378Y700284D02*
Y697744D01*
X1733458D01*
Y700284D01*
X1735998D01*
Y705364D01*
X1733458D01*
Y707904D01*
X1728378D01*
Y705364D01*
X1725838D01*
Y700284D01*
X1728378D01*
X1712192Y672620D02*
Y670080D01*
X1717272D01*
Y672620D01*
X1719812D01*
Y677700D01*
X1717272D01*
Y680240D01*
X1712192D01*
Y677700D01*
X1709652D01*
Y672620D01*
X1712192D01*
X1672355Y548342D02*
Y545802D01*
X1677435D01*
Y548342D01*
X1679975D01*
Y553422D01*
X1677435D01*
Y555962D01*
X1672355D01*
Y553422D01*
X1669815D01*
Y548342D01*
X1672355D01*
X1672147Y565775D02*
Y563235D01*
X1677227D01*
Y565775D01*
X1679767D01*
Y570855D01*
X1677227D01*
Y573395D01*
X1672147D01*
Y570855D01*
X1669607D01*
Y565775D01*
X1672147D01*
X1050520Y805760D02*
Y803220D01*
X1055600D01*
Y805760D01*
X1058140D01*
Y810840D01*
X1055600D01*
Y813380D01*
X1050520D01*
Y810840D01*
X1047980D01*
Y805760D01*
X1050520D01*
X1420756Y734916D02*
Y732376D01*
X1425836D01*
Y734916D01*
X1428376D01*
Y739996D01*
X1425836D01*
Y742536D01*
X1420756D01*
Y739996D01*
X1418216D01*
Y734916D01*
X1420756D01*
X617619Y1032820D02*
Y1030280D01*
X622699D01*
Y1032820D01*
X625239D01*
Y1037900D01*
X622699D01*
Y1040440D01*
X617619D01*
Y1037900D01*
X615079D01*
Y1032820D01*
X617619D01*
X534860Y1042460D02*
Y1039920D01*
X539940D01*
Y1042460D01*
X542480D01*
Y1047540D01*
X539940D01*
Y1050080D01*
X534860D01*
Y1047540D01*
X532320D01*
Y1042460D01*
X534860D01*
X1323189Y855504D02*
Y852964D01*
X1328269D01*
Y855504D01*
X1330809D01*
Y860584D01*
X1328269D01*
Y863124D01*
X1323189D01*
Y860584D01*
X1320649D01*
Y855504D01*
X1323189D01*
X1245709Y877690D02*
Y875150D01*
X1250789D01*
Y877690D01*
X1253329D01*
Y882770D01*
X1250789D01*
Y885310D01*
X1245709D01*
Y882770D01*
X1243169D01*
Y877690D01*
X1245709D01*
X1206779Y877668D02*
Y875128D01*
X1211859D01*
Y877668D01*
X1214399D01*
Y882748D01*
X1211859D01*
Y885288D01*
X1206779D01*
Y882748D01*
X1204239D01*
Y877668D01*
X1206779D01*
X1014711Y917781D02*
Y915241D01*
X1019791D01*
Y917781D01*
X1022331D01*
Y922861D01*
X1019791D01*
Y925401D01*
X1014711D01*
Y922861D01*
X1012171D01*
Y917781D01*
X1014711D01*
X185783Y891583D02*
Y889044D01*
X190863D01*
Y891583D01*
X193403D01*
Y896664D01*
X190863D01*
Y899203D01*
X185783D01*
Y896664D01*
X183243D01*
Y891583D01*
X185783D01*
Y884083D02*
Y881544D01*
X190863D01*
Y884083D01*
X193403D01*
Y889164D01*
X190863D01*
Y891703D01*
X185783D01*
Y889164D01*
X183243D01*
Y884083D01*
X185783D01*
X1007641Y911407D02*
Y908867D01*
X1012721D01*
Y911407D01*
X1015261D01*
Y916487D01*
X1012721D01*
Y919027D01*
X1007641D01*
Y916487D01*
X1005101D01*
Y911407D01*
X1007641D01*
X1002338Y906104D02*
Y903564D01*
X1007418D01*
Y906104D01*
X1009958D01*
Y911184D01*
X1007418D01*
Y913724D01*
X1002338D01*
Y911184D01*
X999798D01*
Y906104D01*
X1002338D01*
X1277082Y693618D02*
Y691078D01*
X1282162D01*
Y693618D01*
X1284702D01*
Y698698D01*
X1282162D01*
Y701238D01*
X1277082D01*
Y698698D01*
X1274542D01*
Y693618D01*
X1277082D01*
X1279249Y747205D02*
Y744665D01*
X1284329D01*
Y747205D01*
X1286869D01*
Y752285D01*
X1284329D01*
Y754825D01*
X1279249D01*
Y752285D01*
X1276709D01*
Y747205D01*
X1279249D01*
X1280460Y906278D02*
Y903738D01*
X1285540D01*
Y906278D01*
X1288080D01*
Y911358D01*
X1285540D01*
Y913898D01*
X1280460D01*
Y911358D01*
X1277920D01*
Y906278D01*
X1280460D01*
X1071393Y947775D02*
Y945235D01*
X1076473D01*
Y947775D01*
X1079013D01*
Y952855D01*
X1076473D01*
Y955395D01*
X1071393D01*
Y952855D01*
X1068853D01*
Y947775D01*
X1071393D01*
X578169Y1042460D02*
Y1039920D01*
X583249D01*
Y1042460D01*
X585789D01*
Y1047540D01*
X583249D01*
Y1050080D01*
X578169D01*
Y1047540D01*
X575629D01*
Y1042460D01*
X578169D01*
X1250513Y590841D02*
Y588301D01*
X1255593D01*
Y590841D01*
X1258133D01*
Y595921D01*
X1255593D01*
Y598461D01*
X1250513D01*
Y595921D01*
X1247973D01*
Y590841D01*
X1250513D01*
X1379046Y487467D02*
Y484927D01*
X1384126D01*
Y487467D01*
X1386666D01*
Y492547D01*
X1384126D01*
Y495087D01*
X1379046D01*
Y492547D01*
X1376506D01*
Y487467D01*
X1379046D01*
X1226718Y579648D02*
Y577108D01*
X1231798D01*
Y579648D01*
X1234338D01*
Y584728D01*
X1231798D01*
Y587268D01*
X1226718D01*
Y584728D01*
X1224178D01*
Y579648D01*
X1226718D01*
X1312446Y786195D02*
Y783655D01*
X1317526D01*
Y786195D01*
X1320066D01*
Y791275D01*
X1317526D01*
Y793815D01*
X1312446D01*
Y791275D01*
X1309906D01*
Y786195D01*
X1312446D01*
X1319441Y822061D02*
Y819521D01*
X1324521D01*
Y822061D01*
X1327061D01*
Y827141D01*
X1324521D01*
Y829681D01*
X1319441D01*
Y827141D01*
X1316901D01*
Y822061D01*
X1319441D01*
X1376209Y861191D02*
Y858651D01*
X1381289D01*
Y861191D01*
X1383829D01*
Y866271D01*
X1381289D01*
Y868811D01*
X1376209D01*
Y866271D01*
X1373669D01*
Y861191D01*
X1376209D01*
X1315999Y898730D02*
Y896190D01*
X1321079D01*
Y898730D01*
X1323619D01*
Y903810D01*
X1321079D01*
Y906350D01*
X1315999D01*
Y903810D01*
X1313459D01*
Y898730D01*
X1315999D01*
X1156041Y951136D02*
Y948596D01*
X1161121D01*
Y951136D01*
X1163661D01*
Y956216D01*
X1161121D01*
Y958756D01*
X1156041D01*
Y956216D01*
X1153501D01*
Y951136D01*
X1156041D01*
X996499Y898991D02*
Y896451D01*
X1001579D01*
Y898991D01*
X1004119D01*
Y904071D01*
X1001579D01*
Y906611D01*
X996499D01*
Y904071D01*
X993959D01*
Y898991D01*
X996499D01*
X1152851Y659893D02*
Y657353D01*
X1157931D01*
Y659893D01*
X1160471D01*
Y664973D01*
X1157931D01*
Y667513D01*
X1152851D01*
Y664973D01*
X1150311D01*
Y659893D01*
X1152851D01*
X1276523Y840160D02*
Y837620D01*
X1281603D01*
Y840160D01*
X1284143D01*
Y845240D01*
X1281603D01*
Y847780D01*
X1276523D01*
Y845240D01*
X1273983D01*
Y840160D01*
X1276523D01*
X1342711Y496131D02*
Y493591D01*
X1347791D01*
Y496131D01*
X1350331D01*
Y501211D01*
X1347791D01*
Y503751D01*
X1342711D01*
Y501211D01*
X1340171D01*
Y496131D01*
X1342711D01*
X1427448Y412460D02*
Y409920D01*
X1432528D01*
Y412460D01*
X1435068D01*
Y417540D01*
X1432528D01*
Y420080D01*
X1427448D01*
Y417540D01*
X1424908D01*
Y412460D01*
X1427448D01*
X1410939D02*
Y409920D01*
X1416019D01*
Y412460D01*
X1418559D01*
Y417540D01*
X1416019D01*
Y420080D01*
X1410939D01*
Y417540D01*
X1408399D01*
Y412460D01*
X1410939D01*
X1394997D02*
Y409920D01*
X1400077D01*
Y412460D01*
X1402617D01*
Y417540D01*
X1400077D01*
Y420080D01*
X1394997D01*
Y417540D01*
X1392457D01*
Y412460D01*
X1394997D01*
X573792Y755248D02*
Y752708D01*
X578872D01*
Y755248D01*
X581412D01*
Y760328D01*
X578872D01*
Y762868D01*
X573792D01*
Y760328D01*
X571252D01*
Y755248D01*
X573792D01*
X377110Y835447D02*
Y832907D01*
X382190D01*
Y835447D01*
X384730D01*
Y840527D01*
X382190D01*
Y843067D01*
X377110D01*
Y840527D01*
X374570D01*
Y835447D01*
X377110D01*
X371398Y842053D02*
Y839513D01*
X376478D01*
Y842053D01*
X379018D01*
Y847133D01*
X376478D01*
Y849673D01*
X371398D01*
Y847133D01*
X368858D01*
Y842053D01*
X371398D01*
X476032Y834945D02*
Y832405D01*
X481112D01*
Y834945D01*
X483652D01*
Y840025D01*
X481112D01*
Y842565D01*
X476032D01*
Y840025D01*
X473492D01*
Y834945D01*
X476032D01*
X352654Y791609D02*
Y789069D01*
X357734D01*
Y791609D01*
X360275D01*
Y796689D01*
X357734D01*
Y799229D01*
X352654D01*
Y796689D01*
X350115D01*
Y791609D01*
X352654D01*
X476114Y856700D02*
Y854160D01*
X481194D01*
Y856700D01*
X483734D01*
Y861780D01*
X481194D01*
Y864320D01*
X476114D01*
Y861780D01*
X473574D01*
Y856700D01*
X476114D01*
X468119Y861172D02*
Y858632D01*
X473199D01*
Y861172D01*
X475739D01*
Y866252D01*
X473199D01*
Y868792D01*
X468119D01*
Y866252D01*
X465579D01*
Y861172D01*
X468119D01*
X451226Y815672D02*
Y813132D01*
X456306D01*
Y815672D01*
X458846D01*
Y820752D01*
X456306D01*
Y823292D01*
X451226D01*
Y820752D01*
X448686D01*
Y815672D01*
X451226D01*
X1306299Y898733D02*
Y896193D01*
X1311379D01*
Y898733D01*
X1313919D01*
Y903813D01*
X1311379D01*
Y906353D01*
X1306299D01*
Y903813D01*
X1303759D01*
Y898733D01*
X1306299D01*
X331860Y791441D02*
Y788901D01*
X336940D01*
Y791441D01*
X339480D01*
Y796521D01*
X336940D01*
Y799061D01*
X331860D01*
Y796521D01*
X329320D01*
Y791441D01*
X331860D01*
X340655Y791514D02*
Y788974D01*
X345735D01*
Y791514D01*
X348275D01*
Y796594D01*
X345735D01*
Y799134D01*
X340655D01*
Y796594D01*
X338115D01*
Y791514D01*
X340655D01*
X563112Y704142D02*
Y701602D01*
X568192D01*
Y704142D01*
X570732D01*
Y709222D01*
X568192D01*
Y711762D01*
X563112D01*
Y709222D01*
X560572D01*
Y704142D01*
X563112D01*
X470360Y790833D02*
Y788293D01*
X475440D01*
Y790833D01*
X477980D01*
Y795913D01*
X475440D01*
Y798453D01*
X470360D01*
Y795913D01*
X467820D01*
Y790833D01*
X470360D01*
X461398Y790607D02*
Y788067D01*
X466478D01*
Y790607D01*
X469018D01*
Y795687D01*
X466478D01*
Y798227D01*
X461398D01*
Y795687D01*
X458858D01*
Y790607D01*
X461398D01*
X422110Y800782D02*
Y798242D01*
X427190D01*
Y800782D01*
X429730D01*
Y805862D01*
X427190D01*
Y808402D01*
X422110D01*
Y805862D01*
X419570D01*
Y800782D01*
X422110D01*
X437627Y792590D02*
Y790050D01*
X442707D01*
Y792590D01*
X445247D01*
Y797670D01*
X442707D01*
Y800210D01*
X437627D01*
Y797670D01*
X435087D01*
Y792590D01*
X437627D01*
X433066Y816260D02*
Y813720D01*
X438146D01*
Y816260D01*
X440686D01*
Y821340D01*
X438146D01*
Y823880D01*
X433066D01*
Y821340D01*
X430526D01*
Y816260D01*
X433066D01*
X405610Y791889D02*
Y789349D01*
X410690D01*
Y791889D01*
X413230D01*
Y796969D01*
X410690D01*
Y799509D01*
X405610D01*
Y796969D01*
X403070D01*
Y791889D01*
X405610D01*
X403689Y800158D02*
Y797618D01*
X408769D01*
Y800158D01*
X411309D01*
Y805238D01*
X408769D01*
Y807778D01*
X403689D01*
Y805238D01*
X401149D01*
Y800158D01*
X403689D01*
X396965Y746332D02*
Y743792D01*
X402045D01*
Y746332D01*
X404585D01*
Y751412D01*
X402045D01*
Y753952D01*
X396965D01*
Y751412D01*
X394425D01*
Y746332D01*
X396965D01*
X390677Y753938D02*
Y751398D01*
X395757D01*
Y753938D01*
X398297D01*
Y759018D01*
X395757D01*
Y761558D01*
X390677D01*
Y759018D01*
X388137D01*
Y753938D01*
X390677D01*
X402177Y753723D02*
Y751183D01*
X407257D01*
Y753723D01*
X409797D01*
Y758803D01*
X407257D01*
Y761343D01*
X402177D01*
Y758803D01*
X399637D01*
Y753723D01*
X402177D01*
X381479Y754283D02*
Y751743D01*
X386559D01*
Y754283D01*
X389099D01*
Y759363D01*
X386559D01*
Y761903D01*
X381479D01*
Y759363D01*
X378939D01*
Y754283D01*
X381479D01*
X450610Y754172D02*
Y751632D01*
X455690D01*
Y754172D01*
X458230D01*
Y759252D01*
X455690D01*
Y761792D01*
X450610D01*
Y759252D01*
X448070D01*
Y754172D01*
X450610D01*
X355377Y754294D02*
Y751754D01*
X360457D01*
Y754294D01*
X362996D01*
Y759374D01*
X360457D01*
Y761914D01*
X355377D01*
Y759374D01*
X352836D01*
Y754294D01*
X355377D01*
X360655Y745200D02*
Y742660D01*
X365735D01*
Y745200D01*
X368275D01*
Y750280D01*
X365735D01*
Y752820D01*
X360655D01*
Y750280D01*
X358115D01*
Y745200D01*
X360655D01*
X346458Y754460D02*
Y751920D01*
X351538D01*
Y754460D01*
X354078D01*
Y759540D01*
X351538D01*
Y762080D01*
X346458D01*
Y759540D01*
X343918D01*
Y754460D01*
X346458D01*
X336254D02*
Y751920D01*
X341334D01*
Y754460D01*
X343874D01*
Y759540D01*
X341334D01*
Y762080D01*
X336254D01*
Y759540D01*
X333714D01*
Y754460D01*
X336254D01*
X386439Y791460D02*
Y788920D01*
X391519D01*
Y791460D01*
X394059D01*
Y796540D01*
X391519D01*
Y799080D01*
X386439D01*
Y796540D01*
X383899D01*
Y791460D01*
X386439D01*
X1098830Y948010D02*
Y945470D01*
X1103910D01*
Y948010D01*
X1106450D01*
Y953090D01*
X1103910D01*
Y955630D01*
X1098830D01*
Y953090D01*
X1096290D01*
Y948010D01*
X1098830D01*
X1144145Y966363D02*
Y963823D01*
X1149225D01*
Y966363D01*
X1151765D01*
Y971443D01*
X1149225D01*
Y973983D01*
X1144145D01*
Y971443D01*
X1141605D01*
Y966363D01*
X1144145D01*
X1203434Y962541D02*
Y960001D01*
X1208514D01*
Y962541D01*
X1211054D01*
Y967621D01*
X1208514D01*
Y970161D01*
X1203434D01*
Y967621D01*
X1200894D01*
Y962541D01*
X1203434D01*
X1250564Y905150D02*
Y902610D01*
X1255644D01*
Y905150D01*
X1258184D01*
Y910230D01*
X1255644D01*
Y912770D01*
X1250564D01*
Y910230D01*
X1248024D01*
Y905150D01*
X1250564D01*
X1245141Y910745D02*
Y908205D01*
X1250221D01*
Y910745D01*
X1252761D01*
Y915825D01*
X1250221D01*
Y918365D01*
X1245141D01*
Y915825D01*
X1242601D01*
Y910745D01*
X1245141D01*
X1128296Y962140D02*
Y959600D01*
X1133376D01*
Y962140D01*
X1135916D01*
Y967220D01*
X1133376D01*
Y969760D01*
X1128296D01*
Y967220D01*
X1125756D01*
Y962140D01*
X1128296D01*
X1106326Y957639D02*
Y955099D01*
X1111406D01*
Y957639D01*
X1113946D01*
Y962719D01*
X1111406D01*
Y965259D01*
X1106326D01*
Y962719D01*
X1103786D01*
Y957639D01*
X1106326D01*
X1121657Y957571D02*
Y955031D01*
X1126737D01*
Y957571D01*
X1129277D01*
Y962651D01*
X1126737D01*
Y965191D01*
X1121657D01*
Y962651D01*
X1119117D01*
Y957571D01*
X1121657D01*
X1113824Y957460D02*
Y954920D01*
X1118904D01*
Y957460D01*
X1121444D01*
Y962540D01*
X1118904D01*
Y965080D01*
X1113824D01*
Y962540D01*
X1111284D01*
Y957460D01*
X1113824D01*
X1443202Y585427D02*
Y582887D01*
X1448282D01*
Y585427D01*
X1450822D01*
Y590507D01*
X1448282D01*
Y593047D01*
X1443202D01*
Y590507D01*
X1440662D01*
Y585427D01*
X1443202D01*
X1423771Y761004D02*
Y758464D01*
X1428851D01*
Y761004D01*
X1431391D01*
Y766084D01*
X1428851D01*
Y768624D01*
X1423771D01*
Y766084D01*
X1421231D01*
Y761004D01*
X1423771D01*
X1313458Y732884D02*
Y730344D01*
X1318538D01*
Y732884D01*
X1321078D01*
Y737964D01*
X1318538D01*
Y740504D01*
X1313458D01*
Y737964D01*
X1310918D01*
Y732884D01*
X1313458D01*
X1332400Y364010D02*
Y361470D01*
X1337480D01*
Y364010D01*
X1340020D01*
Y369090D01*
X1337480D01*
Y371630D01*
X1332400D01*
Y369090D01*
X1329860D01*
Y364010D01*
X1332400D01*
X1253448Y365762D02*
Y363222D01*
X1258528D01*
Y365762D01*
X1261068D01*
Y370842D01*
X1258528D01*
Y373382D01*
X1253448D01*
Y370842D01*
X1250908D01*
Y365762D01*
X1253448D01*
X1224185Y450789D02*
Y448249D01*
X1229265D01*
Y450789D01*
X1231805D01*
Y455869D01*
X1229265D01*
Y458409D01*
X1224185D01*
Y455869D01*
X1221645D01*
Y450789D01*
X1224185D01*
X1258643Y738481D02*
Y735941D01*
X1263723D01*
Y738481D01*
X1266263D01*
Y743561D01*
X1263723D01*
Y746101D01*
X1258643D01*
Y743561D01*
X1256103D01*
Y738481D01*
X1258643D01*
X1209182Y701735D02*
Y699195D01*
X1214262D01*
Y701735D01*
X1216802D01*
Y706815D01*
X1214262D01*
Y709355D01*
X1209182D01*
Y706815D01*
X1206642D01*
Y701735D01*
X1209182D01*
X1186507Y699163D02*
Y696623D01*
X1191587D01*
Y699163D01*
X1194127D01*
Y704243D01*
X1191587D01*
Y706783D01*
X1186507D01*
Y704243D01*
X1183967D01*
Y699163D01*
X1186507D01*
X1193899Y733381D02*
Y730841D01*
X1198979D01*
Y733381D01*
X1201519D01*
Y738461D01*
X1198979D01*
Y741001D01*
X1193899D01*
Y738461D01*
X1191359D01*
Y733381D01*
X1193899D01*
X1200915Y702384D02*
Y699844D01*
X1205995D01*
Y702384D01*
X1208535D01*
Y707464D01*
X1205995D01*
Y710004D01*
X1200915D01*
Y707464D01*
X1198375D01*
Y702384D01*
X1200915D01*
X1137095Y770183D02*
Y767643D01*
X1142175D01*
Y770183D01*
X1144715D01*
Y775263D01*
X1142175D01*
Y777803D01*
X1137095D01*
Y775263D01*
X1134555D01*
Y770183D01*
X1137095D01*
X1100138Y764716D02*
Y762176D01*
X1105218D01*
Y764716D01*
X1107758D01*
Y769796D01*
X1105218D01*
Y772336D01*
X1100138D01*
Y769796D01*
X1097598D01*
Y764716D01*
X1100138D01*
X1057634Y800226D02*
Y797686D01*
X1062714D01*
Y800226D01*
X1065254D01*
Y805306D01*
X1062714D01*
Y807846D01*
X1057634D01*
Y805306D01*
X1055094D01*
Y800226D01*
X1057634D01*
X1064200Y805856D02*
Y803316D01*
X1069280D01*
Y805856D01*
X1071820D01*
Y810936D01*
X1069280D01*
Y813476D01*
X1064200D01*
Y810936D01*
X1061660D01*
Y805856D01*
X1064200D01*
X1058347Y777586D02*
Y775046D01*
X1063427D01*
Y777586D01*
X1065967D01*
Y782666D01*
X1063427D01*
Y785206D01*
X1058347D01*
Y782666D01*
X1055807D01*
Y777586D01*
X1058347D01*
X1152959Y776950D02*
Y774410D01*
X1158039D01*
Y776950D01*
X1160579D01*
Y782030D01*
X1158039D01*
Y784570D01*
X1152959D01*
Y782030D01*
X1150419D01*
Y776950D01*
X1152959D01*
X1117169Y772958D02*
Y770418D01*
X1122249D01*
Y772958D01*
X1124789D01*
Y778038D01*
X1122249D01*
Y780578D01*
X1117169D01*
Y778038D01*
X1114629D01*
Y772958D01*
X1117169D01*
X1093809Y785187D02*
Y782647D01*
X1098889D01*
Y785187D01*
X1101429D01*
Y790267D01*
X1098889D01*
Y792807D01*
X1093809D01*
Y790267D01*
X1091269D01*
Y785187D01*
X1093809D01*
X1312708Y744074D02*
Y741534D01*
X1317788D01*
Y744074D01*
X1320328D01*
Y749154D01*
X1317788D01*
Y751694D01*
X1312708D01*
Y749154D01*
X1310168D01*
Y744074D01*
X1312708D01*
X1318166Y779520D02*
Y776980D01*
X1323246D01*
Y779520D01*
X1325786D01*
Y784600D01*
X1323246D01*
Y787140D01*
X1318166D01*
Y784600D01*
X1315626D01*
Y779520D01*
X1318166D01*
X1214061Y873073D02*
Y870533D01*
X1219141D01*
Y873073D01*
X1221681D01*
Y878153D01*
X1219141D01*
Y880693D01*
X1214061D01*
Y878153D01*
X1211521D01*
Y873073D01*
X1214061D01*
X1268452Y837246D02*
Y834706D01*
X1273532D01*
Y837246D01*
X1276072D01*
Y842326D01*
X1273532D01*
Y844866D01*
X1268452D01*
Y842326D01*
X1265912D01*
Y837246D01*
X1268452D01*
X1269247Y846425D02*
Y843885D01*
X1274327D01*
Y846425D01*
X1276867D01*
Y851505D01*
X1274327D01*
Y854045D01*
X1269247D01*
Y851505D01*
X1266707D01*
Y846425D01*
X1269247D01*
X1071154Y930127D02*
Y927587D01*
X1076234D01*
Y930127D01*
X1078774D01*
Y935207D01*
X1076234D01*
Y937747D01*
X1071154D01*
Y935207D01*
X1068614D01*
Y930127D01*
X1071154D01*
X1179473Y740871D02*
Y738331D01*
X1184553D01*
Y740871D01*
X1187093D01*
Y745951D01*
X1184553D01*
Y748491D01*
X1179473D01*
Y745951D01*
X1176933D01*
Y740871D01*
X1179473D01*
X1184663Y734296D02*
Y731756D01*
X1189743D01*
Y734296D01*
X1192283D01*
Y739376D01*
X1189743D01*
Y741916D01*
X1184663D01*
Y739376D01*
X1182123D01*
Y734296D01*
X1184663D01*
X1173164Y734635D02*
Y732095D01*
X1178243D01*
Y734635D01*
X1180783D01*
Y739715D01*
X1178243D01*
Y742255D01*
X1173164D01*
Y739715D01*
X1170623D01*
Y734635D01*
X1173164D01*
X1118204Y617460D02*
Y614920D01*
X1123284D01*
Y617460D01*
X1125824D01*
Y622540D01*
X1123284D01*
Y625080D01*
X1118204D01*
Y622540D01*
X1115664D01*
Y617460D01*
X1118204D01*
X1103767D02*
Y614920D01*
X1108847D01*
Y617460D01*
X1111387D01*
Y622540D01*
X1108847D01*
Y625080D01*
X1103767D01*
Y622540D01*
X1101227D01*
Y617460D01*
X1103767D01*
X1322871Y576087D02*
Y573547D01*
X1327951D01*
Y576087D01*
X1330491D01*
Y581167D01*
X1327951D01*
Y583707D01*
X1322871D01*
Y581167D01*
X1320331D01*
Y576087D01*
X1322871D01*
X1315064Y393092D02*
Y390552D01*
X1320144D01*
Y393092D01*
X1322684D01*
Y398172D01*
X1320144D01*
Y400712D01*
X1315064D01*
Y398172D01*
X1312524D01*
Y393092D01*
X1315064D01*
X1298017Y378767D02*
Y376227D01*
X1303097D01*
Y378767D01*
X1305637D01*
Y383847D01*
X1303097D01*
Y386387D01*
X1298017D01*
Y383847D01*
X1295477D01*
Y378767D01*
X1298017D01*
X1349331Y400733D02*
Y398193D01*
X1354411D01*
Y400733D01*
X1356951D01*
Y405813D01*
X1354411D01*
Y408353D01*
X1349331D01*
Y405813D01*
X1346791D01*
Y400733D01*
X1349331D01*
X1298261Y387139D02*
Y384599D01*
X1303341D01*
Y387139D01*
X1305881D01*
Y392219D01*
X1303341D01*
Y394759D01*
X1298261D01*
Y392219D01*
X1295721D01*
Y387139D01*
X1298261D01*
X1101490Y626460D02*
Y623920D01*
X1106570D01*
Y626460D01*
X1109110D01*
Y631540D01*
X1106570D01*
Y634080D01*
X1101490D01*
Y631540D01*
X1098950D01*
Y626460D01*
X1101490D01*
X1305435Y393518D02*
Y390978D01*
X1310515D01*
Y393518D01*
X1313055D01*
Y398598D01*
X1310515D01*
Y401138D01*
X1305435D01*
Y398598D01*
X1302895D01*
Y393518D01*
X1305435D01*
X1111086Y626460D02*
Y623920D01*
X1116166D01*
Y626460D01*
X1118706D01*
Y631540D01*
X1116166D01*
Y634080D01*
X1111086D01*
Y631540D01*
X1108546D01*
Y626460D01*
X1111086D01*
X1340439Y400761D02*
Y398221D01*
X1345519D01*
Y400761D01*
X1348059D01*
Y405841D01*
X1345519D01*
Y408381D01*
X1340439D01*
Y405841D01*
X1337899D01*
Y400761D01*
X1340439D01*
X1120204Y626460D02*
Y623920D01*
X1125284D01*
Y626460D01*
X1127824D01*
Y631540D01*
X1125284D01*
Y634080D01*
X1120204D01*
Y631540D01*
X1117664D01*
Y626460D01*
X1120204D01*
X1319895Y596043D02*
Y593503D01*
X1324975D01*
Y596043D01*
X1327515D01*
Y601123D01*
X1324975D01*
Y603663D01*
X1319895D01*
Y601123D01*
X1317355D01*
Y596043D01*
X1319895D01*
X1320558Y586893D02*
Y584353D01*
X1325638D01*
Y586893D01*
X1328178D01*
Y591973D01*
X1325638D01*
Y594513D01*
X1320558D01*
Y591973D01*
X1318018D01*
Y586893D01*
X1320558D01*
X1257853Y578179D02*
Y575639D01*
X1262933D01*
Y578179D01*
X1265473D01*
Y583259D01*
X1262933D01*
Y585799D01*
X1257853D01*
Y583259D01*
X1255313D01*
Y578179D01*
X1257853D01*
X1243036Y578552D02*
Y576012D01*
X1248116D01*
Y578552D01*
X1250656D01*
Y583632D01*
X1248116D01*
Y586172D01*
X1243036D01*
Y583632D01*
X1240496D01*
Y578552D01*
X1243036D01*
X1302076Y658154D02*
Y655614D01*
X1307156D01*
Y658154D01*
X1309696D01*
Y663234D01*
X1307156D01*
Y665774D01*
X1302076D01*
Y663234D01*
X1299536D01*
Y658154D01*
X1302076D01*
X1362607Y580726D02*
Y578186D01*
X1367687D01*
Y580726D01*
X1370227D01*
Y585806D01*
X1367687D01*
Y588346D01*
X1362607D01*
Y585806D01*
X1360067D01*
Y580726D01*
X1362607D01*
X1259831Y875501D02*
Y872961D01*
X1264911D01*
Y875501D01*
X1267451D01*
Y880581D01*
X1264911D01*
Y883121D01*
X1259831D01*
Y880581D01*
X1257291D01*
Y875501D01*
X1259831D01*
X1252364Y869597D02*
Y867057D01*
X1257444D01*
Y869597D01*
X1259984D01*
Y874677D01*
X1257444D01*
Y877217D01*
X1252364D01*
Y874677D01*
X1249824D01*
Y869597D01*
X1252364D01*
X1363068Y516428D02*
Y513888D01*
X1368148D01*
Y516428D01*
X1370688D01*
Y521508D01*
X1368148D01*
Y524048D01*
X1363068D01*
Y521508D01*
X1360528D01*
Y516428D01*
X1363068D01*
X1371233Y512396D02*
Y509856D01*
X1376313D01*
Y512396D01*
X1378853D01*
Y517476D01*
X1376313D01*
Y520016D01*
X1371233D01*
Y517476D01*
X1368693D01*
Y512396D01*
X1371233D01*
X1356113Y505542D02*
Y503002D01*
X1361193D01*
Y505542D01*
X1363733D01*
Y510622D01*
X1361193D01*
Y513162D01*
X1356113D01*
Y510622D01*
X1353573D01*
Y505542D01*
X1356113D01*
X1354299Y496369D02*
Y493829D01*
X1359379D01*
Y496369D01*
X1361919D01*
Y501449D01*
X1359379D01*
Y503989D01*
X1354299D01*
Y501449D01*
X1351759D01*
Y496369D01*
X1354299D01*
X1434857Y420460D02*
Y417920D01*
X1439937D01*
Y420460D01*
X1442477D01*
Y425540D01*
X1439937D01*
Y428080D01*
X1434857D01*
Y425540D01*
X1432317D01*
Y420460D01*
X1434857D01*
X1426462Y427460D02*
Y424920D01*
X1431542D01*
Y427460D01*
X1434082D01*
Y432540D01*
X1431542D01*
Y435080D01*
X1426462D01*
Y432540D01*
X1423922D01*
Y427460D01*
X1426462D01*
X1418356Y420460D02*
Y417920D01*
X1423436D01*
Y420460D01*
X1425976D01*
Y425540D01*
X1423436D01*
Y428080D01*
X1418356D01*
Y425540D01*
X1415816D01*
Y420460D01*
X1418356D01*
X1410830Y427460D02*
Y424920D01*
X1415910D01*
Y427460D01*
X1418450D01*
Y432540D01*
X1415910D01*
Y435080D01*
X1410830D01*
Y432540D01*
X1408290D01*
Y427460D01*
X1410830D01*
X1402338Y420460D02*
Y417920D01*
X1407418D01*
Y420460D01*
X1409958D01*
Y425540D01*
X1407418D01*
Y428080D01*
X1402338D01*
Y425540D01*
X1399798D01*
Y420460D01*
X1402338D01*
X1394715Y427460D02*
Y424920D01*
X1399795D01*
Y427460D01*
X1402335D01*
Y432540D01*
X1399795D01*
Y435080D01*
X1394715D01*
Y432540D01*
X1392175D01*
Y427460D01*
X1394715D01*
X1386996Y420460D02*
Y417920D01*
X1392076D01*
Y420460D01*
X1394616D01*
Y425540D01*
X1392076D01*
Y428080D01*
X1386996D01*
Y425540D01*
X1384456D01*
Y420460D01*
X1386996D01*
X1442807Y468252D02*
Y465712D01*
X1447887D01*
Y468252D01*
X1450427D01*
Y473332D01*
X1447887D01*
Y475872D01*
X1442807D01*
Y473332D01*
X1440267D01*
Y468252D01*
X1442807D01*
X1254702Y700149D02*
Y697609D01*
X1259782D01*
Y700149D01*
X1262322D01*
Y705229D01*
X1259782D01*
Y707769D01*
X1254702D01*
Y705229D01*
X1252162D01*
Y700149D01*
X1254702D01*
X1402617Y552893D02*
Y550353D01*
X1407697D01*
Y552893D01*
X1410237D01*
Y557973D01*
X1407697D01*
Y560513D01*
X1402617D01*
Y557973D01*
X1400077D01*
Y552893D01*
X1402617D01*
X1394465Y548122D02*
Y545582D01*
X1399545D01*
Y548122D01*
X1402085D01*
Y553202D01*
X1399545D01*
Y555742D01*
X1394465D01*
Y553202D01*
X1391925D01*
Y548122D01*
X1394465D01*
X1386445Y553158D02*
Y550618D01*
X1391525D01*
Y553158D01*
X1394065D01*
Y558238D01*
X1391525D01*
Y560778D01*
X1386445D01*
Y558238D01*
X1383905D01*
Y553158D01*
X1386445D01*
X1442532Y434379D02*
Y431839D01*
X1447612D01*
Y434379D01*
X1450152D01*
Y439459D01*
X1447612D01*
Y441999D01*
X1442532D01*
Y439459D01*
X1439992D01*
Y434379D01*
X1442532D01*
X1786498Y785317D02*
Y782777D01*
X1791578D01*
Y785317D01*
X1794118D01*
Y790397D01*
X1791578D01*
Y792937D01*
X1786498D01*
Y790397D01*
X1783958D01*
Y785317D01*
X1786498D01*
X1764146Y785063D02*
Y782523D01*
X1769226D01*
Y785063D01*
X1771766D01*
Y790143D01*
X1769226D01*
Y792683D01*
X1764146D01*
Y790143D01*
X1761606D01*
Y785063D01*
X1764146D01*
X1740524Y785317D02*
Y782777D01*
X1745604D01*
Y785317D01*
X1748144D01*
Y790397D01*
X1745604D01*
Y792937D01*
X1740524D01*
Y790397D01*
X1737984D01*
Y785317D01*
X1740524D01*
X1717664Y784809D02*
Y782269D01*
X1722744D01*
Y784809D01*
X1725284D01*
Y789889D01*
X1722744D01*
Y792429D01*
X1717664D01*
Y789889D01*
X1715124D01*
Y784809D01*
X1717664D01*
X1450922Y576968D02*
Y574428D01*
X1456002D01*
Y576968D01*
X1458542D01*
Y582048D01*
X1456002D01*
Y584588D01*
X1450922D01*
Y582048D01*
X1448382D01*
Y576968D01*
X1450922D01*
X1450486Y592598D02*
Y590058D01*
X1455566D01*
Y592598D01*
X1458106D01*
Y597678D01*
X1455566D01*
Y600218D01*
X1450486D01*
Y597678D01*
X1447946D01*
Y592598D01*
X1450486D01*
X1224026Y803402D02*
Y800862D01*
X1229106D01*
Y803402D01*
X1231646D01*
Y808482D01*
X1229106D01*
Y811022D01*
X1224026D01*
Y808482D01*
X1221486D01*
Y803402D01*
X1224026D01*
X1180953Y705872D02*
Y703332D01*
X1186033D01*
Y705872D01*
X1188573D01*
Y710952D01*
X1186033D01*
Y713492D01*
X1180953D01*
Y710952D01*
X1178413D01*
Y705872D01*
X1180953D01*
X572079Y704114D02*
Y701574D01*
X577159D01*
Y704114D01*
X579699D01*
Y709194D01*
X577159D01*
Y711734D01*
X572079D01*
Y709194D01*
X569539D01*
Y704114D01*
X572079D01*
X102616Y832612D02*
Y830072D01*
X107696D01*
Y832612D01*
X110236D01*
Y837692D01*
X107696D01*
Y840232D01*
X102616D01*
Y837692D01*
X100076D01*
Y832612D01*
X102616D01*
X120904Y833120D02*
Y830580D01*
X125984D01*
Y833120D01*
X128524D01*
Y838200D01*
X125984D01*
Y840740D01*
X120904D01*
Y838200D01*
X118364D01*
Y833120D01*
X120904D01*
X1091946Y831206D02*
Y828666D01*
X1097026D01*
Y831206D01*
X1099566D01*
Y836286D01*
X1097026D01*
Y838826D01*
X1091946D01*
Y836286D01*
X1089406D01*
Y831206D01*
X1091946D01*
X1279906Y867918D02*
Y865378D01*
X1284986D01*
Y867918D01*
X1287526D01*
Y872998D01*
X1284986D01*
Y875538D01*
X1279906D01*
Y872998D01*
X1277366D01*
Y867918D01*
X1279906D01*
X574090Y746197D02*
Y743657D01*
X579170D01*
Y746197D01*
X581710D01*
Y751277D01*
X579170D01*
Y753817D01*
X574090D01*
Y751277D01*
X571550D01*
Y746197D01*
X574090D01*
X144272Y887476D02*
Y884936D01*
X149352D01*
Y887476D01*
X151892D01*
Y892556D01*
X149352D01*
Y895096D01*
X144272D01*
Y892556D01*
X141732D01*
Y887476D01*
X144272D01*
X1085596Y658876D02*
Y656336D01*
X1090676D01*
Y658876D01*
X1093216D01*
Y663956D01*
X1090676D01*
Y666496D01*
X1085596D01*
Y663956D01*
X1083056D01*
Y658876D01*
X1085596D01*
X1383030Y1076960D02*
Y1074420D01*
X1388110D01*
Y1076960D01*
X1390650D01*
Y1082040D01*
X1388110D01*
Y1084580D01*
X1383030D01*
Y1082040D01*
X1380490D01*
Y1076960D01*
X1383030D01*
X601472Y1042460D02*
Y1039920D01*
X606552D01*
Y1042460D01*
X609092D01*
Y1047540D01*
X606552D01*
Y1050080D01*
X601472D01*
Y1047540D01*
X598932D01*
Y1042460D01*
X601472D01*
X611378Y1084834D02*
Y1082294D01*
X616458D01*
Y1084834D01*
X618998D01*
Y1089914D01*
X616458D01*
Y1092454D01*
X611378D01*
Y1089914D01*
X608838D01*
Y1084834D01*
X611378D01*
X567729Y1042460D02*
Y1039920D01*
X572809D01*
Y1042460D01*
X575349D01*
Y1047540D01*
X572809D01*
Y1050080D01*
X567729D01*
Y1047540D01*
X565189D01*
Y1042460D01*
X567729D01*
X485336Y860960D02*
Y858420D01*
X490416D01*
Y860960D01*
X492956D01*
Y866040D01*
X490416D01*
Y868580D01*
X485336D01*
Y866040D01*
X482796D01*
Y860960D01*
X485336D01*
X361442Y791460D02*
Y788920D01*
X366522D01*
Y791460D01*
X369062D01*
Y796540D01*
X366522D01*
Y799080D01*
X361442D01*
Y796540D01*
X358902D01*
Y791460D01*
X361442D01*
X465699Y797731D02*
Y795191D01*
X470779D01*
Y797731D01*
X473319D01*
Y802811D01*
X470779D01*
Y805351D01*
X465699D01*
Y802811D01*
X463159D01*
Y797731D01*
X465699D01*
X412101Y753337D02*
Y750797D01*
X417181D01*
Y753337D01*
X419721D01*
Y758417D01*
X417181D01*
Y760957D01*
X412101D01*
Y758417D01*
X409561D01*
Y753337D01*
X412101D01*
X340360Y747268D02*
Y744728D01*
X345440D01*
Y747268D01*
X347980D01*
Y752348D01*
X345440D01*
Y754888D01*
X340360D01*
Y752348D01*
X337820D01*
Y747268D01*
X340360D01*
X321310Y754460D02*
Y751920D01*
X326390D01*
Y754460D01*
X328930D01*
Y759540D01*
X326390D01*
Y762080D01*
X321310D01*
Y759540D01*
X318770D01*
Y754460D01*
X321310D01*
X1399295Y579376D02*
Y576836D01*
X1404375D01*
Y579376D01*
X1406915D01*
Y584456D01*
X1404375D01*
Y586996D01*
X1399295D01*
Y584456D01*
X1396755D01*
Y579376D01*
X1399295D01*
X1389998Y579207D02*
Y576667D01*
X1395078D01*
Y579207D01*
X1397618D01*
Y584287D01*
X1395078D01*
Y586827D01*
X1389998D01*
Y584287D01*
X1387458D01*
Y579207D01*
X1389998D01*
X1319863Y737752D02*
Y735212D01*
X1324943D01*
Y737752D01*
X1327483D01*
Y742832D01*
X1324943D01*
Y745372D01*
X1319863D01*
Y742832D01*
X1317323D01*
Y737752D01*
X1319863D01*
X1072958Y965296D02*
Y962756D01*
X1078038D01*
Y965296D01*
X1080578D01*
Y970376D01*
X1078038D01*
Y972916D01*
X1072958D01*
Y970376D01*
X1070418D01*
Y965296D01*
X1072958D01*
X1126885Y947790D02*
Y945250D01*
X1131965D01*
Y947790D01*
X1134505D01*
Y952870D01*
X1131965D01*
Y955410D01*
X1126885D01*
Y952870D01*
X1124345D01*
Y947790D01*
X1126885D01*
X1099084Y965497D02*
Y962957D01*
X1104164D01*
Y965497D01*
X1106704D01*
Y970577D01*
X1104164D01*
Y973117D01*
X1099084D01*
Y970577D01*
X1096544D01*
Y965497D01*
X1099084D01*
X1081786Y957460D02*
Y954920D01*
X1086866D01*
Y957460D01*
X1089406D01*
Y962540D01*
X1086866D01*
Y965080D01*
X1081786D01*
Y962540D01*
X1079246D01*
Y957460D01*
X1081786D01*
X1091438D02*
Y954920D01*
X1096518D01*
Y957460D01*
X1099058D01*
Y962540D01*
X1096518D01*
Y965080D01*
X1091438D01*
Y962540D01*
X1088898D01*
Y957460D01*
X1091438D01*
X151892Y867664D02*
Y865124D01*
X156972D01*
Y867664D01*
X159512D01*
Y872744D01*
X156972D01*
Y875284D01*
X151892D01*
Y872744D01*
X149352D01*
Y867664D01*
X151892D01*
X119872Y858435D02*
Y855895D01*
X124952D01*
Y858435D01*
X127492D01*
Y863515D01*
X124952D01*
Y866055D01*
X119872D01*
Y863515D01*
X117332D01*
Y858435D01*
X119872D01*
X120396Y845058D02*
Y842518D01*
X125476D01*
Y845058D01*
X128016D01*
Y850138D01*
X125476D01*
Y852678D01*
X120396D01*
Y850138D01*
X117856D01*
Y845058D01*
X120396D01*
X773430Y433070D02*
Y430530D01*
X778510D01*
Y433070D01*
X781050D01*
Y438150D01*
X778510D01*
Y440690D01*
X773430D01*
Y438150D01*
X770890D01*
Y433070D01*
X773430D01*
X761238Y433324D02*
Y430784D01*
X766318D01*
Y433324D01*
X768858D01*
Y438404D01*
X766318D01*
Y440944D01*
X761238D01*
Y438404D01*
X758698D01*
Y433324D01*
X761238D01*
X1717802Y769620D02*
Y767080D01*
X1722882D01*
Y769620D01*
X1725422D01*
Y774700D01*
X1722882D01*
Y777240D01*
X1717802D01*
Y774700D01*
X1715262D01*
Y769620D01*
X1717802D01*
X1740662Y770128D02*
Y767588D01*
X1745742D01*
Y770128D01*
X1748282D01*
Y775208D01*
X1745742D01*
Y777748D01*
X1740662D01*
Y775208D01*
X1738122D01*
Y770128D01*
X1740662D01*
X1764284Y769874D02*
Y767334D01*
X1769364D01*
Y769874D01*
X1771904D01*
Y774954D01*
X1769364D01*
Y777494D01*
X1764284D01*
Y774954D01*
X1761744D01*
Y769874D01*
X1764284D01*
X1786636Y770128D02*
Y767588D01*
X1791716D01*
Y770128D01*
X1794256D01*
Y775208D01*
X1791716D01*
Y777748D01*
X1786636D01*
Y775208D01*
X1784096D01*
Y770128D01*
X1786636D01*
X285750Y811276D02*
Y808736D01*
X290830D01*
Y811276D01*
X293370D01*
Y816356D01*
X290830D01*
Y818896D01*
X285750D01*
Y816356D01*
X283210D01*
Y811276D01*
X285750D01*
X1250950Y946150D02*
Y943610D01*
X1256030D01*
Y946150D01*
X1258570D01*
Y951230D01*
X1256030D01*
Y953770D01*
X1250950D01*
Y951230D01*
X1248410D01*
Y946150D01*
X1250950D01*
X1467612Y1114806D02*
Y1112266D01*
X1472692D01*
Y1114806D01*
X1475232D01*
Y1119886D01*
X1472692D01*
Y1122426D01*
X1467612D01*
Y1119886D01*
X1465072D01*
Y1114806D01*
X1467612D01*
X1050036Y842010D02*
Y839470D01*
X1055116D01*
Y842010D01*
X1057656D01*
Y847090D01*
X1055116D01*
Y849630D01*
X1050036D01*
Y847090D01*
X1047496D01*
Y842010D01*
X1050036D01*
X1068324Y842264D02*
Y839724D01*
X1073404D01*
Y842264D01*
X1075944D01*
Y847344D01*
X1073404D01*
Y849884D01*
X1068324D01*
Y847344D01*
X1065784D01*
Y842264D01*
X1068324D01*
X1085850Y701040D02*
Y698500D01*
X1090930D01*
Y701040D01*
X1093470D01*
Y706120D01*
X1090930D01*
Y708660D01*
X1085850D01*
Y706120D01*
X1083310D01*
Y701040D01*
X1085850D01*
X1717548Y830326D02*
Y827786D01*
X1722628D01*
Y830326D01*
X1725168D01*
Y835406D01*
X1722628D01*
Y837946D01*
X1717548D01*
Y835406D01*
X1715008D01*
Y830326D01*
X1717548D01*
X1357884Y912876D02*
Y910336D01*
X1362964D01*
Y912876D01*
X1365504D01*
Y917956D01*
X1362964D01*
Y920496D01*
X1357884D01*
Y917956D01*
X1355344D01*
Y912876D01*
X1357884D01*
X1153668Y736092D02*
Y733552D01*
X1158748D01*
Y736092D01*
X1161288D01*
Y741172D01*
X1158748D01*
Y743712D01*
X1153668D01*
Y741172D01*
X1151128D01*
Y736092D01*
X1153668D01*
X1151890Y700278D02*
Y697738D01*
X1156970D01*
Y700278D01*
X1159510D01*
Y705358D01*
X1156970D01*
Y707898D01*
X1151890D01*
Y705358D01*
X1149350D01*
Y700278D01*
X1151890D01*
X364994Y835596D02*
Y833056D01*
X370074D01*
Y835596D01*
X372614D01*
Y840676D01*
X370074D01*
Y843216D01*
X364994D01*
Y840676D01*
X362454D01*
Y835596D01*
X364994D01*
X928624Y765048D02*
Y762508D01*
X933704D01*
Y765048D01*
X936244D01*
Y770128D01*
X933704D01*
Y772668D01*
X928624D01*
Y770128D01*
X926084D01*
Y765048D01*
X928624D01*
X912876D02*
Y762508D01*
X917956D01*
Y765048D01*
X920496D01*
Y770128D01*
X917956D01*
Y772668D01*
X912876D01*
Y770128D01*
X910336D01*
Y765048D01*
X912876D01*
X1090258Y908374D02*
Y905834D01*
X1095338D01*
Y908374D01*
X1097878D01*
Y913454D01*
X1095338D01*
Y915994D01*
X1090258D01*
Y913454D01*
X1087718D01*
Y908374D01*
X1090258D01*
X1203960Y917194D02*
Y914654D01*
X1209040D01*
Y917194D01*
X1211580D01*
Y922274D01*
X1209040D01*
Y924814D01*
X1203960D01*
Y922274D01*
X1201420D01*
Y917194D01*
X1203960D01*
X1169924Y859960D02*
Y857420D01*
X1175004D01*
Y859960D01*
X1177544D01*
Y865040D01*
X1175004D01*
Y867580D01*
X1169924D01*
Y865040D01*
X1167384D01*
Y859960D01*
X1169924D01*
X1105814Y772960D02*
Y770420D01*
X1110894D01*
Y772960D01*
X1113434D01*
Y778040D01*
X1110894D01*
Y780580D01*
X1105814D01*
Y778040D01*
X1103274D01*
Y772960D01*
X1105814D01*
X1253205Y991866D02*
Y989326D01*
X1258285D01*
Y991866D01*
X1260825D01*
Y996946D01*
X1258285D01*
Y999486D01*
X1253205D01*
Y996946D01*
X1250665D01*
Y991866D01*
X1253205D01*
X1284820Y961990D02*
Y959450D01*
X1289900D01*
Y961990D01*
X1292440D01*
Y967070D01*
X1289900D01*
Y969610D01*
X1284820D01*
Y967070D01*
X1282280D01*
Y961990D01*
X1284820D01*
X534924Y1086612D02*
Y1084072D01*
X540004D01*
Y1086612D01*
X542544D01*
Y1091692D01*
X540004D01*
Y1094232D01*
X534924D01*
Y1091692D01*
X532384D01*
Y1086612D01*
X534924D01*
X1249119Y685037D02*
Y682497D01*
X1254199D01*
Y685037D01*
X1256739D01*
Y690117D01*
X1254199D01*
Y692657D01*
X1249119D01*
Y690117D01*
X1246579D01*
Y685037D01*
X1249119D01*
X1228759Y685492D02*
Y682952D01*
X1233839D01*
Y685492D01*
X1236379D01*
Y690572D01*
X1233839D01*
Y693112D01*
X1228759D01*
Y690572D01*
X1226219D01*
Y685492D01*
X1228759D01*
X185928Y875538D02*
Y872998D01*
X191008D01*
Y875538D01*
X193548D01*
Y880618D01*
X191008D01*
Y883158D01*
X185928D01*
Y880618D01*
X183388D01*
Y875538D01*
X185928D01*
Y899668D02*
Y897128D01*
X191008D01*
Y899668D01*
X193548D01*
Y904748D01*
X191008D01*
Y907288D01*
X185928D01*
Y904748D01*
X183388D01*
Y899668D01*
X185928D01*
X1280460Y892988D02*
Y890448D01*
X1285540D01*
Y892988D01*
X1288080D01*
Y898068D01*
X1285540D01*
Y900608D01*
X1280460D01*
Y898068D01*
X1277920D01*
Y892988D01*
X1280460D01*
X1097534Y837692D02*
Y835152D01*
X1102614D01*
Y837692D01*
X1105154D01*
Y842772D01*
X1102614D01*
Y845312D01*
X1097534D01*
Y842772D01*
X1094994D01*
Y837692D01*
X1097534D01*
X1119632Y741172D02*
Y738632D01*
X1124712D01*
Y741172D01*
X1127252D01*
Y746252D01*
X1124712D01*
Y748792D01*
X1119632D01*
Y746252D01*
X1117092D01*
Y741172D01*
X1119632D01*
X1167638Y744728D02*
Y742188D01*
X1172718D01*
Y744728D01*
X1175258D01*
Y749808D01*
X1172718D01*
Y752348D01*
X1167638D01*
Y749808D01*
X1165098D01*
Y744728D01*
X1167638D01*
X1147207Y770180D02*
Y767640D01*
X1152287D01*
Y770180D01*
X1154827D01*
Y775260D01*
X1152287D01*
Y777800D01*
X1147207D01*
Y775260D01*
X1144667D01*
Y770180D01*
X1147207D01*
X969772Y764540D02*
Y762000D01*
X974852D01*
Y764540D01*
X977392D01*
Y769620D01*
X974852D01*
Y772160D01*
X969772D01*
Y769620D01*
X967232D01*
Y764540D01*
X969772D01*
X600710Y1085088D02*
Y1082548D01*
X605790D01*
Y1085088D01*
X608330D01*
Y1090168D01*
X605790D01*
Y1092708D01*
X600710D01*
Y1090168D01*
X598170D01*
Y1085088D01*
X600710D01*
X622300Y1042460D02*
Y1039920D01*
X627380D01*
Y1042460D01*
X629920D01*
Y1047540D01*
X627380D01*
Y1050080D01*
X622300D01*
Y1047540D01*
X619760D01*
Y1042460D01*
X622300D01*
X611886D02*
Y1039920D01*
X616966D01*
Y1042460D01*
X619506D01*
Y1047540D01*
X616966D01*
Y1050080D01*
X611886D01*
Y1047540D01*
X609346D01*
Y1042460D01*
X611886D01*
X557276D02*
Y1039920D01*
X562356D01*
Y1042460D01*
X564896D01*
Y1047540D01*
X562356D01*
Y1050080D01*
X557276D01*
Y1047540D01*
X554736D01*
Y1042460D01*
X557276D01*
X545846D02*
Y1039920D01*
X550926D01*
Y1042460D01*
X553466D01*
Y1047540D01*
X550926D01*
Y1050080D01*
X545846D01*
Y1047540D01*
X543306D01*
Y1042460D01*
X545846D01*
X951230Y765048D02*
Y762508D01*
X956310D01*
Y765048D01*
X958850D01*
Y770128D01*
X956310D01*
Y772668D01*
X951230D01*
Y770128D01*
X948690D01*
Y765048D01*
X951230D01*
X936498D02*
Y762508D01*
X941578D01*
Y765048D01*
X944118D01*
Y770128D01*
X941578D01*
Y772668D01*
X936498D01*
Y770128D01*
X933958D01*
Y765048D01*
X936498D01*
X920750D02*
Y762508D01*
X925830D01*
Y765048D01*
X928370D01*
Y770128D01*
X925830D01*
Y772668D01*
X920750D01*
Y770128D01*
X918210D01*
Y765048D01*
X920750D01*
X486410Y791460D02*
Y788920D01*
X491490D01*
Y791460D01*
X494030D01*
Y796540D01*
X491490D01*
Y799080D01*
X486410D01*
Y796540D01*
X483870D01*
Y791460D01*
X486410D01*
X442214Y816260D02*
Y813720D01*
X447294D01*
Y816260D01*
X449834D01*
Y821340D01*
X447294D01*
Y823880D01*
X442214D01*
Y821340D01*
X439674D01*
Y816260D01*
X442214D01*
X1114161Y735136D02*
Y732596D01*
X1119241D01*
Y735136D01*
X1121781D01*
Y740216D01*
X1119241D01*
Y742756D01*
X1114161D01*
Y740216D01*
X1111621D01*
Y735136D01*
X1114161D01*
X1193800Y916940D02*
Y914400D01*
X1198880D01*
Y916940D01*
X1201420D01*
Y922020D01*
X1198880D01*
Y924560D01*
X1193800D01*
Y922020D01*
X1191260D01*
Y916940D01*
X1193800D01*
X1169752Y873334D02*
Y870794D01*
X1174832D01*
Y873334D01*
X1177372D01*
Y878414D01*
X1174832D01*
Y880954D01*
X1169752D01*
Y878414D01*
X1167212D01*
Y873334D01*
X1169752D01*
X1178052Y866902D02*
Y864362D01*
X1183132D01*
Y866902D01*
X1185672D01*
Y871982D01*
X1183132D01*
Y874522D01*
X1178052D01*
Y871982D01*
X1175512D01*
Y866902D01*
X1178052D01*
X1425702Y495554D02*
Y493014D01*
X1430782D01*
Y495554D01*
X1433322D01*
Y500634D01*
X1430782D01*
Y503174D01*
X1425702D01*
Y500634D01*
X1423162D01*
Y495554D01*
X1425702D01*
X1282700Y598424D02*
Y595884D01*
X1287780D01*
Y598424D01*
X1290320D01*
Y603504D01*
X1287780D01*
Y606044D01*
X1282700D01*
Y603504D01*
X1280160D01*
Y598424D01*
X1282700D01*
X1283208Y590042D02*
Y587502D01*
X1288288D01*
Y590042D01*
X1290828D01*
Y595122D01*
X1288288D01*
Y597662D01*
X1283208D01*
Y595122D01*
X1280668D01*
Y590042D01*
X1283208D01*
X1282446Y606806D02*
Y604266D01*
X1287526D01*
Y606806D01*
X1290066D01*
Y611886D01*
X1287526D01*
Y614426D01*
X1282446D01*
Y611886D01*
X1279906D01*
Y606806D01*
X1282446D01*
X1339088Y434460D02*
Y431920D01*
X1344168D01*
Y434460D01*
X1346708D01*
Y439540D01*
X1344168D01*
Y442080D01*
X1339088D01*
Y439540D01*
X1336548D01*
Y434460D01*
X1339088D01*
X1298987Y434921D02*
Y432381D01*
X1304067D01*
Y434921D01*
X1306607D01*
Y440001D01*
X1304067D01*
Y442541D01*
X1298987D01*
Y440001D01*
X1296447D01*
Y434921D01*
X1298987D01*
X1250950Y434460D02*
Y431920D01*
X1256030D01*
Y434460D01*
X1258570D01*
Y439540D01*
X1256030D01*
Y442080D01*
X1250950D01*
Y439540D01*
X1248410D01*
Y434460D01*
X1250950D01*
X1274064Y702564D02*
Y700024D01*
X1279144D01*
Y702564D01*
X1281684D01*
Y707644D01*
X1279144D01*
Y710184D01*
X1274064D01*
Y707644D01*
X1271524D01*
Y702564D01*
X1274064D01*
X1313942Y848106D02*
Y845566D01*
X1319022D01*
Y848106D01*
X1321562D01*
Y853186D01*
X1319022D01*
Y855726D01*
X1313942D01*
Y853186D01*
X1311402D01*
Y848106D01*
X1313942D01*
X1105154Y823976D02*
Y821436D01*
X1110234D01*
Y823976D01*
X1112774D01*
Y829056D01*
X1110234D01*
Y831596D01*
X1105154D01*
Y829056D01*
X1102614D01*
Y823976D01*
X1105154D01*
X1249172Y693674D02*
Y691134D01*
X1254252D01*
Y693674D01*
X1256792D01*
Y698754D01*
X1254252D01*
Y701294D01*
X1249172D01*
Y698754D01*
X1246632D01*
Y693674D01*
X1249172D01*
X1229065Y704088D02*
Y701548D01*
X1234145D01*
Y704088D01*
X1236685D01*
Y709168D01*
X1234145D01*
Y711708D01*
X1229065D01*
Y709168D01*
X1226525D01*
Y704088D01*
X1229065D01*
X169418Y887984D02*
Y885444D01*
X174498D01*
Y887984D01*
X177038D01*
Y893064D01*
X174498D01*
Y895604D01*
X169418D01*
Y893064D01*
X166878D01*
Y887984D01*
X169418D01*
X643636Y451612D02*
Y449072D01*
X648716D01*
Y451612D01*
X651256D01*
Y456692D01*
X648716D01*
Y459232D01*
X643636D01*
Y456692D01*
X641096D01*
Y451612D01*
X643636D01*
X747522Y495554D02*
Y493014D01*
X752602D01*
Y495554D01*
X755142D01*
Y500634D01*
X752602D01*
Y503174D01*
X747522D01*
Y500634D01*
X744982D01*
Y495554D01*
X747522D01*
X1336802Y1050290D02*
Y1047750D01*
X1341882D01*
Y1050290D01*
X1344422D01*
Y1055370D01*
X1341882D01*
Y1057910D01*
X1336802D01*
Y1055370D01*
X1334262D01*
Y1050290D01*
X1336802D01*
X1311402Y1050036D02*
Y1047496D01*
X1316482D01*
Y1050036D01*
X1319022D01*
Y1055116D01*
X1316482D01*
Y1057656D01*
X1311402D01*
Y1055116D01*
X1308862D01*
Y1050036D01*
X1311402D01*
X1285240Y1049782D02*
Y1047242D01*
X1290320D01*
Y1049782D01*
X1292860D01*
Y1054862D01*
X1290320D01*
Y1057402D01*
X1285240D01*
Y1054862D01*
X1282700D01*
Y1049782D01*
X1285240D01*
X1096264Y898398D02*
Y895858D01*
X1101344D01*
Y898398D01*
X1103884D01*
Y903478D01*
X1101344D01*
Y906018D01*
X1096264D01*
Y903478D01*
X1093724D01*
Y898398D01*
X1096264D01*
D107*
X85162Y813907D02*
G03*
X85162Y813907I-5080J0D01*
G01*
X24162D02*
G03*
X24162Y813907I-5080J0D01*
G01*
X85162Y965908D02*
G03*
X85162Y965908I-5080J0D01*
G01*
X24162D02*
G03*
X24162Y965908I-5080J0D01*
G01*
M02*
