G04*
G04 #@! TF.GenerationSoftware,Altium Limited,Altium Designer,24.1.2 (44)*
G04*
G04 Layer_Physical_Order=1*
G04 Layer_Color=2441676*
%FSLAX44Y44*%
%MOMM*%
G71*
G04*
G04 #@! TF.SameCoordinates,7BAFBD56-1BE7-4131-8B7C-D97C60B49404*
G04*
G04*
G04 #@! TF.FilePolarity,Positive*
G04*
G01*
G75*
%ADD15C,0.3000*%
%ADD16C,0.5000*%
%ADD17C,0.2500*%
%ADD18C,1.3500*%
%ADD19R,2.5000X2.5000*%
%ADD20C,6.3500*%
%ADD21C,1.0000*%
%ADD22C,3.0450*%
%ADD23C,0.6000*%
G36*
X20000Y1247451D02*
X1650000D01*
X1650020Y1247455D01*
X1653406Y1247122D01*
X1656680Y1246128D01*
X1659699Y1244515D01*
X1662344Y1242344D01*
X1664515Y1239699D01*
X1666128Y1236681D01*
X1667122Y1233406D01*
X1667451Y1230061D01*
Y20000D01*
X1667455Y19980D01*
X1667122Y16594D01*
X1666128Y13319D01*
X1664515Y10301D01*
X1662344Y7656D01*
X1659699Y5485D01*
X1656680Y3872D01*
X1653406Y2878D01*
X1650006Y2544D01*
X1650000Y2549D01*
Y2549D01*
X1649677Y2485D01*
X20000D01*
X19980Y2481D01*
X16594Y2814D01*
X13319Y3808D01*
X10301Y5421D01*
X7656Y7592D01*
X5485Y10237D01*
X3872Y13255D01*
X2878Y16530D01*
X2548Y19888D01*
X2557Y19936D01*
Y1230000D01*
X2548Y1230047D01*
X2878Y1233406D01*
X3872Y1236681D01*
X5485Y1239699D01*
X7656Y1242344D01*
X10301Y1244515D01*
X13319Y1246128D01*
X16594Y1247122D01*
X19980Y1247455D01*
X20000Y1247451D01*
D02*
G37*
%LPC*%
G36*
X1621617Y1232850D02*
X1616383D01*
X1611214Y1232031D01*
X1606236Y1230414D01*
X1601573Y1228038D01*
X1597339Y1224962D01*
X1593638Y1221261D01*
X1590562Y1217027D01*
X1588186Y1212364D01*
X1586569Y1207386D01*
X1585750Y1202217D01*
Y1196983D01*
X1586569Y1191814D01*
X1588186Y1186836D01*
X1590562Y1182173D01*
X1593638Y1177939D01*
X1597339Y1174238D01*
X1601573Y1171162D01*
X1606236Y1168786D01*
X1611214Y1167169D01*
X1616383Y1166350D01*
X1621617D01*
X1626786Y1167169D01*
X1631764Y1168786D01*
X1636427Y1171162D01*
X1640661Y1174238D01*
X1644362Y1177939D01*
X1647438Y1182173D01*
X1649814Y1186836D01*
X1651431Y1191814D01*
X1652250Y1196983D01*
Y1202217D01*
X1651431Y1207386D01*
X1649814Y1212364D01*
X1647438Y1217027D01*
X1644362Y1221261D01*
X1640661Y1224962D01*
X1636427Y1228038D01*
X1631764Y1230414D01*
X1626786Y1232031D01*
X1621617Y1232850D01*
D02*
G37*
G36*
X837617D02*
X832383D01*
X827214Y1232031D01*
X822236Y1230414D01*
X817573Y1228038D01*
X813339Y1224962D01*
X809638Y1221261D01*
X806562Y1217027D01*
X804186Y1212364D01*
X802569Y1207386D01*
X801750Y1202217D01*
Y1196983D01*
X802569Y1191814D01*
X804186Y1186836D01*
X806562Y1182173D01*
X809638Y1177939D01*
X813339Y1174238D01*
X817573Y1171162D01*
X822236Y1168786D01*
X827214Y1167169D01*
X832383Y1166350D01*
X837617D01*
X842786Y1167169D01*
X847764Y1168786D01*
X852427Y1171162D01*
X856661Y1174238D01*
X860362Y1177939D01*
X863438Y1182173D01*
X865814Y1186836D01*
X867431Y1191814D01*
X868250Y1196983D01*
Y1202217D01*
X867431Y1207386D01*
X865814Y1212364D01*
X863438Y1217027D01*
X860362Y1221261D01*
X856661Y1224962D01*
X852427Y1228038D01*
X847764Y1230414D01*
X842786Y1232031D01*
X837617Y1232850D01*
D02*
G37*
G36*
X52617D02*
X47383D01*
X42214Y1232031D01*
X37236Y1230414D01*
X32573Y1228038D01*
X28339Y1224962D01*
X24638Y1221261D01*
X21562Y1217027D01*
X19186Y1212364D01*
X17569Y1207386D01*
X16750Y1202217D01*
Y1196983D01*
X17569Y1191814D01*
X19186Y1186836D01*
X21562Y1182173D01*
X24638Y1177939D01*
X28339Y1174238D01*
X32573Y1171162D01*
X37236Y1168786D01*
X42214Y1167169D01*
X47383Y1166350D01*
X52617D01*
X57786Y1167169D01*
X62764Y1168786D01*
X67427Y1171162D01*
X71661Y1174238D01*
X75362Y1177939D01*
X78438Y1182173D01*
X80814Y1186836D01*
X82431Y1191814D01*
X83250Y1196983D01*
Y1202217D01*
X82431Y1207386D01*
X80814Y1212364D01*
X78438Y1217027D01*
X75362Y1221261D01*
X71661Y1224962D01*
X67427Y1228038D01*
X62764Y1230414D01*
X57786Y1232031D01*
X52617Y1232850D01*
D02*
G37*
G36*
X1592391Y1103160D02*
X1578891D01*
Y1089660D01*
X1592391D01*
Y1103160D01*
D02*
G37*
G36*
X1575891D02*
X1562391D01*
Y1089660D01*
X1575891D01*
Y1103160D01*
D02*
G37*
G36*
X1653391D02*
X1639891D01*
Y1089660D01*
X1653391D01*
Y1103160D01*
D02*
G37*
G36*
X1636891D02*
X1623391D01*
Y1089660D01*
X1636891D01*
Y1103160D01*
D02*
G37*
G36*
X1653391Y1086660D02*
X1639891D01*
Y1073160D01*
X1653391D01*
Y1086660D01*
D02*
G37*
G36*
X1636891D02*
X1623391D01*
Y1073160D01*
X1636891D01*
Y1086660D01*
D02*
G37*
G36*
X1592391Y1086660D02*
X1578891D01*
Y1073160D01*
X1592391D01*
Y1086660D01*
D02*
G37*
G36*
X1575891D02*
X1562391D01*
Y1073160D01*
X1575891D01*
Y1086660D01*
D02*
G37*
G36*
X533024Y1066369D02*
X531234D01*
X529580Y1065684D01*
X528314Y1064418D01*
X527629Y1062764D01*
Y1060974D01*
X528314Y1059320D01*
X529580Y1058054D01*
X531234Y1057369D01*
X533024D01*
X534678Y1058054D01*
X535944Y1059320D01*
X536629Y1060974D01*
Y1062764D01*
X535944Y1064418D01*
X534678Y1065684D01*
X533024Y1066369D01*
D02*
G37*
G36*
X611976Y1064617D02*
X610186D01*
X608532Y1063932D01*
X607266Y1062666D01*
X606581Y1061012D01*
Y1059222D01*
X607266Y1057568D01*
X608532Y1056302D01*
X610186Y1055617D01*
X611976D01*
X613630Y1056302D01*
X614896Y1057568D01*
X615581Y1059222D01*
Y1061012D01*
X614896Y1062666D01*
X613630Y1063932D01*
X611976Y1064617D01*
D02*
G37*
G36*
X567163Y1043240D02*
X565373D01*
X563719Y1042555D01*
X562453Y1041289D01*
X561768Y1039635D01*
Y1037845D01*
X561941Y1037427D01*
X560969Y1036455D01*
X559989Y1036861D01*
X558199D01*
X556545Y1036176D01*
X555279Y1034910D01*
X554594Y1033256D01*
Y1031466D01*
X555279Y1029812D01*
X555644Y1029447D01*
X555118Y1028177D01*
X527395D01*
X526639Y1028933D01*
X524985Y1029618D01*
X523195D01*
X521541Y1028933D01*
X520275Y1027667D01*
X519590Y1026013D01*
Y1024223D01*
X520275Y1022569D01*
X521541Y1021303D01*
X523195Y1020618D01*
X524985D01*
X526639Y1021303D01*
X527395Y1022059D01*
X716860D01*
X736271Y1002648D01*
Y994065D01*
Y944478D01*
X736286Y944405D01*
X735881Y943427D01*
X734903Y943022D01*
X734830Y943037D01*
X734757Y943022D01*
X733779Y943427D01*
X733374Y944405D01*
X733389Y944478D01*
Y977168D01*
X733395D01*
X733137Y979126D01*
X732381Y980950D01*
X731179Y982517D01*
X729612Y983719D01*
X727788Y984475D01*
X725830Y984733D01*
X723872Y984475D01*
X722048Y983719D01*
X720481Y982517D01*
X720084Y982000D01*
X718814Y982431D01*
Y990994D01*
X718581Y992164D01*
X717918Y993157D01*
X717918Y993157D01*
X697553Y1013522D01*
X696560Y1014185D01*
X695390Y1014418D01*
X695390Y1014418D01*
X483473D01*
X482303Y1014185D01*
X481310Y1013522D01*
X477707Y1009919D01*
X476638D01*
X474984Y1009234D01*
X473718Y1007968D01*
X473033Y1006314D01*
Y1004524D01*
X473331Y1003804D01*
X472625Y1002303D01*
X472405Y1002245D01*
X472269Y1002273D01*
X470709Y1002919D01*
X468919D01*
X467517Y1002338D01*
X466483Y1002534D01*
X466364Y1002580D01*
X466069Y1002834D01*
X466079Y1003046D01*
X466691Y1004524D01*
Y1006314D01*
X466006Y1007968D01*
X464740Y1009234D01*
X463086Y1009919D01*
X461296D01*
X459642Y1009234D01*
X458376Y1007968D01*
X457691Y1006314D01*
Y1004524D01*
X458376Y1002870D01*
X459132Y1002114D01*
Y1000380D01*
X457862Y1000127D01*
X457514Y1000968D01*
X456248Y1002234D01*
X454594Y1002919D01*
X452804D01*
X451368Y1002324D01*
X450451Y1002598D01*
X449969Y1002849D01*
X449968Y1002850D01*
X449988Y1002870D01*
X450673Y1004524D01*
Y1006314D01*
X449988Y1007968D01*
X448722Y1009234D01*
X447068Y1009919D01*
X445278D01*
X443624Y1009234D01*
X442358Y1007968D01*
X441673Y1006314D01*
Y1004524D01*
X442358Y1002870D01*
X442417Y1002811D01*
X442316Y1002330D01*
X440931Y1001919D01*
X440616Y1002234D01*
X438962Y1002919D01*
X437172D01*
X435518Y1002234D01*
X434252Y1000968D01*
X433567Y999314D01*
Y997524D01*
X434252Y995870D01*
X434717Y995405D01*
Y993964D01*
X394191Y953439D01*
X393528Y952447D01*
X393295Y951276D01*
X393295Y951276D01*
Y693847D01*
X393295Y693847D01*
X393528Y692676D01*
X394191Y691684D01*
X447746Y638129D01*
X448807Y637068D01*
X448807Y637068D01*
X480796Y605080D01*
X480796Y605080D01*
X480858Y605038D01*
X481225Y604153D01*
X480757Y603080D01*
X479684Y602613D01*
X478799Y602979D01*
X478757Y603041D01*
X449951Y631848D01*
X449951Y631848D01*
X449955Y631852D01*
X448388Y633055D01*
X446564Y633810D01*
X444606Y634068D01*
X442648Y633810D01*
X440824Y633055D01*
X439257Y631852D01*
X438055Y630286D01*
X437299Y628461D01*
X437041Y626503D01*
X437299Y624546D01*
X438055Y622721D01*
X439257Y621154D01*
X439261Y621158D01*
X473534Y586886D01*
X474427Y585984D01*
X474427Y585984D01*
X475994Y584781D01*
X477819Y584026D01*
X479777Y583768D01*
X481734Y584026D01*
X483559Y584781D01*
X485119Y585979D01*
X485119Y585979D01*
X485119Y585979D01*
X485118Y585984D01*
X491489Y592355D01*
X491528Y592415D01*
X492505Y592819D01*
X493478Y592416D01*
X493515Y592360D01*
X493523Y592352D01*
X493523Y592352D01*
X494584Y591291D01*
X494584Y591291D01*
X500708Y585168D01*
X501700Y584505D01*
X502870Y584272D01*
X502870Y584272D01*
X552309D01*
X553050Y583532D01*
X553135Y583317D01*
X553086Y582983D01*
X551686Y582189D01*
X551482Y582273D01*
X549692D01*
X548038Y581588D01*
X547282Y580832D01*
X475558D01*
X429418Y626972D01*
X429418Y626972D01*
X428358Y628032D01*
X428296Y628074D01*
X427891Y629051D01*
X428295Y630027D01*
X428354Y630067D01*
X434725Y636438D01*
X434729Y636438D01*
X434731Y636437D01*
X435928Y637997D01*
X436684Y639821D01*
X436941Y641779D01*
X436684Y643737D01*
X435928Y645562D01*
X435455Y646178D01*
X434740Y647110D01*
X433843Y648003D01*
X416124Y665721D01*
X416124Y665721D01*
X416129Y665725D01*
X414562Y666928D01*
X412737Y667683D01*
X410779Y667941D01*
X408822Y667683D01*
X406997Y666928D01*
X405430Y665725D01*
X405430Y665726D01*
X404228Y664159D01*
X403473Y662334D01*
X403215Y660377D01*
X403473Y658419D01*
X404228Y656594D01*
X405430Y655027D01*
X405434Y655032D01*
X417668Y642798D01*
X417668Y642798D01*
X417730Y642757D01*
X418097Y641871D01*
X417630Y640798D01*
X416557Y640331D01*
X415671Y640698D01*
X415630Y640760D01*
X415630Y640760D01*
X386282Y670108D01*
X386222Y670148D01*
X385848Y671051D01*
X385863Y671124D01*
X385863Y685909D01*
Y966890D01*
X421333Y1002360D01*
X426367D01*
X427123Y1001604D01*
X428777Y1000919D01*
X430567D01*
X432221Y1001604D01*
X433487Y1002870D01*
X434172Y1004524D01*
Y1006314D01*
X433487Y1007968D01*
X432221Y1009234D01*
X430567Y1009919D01*
X428777D01*
X427123Y1009234D01*
X426367Y1008478D01*
X420066D01*
X420066Y1008478D01*
X418895Y1008245D01*
X417903Y1007582D01*
X417903Y1007582D01*
X380641Y970320D01*
X379978Y969327D01*
X379745Y968157D01*
X379745Y968157D01*
Y685909D01*
X379745Y671124D01*
X379739D01*
X379997Y669166D01*
X380753Y667342D01*
X381950Y665781D01*
X381950Y665781D01*
X381950D01*
X382850Y664889D01*
X411304Y636434D01*
X411300Y636430D01*
X412867Y635228D01*
X414691Y634472D01*
X416649Y634215D01*
X418607Y634472D01*
X420431Y635228D01*
X421998Y636430D01*
X423200Y637997D01*
X423956Y639821D01*
X424213Y641779D01*
X423956Y643737D01*
X423200Y645562D01*
X421998Y647128D01*
X421998Y647128D01*
X421096Y648022D01*
X409760Y659357D01*
X409698Y659399D01*
X409344Y660254D01*
X409845Y661430D01*
X410849Y661834D01*
X411757Y661458D01*
X411799Y661396D01*
X430406Y642789D01*
X430460Y642752D01*
X430863Y641779D01*
X430459Y640803D01*
X430399Y640763D01*
X424922Y635286D01*
X424023Y634394D01*
X424022Y634394D01*
X424023Y634394D01*
X422826Y632834D01*
X422070Y631009D01*
X421812Y629051D01*
X422070Y627093D01*
X422826Y625269D01*
X424028Y623702D01*
X424032Y623706D01*
X424032Y623706D01*
X425093Y622646D01*
X425093Y622646D01*
X472128Y575610D01*
X473120Y574947D01*
X474291Y574714D01*
X474291Y574714D01*
X547282D01*
X548038Y573958D01*
X549692Y573273D01*
X551482D01*
X553136Y573958D01*
X554402Y575224D01*
X555087Y576878D01*
Y578602D01*
X555098Y578619D01*
X555360Y578866D01*
X556144Y579435D01*
X557416Y578908D01*
X559206D01*
X560860Y579593D01*
X562126Y580859D01*
X562811Y582513D01*
Y584303D01*
X562126Y585957D01*
X560860Y587223D01*
X559206Y587908D01*
X557416D01*
X557351Y587881D01*
X555739Y589493D01*
X554747Y590157D01*
X553576Y590389D01*
X553576Y590389D01*
X504137D01*
X498910Y595617D01*
X498910Y595617D01*
X497849Y596677D01*
X497833Y596698D01*
X497833Y596698D01*
X496287Y597884D01*
X494462Y598640D01*
X492505Y598897D01*
X490547Y598640D01*
X488722Y597884D01*
X487162Y596687D01*
X487162Y596687D01*
Y596687D01*
X486269Y595787D01*
X480792Y590310D01*
X480753Y590251D01*
X479777Y589846D01*
X478799Y590251D01*
X478758Y590314D01*
X443587Y625484D01*
X443525Y625526D01*
X443120Y626503D01*
X443504Y627432D01*
X444698Y627951D01*
X445583Y627584D01*
X445625Y627522D01*
X474432Y598716D01*
X474427Y598712D01*
X475994Y597509D01*
X477819Y596754D01*
X479776Y596496D01*
X481734Y596754D01*
X483559Y597509D01*
X485126Y598712D01*
X486328Y600278D01*
X487084Y602103D01*
X487341Y604061D01*
X487084Y606018D01*
X486328Y607843D01*
X485126Y609410D01*
X485126Y609410D01*
X484223Y610303D01*
X453133Y641394D01*
X453133Y641394D01*
X452072Y642455D01*
X452072Y642455D01*
X399413Y695114D01*
Y950009D01*
X440230Y990826D01*
X440230Y990826D01*
X440893Y991818D01*
X441126Y992989D01*
Y994478D01*
X441610Y994864D01*
X442880Y994251D01*
Y972875D01*
X442880Y972875D01*
X443113Y971704D01*
X443776Y970712D01*
X466039Y948449D01*
X467032Y947786D01*
X468202Y947553D01*
X544226D01*
X544478Y946283D01*
X543619Y945927D01*
X542059Y944730D01*
X542058Y944730D01*
Y944730D01*
X541166Y943831D01*
X534340Y937005D01*
X533441Y936112D01*
X533441Y936112D01*
X533441Y936112D01*
X532243Y934552D01*
X531488Y932728D01*
X531230Y930770D01*
X531488Y928812D01*
X532243Y926987D01*
X533441Y925427D01*
X533441Y925427D01*
X533441D01*
X534340Y924535D01*
X539814Y919061D01*
X539876Y919019D01*
X540281Y918042D01*
X539877Y917066D01*
X539817Y917026D01*
X515610Y892819D01*
X515568Y892757D01*
X514683Y892390D01*
X513610Y892857D01*
X513143Y893930D01*
X513510Y894815D01*
X513572Y894857D01*
X531412Y912697D01*
X531412Y912697D01*
X531416Y912693D01*
X532618Y914259D01*
X533374Y916084D01*
X533632Y918042D01*
X533374Y920000D01*
X532618Y921824D01*
X531416Y923391D01*
X529849Y924593D01*
X528025Y925349D01*
X526067Y925607D01*
X524109Y925349D01*
X522285Y924593D01*
X520718Y923391D01*
X520718Y923391D01*
X519824Y922489D01*
X507134Y909799D01*
X505961Y910285D01*
Y910346D01*
X505276Y912000D01*
X504010Y913266D01*
X502356Y913951D01*
X500566D01*
X499066Y913330D01*
X498386Y913587D01*
X497796Y913946D01*
Y914378D01*
X497111Y916032D01*
X497038Y916105D01*
X497524Y917278D01*
X505111D01*
X505867Y916522D01*
X507521Y915837D01*
X509311D01*
X510965Y916522D01*
X512231Y917788D01*
X512916Y919442D01*
Y921232D01*
X512231Y922886D01*
X511303Y923814D01*
X511291Y923893D01*
X511529Y925113D01*
X511579Y925198D01*
X512779Y925695D01*
X514045Y926961D01*
X514730Y928615D01*
Y930405D01*
X514045Y932059D01*
X512779Y933325D01*
X511125Y934010D01*
X509335D01*
X507681Y933325D01*
X506925Y932569D01*
X458332D01*
X457161Y932336D01*
X456169Y931673D01*
X456169Y931673D01*
X404951Y880455D01*
X404288Y879463D01*
X404055Y878292D01*
X404055Y878292D01*
Y825023D01*
X404055Y825023D01*
X404288Y823852D01*
X404951Y822860D01*
X409585Y818226D01*
X410577Y817563D01*
X411748Y817330D01*
X431541D01*
X432856Y816015D01*
Y708033D01*
X432856Y708033D01*
X433089Y706862D01*
X433752Y705870D01*
X436552Y703071D01*
X436552Y703071D01*
X437462Y702161D01*
X437462Y702161D01*
X438454Y701498D01*
X439624Y701265D01*
X449270D01*
X453336Y697199D01*
Y647101D01*
X453336Y647101D01*
X453569Y645930D01*
X454232Y644938D01*
X506475Y592695D01*
X507467Y592032D01*
X508638Y591799D01*
X508638Y591799D01*
X558951D01*
X600198Y550552D01*
Y549483D01*
X600883Y547829D01*
X602149Y546563D01*
X603803Y545878D01*
X605593D01*
X607247Y546563D01*
X608513Y547829D01*
X609198Y549483D01*
Y551273D01*
X610174Y552236D01*
X611270Y551782D01*
X613060D01*
X614714Y552467D01*
X615980Y553733D01*
X616303Y554514D01*
X617802Y554812D01*
X622967Y549646D01*
Y544107D01*
X621499Y542639D01*
X549735D01*
X548662Y542425D01*
X547752Y541818D01*
X481075Y475140D01*
X181887D01*
X181707Y475104D01*
X174200D01*
X173127Y474890D01*
X172217Y474283D01*
X162117Y464183D01*
X161510Y463273D01*
X161296Y462200D01*
Y440278D01*
X161510Y439205D01*
X162117Y438295D01*
X168678Y431735D01*
Y430305D01*
X169363Y428651D01*
X170629Y427385D01*
X172283Y426700D01*
X174073D01*
X175727Y427385D01*
X176993Y428651D01*
X177678Y430305D01*
Y432095D01*
X176993Y433749D01*
X175727Y435015D01*
X174073Y435700D01*
X172643D01*
X166904Y441439D01*
Y461039D01*
X175361Y469496D01*
X179073D01*
X179559Y468323D01*
X173098Y461862D01*
X172029D01*
X170375Y461177D01*
X169109Y459911D01*
X168424Y458257D01*
Y456467D01*
X169109Y454813D01*
X170375Y453547D01*
X172029Y452862D01*
X173819D01*
X175473Y453547D01*
X176739Y454813D01*
X177424Y456467D01*
Y457536D01*
X184716Y464828D01*
X186045Y464740D01*
X186705Y463717D01*
X186400Y462981D01*
Y461191D01*
X187085Y459537D01*
X188351Y458271D01*
X190005Y457586D01*
X191795D01*
X193449Y458271D01*
X194706Y459529D01*
X490187D01*
X490187Y459528D01*
X491358Y459761D01*
X492350Y460424D01*
X522852Y490926D01*
X752720D01*
X761665Y481981D01*
X761884Y480418D01*
X761199Y478764D01*
Y476974D01*
X761884Y475320D01*
X763150Y474054D01*
X764804Y473369D01*
X766594D01*
X768248Y474054D01*
X769514Y475320D01*
X770199Y476974D01*
Y478764D01*
X769514Y480418D01*
X768656Y481276D01*
Y482374D01*
X768423Y483545D01*
X767760Y484537D01*
X767760Y484537D01*
X757778Y494519D01*
X758207Y495886D01*
X758734Y495991D01*
X759726Y496654D01*
X770428Y507356D01*
X770428Y507356D01*
X771091Y508348D01*
X771324Y509519D01*
Y524176D01*
X772080Y524932D01*
X772765Y526586D01*
Y528376D01*
X772080Y530030D01*
X770814Y531296D01*
X769425Y531871D01*
X769678Y533141D01*
X1099600D01*
X1099600Y533141D01*
X1100770Y533374D01*
X1101763Y534037D01*
X1110095Y542369D01*
X1110095Y542369D01*
X1110758Y543361D01*
X1110991Y544532D01*
Y562024D01*
Y572524D01*
X1110976Y572597D01*
X1111381Y573574D01*
X1112359Y573979D01*
X1112432Y573965D01*
X1117808D01*
Y573959D01*
X1119766Y574217D01*
X1121590Y574972D01*
X1123157Y576175D01*
X1124359Y577741D01*
X1125115Y579566D01*
X1125373Y581524D01*
X1125115Y583481D01*
X1124359Y585306D01*
X1123157Y586873D01*
X1121590Y588075D01*
X1119766Y588830D01*
X1117808Y589088D01*
Y589082D01*
X1112432D01*
X1112359Y589068D01*
X1111381Y589473D01*
X1110976Y590450D01*
X1110991Y590524D01*
Y608878D01*
Y616465D01*
X1119667Y625141D01*
X1125034D01*
X1125287Y623871D01*
X1125151Y623815D01*
X1123885Y622549D01*
X1123200Y620895D01*
Y619105D01*
X1123456Y618487D01*
X1122484Y617515D01*
X1121795Y617800D01*
X1120005D01*
X1118351Y617115D01*
X1117085Y615849D01*
X1116400Y614195D01*
Y612405D01*
X1117085Y610751D01*
X1118351Y609485D01*
X1120005Y608800D01*
X1121795D01*
X1123449Y609485D01*
X1124005Y610041D01*
X1133490D01*
X1134159Y608771D01*
X1133672Y607595D01*
Y605805D01*
X1134357Y604151D01*
X1135113Y603395D01*
Y535028D01*
X1135113Y535028D01*
X1135346Y533857D01*
X1136009Y532865D01*
X1141237Y527637D01*
X1141237Y527637D01*
X1142230Y526974D01*
X1143400Y526741D01*
X1143400Y526741D01*
X1173595D01*
X1174351Y525985D01*
X1176005Y525300D01*
X1177795D01*
X1179449Y525985D01*
X1180715Y527251D01*
X1181400Y528905D01*
Y530695D01*
X1180715Y532349D01*
X1179449Y533615D01*
X1177795Y534300D01*
X1176005D01*
X1174351Y533615D01*
X1173595Y532859D01*
X1144667D01*
X1141231Y536295D01*
Y603395D01*
X1141987Y604151D01*
X1142672Y605805D01*
Y607595D01*
X1142185Y608771D01*
X1142854Y610041D01*
X1158490D01*
X1159159Y608771D01*
X1158672Y607595D01*
Y605805D01*
X1159357Y604151D01*
X1160077Y603431D01*
Y595641D01*
X1159285Y594849D01*
X1158600Y593195D01*
Y591405D01*
X1159285Y589751D01*
X1160551Y588485D01*
X1162205Y587800D01*
X1163995D01*
X1165649Y588485D01*
X1166915Y589751D01*
X1167600Y591405D01*
Y593195D01*
X1166915Y594849D01*
X1166195Y595569D01*
Y603359D01*
X1166987Y604151D01*
X1167672Y605805D01*
Y607595D01*
X1167185Y608771D01*
X1167854Y610041D01*
X1177048D01*
X1177048Y610041D01*
X1178219Y610274D01*
X1179211Y610937D01*
X1187261Y618986D01*
X1188337Y618267D01*
X1187807Y616988D01*
Y615197D01*
X1188493Y613544D01*
X1189249Y612787D01*
Y604725D01*
X1184137Y599614D01*
X1183474Y598622D01*
X1183241Y597451D01*
X1183241Y597451D01*
Y557105D01*
X1182485Y556349D01*
X1181800Y554695D01*
Y552905D01*
X1182485Y551251D01*
X1183751Y549985D01*
X1185405Y549300D01*
X1187195D01*
X1188849Y549985D01*
X1190115Y551251D01*
X1190800Y552905D01*
Y554695D01*
X1190115Y556349D01*
X1189359Y557105D01*
Y596184D01*
X1194470Y601296D01*
X1195133Y602288D01*
X1195366Y603459D01*
Y612787D01*
X1196122Y613544D01*
X1196807Y615197D01*
Y616988D01*
X1196122Y618642D01*
X1194856Y619907D01*
X1193203Y620593D01*
X1191412D01*
X1190133Y620063D01*
X1189414Y621139D01*
X1191916Y623641D01*
X1234853D01*
X1235379Y622371D01*
X1235357Y622349D01*
X1234672Y620695D01*
Y618905D01*
X1235357Y617251D01*
X1235146Y615680D01*
X1224167Y604701D01*
X1205663D01*
X1204906Y605457D01*
X1203252Y606143D01*
X1201462D01*
X1199808Y605457D01*
X1198542Y604192D01*
X1197857Y602538D01*
Y600747D01*
X1198542Y599094D01*
X1199808Y597828D01*
X1201462Y597143D01*
X1203252D01*
X1204906Y597828D01*
X1205663Y598584D01*
X1225434D01*
X1225434Y598584D01*
X1226605Y598817D01*
X1227597Y599480D01*
X1241241Y613124D01*
X1241241Y613124D01*
X1241904Y614117D01*
X1242137Y615287D01*
Y616401D01*
X1242987Y617251D01*
X1243672Y618905D01*
Y620695D01*
X1242987Y622349D01*
X1242965Y622371D01*
X1243491Y623641D01*
X1259564D01*
X1259564Y623641D01*
X1260734Y623874D01*
X1261727Y624537D01*
X1275063Y637873D01*
X1275063Y637873D01*
X1275726Y638866D01*
X1275959Y640036D01*
X1275959Y640036D01*
Y670595D01*
X1276715Y671351D01*
X1277400Y673005D01*
Y674795D01*
X1276715Y676449D01*
X1275449Y677715D01*
X1273795Y678400D01*
X1272005D01*
X1270351Y677715D01*
X1269085Y676449D01*
X1268400Y674795D01*
Y673005D01*
X1269085Y671351D01*
X1269841Y670595D01*
Y663882D01*
X1268571Y663154D01*
X1267495Y663600D01*
X1265705D01*
X1264051Y662915D01*
X1262785Y661649D01*
X1262100Y659995D01*
Y658205D01*
X1262785Y656551D01*
X1263541Y655795D01*
Y645711D01*
X1256389Y638559D01*
X1254900D01*
X1254647Y639829D01*
X1255749Y640285D01*
X1257015Y641551D01*
X1257700Y643205D01*
Y644995D01*
X1257015Y646649D01*
X1255749Y647915D01*
X1255685Y647942D01*
Y649574D01*
X1255452Y650745D01*
X1254789Y651737D01*
X1254789Y651737D01*
X1249863Y656663D01*
X1248870Y657326D01*
X1247700Y657559D01*
X1247700Y657559D01*
X1190700D01*
X1190700Y657559D01*
X1189529Y657326D01*
X1188537Y656663D01*
X1188176Y656302D01*
X1187100Y657022D01*
X1187300Y657505D01*
Y659295D01*
X1186615Y660949D01*
X1185349Y662215D01*
X1183695Y662900D01*
X1182622D01*
X1182096Y664170D01*
X1223667Y705741D01*
X1280867D01*
X1281623Y704985D01*
X1283277Y704300D01*
X1285067D01*
X1286721Y704985D01*
X1287987Y706251D01*
X1288672Y707905D01*
Y709695D01*
X1287987Y711349D01*
X1286721Y712615D01*
X1285067Y713300D01*
X1283277D01*
X1281623Y712615D01*
X1280867Y711859D01*
X1222400D01*
X1222400Y711859D01*
X1221229Y711626D01*
X1220237Y710963D01*
X1220237Y710963D01*
X1171033Y661759D01*
X1155619D01*
X1155093Y663029D01*
X1155215Y663151D01*
X1155900Y664805D01*
Y666595D01*
X1155215Y668249D01*
X1153949Y669515D01*
X1152295Y670200D01*
X1150505D01*
X1149699Y669866D01*
X1149046Y670399D01*
X1148672Y670815D01*
Y672495D01*
X1147987Y674149D01*
X1146721Y675415D01*
X1145067Y676100D01*
X1143277D01*
X1141623Y675415D01*
X1140867Y674659D01*
X1088600D01*
X1087429Y674426D01*
X1086437Y673763D01*
X1042933Y630259D01*
X967182D01*
Y630265D01*
X965224Y630007D01*
X963399Y629251D01*
X961833Y628049D01*
X960630Y626482D01*
X959875Y624658D01*
X959617Y622700D01*
X959623D01*
Y620863D01*
X959638Y620790D01*
X959283Y619935D01*
X958182Y619479D01*
X957080Y619935D01*
X956726Y620790D01*
X956740Y620863D01*
Y635226D01*
X956746D01*
X956489Y637184D01*
X955733Y639008D01*
X954531Y640575D01*
X954145Y640871D01*
X954576Y642141D01*
X1047100D01*
X1047100Y642141D01*
X1048270Y642374D01*
X1049263Y643037D01*
X1087467Y681241D01*
X1185700D01*
X1185700Y681241D01*
X1186870Y681474D01*
X1187863Y682137D01*
X1220367Y714641D01*
X1239795D01*
X1240551Y713885D01*
X1242205Y713200D01*
X1243995D01*
X1245649Y713885D01*
X1246915Y715151D01*
X1247600Y716805D01*
Y718595D01*
X1246915Y720249D01*
X1245649Y721515D01*
X1243995Y722200D01*
X1242205D01*
X1240551Y721515D01*
X1239795Y720759D01*
X1219100D01*
X1219100Y720759D01*
X1217930Y720526D01*
X1216937Y719863D01*
X1216937Y719863D01*
X1184433Y687359D01*
X1182481D01*
X1181955Y688629D01*
X1217767Y724441D01*
X1274795D01*
X1275551Y723685D01*
X1277205Y723000D01*
X1278995D01*
X1280649Y723685D01*
X1281915Y724951D01*
X1282600Y726605D01*
Y728395D01*
X1281915Y730049D01*
X1281593Y730371D01*
X1282119Y731641D01*
X1289595D01*
X1290551Y730685D01*
X1292205Y730000D01*
X1293995D01*
X1295649Y730685D01*
X1296915Y731951D01*
X1297600Y733605D01*
Y735395D01*
X1296915Y737049D01*
X1295649Y738315D01*
X1293995Y739000D01*
X1292205D01*
X1290551Y738315D01*
X1289995Y737759D01*
X1212300D01*
X1211130Y737526D01*
X1210137Y736863D01*
X1210137Y736863D01*
X1171233Y697959D01*
X1076536D01*
X1075366Y697726D01*
X1074373Y697063D01*
X1074373Y697063D01*
X1038374Y661064D01*
X885195D01*
X884569Y662334D01*
X885251Y663222D01*
X886007Y665047D01*
X886265Y667005D01*
X886259D01*
Y668800D01*
X886244Y668873D01*
X886649Y669851D01*
X887627Y670256D01*
X887700Y670241D01*
X1041224D01*
X1041224Y670241D01*
X1042395Y670474D01*
X1043387Y671137D01*
X1079291Y707041D01*
X1155867D01*
X1156623Y706285D01*
X1158277Y705600D01*
X1160067D01*
X1161721Y706285D01*
X1162987Y707551D01*
X1163672Y709205D01*
Y710995D01*
X1163143Y712271D01*
X1163754Y713541D01*
X1176600D01*
X1176600Y713541D01*
X1177771Y713774D01*
X1178763Y714437D01*
X1188226Y723900D01*
X1189295D01*
X1190949Y724585D01*
X1192215Y725851D01*
X1192900Y727505D01*
Y729295D01*
X1192215Y730949D01*
X1190949Y732215D01*
X1189295Y732900D01*
X1187505D01*
X1185851Y732215D01*
X1184585Y730949D01*
X1183900Y729295D01*
Y728226D01*
X1175333Y719659D01*
X1172199D01*
X1171351Y720929D01*
X1171672Y721705D01*
Y723495D01*
X1170987Y725149D01*
X1170231Y725905D01*
Y735128D01*
X1170231Y735128D01*
X1169998Y736299D01*
X1169335Y737291D01*
X1169335Y737291D01*
X1164363Y742263D01*
X1163371Y742926D01*
X1162200Y743159D01*
X1162200Y743159D01*
X1138050D01*
X1137619Y744429D01*
X1138244Y744909D01*
X1139446Y746476D01*
X1140202Y748300D01*
X1140460Y750258D01*
X1140454D01*
Y762436D01*
X1140439Y762509D01*
X1140794Y763364D01*
X1141895Y763820D01*
X1142997Y763364D01*
X1143351Y762509D01*
X1143336Y762436D01*
Y760700D01*
X1143331D01*
X1143588Y758742D01*
X1144344Y756918D01*
X1145546Y755351D01*
X1147113Y754149D01*
X1148937Y753393D01*
X1150895Y753135D01*
Y753141D01*
X1182451D01*
X1185340Y750252D01*
X1186332Y749589D01*
X1187503Y749356D01*
X1200867D01*
X1201623Y748600D01*
X1203277Y747915D01*
X1205067D01*
X1206721Y748600D01*
X1207987Y749866D01*
X1208672Y751520D01*
Y753310D01*
X1207987Y754964D01*
X1206721Y756230D01*
X1205067Y756915D01*
X1203277D01*
X1202331Y757898D01*
X1202500Y758305D01*
Y760095D01*
X1201815Y761749D01*
X1201059Y762505D01*
Y771200D01*
X1201059Y771200D01*
X1200826Y772371D01*
X1200163Y773363D01*
X1200163Y773363D01*
X1190463Y783063D01*
X1189471Y783726D01*
X1188300Y783959D01*
X1188300Y783959D01*
X1050291D01*
X1050218Y783944D01*
X1049240Y784349D01*
X1048835Y785327D01*
X1048850Y785400D01*
Y789100D01*
X1048856D01*
X1048598Y791058D01*
X1047842Y792882D01*
X1046640Y794449D01*
X1045073Y795651D01*
X1043249Y796407D01*
X1041291Y796665D01*
X1039333Y796407D01*
X1037509Y795651D01*
X1035942Y794449D01*
X1034740Y792882D01*
X1033984Y791058D01*
X1033727Y789100D01*
X1033732D01*
Y772889D01*
X1033747Y772816D01*
X1033393Y771961D01*
X1032291Y771504D01*
X1031190Y771961D01*
X1030835Y772816D01*
X1030850Y772889D01*
Y789100D01*
X1030856D01*
X1030598Y791058D01*
X1029842Y792882D01*
X1028640Y794449D01*
X1027074Y795651D01*
X1025249Y796407D01*
X1023291Y796665D01*
X1021333Y796407D01*
X1019509Y795651D01*
X1017942Y794449D01*
X1016740Y792882D01*
X1015984Y791058D01*
X1015726Y789100D01*
X1015732D01*
Y772889D01*
X1015747Y772816D01*
X1015393Y771961D01*
X1014291Y771504D01*
X1013190Y771961D01*
X1012835Y772816D01*
X1012850Y772889D01*
Y789100D01*
X1012856D01*
X1012598Y791058D01*
X1011842Y792882D01*
X1010640Y794449D01*
X1009074Y795651D01*
X1007249Y796407D01*
X1005291Y796665D01*
X1003333Y796407D01*
X1001509Y795651D01*
X999942Y794449D01*
X998740Y792882D01*
X997984Y791058D01*
X997727Y789100D01*
X997732D01*
Y772889D01*
X997747Y772816D01*
X997393Y771961D01*
X996291Y771504D01*
X995190Y771961D01*
X994835Y772816D01*
X994850Y772889D01*
Y789100D01*
X994856D01*
X994598Y791058D01*
X993842Y792882D01*
X992640Y794449D01*
X991074Y795651D01*
X989249Y796407D01*
X987291Y796665D01*
X985333Y796407D01*
X983509Y795651D01*
X981942Y794449D01*
X980740Y792882D01*
X979984Y791058D01*
X979727Y789100D01*
X979733D01*
Y772889D01*
X979747Y772816D01*
X979393Y771961D01*
X978291Y771504D01*
X977190Y771961D01*
X976835Y772816D01*
X976850Y772889D01*
Y789100D01*
X976856D01*
X976598Y791058D01*
X975843Y792882D01*
X974640Y794449D01*
X973074Y795651D01*
X971249Y796407D01*
X969291Y796665D01*
X967333Y796407D01*
X965509Y795651D01*
X963942Y794449D01*
X962740Y792882D01*
X961984Y791058D01*
X961727Y789100D01*
X961732D01*
Y772889D01*
X961747Y772816D01*
X961393Y771961D01*
X960291Y771504D01*
X959190Y771961D01*
X958836Y772816D01*
X958850Y772889D01*
Y789100D01*
X958856D01*
X958598Y791058D01*
X957843Y792882D01*
X956640Y794449D01*
X955074Y795651D01*
X953249Y796407D01*
X951291Y796665D01*
X949333Y796407D01*
X947509Y795651D01*
X945942Y794449D01*
X944740Y792882D01*
X943984Y791058D01*
X943727Y789100D01*
X943733D01*
Y785400D01*
X943747Y785327D01*
X943342Y784349D01*
X942365Y783944D01*
X942291Y783959D01*
X849500D01*
X848329Y783726D01*
X847337Y783063D01*
X847337Y783063D01*
X758076Y693802D01*
X753673D01*
X752917Y694558D01*
X751263Y695243D01*
X749473D01*
X747819Y694558D01*
X746553Y693292D01*
X745868Y691638D01*
Y689848D01*
X746553Y688194D01*
X747819Y686928D01*
X749473Y686243D01*
X750174D01*
X751281Y685647D01*
X751298Y685070D01*
Y683848D01*
X751983Y682194D01*
X753249Y680928D01*
X754903Y680243D01*
X756693D01*
X758347Y680928D01*
X759103Y681684D01*
X763843D01*
X763843Y681684D01*
X764616Y681838D01*
X765242Y680667D01*
X760933Y676359D01*
X686944D01*
X686458Y677532D01*
X687191Y678266D01*
X687192Y678266D01*
X687855Y679258D01*
X688087Y680429D01*
X688087Y680429D01*
Y681675D01*
X688871Y682459D01*
X689556Y684113D01*
Y685903D01*
X689464Y686125D01*
X690436Y687097D01*
X690471Y687083D01*
X692261D01*
X693915Y687768D01*
X694332Y688185D01*
X699894D01*
X699894Y688185D01*
X701065Y688418D01*
X702057Y689081D01*
X734117Y721141D01*
X734117Y721141D01*
X734780Y722133D01*
X735013Y723304D01*
X735013Y723304D01*
Y805235D01*
X736271Y805263D01*
X736271Y805263D01*
X736504Y804092D01*
X737167Y803100D01*
X739863Y800405D01*
X739825Y800314D01*
Y798524D01*
X740510Y796870D01*
X741776Y795604D01*
X743430Y794919D01*
X745220D01*
X746874Y795604D01*
X748140Y796870D01*
X748197Y797007D01*
X749571D01*
X749628Y796870D01*
X750894Y795604D01*
X752548Y794919D01*
X754338D01*
X755992Y795604D01*
X757258Y796870D01*
X757554Y797584D01*
X758928D01*
X759224Y796870D01*
X760490Y795604D01*
X762144Y794919D01*
X763934D01*
X765588Y795604D01*
X766854Y796870D01*
X767539Y798524D01*
Y799593D01*
X779609Y811663D01*
X780272Y812655D01*
X780505Y813826D01*
X780505Y813826D01*
Y892107D01*
Y952227D01*
X780511D01*
X780253Y954185D01*
X779497Y956009D01*
X778295Y957576D01*
X776728Y958778D01*
X774904Y959534D01*
X772946Y959792D01*
X770988Y959534D01*
X769164Y958778D01*
X767597Y957576D01*
X766395Y956009D01*
X765639Y954185D01*
X765381Y952227D01*
X765387D01*
Y927417D01*
X765402Y927344D01*
X764997Y926366D01*
X764019Y925961D01*
X763946Y925976D01*
X763873Y925961D01*
X762895Y926366D01*
X762490Y927344D01*
X762505Y927417D01*
Y961227D01*
X762490Y961300D01*
X762895Y962278D01*
X763873Y962683D01*
X763946Y962668D01*
X772946D01*
Y962662D01*
X774904Y962920D01*
X776728Y963676D01*
X778295Y964878D01*
X779497Y966445D01*
X780253Y968269D01*
X780511Y970227D01*
X780505D01*
Y971727D01*
Y1005823D01*
X780272Y1006993D01*
X779609Y1007986D01*
X779609Y1007986D01*
X746692Y1040903D01*
X745700Y1041566D01*
X744529Y1041799D01*
X744529Y1041799D01*
X569573D01*
X568817Y1042555D01*
X567163Y1043240D01*
D02*
G37*
G36*
X1546100Y1132924D02*
X55300D01*
X54152Y1132448D01*
X53676Y1131300D01*
Y670400D01*
X54152Y669252D01*
X55300Y668776D01*
X68628D01*
X95476Y641927D01*
X95476Y632800D01*
X95952Y631652D01*
X97100Y631176D01*
X197200D01*
X198348Y631652D01*
X198824Y632800D01*
Y689300D01*
X198348Y690448D01*
X197200Y690924D01*
X111224D01*
Y736218D01*
X111042Y736655D01*
X110950Y737120D01*
X110812Y737212D01*
X110748Y737366D01*
X110310Y737547D01*
X109917Y737810D01*
X109703Y737853D01*
Y739147D01*
X109917Y739190D01*
X110310Y739453D01*
X110748Y739634D01*
X110812Y739788D01*
X110950Y739880D01*
X111042Y740345D01*
X111224Y740782D01*
Y750735D01*
X111042Y751172D01*
X110950Y751637D01*
X110812Y751729D01*
X110748Y751883D01*
X110310Y752064D01*
X109917Y752327D01*
X108647Y752580D01*
X108414Y752533D01*
X108315Y752574D01*
X108105Y752487D01*
X107709Y752487D01*
X107591Y752370D01*
X107428Y752337D01*
X107308Y752157D01*
X107167Y752099D01*
X106129Y751061D01*
X105072Y750624D01*
X103928D01*
X102871Y751061D01*
X102062Y751871D01*
X101624Y752928D01*
Y754072D01*
X102062Y755129D01*
X102871Y755938D01*
X103928Y756376D01*
X105072D01*
X106129Y755938D01*
X107167Y754901D01*
X107308Y754843D01*
X107428Y754663D01*
X107591Y754630D01*
X107709Y754512D01*
X108105Y754512D01*
X108315Y754425D01*
X108414Y754466D01*
X108647Y754420D01*
X109917Y754673D01*
X110310Y754936D01*
X110748Y755117D01*
X110812Y755271D01*
X110950Y755363D01*
X111042Y755828D01*
X111224Y756265D01*
Y1077876D01*
X1490476D01*
Y1048159D01*
X1486600D01*
X1485430Y1047926D01*
X1484437Y1047263D01*
X1480737Y1043563D01*
X1480074Y1042570D01*
X1479841Y1041400D01*
X1479841Y1041400D01*
Y1015505D01*
X1479085Y1014749D01*
X1478400Y1013095D01*
Y1011305D01*
X1479085Y1009651D01*
X1480351Y1008385D01*
X1482005Y1007700D01*
X1483795D01*
X1485449Y1008385D01*
X1486715Y1009651D01*
X1487400Y1011305D01*
Y1013095D01*
X1486715Y1014749D01*
X1485959Y1015505D01*
Y1040133D01*
X1487867Y1042041D01*
X1490476D01*
Y1033500D01*
X1490952Y1032352D01*
X1492100Y1031876D01*
X1546100D01*
X1547248Y1032352D01*
X1547724Y1033500D01*
Y1131300D01*
X1547248Y1132448D01*
X1546100Y1132924D01*
D02*
G37*
G36*
X1584780Y1043410D02*
X1583003D01*
X1581286Y1042950D01*
X1579747Y1042061D01*
X1578490Y1040805D01*
X1577601Y1039265D01*
X1577141Y1037549D01*
Y1035771D01*
X1577601Y1034055D01*
X1578490Y1032515D01*
X1579747Y1031259D01*
X1581286Y1030370D01*
X1582391Y1030074D01*
Y1035160D01*
X1577305D01*
X1577142Y1036660D01*
X1577305Y1038160D01*
X1582391D01*
Y1043246D01*
X1583891Y1043410D01*
X1585391Y1043246D01*
Y1038160D01*
X1590477D01*
X1590641Y1036660D01*
X1590477Y1035160D01*
X1585391D01*
Y1030074D01*
X1586497Y1030370D01*
X1588036Y1031259D01*
X1589293Y1032515D01*
X1590181Y1034055D01*
X1590641Y1035771D01*
Y1037549D01*
X1590181Y1039265D01*
X1589293Y1040805D01*
X1588036Y1042061D01*
X1586497Y1042950D01*
X1584780Y1043410D01*
D02*
G37*
G36*
X1585391Y1030074D02*
X1583892Y1029910D01*
X1584780D01*
X1585391Y1030074D01*
D02*
G37*
G36*
X1582392Y1030074D02*
X1583003Y1029910D01*
X1583891D01*
X1582392Y1030074D01*
D02*
G37*
G36*
X1454295Y1020800D02*
X1452505D01*
X1450851Y1020115D01*
X1449585Y1018849D01*
X1449391Y1018380D01*
X1448985Y1018109D01*
X1421879D01*
X1421879Y1018109D01*
X1420708Y1017876D01*
X1419716Y1017213D01*
X1403937Y1001434D01*
X1403274Y1000442D01*
X1403041Y999271D01*
X1403041Y999271D01*
Y605467D01*
X1278502Y480928D01*
X903136D01*
X866704Y517360D01*
X866609Y517839D01*
X866803Y518308D01*
Y520098D01*
X866118Y521752D01*
X864852Y523018D01*
X863198Y523703D01*
X861408D01*
X859754Y523018D01*
X858488Y521752D01*
X857803Y520098D01*
Y518400D01*
X856105D01*
X854451Y517715D01*
X853185Y516449D01*
X852500Y514795D01*
Y513005D01*
X853185Y511351D01*
X854451Y510085D01*
X856105Y509400D01*
X857895D01*
X858364Y509594D01*
X858843Y509499D01*
X896171Y472171D01*
X896171Y472171D01*
X897635Y470706D01*
X898628Y470043D01*
X899798Y469811D01*
X899799Y469811D01*
X1281840D01*
X1281840Y469811D01*
X1283011Y470043D01*
X1284003Y470706D01*
X1413263Y599966D01*
X1413263Y599966D01*
X1413926Y600959D01*
X1414159Y602129D01*
Y995933D01*
X1425217Y1006991D01*
X1448985D01*
X1449391Y1006720D01*
X1449585Y1006251D01*
X1450851Y1004985D01*
X1452505Y1004300D01*
X1454295D01*
X1455949Y1004985D01*
X1457215Y1006251D01*
X1457900Y1007905D01*
Y1009695D01*
X1457215Y1011349D01*
X1456014Y1012550D01*
X1457215Y1013751D01*
X1457900Y1015405D01*
Y1017195D01*
X1457215Y1018849D01*
X1455949Y1020115D01*
X1454295Y1020800D01*
D02*
G37*
G36*
X1583891Y994410D02*
X1583003D01*
X1582392Y994246D01*
X1583891Y994410D01*
D02*
G37*
G36*
X1584780D02*
X1583892D01*
X1585391Y994246D01*
X1584780Y994410D01*
D02*
G37*
G36*
X1585391Y994246D02*
Y989160D01*
X1590477D01*
X1590641Y987660D01*
X1590477Y986160D01*
X1585391D01*
Y981074D01*
X1583891Y980910D01*
X1582391Y981074D01*
Y986160D01*
X1577305D01*
X1577142Y987660D01*
X1577305Y989160D01*
X1582391D01*
Y994246D01*
X1581286Y993950D01*
X1579747Y993061D01*
X1578490Y991805D01*
X1577601Y990265D01*
X1577141Y988549D01*
Y986771D01*
X1577601Y985055D01*
X1578490Y983515D01*
X1579747Y982259D01*
X1581286Y981370D01*
X1583003Y980910D01*
X1584780D01*
X1586497Y981370D01*
X1588036Y982259D01*
X1589293Y983515D01*
X1590181Y985055D01*
X1590641Y986771D01*
Y988549D01*
X1590181Y990265D01*
X1589293Y991805D01*
X1588036Y993061D01*
X1586497Y993950D01*
X1585391Y994246D01*
D02*
G37*
G36*
X1592391Y951160D02*
X1578891D01*
Y937660D01*
X1592391D01*
Y951160D01*
D02*
G37*
G36*
X1575891D02*
X1562391D01*
Y937660D01*
X1575891D01*
Y951160D01*
D02*
G37*
G36*
X1653391D02*
X1639891D01*
Y937660D01*
X1653391D01*
Y951160D01*
D02*
G37*
G36*
X1636891D02*
X1623391D01*
Y937660D01*
X1636891D01*
Y951160D01*
D02*
G37*
G36*
X1653391Y934660D02*
X1639891D01*
Y921160D01*
X1653391D01*
Y934660D01*
D02*
G37*
G36*
X1636891D02*
X1623391D01*
Y921160D01*
X1636891D01*
Y934660D01*
D02*
G37*
G36*
X1592391Y934660D02*
X1578891D01*
Y921160D01*
X1592391D01*
Y934660D01*
D02*
G37*
G36*
X1575891D02*
X1562391D01*
Y921160D01*
X1575891D01*
Y934660D01*
D02*
G37*
G36*
X231104Y808529D02*
X229314D01*
X227660Y807844D01*
X226394Y806578D01*
X225709Y804924D01*
Y803134D01*
X226394Y801480D01*
X227660Y800214D01*
X229314Y799529D01*
X231104D01*
X232758Y800214D01*
X234024Y801480D01*
X234709Y803134D01*
Y804924D01*
X234024Y806578D01*
X232758Y807844D01*
X231104Y808529D01*
D02*
G37*
G36*
X131195Y847300D02*
X129405D01*
X127751Y846615D01*
X126485Y845349D01*
X125800Y843695D01*
Y841905D01*
X126485Y840251D01*
X127751Y838985D01*
X129405Y838300D01*
X131195D01*
X132849Y838985D01*
X133605Y839741D01*
X160133D01*
X198008Y801866D01*
X199000Y801203D01*
X200171Y800970D01*
X200171Y800970D01*
X214204D01*
X214960Y800214D01*
X216614Y799529D01*
X218404D01*
X220058Y800214D01*
X221324Y801480D01*
X222009Y803134D01*
Y804924D01*
X221324Y806578D01*
X220058Y807844D01*
X218404Y808529D01*
X216614D01*
X214960Y807844D01*
X214204Y807088D01*
X201438D01*
X163563Y844963D01*
X162570Y845626D01*
X161400Y845859D01*
X161400Y845859D01*
X133605D01*
X132849Y846615D01*
X131195Y847300D01*
D02*
G37*
G36*
X231104Y785542D02*
X229314D01*
X227660Y784857D01*
X226394Y783591D01*
X225709Y781937D01*
Y780147D01*
X226394Y778493D01*
X227660Y777227D01*
X229314Y776542D01*
X231104D01*
X232758Y777227D01*
X234024Y778493D01*
X234709Y780147D01*
Y781937D01*
X234024Y783591D01*
X232758Y784857D01*
X231104Y785542D01*
D02*
G37*
G36*
X218404D02*
X216614D01*
X214960Y784857D01*
X213694Y783591D01*
X213009Y781937D01*
Y780147D01*
X213694Y778493D01*
X214960Y777227D01*
X216614Y776542D01*
X218404D01*
X220058Y777227D01*
X221324Y778493D01*
X222009Y780147D01*
Y781937D01*
X221324Y783591D01*
X220058Y784857D01*
X218404Y785542D01*
D02*
G37*
G36*
X231104Y762555D02*
X229314D01*
X227660Y761870D01*
X226394Y760604D01*
X225709Y758950D01*
Y757160D01*
X226394Y755506D01*
X227660Y754240D01*
X229314Y753555D01*
X231104D01*
X232758Y754240D01*
X234024Y755506D01*
X234709Y757160D01*
Y758950D01*
X234024Y760604D01*
X232758Y761870D01*
X231104Y762555D01*
D02*
G37*
G36*
X218404D02*
X216614D01*
X214960Y761870D01*
X213694Y760604D01*
X213009Y758950D01*
Y757160D01*
X213694Y755506D01*
X214960Y754240D01*
X216614Y753555D01*
X218404D01*
X220058Y754240D01*
X221324Y755506D01*
X222009Y757160D01*
Y758950D01*
X221324Y760604D01*
X220058Y761870D01*
X218404Y762555D01*
D02*
G37*
G36*
X779795Y730400D02*
X778005D01*
X776351Y729715D01*
X775085Y728449D01*
X774400Y726795D01*
Y725005D01*
X775085Y723351D01*
X776351Y722085D01*
X778005Y721400D01*
X779795D01*
X781449Y722085D01*
X782715Y723351D01*
X783400Y725005D01*
Y726795D01*
X782715Y728449D01*
X781449Y729715D01*
X779795Y730400D01*
D02*
G37*
G36*
X441653Y669375D02*
X439863D01*
X438209Y668690D01*
X436943Y667424D01*
X436258Y665770D01*
Y663980D01*
X436943Y662326D01*
X438209Y661060D01*
X439863Y660375D01*
X441653D01*
X443307Y661060D01*
X444573Y662326D01*
X445258Y663980D01*
Y665770D01*
X444573Y667424D01*
X443307Y668690D01*
X441653Y669375D01*
D02*
G37*
G36*
X1621617Y658250D02*
X1616383D01*
X1611214Y657431D01*
X1606236Y655814D01*
X1601573Y653438D01*
X1597339Y650362D01*
X1593638Y646661D01*
X1590562Y642427D01*
X1588186Y637764D01*
X1586569Y632786D01*
X1585750Y627617D01*
Y622383D01*
X1586569Y617214D01*
X1588186Y612236D01*
X1590562Y607573D01*
X1593638Y603339D01*
X1597339Y599638D01*
X1601573Y596562D01*
X1606236Y594186D01*
X1611214Y592569D01*
X1616383Y591750D01*
X1621617D01*
X1626786Y592569D01*
X1631764Y594186D01*
X1636427Y596562D01*
X1640661Y599638D01*
X1644362Y603339D01*
X1647438Y607573D01*
X1649814Y612236D01*
X1651431Y617214D01*
X1652250Y622383D01*
Y627617D01*
X1651431Y632786D01*
X1649814Y637764D01*
X1647438Y642427D01*
X1644362Y646661D01*
X1640661Y650362D01*
X1636427Y653438D01*
X1631764Y655814D01*
X1626786Y657431D01*
X1621617Y658250D01*
D02*
G37*
G36*
X52617D02*
X47383D01*
X42214Y657431D01*
X37236Y655814D01*
X32573Y653438D01*
X28339Y650362D01*
X24638Y646661D01*
X21562Y642427D01*
X19186Y637764D01*
X17569Y632786D01*
X16750Y627617D01*
Y622383D01*
X17569Y617214D01*
X19186Y612236D01*
X21562Y607573D01*
X24638Y603339D01*
X28339Y599638D01*
X32573Y596562D01*
X37236Y594186D01*
X42214Y592569D01*
X47383Y591750D01*
X52617D01*
X57786Y592569D01*
X62764Y594186D01*
X67427Y596562D01*
X71661Y599638D01*
X75362Y603339D01*
X78438Y607573D01*
X80814Y612236D01*
X82431Y617214D01*
X83250Y622383D01*
Y627617D01*
X82431Y632786D01*
X80814Y637764D01*
X78438Y642427D01*
X75362Y646661D01*
X71661Y650362D01*
X67427Y653438D01*
X62764Y655814D01*
X57786Y657431D01*
X52617Y658250D01*
D02*
G37*
G36*
X523143Y559817D02*
X521353D01*
X519699Y559132D01*
X518433Y557866D01*
X517748Y556212D01*
Y554422D01*
X518433Y552768D01*
X519699Y551502D01*
X521353Y550817D01*
X523143D01*
X524797Y551502D01*
X526063Y552768D01*
X526748Y554422D01*
Y556212D01*
X526063Y557866D01*
X524797Y559132D01*
X523143Y559817D01*
D02*
G37*
G36*
X1212720Y592275D02*
X1210929D01*
X1209276Y591590D01*
X1208010Y590324D01*
X1207325Y588671D01*
Y586880D01*
X1208010Y585226D01*
X1208904Y584333D01*
Y541967D01*
X1208285Y541349D01*
X1207600Y539695D01*
Y537905D01*
X1208285Y536251D01*
X1209551Y534985D01*
X1211205Y534300D01*
X1212995D01*
X1214649Y534985D01*
X1215915Y536251D01*
X1216600Y537905D01*
Y539695D01*
X1215915Y541349D01*
X1215021Y542243D01*
Y584608D01*
X1215639Y585226D01*
X1216325Y586880D01*
Y588671D01*
X1215639Y590324D01*
X1214374Y591590D01*
X1212720Y592275D01*
D02*
G37*
G36*
X1203895Y580800D02*
X1202105D01*
X1200451Y580115D01*
X1199185Y578849D01*
X1198500Y577195D01*
Y575405D01*
X1199185Y573751D01*
X1199541Y573395D01*
Y533505D01*
X1198385Y532349D01*
X1197700Y530695D01*
Y528905D01*
X1198385Y527251D01*
X1199651Y525985D01*
X1201305Y525300D01*
X1203095D01*
X1204749Y525985D01*
X1206015Y527251D01*
X1206700Y528905D01*
Y530695D01*
X1206015Y532349D01*
X1205659Y532705D01*
Y572595D01*
X1206815Y573751D01*
X1207500Y575405D01*
Y577195D01*
X1206815Y578849D01*
X1205549Y580115D01*
X1203895Y580800D01*
D02*
G37*
G36*
X477795Y516500D02*
X476005D01*
X474351Y515815D01*
X473595Y515059D01*
X174200D01*
X173029Y514826D01*
X172037Y514163D01*
X172037Y514163D01*
X115031Y457157D01*
X114368Y456165D01*
X114135Y454994D01*
X114135Y454994D01*
Y179947D01*
X113379Y179191D01*
X112694Y177537D01*
Y175747D01*
X113379Y174093D01*
X114645Y172827D01*
X116299Y172142D01*
X118089D01*
X119743Y172827D01*
X121009Y174093D01*
X121694Y175747D01*
Y177537D01*
X121009Y179191D01*
X120253Y179947D01*
Y453727D01*
X175467Y508941D01*
X473595D01*
X474351Y508185D01*
X476005Y507500D01*
X477795D01*
X479449Y508185D01*
X480715Y509451D01*
X481400Y511105D01*
Y512895D01*
X480715Y514549D01*
X479449Y515815D01*
X477795Y516500D01*
D02*
G37*
G36*
X443195Y504000D02*
X441405D01*
X439751Y503315D01*
X438485Y502049D01*
X437800Y500395D01*
Y498605D01*
X438485Y496951D01*
X439751Y495685D01*
X441405Y495000D01*
X443195D01*
X444849Y495685D01*
X446115Y496951D01*
X446800Y498605D01*
Y500395D01*
X446115Y502049D01*
X444849Y503315D01*
X443195Y504000D01*
D02*
G37*
G36*
X794270Y500252D02*
X792480D01*
X790826Y499567D01*
X789560Y498301D01*
X788875Y496647D01*
Y494857D01*
X789560Y493203D01*
X790826Y491937D01*
X792480Y491252D01*
X794270D01*
X795924Y491937D01*
X797190Y493203D01*
X797875Y494857D01*
Y496647D01*
X797190Y498301D01*
X795924Y499567D01*
X794270Y500252D01*
D02*
G37*
G36*
X1493995Y489400D02*
X1492205D01*
X1490551Y488715D01*
X1489795Y487959D01*
X1464200D01*
X1464200Y487959D01*
X1463029Y487726D01*
X1462037Y487063D01*
X1399033Y424059D01*
X888334D01*
X888261Y424044D01*
X887283Y424449D01*
X886879Y425427D01*
X886893Y425500D01*
Y433859D01*
X886899D01*
X886641Y435817D01*
X885885Y437641D01*
X884683Y439208D01*
X883117Y440410D01*
X881292Y441166D01*
X879334Y441424D01*
X877376Y441166D01*
X875552Y440410D01*
X873985Y439208D01*
X872783Y437641D01*
X872027Y435817D01*
X871770Y433859D01*
X871776D01*
Y425500D01*
X871790Y425427D01*
X871385Y424449D01*
X870408Y424044D01*
X870334Y424059D01*
X794767D01*
X785802Y433024D01*
Y465114D01*
X786558Y465870D01*
X787243Y467524D01*
Y469314D01*
X786558Y470968D01*
X785292Y472234D01*
X783638Y472919D01*
X781848D01*
X780194Y472234D01*
X778928Y470968D01*
X778604Y470186D01*
X777230D01*
X776906Y470968D01*
X775640Y472234D01*
X773986Y472919D01*
X772196D01*
X770542Y472234D01*
X769276Y470968D01*
X768591Y469314D01*
Y467524D01*
X769276Y465870D01*
X770032Y465114D01*
Y422606D01*
X770032Y422606D01*
X770265Y421436D01*
X770928Y420443D01*
X780496Y410875D01*
X780496Y410875D01*
X781489Y410212D01*
X782659Y409979D01*
X782659Y409979D01*
X1412338D01*
X1412338Y409979D01*
X1413508Y410212D01*
X1414501Y410875D01*
X1473367Y469741D01*
X1489595D01*
X1490551Y468785D01*
X1492205Y468100D01*
X1493995D01*
X1495649Y468785D01*
X1496915Y470051D01*
X1497600Y471705D01*
Y473495D01*
X1496915Y475149D01*
X1495649Y476415D01*
X1493995Y477100D01*
X1492205D01*
X1490551Y476415D01*
X1489995Y475859D01*
X1472100D01*
X1470929Y475626D01*
X1469937Y474963D01*
X1411071Y416097D01*
X783926D01*
X776150Y423873D01*
Y465114D01*
X776906Y465870D01*
X777230Y466652D01*
X778604D01*
X778928Y465870D01*
X779684Y465114D01*
Y431757D01*
X779684Y431757D01*
X779917Y430586D01*
X780580Y429594D01*
X791337Y418837D01*
X791337Y418837D01*
X792329Y418174D01*
X793500Y417941D01*
X793500Y417941D01*
X870334D01*
Y417935D01*
X872292Y418193D01*
X874117Y418949D01*
X875683Y420151D01*
X876886Y421718D01*
X877641Y423542D01*
X877899Y425500D01*
X877893D01*
Y433859D01*
X877878Y433932D01*
X878233Y434787D01*
X879334Y435243D01*
X880436Y434787D01*
X880790Y433932D01*
X880776Y433859D01*
Y425500D01*
X880770D01*
X881027Y423542D01*
X881783Y421718D01*
X882985Y420151D01*
X884552Y418949D01*
X886376Y418193D01*
X888334Y417935D01*
Y417941D01*
X1400300D01*
X1400300Y417941D01*
X1401470Y418174D01*
X1402463Y418837D01*
X1465467Y481841D01*
X1489795D01*
X1490551Y481085D01*
X1492205Y480400D01*
X1493995D01*
X1495649Y481085D01*
X1496915Y482351D01*
X1497600Y484005D01*
Y485795D01*
X1496915Y487449D01*
X1495649Y488715D01*
X1493995Y489400D01*
D02*
G37*
G36*
X709383Y479243D02*
X707593D01*
X706547Y478810D01*
X657656D01*
X656666Y479220D01*
X654876D01*
X653222Y478535D01*
X651956Y477269D01*
X651271Y475615D01*
Y473825D01*
X651693Y472807D01*
Y460660D01*
X629411Y438378D01*
X598513D01*
X597495Y438800D01*
X595705D01*
X595149Y438570D01*
X584698D01*
X572978Y450289D01*
Y458687D01*
X573400Y459705D01*
Y461495D01*
X572715Y463149D01*
X571449Y464415D01*
X569795Y465100D01*
X568005D01*
X566351Y464415D01*
X565085Y463149D01*
X564400Y461495D01*
Y459705D01*
X564822Y458687D01*
Y448600D01*
X564822Y448600D01*
X565132Y447039D01*
X566016Y445716D01*
X580125Y431608D01*
X581448Y430723D01*
X583009Y430413D01*
X583009Y430413D01*
X594225D01*
X595705Y429800D01*
X597495D01*
X598513Y430222D01*
X631100D01*
X631100Y430222D01*
X632661Y430532D01*
X633984Y431416D01*
X658655Y456087D01*
X658655Y456087D01*
X659539Y457410D01*
X659849Y458971D01*
Y470653D01*
X706603D01*
X707593Y470243D01*
X709383D01*
X711037Y470928D01*
X712303Y472194D01*
X712988Y473848D01*
Y475638D01*
X712303Y477292D01*
X711037Y478558D01*
X709383Y479243D01*
D02*
G37*
G36*
X1621944Y484595D02*
X1619955D01*
X1618117Y483834D01*
X1616711Y482428D01*
X1615950Y480590D01*
Y478601D01*
X1616711Y476763D01*
X1618117Y475357D01*
X1619955Y474595D01*
X1621944D01*
X1623782Y475357D01*
X1625188Y476763D01*
X1625950Y478601D01*
Y480590D01*
X1625188Y482428D01*
X1623782Y483834D01*
X1621944Y484595D01*
D02*
G37*
G36*
X751600Y472919D02*
X749810D01*
X748156Y472234D01*
X747563Y471641D01*
X746845Y470999D01*
X745904Y471641D01*
X745421Y472123D01*
X743767Y472808D01*
X741977D01*
X740323Y472123D01*
X739057Y470857D01*
X738372Y469203D01*
Y468867D01*
X737316Y468161D01*
X737128Y468239D01*
X735338D01*
X733684Y467554D01*
X732418Y466288D01*
X731733Y464634D01*
Y462844D01*
X732418Y461190D01*
X733174Y460434D01*
Y390828D01*
X733174Y390828D01*
X733407Y389657D01*
X734070Y388665D01*
X771098Y351637D01*
X771098Y351637D01*
X772091Y350974D01*
X773261Y350741D01*
X773261Y350741D01*
X1457400D01*
X1457400Y350741D01*
X1458571Y350974D01*
X1459563Y351637D01*
X1495263Y387337D01*
X1495926Y388330D01*
X1496159Y389500D01*
Y426795D01*
X1496915Y427551D01*
X1497600Y429205D01*
Y430995D01*
X1496915Y432649D01*
X1495649Y433915D01*
X1493995Y434600D01*
X1492205D01*
X1490551Y433915D01*
X1489285Y432649D01*
X1488600Y430995D01*
Y429205D01*
X1489285Y427551D01*
X1490041Y426795D01*
Y390767D01*
X1456133Y356859D01*
X774528D01*
X739292Y392095D01*
Y399889D01*
X740562Y400275D01*
X740709Y400054D01*
X770026Y370737D01*
X770026Y370737D01*
X771019Y370074D01*
X772189Y369841D01*
X772189Y369841D01*
X1456700D01*
X1456700Y369841D01*
X1457870Y370074D01*
X1458863Y370737D01*
X1472563Y384437D01*
X1472563Y384437D01*
X1473226Y385429D01*
X1473459Y386600D01*
X1473459Y386600D01*
Y443633D01*
X1478667Y448841D01*
X1489795D01*
X1490551Y448085D01*
X1492205Y447400D01*
X1493995D01*
X1495649Y448085D01*
X1496915Y449351D01*
X1497600Y451005D01*
Y452795D01*
X1496915Y454449D01*
X1495649Y455715D01*
X1493995Y456400D01*
X1492205D01*
X1490551Y455715D01*
X1489795Y454959D01*
X1477400D01*
X1477400Y454959D01*
X1476230Y454726D01*
X1475237Y454063D01*
X1475237Y454063D01*
X1468237Y447063D01*
X1467574Y446071D01*
X1467341Y444900D01*
X1467341Y444900D01*
Y410382D01*
X1466747Y410101D01*
X1466071Y409993D01*
X1464949Y411115D01*
X1463295Y411800D01*
X1461505D01*
X1459851Y411115D01*
X1459095Y410359D01*
X1428300D01*
X1428300Y410359D01*
X1427130Y410126D01*
X1426137Y409463D01*
X1426137Y409463D01*
X1419733Y403059D01*
X982545D01*
Y403065D01*
X980588Y402807D01*
X978763Y402051D01*
X977197Y400849D01*
X975994Y399282D01*
X975239Y397458D01*
X974981Y395500D01*
X974987D01*
Y394094D01*
X975001Y394021D01*
X974647Y393166D01*
X973546Y392709D01*
X972444Y393166D01*
X972090Y394021D01*
X972104Y394094D01*
Y400592D01*
X972110D01*
X971852Y402550D01*
X971097Y404375D01*
X969895Y405941D01*
X968328Y407144D01*
X966504Y407899D01*
X964546Y408157D01*
X962588Y407899D01*
X960763Y407144D01*
X959196Y405941D01*
X957994Y404375D01*
X957239Y402550D01*
X956981Y400592D01*
X956987D01*
Y394094D01*
X957001Y394021D01*
X956647Y393166D01*
X955546Y392709D01*
X954444Y393166D01*
X954090Y394021D01*
X954104Y394094D01*
Y400592D01*
X954110D01*
X953852Y402550D01*
X953097Y404375D01*
X951895Y405941D01*
X950328Y407144D01*
X948503Y407899D01*
X946546Y408157D01*
X944588Y407899D01*
X942763Y407144D01*
X941197Y405941D01*
X939994Y404375D01*
X939239Y402550D01*
X938981Y400592D01*
X938987D01*
Y394094D01*
X939001Y394021D01*
X938647Y393166D01*
X937546Y392709D01*
X936444Y393166D01*
X936090Y394021D01*
X936104Y394094D01*
Y400592D01*
X936110D01*
X935853Y402550D01*
X935097Y404375D01*
X933895Y405941D01*
X932328Y407144D01*
X930503Y407899D01*
X928546Y408157D01*
X926588Y407899D01*
X924763Y407144D01*
X923197Y405941D01*
X921994Y404375D01*
X921239Y402550D01*
X920981Y400592D01*
X920987D01*
Y394774D01*
X921002Y394701D01*
X920647Y393846D01*
X919546Y393390D01*
X918444Y393846D01*
X918090Y394701D01*
X918104Y394774D01*
Y400000D01*
X918110D01*
X917853Y401958D01*
X917097Y403783D01*
X915895Y405349D01*
X914328Y406552D01*
X912504Y407307D01*
X910546Y407565D01*
X908588Y407307D01*
X906763Y406552D01*
X905197Y405349D01*
X903995Y403783D01*
X903239Y401958D01*
X902981Y400000D01*
X902987D01*
Y395500D01*
X903001Y395426D01*
X902647Y394571D01*
X901546Y394115D01*
X900515Y394542D01*
X900110Y395500D01*
X900110D01*
X899853Y397458D01*
X899097Y399282D01*
X897895Y400849D01*
X896328Y402051D01*
X894504Y402807D01*
X892546Y403065D01*
Y403059D01*
X777683D01*
X761116Y419626D01*
Y464789D01*
X762018Y465691D01*
X762703Y467345D01*
Y469135D01*
X762018Y470789D01*
X760752Y472055D01*
X759098Y472740D01*
X757308D01*
X755654Y472055D01*
X754559Y470960D01*
X754520Y470968D01*
X753254Y472234D01*
X751600Y472919D01*
D02*
G37*
G36*
X1621944Y404795D02*
X1619955D01*
X1618117Y404034D01*
X1616711Y402628D01*
X1615950Y400790D01*
Y398801D01*
X1616711Y396963D01*
X1618117Y395557D01*
X1619955Y394795D01*
X1621944D01*
X1623782Y395557D01*
X1625188Y396963D01*
X1625950Y398801D01*
Y400790D01*
X1625188Y402628D01*
X1623782Y404034D01*
X1621944Y404795D01*
D02*
G37*
G36*
X1533595Y498600D02*
X1531805D01*
X1530151Y497915D01*
X1528885Y496649D01*
X1528200Y494995D01*
Y493205D01*
X1528885Y491551D01*
X1529641Y490795D01*
Y399767D01*
X1474033Y344159D01*
X773287D01*
X723443Y394003D01*
Y456211D01*
X724199Y456967D01*
X724884Y458621D01*
Y460411D01*
X724199Y462065D01*
X722933Y463331D01*
X721279Y464016D01*
X719489D01*
X717835Y463331D01*
X716569Y462065D01*
X715884Y460411D01*
Y458621D01*
X716569Y456967D01*
X717325Y456211D01*
Y392736D01*
X717325Y392736D01*
X717558Y391565D01*
X718221Y390573D01*
X769857Y338937D01*
X769857Y338937D01*
X770850Y338274D01*
X772020Y338041D01*
X772020Y338041D01*
X1475300D01*
X1475300Y338041D01*
X1476471Y338274D01*
X1477463Y338937D01*
X1534863Y396337D01*
X1534863Y396337D01*
X1535526Y397329D01*
X1535759Y398500D01*
Y490795D01*
X1536515Y491551D01*
X1537200Y493205D01*
Y494995D01*
X1536515Y496649D01*
X1535249Y497915D01*
X1533595Y498600D01*
D02*
G37*
G36*
X1363973Y222599D02*
Y222549D01*
X1069053D01*
Y222599D01*
X1067087Y222208D01*
X1065419Y221094D01*
X1064306Y219426D01*
X1063914Y217460D01*
X1063964D01*
Y182540D01*
X1063914D01*
X1064306Y180574D01*
X1065419Y178906D01*
X1067087Y177792D01*
X1069053Y177401D01*
Y177451D01*
X1363973D01*
Y177401D01*
X1365940Y177792D01*
X1367607Y178906D01*
X1368721Y180574D01*
X1369112Y182540D01*
X1369062D01*
Y217460D01*
X1369112D01*
X1368721Y219426D01*
X1367607Y221094D01*
X1365940Y222208D01*
X1363973Y222599D01*
D02*
G37*
G36*
X572032Y100539D02*
X568738D01*
X565506Y99896D01*
X562463Y98635D01*
X559723Y96805D01*
X557394Y94475D01*
X555563Y91736D01*
X554303Y88692D01*
X553660Y85461D01*
Y82167D01*
X554303Y78935D01*
X555563Y75892D01*
X557394Y73152D01*
X559723Y70823D01*
X562463Y68992D01*
X565506Y67732D01*
X568738Y67089D01*
X572032D01*
X575263Y67732D01*
X578307Y68992D01*
X581046Y70823D01*
X583376Y73152D01*
X585206Y75892D01*
X586467Y78935D01*
X587110Y82167D01*
Y85461D01*
X586467Y88692D01*
X585206Y91736D01*
X583376Y94475D01*
X581046Y96805D01*
X578307Y98635D01*
X575263Y99896D01*
X572032Y100539D01*
D02*
G37*
G36*
X356132D02*
X352838D01*
X349606Y99896D01*
X346563Y98635D01*
X343823Y96805D01*
X341494Y94475D01*
X339663Y91736D01*
X338403Y88692D01*
X337760Y85461D01*
Y82167D01*
X338403Y78935D01*
X339663Y75892D01*
X341494Y73152D01*
X343823Y70823D01*
X346563Y68992D01*
X349606Y67732D01*
X352838Y67089D01*
X356132D01*
X359363Y67732D01*
X362407Y68992D01*
X365146Y70823D01*
X367476Y73152D01*
X369306Y75892D01*
X370567Y78935D01*
X371210Y82167D01*
Y85461D01*
X370567Y88692D01*
X369306Y91736D01*
X367476Y94475D01*
X365146Y96805D01*
X362407Y98635D01*
X359363Y99896D01*
X356132Y100539D01*
D02*
G37*
G36*
X1621617Y83250D02*
X1616383D01*
X1611214Y82431D01*
X1606236Y80814D01*
X1601573Y78438D01*
X1597339Y75362D01*
X1593638Y71661D01*
X1590562Y67427D01*
X1588186Y62764D01*
X1586569Y57786D01*
X1585750Y52617D01*
Y47383D01*
X1586569Y42214D01*
X1588186Y37236D01*
X1590562Y32573D01*
X1593638Y28339D01*
X1597339Y24638D01*
X1601573Y21562D01*
X1606236Y19186D01*
X1611214Y17569D01*
X1616383Y16750D01*
X1621617D01*
X1626786Y17569D01*
X1631764Y19186D01*
X1636427Y21562D01*
X1640661Y24638D01*
X1644362Y28339D01*
X1647438Y32573D01*
X1649814Y37236D01*
X1651431Y42214D01*
X1652250Y47383D01*
Y52617D01*
X1651431Y57786D01*
X1649814Y62764D01*
X1647438Y67427D01*
X1644362Y71661D01*
X1640661Y75362D01*
X1636427Y78438D01*
X1631764Y80814D01*
X1626786Y82431D01*
X1621617Y83250D01*
D02*
G37*
G36*
X837617D02*
X832383D01*
X827214Y82431D01*
X822236Y80814D01*
X817573Y78438D01*
X813339Y75362D01*
X809638Y71661D01*
X806562Y67427D01*
X804186Y62764D01*
X802569Y57786D01*
X801750Y52617D01*
Y47383D01*
X802569Y42214D01*
X804186Y37236D01*
X806562Y32573D01*
X809638Y28339D01*
X813339Y24638D01*
X817573Y21562D01*
X822236Y19186D01*
X827214Y17569D01*
X832383Y16750D01*
X837617D01*
X842786Y17569D01*
X847764Y19186D01*
X852427Y21562D01*
X856661Y24638D01*
X860362Y28339D01*
X863438Y32573D01*
X865814Y37236D01*
X867431Y42214D01*
X868250Y47383D01*
Y52617D01*
X867431Y57786D01*
X865814Y62764D01*
X863438Y67427D01*
X860362Y71661D01*
X856661Y75362D01*
X852427Y78438D01*
X847764Y80814D01*
X842786Y82431D01*
X837617Y83250D01*
D02*
G37*
G36*
X52617D02*
X47383D01*
X42214Y82431D01*
X37236Y80814D01*
X32573Y78438D01*
X28339Y75362D01*
X24638Y71661D01*
X21562Y67427D01*
X19186Y62764D01*
X17569Y57786D01*
X16750Y52617D01*
Y47383D01*
X17569Y42214D01*
X19186Y37236D01*
X21562Y32573D01*
X24638Y28339D01*
X28339Y24638D01*
X32573Y21562D01*
X37236Y19186D01*
X42214Y17569D01*
X47383Y16750D01*
X52617D01*
X57786Y17569D01*
X62764Y19186D01*
X67427Y21562D01*
X71661Y24638D01*
X75362Y28339D01*
X78438Y32573D01*
X80814Y37236D01*
X82431Y42214D01*
X83250Y47383D01*
Y52617D01*
X82431Y57786D01*
X80814Y62764D01*
X78438Y67427D01*
X75362Y71661D01*
X71661Y75362D01*
X67427Y78438D01*
X62764Y80814D01*
X57786Y82431D01*
X52617Y83250D01*
D02*
G37*
%LPD*%
G36*
X712696Y989727D02*
Y984833D01*
X711447Y984606D01*
X710784Y985598D01*
X691995Y1004387D01*
X691003Y1005050D01*
X689832Y1005283D01*
X689832Y1005283D01*
X646851D01*
Y1005289D01*
X644893Y1005031D01*
X643069Y1004275D01*
X641502Y1003073D01*
X640300Y1001506D01*
X639544Y999682D01*
X639287Y997724D01*
X639544Y995766D01*
X640300Y993942D01*
X641502Y992375D01*
X643069Y991173D01*
X644893Y990417D01*
X646851Y990159D01*
Y990165D01*
X661183D01*
X661256Y990180D01*
X662234Y989775D01*
X662639Y988797D01*
X662624Y988724D01*
X662639Y988651D01*
X662234Y987673D01*
X661256Y987268D01*
X661183Y987283D01*
X637851D01*
X637778Y987268D01*
X636801Y987673D01*
X636396Y988651D01*
X636410Y988724D01*
Y997724D01*
X636416D01*
X636158Y999682D01*
X635403Y1001506D01*
X634201Y1003073D01*
X632634Y1004275D01*
X630809Y1005031D01*
X628851Y1005289D01*
Y1005283D01*
X611629D01*
X611629Y1005283D01*
X610458Y1005050D01*
X609466Y1004387D01*
X609466Y1004387D01*
X589887Y984808D01*
X524723D01*
X508949Y1000582D01*
X507957Y1001245D01*
X506786Y1001478D01*
X506786Y1001478D01*
X481752D01*
X481226Y1002748D01*
X481348Y1002870D01*
X482033Y1004524D01*
Y1005593D01*
X484740Y1008300D01*
X694123D01*
X712696Y989727D01*
D02*
G37*
G36*
X646851Y999165D02*
X688565D01*
X705562Y982168D01*
Y957123D01*
X704292Y956783D01*
X703830Y957475D01*
X703830Y957475D01*
X693658Y967647D01*
X693657Y967658D01*
X693690Y967692D01*
X691721Y969008D01*
X689380Y969473D01*
Y969415D01*
X484983D01*
X465250Y989148D01*
Y994823D01*
X466520Y995349D01*
X467265Y994604D01*
X468919Y993919D01*
X470709D01*
X472363Y994604D01*
X473119Y995360D01*
X505519D01*
X521293Y979586D01*
X522285Y978923D01*
X523456Y978690D01*
X591154D01*
X591154Y978690D01*
X592325Y978923D01*
X593317Y979586D01*
X612896Y999165D01*
X628851D01*
X628925Y999180D01*
X629902Y998775D01*
X630307Y997797D01*
X630293Y997724D01*
Y988724D01*
X630287D01*
X630545Y986766D01*
X631300Y984942D01*
X632502Y983375D01*
X634069Y982173D01*
X635894Y981417D01*
X637851Y981159D01*
Y981165D01*
X661183D01*
Y981159D01*
X663141Y981417D01*
X664966Y982173D01*
X666532Y983375D01*
X667734Y984942D01*
X668490Y986766D01*
X668748Y988724D01*
X668490Y990682D01*
X667734Y992506D01*
X666532Y994073D01*
X664966Y995275D01*
X663141Y996031D01*
X661183Y996289D01*
Y996283D01*
X646851D01*
X646778Y996268D01*
X645801Y996673D01*
X645396Y997651D01*
X645410Y997724D01*
X645396Y997797D01*
X645801Y998775D01*
X646778Y999180D01*
X646851Y999165D01*
D02*
G37*
G36*
X750384Y1006375D02*
Y890409D01*
Y888909D01*
X750378D01*
X750636Y886951D01*
X751392Y885127D01*
X752594Y883560D01*
X754161Y882358D01*
X755985Y881602D01*
X757943Y881344D01*
Y881350D01*
X766943D01*
X767016Y881365D01*
X767994Y880960D01*
X768399Y879982D01*
X768384Y879909D01*
Y831742D01*
X768399Y831669D01*
X767994Y830692D01*
X767016Y830286D01*
X766943Y830301D01*
X766870Y830286D01*
X765892Y830692D01*
X765487Y831669D01*
X765502Y831742D01*
Y870909D01*
X765508D01*
X765250Y872867D01*
X764494Y874691D01*
X763292Y876258D01*
X761725Y877460D01*
X759901Y878216D01*
X757943Y878474D01*
X755985Y878216D01*
X754161Y877460D01*
X752594Y876258D01*
X751392Y874691D01*
X750636Y872867D01*
X750378Y870909D01*
X750384D01*
Y811850D01*
Y802724D01*
X749628Y801968D01*
X749571Y801831D01*
X748197D01*
X748140Y801968D01*
X746874Y803234D01*
X745220Y803919D01*
X745000D01*
X742389Y806530D01*
Y924978D01*
Y926478D01*
X742395D01*
X742137Y928436D01*
X741381Y930260D01*
X740179Y931827D01*
X738612Y933029D01*
X736788Y933785D01*
X734830Y934043D01*
Y934037D01*
X725830D01*
X725757Y934022D01*
X724779Y934427D01*
X724374Y935405D01*
X724389Y935478D01*
Y977168D01*
X724374Y977241D01*
X724779Y978219D01*
X725757Y978624D01*
X725830Y978609D01*
X725903Y978624D01*
X726881Y978219D01*
X727286Y977241D01*
X727271Y977168D01*
Y944478D01*
X727265D01*
X727523Y942520D01*
X728279Y940695D01*
X729481Y939129D01*
X731048Y937927D01*
X732872Y937171D01*
X734830Y936913D01*
X736788Y937171D01*
X738612Y937927D01*
X740179Y939129D01*
X741381Y940695D01*
X742137Y942520D01*
X742395Y944478D01*
X742389D01*
Y994065D01*
Y1003915D01*
X742389Y1003915D01*
X742156Y1005086D01*
X741493Y1006078D01*
X720290Y1027281D01*
X719298Y1027944D01*
X718854Y1028032D01*
X718979Y1029302D01*
X727457D01*
X750384Y1006375D01*
D02*
G37*
G36*
X506800Y925823D02*
X506447Y924392D01*
X505867Y924152D01*
X505111Y923396D01*
X468606D01*
X468606Y923396D01*
X467435Y923163D01*
X466443Y922500D01*
X466443Y922500D01*
X430244Y886301D01*
X429581Y885309D01*
X429348Y884138D01*
X429348Y884138D01*
Y838913D01*
X429348Y838913D01*
X429581Y837742D01*
X430244Y836750D01*
X446487Y820507D01*
Y716148D01*
X446487Y716148D01*
X446720Y714977D01*
X447383Y713985D01*
X452109Y709259D01*
X452109Y709259D01*
X453102Y708596D01*
X454272Y708363D01*
X454272Y708363D01*
X462542D01*
X463520Y707385D01*
Y668666D01*
Y661802D01*
X463520Y661802D01*
X463753Y660631D01*
X464416Y659639D01*
X481099Y642956D01*
X481099Y642956D01*
X481161Y642915D01*
X481566Y641937D01*
X481565Y641934D01*
X481050Y640877D01*
X479848Y639311D01*
X479092Y637486D01*
X478835Y635528D01*
X479092Y633571D01*
X479848Y631746D01*
X481050Y630179D01*
X482617Y628977D01*
X484441Y628222D01*
X486399Y627964D01*
X488357Y628222D01*
X490182Y628977D01*
X491748Y630179D01*
X491744Y630183D01*
X497480Y635919D01*
X497521Y635981D01*
X498499Y636386D01*
X499477Y635981D01*
X499518Y635919D01*
X499580Y635878D01*
X499985Y634900D01*
X499580Y633923D01*
X499518Y633881D01*
X493783Y628145D01*
X493782Y628145D01*
X493778Y628150D01*
X492576Y626583D01*
X491820Y624758D01*
X491562Y622800D01*
X491820Y620843D01*
X492576Y619018D01*
X493778Y617451D01*
X495345Y616249D01*
X497169Y615494D01*
X499127Y615236D01*
X501085Y615494D01*
X502910Y616249D01*
X504476Y617451D01*
X505533Y617966D01*
X505536Y617967D01*
X506513Y617562D01*
X506555Y617500D01*
X507616Y616440D01*
X507616Y616440D01*
X513402Y610653D01*
X514394Y609990D01*
X515565Y609757D01*
X550835D01*
X561716Y598876D01*
X561044Y597752D01*
X560218Y597917D01*
X560218Y597917D01*
X509905D01*
X459454Y648368D01*
Y698466D01*
X459454Y698466D01*
X459221Y699637D01*
X458558Y700629D01*
X458558Y700629D01*
X452700Y706487D01*
X451708Y707150D01*
X450537Y707382D01*
X450537Y707382D01*
X440891D01*
X440877Y707396D01*
X440877Y707396D01*
X438974Y709300D01*
Y817282D01*
X438974Y817282D01*
X438741Y818453D01*
X438078Y819445D01*
X434971Y822552D01*
X433979Y823215D01*
X432808Y823448D01*
X432808Y823448D01*
X413015D01*
X410173Y826290D01*
Y877025D01*
X459599Y926451D01*
X506277D01*
X506800Y925823D01*
D02*
G37*
G36*
X526995Y919143D02*
X527515Y917950D01*
X527148Y917064D01*
X527086Y917023D01*
X509246Y899183D01*
X509242Y899187D01*
X508040Y897620D01*
X507284Y895796D01*
X507026Y893838D01*
X507284Y891880D01*
X508040Y890055D01*
X509242Y888489D01*
X510787Y887303D01*
X510796Y887235D01*
X510517Y886033D01*
X475281D01*
X475281Y886033D01*
X474110Y885800D01*
X474030Y885746D01*
X473220Y886733D01*
X475655Y889167D01*
X493887D01*
X493887Y889167D01*
X495058Y889400D01*
X496050Y890063D01*
X498613Y892626D01*
X525048Y919061D01*
X526136Y919499D01*
X526995Y919143D01*
D02*
G37*
G36*
X584082Y940817D02*
X649280D01*
X661393Y928704D01*
Y758094D01*
X646294Y742995D01*
X645631Y742002D01*
X645398Y740832D01*
X645398Y740832D01*
Y734847D01*
X644128Y734321D01*
X643572Y734877D01*
X641918Y735562D01*
X640128D01*
X638474Y734877D01*
X637208Y733611D01*
X636523Y731957D01*
Y730167D01*
X637208Y728513D01*
X637823Y727898D01*
X637748Y727016D01*
X636494Y726235D01*
X636359Y726291D01*
X634569D01*
X632915Y725606D01*
X631649Y724340D01*
X630964Y722686D01*
Y720896D01*
X631649Y719242D01*
X632405Y718486D01*
Y700820D01*
X631721Y700387D01*
X631164Y700266D01*
X618886Y712544D01*
Y729370D01*
X619172Y729656D01*
X619857Y731310D01*
Y733100D01*
X619172Y734754D01*
X617906Y736020D01*
X616252Y736705D01*
X614462D01*
X612808Y736020D01*
X611542Y734754D01*
X610857Y733100D01*
Y731403D01*
X610845Y731295D01*
X609930Y730230D01*
X608932D01*
X607596Y729677D01*
X606326Y730252D01*
Y745896D01*
X609641Y749211D01*
X637334D01*
X637334Y749211D01*
X638504Y749444D01*
X639497Y750107D01*
X657077Y767687D01*
X657740Y768680D01*
X657973Y769850D01*
X657973Y769850D01*
Y836723D01*
Y885600D01*
X657979D01*
X657721Y887558D01*
X656965Y889382D01*
X655763Y890949D01*
X654196Y892151D01*
X652372Y892907D01*
X650414Y893165D01*
X648456Y892907D01*
X646632Y892151D01*
X645065Y890949D01*
X643863Y889382D01*
X643107Y887558D01*
X642849Y885600D01*
X642855D01*
Y871165D01*
X642870Y871092D01*
X642465Y870115D01*
X641487Y869710D01*
X641414Y869724D01*
X641341Y869710D01*
X640363Y870115D01*
X639958Y871092D01*
X639973Y871165D01*
Y894600D01*
X639958Y894673D01*
X640363Y895651D01*
X641341Y896056D01*
X641414Y896041D01*
X650414D01*
Y896035D01*
X652372Y896293D01*
X654196Y897049D01*
X655763Y898251D01*
X656965Y899818D01*
X657721Y901642D01*
X657979Y903600D01*
X657973D01*
Y918676D01*
X657740Y919846D01*
X657077Y920839D01*
X657077Y920839D01*
X653763Y924153D01*
X652771Y924816D01*
X651600Y925049D01*
X651600Y925049D01*
X624950D01*
X624950Y925049D01*
X623779Y924816D01*
X622787Y924153D01*
X619330Y920696D01*
X618667Y919704D01*
X618434Y918533D01*
X618434Y918533D01*
Y850632D01*
X617678Y849876D01*
X616993Y848222D01*
Y846432D01*
X617678Y844778D01*
X618944Y843512D01*
X620598Y842827D01*
X622388D01*
X624042Y843512D01*
X625308Y844778D01*
X625993Y846432D01*
Y848222D01*
X625308Y849876D01*
X624552Y850632D01*
Y917266D01*
X626217Y918931D01*
X650333D01*
X651855Y917409D01*
Y903600D01*
X651870Y903527D01*
X651465Y902549D01*
X650487Y902144D01*
X650414Y902159D01*
X641414D01*
Y902165D01*
X639456Y901907D01*
X637632Y901151D01*
X636065Y899949D01*
X634863Y898382D01*
X634107Y896558D01*
X633849Y894600D01*
X633855D01*
Y871165D01*
X633849D01*
X634107Y869208D01*
X634863Y867383D01*
X636065Y865816D01*
X637632Y864614D01*
X639456Y863858D01*
X641414Y863601D01*
X643372Y863858D01*
X645196Y864614D01*
X646763Y865816D01*
X647965Y867383D01*
X648721Y869208D01*
X648979Y871165D01*
X648973D01*
Y885600D01*
X648958Y885673D01*
X649363Y886651D01*
X650341Y887056D01*
X650414Y887041D01*
X650487Y887056D01*
X651465Y886651D01*
X651870Y885673D01*
X651855Y885600D01*
Y836723D01*
Y771117D01*
X636067Y755329D01*
X608374D01*
X608374Y755329D01*
X607203Y755096D01*
X606211Y754433D01*
X601104Y749326D01*
X600441Y748334D01*
X600208Y747163D01*
X600208Y747163D01*
Y742927D01*
X598938Y742401D01*
X591028Y750311D01*
Y755597D01*
Y778041D01*
X591013Y778114D01*
X591387Y779017D01*
X591447Y779057D01*
X606631Y794241D01*
X607530Y795134D01*
X607530Y795134D01*
X607530Y795134D01*
X608727Y796694D01*
X609483Y798518D01*
X609741Y800476D01*
X609735D01*
Y814484D01*
X609720Y814557D01*
X610075Y815412D01*
X611176Y815868D01*
X612278Y815412D01*
X612632Y814557D01*
X612617Y814484D01*
Y796748D01*
X612632Y796675D01*
X612258Y795772D01*
X612199Y795732D01*
X597014Y780548D01*
X596115Y779656D01*
X596115Y779656D01*
X596115Y779656D01*
X594918Y778096D01*
X594162Y776271D01*
X593904Y774313D01*
X593910D01*
Y766097D01*
X593904D01*
X594162Y764139D01*
X594918Y762314D01*
X596120Y760748D01*
X597687Y759545D01*
X599511Y758790D01*
X601469Y758532D01*
X603427Y758790D01*
X605251Y759545D01*
X606818Y760748D01*
X608020Y762314D01*
X608776Y764139D01*
X609034Y766097D01*
X609028D01*
Y770585D01*
X609013Y770659D01*
X609387Y771561D01*
X609446Y771601D01*
X624631Y786785D01*
X625530Y787678D01*
X625530Y787678D01*
X625530Y787678D01*
X626727Y789238D01*
X627483Y791062D01*
X627741Y793020D01*
X627735D01*
Y800029D01*
X627720Y800103D01*
X628125Y801080D01*
X629103Y801485D01*
X629176Y801470D01*
X629249Y801485D01*
X630227Y801080D01*
X630632Y800103D01*
X630617Y800029D01*
Y789292D01*
X630632Y789219D01*
X630258Y788316D01*
X630199Y788277D01*
X624794Y782872D01*
X624794Y782872D01*
X624789Y782876D01*
X623587Y781309D01*
X622831Y779485D01*
X622574Y777527D01*
X622831Y775569D01*
X623587Y773744D01*
X624789Y772178D01*
X624789Y772178D01*
X626356Y770975D01*
X628181Y770220D01*
X630138Y769962D01*
X632096Y770220D01*
X633921Y770975D01*
X635487Y772178D01*
X635483Y772182D01*
X635483Y772182D01*
X643524Y780223D01*
X643529Y780223D01*
X643530Y780222D01*
X644727Y781782D01*
X645483Y783606D01*
X645741Y785564D01*
X645735D01*
Y823484D01*
X645741D01*
X645483Y825442D01*
X644727Y827266D01*
X643525Y828833D01*
X641958Y830035D01*
X640134Y830791D01*
X638176Y831048D01*
Y831042D01*
X618181D01*
X617654Y832312D01*
X617831Y832489D01*
X618516Y834143D01*
Y835933D01*
X617831Y837587D01*
X616565Y838853D01*
X614911Y839538D01*
X613121D01*
X611467Y838853D01*
X611005Y838391D01*
X609735Y838917D01*
Y844395D01*
X610491Y845151D01*
X611176Y846805D01*
Y848595D01*
X610491Y850249D01*
X609225Y851515D01*
X607571Y852200D01*
X605781D01*
X604628Y851722D01*
X603358Y852405D01*
Y897745D01*
X603125Y898915D01*
X602462Y899908D01*
X602462Y899908D01*
X598791Y903579D01*
X597799Y904242D01*
X596628Y904475D01*
X596628Y904475D01*
X589896D01*
X589823Y904460D01*
X588845Y904865D01*
X588440Y905843D01*
X588455Y905916D01*
Y914916D01*
X588461D01*
X588203Y916874D01*
X587447Y918698D01*
X586245Y920265D01*
X584678Y921467D01*
X582854Y922223D01*
X580896Y922481D01*
Y922475D01*
X578924D01*
X578671Y923745D01*
X578865Y923825D01*
X580431Y925027D01*
X581633Y926594D01*
X582389Y928418D01*
X582647Y930376D01*
X582641D01*
Y939376D01*
X582626Y939449D01*
X583031Y940427D01*
X584009Y940832D01*
X584082Y940817D01*
D02*
G37*
G36*
X758994Y871960D02*
X759399Y870982D01*
X759384Y870909D01*
Y831742D01*
X759378D01*
X759636Y829784D01*
X760392Y827960D01*
X761594Y826393D01*
X763161Y825191D01*
X764985Y824435D01*
X766943Y824178D01*
X768901Y824435D01*
X770725Y825191D01*
X772292Y826393D01*
X773117Y827469D01*
X774387Y827038D01*
Y815093D01*
X763213Y803919D01*
X762144D01*
X760490Y803234D01*
X759224Y801968D01*
X758928Y801254D01*
X757554D01*
X757258Y801968D01*
X756502Y802724D01*
Y811850D01*
Y870909D01*
X756487Y870982D01*
X756892Y871960D01*
X757870Y872365D01*
X757943Y872350D01*
X758016Y872365D01*
X758994Y871960D01*
D02*
G37*
G36*
X450630Y882426D02*
Y867437D01*
X450630Y867437D01*
X450863Y866266D01*
X451526Y865274D01*
X454786Y862014D01*
X454786Y862014D01*
X455779Y861351D01*
X456949Y861118D01*
X456949Y861118D01*
X561366D01*
X580974Y841510D01*
X580488Y840337D01*
X580426D01*
X578772Y839652D01*
X578016Y838896D01*
X565841D01*
X564670Y838663D01*
X563678Y838000D01*
X563678Y838000D01*
X517696Y792018D01*
X517033Y791025D01*
X516800Y789855D01*
X516800Y789855D01*
Y750504D01*
Y749004D01*
X516800Y685258D01*
X516794D01*
X517052Y683300D01*
X517808Y681476D01*
X519005Y679915D01*
X519007Y679917D01*
X519011Y679917D01*
X519011Y679916D01*
X526580Y672347D01*
X526642Y672306D01*
X527009Y671420D01*
X526542Y670347D01*
X525469Y669880D01*
X524583Y670247D01*
X524542Y670309D01*
X524542Y670309D01*
X514337Y680514D01*
X514277Y680554D01*
X513903Y681457D01*
X513918Y681530D01*
Y713806D01*
X513924D01*
X513666Y715764D01*
X512910Y717588D01*
X511708Y719155D01*
X510141Y720357D01*
X508317Y721113D01*
X506359Y721371D01*
X504401Y721113D01*
X502577Y720357D01*
X501010Y719155D01*
X499808Y717588D01*
X499052Y715764D01*
X498794Y713806D01*
X498800D01*
Y677802D01*
X498794D01*
X499052Y675844D01*
X499808Y674020D01*
X501005Y672460D01*
X501005Y672460D01*
X501005D01*
X501904Y671567D01*
X519318Y654153D01*
X520212Y653251D01*
X520212Y653251D01*
X521779Y652049D01*
X523603Y651293D01*
X525561Y651035D01*
X527519Y651293D01*
X529343Y652049D01*
X530904Y653246D01*
X530904Y653246D01*
X530904Y653246D01*
X530902Y653252D01*
X537273Y659623D01*
X537313Y659682D01*
X538289Y660086D01*
X539263Y659683D01*
X539300Y659628D01*
X539308Y659619D01*
X539308Y659619D01*
X540369Y658559D01*
X540369Y658559D01*
X546798Y652129D01*
X546272Y650859D01*
X545468D01*
X543814Y650174D01*
X543058Y649418D01*
X518564D01*
X492810Y675172D01*
Y720403D01*
Y721903D01*
X492795Y721976D01*
X493200Y722954D01*
X494178Y723359D01*
X494251Y723344D01*
X503251D01*
Y723338D01*
X505209Y723596D01*
X507033Y724352D01*
X508600Y725554D01*
X509802Y727121D01*
X510558Y728945D01*
X510816Y730903D01*
X510810D01*
Y797001D01*
X510816D01*
X510558Y798959D01*
X509802Y800784D01*
X508600Y802350D01*
X507033Y803553D01*
X505209Y804308D01*
X503251Y804566D01*
X501293Y804308D01*
X499469Y803553D01*
X497902Y802350D01*
X496700Y800784D01*
X495944Y798959D01*
X495686Y797001D01*
X495692D01*
Y739903D01*
X495707Y739830D01*
X495302Y738852D01*
X494324Y738447D01*
X494251Y738462D01*
X494178Y738447D01*
X493200Y738852D01*
X492795Y739830D01*
X492810Y739903D01*
Y822034D01*
Y823706D01*
X504024Y834920D01*
X510971D01*
X510971Y834920D01*
X512142Y835153D01*
X513134Y835816D01*
X516655Y839337D01*
X516655Y839337D01*
X517318Y840329D01*
X517551Y841500D01*
X517551Y841500D01*
Y851442D01*
X517318Y852613D01*
X516655Y853605D01*
X516655Y853605D01*
X513257Y857003D01*
X512265Y857666D01*
X511094Y857899D01*
X511094Y857899D01*
X497247D01*
X497247Y857899D01*
X496077Y857666D01*
X495084Y857003D01*
X495084Y857003D01*
X480255Y842173D01*
X452055D01*
X445556Y848672D01*
Y879148D01*
X449360Y882952D01*
X450630Y882426D01*
D02*
G37*
G36*
X587406Y834286D02*
Y821299D01*
X586136Y821047D01*
X585898Y821622D01*
X584632Y822888D01*
X582978Y823573D01*
X581188D01*
X579534Y822888D01*
X578778Y822132D01*
X558258D01*
X557732Y823402D01*
X567108Y832778D01*
X578016D01*
X578772Y832022D01*
X580426Y831337D01*
X582216D01*
X583870Y832022D01*
X585136Y833288D01*
X585466Y834085D01*
X586994Y834571D01*
X587406Y834286D01*
D02*
G37*
G36*
X707218Y828297D02*
X707623Y827320D01*
X707608Y827246D01*
Y780573D01*
X707602D01*
X707860Y778615D01*
X708616Y776791D01*
X709818Y775224D01*
X711385Y774022D01*
X713209Y773266D01*
X715167Y773008D01*
X717125Y773266D01*
X718949Y774022D01*
X720516Y775224D01*
X720527Y775239D01*
X721797Y774808D01*
Y725932D01*
X700300Y704435D01*
X685374D01*
X684203Y704202D01*
X683211Y703539D01*
X683211Y703539D01*
X677864Y698191D01*
X677201Y697199D01*
X676968Y696029D01*
X676968Y696028D01*
Y695049D01*
X676051Y694132D01*
X675970Y693938D01*
X674595D01*
X674515Y694132D01*
X673689Y694958D01*
Y722889D01*
X674959Y723415D01*
X675473Y722901D01*
X677127Y722216D01*
X678917D01*
X680571Y722901D01*
X681837Y724167D01*
X682522Y725821D01*
Y726890D01*
X703830Y748198D01*
X703830Y748198D01*
X704493Y749190D01*
X704726Y750361D01*
Y774573D01*
Y827246D01*
X704711Y827320D01*
X705116Y828297D01*
X706094Y828702D01*
X706167Y828688D01*
X706240Y828702D01*
X707218Y828297D01*
D02*
G37*
G36*
X579534Y815258D02*
X581188Y814573D01*
X582978D01*
X584296Y815119D01*
X585016Y814042D01*
X567961Y796988D01*
X567298Y795995D01*
X567065Y794825D01*
X567065Y794825D01*
Y771273D01*
X565795Y770747D01*
X565002Y771540D01*
X563348Y772225D01*
X561558D01*
X559904Y771540D01*
X558638Y770274D01*
X557953Y768620D01*
Y766830D01*
X558638Y765176D01*
X559904Y763910D01*
X561558Y763225D01*
X563348D01*
X565002Y763910D01*
X565795Y764703D01*
X567065Y764177D01*
Y673020D01*
X567065Y673020D01*
X567298Y671849D01*
X567961Y670857D01*
X652841Y585978D01*
X652493Y584581D01*
X652339Y584543D01*
X562422Y674460D01*
Y684329D01*
X562189Y685500D01*
X561526Y686492D01*
X561526Y686492D01*
X555571Y692447D01*
Y693890D01*
X554886Y695544D01*
X553620Y696810D01*
X551966Y697495D01*
X550176D01*
X548522Y696810D01*
X547256Y695544D01*
X546571Y693890D01*
Y692100D01*
X547256Y690446D01*
X548522Y689180D01*
X550176Y688495D01*
X550871D01*
X551791Y687575D01*
X551265Y686305D01*
X550926D01*
X549272Y685620D01*
X548006Y684354D01*
X547321Y682700D01*
Y680910D01*
X548006Y679256D01*
X548762Y678500D01*
Y672333D01*
X548762Y672333D01*
X548995Y671162D01*
X549658Y670170D01*
X646512Y573317D01*
X645986Y572047D01*
X643699D01*
X529962Y685784D01*
Y702718D01*
X529947Y702792D01*
X530352Y703769D01*
X531330Y704174D01*
X531403Y704160D01*
X540403D01*
Y704154D01*
X542361Y704411D01*
X544185Y705167D01*
X545752Y706369D01*
X546954Y707936D01*
X547710Y709761D01*
X547968Y711718D01*
X547962D01*
Y775008D01*
X547968D01*
X547710Y776966D01*
X546954Y778790D01*
X545752Y780357D01*
X544185Y781559D01*
X542361Y782315D01*
X540403Y782572D01*
X538445Y782315D01*
X536621Y781559D01*
X535054Y780357D01*
X533852Y778790D01*
X533096Y776966D01*
X532838Y775008D01*
X532844D01*
Y720718D01*
X532859Y720645D01*
X532454Y719668D01*
X531476Y719262D01*
X531403Y719277D01*
X531330Y719262D01*
X530352Y719668D01*
X529947Y720645D01*
X529962Y720718D01*
Y781008D01*
Y787518D01*
X558458Y816014D01*
X578778D01*
X579534Y815258D01*
D02*
G37*
G36*
X1024393Y790028D02*
X1024747Y789173D01*
X1024732Y789100D01*
Y772889D01*
X1024726D01*
X1024984Y770931D01*
X1025740Y769107D01*
X1026942Y767540D01*
X1028509Y766338D01*
X1030333Y765582D01*
X1032291Y765324D01*
X1034249Y765582D01*
X1036074Y766338D01*
X1037640Y767540D01*
X1038842Y769107D01*
X1039598Y770931D01*
X1039856Y772889D01*
X1039850D01*
Y789100D01*
X1039835Y789173D01*
X1040190Y790028D01*
X1041291Y790485D01*
X1042393Y790028D01*
X1042747Y789173D01*
X1042732Y789100D01*
Y785400D01*
X1042726D01*
X1042984Y783442D01*
X1043740Y781618D01*
X1044942Y780051D01*
X1046509Y778849D01*
X1048333Y778093D01*
X1050291Y777835D01*
Y777841D01*
X1187033D01*
X1194941Y769933D01*
Y762505D01*
X1194185Y761749D01*
X1193500Y760095D01*
Y758305D01*
X1194185Y756651D01*
X1194189Y756647D01*
X1193703Y755474D01*
X1188770D01*
X1185881Y758363D01*
X1184888Y759026D01*
X1183718Y759259D01*
X1183718Y759259D01*
X1150895D01*
X1150822Y759244D01*
X1149844Y759649D01*
X1149439Y760627D01*
X1149454Y760700D01*
Y762436D01*
X1149460D01*
X1149202Y764394D01*
X1148446Y766218D01*
X1147244Y767785D01*
X1145677Y768987D01*
X1143853Y769743D01*
X1141895Y770001D01*
X1139937Y769743D01*
X1138113Y768987D01*
X1136546Y767785D01*
X1135344Y766218D01*
X1134588Y764394D01*
X1134331Y762436D01*
X1134336D01*
Y750258D01*
X1134351Y750185D01*
X1133997Y749330D01*
X1132895Y748873D01*
X1131794Y749330D01*
X1131439Y750185D01*
X1131454Y750258D01*
Y762436D01*
X1131460D01*
X1131202Y764394D01*
X1130446Y766218D01*
X1129244Y767785D01*
X1127678Y768987D01*
X1125853Y769743D01*
X1123895Y770001D01*
X1121937Y769743D01*
X1120113Y768987D01*
X1118546Y767785D01*
X1117344Y766218D01*
X1116588Y764394D01*
X1116330Y762436D01*
X1116337D01*
Y750258D01*
X1116351Y750185D01*
X1115997Y749330D01*
X1114895Y748873D01*
X1113794Y749330D01*
X1113439Y750185D01*
X1113454Y750258D01*
Y762436D01*
X1113460D01*
X1113202Y764394D01*
X1112447Y766218D01*
X1111244Y767785D01*
X1109678Y768987D01*
X1107853Y769743D01*
X1105895Y770001D01*
X1103937Y769743D01*
X1102113Y768987D01*
X1100546Y767785D01*
X1099344Y766218D01*
X1098588Y764394D01*
X1098331Y762436D01*
X1098336D01*
Y750258D01*
X1098351Y750185D01*
X1097997Y749330D01*
X1096895Y748873D01*
X1095794Y749330D01*
X1095440Y750185D01*
X1095454Y750258D01*
Y762436D01*
X1095460D01*
X1095202Y764394D01*
X1094446Y766218D01*
X1093244Y767785D01*
X1091678Y768987D01*
X1089853Y769743D01*
X1087895Y770001D01*
X1085937Y769743D01*
X1084113Y768987D01*
X1082546Y767785D01*
X1081344Y766218D01*
X1080588Y764394D01*
X1080331Y762436D01*
X1080337D01*
Y750258D01*
X1080351Y750185D01*
X1079997Y749330D01*
X1078895Y748873D01*
X1077794Y749330D01*
X1077439Y750185D01*
X1077454Y750258D01*
Y762436D01*
X1077460D01*
X1077202Y764394D01*
X1076447Y766218D01*
X1075244Y767785D01*
X1073678Y768987D01*
X1071853Y769743D01*
X1069895Y770001D01*
X1067937Y769743D01*
X1066113Y768987D01*
X1064546Y767785D01*
X1063344Y766218D01*
X1062588Y764394D01*
X1062331Y762436D01*
X1062337D01*
Y760700D01*
X1062351Y760627D01*
X1061946Y759649D01*
X1060969Y759244D01*
X1060895Y759259D01*
X932700D01*
X932627Y759244D01*
X931649Y759649D01*
X931244Y760627D01*
X931259Y760700D01*
Y765081D01*
X931265D01*
X931007Y767039D01*
X930251Y768863D01*
X929049Y770430D01*
X927482Y771632D01*
X925658Y772388D01*
X923700Y772645D01*
X921742Y772388D01*
X919918Y771632D01*
X918351Y770430D01*
X917149Y768863D01*
X916393Y767039D01*
X916135Y765081D01*
X916141D01*
Y749100D01*
X916156Y749027D01*
X915802Y748172D01*
X914700Y747715D01*
X913598Y748172D01*
X913244Y749027D01*
X913259Y749100D01*
Y765081D01*
X913265D01*
X913007Y767039D01*
X912251Y768863D01*
X911049Y770430D01*
X909482Y771632D01*
X907658Y772388D01*
X905700Y772645D01*
X903742Y772388D01*
X901918Y771632D01*
X900351Y770430D01*
X899149Y768863D01*
X898393Y767039D01*
X898135Y765081D01*
X898141D01*
Y749100D01*
X898156Y749027D01*
X897802Y748172D01*
X896700Y747715D01*
X895599Y748172D01*
X895244Y749027D01*
X895259Y749100D01*
Y765081D01*
X895265D01*
X895007Y767039D01*
X894251Y768863D01*
X893049Y770430D01*
X891482Y771632D01*
X889658Y772388D01*
X887700Y772645D01*
X885742Y772388D01*
X883918Y771632D01*
X882351Y770430D01*
X881149Y768863D01*
X880393Y767039D01*
X880135Y765081D01*
X880141D01*
Y760700D01*
X880156Y760627D01*
X879751Y759649D01*
X878773Y759244D01*
X878700Y759259D01*
X835300D01*
X835300Y759259D01*
X834129Y759026D01*
X833137Y758363D01*
X763511Y688737D01*
X763467Y688745D01*
X763049Y690123D01*
X850767Y777841D01*
X942291D01*
Y777835D01*
X944249Y778093D01*
X946074Y778849D01*
X947640Y780051D01*
X948843Y781618D01*
X949598Y783442D01*
X949856Y785400D01*
X949850D01*
Y789100D01*
X949836Y789173D01*
X950190Y790028D01*
X951291Y790485D01*
X952393Y790028D01*
X952747Y789173D01*
X952733Y789100D01*
Y772889D01*
X952727D01*
X952984Y770931D01*
X953740Y769107D01*
X954942Y767540D01*
X956509Y766338D01*
X958333Y765582D01*
X960291Y765324D01*
X962249Y765582D01*
X964074Y766338D01*
X965640Y767540D01*
X966842Y769107D01*
X967598Y770931D01*
X967856Y772889D01*
X967850D01*
Y789100D01*
X967835Y789173D01*
X968190Y790028D01*
X969291Y790485D01*
X970393Y790028D01*
X970747Y789173D01*
X970732Y789100D01*
Y772889D01*
X970727D01*
X970984Y770931D01*
X971740Y769107D01*
X972942Y767540D01*
X974509Y766338D01*
X976333Y765582D01*
X978291Y765324D01*
X980249Y765582D01*
X982074Y766338D01*
X983640Y767540D01*
X984843Y769107D01*
X985598Y770931D01*
X985856Y772889D01*
X985850D01*
Y789100D01*
X985835Y789173D01*
X986190Y790028D01*
X987291Y790485D01*
X988393Y790028D01*
X988747Y789173D01*
X988733Y789100D01*
Y772889D01*
X988727D01*
X988984Y770931D01*
X989740Y769107D01*
X990942Y767540D01*
X992509Y766338D01*
X994333Y765582D01*
X996291Y765324D01*
X998249Y765582D01*
X1000074Y766338D01*
X1001640Y767540D01*
X1002842Y769107D01*
X1003598Y770931D01*
X1003856Y772889D01*
X1003850D01*
Y789100D01*
X1003835Y789173D01*
X1004190Y790028D01*
X1005291Y790485D01*
X1006393Y790028D01*
X1006747Y789173D01*
X1006732Y789100D01*
Y772889D01*
X1006727D01*
X1006984Y770931D01*
X1007740Y769107D01*
X1008942Y767540D01*
X1010509Y766338D01*
X1012333Y765582D01*
X1014291Y765324D01*
X1016249Y765582D01*
X1018074Y766338D01*
X1019640Y767540D01*
X1020842Y769107D01*
X1021598Y770931D01*
X1021856Y772889D01*
X1021850D01*
Y789100D01*
X1021835Y789173D01*
X1022190Y790028D01*
X1023291Y790485D01*
X1024393Y790028D01*
D02*
G37*
G36*
X585806Y746881D02*
X594370Y738317D01*
Y727570D01*
X593100Y727044D01*
X593014Y727130D01*
X591360Y727815D01*
X589570D01*
X587916Y727130D01*
X586650Y725864D01*
X585965Y724210D01*
Y722420D01*
X586650Y720766D01*
X587622Y719794D01*
Y693816D01*
X587622Y693816D01*
X587855Y692645D01*
X588518Y691653D01*
X673365Y606806D01*
X672839Y605536D01*
X671230D01*
X583877Y692889D01*
Y747730D01*
X585143Y747873D01*
X585806Y746881D01*
D02*
G37*
G36*
X486692Y823801D02*
Y822034D01*
Y739903D01*
X486686D01*
X486944Y737945D01*
X487700Y736121D01*
X488902Y734554D01*
X490469Y733352D01*
X492293Y732596D01*
X494251Y732338D01*
X496209Y732596D01*
X498033Y733352D01*
X499600Y734554D01*
X500802Y736121D01*
X501558Y737945D01*
X501816Y739903D01*
X501810D01*
Y797001D01*
X501795Y797075D01*
X502200Y798052D01*
X503178Y798457D01*
X503251Y798443D01*
X503324Y798457D01*
X504302Y798052D01*
X504707Y797075D01*
X504692Y797001D01*
Y730903D01*
X504707Y730830D01*
X504302Y729852D01*
X503324Y729447D01*
X503251Y729462D01*
X494251D01*
Y729468D01*
X492293Y729210D01*
X490469Y728454D01*
X488902Y727252D01*
X487700Y725685D01*
X486944Y723861D01*
X486686Y721903D01*
X486692D01*
Y720403D01*
Y673905D01*
X486692Y673905D01*
X486925Y672734D01*
X487588Y671742D01*
X515134Y644196D01*
X516126Y643533D01*
X517297Y643300D01*
X517297Y643300D01*
X543058D01*
X543814Y642544D01*
X545468Y641859D01*
X547258D01*
X548912Y642544D01*
X550178Y643810D01*
X550863Y645464D01*
Y646268D01*
X552133Y646794D01*
X570247Y628681D01*
X569720Y627411D01*
X523042D01*
X481665Y668788D01*
Y711916D01*
Y713416D01*
X481671D01*
X481413Y715374D01*
X480657Y717198D01*
X479455Y718765D01*
X477888Y719967D01*
X476064Y720723D01*
X474106Y720981D01*
Y720975D01*
X465106D01*
X465033Y720960D01*
X464055Y721365D01*
X463650Y722343D01*
X463665Y722416D01*
Y815760D01*
X463650Y815833D01*
X464055Y816811D01*
X465033Y817216D01*
X465106Y817201D01*
X465179Y817216D01*
X466157Y816811D01*
X466562Y815833D01*
X466547Y815760D01*
Y731416D01*
X466541D01*
X466799Y729458D01*
X467555Y727634D01*
X468757Y726067D01*
X470324Y724865D01*
X472148Y724109D01*
X474106Y723851D01*
X476064Y724109D01*
X477888Y724865D01*
X479455Y726067D01*
X480657Y727634D01*
X481413Y729458D01*
X481671Y731416D01*
X481665D01*
Y820570D01*
X485422Y824327D01*
X486692Y823801D01*
D02*
G37*
G36*
X1039034Y745512D02*
X1039347Y744600D01*
X1039347D01*
X1039605Y742642D01*
X1040361Y740818D01*
X1041563Y739251D01*
X1043130Y738049D01*
X1044954Y737293D01*
X1046912Y737035D01*
Y737041D01*
X1160933D01*
X1164113Y733861D01*
Y725905D01*
X1163357Y725149D01*
X1162672Y723495D01*
Y721705D01*
X1162994Y720929D01*
X1162145Y719659D01*
X1158018D01*
X1157290Y720929D01*
X1157736Y722005D01*
Y723795D01*
X1157050Y725449D01*
X1155785Y726715D01*
X1154131Y727400D01*
X1152340D01*
X1150686Y726715D01*
X1149930Y725959D01*
X1137482D01*
X1137201Y726553D01*
X1137093Y727229D01*
X1138215Y728351D01*
X1138900Y730005D01*
Y731795D01*
X1138215Y733449D01*
X1136949Y734715D01*
X1135295Y735400D01*
X1133505D01*
X1131851Y734715D01*
X1130585Y733449D01*
X1129900Y731795D01*
Y730005D01*
X1130585Y728351D01*
X1131707Y727229D01*
X1131599Y726553D01*
X1131318Y725959D01*
X1124182D01*
X1123901Y726553D01*
X1123793Y727229D01*
X1124915Y728351D01*
X1125600Y730005D01*
Y731795D01*
X1124915Y733449D01*
X1123649Y734715D01*
X1121995Y735400D01*
X1120205D01*
X1118551Y734715D01*
X1117285Y733449D01*
X1116600Y731795D01*
Y730005D01*
X1117285Y728351D01*
X1118407Y727229D01*
X1118299Y726553D01*
X1118018Y725959D01*
X1035408D01*
X1034781Y727229D01*
X1035463Y728118D01*
X1036219Y729942D01*
X1036477Y731900D01*
X1036471D01*
Y744665D01*
X1036456Y744739D01*
X1036760Y745472D01*
X1037984Y745970D01*
X1039034Y745512D01*
D02*
G37*
G36*
X927531Y729728D02*
X927885Y728873D01*
X927870Y728800D01*
Y714926D01*
X927864D01*
X928122Y712968D01*
X928878Y711143D01*
X930080Y709577D01*
X931647Y708374D01*
X933471Y707619D01*
X935429Y707361D01*
X937387Y707619D01*
X939211Y708374D01*
X940778Y709577D01*
X941980Y711143D01*
X942736Y712968D01*
X942994Y714926D01*
X942988D01*
Y718400D01*
X942973Y718473D01*
X943378Y719451D01*
X944356Y719856D01*
X944429Y719841D01*
X1067965D01*
X1068284Y719330D01*
X1068446Y718571D01*
X1044085Y694211D01*
X1007728D01*
X1007655Y694196D01*
X1006677Y694601D01*
X1006272Y695579D01*
X1006287Y695652D01*
Y699940D01*
X1006293D01*
X1006035Y701898D01*
X1005279Y703722D01*
X1004077Y705289D01*
X1002510Y706491D01*
X1000686Y707247D01*
X998728Y707505D01*
X996770Y707247D01*
X994946Y706491D01*
X993379Y705289D01*
X992177Y703722D01*
X991421Y701898D01*
X991163Y699940D01*
X991169D01*
Y683484D01*
X991184Y683411D01*
X990830Y682556D01*
X989728Y682099D01*
X988626Y682556D01*
X988272Y683411D01*
X988287Y683484D01*
Y700217D01*
X988293D01*
X988035Y702175D01*
X987279Y704000D01*
X986077Y705566D01*
X984510Y706769D01*
X982686Y707524D01*
X980728Y707782D01*
X978770Y707524D01*
X976946Y706769D01*
X975379Y705566D01*
X974177Y704000D01*
X973421Y702175D01*
X973163Y700217D01*
X973169D01*
Y683484D01*
X973184Y683411D01*
X972830Y682556D01*
X971728Y682099D01*
X970627Y682556D01*
X970272Y683411D01*
X970287Y683484D01*
Y700217D01*
X970293D01*
X970035Y702175D01*
X969279Y704000D01*
X968077Y705566D01*
X966510Y706769D01*
X964686Y707524D01*
X962728Y707782D01*
X960770Y707524D01*
X958946Y706769D01*
X957379Y705566D01*
X956177Y704000D01*
X955421Y702175D01*
X955163Y700217D01*
X955169D01*
Y695652D01*
X955184Y695579D01*
X954779Y694601D01*
X953801Y694196D01*
X953728Y694211D01*
X800052D01*
X800052Y694211D01*
X798882Y693978D01*
X797889Y693315D01*
X759333Y654759D01*
X676671D01*
X675730Y655700D01*
X675851Y656257D01*
X676285Y656941D01*
X757700D01*
X757700Y656941D01*
X758870Y657174D01*
X759863Y657837D01*
X821867Y719841D01*
X845429D01*
Y719835D01*
X847387Y720093D01*
X849212Y720849D01*
X850778Y722051D01*
X851980Y723618D01*
X852736Y725442D01*
X852994Y727400D01*
X852988D01*
Y728800D01*
X852973Y728873D01*
X853328Y729728D01*
X854429Y730185D01*
X855531Y729728D01*
X855885Y728873D01*
X855870Y728800D01*
Y714926D01*
X855864D01*
X856122Y712968D01*
X856878Y711143D01*
X858080Y709577D01*
X859647Y708374D01*
X861471Y707619D01*
X863429Y707361D01*
X865387Y707619D01*
X867212Y708374D01*
X868778Y709577D01*
X869980Y711143D01*
X870736Y712968D01*
X870994Y714926D01*
X870988D01*
Y728800D01*
X870973Y728873D01*
X871328Y729728D01*
X872429Y730185D01*
X873531Y729728D01*
X873885Y728873D01*
X873870Y728800D01*
Y714926D01*
X873864D01*
X874122Y712968D01*
X874878Y711143D01*
X876080Y709577D01*
X877647Y708374D01*
X879471Y707619D01*
X881429Y707361D01*
X883387Y707619D01*
X885211Y708374D01*
X886778Y709577D01*
X887980Y711143D01*
X888736Y712968D01*
X888994Y714926D01*
X888988D01*
Y728800D01*
X888973Y728873D01*
X889327Y729728D01*
X890429Y730185D01*
X891531Y729728D01*
X891885Y728873D01*
X891870Y728800D01*
Y714926D01*
X891864D01*
X892122Y712968D01*
X892878Y711143D01*
X894080Y709577D01*
X895647Y708374D01*
X897471Y707619D01*
X899429Y707361D01*
X901387Y707619D01*
X903211Y708374D01*
X904778Y709577D01*
X905980Y711143D01*
X906736Y712968D01*
X906994Y714926D01*
X906988D01*
Y728800D01*
X906973Y728873D01*
X907327Y729728D01*
X908429Y730185D01*
X909531Y729728D01*
X909885Y728873D01*
X909870Y728800D01*
Y714926D01*
X909864D01*
X910122Y712968D01*
X910878Y711143D01*
X912080Y709577D01*
X913647Y708374D01*
X915471Y707619D01*
X917429Y707361D01*
X919387Y707619D01*
X921211Y708374D01*
X922778Y709577D01*
X923980Y711143D01*
X924736Y712968D01*
X924994Y714926D01*
X924988D01*
Y728800D01*
X924973Y728873D01*
X925327Y729728D01*
X926429Y730185D01*
X927531Y729728D01*
D02*
G37*
G36*
X671857Y670474D02*
X673027Y670241D01*
X673027Y670241D01*
X761819D01*
X762344Y669267D01*
X762383Y669008D01*
X756433Y663059D01*
X677267D01*
X670418Y669908D01*
X671227Y670894D01*
X671857Y670474D01*
D02*
G37*
G36*
X852802Y680967D02*
X853156Y680112D01*
X853141Y680039D01*
Y667005D01*
X853135D01*
X853393Y665047D01*
X854149Y663222D01*
X855351Y661656D01*
X856918Y660453D01*
X858742Y659698D01*
X860700Y659440D01*
X862658Y659698D01*
X864482Y660453D01*
X866049Y661656D01*
X867251Y663222D01*
X868007Y665047D01*
X868265Y667005D01*
X868259D01*
Y680039D01*
X868244Y680112D01*
X868598Y680967D01*
X869700Y681424D01*
X870801Y680967D01*
X871156Y680112D01*
X871141Y680039D01*
Y667005D01*
X871135D01*
X871393Y665047D01*
X872149Y663222D01*
X873351Y661656D01*
X874918Y660453D01*
X876742Y659698D01*
X877744Y659566D01*
X878199Y658225D01*
X867674Y647700D01*
X866605D01*
X864951Y647015D01*
X863685Y645749D01*
X863000Y644095D01*
Y642305D01*
X863685Y640651D01*
X864951Y639385D01*
X866605Y638700D01*
X866678D01*
X867204Y637430D01*
X842333Y612559D01*
X821783D01*
X821530Y613829D01*
X822149Y614085D01*
X823415Y615351D01*
X824100Y617005D01*
Y618795D01*
X823415Y620449D01*
X822149Y621715D01*
X820495Y622400D01*
X818705D01*
X817051Y621715D01*
X815785Y620449D01*
X815100Y618795D01*
Y617005D01*
X815785Y615351D01*
X817051Y614085D01*
X817670Y613829D01*
X817417Y612559D01*
X793213D01*
X784548Y621224D01*
X785034Y622397D01*
X793629D01*
X795829Y620197D01*
Y619128D01*
X796514Y617474D01*
X797780Y616208D01*
X799434Y615523D01*
X801224D01*
X802878Y616208D01*
X804144Y617474D01*
X804829Y619128D01*
Y620263D01*
X805999Y621152D01*
X806002Y621153D01*
X807790D01*
X809444Y621838D01*
X810710Y623104D01*
X811395Y624758D01*
Y626548D01*
X810710Y628202D01*
X809444Y629468D01*
X809024Y629642D01*
X808484Y630450D01*
X808484Y630450D01*
X803021Y635913D01*
X802029Y636576D01*
X800858Y636809D01*
X800858Y636809D01*
X678694D01*
X675152Y640351D01*
X675678Y641621D01*
X763448D01*
X763448Y641621D01*
X764619Y641854D01*
X765611Y642517D01*
X793335Y670241D01*
X797700D01*
X797773Y670256D01*
X798751Y669851D01*
X799156Y668873D01*
X799141Y668800D01*
Y667005D01*
X799135D01*
X799393Y665047D01*
X800149Y663222D01*
X801351Y661656D01*
X802918Y660453D01*
X804742Y659698D01*
X806700Y659440D01*
X808658Y659698D01*
X810482Y660453D01*
X812049Y661656D01*
X813251Y663222D01*
X814007Y665047D01*
X814265Y667005D01*
X814259D01*
Y680039D01*
X814244Y680112D01*
X814598Y680967D01*
X815700Y681424D01*
X816802Y680967D01*
X817156Y680112D01*
X817141Y680039D01*
Y667005D01*
X817135D01*
X817393Y665047D01*
X818149Y663222D01*
X819351Y661656D01*
X820918Y660453D01*
X822742Y659698D01*
X824700Y659440D01*
X826658Y659698D01*
X828482Y660453D01*
X830049Y661656D01*
X831251Y663222D01*
X832007Y665047D01*
X832265Y667005D01*
X832259D01*
Y680039D01*
X832244Y680112D01*
X832598Y680967D01*
X833700Y681424D01*
X834802Y680967D01*
X835156Y680112D01*
X835141Y680039D01*
Y667005D01*
X835135D01*
X835393Y665047D01*
X836149Y663222D01*
X837351Y661656D01*
X838918Y660453D01*
X840742Y659698D01*
X842700Y659440D01*
X844658Y659698D01*
X846482Y660453D01*
X848049Y661656D01*
X849251Y663222D01*
X850007Y665047D01*
X850265Y667005D01*
X850259D01*
Y680039D01*
X850244Y680112D01*
X850598Y680967D01*
X851700Y681424D01*
X852802Y680967D01*
D02*
G37*
G36*
X519612Y622189D02*
X519612Y622189D01*
X520605Y621526D01*
X521775Y621293D01*
X521775Y621293D01*
X569277D01*
X596167Y594403D01*
X595641Y593133D01*
X595182D01*
X593528Y592448D01*
X592262Y591182D01*
X591577Y589528D01*
Y587738D01*
X592262Y586084D01*
X593528Y584818D01*
X595182Y584133D01*
X595317D01*
X595830Y583522D01*
X595479Y582034D01*
X595463Y582027D01*
X594198Y580761D01*
X593512Y579108D01*
Y577527D01*
X592936Y577114D01*
X592339Y576905D01*
X554265Y614979D01*
X553273Y615642D01*
X552102Y615875D01*
X552102Y615875D01*
X516832D01*
X511941Y620765D01*
X510881Y621826D01*
X510885Y621830D01*
X509318Y623032D01*
X507494Y623788D01*
X505536Y624046D01*
X503578Y623788D01*
X501754Y623032D01*
X500187Y621830D01*
X499377Y621436D01*
X498295Y621849D01*
X497760Y623088D01*
X498046Y623778D01*
X498108Y623820D01*
X503844Y629555D01*
X503848Y629551D01*
X505050Y631118D01*
X505806Y632942D01*
X505952Y634053D01*
X507293Y634508D01*
X519612Y622189D01*
D02*
G37*
G36*
X926219Y640871D02*
X925833Y640575D01*
X924631Y639008D01*
X923875Y637184D01*
X923617Y635226D01*
X923623D01*
Y622465D01*
X923637Y622392D01*
X923311Y621605D01*
X922110Y621124D01*
X921055Y621613D01*
X920747Y622700D01*
X920746D01*
X920489Y624658D01*
X919733Y626482D01*
X918531Y628049D01*
X916964Y629251D01*
X915140Y630007D01*
X913182Y630265D01*
Y630259D01*
X889400D01*
X888230Y630026D01*
X887237Y629363D01*
X833476Y575602D01*
X734524D01*
X727142Y582984D01*
X726594Y583350D01*
X726979Y584620D01*
X764198D01*
X764446Y584372D01*
X766100Y583687D01*
X767890D01*
X769544Y584372D01*
X770810Y585638D01*
X771495Y587292D01*
Y589082D01*
X770810Y590736D01*
X769544Y592002D01*
X767890Y592687D01*
X767203D01*
X766677Y593957D01*
X769532Y596812D01*
X770195Y597804D01*
X770428Y598975D01*
Y604796D01*
X771184Y605552D01*
X771869Y607206D01*
Y608996D01*
X771184Y610650D01*
X770463Y611371D01*
X770989Y612641D01*
X777792D01*
X788596Y601837D01*
X788596Y601837D01*
X789588Y601174D01*
X790759Y600941D01*
X790759Y600941D01*
X847300D01*
X847300Y600941D01*
X848471Y601174D01*
X849463Y601837D01*
X889767Y642141D01*
X925788D01*
X926219Y640871D01*
D02*
G37*
G36*
X667800Y600314D02*
X668792Y599651D01*
X669963Y599418D01*
X754941D01*
X755348Y598866D01*
X754706Y597596D01*
X660716D01*
X578542Y679770D01*
Y687776D01*
X579812Y688302D01*
X667800Y600314D01*
D02*
G37*
G36*
X726837Y564237D02*
X726837Y564237D01*
X726909Y564189D01*
X726524Y562919D01*
X722998D01*
X721828Y562686D01*
X720835Y562023D01*
X702452Y543640D01*
X645396D01*
X639889Y549147D01*
X640698Y550133D01*
X640903Y549997D01*
X642073Y549764D01*
X647146D01*
X647919Y548991D01*
X649573Y548306D01*
X651363D01*
X653017Y548991D01*
X654283Y550257D01*
X654968Y551911D01*
Y553701D01*
X654283Y555355D01*
X653017Y556621D01*
X651363Y557306D01*
X649573D01*
X647919Y556621D01*
X647180Y555882D01*
X643340D01*
X639981Y559240D01*
X640507Y560510D01*
X651408D01*
X661536Y550382D01*
X661536Y550382D01*
X662529Y549719D01*
X663699Y549486D01*
X691471D01*
X692228Y548730D01*
X693882Y548045D01*
X695672D01*
X697326Y548730D01*
X698592Y549996D01*
X699277Y551650D01*
Y553440D01*
X698592Y555094D01*
X697326Y556359D01*
X695672Y557045D01*
X693882D01*
X692228Y556359D01*
X692187Y556319D01*
X691656Y556403D01*
X690865Y557813D01*
X690977Y558082D01*
Y559872D01*
X690292Y561526D01*
X689026Y562792D01*
X687372Y563477D01*
X685582D01*
X683928Y562792D01*
X682664Y561528D01*
X666705D01*
X657902Y570331D01*
X658428Y571601D01*
X719473D01*
X726837Y564237D01*
D02*
G37*
G36*
X580575Y535761D02*
X580254Y535440D01*
X579569Y533786D01*
Y531996D01*
X579891Y531220D01*
X579042Y529950D01*
X561790D01*
X560779Y530961D01*
X559125Y531646D01*
X557335D01*
X555681Y530961D01*
X554415Y529695D01*
X553730Y528041D01*
Y526251D01*
X554415Y524597D01*
X555681Y523331D01*
X557335Y522646D01*
X559125D01*
X560779Y523331D01*
X561280Y523832D01*
X606930D01*
X607546Y522562D01*
X607021Y521295D01*
Y519505D01*
X607706Y517851D01*
X608972Y516585D01*
X610626Y515900D01*
X611668D01*
X612538Y514680D01*
X612212Y513895D01*
Y512105D01*
X612897Y510451D01*
X614163Y509185D01*
X615817Y508500D01*
X617607D01*
X619261Y509185D01*
X620018Y509941D01*
X717729D01*
X717729Y509941D01*
X718900Y510174D01*
X719892Y510837D01*
X742196Y533141D01*
X766852D01*
X767105Y531871D01*
X765716Y531296D01*
X764450Y530030D01*
X763765Y528376D01*
Y526586D01*
X764450Y524932D01*
X765206Y524176D01*
Y510786D01*
X756296Y501876D01*
X517537D01*
X517011Y503146D01*
X550896Y537031D01*
X580049D01*
X580575Y535761D01*
D02*
G37*
%LPC*%
G36*
X422222Y844952D02*
X420432D01*
X418778Y844267D01*
X417512Y843001D01*
X416827Y841347D01*
Y839557D01*
X417512Y837903D01*
X418778Y836637D01*
X420432Y835952D01*
X422222D01*
X423876Y836637D01*
X425142Y837903D01*
X425827Y839557D01*
Y841347D01*
X425142Y843001D01*
X423876Y844267D01*
X422222Y844952D01*
D02*
G37*
G36*
X544866Y843486D02*
X543076D01*
X541422Y842801D01*
X540156Y841535D01*
X539471Y839881D01*
Y838091D01*
X540156Y836437D01*
X541422Y835171D01*
X543076Y834486D01*
X544866D01*
X546520Y835171D01*
X547786Y836437D01*
X548471Y838091D01*
Y839881D01*
X547786Y841535D01*
X546520Y842801D01*
X544866Y843486D01*
D02*
G37*
G36*
X713534Y730101D02*
X711744D01*
X710090Y729416D01*
X708824Y728150D01*
X708139Y726496D01*
Y724706D01*
X708824Y723052D01*
X710090Y721786D01*
X711744Y721101D01*
X713534D01*
X715188Y721786D01*
X716454Y723052D01*
X717139Y724706D01*
Y726496D01*
X716454Y728150D01*
X715188Y729416D01*
X713534Y730101D01*
D02*
G37*
G36*
X815388Y588369D02*
X813598D01*
X811944Y587684D01*
X810678Y586418D01*
X809993Y584764D01*
Y582974D01*
X810678Y581320D01*
X811944Y580054D01*
X813598Y579369D01*
X815388D01*
X817042Y580054D01*
X818308Y581320D01*
X818993Y582974D01*
Y584764D01*
X818308Y586418D01*
X817042Y587684D01*
X815388Y588369D01*
D02*
G37*
%LPD*%
G36*
X1546100Y1033500D02*
X1492100D01*
Y1079500D01*
X109600D01*
Y756265D01*
X108330Y756013D01*
X108315Y756049D01*
X107049Y757315D01*
X105395Y758000D01*
X103605D01*
X101951Y757315D01*
X100685Y756049D01*
X100000Y754395D01*
Y752605D01*
X100685Y750951D01*
X101951Y749685D01*
X103605Y749000D01*
X105395D01*
X107049Y749685D01*
X108315Y750951D01*
X108330Y750987D01*
X109600Y750735D01*
Y740782D01*
X108330Y740530D01*
X108115Y741049D01*
X106849Y742315D01*
X105195Y743000D01*
X103405D01*
X101751Y742315D01*
X100485Y741049D01*
X99800Y739395D01*
Y737605D01*
X100485Y735951D01*
X101751Y734685D01*
X103405Y734000D01*
X105195D01*
X106849Y734685D01*
X108115Y735951D01*
X108330Y736470D01*
X109600Y736218D01*
Y689300D01*
X197200D01*
Y632800D01*
X97100D01*
X97100Y642600D01*
X69300Y670400D01*
X55300D01*
Y1131300D01*
X1546100D01*
Y1033500D01*
D02*
G37*
G36*
X1622449Y484386D02*
Y481095D01*
X1625740D01*
X1625949Y479595D01*
X1625740Y478095D01*
X1622449D01*
Y474805D01*
X1620950Y474595D01*
X1619449Y474805D01*
Y478095D01*
X1616159D01*
X1615950Y479595D01*
X1616159Y481095D01*
X1619449D01*
Y484386D01*
X1620950Y484595D01*
X1622449Y484386D01*
D02*
G37*
G36*
X1466747Y404499D02*
X1467341Y404218D01*
Y387867D01*
X1455433Y375959D01*
X1116385D01*
X1115759Y377229D01*
X1116513Y378211D01*
X1117268Y380035D01*
X1117526Y381993D01*
X1117520D01*
Y391000D01*
X1117506Y391073D01*
X1117860Y391928D01*
X1118961Y392385D01*
X1120063Y391928D01*
X1120417Y391073D01*
X1120403Y391000D01*
Y388700D01*
X1120397D01*
X1120655Y386742D01*
X1121410Y384918D01*
X1122612Y383351D01*
X1124179Y382149D01*
X1126003Y381393D01*
X1127961Y381135D01*
Y381141D01*
X1419400D01*
X1419400Y381141D01*
X1420571Y381374D01*
X1421563Y382037D01*
X1437767Y398241D01*
X1445895D01*
X1446651Y397485D01*
X1448305Y396800D01*
X1450095D01*
X1451749Y397485D01*
X1453015Y398751D01*
X1453700Y400405D01*
Y402195D01*
X1453378Y402971D01*
X1454227Y404241D01*
X1459095D01*
X1459851Y403485D01*
X1461505Y402800D01*
X1463295D01*
X1464949Y403485D01*
X1466071Y404607D01*
X1466747Y404499D01*
D02*
G37*
G36*
X1622449Y404586D02*
Y401295D01*
X1625740D01*
X1625949Y399795D01*
X1625740Y398295D01*
X1622449D01*
Y395005D01*
X1620950Y394795D01*
X1619449Y395005D01*
Y398295D01*
X1616159D01*
X1615950Y399795D01*
X1616159Y401295D01*
X1619449D01*
Y404586D01*
X1620950Y404795D01*
X1622449Y404586D01*
D02*
G37*
D15*
X897046Y395500D02*
G03*
X892546Y400000I-4500J0D01*
G01*
X897046Y395500D02*
G03*
X906046Y395500I4500J0D01*
G01*
X915046Y400000D02*
G03*
X906046Y400000I-4500J0D01*
G01*
X915046Y394774D02*
G03*
X924046Y394774I4500J0D01*
G01*
X933046Y400592D02*
G03*
X924046Y400592I-4500J0D01*
G01*
X933046Y394094D02*
G03*
X942046Y394094I4500J0D01*
G01*
X951046Y400592D02*
G03*
X942046Y400592I-4500J0D01*
G01*
X951046Y394094D02*
G03*
X960046Y394094I4500J0D01*
G01*
X969046Y400592D02*
G03*
X960046Y400592I-4500J0D01*
G01*
X969046Y394094D02*
G03*
X978046Y394094I4500J0D01*
G01*
X982545Y400000D02*
G03*
X978046Y395500I0J-4500D01*
G01*
X1073961Y384200D02*
G03*
X1078462Y388700I0J4500D01*
G01*
X1087461Y391000D02*
G03*
X1078462Y391000I-4500J0D01*
G01*
X1087461Y381993D02*
G03*
X1096461Y381993I4500J0D01*
G01*
X1105461Y391000D02*
G03*
X1096461Y391000I-4500J0D01*
G01*
X1105461Y381993D02*
G03*
X1114461Y381993I4500J0D01*
G01*
X1123461Y391000D02*
G03*
X1114461Y391000I-4500J0D01*
G01*
X1123461Y388700D02*
G03*
X1127961Y384200I4500J0D01*
G01*
X870334Y421000D02*
G03*
X874834Y425500I0J4500D01*
G01*
X883834Y433859D02*
G03*
X874834Y433859I-4500J0D01*
G01*
X883834Y425500D02*
G03*
X888334Y421000I4500J0D01*
G01*
X802200Y668800D02*
G03*
X797700Y673300I-4500J0D01*
G01*
X802200Y667005D02*
G03*
X811200Y667005I4500J0D01*
G01*
X820200Y680039D02*
G03*
X811200Y680039I-4500J0D01*
G01*
X820200Y667005D02*
G03*
X829200Y667005I4500J0D01*
G01*
X838200Y680039D02*
G03*
X829200Y680039I-4500J0D01*
G01*
X838200Y667005D02*
G03*
X847200Y667005I4500J0D01*
G01*
X856200Y680039D02*
G03*
X847200Y680039I-4500J0D01*
G01*
X856200Y667005D02*
G03*
X865200Y667005I4500J0D01*
G01*
X874200Y680039D02*
G03*
X865200Y680039I-4500J0D01*
G01*
X874200Y667005D02*
G03*
X883200Y667005I4500J0D01*
G01*
X887700Y673300D02*
G03*
X883200Y668800I0J-4500D01*
G01*
X1042412Y744600D02*
G03*
X1046912Y740100I4500J0D01*
G01*
X1042412Y744665D02*
G03*
X1033412Y744665I-4500J0D01*
G01*
X1024412Y731900D02*
G03*
X1033412Y731900I4500J0D01*
G01*
X1024412Y744665D02*
G03*
X1015412Y744665I-4500J0D01*
G01*
X1006412Y731900D02*
G03*
X1015412Y731900I4500J0D01*
G01*
X1006412Y744665D02*
G03*
X997412Y744665I-4500J0D01*
G01*
X988412Y731900D02*
G03*
X997412Y731900I4500J0D01*
G01*
X988412Y744665D02*
G03*
X979412Y744665I-4500J0D01*
G01*
X970412Y731900D02*
G03*
X979412Y731900I4500J0D01*
G01*
X970412Y744665D02*
G03*
X961412Y744665I-4500J0D01*
G01*
X956912Y740100D02*
G03*
X961412Y744600I0J4500D01*
G01*
X1146395Y760700D02*
G03*
X1150895Y756200I4500J0D01*
G01*
X1146395Y762436D02*
G03*
X1137395Y762436I-4500J0D01*
G01*
X1128395Y750258D02*
G03*
X1137395Y750258I4500J0D01*
G01*
X1128395Y762436D02*
G03*
X1119395Y762436I-4500J0D01*
G01*
X1110395Y750258D02*
G03*
X1119395Y750258I4500J0D01*
G01*
X1110395Y762436D02*
G03*
X1101395Y762436I-4500J0D01*
G01*
X1092395Y750258D02*
G03*
X1101395Y750258I4500J0D01*
G01*
X1092395Y762436D02*
G03*
X1083395Y762436I-4500J0D01*
G01*
X1074395Y750258D02*
G03*
X1083395Y750258I4500J0D01*
G01*
X1074395Y762436D02*
G03*
X1065395Y762436I-4500J0D01*
G01*
X1060895Y756200D02*
G03*
X1065395Y760700I0J4500D01*
G01*
X1045791Y785400D02*
G03*
X1050291Y780900I4500J0D01*
G01*
X1045791Y789100D02*
G03*
X1036791Y789100I-4500J0D01*
G01*
X1027791Y772889D02*
G03*
X1036791Y772889I4500J0D01*
G01*
X1027791Y789100D02*
G03*
X1018791Y789100I-4500J0D01*
G01*
X1009791Y772889D02*
G03*
X1018791Y772889I4500J0D01*
G01*
X1009791Y789100D02*
G03*
X1000791Y789100I-4500J0D01*
G01*
X991791Y772889D02*
G03*
X1000791Y772889I4500J0D01*
G01*
X991791Y789100D02*
G03*
X982791Y789100I-4500J0D01*
G01*
X973791Y772889D02*
G03*
X982791Y772889I4500J0D01*
G01*
X973791Y789100D02*
G03*
X964791Y789100I-4500J0D01*
G01*
X955791Y772889D02*
G03*
X964791Y772889I4500J0D01*
G01*
X955791Y789100D02*
G03*
X946791Y789100I-4500J0D01*
G01*
X942291Y780900D02*
G03*
X946791Y785400I0J4500D01*
G01*
X928200Y760700D02*
G03*
X932700Y756200I4500J0D01*
G01*
X928200Y765081D02*
G03*
X919200Y765081I-4500J0D01*
G01*
X910200Y749100D02*
G03*
X919200Y749100I4500J0D01*
G01*
X910200Y765081D02*
G03*
X901200Y765081I-4500J0D01*
G01*
X892200Y749100D02*
G03*
X901200Y749100I4500J0D01*
G01*
X892200Y765081D02*
G03*
X883200Y765081I-4500J0D01*
G01*
X878700Y756200D02*
G03*
X883200Y760700I0J4500D01*
G01*
X1003228Y695652D02*
G03*
X1007728Y691152I4500J0D01*
G01*
X1003228Y699940D02*
G03*
X994228Y699940I-4500J0D01*
G01*
X985228Y683484D02*
G03*
X994228Y683484I4500J0D01*
G01*
X985228Y700217D02*
G03*
X976228Y700217I-4500J0D01*
G01*
X967228Y683484D02*
G03*
X976228Y683484I4500J0D01*
G01*
X967228Y700217D02*
G03*
X958228Y700217I-4500J0D01*
G01*
X953728Y691152D02*
G03*
X958228Y695652I0J4500D01*
G01*
X845429Y722900D02*
G03*
X849929Y727400I0J4500D01*
G01*
X858929Y728800D02*
G03*
X849929Y728800I-4500J0D01*
G01*
X858929Y714926D02*
G03*
X867929Y714926I4500J0D01*
G01*
X876929Y728800D02*
G03*
X867929Y728800I-4500J0D01*
G01*
X876929Y714926D02*
G03*
X885929Y714926I4500J0D01*
G01*
X894929Y728800D02*
G03*
X885929Y728800I-4500J0D01*
G01*
X894929Y714926D02*
G03*
X903929Y714926I4500J0D01*
G01*
X912929Y728800D02*
G03*
X903929Y728800I-4500J0D01*
G01*
X912929Y714926D02*
G03*
X921929Y714926I4500J0D01*
G01*
X930929Y728800D02*
G03*
X921929Y728800I-4500J0D01*
G01*
X930929Y714926D02*
G03*
X939929Y714926I4500J0D01*
G01*
X944429Y722900D02*
G03*
X939929Y718400I0J-4500D01*
G01*
X917682Y622700D02*
G03*
X913182Y627200I-4500J0D01*
G01*
X917682Y622465D02*
G03*
X926682Y622465I4500J0D01*
G01*
X935682Y635226D02*
G03*
X926682Y635226I-4500J0D01*
G01*
X935682Y620863D02*
G03*
X944682Y620863I4500J0D01*
G01*
X953682Y635226D02*
G03*
X944682Y635226I-4500J0D01*
G01*
X953682Y620863D02*
G03*
X962682Y620863I4500J0D01*
G01*
X967182Y627200D02*
G03*
X962682Y622700I0J-4500D01*
G01*
X974026Y605400D02*
G03*
X969527Y609900I-4500J0D01*
G01*
X974026Y605400D02*
G03*
X983027Y605400I4500J0D01*
G01*
X992026Y615283D02*
G03*
X983027Y615283I-4500J0D01*
G01*
X992026Y602700D02*
G03*
X1001026Y602700I4500J0D01*
G01*
X1010026Y615362D02*
G03*
X1001026Y615362I-4500J0D01*
G01*
X1010026Y602700D02*
G03*
X1019026Y602700I4500J0D01*
G01*
X1023526Y609900D02*
G03*
X1019026Y605400I0J-4500D01*
G01*
X987640Y576076D02*
G03*
X983140Y571576I0J-4500D01*
G01*
X974140Y570121D02*
G03*
X983140Y570121I4500J0D01*
G01*
X974140Y582123D02*
G03*
X965140Y582123I-4500J0D01*
G01*
X956140Y570121D02*
G03*
X965140Y570121I4500J0D01*
G01*
X956140Y582123D02*
G03*
X947140Y582123I-4500J0D01*
G01*
X938140Y570121D02*
G03*
X947140Y570121I4500J0D01*
G01*
X938140Y582123D02*
G03*
X929140Y582123I-4500J0D01*
G01*
X924640Y576076D02*
G03*
X929140Y580576I0J4500D01*
G01*
X1056600Y561300D02*
G03*
X1061100Y556800I4500J0D01*
G01*
X1056600Y566885D02*
G03*
X1047600Y566885I-4500J0D01*
G01*
X1038600Y552015D02*
G03*
X1047600Y552015I4500J0D01*
G01*
X1038600Y566885D02*
G03*
X1029600Y566885I-4500J0D01*
G01*
X1025100Y556800D02*
G03*
X1029600Y561300I0J4500D01*
G01*
X1107932Y590524D02*
G03*
X1112432Y586024I4500J0D01*
G01*
X1117808Y577024D02*
G03*
X1117808Y586024I0J4500D01*
G01*
X1112432Y577024D02*
G03*
X1107932Y572524I0J-4500D01*
G01*
X650414Y899100D02*
G03*
X654914Y903600I0J4500D01*
G01*
X641414Y899100D02*
G03*
X636914Y894600I0J-4500D01*
G01*
Y871165D02*
G03*
X641414Y866665I4500J0D01*
G01*
D02*
G03*
X645914Y871165I0J4500D01*
G01*
X650414Y890100D02*
G03*
X645914Y885600I0J-4500D01*
G01*
X654914D02*
G03*
X650414Y890100I-4500J0D01*
G01*
X482958Y600879D02*
G03*
X482958Y607243I-3182J3182D01*
G01*
X476595Y600879D02*
G03*
X482958Y600879I3182J3182D01*
G01*
X447788Y629685D02*
G03*
X441424Y629685I-3182J-3182D01*
G01*
D02*
G03*
X441424Y623321I3182J-3182D01*
G01*
X476595Y588151D02*
G03*
X482955Y588147I3182J3182D01*
G01*
X495676Y594525D02*
G03*
X489326Y594518I-3171J-3193D01*
G01*
X483262Y638755D02*
G03*
X483262Y645119I-3182J3182D01*
G01*
X483217Y638710D02*
G03*
X483217Y632346I3182J-3182D01*
G01*
D02*
G03*
X489581Y632346I3182J3182D01*
G01*
X501681Y638082D02*
G03*
X495317Y638082I-3182J-3182D01*
G01*
X501681Y631718D02*
G03*
X501681Y638082I-3182J3182D01*
G01*
X495945Y625983D02*
G03*
X495945Y619618I3182J-3182D01*
G01*
D02*
G03*
X502309Y619618I3182J3182D01*
G01*
X508718Y619663D02*
G03*
X502354Y619663I-3182J-3182D01*
G01*
X474106Y726916D02*
G03*
X478606Y731416I0J4500D01*
G01*
X469606D02*
G03*
X474106Y726916I4500J0D01*
G01*
X469606Y815760D02*
G03*
X465106Y820260I-4500J0D01*
G01*
D02*
G03*
X460606Y815760I0J-4500D01*
G01*
Y722416D02*
G03*
X465106Y717916I4500J0D01*
G01*
X478606Y713416D02*
G03*
X474106Y717916I-4500J0D01*
G01*
X382804Y671124D02*
G03*
X384119Y667945I4500J0D01*
G01*
X413467Y638597D02*
G03*
X419831Y638597I3182J3182D01*
G01*
D02*
G03*
X419831Y644961I-3182J3182D01*
G01*
X407597Y663558D02*
G03*
X407597Y657195I3182J-3182D01*
G01*
X413961Y663559D02*
G03*
X407598Y663559I-3182J-3182D01*
G01*
X432562Y638601D02*
G03*
X432568Y644951I-3185J3178D01*
G01*
X426191Y632230D02*
G03*
X426195Y625869I3185J-3178D01*
G01*
X526903Y720718D02*
G03*
X531403Y716218I4500J0D01*
G01*
D02*
G03*
X535903Y720718I0J4500D01*
G01*
X540403Y779508D02*
G03*
X535903Y775008I0J-4500D01*
G01*
X544903D02*
G03*
X540403Y779508I-4500J0D01*
G01*
Y707218D02*
G03*
X544903Y711718I0J4500D01*
G01*
X531403Y707218D02*
G03*
X526903Y702718I0J-4500D01*
G01*
X519859Y685258D02*
G03*
X521174Y682079I4500J0D01*
G01*
X528743Y668146D02*
G03*
X528743Y674510I-3182J3182D01*
G01*
X522379Y668146D02*
G03*
X528743Y668146I3182J3182D01*
G01*
X510859Y681530D02*
G03*
X512174Y678352I4500J0D01*
G01*
X510859Y713806D02*
G03*
X506359Y718306I-4500J0D01*
G01*
D02*
G03*
X501859Y713806I0J-4500D01*
G01*
Y677802D02*
G03*
X503174Y674624I4500J0D01*
G01*
X522379Y655418D02*
G03*
X528740Y655415I3182J3182D01*
G01*
X541460Y661793D02*
G03*
X535110Y661786I-3171J-3193D01*
G01*
X533738Y871909D02*
G03*
X538238Y876409I0J4500D01*
G01*
X542738Y889909D02*
G03*
X538238Y885409I0J-4500D01*
G01*
X583823Y888595D02*
G03*
X580645Y889909I-3178J-3185D01*
G01*
X592617Y873437D02*
G03*
X592617Y879801I-3182J3182D01*
G01*
X586253Y873437D02*
G03*
X592617Y873437I3182J3182D01*
G01*
X580095Y879595D02*
G03*
X576917Y880909I-3178J-3185D01*
G01*
X551738D02*
G03*
X547238Y876409I0J-4500D01*
G01*
D02*
G03*
X551738Y871909I4500J0D01*
G01*
X576367Y870595D02*
G03*
X573189Y871909I-3178J-3185D01*
G01*
X586494Y860468D02*
G03*
X586501Y860461I3195J3169D01*
G01*
X489751Y739903D02*
G03*
X494251Y735403I4500J0D01*
G01*
D02*
G03*
X498751Y739903I0J4500D01*
G01*
X503251Y801501D02*
G03*
X498751Y797001I0J-4500D01*
G01*
X507751D02*
G03*
X503251Y801501I-4500J0D01*
G01*
Y726403D02*
G03*
X507751Y730903I0J4500D01*
G01*
X494251Y726403D02*
G03*
X489751Y721903I0J-4500D01*
G01*
X606676Y832484D02*
G03*
X611176Y827984I4500J0D01*
G01*
X642676Y823484D02*
G03*
X638176Y827984I-4500J0D01*
G01*
X641361Y782386D02*
G03*
X642676Y785564I-3185J3178D01*
G01*
X626956Y774345D02*
G03*
X633320Y774345I3182J3182D01*
G01*
X626956Y780709D02*
G03*
X626956Y774345I3182J-3182D01*
G01*
X632361Y786114D02*
G03*
X633676Y789292I-3185J3178D01*
G01*
Y800029D02*
G03*
X629176Y804529I-4500J0D01*
G01*
D02*
G03*
X624676Y800029I0J-4500D01*
G01*
X623361Y789842D02*
G03*
X624676Y793020I-3185J3178D01*
G01*
X607284Y773764D02*
G03*
X605969Y770585I3185J-3178D01*
G01*
X601469Y761597D02*
G03*
X605969Y766097I0J4500D01*
G01*
X596969D02*
G03*
X601469Y761597I4500J0D01*
G01*
X598284Y777492D02*
G03*
X596969Y774313I3185J-3178D01*
G01*
X614361Y793570D02*
G03*
X615676Y796748I-3185J3178D01*
G01*
Y814484D02*
G03*
X606676Y814484I-4500J0D01*
G01*
X605362Y797298D02*
G03*
X606676Y800476I-3185J3178D01*
G01*
X589284Y781220D02*
G03*
X587969Y778041I3185J-3178D01*
G01*
X674839Y829097D02*
G03*
X670339Y824597I0J-4500D01*
G01*
X679339D02*
G03*
X674839Y829097I-4500J0D01*
G01*
X679339Y766560D02*
G03*
X683839Y762060I4500J0D01*
G01*
D02*
G03*
X688339Y766560I0J4500D01*
G01*
Y833597D02*
G03*
X683839Y838097I-4500J0D01*
G01*
X670339Y842597D02*
G03*
X674839Y838097I4500J0D01*
G01*
X571896Y901416D02*
G03*
X576396Y905916I0J4500D01*
G01*
D02*
G03*
X571896Y910416I-4500J0D01*
G01*
X549275Y914916D02*
G03*
X553775Y910416I4500J0D01*
G01*
Y919416D02*
G03*
X549275Y914916I0J-4500D01*
G01*
X585396D02*
G03*
X580896Y919416I-4500J0D01*
G01*
X585396Y905916D02*
G03*
X589896Y901416I4500J0D01*
G01*
X646851Y1002224D02*
G03*
X642351Y997724I0J-4500D01*
G01*
D02*
G03*
X646851Y993224I4500J0D01*
G01*
X665683Y988724D02*
G03*
X661183Y993224I-4500J0D01*
G01*
Y984224D02*
G03*
X665683Y988724I0J4500D01*
G01*
X633351D02*
G03*
X637851Y984224I4500J0D01*
G01*
X633351Y997724D02*
G03*
X628851Y1002224I-4500J0D01*
G01*
X694845Y903003D02*
G03*
X690345Y907503I-4500J0D01*
G01*
D02*
G03*
X685845Y903003I0J-4500D01*
G01*
X681345Y857771D02*
G03*
X685845Y862271I0J4500D01*
G01*
X676845D02*
G03*
X681345Y857771I4500J0D01*
G01*
Y916503D02*
G03*
X676845Y912003I0J-4500D01*
G01*
X690345Y916503D02*
G03*
X694845Y921003I0J4500D01*
G01*
X529249Y921224D02*
G03*
X522885Y921224I-3182J-3182D01*
G01*
X529249Y914860D02*
G03*
X529249Y921224I-3182J3182D01*
G01*
X511409Y897020D02*
G03*
X511409Y890656I3182J-3182D01*
G01*
D02*
G03*
X517773Y890656I3182J3182D01*
G01*
X541980Y914863D02*
G03*
X541977Y921224I-3185J3178D01*
G01*
X535609Y933948D02*
G03*
X535609Y927591I3185J-3178D01*
G01*
X547401Y943876D02*
G03*
X544222Y942561I0J-4500D01*
G01*
X566082Y934876D02*
G03*
X566082Y943876I0J4500D01*
G01*
X562515Y934876D02*
G03*
X558015Y930376I0J-4500D01*
G01*
D02*
G03*
X562515Y925876I4500J0D01*
G01*
X575082D02*
G03*
X579582Y930376I0J4500D01*
G01*
X584082Y943876D02*
G03*
X579582Y939376I0J-4500D01*
G01*
X720255Y901171D02*
G03*
X715755Y896671I0J-4500D01*
G01*
X724755D02*
G03*
X720255Y901171I-4500J0D01*
G01*
X724755Y886779D02*
G03*
X729255Y882279I4500J0D01*
G01*
D02*
G03*
X733755Y886779I0J4500D01*
G01*
Y905671D02*
G03*
X729255Y910171I-4500J0D01*
G01*
X715755Y914671D02*
G03*
X720255Y910171I4500J0D01*
G01*
X777446Y952227D02*
G03*
X772946Y956727I-4500J0D01*
G01*
D02*
G03*
X768446Y952227I0J-4500D01*
G01*
X763946Y922917D02*
G03*
X768446Y927417I0J4500D01*
G01*
X759446D02*
G03*
X763946Y922917I4500J0D01*
G01*
Y965727D02*
G03*
X759446Y961227I0J-4500D01*
G01*
X772946Y965727D02*
G03*
X777446Y970227I0J4500D01*
G01*
X706167Y831746D02*
G03*
X701667Y827246I0J-4500D01*
G01*
X710667D02*
G03*
X706167Y831746I-4500J0D01*
G01*
X710667Y780573D02*
G03*
X715167Y776073I4500J0D01*
G01*
D02*
G03*
X719667Y780573I0J4500D01*
G01*
Y836246D02*
G03*
X715167Y840746I-4500J0D01*
G01*
X701667Y845246D02*
G03*
X706167Y840746I4500J0D01*
G01*
X734830Y939978D02*
G03*
X739330Y944478I0J4500D01*
G01*
X730330D02*
G03*
X734830Y939978I4500J0D01*
G01*
X730330Y977168D02*
G03*
X725830Y981668I-4500J0D01*
G01*
D02*
G03*
X721330Y977168I0J-4500D01*
G01*
Y935478D02*
G03*
X725830Y930978I4500J0D01*
G01*
X739330Y926478D02*
G03*
X734830Y930978I-4500J0D01*
G01*
X757943Y875409D02*
G03*
X753443Y870909I0J-4500D01*
G01*
X762443D02*
G03*
X757943Y875409I-4500J0D01*
G01*
X762443Y831742D02*
G03*
X766943Y827242I4500J0D01*
G01*
D02*
G03*
X771443Y831742I0J4500D01*
G01*
Y879909D02*
G03*
X766943Y884409I-4500J0D01*
G01*
X753443Y888909D02*
G03*
X757943Y884409I4500J0D01*
G01*
X694845Y943027D02*
G03*
X693967Y945148I-3000J-0D01*
G01*
X670339Y934662D02*
G03*
X669461Y936783I-3000J-0D01*
G01*
X691495Y965484D02*
G03*
X689380Y966356I-2115J-2128D01*
G01*
X656504Y949740D02*
G03*
X654389Y950612I-2115J-2128D01*
G01*
X682041Y957074D02*
G03*
X679926Y957946I-2115J-2128D01*
G01*
X669461Y751529D02*
G03*
X670339Y753649I-2122J2121D01*
G01*
X656277Y738345D02*
G03*
X655405Y736230I2128J-2115D01*
G01*
X882305Y658005D02*
X1039641D01*
X867500Y643200D02*
X882305Y658005D01*
X1183718Y756200D02*
X1187503Y752415D01*
X1204172D01*
X670630Y691570D02*
Y732149D01*
Y691570D02*
X670700Y691500D01*
X1070800Y716600D02*
X1176600D01*
X1188400Y728400D01*
Y728400D01*
X1045352Y691152D02*
X1070800Y716600D01*
X174200Y512000D02*
X476900D01*
X117194Y454994D02*
X174200Y512000D01*
X200171Y804029D02*
X217509D01*
X161400Y842800D02*
X200171Y804029D01*
X130300Y842800D02*
X161400D01*
X1486600Y1045100D02*
X1505400D01*
X1482900Y1012200D02*
Y1041400D01*
X1486600Y1045100D01*
X521585Y493985D02*
X753987D01*
X183648Y468086D02*
X486127D01*
X490187Y462587D02*
X521585Y493985D01*
X191401Y462587D02*
X490187D01*
X516858Y498817D02*
X757563D01*
X486127Y468086D02*
X516858Y498817D01*
X117194Y176642D02*
Y454994D01*
X945929Y722900D02*
X1153235D01*
X782659Y413038D02*
X1412338D01*
X1472100Y472800D01*
X1492900D01*
X1436500Y401300D02*
X1449200D01*
X1138462Y384200D02*
X1419400D01*
X1436500Y401300D01*
X1428300Y407300D02*
X1462400D01*
X1421000Y400000D02*
X1428300Y407300D01*
X984046Y400000D02*
X1421000D01*
X866375D02*
X892546D01*
X897046Y395500D02*
Y395500D01*
X906046Y395500D02*
Y400000D01*
X915046Y394774D02*
Y400000D01*
X924046Y394774D02*
Y400592D01*
X933046Y394094D02*
Y400592D01*
X942046Y394094D02*
Y400592D01*
X951046Y394094D02*
Y400592D01*
X960046Y394094D02*
Y400592D01*
X969046Y394094D02*
Y400592D01*
X978046Y394094D02*
Y395500D01*
X982545Y400000D02*
X984046D01*
X776416D02*
X866375D01*
X1477400Y451900D02*
X1493100D01*
X1470400Y444900D02*
X1477400Y451900D01*
X1470400Y386600D02*
Y444900D01*
X772189Y372900D02*
X1456700D01*
X1470400Y386600D01*
X1025846Y384200D02*
X1073961D01*
X1078462Y388700D02*
Y391000D01*
X1087461Y381993D02*
Y391000D01*
X1096461Y381993D02*
Y391000D01*
X1105461Y381993D02*
Y391000D01*
X1114461Y381993D02*
Y391000D01*
X1123461Y388700D02*
Y391000D01*
X1127961Y384200D02*
X1138462D01*
X778327D02*
X1025846D01*
X801290Y421000D02*
X870334D01*
X874834Y425500D02*
Y433859D01*
X883834Y425500D02*
Y433859D01*
X888334Y421000D02*
X898834D01*
X1400300D01*
X1457400Y353800D02*
X1493100Y389500D01*
Y430100D01*
X773261Y353800D02*
X1457400D01*
X736233Y390828D02*
X773261Y353800D01*
X772020Y341100D02*
X1475300D01*
X720384Y392736D02*
X772020Y341100D01*
X1475300D02*
X1532700Y398500D01*
X742872Y402217D02*
X772189Y372900D01*
X758057Y418359D02*
X776416Y400000D01*
X750485Y412042D02*
X778327Y384200D01*
X773091Y422606D02*
X782659Y413038D01*
X773091Y422606D02*
Y468419D01*
X793500Y421000D02*
X801290D01*
X782743Y431757D02*
X793500Y421000D01*
X1400300D02*
X1464200Y484900D01*
X782743Y431757D02*
Y468419D01*
X1464200Y484900D02*
X1493100D01*
X1450143Y1010050D02*
X1450819Y1009374D01*
X1423950Y1010050D02*
X1450143D01*
X1452826Y1009374D02*
X1453400Y1008800D01*
X1450819Y1009374D02*
X1452826D01*
X1411100Y602129D02*
Y997200D01*
X1423950Y1010050D01*
X857812Y513900D02*
X859231Y512481D01*
X857000Y513900D02*
X857812D01*
X1281840Y472869D02*
X1411100Y602129D01*
X898334Y474334D02*
X898334D01*
X899798Y472869D02*
X1281840D01*
X898334Y474334D02*
X899798Y472869D01*
X859231Y512481D02*
X860187D01*
X898334Y474334D01*
X1452826Y1015726D02*
X1453400Y1016300D01*
X1450819Y1015726D02*
X1452826D01*
X1450143Y1015050D02*
X1450819Y1015726D01*
X1406100Y999271D02*
X1421879Y1015050D01*
X1450143D01*
X1406100Y604200D02*
Y999271D01*
X1279769Y477869D02*
X1406100Y604200D01*
X901869Y477869D02*
X1279769D01*
X863723Y516016D02*
X901869Y477869D01*
X862303Y518391D02*
X863723Y516972D01*
X862303Y518391D02*
Y519203D01*
X863723Y516016D02*
Y516972D01*
X1532700Y398500D02*
Y494100D01*
X1492900Y472800D02*
X1493100Y472600D01*
X750485Y412042D02*
Y468419D01*
X720384Y392736D02*
Y459516D01*
X736233Y390828D02*
Y463739D01*
X742872Y402217D02*
Y468308D01*
X758057Y468094D02*
X758203Y468240D01*
X758057Y418359D02*
Y468094D01*
X190900Y462086D02*
X191401Y462587D01*
X172924Y457362D02*
X183648Y468086D01*
X765598Y477971D02*
X765699Y477869D01*
X765598Y477971D02*
Y482374D01*
X753987Y493985D02*
X765598Y482374D01*
X768265Y509519D02*
Y527481D01*
X757563Y498817D02*
X768265Y509519D01*
X1292900Y734700D02*
X1293100Y734500D01*
X1212300Y734700D02*
X1292900D01*
X1172500Y694900D02*
X1212300Y734700D01*
X1211962Y538938D02*
X1212100Y538800D01*
X1211962Y538938D02*
Y587638D01*
X1211825Y587775D02*
X1211962Y587638D01*
X1192307Y603459D02*
Y616093D01*
X1186300Y553800D02*
Y597451D01*
X1192307Y603459D01*
X1266600Y644444D02*
Y659100D01*
X1257656Y635500D02*
X1266600Y644444D01*
X889200Y673300D02*
X1041224D01*
X791590Y672822D02*
X792068Y673300D01*
X797700D01*
X802200Y667005D02*
Y668800D01*
X811200Y667005D02*
Y680039D01*
X820200Y667005D02*
Y680039D01*
X829200Y667005D02*
Y680039D01*
X838200Y667005D02*
Y680039D01*
X847200Y667005D02*
Y680039D01*
X856200Y667005D02*
Y680039D01*
X865200Y667005D02*
Y680039D01*
X874200Y667005D02*
Y680039D01*
X883200Y667005D02*
Y668800D01*
X887700Y673300D02*
X889200D01*
X763448Y644680D02*
X791590Y672822D01*
X886500Y652400D02*
X1043600D01*
X791946Y609500D02*
X843600D01*
X886500Y652400D01*
X1076536Y694900D02*
X1172500D01*
X1081000Y689800D02*
X1178800D01*
X1216500Y727500D01*
X1278100D01*
X1086200Y684300D02*
X1185700D01*
X1219100Y717700D02*
X1243100D01*
X1185700Y684300D02*
X1219100Y717700D01*
X1039641Y658005D02*
X1076536Y694900D01*
X1043600Y652400D02*
X1081000Y689800D01*
X1047100Y645200D02*
X1086200Y684300D01*
X847300Y604000D02*
X888500Y645200D01*
X1047100D01*
X1247700Y654500D02*
X1252626Y649574D01*
Y644674D02*
Y649574D01*
Y644674D02*
X1253200Y644100D01*
X1113700Y637500D02*
X1173700D01*
X1190700Y654500D02*
X1247700D01*
X1173700Y637500D02*
X1190700Y654500D01*
X739700Y542200D02*
X1085400D01*
X1098000Y554800D02*
Y621800D01*
X1113700Y637500D01*
X1085400Y542200D02*
X1098000Y554800D01*
X1046912Y740100D02*
X1057995D01*
X1042412Y744600D02*
Y744665D01*
X1033412Y731900D02*
Y744665D01*
X1024412Y731900D02*
Y744665D01*
X1015412Y731900D02*
Y744665D01*
X1006412Y731900D02*
Y744665D01*
X997412Y731900D02*
Y744665D01*
X988412Y731900D02*
Y744665D01*
X979412Y731900D02*
Y744665D01*
X970412Y731900D02*
Y744665D01*
X961412Y744600D02*
Y744665D01*
X955412Y740100D02*
X956912D01*
X1057995D02*
X1162200D01*
X740929Y536200D02*
X1099600D01*
X1107932Y544532D02*
Y562024D01*
X1099600Y536200D02*
X1107932Y544532D01*
X1150895Y756200D02*
X1164901D01*
X1146395Y760700D02*
Y762436D01*
X1137395Y750258D02*
Y762436D01*
X1128395Y750258D02*
Y762436D01*
X1119395Y750258D02*
Y762436D01*
X1110395Y750258D02*
Y762436D01*
X1101395Y750258D02*
Y762436D01*
X1092395Y750258D02*
Y762436D01*
X1083395Y750258D02*
Y762436D01*
X1074395Y750258D02*
Y762436D01*
X1065395Y760700D02*
Y762436D01*
X1059395Y756200D02*
X1060895D01*
X1164901D02*
X1183718D01*
X1167172Y722600D02*
Y735128D01*
X1162200Y740100D02*
X1167172Y735128D01*
X1050291Y780900D02*
X1064549D01*
X1045791Y785400D02*
Y789100D01*
X1036791Y772889D02*
Y789100D01*
X1027791Y772889D02*
Y789100D01*
X1018791Y772889D02*
Y789100D01*
X1009791Y772889D02*
Y789100D01*
X1000791Y772889D02*
Y789100D01*
X991791Y772889D02*
Y789100D01*
X982791Y772889D02*
Y789100D01*
X973791Y772889D02*
Y789100D01*
X964791Y772889D02*
Y789100D01*
X955791Y772889D02*
Y789100D01*
X946791Y785400D02*
Y789100D01*
X940791Y780900D02*
X942291D01*
X1064549D02*
X1188300D01*
X849500D02*
X940791D01*
X1198000Y759200D02*
Y771200D01*
X1188300Y780900D02*
X1198000Y771200D01*
X932700Y756200D02*
X941597D01*
X928200Y760700D02*
Y765081D01*
X919200Y749100D02*
Y765081D01*
X910200Y749100D02*
Y765081D01*
X901200Y749100D02*
Y765081D01*
X892200Y749100D02*
Y765081D01*
X883200Y760700D02*
Y765081D01*
X877200Y756200D02*
X878700D01*
X941597D02*
X1059395D01*
X835300D02*
X877200D01*
X763843Y684743D02*
X835300Y756200D01*
X829000Y740100D02*
X955412D01*
X762200Y673300D02*
X829000Y740100D01*
X800052Y691152D02*
X952228D01*
X1007728D02*
X1021865D01*
X1003228Y695652D02*
Y699940D01*
X994228Y683484D02*
Y699940D01*
X985228Y683484D02*
Y700217D01*
X976228Y683484D02*
Y700217D01*
X967228Y683484D02*
Y700217D01*
X958228Y695652D02*
Y700217D01*
X952228Y691152D02*
X953728D01*
X1021865D02*
X1045352D01*
X836035Y722900D02*
X845429D01*
X849929Y727400D02*
Y728800D01*
X858929Y714926D02*
Y728800D01*
X867929Y714926D02*
Y728800D01*
X876929Y714926D02*
Y728800D01*
X885929Y714926D02*
Y728800D01*
X894929Y714926D02*
Y728800D01*
X903929Y714926D02*
Y728800D01*
X912929Y714926D02*
Y728800D01*
X921929Y714926D02*
Y728800D01*
X930929Y714926D02*
Y728800D01*
X939929Y714926D02*
Y718400D01*
X944429Y722900D02*
X945929D01*
X820600D02*
X836035D01*
X635464Y700536D02*
X676000Y660000D01*
X757700D01*
X820600Y722900D01*
X1088600Y671600D02*
X1144172D01*
X968682Y627200D02*
X1044200D01*
X1088600Y671600D01*
X760600Y651700D02*
X800052Y691152D01*
X1041224Y673300D02*
X1078024Y710100D01*
X1159172D01*
X790759Y604000D02*
X847300D01*
X889400Y627200D02*
X903163D01*
X913182D01*
X917682Y622465D02*
Y622700D01*
X926682Y622465D02*
Y635226D01*
X935682Y620863D02*
Y635226D01*
X944682Y620863D02*
Y635226D01*
X953682Y620863D02*
Y635226D01*
X962682Y620863D02*
Y622700D01*
X967182Y627200D02*
X968682D01*
X892200Y609900D02*
X931349D01*
X969527D01*
X974026Y605400D02*
Y605400D01*
X983027Y605400D02*
Y615283D01*
X992026Y602700D02*
Y615283D01*
X1001026Y602700D02*
Y615362D01*
X1010026Y602700D02*
Y615362D01*
X1019026Y602700D02*
Y605400D01*
X1023526Y609900D02*
X1025026D01*
X1036568D01*
X834743Y572543D02*
X889400Y627200D01*
X733257Y572543D02*
X834743D01*
X848700Y566400D02*
X892200Y609900D01*
X1036568D02*
X1092268Y665600D01*
X1151300D01*
X896575Y593700D02*
X1033200D01*
X862735Y559860D02*
X896575Y593700D01*
X1033200D02*
X1098200Y658700D01*
X1172300D01*
X722998Y559860D02*
X862735D01*
X987640Y576076D02*
X1000386D01*
X983140Y570121D02*
Y571576D01*
X974140Y570121D02*
Y582123D01*
X965140Y570121D02*
Y582123D01*
X956140Y570121D02*
Y582123D01*
X947140Y570121D02*
Y582123D01*
X938140Y570121D02*
Y582123D01*
X929140Y580576D02*
Y582123D01*
X923140Y576076D02*
X924640D01*
X1000386D02*
X1072676D01*
X895176D02*
X923140D01*
X1105810Y652700D02*
X1177100D01*
X872860Y553760D02*
X895176Y576076D01*
X1080200Y583600D02*
Y627090D01*
X1105810Y652700D01*
X1072676Y576076D02*
X1080200Y583600D01*
X717900Y520400D02*
X739700Y542200D01*
X1077700Y556800D02*
X1085308Y564408D01*
X1061100Y556800D02*
X1077700D01*
X1056600Y561300D02*
Y566885D01*
X1047600Y552015D02*
Y566885D01*
X1038600Y552015D02*
Y566885D01*
X1029600Y561300D02*
Y566885D01*
X1023600Y556800D02*
X1025100D01*
X1085308Y564408D02*
X1087800Y566900D01*
X888100Y556800D02*
X1023600D01*
X736663Y548500D02*
X879800D01*
X888100Y556800D01*
X1087800Y566900D02*
Y626345D01*
X1106955Y645500D02*
X1169600D01*
X1087800Y626345D02*
X1106955Y645500D01*
X715054Y526891D02*
X736663Y548500D01*
X1107932Y590524D02*
Y608878D01*
X1112432Y586024D02*
X1117808D01*
X1112432Y577024D02*
X1117808D01*
X1107932Y562024D02*
Y572524D01*
Y608878D02*
Y617732D01*
X720740Y574660D02*
X729000Y566400D01*
X848700D01*
X724979Y580821D02*
X733257Y572543D01*
X1107932Y617732D02*
X1118400Y628200D01*
X1171749D01*
X759343Y690743D02*
X849500Y780900D01*
X1127700Y620000D02*
X1128197Y620497D01*
X1173997D01*
X1120900Y613300D02*
X1121100Y613100D01*
X1177048D01*
X1138172Y535028D02*
X1143400Y529800D01*
X1176900D01*
X1138172Y535028D02*
Y606700D01*
X1151300Y665600D02*
X1151400Y665700D01*
X1172300Y658700D02*
X1222400Y708800D01*
X1284172D01*
X1177100Y652700D02*
X1182800Y658400D01*
X1169600Y645500D02*
X1169900Y645800D01*
X1171749Y628200D02*
X1187349Y643800D01*
X1177048Y613100D02*
X1190648Y626700D01*
X1173997Y620497D02*
X1189000Y635500D01*
X1163136Y606664D02*
X1163172Y606700D01*
X1163136Y592336D02*
Y606664D01*
X1163100Y592300D02*
X1163136Y592336D01*
X1239078Y619706D02*
X1239172Y619800D01*
X1225434Y601643D02*
X1239078Y615287D01*
X1202357Y601643D02*
X1225434D01*
X1239078Y615287D02*
Y619706D01*
X729929Y553760D02*
X872860D01*
X755798Y684743D02*
X763843D01*
X750368Y690743D02*
X759343D01*
X1259564Y626700D02*
X1272900Y640036D01*
Y673900D01*
X1189000Y635500D02*
X1257656D01*
X1187349Y643800D02*
X1245000D01*
X1190648Y626700D02*
X1259564D01*
X1202600Y530200D02*
Y575900D01*
X1203000Y576300D01*
X1202200Y529800D02*
X1202600Y530200D01*
X641023Y731062D02*
X641464Y730621D01*
Y704863D02*
X673027Y673300D01*
X641464Y704863D02*
Y730621D01*
X635464Y700536D02*
Y721791D01*
X673027Y673300D02*
X762200D01*
X675404Y651700D02*
X760600D01*
X746000Y620400D02*
X781046D01*
X741558Y615958D02*
X746000Y620400D01*
X677326Y615958D02*
X741558D01*
X748600Y615700D02*
X779059D01*
X741225Y608325D02*
X748600Y615700D01*
X676172Y608325D02*
X741225D01*
X779059Y615700D02*
X790759Y604000D01*
X781046Y620400D02*
X791946Y609500D01*
X685029Y684981D02*
X685056Y685008D01*
X682400Y677800D02*
X685029Y680429D01*
Y684981D01*
X674891Y677800D02*
X682400D01*
X648457Y704234D02*
X674891Y677800D01*
X615827Y711277D02*
X675404Y651700D01*
X651735Y580821D02*
X724979D01*
X649494Y574660D02*
X720740D01*
X611521Y520400D02*
X717900D01*
X717729Y513000D02*
X740929Y536200D01*
X616712Y513000D02*
X717729D01*
X654914Y903600D02*
Y905100D01*
X641414Y899100D02*
X650414D01*
X636914Y871165D02*
Y894600D01*
X645914Y871165D02*
Y885600D01*
X654914Y836723D02*
Y885600D01*
Y769850D02*
Y836723D01*
Y905100D02*
Y918676D01*
X651600Y921990D02*
X654914Y918676D01*
X624950Y921990D02*
X651600D01*
X621493Y847327D02*
Y918533D01*
X624950Y921990D01*
X603267Y707910D02*
X677427Y633750D01*
X800858D01*
X806321Y628287D01*
X551821Y672333D02*
X649494Y574660D01*
X551821Y672333D02*
Y681805D01*
X615357Y732205D02*
X615827Y731735D01*
Y711277D02*
Y731735D01*
X703719Y540581D02*
X722998Y559860D01*
X709108Y532939D02*
X729929Y553760D01*
X609827Y709402D02*
X674549Y644680D01*
X763448D01*
X449909Y640292D02*
X450970Y639231D01*
X482958Y607243D01*
X482958Y607243D01*
X476595Y600879D02*
X476595Y600879D01*
X447788Y629685D02*
X476595Y600879D01*
X447788Y629685D02*
X447788Y629685D01*
X441424Y623321D02*
X441424Y623321D01*
X441424Y623321D02*
X476595Y588151D01*
X482955Y588147D02*
X489326Y594518D01*
X495676Y594525D02*
X495686Y594515D01*
X496747Y593454D01*
X466579Y661802D02*
Y668666D01*
Y661802D02*
X483262Y645119D01*
X483262Y645119D01*
X483217Y638710D02*
X483262Y638755D01*
X483217Y638710D02*
Y638710D01*
Y632346D02*
X483217Y632346D01*
X483217D02*
X483217Y632346D01*
X483217Y632346D02*
X483217Y632346D01*
X489581Y632346D02*
X495317Y638082D01*
Y638082D01*
X501681D02*
X501681Y638082D01*
X495945Y625983D02*
X501681Y631718D01*
X495945Y625983D02*
Y625983D01*
Y619618D02*
X495945Y619618D01*
X495945D02*
X495945Y619618D01*
X495945Y619618D02*
X495945Y619618D01*
X502309Y619618D02*
X502354Y619663D01*
X508718D02*
X508718Y619663D01*
X508718Y619663D02*
X508718Y619663D01*
X509779Y618602D01*
X478606Y731416D02*
Y821760D01*
X469606Y731416D02*
Y815760D01*
X460606Y722416D02*
Y815760D01*
X465106Y717916D02*
X474106D01*
X478606Y711916D02*
Y713416D01*
X681340Y625456D02*
X684322D01*
X687188Y628323D01*
X689728D01*
X696380Y621671D01*
X698920D01*
X705572Y628323D01*
X708112D01*
X714764Y621671D01*
X717304D01*
X723956Y628323D01*
X726496D01*
X733148Y621671D01*
X735688D01*
X739473Y625456D01*
X740973D01*
X382804Y684409D02*
Y685909D01*
Y684409D02*
X382804Y671124D01*
X384119Y667945D02*
X413467Y638597D01*
X413467Y638597D01*
X419831Y644961D02*
X419831Y644961D01*
X407597Y657195D02*
X419831Y644961D01*
X407597Y657195D02*
X407598Y657195D01*
X407597Y663558D02*
X407598Y663559D01*
X413961Y663558D02*
X413961Y663559D01*
X413961Y663558D02*
X432568Y644951D01*
X426191Y632230D02*
X432562Y638601D01*
X426195Y625869D02*
X427255Y624809D01*
X526903Y720718D02*
Y781008D01*
X535903Y720718D02*
Y775008D01*
X544903Y711718D02*
Y775008D01*
X531403Y707218D02*
X540403D01*
X526903Y701218D02*
Y702718D01*
X519859Y749004D02*
Y750504D01*
X519859Y685258D02*
X519859Y749004D01*
X521174Y682079D02*
X528743Y674510D01*
X528743Y674510D01*
X522379Y668146D02*
X522379Y668146D01*
X512174Y678352D02*
X522379Y668146D01*
X510859Y681530D02*
Y713806D01*
X501859Y677802D02*
Y713806D01*
X503174Y674624D02*
X522379Y655418D01*
X528740Y655415D02*
X535110Y661786D01*
X541460Y661793D02*
X541471Y661782D01*
X542532Y660721D01*
X532238Y871909D02*
X533738D01*
X538238Y876409D02*
Y885409D01*
X542738Y889909D02*
X580645D01*
X583823Y888595D02*
X592617Y879801D01*
X580095Y879595D02*
X586253Y873437D01*
X551738Y880909D02*
X576917D01*
X551738Y871909D02*
X573189D01*
X576367Y870595D02*
X586494Y860468D01*
X586501Y860461D02*
X589676Y857286D01*
X590737Y856225D01*
X489751Y739903D02*
Y822034D01*
X498751Y739903D02*
Y797001D01*
X507751Y730903D02*
Y797001D01*
X494251Y726403D02*
X503251D01*
X489751Y720403D02*
Y721903D01*
X606676Y832484D02*
Y833984D01*
X611176Y827984D02*
X638176D01*
X642676Y785564D02*
Y823484D01*
X633320Y774345D02*
X641361Y782386D01*
X633320Y774345D02*
X633320D01*
X626956D02*
X626956Y774345D01*
X626956Y780709D02*
X632361Y786114D01*
X633676Y789292D02*
Y800029D01*
X624676Y793020D02*
Y800029D01*
X607284Y773764D02*
X623361Y789842D01*
X605969Y766097D02*
Y770585D01*
X596969Y766097D02*
Y774313D01*
X598284Y777492D02*
X614361Y793570D01*
X615676Y796748D02*
Y814484D01*
X606676Y800476D02*
Y814484D01*
X589284Y781220D02*
X605362Y797298D01*
X587969Y755597D02*
Y778041D01*
X670339Y760560D02*
Y824597D01*
X679339Y766560D02*
Y824597D01*
X688339Y766560D02*
Y833597D01*
X674839Y838097D02*
X683839D01*
X670339Y842597D02*
Y844097D01*
X547775Y901416D02*
X571896D01*
X553775Y910416D02*
X571896D01*
X553775Y919416D02*
X580896D01*
X585396Y905916D02*
Y914916D01*
X589896Y901416D02*
X591396D01*
X646851Y1002224D02*
X681515D01*
X646851Y993224D02*
X661183D01*
X637851Y984224D02*
X661183D01*
X633351Y988724D02*
Y997724D01*
X627351Y1002224D02*
X628851D01*
X694845Y842693D02*
Y903003D01*
X685845Y862271D02*
Y903003D01*
X676845Y862271D02*
Y912003D01*
X681345Y916503D02*
X690345D01*
X694845Y921003D02*
Y922503D01*
X496450Y894789D02*
X522885Y921224D01*
X529249Y914860D02*
X529249D01*
X511409Y897020D02*
X529249Y914860D01*
X517773Y890656D02*
X517773D01*
X517773D02*
X541980Y914863D01*
X535609Y927591D02*
X541977Y921224D01*
X535609Y933948D02*
X544222Y942561D01*
X547401Y943876D02*
X566082D01*
X562515Y934876D02*
X566082D01*
X562515Y925876D02*
X575082D01*
X579582Y930376D02*
Y939376D01*
X584082Y943876D02*
X585582D01*
X715755Y870886D02*
Y896671D01*
X724755Y886779D02*
Y896671D01*
X733755Y886779D02*
Y905671D01*
X720255Y910171D02*
X729255D01*
X715755Y914671D02*
Y916171D01*
X777446Y892107D02*
Y952227D01*
X768446Y927417D02*
Y952227D01*
X759446Y927417D02*
Y961227D01*
X763946Y965727D02*
X772946D01*
X777446Y970227D02*
Y971727D01*
X701667Y774573D02*
Y827246D01*
X710667Y780573D02*
Y827246D01*
X719667Y780573D02*
Y836246D01*
X706167Y840746D02*
X715167D01*
X701667Y845246D02*
Y846746D01*
X739330Y944478D02*
Y994065D01*
X730330Y944478D02*
Y977168D01*
X721330Y935478D02*
Y977168D01*
X725830Y930978D02*
X734830D01*
X739330Y924978D02*
Y926478D01*
X753443Y811850D02*
Y870909D01*
X762443Y831742D02*
Y870909D01*
X771443Y831742D02*
Y879909D01*
X757943Y884409D02*
X766943D01*
X753443Y888909D02*
Y890409D01*
X699894Y691244D02*
X731954Y723304D01*
X701567Y701376D02*
X724856Y724665D01*
X691366Y691244D02*
X699894D01*
X717512Y862651D02*
X730197D01*
X724856Y724665D02*
Y850274D01*
X731954Y723304D02*
Y860894D01*
X722193Y852937D02*
X724856Y850274D01*
X730197Y862651D02*
X731954Y860894D01*
X694845Y756364D02*
Y842693D01*
X701667Y750361D02*
Y774573D01*
X777446Y813826D02*
Y892107D01*
X715755Y864408D02*
Y870886D01*
Y864408D02*
X717512Y862651D01*
X701667Y846746D02*
Y868770D01*
X708621Y854694D02*
X710378Y852937D01*
X722193D01*
X763039Y799419D02*
X777446Y813826D01*
X739330Y805263D02*
Y924978D01*
Y805263D02*
X744325Y800268D01*
X753443Y799419D02*
Y811850D01*
X691495Y965484D02*
X701667Y955312D01*
Y940571D02*
Y955312D01*
Y868770D02*
Y940571D01*
X694845Y922503D02*
Y943027D01*
X468606Y920337D02*
X508416D01*
X494506Y902496D02*
X501461Y909451D01*
X458332Y929510D02*
X510230D01*
X473228Y902496D02*
X494506D01*
X474388Y892226D02*
X493887D01*
X475566Y913483D02*
X493296D01*
X483716Y966356D02*
X689380D01*
X468202Y950612D02*
X654389D01*
X476834Y957946D02*
X679926D01*
X656504Y949740D02*
X669461Y936783D01*
X585582Y943876D02*
X650547D01*
X664452Y929971D01*
X453699Y981081D02*
Y998419D01*
X469814D02*
X506786D01*
X462191Y987881D02*
Y1005419D01*
Y987881D02*
X483716Y966356D01*
X477533Y1005419D02*
X483473Y1011359D01*
X453699Y981081D02*
X476834Y957946D01*
X506786Y998419D02*
X523456Y981749D01*
X682041Y957074D02*
X693967Y945148D01*
X475281Y882974D02*
X528009D01*
X483473Y1011359D02*
X695390D01*
X681515Y1002224D02*
X689832D01*
X611629D02*
X627351D01*
X744529Y1038740D02*
X777446Y1005823D01*
X591396Y901416D02*
X596628D01*
X600299Y897745D01*
X523456Y981749D02*
X591154D01*
X611629Y1002224D01*
X689832D02*
X708621Y983435D01*
X529766Y895364D02*
X535818Y901416D01*
X547775D01*
X648457Y740832D02*
X664452Y756827D01*
X670630Y732149D02*
X694845Y756364D01*
X637334Y752270D02*
X654914Y769850D01*
X656277Y738345D02*
X669461Y751529D01*
X670339Y753649D02*
Y760560D01*
X680027Y691744D02*
Y696029D01*
X679866Y691583D02*
X680027Y691744D01*
Y696029D02*
X685374Y701376D01*
X608374Y752270D02*
X637334D01*
X587969Y749044D02*
X597429Y739584D01*
X587969Y749044D02*
Y755597D01*
X603267Y747163D02*
X608374Y752270D01*
X580818Y783039D02*
X600299Y802520D01*
X526903Y788785D02*
X557191Y819073D01*
X580818Y691622D02*
Y783039D01*
X519859Y789855D02*
X565841Y835837D01*
X519859Y750504D02*
Y789855D01*
X526903Y781008D02*
Y788785D01*
X514492Y841500D02*
Y851442D01*
X590737Y856225D02*
X595799Y851163D01*
X557191Y819073D02*
X582083D01*
X570124Y794825D02*
X590465Y815166D01*
X575483Y792808D02*
X595799Y813124D01*
Y851163D01*
X562633Y864177D02*
X590465Y836345D01*
X565841Y835837D02*
X581321D01*
X590465Y815166D02*
Y836345D01*
X606676Y833984D02*
Y847700D01*
X575483Y678503D02*
Y792808D01*
X570124Y673020D02*
Y794825D01*
X600299Y802520D02*
Y897745D01*
X489751Y673905D02*
X517297Y646359D01*
X489751Y673905D02*
Y720403D01*
Y822034D02*
Y824973D01*
X511094Y854840D02*
X514492Y851442D01*
X529766Y884731D02*
Y895364D01*
X489751Y824973D02*
X502757Y837979D01*
X528009Y882974D02*
X529766Y884731D01*
X493887Y892226D02*
X496450Y894789D01*
X497247Y854840D02*
X511094D01*
X685374Y701376D02*
X701567D01*
X526903Y684517D02*
X642432Y568988D01*
X605886Y687398D02*
X677326Y615958D01*
X559363Y673193D02*
X651735Y580821D01*
X570124Y673020D02*
X655465Y587679D01*
X642432Y568988D02*
X654919D01*
X542532Y660721D02*
X639684Y563569D01*
X570544Y624352D02*
X642073Y552823D01*
X590681Y693816D02*
X676172Y608325D01*
X580818Y691622D02*
X669963Y602477D01*
X575483Y678503D02*
X659449Y594537D01*
X496747Y593454D02*
X502870Y587331D01*
X655465Y587679D02*
X766487D01*
X654919Y568988D02*
X665438Y558469D01*
X650451Y552823D02*
X650468Y552806D01*
X644129Y540581D02*
X703719D01*
X652675Y563569D02*
X663699Y552545D01*
X685969Y558469D02*
X686477Y558977D01*
X663699Y552545D02*
X694777D01*
X665438Y558469D02*
X685969D01*
X659449Y594537D02*
X762931D01*
X584417Y532939D02*
X709108D01*
X558485Y526891D02*
X715054D01*
X596077Y588633D02*
X644129Y540581D01*
X639684Y563569D02*
X652675D01*
X642073Y552823D02*
X650451D01*
X806321Y626227D02*
X806895Y625653D01*
X806321Y626227D02*
Y628287D01*
X794896Y625456D02*
X800329Y620023D01*
X740973Y625456D02*
X794896D01*
X558230Y527146D02*
X558485Y526891D01*
X584369Y532891D02*
X584417Y532939D01*
X611626Y556821D02*
X612165Y556282D01*
X608097Y556821D02*
X611626D01*
X553576Y587331D02*
X557499Y583408D01*
X558311D01*
X560218Y594858D02*
X604698Y550378D01*
X552102Y612816D02*
X608097Y556821D01*
X508638Y594858D02*
X560218D01*
X502870Y587331D02*
X553576D01*
X510971Y837979D02*
X514492Y841500D01*
X502757Y837979D02*
X510971D01*
X509779Y618602D02*
X515565Y612816D01*
X767369Y598975D02*
Y608101D01*
X766487Y587679D02*
X766995Y588187D01*
X758801Y602477D02*
X759375Y601903D01*
X762931Y594537D02*
X767369Y598975D01*
X669963Y602477D02*
X758801D01*
X677544Y625456D02*
X681340D01*
X478606Y667521D02*
Y711916D01*
X450537Y704324D02*
X456395Y698466D01*
X454272Y711422D02*
X463809D01*
X466579Y708652D01*
X449546Y716148D02*
X454272Y711422D01*
X466579Y668666D02*
Y708652D01*
X480779Y872147D02*
X481017Y871909D01*
X453689Y882957D02*
X473228Y902496D01*
X442497Y880415D02*
X475566Y913483D01*
X461687Y879525D02*
X474388Y892226D01*
X470064Y877757D02*
X475281Y882974D01*
X478084Y872721D02*
X478658Y872147D01*
X480779D01*
X407114Y825023D02*
Y878292D01*
X432407Y838913D02*
X449546Y821774D01*
X411748Y820389D02*
X432808D01*
X407114Y825023D02*
X411748Y820389D01*
X442497Y847405D02*
X450788Y839115D01*
X432407Y838913D02*
Y884138D01*
X432808Y820389D02*
X435915Y817282D01*
X442497Y847405D02*
Y880415D01*
X453689Y867437D02*
X456949Y864177D01*
X453689Y867437D02*
Y882957D01*
X461687Y873211D02*
Y879525D01*
Y873211D02*
X461912Y872986D01*
X439624Y704324D02*
X450537D01*
X456395Y647101D02*
Y698466D01*
X435915Y708033D02*
Y817282D01*
X478606Y821760D02*
Y821837D01*
X438714Y705234D02*
X439624Y704324D01*
X449546Y716148D02*
Y821774D01*
X435915Y708033D02*
X438714Y705234D01*
X670339Y844097D02*
Y934662D01*
X566268Y1038740D02*
X744529D01*
X777446Y971727D02*
Y1005823D01*
X753443Y890409D02*
Y1007642D01*
X718127Y1025118D02*
X739330Y1003915D01*
X695390Y1011359D02*
X715755Y990994D01*
X728724Y1032361D02*
X753443Y1007642D01*
X739330Y994065D02*
Y1003915D01*
X708621Y854694D02*
Y983435D01*
X715755Y916171D02*
Y990994D01*
X450788Y839115D02*
X481522D01*
X497247Y854840D01*
X407114Y878292D02*
X458332Y929510D01*
X478606Y821837D02*
X501922Y845153D01*
X432407Y884138D02*
X468606Y920337D01*
X438067Y992989D02*
Y998419D01*
X445939Y972875D02*
X468202Y950612D01*
X456949Y864177D02*
X562633D01*
X481017Y871909D02*
X532238D01*
X396354Y951276D02*
X438067Y992989D01*
X382804Y968157D02*
X420066Y1005419D01*
X445939Y1005185D02*
X446173Y1005419D01*
X445939Y972875D02*
Y1005185D01*
X559094Y1032361D02*
X728724D01*
X524090Y1025118D02*
X718127D01*
X420066Y1005419D02*
X429672D01*
X655405Y724202D02*
Y736230D01*
X648457Y704234D02*
Y740832D01*
X655347Y724144D02*
X655405Y724202D01*
X526903Y684517D02*
Y701218D01*
X551071Y692621D02*
X559363Y684329D01*
X551071Y692621D02*
Y692995D01*
X603267Y707910D02*
Y747163D01*
X590681Y693816D02*
Y723099D01*
X597429Y705571D02*
Y739584D01*
X590465Y723315D02*
X590681Y723099D01*
X609827Y709402D02*
Y725730D01*
X559363Y673193D02*
Y684329D01*
X515565Y612816D02*
X552102D01*
X521775Y624352D02*
X570544D01*
X517297Y646359D02*
X546363D01*
X597429Y705571D02*
X677544Y625456D01*
X664452Y756827D02*
Y929971D01*
X678022Y726716D02*
X701667Y750361D01*
X456395Y647101D02*
X508638Y594858D01*
X474291Y577773D02*
X550587D01*
X478606Y667521D02*
X521775Y624352D01*
X427255Y624809D02*
X474291Y577773D01*
X396354Y693847D02*
X449909Y640292D01*
X382804Y685909D02*
Y968157D01*
X396354Y693847D02*
Y951276D01*
D16*
X655771Y474720D02*
X655783Y474731D01*
X708476D01*
X708488Y474743D01*
X568900Y448600D02*
X583009Y434491D01*
X568900Y448600D02*
Y460600D01*
X583009Y434491D02*
X596409D01*
X596600Y434300D02*
X631100D01*
X655771Y458971D02*
Y474720D01*
X631100Y434300D02*
X655771Y458971D01*
X596409Y434491D02*
X596600Y434300D01*
D17*
X174200Y472300D02*
X181852D01*
X181887Y472336D01*
X164100Y462200D02*
X174200Y472300D01*
X482236Y472336D02*
X549735Y539835D01*
X181887Y472336D02*
X482236D01*
X549735Y539835D02*
X622660D01*
X164100Y440278D02*
Y462200D01*
Y440278D02*
X173178Y431200D01*
X625771Y542946D02*
Y550808D01*
X598366Y578212D02*
X625771Y550808D01*
X598012Y578212D02*
X598366D01*
X622660Y539835D02*
X625771Y542946D01*
D18*
X1583891Y987660D02*
D03*
Y1036660D02*
D03*
D19*
X1638391Y936160D02*
D03*
X1577391D02*
D03*
X1638391Y1088160D02*
D03*
X1577391D02*
D03*
D20*
X1619000Y625000D02*
D03*
X50000D02*
D03*
X835000Y50000D02*
D03*
Y1199600D02*
D03*
X1619000D02*
D03*
Y50000D02*
D03*
X50000D02*
D03*
Y1199600D02*
D03*
D21*
X1619000Y648250D02*
D03*
X1595750Y625000D02*
D03*
X1619000Y602140D02*
D03*
X1642250Y625000D02*
D03*
X1635440Y641440D02*
D03*
X1602560Y608560D02*
D03*
X1635440D02*
D03*
X1602560Y641440D02*
D03*
X50000Y648250D02*
D03*
X26750Y625000D02*
D03*
X50000Y602140D02*
D03*
X73250Y625000D02*
D03*
X66440Y641440D02*
D03*
X33560Y608560D02*
D03*
X66440D02*
D03*
X33560Y641440D02*
D03*
X835000Y73250D02*
D03*
X811750Y50000D02*
D03*
X835000Y27140D02*
D03*
X858250Y50000D02*
D03*
X851440Y66440D02*
D03*
X818560Y33560D02*
D03*
X851440D02*
D03*
X818560Y66440D02*
D03*
X835000Y1222850D02*
D03*
X811750Y1199600D02*
D03*
X835000Y1176740D02*
D03*
X858250Y1199600D02*
D03*
X851440Y1216040D02*
D03*
X818560Y1183160D02*
D03*
X851440D02*
D03*
X818560Y1216040D02*
D03*
X1620950Y479595D02*
D03*
Y399795D02*
D03*
X1619000Y1222850D02*
D03*
X1595750Y1199600D02*
D03*
X1619000Y1176740D02*
D03*
X1642250Y1199600D02*
D03*
X1635440Y1216040D02*
D03*
X1602560Y1183160D02*
D03*
X1635440D02*
D03*
X1602560Y1216040D02*
D03*
X33560Y66440D02*
D03*
X66440Y33560D02*
D03*
X33560D02*
D03*
X66440Y66440D02*
D03*
X73250Y50000D02*
D03*
X50000Y27140D02*
D03*
X26750Y50000D02*
D03*
X50000Y73250D02*
D03*
X33560Y1216040D02*
D03*
X66440Y1183160D02*
D03*
X33560D02*
D03*
X66440Y1216040D02*
D03*
X73250Y1199600D02*
D03*
X50000Y1176740D02*
D03*
X26750Y1199600D02*
D03*
X50000Y1222850D02*
D03*
X1602560Y66440D02*
D03*
X1635440Y33560D02*
D03*
X1602560D02*
D03*
X1635440Y66440D02*
D03*
X1642250Y50000D02*
D03*
X1619000Y27140D02*
D03*
X1595750Y50000D02*
D03*
X1619000Y73250D02*
D03*
D22*
X570385Y83814D02*
D03*
X354485D02*
D03*
D23*
X1128500Y677600D02*
D03*
X1170400Y676800D02*
D03*
X1018734Y709103D02*
D03*
X1040734Y709003D02*
D03*
X455634Y847703D02*
D03*
X521754Y941160D02*
D03*
X426627Y948225D02*
D03*
X443583Y948112D02*
D03*
X423327Y927725D02*
D03*
X440283Y927612D02*
D03*
X434927Y938125D02*
D03*
X451883Y938012D02*
D03*
X643000Y856800D02*
D03*
X1647155Y1172170D02*
D03*
X1627155Y1132170D02*
D03*
Y1052170D02*
D03*
X1647155Y1012170D02*
D03*
X1627155Y972170D02*
D03*
Y892170D02*
D03*
X1647155Y852170D02*
D03*
X1627155Y812170D02*
D03*
X1647155Y772170D02*
D03*
X1627155Y732170D02*
D03*
X1647155Y692170D02*
D03*
X1627155Y572170D02*
D03*
X1647155Y532170D02*
D03*
X1627155Y492170D02*
D03*
X1647155Y452170D02*
D03*
X1627155Y412170D02*
D03*
X1647155Y372170D02*
D03*
X1627155Y332170D02*
D03*
X1647155Y292170D02*
D03*
X1627155Y252170D02*
D03*
X1647155Y212170D02*
D03*
X1627155Y172170D02*
D03*
X1647155Y132170D02*
D03*
X1627155Y92170D02*
D03*
Y12170D02*
D03*
X1587155Y1132170D02*
D03*
X1607155Y1092170D02*
D03*
X1587155Y1052170D02*
D03*
X1607155Y1012170D02*
D03*
X1587155Y972170D02*
D03*
X1607155Y932170D02*
D03*
X1587155Y892170D02*
D03*
X1607155Y852170D02*
D03*
X1587155Y812170D02*
D03*
X1607155Y772170D02*
D03*
X1587155Y732170D02*
D03*
X1607155Y692170D02*
D03*
X1587155Y652170D02*
D03*
Y572170D02*
D03*
X1607155Y532170D02*
D03*
X1587155Y492170D02*
D03*
X1607155Y452170D02*
D03*
X1587155Y412170D02*
D03*
X1607155Y372170D02*
D03*
X1587155Y332170D02*
D03*
X1607155Y292170D02*
D03*
X1587155Y252170D02*
D03*
X1607155Y212170D02*
D03*
X1587155Y172170D02*
D03*
X1607155Y132170D02*
D03*
X1587155Y92170D02*
D03*
Y12170D02*
D03*
X1547155Y1212170D02*
D03*
X1567155Y1172170D02*
D03*
X1547155Y892170D02*
D03*
X1567155Y852170D02*
D03*
X1547155Y812170D02*
D03*
X1567155Y772170D02*
D03*
X1547155Y732170D02*
D03*
X1567155Y692170D02*
D03*
X1547155Y652170D02*
D03*
X1567155Y612170D02*
D03*
X1547155Y572170D02*
D03*
X1567155Y532170D02*
D03*
X1547155Y492170D02*
D03*
X1567155Y452170D02*
D03*
X1547155Y412170D02*
D03*
X1567155Y372170D02*
D03*
X1547155Y332170D02*
D03*
X1567155Y292170D02*
D03*
X1547155Y252170D02*
D03*
X1567155Y212170D02*
D03*
X1547155Y172170D02*
D03*
X1567155Y132170D02*
D03*
X1547155Y92170D02*
D03*
X1567155Y52170D02*
D03*
X1547155Y12170D02*
D03*
X1507155Y1212170D02*
D03*
X1527155Y1172170D02*
D03*
X1507155Y972170D02*
D03*
X1527155Y932170D02*
D03*
X1507155Y892170D02*
D03*
X1527155Y852170D02*
D03*
X1507155Y812170D02*
D03*
X1527155Y772170D02*
D03*
X1507155Y732170D02*
D03*
X1527155Y692170D02*
D03*
X1507155Y652170D02*
D03*
X1527155Y612170D02*
D03*
X1507155Y572170D02*
D03*
X1527155Y532170D02*
D03*
Y372170D02*
D03*
X1507155Y332170D02*
D03*
X1527155Y292170D02*
D03*
X1507155Y252170D02*
D03*
X1527155Y212170D02*
D03*
X1507155Y172170D02*
D03*
X1527155Y132170D02*
D03*
X1507155Y92170D02*
D03*
X1527155Y52170D02*
D03*
X1507155Y12170D02*
D03*
X1467155Y1212170D02*
D03*
X1487155Y1172170D02*
D03*
X1467155Y1052170D02*
D03*
Y972170D02*
D03*
X1487155Y932170D02*
D03*
X1467155Y892170D02*
D03*
X1487155Y852170D02*
D03*
X1467155Y812170D02*
D03*
X1487155Y772170D02*
D03*
X1467155Y732170D02*
D03*
X1487155Y692170D02*
D03*
X1467155Y652170D02*
D03*
X1487155Y612170D02*
D03*
X1467155Y572170D02*
D03*
X1487155Y532170D02*
D03*
X1467155Y492170D02*
D03*
X1487155Y372170D02*
D03*
X1467155Y332170D02*
D03*
X1487155Y292170D02*
D03*
X1467155Y252170D02*
D03*
X1487155Y212170D02*
D03*
X1467155Y172170D02*
D03*
X1487155Y132170D02*
D03*
X1467155Y92170D02*
D03*
X1487155Y52170D02*
D03*
X1467155Y12170D02*
D03*
X1427155Y1212170D02*
D03*
X1447155Y1172170D02*
D03*
X1427155Y1052170D02*
D03*
Y972170D02*
D03*
X1447155Y932170D02*
D03*
X1427155Y892170D02*
D03*
X1447155Y852170D02*
D03*
X1427155Y812170D02*
D03*
X1447155Y772170D02*
D03*
X1427155Y732170D02*
D03*
X1447155Y692170D02*
D03*
X1427155Y652170D02*
D03*
X1447155Y612170D02*
D03*
X1427155Y572170D02*
D03*
X1447155Y532170D02*
D03*
X1427155Y492170D02*
D03*
Y332170D02*
D03*
X1447155Y292170D02*
D03*
X1427155Y252170D02*
D03*
X1447155Y212170D02*
D03*
X1427155Y172170D02*
D03*
X1447155Y132170D02*
D03*
X1427155Y92170D02*
D03*
X1447155Y52170D02*
D03*
X1427155Y12170D02*
D03*
X1387155Y1212170D02*
D03*
X1407155Y1172170D02*
D03*
X1387155Y1052170D02*
D03*
X1407155Y1012170D02*
D03*
X1387155Y972170D02*
D03*
Y892170D02*
D03*
Y812170D02*
D03*
Y732170D02*
D03*
X1407155Y532170D02*
D03*
Y452170D02*
D03*
X1387155Y332170D02*
D03*
X1407155Y292170D02*
D03*
X1387155Y252170D02*
D03*
X1407155Y212170D02*
D03*
X1387155Y172170D02*
D03*
X1407155Y132170D02*
D03*
X1387155Y92170D02*
D03*
X1407155Y52170D02*
D03*
X1387155Y12170D02*
D03*
X1347155Y1212170D02*
D03*
X1367155Y1172170D02*
D03*
X1347155Y1052170D02*
D03*
X1367155Y1012170D02*
D03*
X1347155Y972170D02*
D03*
X1367155Y932170D02*
D03*
X1347155Y892170D02*
D03*
X1367155Y852170D02*
D03*
X1347155Y812170D02*
D03*
X1367155Y772170D02*
D03*
Y692170D02*
D03*
Y612170D02*
D03*
Y532170D02*
D03*
Y452170D02*
D03*
Y292170D02*
D03*
X1347155Y252170D02*
D03*
Y172170D02*
D03*
X1367155Y132170D02*
D03*
X1347155Y92170D02*
D03*
X1367155Y52170D02*
D03*
X1347155Y12170D02*
D03*
X1307155Y1212170D02*
D03*
X1327155Y1172170D02*
D03*
X1307155Y1052170D02*
D03*
X1327155Y1012170D02*
D03*
X1307155Y972170D02*
D03*
X1327155Y932170D02*
D03*
X1307155Y892170D02*
D03*
X1327155Y852170D02*
D03*
X1307155Y812170D02*
D03*
X1327155Y292170D02*
D03*
X1307155Y252170D02*
D03*
Y172170D02*
D03*
X1327155Y132170D02*
D03*
X1307155Y92170D02*
D03*
X1327155Y52170D02*
D03*
X1307155Y12170D02*
D03*
X1267155Y1212170D02*
D03*
X1287155Y1172170D02*
D03*
X1267155Y1052170D02*
D03*
X1287155Y1012170D02*
D03*
X1267155Y972170D02*
D03*
X1287155Y932170D02*
D03*
X1267155Y892170D02*
D03*
X1287155Y852170D02*
D03*
X1267155Y812170D02*
D03*
Y492170D02*
D03*
X1287155Y452170D02*
D03*
Y292170D02*
D03*
X1267155Y252170D02*
D03*
Y172170D02*
D03*
X1287155Y132170D02*
D03*
X1267155Y92170D02*
D03*
X1287155Y52170D02*
D03*
X1267155Y12170D02*
D03*
X1227155Y1212170D02*
D03*
X1247155Y1172170D02*
D03*
Y1012170D02*
D03*
Y932170D02*
D03*
Y852170D02*
D03*
X1227155Y492170D02*
D03*
X1247155Y452170D02*
D03*
Y292170D02*
D03*
X1227155Y252170D02*
D03*
Y172170D02*
D03*
X1247155Y132170D02*
D03*
X1227155Y92170D02*
D03*
X1247155Y52170D02*
D03*
X1227155Y12170D02*
D03*
X1187155Y1212170D02*
D03*
X1207155Y1172170D02*
D03*
X1187155Y1052170D02*
D03*
X1207155Y1012170D02*
D03*
X1187155Y972170D02*
D03*
X1207155Y932170D02*
D03*
X1187155Y892170D02*
D03*
X1207155Y852170D02*
D03*
X1187155Y812170D02*
D03*
Y492170D02*
D03*
X1207155Y452170D02*
D03*
Y292170D02*
D03*
X1187155Y252170D02*
D03*
Y172170D02*
D03*
X1207155Y132170D02*
D03*
X1187155Y92170D02*
D03*
X1207155Y52170D02*
D03*
X1187155Y12170D02*
D03*
X1147155Y1212170D02*
D03*
X1167155Y1172170D02*
D03*
X1147155Y1052170D02*
D03*
X1167155Y1012170D02*
D03*
X1147155Y972170D02*
D03*
X1167155Y932170D02*
D03*
X1147155Y892170D02*
D03*
X1167155Y852170D02*
D03*
X1147155Y812170D02*
D03*
X1167155Y452170D02*
D03*
Y292170D02*
D03*
X1147155Y252170D02*
D03*
Y172170D02*
D03*
X1167155Y132170D02*
D03*
X1147155Y92170D02*
D03*
X1167155Y52170D02*
D03*
X1147155Y12170D02*
D03*
X1107155Y1212170D02*
D03*
X1127155Y1172170D02*
D03*
X1107155Y1052170D02*
D03*
X1127155Y1012170D02*
D03*
X1107155Y972170D02*
D03*
X1127155Y932170D02*
D03*
X1107155Y892170D02*
D03*
X1127155Y852170D02*
D03*
X1107155Y812170D02*
D03*
X1127155Y292170D02*
D03*
X1107155Y252170D02*
D03*
Y172170D02*
D03*
X1127155Y132170D02*
D03*
X1107155Y92170D02*
D03*
X1127155Y52170D02*
D03*
X1107155Y12170D02*
D03*
X1067155Y1212170D02*
D03*
X1087155Y1172170D02*
D03*
X1067155Y1052170D02*
D03*
X1087155Y1012170D02*
D03*
X1067155Y972170D02*
D03*
X1087155Y932170D02*
D03*
X1067155Y892170D02*
D03*
X1087155Y852170D02*
D03*
X1067155Y812170D02*
D03*
X1087155Y292170D02*
D03*
X1067155Y252170D02*
D03*
Y172170D02*
D03*
X1087155Y132170D02*
D03*
X1067155Y92170D02*
D03*
X1087155Y52170D02*
D03*
X1067155Y12170D02*
D03*
X1027155Y1212170D02*
D03*
X1047155Y1172170D02*
D03*
X1027155Y1052170D02*
D03*
X1047155Y1012170D02*
D03*
X1027155Y972170D02*
D03*
X1047155Y932170D02*
D03*
X1027155Y892170D02*
D03*
X1047155Y852170D02*
D03*
X1027155Y812170D02*
D03*
X1047155Y292170D02*
D03*
X1027155Y252170D02*
D03*
X1047155Y212170D02*
D03*
X1027155Y172170D02*
D03*
X1047155Y132170D02*
D03*
X1027155Y92170D02*
D03*
X1047155Y52170D02*
D03*
X1027155Y12170D02*
D03*
X987155Y1212170D02*
D03*
X1007155Y1172170D02*
D03*
X987155Y1052170D02*
D03*
X1007155Y1012170D02*
D03*
X987155Y972170D02*
D03*
X1007155Y932170D02*
D03*
X987155Y892170D02*
D03*
X1007155Y852170D02*
D03*
X987155Y812170D02*
D03*
X1007155Y292170D02*
D03*
X987155Y252170D02*
D03*
X1007155Y212170D02*
D03*
X987155Y172170D02*
D03*
X1007155Y132170D02*
D03*
X987155Y92170D02*
D03*
X1007155Y52170D02*
D03*
X987155Y12170D02*
D03*
X947155Y1212170D02*
D03*
X967155Y1172170D02*
D03*
X947155Y1052170D02*
D03*
X967155Y1012170D02*
D03*
X947155Y972170D02*
D03*
X967155Y932170D02*
D03*
X947155Y892170D02*
D03*
X967155Y852170D02*
D03*
X947155Y812170D02*
D03*
X967155Y292170D02*
D03*
X947155Y252170D02*
D03*
X967155Y212170D02*
D03*
X947155Y172170D02*
D03*
X967155Y132170D02*
D03*
X947155Y92170D02*
D03*
X967155Y52170D02*
D03*
X947155Y12170D02*
D03*
X907155Y1212170D02*
D03*
X927155Y1172170D02*
D03*
X907155Y1052170D02*
D03*
X927155Y1012170D02*
D03*
X907155Y972170D02*
D03*
X927155Y932170D02*
D03*
X907155Y892170D02*
D03*
X927155Y852170D02*
D03*
X907155Y812170D02*
D03*
X927155Y292170D02*
D03*
X907155Y252170D02*
D03*
X927155Y212170D02*
D03*
X907155Y172170D02*
D03*
X927155Y132170D02*
D03*
X907155Y92170D02*
D03*
X927155Y52170D02*
D03*
X907155Y12170D02*
D03*
X887155Y1172170D02*
D03*
X867155Y1052170D02*
D03*
X887155Y1012170D02*
D03*
X867155Y972170D02*
D03*
X887155Y932170D02*
D03*
X867155Y892170D02*
D03*
X887155Y852170D02*
D03*
X867155Y812170D02*
D03*
Y492170D02*
D03*
X887155Y292170D02*
D03*
X867155Y252170D02*
D03*
X887155Y212170D02*
D03*
X867155Y172170D02*
D03*
X887155Y132170D02*
D03*
X867155Y92170D02*
D03*
X887155Y52170D02*
D03*
X867155Y12170D02*
D03*
X827155Y1052170D02*
D03*
X847155Y1012170D02*
D03*
X827155Y972170D02*
D03*
X847155Y932170D02*
D03*
Y852170D02*
D03*
Y292170D02*
D03*
X827155Y252170D02*
D03*
X847155Y212170D02*
D03*
X827155Y172170D02*
D03*
X847155Y132170D02*
D03*
X827155Y92170D02*
D03*
Y12170D02*
D03*
X787155Y1212170D02*
D03*
X807155Y1172170D02*
D03*
X787155Y1052170D02*
D03*
X807155Y1012170D02*
D03*
Y452170D02*
D03*
Y292170D02*
D03*
X787155Y252170D02*
D03*
X807155Y212170D02*
D03*
X787155Y172170D02*
D03*
X807155Y132170D02*
D03*
X787155Y92170D02*
D03*
Y12170D02*
D03*
X747155Y1212170D02*
D03*
X767155Y1172170D02*
D03*
Y292170D02*
D03*
X747155Y252170D02*
D03*
X767155Y212170D02*
D03*
X747155Y172170D02*
D03*
X767155Y132170D02*
D03*
X747155Y92170D02*
D03*
X767155Y52170D02*
D03*
X747155Y12170D02*
D03*
X707155Y1212170D02*
D03*
X727155Y1172170D02*
D03*
Y452170D02*
D03*
Y292170D02*
D03*
X707155Y252170D02*
D03*
X727155Y212170D02*
D03*
X707155Y172170D02*
D03*
X727155Y132170D02*
D03*
X707155Y92170D02*
D03*
X727155Y52170D02*
D03*
X707155Y12170D02*
D03*
X667155Y1212170D02*
D03*
X687155Y1172170D02*
D03*
Y292170D02*
D03*
X667155Y252170D02*
D03*
X687155Y212170D02*
D03*
X667155Y172170D02*
D03*
X687155Y132170D02*
D03*
X667155Y92170D02*
D03*
X687155Y52170D02*
D03*
X667155Y12170D02*
D03*
X627155Y1212170D02*
D03*
X647155Y1172170D02*
D03*
X627155Y412170D02*
D03*
X647155Y372170D02*
D03*
Y292170D02*
D03*
X627155Y252170D02*
D03*
X647155Y212170D02*
D03*
X627155Y172170D02*
D03*
X647155Y132170D02*
D03*
X627155Y92170D02*
D03*
X647155Y52170D02*
D03*
X627155Y12170D02*
D03*
X587155Y1212170D02*
D03*
X607155Y1172170D02*
D03*
X587155Y412170D02*
D03*
X607155Y372170D02*
D03*
Y292170D02*
D03*
X587155Y252170D02*
D03*
X607155Y212170D02*
D03*
X587155Y172170D02*
D03*
X607155Y132170D02*
D03*
Y52170D02*
D03*
X587155Y12170D02*
D03*
X547155Y1212170D02*
D03*
X567155Y1172170D02*
D03*
X547155Y412170D02*
D03*
X567155Y372170D02*
D03*
Y292170D02*
D03*
X547155Y252170D02*
D03*
Y172170D02*
D03*
Y92170D02*
D03*
X567155Y52170D02*
D03*
X547155Y12170D02*
D03*
X507155Y1212170D02*
D03*
X527155Y1172170D02*
D03*
Y452170D02*
D03*
X507155Y412170D02*
D03*
X527155Y372170D02*
D03*
Y292170D02*
D03*
X507155Y252170D02*
D03*
X527155Y212170D02*
D03*
X507155Y172170D02*
D03*
Y92170D02*
D03*
X527155Y52170D02*
D03*
X507155Y12170D02*
D03*
X467155Y1212170D02*
D03*
X487155Y1172170D02*
D03*
X467155Y492170D02*
D03*
X487155Y452170D02*
D03*
X467155Y412170D02*
D03*
X487155Y372170D02*
D03*
Y292170D02*
D03*
X467155Y252170D02*
D03*
X487155Y212170D02*
D03*
X467155Y172170D02*
D03*
X487155Y52170D02*
D03*
X467155Y12170D02*
D03*
X427155Y1212170D02*
D03*
X447155Y1172170D02*
D03*
X427155Y492170D02*
D03*
Y412170D02*
D03*
X447155Y372170D02*
D03*
Y292170D02*
D03*
X427155Y252170D02*
D03*
X447155Y212170D02*
D03*
X427155Y172170D02*
D03*
Y92170D02*
D03*
X447155Y52170D02*
D03*
X427155Y12170D02*
D03*
X387155Y1212170D02*
D03*
X407155Y1172170D02*
D03*
X387155Y1052170D02*
D03*
Y572170D02*
D03*
X407155Y532170D02*
D03*
X387155Y492170D02*
D03*
X407155Y452170D02*
D03*
X387155Y412170D02*
D03*
X407155Y372170D02*
D03*
X387155Y332170D02*
D03*
X407155Y292170D02*
D03*
X387155Y252170D02*
D03*
X407155Y212170D02*
D03*
X387155Y172170D02*
D03*
Y92170D02*
D03*
X407155Y52170D02*
D03*
X387155Y12170D02*
D03*
X347155Y1212170D02*
D03*
X367155Y1172170D02*
D03*
X347155Y1052170D02*
D03*
Y572170D02*
D03*
Y492170D02*
D03*
X367155Y452170D02*
D03*
Y372170D02*
D03*
X347155Y332170D02*
D03*
X367155Y292170D02*
D03*
X347155Y252170D02*
D03*
X367155Y212170D02*
D03*
X347155Y172170D02*
D03*
X367155Y132170D02*
D03*
Y52170D02*
D03*
X347155Y12170D02*
D03*
X307155Y1212170D02*
D03*
X327155Y1172170D02*
D03*
Y1012170D02*
D03*
X307155Y972170D02*
D03*
X327155Y932170D02*
D03*
X307155Y652170D02*
D03*
Y572170D02*
D03*
X327155Y532170D02*
D03*
X307155Y492170D02*
D03*
X327155Y452170D02*
D03*
X307155Y412170D02*
D03*
X327155Y372170D02*
D03*
X307155Y332170D02*
D03*
X327155Y292170D02*
D03*
X307155Y252170D02*
D03*
X327155Y212170D02*
D03*
X307155Y172170D02*
D03*
X327155Y132170D02*
D03*
X307155Y92170D02*
D03*
X327155Y52170D02*
D03*
X307155Y12170D02*
D03*
X267155Y1212170D02*
D03*
X287155Y1172170D02*
D03*
X267155Y972170D02*
D03*
X287155Y932170D02*
D03*
X267155Y892170D02*
D03*
X287155Y852170D02*
D03*
X267155Y652170D02*
D03*
X287155Y612170D02*
D03*
X267155Y572170D02*
D03*
X287155Y532170D02*
D03*
X267155Y492170D02*
D03*
X287155Y452170D02*
D03*
X267155Y412170D02*
D03*
X287155Y372170D02*
D03*
X267155Y332170D02*
D03*
X287155Y292170D02*
D03*
X267155Y252170D02*
D03*
X287155Y212170D02*
D03*
X267155Y172170D02*
D03*
X287155Y132170D02*
D03*
X267155Y92170D02*
D03*
X287155Y52170D02*
D03*
X267155Y12170D02*
D03*
X227155Y1212170D02*
D03*
X247155Y1172170D02*
D03*
X227155Y1052170D02*
D03*
X247155Y932170D02*
D03*
X227155Y892170D02*
D03*
X247155Y852170D02*
D03*
Y612170D02*
D03*
X227155Y572170D02*
D03*
X247155Y532170D02*
D03*
X227155Y492170D02*
D03*
X247155Y452170D02*
D03*
X227155Y412170D02*
D03*
X247155Y372170D02*
D03*
X227155Y332170D02*
D03*
X247155Y292170D02*
D03*
X227155Y252170D02*
D03*
X247155Y212170D02*
D03*
X227155Y172170D02*
D03*
X247155Y132170D02*
D03*
X227155Y92170D02*
D03*
X247155Y52170D02*
D03*
X227155Y12170D02*
D03*
X187155Y1212170D02*
D03*
X207155Y1172170D02*
D03*
Y932170D02*
D03*
X187155Y892170D02*
D03*
X207155Y852170D02*
D03*
X187155Y572170D02*
D03*
X207155Y532170D02*
D03*
X187155Y492170D02*
D03*
X207155Y452170D02*
D03*
X187155Y412170D02*
D03*
X207155Y372170D02*
D03*
X187155Y332170D02*
D03*
X207155Y292170D02*
D03*
X187155Y252170D02*
D03*
X207155Y212170D02*
D03*
X187155Y172170D02*
D03*
X207155Y132170D02*
D03*
X187155Y92170D02*
D03*
X207155Y52170D02*
D03*
X187155Y12170D02*
D03*
X147155Y1212170D02*
D03*
X167155Y1172170D02*
D03*
Y1012170D02*
D03*
Y932170D02*
D03*
X147155Y892170D02*
D03*
X167155Y852170D02*
D03*
X147155Y732170D02*
D03*
Y572170D02*
D03*
X167155Y532170D02*
D03*
X147155Y412170D02*
D03*
Y332170D02*
D03*
X167155Y292170D02*
D03*
X147155Y252170D02*
D03*
X167155Y212170D02*
D03*
X147155Y172170D02*
D03*
X167155Y132170D02*
D03*
X147155Y92170D02*
D03*
X167155Y52170D02*
D03*
X147155Y12170D02*
D03*
X107155Y1212170D02*
D03*
X127155Y1172170D02*
D03*
Y932170D02*
D03*
Y852170D02*
D03*
X107155Y572170D02*
D03*
X127155Y532170D02*
D03*
Y372170D02*
D03*
X107155Y332170D02*
D03*
X127155Y212170D02*
D03*
Y132170D02*
D03*
X107155Y92170D02*
D03*
X127155Y52170D02*
D03*
X107155Y12170D02*
D03*
X87155Y1172170D02*
D03*
Y612170D02*
D03*
Y532170D02*
D03*
Y372170D02*
D03*
Y292170D02*
D03*
Y132170D02*
D03*
X67155Y92170D02*
D03*
X87155Y52170D02*
D03*
X67155Y12170D02*
D03*
X27155Y1132170D02*
D03*
X47155Y1092170D02*
D03*
X27155Y1052170D02*
D03*
X47155Y1012170D02*
D03*
Y932170D02*
D03*
X27155Y892170D02*
D03*
X47155Y852170D02*
D03*
X27155Y812170D02*
D03*
X47155Y772170D02*
D03*
X27155Y732170D02*
D03*
X47155Y692170D02*
D03*
X27155Y572170D02*
D03*
X47155Y532170D02*
D03*
X27155Y492170D02*
D03*
X47155Y452170D02*
D03*
X27155Y412170D02*
D03*
X47155Y372170D02*
D03*
X27155Y332170D02*
D03*
X47155Y292170D02*
D03*
X27155Y252170D02*
D03*
Y172170D02*
D03*
X47155Y132170D02*
D03*
X27155Y92170D02*
D03*
Y12170D02*
D03*
X1105600Y731300D02*
D03*
X1146700D02*
D03*
X1235700Y1093800D02*
D03*
X1204172Y752415D02*
D03*
X859100Y636100D02*
D03*
X721900Y666000D02*
D03*
X681200Y666500D02*
D03*
X734500Y666543D02*
D03*
X745200Y666200D02*
D03*
X502800Y890200D02*
D03*
X620533Y739900D02*
D03*
X632533Y730300D02*
D03*
X670700Y691583D02*
D03*
X1206800Y772800D02*
D03*
X1169300Y773100D02*
D03*
X1194900Y790500D02*
D03*
X1169500Y790400D02*
D03*
X1188400Y728400D02*
D03*
X1205694Y608360D02*
D03*
X1157000Y676700D02*
D03*
X29622Y369452D02*
D03*
X12316D02*
D03*
X29139Y379452D02*
D03*
X20825Y374234D02*
D03*
X12734Y379452D02*
D03*
X30022Y536552D02*
D03*
X12716D02*
D03*
X29539Y546552D02*
D03*
X21225Y541334D02*
D03*
X13134Y546552D02*
D03*
X29122Y959652D02*
D03*
X11816D02*
D03*
X28639Y969652D02*
D03*
X20325Y964434D02*
D03*
X12234Y969652D02*
D03*
X1155700Y790800D02*
D03*
X1107600D02*
D03*
X476900Y512000D02*
D03*
X1134400Y730900D02*
D03*
X442300Y499500D02*
D03*
X819600Y617900D02*
D03*
X568900Y460600D02*
D03*
X596600Y434300D02*
D03*
X655771Y474720D02*
D03*
X130300Y842800D02*
D03*
X230209Y781042D02*
D03*
Y758055D02*
D03*
Y804029D02*
D03*
X217509D02*
D03*
Y758055D02*
D03*
Y781042D02*
D03*
X103807Y1103991D02*
D03*
X81455D02*
D03*
X127429D02*
D03*
X103507Y1094791D02*
D03*
X81155D02*
D03*
X127129D02*
D03*
X170760Y640491D02*
D03*
X152290D02*
D03*
X189229D02*
D03*
X179994Y653191D02*
D03*
X143055D02*
D03*
X161525D02*
D03*
X128200Y738900D02*
D03*
X104300Y738500D02*
D03*
X104500Y753500D02*
D03*
X125500Y752500D02*
D03*
X116000Y745700D02*
D03*
X1533131Y1046152D02*
D03*
X1522309Y1046052D02*
D03*
X1532831Y1055352D02*
D03*
X1522609Y1055252D02*
D03*
X1505400Y1045100D02*
D03*
X1153235Y722900D02*
D03*
X1525400Y462300D02*
D03*
X1462700Y399700D02*
D03*
X1449300Y392900D02*
D03*
X1483400Y430000D02*
D03*
X1493000Y462800D02*
D03*
X1485700Y491400D02*
D03*
X1485800Y478800D02*
D03*
X1449200Y401300D02*
D03*
X1462400Y407300D02*
D03*
X1490600Y1012300D02*
D03*
X1482900Y1012200D02*
D03*
X857000Y513900D02*
D03*
X862303Y519203D02*
D03*
X1453400Y1016300D02*
D03*
Y1008800D02*
D03*
X1532700Y494100D02*
D03*
X1493100Y484900D02*
D03*
Y472600D02*
D03*
Y451900D02*
D03*
Y430100D02*
D03*
X720384Y459516D02*
D03*
X736233Y463739D02*
D03*
X742872Y468308D02*
D03*
X750705Y468419D02*
D03*
X758203Y468240D02*
D03*
X773091Y468419D02*
D03*
X782743D02*
D03*
X190900Y462086D02*
D03*
X765699Y477869D02*
D03*
X768265Y527481D02*
D03*
X560800Y697900D02*
D03*
X734800Y689800D02*
D03*
X722300Y690000D02*
D03*
X652700Y430700D02*
D03*
X1293100Y734500D02*
D03*
X1220300Y586600D02*
D03*
X1211825Y587775D02*
D03*
X1195600Y571200D02*
D03*
X1186300Y553800D02*
D03*
X1185100Y529400D02*
D03*
X1210100Y529700D02*
D03*
X1220100Y538500D02*
D03*
X1127500Y606700D02*
D03*
X1146300Y606200D02*
D03*
X1171100Y591900D02*
D03*
X1172300Y606500D02*
D03*
X1186300Y610300D02*
D03*
X1260600Y650200D02*
D03*
X1266600Y659100D02*
D03*
X1258100Y702800D02*
D03*
X1282100Y673600D02*
D03*
X1293000Y673300D02*
D03*
X1286900Y718000D02*
D03*
X1286700Y727700D02*
D03*
X1251900Y717800D02*
D03*
X1180000Y730600D02*
D03*
X1160500Y727500D02*
D03*
X867500Y643200D02*
D03*
X1278100Y727500D02*
D03*
X1253200Y644100D02*
D03*
X1167172Y722600D02*
D03*
X1127700Y620000D02*
D03*
X1120900Y613300D02*
D03*
X1212100Y538800D02*
D03*
X1176900Y529800D02*
D03*
X1151400Y665700D02*
D03*
X1144172Y671600D02*
D03*
X1138172Y606700D02*
D03*
X1121100Y730900D02*
D03*
X1182800Y658400D02*
D03*
X1169900Y645800D02*
D03*
X1163172Y606700D02*
D03*
X1214895Y752100D02*
D03*
X1207900Y759200D02*
D03*
X1198000D02*
D03*
X1272900Y673900D02*
D03*
X1245000Y643800D02*
D03*
X1239172Y619800D02*
D03*
X1192307Y616093D02*
D03*
X1202357Y601643D02*
D03*
X1202200Y529800D02*
D03*
X1203000Y576300D02*
D03*
X1163100Y592300D02*
D03*
X1284172Y708800D02*
D03*
X1243100Y717700D02*
D03*
X1159172Y710100D02*
D03*
X641023Y731062D02*
D03*
X635464Y721791D02*
D03*
X778900Y725900D02*
D03*
X752112Y608477D02*
D03*
X598012Y578212D02*
D03*
X692462Y683824D02*
D03*
X676688Y684488D02*
D03*
X761400Y580800D02*
D03*
X611521Y520400D02*
D03*
X616712Y513000D02*
D03*
X660900Y505500D02*
D03*
X708488Y474743D02*
D03*
X11034Y1112252D02*
D03*
X19125Y1107034D02*
D03*
X27439Y1112252D02*
D03*
X10616Y1102252D02*
D03*
X27922D02*
D03*
X615357Y732205D02*
D03*
X122699Y789559D02*
D03*
X173178Y431200D02*
D03*
X172924Y457362D02*
D03*
X117194Y176642D02*
D03*
X611081Y1060117D02*
D03*
X532129Y1061869D02*
D03*
X566512Y1047112D02*
D03*
X414043Y833281D02*
D03*
X413607Y848911D02*
D03*
X493296Y913483D02*
D03*
X470064Y877757D02*
D03*
X478084Y872721D02*
D03*
X461912Y872986D02*
D03*
X501922Y845153D02*
D03*
X474431Y847972D02*
D03*
X465134Y847803D02*
D03*
X501461Y909451D02*
D03*
X440758Y664875D02*
D03*
X443773Y690963D02*
D03*
X488320Y564688D02*
D03*
X485483Y938412D02*
D03*
X438067Y998419D02*
D03*
X446173Y1005419D02*
D03*
X462191D02*
D03*
X477533D02*
D03*
X453699Y998419D02*
D03*
X469814D02*
D03*
X873330Y518488D02*
D03*
X849818Y508098D02*
D03*
X469932Y1011719D02*
D03*
X453990D02*
D03*
X437681D02*
D03*
X468527Y938525D02*
D03*
X421722Y957627D02*
D03*
X421997Y991500D02*
D03*
X429672Y1005419D02*
D03*
X421327Y840452D02*
D03*
X806895Y625653D02*
D03*
X766995Y588187D02*
D03*
X796205Y583615D02*
D03*
X767369Y608101D02*
D03*
X772583Y594673D02*
D03*
X814493Y583869D02*
D03*
X759375Y601903D02*
D03*
X770720Y640692D02*
D03*
X800329Y620023D02*
D03*
X808209Y617419D02*
D03*
X694605Y565919D02*
D03*
X675659D02*
D03*
X714794D02*
D03*
X686477Y558977D02*
D03*
X657750Y548211D02*
D03*
X694777Y552545D02*
D03*
X650468Y552806D02*
D03*
X685056Y685008D02*
D03*
X744897Y684707D02*
D03*
X710861Y689787D02*
D03*
X750368Y690743D02*
D03*
X755798Y684743D02*
D03*
X544666Y688127D02*
D03*
X562453Y767725D02*
D03*
X585280Y678674D02*
D03*
X611610Y740242D02*
D03*
X605886Y687398D02*
D03*
X587447Y732261D02*
D03*
X551071Y692995D02*
D03*
X551821Y681805D02*
D03*
X609827Y725730D02*
D03*
X590465Y723315D02*
D03*
X550587Y577773D02*
D03*
X522248Y555317D02*
D03*
X552083Y639684D02*
D03*
X558311Y583408D02*
D03*
X558030Y519549D02*
D03*
X558230Y527146D02*
D03*
X545088Y603818D02*
D03*
X541340Y570375D02*
D03*
X546363Y646359D02*
D03*
X760762Y808419D02*
D03*
X763039Y799419D02*
D03*
X744325D02*
D03*
X746325Y808419D02*
D03*
X778933Y767003D02*
D03*
X753443Y799419D02*
D03*
X711678Y765986D02*
D03*
X712639Y725601D02*
D03*
X604698Y550378D02*
D03*
X612165Y556282D02*
D03*
X618820Y548189D02*
D03*
X596077Y588633D02*
D03*
X588006Y585719D02*
D03*
X584069Y532891D02*
D03*
X583869Y520701D02*
D03*
X515198Y1025146D02*
D03*
X565542Y990958D02*
D03*
X524090Y1025118D02*
D03*
X559094Y1032361D02*
D03*
X549465Y1032787D02*
D03*
X566268Y1038740D02*
D03*
X525441Y991419D02*
D03*
X640503Y622477D02*
D03*
X679866Y691583D02*
D03*
X678022Y726716D02*
D03*
X663614Y723495D02*
D03*
X691366Y691583D02*
D03*
X683576Y720007D02*
D03*
X655347Y724144D02*
D03*
X635770Y740387D02*
D03*
X613579Y991419D02*
D03*
X640344Y975090D02*
D03*
X614016Y835038D02*
D03*
X621493Y847327D02*
D03*
X606676Y847700D02*
D03*
X637811Y846231D02*
D03*
X521818Y929748D02*
D03*
X541658Y849792D02*
D03*
X582083Y819073D02*
D03*
X581321Y835837D02*
D03*
X581829Y827455D02*
D03*
X544634Y829836D02*
D03*
X508416Y920337D02*
D03*
X510230Y929510D02*
D03*
X543971Y838986D02*
D03*
X774271Y517505D02*
D03*
X793171Y460883D02*
D03*
X793375Y495752D02*
D03*
X737644Y478089D02*
D03*
X793136Y478104D02*
D03*
X765445Y460382D02*
D03*
X466922Y93293D02*
D03*
X475705Y85158D02*
D03*
X475816Y93293D02*
D03*
X448817Y85158D02*
D03*
X449134Y93293D02*
D03*
X457780Y85158D02*
D03*
X458028Y93293D02*
D03*
X466742Y85158D02*
D03*
M02*
