G04*
G04 #@! TF.GenerationSoftware,Altium Limited,Altium Designer,24.1.2 (44)*
G04*
G04 Layer_Color=8388736*
%FSLAX44Y44*%
%MOMM*%
G71*
G04*
G04 #@! TF.SameCoordinates,83B34F58-023A-4855-A863-A0BE80A54967*
G04*
G04*
G04 #@! TF.FilePolarity,Negative*
G04*
G01*
G75*
%ADD11C,6.5532*%
%ADD12C,1.2032*%
%ADD13C,1.5532*%
%ADD14R,2.7032X2.7032*%
%ADD15C,3.2482*%
D11*
X835000Y50000D02*
D03*
X1619000D02*
D03*
X835000Y1199600D02*
D03*
X1619000Y625000D02*
D03*
Y1199600D02*
D03*
X50000Y50000D02*
D03*
Y1199600D02*
D03*
Y625000D02*
D03*
D12*
X835000Y72860D02*
D03*
X812140Y50000D02*
D03*
X835000Y27140D02*
D03*
X857860Y50000D02*
D03*
X851164Y66164D02*
D03*
X818836D02*
D03*
Y33835D02*
D03*
X851164D02*
D03*
X1619000Y72860D02*
D03*
X1596140Y50000D02*
D03*
X1619000Y27140D02*
D03*
X1641860Y50000D02*
D03*
X1635164Y66164D02*
D03*
X1602836D02*
D03*
Y33835D02*
D03*
X1635164D02*
D03*
X851164Y1183436D02*
D03*
X818836D02*
D03*
Y1215764D02*
D03*
X851164D02*
D03*
X857860Y1199600D02*
D03*
X835000Y1176740D02*
D03*
X812140Y1199600D02*
D03*
X835000Y1222460D02*
D03*
X1635164Y608835D02*
D03*
X1602836D02*
D03*
Y641164D02*
D03*
X1635164D02*
D03*
X1641860Y625000D02*
D03*
X1619000Y602140D02*
D03*
X1596140Y625000D02*
D03*
X1619000Y647860D02*
D03*
X1635164Y1183436D02*
D03*
X1602836D02*
D03*
Y1215764D02*
D03*
X1635164D02*
D03*
X1641860Y1199600D02*
D03*
X1619000Y1176740D02*
D03*
X1596140Y1199600D02*
D03*
X1619000Y1222460D02*
D03*
X50000Y72860D02*
D03*
X27140Y50000D02*
D03*
X50000Y27140D02*
D03*
X72860Y50000D02*
D03*
X66164Y66164D02*
D03*
X33835D02*
D03*
Y33835D02*
D03*
X66164D02*
D03*
X50000Y1222460D02*
D03*
X27140Y1199600D02*
D03*
X50000Y1176740D02*
D03*
X72860Y1199600D02*
D03*
X66164Y1215764D02*
D03*
X33835D02*
D03*
Y1183436D02*
D03*
X66164D02*
D03*
X50000Y647860D02*
D03*
X27140Y625000D02*
D03*
X50000Y602140D02*
D03*
X72860Y625000D02*
D03*
X66164Y641164D02*
D03*
X33835D02*
D03*
Y608835D02*
D03*
X66164D02*
D03*
X1620950Y479595D02*
D03*
Y399795D02*
D03*
D13*
X1583891Y987660D02*
D03*
Y1036660D02*
D03*
D14*
X1638391Y936160D02*
D03*
X1577391D02*
D03*
X1638391Y1088160D02*
D03*
X1577391D02*
D03*
D15*
X570385Y83814D02*
D03*
X354485D02*
D03*
M02*
