G04*
G04 #@! TF.GenerationSoftware,Altium Limited,Altium Designer,24.1.2 (44)*
G04*
G04 Layer_Color=255*
%FSLAX44Y44*%
%MOMM*%
G71*
G04*
G04 #@! TF.SameCoordinates,791D3A81-C46F-493C-8474-DD763FBEB128*
G04*
G04*
G04 #@! TF.FilePolarity,Positive*
G04*
G01*
G75*
%ADD18C,3.0450*%
%ADD19C,6.3500*%
%ADD20C,1.0000*%
%ADD21R,2.5000X2.5000*%
%ADD22C,1.3500*%
D18*
X1766599Y212407D02*
D03*
Y428307D02*
D03*
D19*
X1120000Y1180000D02*
D03*
X750000D02*
D03*
X50000Y50000D02*
D03*
Y1180000D02*
D03*
X1820000D02*
D03*
Y50000D02*
D03*
D20*
X1120000Y1203250D02*
D03*
X1096750Y1180000D02*
D03*
X1120000Y1157140D02*
D03*
X1143250Y1180000D02*
D03*
X1136440Y1196440D02*
D03*
X1103560Y1163560D02*
D03*
X1136440D02*
D03*
X1103560Y1196440D02*
D03*
X750000Y1203250D02*
D03*
X726750Y1180000D02*
D03*
X750000Y1157140D02*
D03*
X773250Y1180000D02*
D03*
X766440Y1196440D02*
D03*
X733560Y1163560D02*
D03*
X766440D02*
D03*
X733560Y1196440D02*
D03*
X633175Y1178220D02*
D03*
X553375D02*
D03*
X33560Y66440D02*
D03*
X66440Y33560D02*
D03*
X33560D02*
D03*
X66440Y66440D02*
D03*
X73250Y50000D02*
D03*
X50000Y27140D02*
D03*
X26750Y50000D02*
D03*
X50000Y73250D02*
D03*
X33560Y1196440D02*
D03*
X66440Y1163560D02*
D03*
X33560D02*
D03*
X66440Y1196440D02*
D03*
X73250Y1180000D02*
D03*
X50000Y1157140D02*
D03*
X26750Y1180000D02*
D03*
X50000Y1203250D02*
D03*
X1803560Y1196440D02*
D03*
X1836440Y1163560D02*
D03*
X1803560D02*
D03*
X1836440Y1196440D02*
D03*
X1843250Y1180000D02*
D03*
X1820000Y1157140D02*
D03*
X1796750Y1180000D02*
D03*
X1820000Y1203250D02*
D03*
X1803560Y66440D02*
D03*
X1836440Y33560D02*
D03*
X1803560D02*
D03*
X1836440Y66440D02*
D03*
X1843250Y50000D02*
D03*
X1820000Y27140D02*
D03*
X1796750Y50000D02*
D03*
X1820000Y73250D02*
D03*
D21*
X80082Y813907D02*
D03*
X19082D02*
D03*
X80082Y965908D02*
D03*
X19082D02*
D03*
D22*
X73582Y865407D02*
D03*
Y914408D02*
D03*
M02*
