G04*
G04 #@! TF.GenerationSoftware,Altium Limited,Altium Designer,24.1.2 (44)*
G04*
G04 Layer_Color=4660084*
%FSLAX44Y44*%
%MOMM*%
G71*
G04*
G04 #@! TF.SameCoordinates,83B34F58-023A-4855-A863-A0BE80A54967*
G04*
G04*
G04 #@! TF.FilePolarity,Negative*
G04*
G01*
G75*
%ADD11C,6.5532*%
%ADD12C,1.2032*%
%ADD13C,1.5532*%
%ADD14R,2.7032X2.7032*%
%ADD15C,3.2482*%
%ADD55R,2.7032X3.3232*%
%ADD56R,0.5032X1.8032*%
%ADD57O,0.8032X1.4032*%
%ADD58R,2.7032X1.5532*%
G04:AMPARAMS|DCode=59|XSize=1.1032mm|YSize=0.9032mm|CornerRadius=0.1366mm|HoleSize=0mm|Usage=FLASHONLY|Rotation=90.000|XOffset=0mm|YOffset=0mm|HoleType=Round|Shape=RoundedRectangle|*
%AMROUNDEDRECTD59*
21,1,1.1032,0.6300,0,0,90.0*
21,1,0.8300,0.9032,0,0,90.0*
1,1,0.2732,0.3150,0.4150*
1,1,0.2732,0.3150,-0.4150*
1,1,0.2732,-0.3150,-0.4150*
1,1,0.2732,-0.3150,0.4150*
%
%ADD59ROUNDEDRECTD59*%
%ADD60R,0.9032X1.0032*%
G04:AMPARAMS|DCode=61|XSize=1.1032mm|YSize=0.9032mm|CornerRadius=0.1366mm|HoleSize=0mm|Usage=FLASHONLY|Rotation=180.000|XOffset=0mm|YOffset=0mm|HoleType=Round|Shape=RoundedRectangle|*
%AMROUNDEDRECTD61*
21,1,1.1032,0.6300,0,0,180.0*
21,1,0.8300,0.9032,0,0,180.0*
1,1,0.2732,-0.4150,0.3150*
1,1,0.2732,0.4150,0.3150*
1,1,0.2732,0.4150,-0.3150*
1,1,0.2732,-0.4150,-0.3150*
%
%ADD61ROUNDEDRECTD61*%
%ADD62R,3.5032X2.6032*%
%ADD63R,1.2032X2.6032*%
G04:AMPARAMS|DCode=64|XSize=1.7032mm|YSize=3.2032mm|CornerRadius=0.4766mm|HoleSize=0mm|Usage=FLASHONLY|Rotation=270.000|XOffset=0mm|YOffset=0mm|HoleType=Round|Shape=RoundedRectangle|*
%AMROUNDEDRECTD64*
21,1,1.7032,2.2500,0,0,270.0*
21,1,0.7500,3.2032,0,0,270.0*
1,1,0.9532,-1.1250,-0.3750*
1,1,0.9532,-1.1250,0.3750*
1,1,0.9532,1.1250,0.3750*
1,1,0.9532,1.1250,-0.3750*
%
%ADD64ROUNDEDRECTD64*%
%ADD65R,3.2032X2.2032*%
%ADD66O,1.6032X0.5532*%
%ADD67O,0.5532X1.6032*%
%ADD68R,1.7032X1.2032*%
G04:AMPARAMS|DCode=69|XSize=0.9032mm|YSize=1.8032mm|CornerRadius=0.2766mm|HoleSize=0mm|Usage=FLASHONLY|Rotation=270.000|XOffset=0mm|YOffset=0mm|HoleType=Round|Shape=RoundedRectangle|*
%AMROUNDEDRECTD69*
21,1,0.9032,1.2500,0,0,270.0*
21,1,0.3500,1.8032,0,0,270.0*
1,1,0.5532,-0.6250,-0.1750*
1,1,0.5532,-0.6250,0.1750*
1,1,0.5532,0.6250,0.1750*
1,1,0.5532,0.6250,-0.1750*
%
%ADD69ROUNDEDRECTD69*%
G04:AMPARAMS|DCode=70|XSize=1.4032mm|YSize=2.4032mm|CornerRadius=0.4016mm|HoleSize=0mm|Usage=FLASHONLY|Rotation=270.000|XOffset=0mm|YOffset=0mm|HoleType=Round|Shape=RoundedRectangle|*
%AMROUNDEDRECTD70*
21,1,1.4032,1.6000,0,0,270.0*
21,1,0.6000,2.4032,0,0,270.0*
1,1,0.8032,-0.8000,-0.3000*
1,1,0.8032,-0.8000,0.3000*
1,1,0.8032,0.8000,0.3000*
1,1,0.8032,0.8000,-0.3000*
%
%ADD70ROUNDEDRECTD70*%
G04:AMPARAMS|DCode=71|XSize=1.4032mm|YSize=1.8032mm|CornerRadius=0.4016mm|HoleSize=0mm|Usage=FLASHONLY|Rotation=270.000|XOffset=0mm|YOffset=0mm|HoleType=Round|Shape=RoundedRectangle|*
%AMROUNDEDRECTD71*
21,1,1.4032,1.0000,0,0,270.0*
21,1,0.6000,1.8032,0,0,270.0*
1,1,0.8032,-0.5000,-0.3000*
1,1,0.8032,-0.5000,0.3000*
1,1,0.8032,0.5000,0.3000*
1,1,0.8032,0.5000,-0.3000*
%
%ADD71ROUNDEDRECTD71*%
G04:AMPARAMS|DCode=72|XSize=1.3032mm|YSize=1.8032mm|CornerRadius=0.3766mm|HoleSize=0mm|Usage=FLASHONLY|Rotation=270.000|XOffset=0mm|YOffset=0mm|HoleType=Round|Shape=RoundedRectangle|*
%AMROUNDEDRECTD72*
21,1,1.3032,1.0500,0,0,270.0*
21,1,0.5500,1.8032,0,0,270.0*
1,1,0.7532,-0.5250,-0.2750*
1,1,0.7532,-0.5250,0.2750*
1,1,0.7532,0.5250,0.2750*
1,1,0.7532,0.5250,-0.2750*
%
%ADD72ROUNDEDRECTD72*%
%ADD73O,0.8032X2.0032*%
%ADD74R,3.3032X2.4032*%
%ADD75R,1.9032X1.9032*%
%ADD76R,1.5982X2.5032*%
%ADD77R,3.2032X1.7032*%
%ADD78R,1.4032X1.6032*%
%ADD79R,4.2032X4.2032*%
%ADD80O,2.0032X0.8032*%
%ADD81O,1.3032X0.8032*%
D11*
X835000Y50000D02*
D03*
X1619000D02*
D03*
X835000Y1199600D02*
D03*
X1619000Y625000D02*
D03*
Y1199600D02*
D03*
X50000Y50000D02*
D03*
Y1199600D02*
D03*
Y625000D02*
D03*
D12*
X835000Y72860D02*
D03*
X812140Y50000D02*
D03*
X835000Y27140D02*
D03*
X857860Y50000D02*
D03*
X851164Y66164D02*
D03*
X818836D02*
D03*
Y33835D02*
D03*
X851164D02*
D03*
X1619000Y72860D02*
D03*
X1596140Y50000D02*
D03*
X1619000Y27140D02*
D03*
X1641860Y50000D02*
D03*
X1635164Y66164D02*
D03*
X1602836D02*
D03*
Y33835D02*
D03*
X1635164D02*
D03*
X851164Y1183436D02*
D03*
X818836D02*
D03*
Y1215764D02*
D03*
X851164D02*
D03*
X857860Y1199600D02*
D03*
X835000Y1176740D02*
D03*
X812140Y1199600D02*
D03*
X835000Y1222460D02*
D03*
X1635164Y608835D02*
D03*
X1602836D02*
D03*
Y641164D02*
D03*
X1635164D02*
D03*
X1641860Y625000D02*
D03*
X1619000Y602140D02*
D03*
X1596140Y625000D02*
D03*
X1619000Y647860D02*
D03*
X1635164Y1183436D02*
D03*
X1602836D02*
D03*
Y1215764D02*
D03*
X1635164D02*
D03*
X1641860Y1199600D02*
D03*
X1619000Y1176740D02*
D03*
X1596140Y1199600D02*
D03*
X1619000Y1222460D02*
D03*
X50000Y72860D02*
D03*
X27140Y50000D02*
D03*
X50000Y27140D02*
D03*
X72860Y50000D02*
D03*
X66164Y66164D02*
D03*
X33835D02*
D03*
Y33835D02*
D03*
X66164D02*
D03*
X50000Y1222460D02*
D03*
X27140Y1199600D02*
D03*
X50000Y1176740D02*
D03*
X72860Y1199600D02*
D03*
X66164Y1215764D02*
D03*
X33835D02*
D03*
Y1183436D02*
D03*
X66164D02*
D03*
X50000Y647860D02*
D03*
X27140Y625000D02*
D03*
X50000Y602140D02*
D03*
X72860Y625000D02*
D03*
X66164Y641164D02*
D03*
X33835D02*
D03*
Y608835D02*
D03*
X66164D02*
D03*
X1620950Y479595D02*
D03*
Y399795D02*
D03*
D13*
X1583891Y987660D02*
D03*
Y1036660D02*
D03*
D14*
X1638391Y936160D02*
D03*
X1577391D02*
D03*
X1638391Y1088160D02*
D03*
X1577391D02*
D03*
D15*
X570385Y83814D02*
D03*
X354485D02*
D03*
D55*
X1097878Y659890D02*
D03*
X1335188D02*
D03*
D56*
X1118178Y689800D02*
D03*
X1123178D02*
D03*
X1128178D02*
D03*
X1133178D02*
D03*
X1138178D02*
D03*
X1143178D02*
D03*
X1148178D02*
D03*
X1153178D02*
D03*
X1158178D02*
D03*
X1163178D02*
D03*
X1168178D02*
D03*
X1173178D02*
D03*
X1178178D02*
D03*
X1183178D02*
D03*
X1188178D02*
D03*
X1193178D02*
D03*
X1198178D02*
D03*
X1203178D02*
D03*
X1208178D02*
D03*
X1213178D02*
D03*
X1218178D02*
D03*
X1223178D02*
D03*
X1228178D02*
D03*
X1233178D02*
D03*
X1238178D02*
D03*
X1243178D02*
D03*
X1248178D02*
D03*
X1253178D02*
D03*
X1258178D02*
D03*
X1263178D02*
D03*
X1268178D02*
D03*
X1273178D02*
D03*
X1278178D02*
D03*
X1283178D02*
D03*
X1288178D02*
D03*
X1293178D02*
D03*
X1298178D02*
D03*
X1303178D02*
D03*
X1308178D02*
D03*
X1313178D02*
D03*
D57*
X629689Y861419D02*
D03*
X621689D02*
D03*
X613689D02*
D03*
X605689D02*
D03*
X597689D02*
D03*
X589689D02*
D03*
X581689D02*
D03*
X573689D02*
D03*
X565689D02*
D03*
X557689D02*
D03*
X549689D02*
D03*
X541689D02*
D03*
X533689D02*
D03*
X525689D02*
D03*
X517689D02*
D03*
X509689D02*
D03*
X501689D02*
D03*
X493689D02*
D03*
X485689D02*
D03*
X477689D02*
D03*
X469689D02*
D03*
X461689D02*
D03*
X453689D02*
D03*
X445689D02*
D03*
X437689D02*
D03*
X429689D02*
D03*
X421689D02*
D03*
X629689Y975419D02*
D03*
X621689D02*
D03*
X613689D02*
D03*
X605689D02*
D03*
X597689D02*
D03*
X589689D02*
D03*
X581689D02*
D03*
X573689D02*
D03*
X565689D02*
D03*
X557689D02*
D03*
X549689D02*
D03*
X541689D02*
D03*
X533689D02*
D03*
X525689D02*
D03*
X517689D02*
D03*
X509689D02*
D03*
X501689D02*
D03*
X493689D02*
D03*
X485689D02*
D03*
X477689D02*
D03*
X469689D02*
D03*
X461689D02*
D03*
X453689D02*
D03*
X445689D02*
D03*
X437689D02*
D03*
X429689D02*
D03*
X421689D02*
D03*
D58*
X1561141Y1047160D02*
D03*
Y1022160D02*
D03*
Y1002160D02*
D03*
Y977160D02*
D03*
D59*
X80354Y175975D02*
D03*
X96354D02*
D03*
X80354Y205140D02*
D03*
X96354D02*
D03*
X80354Y232976D02*
D03*
X96354D02*
D03*
X178711Y688490D02*
D03*
X162711D02*
D03*
X178711Y670757D02*
D03*
X162711D02*
D03*
X123709Y688490D02*
D03*
X139709D02*
D03*
X248989Y779990D02*
D03*
X264989D02*
D03*
X248989Y761996D02*
D03*
X264989D02*
D03*
X73011Y688216D02*
D03*
X57011D02*
D03*
X105059Y688287D02*
D03*
X89059D02*
D03*
X113559Y824163D02*
D03*
X97559D02*
D03*
X113559Y805136D02*
D03*
X97559D02*
D03*
Y843191D02*
D03*
X113559D02*
D03*
X123709Y670757D02*
D03*
X139709D02*
D03*
X161876Y482736D02*
D03*
X145876D02*
D03*
X161802Y508232D02*
D03*
X145802D02*
D03*
X161962Y431201D02*
D03*
X145962D02*
D03*
X161802Y457244D02*
D03*
X145802D02*
D03*
X646470Y835723D02*
D03*
X630470D02*
D03*
X819068Y630384D02*
D03*
X835068D02*
D03*
Y495989D02*
D03*
X819068D02*
D03*
X835068Y513813D02*
D03*
X819068D02*
D03*
X506070Y687485D02*
D03*
X522070D02*
D03*
X506070Y705917D02*
D03*
X522070D02*
D03*
X522068Y669101D02*
D03*
X506068D02*
D03*
X506069Y650845D02*
D03*
X522069D02*
D03*
X522068Y583419D02*
D03*
X506068D02*
D03*
X506070Y565419D02*
D03*
X522070D02*
D03*
X143332Y1004312D02*
D03*
X159332D02*
D03*
X143332Y1071132D02*
D03*
X159332D02*
D03*
X143332Y1021017D02*
D03*
X159332D02*
D03*
Y1037722D02*
D03*
X143332D02*
D03*
X159332Y1054427D02*
D03*
X143332D02*
D03*
X305139Y1050094D02*
D03*
X289139D02*
D03*
X305139Y1070874D02*
D03*
X289139D02*
D03*
X305139Y1008534D02*
D03*
X289139D02*
D03*
X305139Y1029314D02*
D03*
X289139D02*
D03*
X1470894Y440719D02*
D03*
X1454893D02*
D03*
X1476777Y1044838D02*
D03*
X1492777D02*
D03*
D60*
X38040Y205345D02*
D03*
X54040D02*
D03*
X38040Y233181D02*
D03*
X54040D02*
D03*
X38040Y176180D02*
D03*
X54040D02*
D03*
D61*
X215603Y828144D02*
D03*
Y844144D02*
D03*
X653000Y444150D02*
D03*
Y460150D02*
D03*
X157674Y738904D02*
D03*
Y754904D02*
D03*
X74874Y738904D02*
D03*
Y754904D02*
D03*
X74874Y813490D02*
D03*
Y797490D02*
D03*
Y844144D02*
D03*
Y828144D02*
D03*
X196809Y844144D02*
D03*
Y828144D02*
D03*
X589465Y1005418D02*
D03*
Y1021418D02*
D03*
X541783Y1005418D02*
D03*
Y1021418D02*
D03*
X778949Y752418D02*
D03*
Y736418D02*
D03*
X579617Y460150D02*
D03*
Y444150D02*
D03*
X613450D02*
D03*
Y460150D02*
D03*
X596534Y444150D02*
D03*
Y460150D02*
D03*
X663366Y752418D02*
D03*
Y736418D02*
D03*
X711607Y752418D02*
D03*
Y736418D02*
D03*
X759931Y736420D02*
D03*
Y752420D02*
D03*
X600895Y752418D02*
D03*
Y736418D02*
D03*
X485734Y607836D02*
D03*
Y623837D02*
D03*
X564563Y839420D02*
D03*
Y823420D02*
D03*
X525882D02*
D03*
Y839420D02*
D03*
D62*
X237367Y734917D02*
D03*
D63*
X214367Y676917D02*
D03*
X237367D02*
D03*
X260367D02*
D03*
D64*
X92020Y1023118D02*
D03*
Y1048518D02*
D03*
Y1073918D02*
D03*
Y997718D02*
D03*
X93835Y406596D02*
D03*
Y457396D02*
D03*
Y482796D02*
D03*
Y431996D02*
D03*
D65*
X19630Y1106938D02*
D03*
Y964698D02*
D03*
X21445Y373576D02*
D03*
Y541216D02*
D03*
D66*
X571271Y637543D02*
D03*
X785271Y522543D02*
D03*
Y527543D02*
D03*
Y532543D02*
D03*
Y537543D02*
D03*
Y542543D02*
D03*
Y547543D02*
D03*
Y552543D02*
D03*
Y557543D02*
D03*
Y562543D02*
D03*
Y567543D02*
D03*
Y572543D02*
D03*
Y592543D02*
D03*
Y597543D02*
D03*
Y612543D02*
D03*
Y617543D02*
D03*
Y642543D02*
D03*
Y647543D02*
D03*
Y652543D02*
D03*
Y672543D02*
D03*
Y677543D02*
D03*
Y682543D02*
D03*
Y687543D02*
D03*
X571271D02*
D03*
Y682543D02*
D03*
Y677543D02*
D03*
Y642543D02*
D03*
Y632543D02*
D03*
Y627543D02*
D03*
Y622543D02*
D03*
Y617543D02*
D03*
Y612543D02*
D03*
Y607543D02*
D03*
Y602543D02*
D03*
Y597543D02*
D03*
Y552543D02*
D03*
Y547543D02*
D03*
Y542543D02*
D03*
Y537543D02*
D03*
Y532543D02*
D03*
Y527543D02*
D03*
Y522543D02*
D03*
Y517543D02*
D03*
Y512543D02*
D03*
X785271Y517543D02*
D03*
Y582543D02*
D03*
Y637543D02*
D03*
X571271Y587543D02*
D03*
Y662543D02*
D03*
X785271Y512543D02*
D03*
Y632543D02*
D03*
Y577543D02*
D03*
X571271Y672543D02*
D03*
Y657543D02*
D03*
Y667543D02*
D03*
Y592543D02*
D03*
Y562543D02*
D03*
X785271Y662543D02*
D03*
X571271Y577543D02*
D03*
X785271Y622543D02*
D03*
X571271Y557543D02*
D03*
X785271Y667543D02*
D03*
Y627543D02*
D03*
Y602543D02*
D03*
X571271Y572543D02*
D03*
Y647543D02*
D03*
X785271Y587543D02*
D03*
Y607543D02*
D03*
X571271Y567543D02*
D03*
X785271Y657543D02*
D03*
X571271Y652543D02*
D03*
Y582543D02*
D03*
D67*
X595771Y493043D02*
D03*
X610771D02*
D03*
X615771D02*
D03*
X620771D02*
D03*
X625771D02*
D03*
X630771D02*
D03*
X635771D02*
D03*
X640771D02*
D03*
X645771D02*
D03*
X665771D02*
D03*
X670771D02*
D03*
X675771D02*
D03*
X680771D02*
D03*
X685771D02*
D03*
X690771D02*
D03*
X695771D02*
D03*
X700771D02*
D03*
X715771D02*
D03*
X720771D02*
D03*
X725771D02*
D03*
X730771D02*
D03*
X745771D02*
D03*
X750771D02*
D03*
X755771D02*
D03*
X760771D02*
D03*
X765771D02*
D03*
X760771Y707043D02*
D03*
X755771D02*
D03*
X750771D02*
D03*
X645771D02*
D03*
X640771D02*
D03*
X635771D02*
D03*
X630771D02*
D03*
X625771D02*
D03*
X615771D02*
D03*
X610771D02*
D03*
X605771D02*
D03*
X590771D02*
D03*
X660771Y493043D02*
D03*
X710771D02*
D03*
Y707043D02*
D03*
X660771D02*
D03*
X595771D02*
D03*
X765771D02*
D03*
X665771D02*
D03*
X715771D02*
D03*
X705771Y493043D02*
D03*
X655771D02*
D03*
X600771Y707043D02*
D03*
X590771Y493043D02*
D03*
X740771D02*
D03*
Y707043D02*
D03*
X675771D02*
D03*
X700771D02*
D03*
X690771D02*
D03*
X620771D02*
D03*
X650771Y493043D02*
D03*
X735771Y707043D02*
D03*
X725771D02*
D03*
X600771Y493043D02*
D03*
X670771Y707043D02*
D03*
X695771D02*
D03*
X685771D02*
D03*
X720771D02*
D03*
X605771Y493043D02*
D03*
X745771Y707043D02*
D03*
X680771D02*
D03*
X655771D02*
D03*
X735771Y493043D02*
D03*
X705771Y707043D02*
D03*
X650771D02*
D03*
X730771D02*
D03*
D68*
X101818Y292013D02*
D03*
X31818D02*
D03*
D69*
X1510950Y440796D02*
D03*
Y462795D02*
D03*
Y429795D02*
D03*
Y451796D02*
D03*
Y407796D02*
D03*
Y473795D02*
D03*
Y495795D02*
D03*
Y418796D02*
D03*
Y484795D02*
D03*
D70*
X1616949Y352795D02*
D03*
Y508093D02*
D03*
D71*
X1520950Y358295D02*
D03*
D72*
Y508093D02*
D03*
D73*
X135447Y717678D02*
D03*
X122747D02*
D03*
X110047D02*
D03*
X97347D02*
D03*
X135447Y774178D02*
D03*
X122747D02*
D03*
X110047D02*
D03*
X97347D02*
D03*
D74*
X116397Y745928D02*
D03*
D75*
X185630Y779681D02*
D03*
Y737681D02*
D03*
D76*
X138755Y816414D02*
D03*
X174305D02*
D03*
D77*
X93835Y508196D02*
D03*
D78*
X522069Y626842D02*
D03*
X506069Y604842D02*
D03*
Y626842D02*
D03*
X522069Y604842D02*
D03*
D79*
X462435Y83814D02*
D03*
D80*
X197193Y1070574D02*
D03*
X253693Y1083274D02*
D03*
Y1070574D02*
D03*
Y1057874D02*
D03*
Y1045174D02*
D03*
Y1032474D02*
D03*
Y1019774D02*
D03*
Y1007074D02*
D03*
Y994374D02*
D03*
X197193Y1083274D02*
D03*
Y1057874D02*
D03*
Y1045174D02*
D03*
Y1032474D02*
D03*
Y1019774D02*
D03*
Y1007074D02*
D03*
Y994374D02*
D03*
D81*
X1473743Y1011966D02*
D03*
X1499743Y1002467D02*
D03*
X1473743D02*
D03*
X1499743Y1021467D02*
D03*
X1473743D02*
D03*
X1499743Y1011966D02*
D03*
M02*
