G04*
G04 #@! TF.GenerationSoftware,Altium Limited,Altium Designer,24.1.2 (44)*
G04*
G04 Layer_Color=65535*
%FSLAX44Y44*%
%MOMM*%
G71*
G04*
G04 #@! TF.SameCoordinates,791D3A81-C46F-493C-8474-DD763FBEB128*
G04*
G04*
G04 #@! TF.FilePolarity,Positive*
G04*
G01*
G75*
%ADD10C,0.2500*%
G36*
X1839214Y834831D02*
X1801257D01*
Y954853D01*
X1839214D01*
Y834831D01*
D02*
G37*
G36*
X56288Y854592D02*
X17526D01*
Y936108D01*
X56288D01*
Y854592D01*
D02*
G37*
G36*
X1366442Y1175514D02*
X1257886D01*
Y1215136D01*
X1366442D01*
Y1175514D01*
D02*
G37*
G36*
X678977Y1175486D02*
X524475D01*
Y1215136D01*
X678977D01*
Y1175486D01*
D02*
G37*
%LPC*%
G36*
X1806702Y942496D02*
Y942385D01*
D01*
Y942496D01*
D02*
G37*
G36*
X1811282Y949853D02*
X1806702D01*
X1809061D01*
X1808701Y949825D01*
X1808367Y949742D01*
X1808090Y949631D01*
X1807840Y949492D01*
X1807646Y949381D01*
X1807507Y949270D01*
X1807396Y949186D01*
X1807368Y949159D01*
X1807146Y948881D01*
X1806979Y948604D01*
X1806868Y948298D01*
X1806785Y948048D01*
X1806729Y947798D01*
X1806702Y947604D01*
Y947438D01*
X1806729Y947049D01*
X1806813Y946716D01*
X1806924Y946410D01*
X1807035Y946160D01*
X1807146Y945966D01*
X1807257Y945799D01*
X1807340Y945716D01*
X1807368Y945688D01*
X1807646Y945466D01*
X1807923Y945300D01*
X1808201Y945161D01*
X1808479Y945078D01*
X1808701Y945022D01*
X1808895Y944994D01*
X1809006D01*
X1809061D01*
X1809228D01*
X1809478D01*
X1809783Y945022D01*
X1810172D01*
X1810616D01*
X1811088Y945050D01*
X1812115Y945078D01*
X1812615Y945106D01*
X1813087D01*
X1813531Y945133D01*
X1813920D01*
X1814253D01*
X1814503Y945161D01*
X1814669D01*
X1814725D01*
X1814336Y943995D01*
X1813864Y942829D01*
X1813365Y941746D01*
X1812837Y940664D01*
X1812254Y939664D01*
X1811699Y938692D01*
X1811116Y937776D01*
X1810561Y936943D01*
X1810005Y936194D01*
X1809506Y935527D01*
X1809034Y934917D01*
X1808645Y934445D01*
X1808312Y934028D01*
X1808173Y933862D01*
X1808062Y933751D01*
X1807951Y933640D01*
X1807895Y933556D01*
X1807868Y933529D01*
X1807840Y933501D01*
X1807590Y933195D01*
X1807424Y932890D01*
X1807285Y932613D01*
X1807201Y932335D01*
X1807146Y932113D01*
X1807118Y931946D01*
Y931780D01*
X1807146Y931419D01*
X1807229Y931086D01*
X1807340Y930780D01*
X1807479Y930530D01*
X1807590Y930308D01*
X1807701Y930169D01*
X1807784Y930058D01*
X1807812Y930031D01*
X1808090Y929781D01*
X1808367Y929586D01*
X1808645Y929475D01*
X1808923Y929364D01*
X1809145Y929309D01*
X1809339Y929281D01*
X1809506D01*
X1809811Y929309D01*
X1810116Y929392D01*
X1810366Y929475D01*
X1810616Y929586D01*
X1810783Y929725D01*
X1810949Y929809D01*
X1811033Y929892D01*
X1811060Y929920D01*
X1811560Y930391D01*
X1812060Y930891D01*
X1812560Y931419D01*
X1813031Y932002D01*
X1813920Y933140D01*
X1814336Y933723D01*
X1814697Y934278D01*
X1815058Y934806D01*
X1815363Y935305D01*
X1815669Y935750D01*
X1815891Y936138D01*
X1816085Y936444D01*
X1816224Y936693D01*
X1816307Y936832D01*
X1816335Y936888D01*
X1816557Y936305D01*
X1816807Y935777D01*
X1817057Y935278D01*
X1817307Y934833D01*
X1817557Y934417D01*
X1817779Y934028D01*
X1818029Y933667D01*
X1818251Y933362D01*
X1818473Y933084D01*
X1818667Y932862D01*
X1818834Y932640D01*
X1819000Y932474D01*
X1819111Y932363D01*
X1819195Y932279D01*
X1819250Y932224D01*
X1819278Y932196D01*
X1819611Y931918D01*
X1819972Y931668D01*
X1820305Y931474D01*
X1820666Y931280D01*
X1820999Y931113D01*
X1821360Y931002D01*
X1821999Y930808D01*
X1822276Y930752D01*
X1822526Y930697D01*
X1822776Y930669D01*
X1822970Y930641D01*
X1823137Y930614D01*
X1823248D01*
X1823331D01*
X1823359D01*
X1823887Y930641D01*
X1824386Y930697D01*
X1824886Y930808D01*
X1825358Y930947D01*
X1825830Y931113D01*
X1826302Y931308D01*
X1827162Y931780D01*
X1827995Y932363D01*
X1828773Y932973D01*
X1829467Y933667D01*
X1830105Y934361D01*
X1830688Y935055D01*
X1831216Y935750D01*
X1831660Y936360D01*
X1832021Y936943D01*
X1832298Y937415D01*
X1832410Y937610D01*
X1832520Y937776D01*
X1832604Y937915D01*
X1832632Y938026D01*
X1832687Y938082D01*
Y938109D01*
X1832993Y938776D01*
X1833242Y939498D01*
X1833464Y940191D01*
X1833631Y940830D01*
X1833687Y941135D01*
X1833742Y941413D01*
X1833798Y941663D01*
X1833825Y941857D01*
X1833853Y942024D01*
Y942163D01*
X1833881Y942246D01*
Y942329D01*
X1833909Y942496D01*
Y942718D01*
X1833936Y942996D01*
X1833964Y943329D01*
X1833992Y943690D01*
X1834047Y944495D01*
X1834103Y945272D01*
X1834131Y945633D01*
X1834158Y945966D01*
X1834186Y946244D01*
X1834214Y946438D01*
Y947188D01*
X1834103Y947687D01*
X1833909Y948104D01*
X1833714Y948465D01*
X1833492Y948742D01*
X1833326Y948937D01*
X1833187Y949048D01*
X1833159Y949103D01*
X1833131D01*
X1832770Y949325D01*
X1832437Y949492D01*
X1832076Y949603D01*
X1831771Y949686D01*
X1831493Y949742D01*
X1831271Y949770D01*
X1831132D01*
X1831077D01*
X1816946Y949797D01*
X1816696D01*
X1816391D01*
X1815780D01*
X1815114D01*
X1814475D01*
X1813892Y949825D01*
X1813642D01*
X1813420D01*
X1813253D01*
X1813115D01*
X1813031D01*
X1813004D01*
X1812532D01*
X1812088D01*
X1811671D01*
X1811282Y949853D01*
D02*
G37*
G36*
X1832993Y927671D02*
D01*
Y913679D01*
X1832965Y914484D01*
X1832881Y915261D01*
X1832743Y916011D01*
X1832548Y916732D01*
X1832326Y917427D01*
X1832076Y918093D01*
X1831826Y918704D01*
X1831577Y919259D01*
X1831299Y919786D01*
X1831049Y920258D01*
X1830799Y920647D01*
X1830577Y920980D01*
X1830411Y921258D01*
X1830244Y921452D01*
X1830161Y921563D01*
X1830133Y921619D01*
X1829606Y922257D01*
X1829050Y922812D01*
X1828495Y923284D01*
X1827968Y923701D01*
X1827440Y924034D01*
X1826913Y924339D01*
X1826413Y924561D01*
X1825941Y924756D01*
X1825524Y924922D01*
X1825108Y925033D01*
X1824775Y925117D01*
X1824469Y925172D01*
X1824220Y925200D01*
X1824053Y925228D01*
X1823914D01*
X1823887D01*
X1823387Y925200D01*
X1822915Y925117D01*
X1822498Y924950D01*
X1822082Y924756D01*
X1821721Y924506D01*
X1821360Y924256D01*
X1821055Y923951D01*
X1820777Y923673D01*
X1820527Y923368D01*
X1820305Y923090D01*
X1820111Y922812D01*
X1819972Y922562D01*
X1819861Y922368D01*
X1819778Y922202D01*
X1819722Y922091D01*
X1819694Y922063D01*
X1819333Y921147D01*
X1819084Y920203D01*
X1818889Y919287D01*
X1818806Y918842D01*
X1818750Y918426D01*
X1818695Y918065D01*
X1818667Y917704D01*
X1818639Y917399D01*
X1818612Y917121D01*
X1818584Y916927D01*
Y916621D01*
X1818556Y915927D01*
X1818528Y915289D01*
X1818501Y914706D01*
X1818445Y914178D01*
X1818390Y913706D01*
X1818334Y913262D01*
X1818279Y912901D01*
X1818251Y912568D01*
X1818195Y912290D01*
X1818140Y912041D01*
X1818084Y911846D01*
X1818056Y911680D01*
X1818029Y911569D01*
X1818001Y911485D01*
X1817973Y911458D01*
Y911430D01*
X1817834Y911097D01*
X1817640Y910819D01*
X1817446Y910569D01*
X1817224Y910375D01*
X1817001Y910181D01*
X1816752Y910042D01*
X1816280Y909820D01*
X1815808Y909681D01*
X1815613Y909653D01*
X1815447Y909625D01*
X1815280Y909598D01*
X1815169D01*
X1815114D01*
X1815086D01*
X1814780Y909625D01*
X1814503Y909736D01*
X1814225Y909875D01*
X1813948Y910070D01*
X1813698Y910292D01*
X1813448Y910542D01*
X1813004Y911069D01*
X1812643Y911597D01*
X1812504Y911846D01*
X1812365Y912068D01*
X1812282Y912263D01*
X1812199Y912402D01*
X1812171Y912513D01*
X1812143Y912540D01*
X1811921Y913068D01*
X1811727Y913595D01*
X1811393Y914623D01*
X1811171Y915622D01*
X1811060Y916066D01*
X1811005Y916510D01*
X1810949Y916899D01*
X1810921Y917260D01*
X1810866Y917593D01*
Y917843D01*
X1810838Y918065D01*
Y918371D01*
X1810866Y919009D01*
X1810921Y919564D01*
X1811033Y920092D01*
X1811171Y920564D01*
X1811338Y920980D01*
X1811505Y921341D01*
X1811699Y921674D01*
X1811921Y921952D01*
X1812115Y922174D01*
X1812310Y922368D01*
X1812476Y922535D01*
X1812643Y922674D01*
X1812782Y922757D01*
X1812893Y922812D01*
X1812948Y922868D01*
X1812976D01*
X1813253Y923007D01*
X1813531Y923173D01*
X1813725Y923368D01*
X1813920Y923534D01*
X1814086Y923729D01*
X1814225Y923923D01*
X1814420Y924312D01*
X1814531Y924672D01*
X1814586Y924950D01*
X1814614Y925061D01*
Y925200D01*
X1814586Y925616D01*
X1814503Y925977D01*
X1814364Y926283D01*
X1814253Y926560D01*
X1814114Y926755D01*
X1813975Y926921D01*
X1813892Y927004D01*
X1813864Y927032D01*
X1813587Y927254D01*
X1813281Y927393D01*
X1812976Y927504D01*
X1812670Y927588D01*
X1812421Y927643D01*
X1812226Y927671D01*
X1832993D01*
X1806257D01*
X1812032D01*
X1811643Y927643D01*
X1811255Y927588D01*
X1810866Y927477D01*
X1810533Y927338D01*
X1809867Y927004D01*
X1809311Y926588D01*
X1809089Y926394D01*
X1808867Y926199D01*
X1808673Y926033D01*
X1808506Y925866D01*
X1808395Y925727D01*
X1808312Y925616D01*
X1808256Y925561D01*
X1808229Y925533D01*
X1807895Y925033D01*
X1807590Y924506D01*
X1807312Y923951D01*
X1807090Y923368D01*
X1806896Y922785D01*
X1806729Y922202D01*
X1806618Y921619D01*
X1806507Y921063D01*
X1806424Y920564D01*
X1806369Y920064D01*
X1806313Y919648D01*
X1806285Y919259D01*
X1806257Y918953D01*
Y918537D01*
X1806285Y917593D01*
X1806341Y916705D01*
X1806424Y915844D01*
X1806535Y915011D01*
X1806674Y914206D01*
X1806813Y913484D01*
X1806979Y912790D01*
X1807146Y912152D01*
X1807285Y911597D01*
X1807451Y911069D01*
X1807590Y910625D01*
X1807729Y910264D01*
X1807840Y909958D01*
X1807923Y909736D01*
X1807979Y909625D01*
X1808006Y909570D01*
X1808229Y909098D01*
X1808479Y908654D01*
X1808728Y908237D01*
X1808978Y907876D01*
X1809506Y907182D01*
X1810061Y906572D01*
X1810644Y906072D01*
X1811199Y905655D01*
X1811754Y905322D01*
X1812310Y905045D01*
X1812837Y904850D01*
X1813309Y904684D01*
X1813753Y904573D01*
X1814114Y904489D01*
X1814420Y904434D01*
X1814669Y904406D01*
X1806257D01*
X1832993D01*
Y927671D01*
D02*
G37*
G36*
X1834214Y901463D02*
X1811171D01*
X1810588Y901435D01*
X1810089Y901408D01*
X1809672Y901352D01*
X1809311Y901297D01*
X1809034Y901241D01*
X1808867Y901186D01*
X1808728Y901130D01*
X1808701D01*
X1808479Y901019D01*
X1808284Y900880D01*
X1807951Y900547D01*
X1807729Y900214D01*
X1807590Y899853D01*
X1807479Y899520D01*
X1807451Y899242D01*
X1807424Y899131D01*
Y898826D01*
X1807396Y898632D01*
X1807368Y898493D01*
X1807340Y898465D01*
Y898437D01*
X1807312Y898187D01*
X1807285Y898021D01*
Y897604D01*
X1807312Y897271D01*
X1807340Y896938D01*
X1807368Y896605D01*
Y896300D01*
X1807396Y896077D01*
X1807424Y895911D01*
Y895855D01*
X1807479Y895383D01*
X1807534Y894967D01*
X1807562Y894606D01*
Y894328D01*
X1807590Y894106D01*
Y893829D01*
X1807562Y888665D01*
Y888498D01*
X1807534Y888304D01*
X1807507Y887860D01*
X1807479Y887665D01*
X1807451Y887499D01*
X1807424Y887388D01*
Y887360D01*
X1807368Y887027D01*
X1807340Y886749D01*
X1807312Y886527D01*
Y886333D01*
X1807285Y886194D01*
Y886000D01*
X1807312Y885639D01*
X1807396Y885306D01*
X1807507Y885000D01*
X1807646Y884778D01*
X1807784Y884584D01*
X1807895Y884417D01*
X1807979Y884334D01*
X1808006Y884306D01*
X1808284Y884084D01*
X1808562Y883918D01*
X1808812Y883807D01*
X1809061Y883723D01*
X1809284Y883668D01*
X1809450Y883640D01*
X1807285D01*
X1834214D01*
Y892607D01*
X1834158Y893079D01*
X1834020Y893940D01*
X1833825Y894717D01*
X1833714Y895106D01*
X1833603Y895439D01*
X1833464Y895744D01*
X1833353Y896022D01*
X1833242Y896272D01*
X1833159Y896494D01*
X1833076Y896660D01*
X1833020Y896771D01*
X1832993Y896855D01*
X1832965Y896882D01*
X1832604Y897493D01*
X1832160Y898132D01*
X1831715Y898743D01*
X1831271Y899326D01*
X1830855Y899825D01*
X1830688Y900047D01*
X1830522Y900214D01*
X1830411Y900380D01*
X1830300Y900492D01*
X1830244Y900547D01*
X1830216Y900575D01*
X1829911Y900853D01*
X1829606Y901075D01*
X1829300Y901213D01*
X1829023Y901324D01*
X1828773Y901380D01*
X1828578Y901408D01*
X1828439Y901435D01*
X1828384D01*
X1828023Y901408D01*
X1827718Y901297D01*
X1827440Y901158D01*
X1827246Y900991D01*
X1827051Y900853D01*
X1826940Y900714D01*
X1826857Y900603D01*
X1826829Y900575D01*
X1826691Y900297D01*
X1826579Y900020D01*
X1826496Y899742D01*
X1826441Y899492D01*
X1826413Y899270D01*
X1826385Y899103D01*
Y898937D01*
X1826413Y898770D01*
X1826468Y898604D01*
X1826524Y898409D01*
X1826635Y898187D01*
X1826913Y897715D01*
X1827218Y897243D01*
X1827496Y896799D01*
X1827634Y896605D01*
X1827773Y896438D01*
X1827884Y896300D01*
X1827940Y896189D01*
X1827995Y896133D01*
X1828023Y896105D01*
X1828328Y895716D01*
X1828578Y895328D01*
X1828800Y894967D01*
X1828995Y894606D01*
X1829161Y894273D01*
X1829272Y893940D01*
X1829494Y893357D01*
X1829550Y893107D01*
X1829606Y892885D01*
X1829633Y892690D01*
X1829661Y892496D01*
X1829689Y892385D01*
Y892191D01*
X1829661Y891802D01*
X1829578Y891413D01*
X1829467Y891052D01*
X1829356Y890719D01*
X1829245Y890442D01*
X1829133Y890220D01*
X1829050Y890081D01*
X1829023Y890025D01*
X1828773Y889664D01*
X1828523Y889387D01*
X1828301Y889192D01*
X1828106Y889054D01*
X1827940Y888970D01*
X1827801Y888942D01*
X1827718Y888915D01*
X1827690D01*
X1827218Y888942D01*
X1826774Y889026D01*
X1826329Y889165D01*
X1825913Y889359D01*
X1825497Y889553D01*
X1825136Y889803D01*
X1824775Y890053D01*
X1824469Y890303D01*
X1824164Y890553D01*
X1823914Y890803D01*
X1823692Y891052D01*
X1823498Y891247D01*
X1823331Y891441D01*
X1823220Y891580D01*
X1823165Y891663D01*
X1823137Y891691D01*
X1822554Y892579D01*
X1821999Y893412D01*
X1821471Y894217D01*
X1820999Y894939D01*
X1820777Y895245D01*
X1820611Y895550D01*
X1820444Y895800D01*
X1820305Y895994D01*
X1820194Y896189D01*
X1820111Y896300D01*
X1820055Y896383D01*
X1820027Y896411D01*
X1819722Y896855D01*
X1819389Y897271D01*
X1819084Y897660D01*
X1818778Y898021D01*
X1818501Y898354D01*
X1818223Y898659D01*
X1817945Y898909D01*
X1817695Y899159D01*
X1817473Y899353D01*
X1817279Y899548D01*
X1817085Y899687D01*
X1816946Y899798D01*
X1816807Y899909D01*
X1816724Y899964D01*
X1816668Y899992D01*
X1816640Y900020D01*
X1816224Y900269D01*
X1815780Y900492D01*
X1815336Y900686D01*
X1814864Y900853D01*
X1813948Y901102D01*
X1813087Y901269D01*
X1812698Y901352D01*
X1812337Y901380D01*
X1812004Y901408D01*
X1811727Y901435D01*
X1811477Y901463D01*
X1834214D01*
D02*
G37*
G36*
X1812365Y879892D02*
X1812199D01*
D01*
X1806507D01*
X1812199D01*
X1811893Y879864D01*
X1811643Y879809D01*
X1811532D01*
X1811449Y879781D01*
X1811421Y879753D01*
X1811393D01*
X1810949Y879559D01*
X1810533Y879337D01*
X1809783Y878837D01*
X1809422Y878559D01*
X1809117Y878254D01*
X1808839Y877949D01*
X1808589Y877671D01*
X1808367Y877393D01*
X1808173Y877116D01*
X1808006Y876894D01*
X1807868Y876672D01*
X1807757Y876505D01*
X1807673Y876366D01*
X1807646Y876283D01*
X1807618Y876255D01*
X1807257Y875395D01*
X1806979Y874506D01*
X1806785Y873645D01*
X1806646Y872840D01*
X1806591Y872479D01*
X1806563Y872174D01*
X1806535Y871869D01*
Y871619D01*
X1806507Y871425D01*
Y879892D01*
D01*
D01*
Y862069D01*
Y871147D01*
X1806535Y870453D01*
X1806618Y869787D01*
X1806729Y869148D01*
X1806896Y868537D01*
X1807090Y867982D01*
X1807285Y867455D01*
X1807507Y866983D01*
X1807757Y866511D01*
X1807979Y866122D01*
X1808201Y865761D01*
X1808395Y865456D01*
X1808589Y865206D01*
X1808756Y865012D01*
X1808867Y864845D01*
X1808950Y864762D01*
X1808978Y864734D01*
X1809450Y864262D01*
X1809950Y863846D01*
X1810477Y863485D01*
X1810977Y863179D01*
X1811477Y862929D01*
X1812004Y862707D01*
X1812476Y862541D01*
X1812948Y862402D01*
X1813365Y862291D01*
X1813781Y862207D01*
X1814142Y862152D01*
X1814447Y862096D01*
X1814697D01*
X1814864Y862069D01*
X1806507D01*
X1834047D01*
X1815030D01*
X1815835Y862096D01*
X1816585Y862235D01*
X1817279Y862402D01*
X1817918Y862624D01*
X1818501Y862902D01*
X1819028Y863207D01*
X1819500Y863540D01*
X1819944Y863873D01*
X1820305Y864206D01*
X1820611Y864539D01*
X1820888Y864845D01*
X1821110Y865123D01*
X1821277Y865345D01*
X1821416Y865511D01*
X1821471Y865650D01*
X1821499Y865678D01*
X1821804Y865150D01*
X1822165Y864706D01*
X1822526Y864317D01*
X1822859Y864012D01*
X1823165Y863762D01*
X1823414Y863596D01*
X1823581Y863485D01*
X1823609Y863457D01*
X1823637D01*
X1824164Y863207D01*
X1824719Y863013D01*
X1825275Y862902D01*
X1825774Y862791D01*
X1826246Y862735D01*
X1826441D01*
X1826579Y862707D01*
X1826718D01*
X1826829D01*
X1826885D01*
X1826913D01*
X1827551Y862735D01*
X1828162Y862818D01*
X1828717Y862957D01*
X1829245Y863124D01*
X1829744Y863318D01*
X1830188Y863540D01*
X1830577Y863790D01*
X1830938Y864040D01*
X1831271Y864290D01*
X1831549Y864539D01*
X1831771Y864762D01*
X1831965Y864956D01*
X1832132Y865123D01*
X1832243Y865261D01*
X1832298Y865345D01*
X1832326Y865372D01*
X1832632Y865844D01*
X1832881Y866344D01*
X1833131Y866872D01*
X1833326Y867399D01*
X1833492Y867926D01*
X1833631Y868454D01*
X1833742Y868981D01*
X1833825Y869481D01*
X1833909Y869953D01*
X1833964Y870370D01*
X1833992Y870758D01*
X1834020Y871091D01*
X1834047Y871369D01*
Y871758D01*
X1834020Y872091D01*
X1833992Y872424D01*
X1833853Y873118D01*
X1833631Y873840D01*
X1833381Y874506D01*
X1833270Y874839D01*
X1833131Y875117D01*
X1833020Y875367D01*
X1832937Y875589D01*
X1832826Y875783D01*
X1832770Y875922D01*
X1832743Y876005D01*
X1832715Y876033D01*
X1832437Y876561D01*
X1832160Y877005D01*
X1831910Y877393D01*
X1831632Y877727D01*
X1831382Y878032D01*
X1831132Y878254D01*
X1830910Y878448D01*
X1830688Y878615D01*
X1830494Y878726D01*
X1830327Y878809D01*
X1830022Y878920D01*
X1829911Y878948D01*
X1829828Y878976D01*
X1829800D01*
X1829772D01*
X1829439Y878948D01*
X1829133Y878865D01*
X1828856Y878754D01*
X1828606Y878615D01*
X1828412Y878504D01*
X1828273Y878393D01*
X1828162Y878310D01*
X1828134Y878282D01*
X1827912Y878004D01*
X1827745Y877727D01*
X1827607Y877449D01*
X1827523Y877171D01*
X1827468Y876949D01*
X1827440Y876755D01*
Y876588D01*
X1827496Y876311D01*
X1827607Y875978D01*
X1827773Y875617D01*
X1827968Y875256D01*
X1828134Y874895D01*
X1828301Y874617D01*
X1828384Y874506D01*
X1828412Y874451D01*
X1828467Y874395D01*
Y874367D01*
X1828828Y873757D01*
X1829078Y873201D01*
X1829272Y872702D01*
X1829383Y872257D01*
X1829467Y871897D01*
X1829494Y871619D01*
X1829522Y871508D01*
Y871369D01*
X1829494Y870647D01*
X1829411Y870009D01*
X1829272Y869454D01*
X1829106Y868981D01*
X1828911Y868565D01*
X1828689Y868232D01*
X1828439Y867954D01*
X1828217Y867760D01*
X1827968Y867593D01*
X1827718Y867455D01*
X1827496Y867371D01*
X1827301Y867316D01*
X1827135Y867288D01*
X1826996Y867260D01*
X1826913D01*
X1826885D01*
X1826607Y867288D01*
X1826329Y867371D01*
X1826080Y867482D01*
X1825885Y867593D01*
X1825719Y867704D01*
X1825580Y867815D01*
X1825497Y867871D01*
X1825469Y867899D01*
X1825247Y868149D01*
X1825080Y868426D01*
X1824775Y869009D01*
X1824664Y869259D01*
X1824581Y869481D01*
X1824525Y869620D01*
X1824497Y869648D01*
Y869676D01*
X1824331Y870370D01*
X1824192Y871036D01*
X1824053Y871674D01*
X1823914Y872257D01*
X1823831Y872757D01*
X1823775Y872952D01*
X1823748Y873118D01*
X1823720Y873257D01*
X1823692Y873368D01*
X1823664Y873423D01*
Y873451D01*
X1823526Y873784D01*
X1823387Y874090D01*
X1823220Y874367D01*
X1823054Y874589D01*
X1822887Y874784D01*
X1822693Y874950D01*
X1822526Y875061D01*
X1822360Y875173D01*
X1822026Y875311D01*
X1821776Y875395D01*
X1821665Y875422D01*
X1821582D01*
X1821554D01*
X1821527D01*
X1821194Y875395D01*
X1820888Y875311D01*
X1820611Y875173D01*
X1820388Y875034D01*
X1820194Y874839D01*
X1820000Y874617D01*
X1819750Y874145D01*
X1819556Y873673D01*
X1819500Y873451D01*
X1819444Y873257D01*
X1819417Y873090D01*
Y872979D01*
X1819389Y872896D01*
Y872868D01*
X1819333Y872341D01*
X1819250Y871841D01*
X1819139Y871369D01*
X1819000Y870925D01*
X1818862Y870508D01*
X1818723Y870147D01*
X1818556Y869787D01*
X1818362Y869454D01*
X1817973Y868898D01*
X1817557Y868426D01*
X1817140Y868038D01*
X1816696Y867704D01*
X1816252Y867482D01*
X1815835Y867288D01*
X1815447Y867149D01*
X1815114Y867066D01*
X1814836Y867010D01*
X1814614Y866983D01*
X1814475D01*
X1814420D01*
X1814170D01*
X1813920Y867038D01*
X1813476Y867177D01*
X1813059Y867399D01*
X1812698Y867621D01*
X1812421Y867843D01*
X1812199Y868065D01*
X1812088Y868204D01*
X1812032Y868232D01*
Y868260D01*
X1811699Y868732D01*
X1811449Y869231D01*
X1811282Y869731D01*
X1811171Y870175D01*
X1811088Y870592D01*
X1811060Y870897D01*
X1811033Y871008D01*
Y871175D01*
X1811060Y871924D01*
X1811171Y872563D01*
X1811310Y873118D01*
X1811477Y873562D01*
X1811616Y873923D01*
X1811754Y874173D01*
X1811865Y874312D01*
X1811893Y874367D01*
X1811949Y874395D01*
X1812004Y874478D01*
X1812199Y874645D01*
X1812476Y874839D01*
X1812754Y875089D01*
X1813059Y875311D01*
X1813309Y875478D01*
X1813476Y875617D01*
X1813503Y875672D01*
X1813531D01*
X1813837Y875950D01*
X1814059Y876227D01*
X1814198Y876533D01*
X1814308Y876810D01*
X1814364Y877060D01*
X1814420Y877255D01*
Y877449D01*
X1814392Y877782D01*
X1814336Y878115D01*
X1814225Y878393D01*
X1814114Y878643D01*
X1814003Y878837D01*
X1813892Y878976D01*
X1813837Y879087D01*
X1813809Y879115D01*
X1813559Y879365D01*
X1813281Y879559D01*
X1813031Y879698D01*
X1812754Y879781D01*
X1812532Y879837D01*
X1812365Y879892D01*
D02*
G37*
G36*
X1834214Y857654D02*
D01*
Y848798D01*
X1834158Y849270D01*
X1834020Y850131D01*
X1833825Y850908D01*
X1833714Y851297D01*
X1833603Y851630D01*
X1833464Y851936D01*
X1833353Y852213D01*
X1833242Y852463D01*
X1833159Y852685D01*
X1833076Y852852D01*
X1833020Y852963D01*
X1832993Y853046D01*
X1832965Y853074D01*
X1832604Y853684D01*
X1832160Y854323D01*
X1831715Y854934D01*
X1831271Y855517D01*
X1830855Y856017D01*
X1830688Y856239D01*
X1830522Y856405D01*
X1830411Y856572D01*
X1830300Y856683D01*
X1830244Y856738D01*
X1830216Y856766D01*
X1829911Y857044D01*
X1829606Y857266D01*
X1829300Y857405D01*
X1829023Y857516D01*
X1828773Y857571D01*
X1828578Y857599D01*
X1828439Y857627D01*
X1828384D01*
X1828023Y857599D01*
X1827718Y857488D01*
X1827440Y857349D01*
X1827246Y857183D01*
X1827051Y857044D01*
X1826940Y856905D01*
X1826857Y856794D01*
X1826829Y856766D01*
X1826691Y856488D01*
X1826579Y856211D01*
X1826496Y855933D01*
X1826441Y855683D01*
X1826413Y855461D01*
X1826385Y855295D01*
Y855128D01*
X1826413Y854962D01*
X1826468Y854795D01*
X1826524Y854601D01*
X1826635Y854379D01*
X1826913Y853907D01*
X1827218Y853435D01*
X1827496Y852990D01*
X1827634Y852796D01*
X1827773Y852630D01*
X1827884Y852491D01*
X1827940Y852380D01*
X1827995Y852324D01*
X1828023Y852296D01*
X1828328Y851908D01*
X1828578Y851519D01*
X1828800Y851158D01*
X1828995Y850797D01*
X1829161Y850464D01*
X1829272Y850131D01*
X1829494Y849548D01*
X1829550Y849298D01*
X1829606Y849076D01*
X1829633Y848882D01*
X1829661Y848687D01*
X1829689Y848576D01*
Y848382D01*
X1829661Y847993D01*
X1829578Y847605D01*
X1829467Y847244D01*
X1829356Y846910D01*
X1829245Y846633D01*
X1829133Y846411D01*
X1829050Y846272D01*
X1829023Y846217D01*
X1828773Y845856D01*
X1828523Y845578D01*
X1828301Y845384D01*
X1828106Y845245D01*
X1827940Y845162D01*
X1827801Y845134D01*
X1827718Y845106D01*
X1827690D01*
X1827218Y845134D01*
X1826774Y845217D01*
X1826329Y845356D01*
X1825913Y845550D01*
X1825497Y845744D01*
X1825136Y845994D01*
X1824775Y846244D01*
X1824469Y846494D01*
X1824164Y846744D01*
X1823914Y846994D01*
X1823692Y847244D01*
X1823498Y847438D01*
X1823331Y847632D01*
X1823220Y847771D01*
X1823165Y847855D01*
X1823137Y847882D01*
X1822554Y848771D01*
X1821999Y849604D01*
X1821471Y850409D01*
X1820999Y851130D01*
X1820777Y851436D01*
X1820611Y851741D01*
X1820444Y851991D01*
X1820305Y852185D01*
X1820194Y852380D01*
X1820111Y852491D01*
X1820055Y852574D01*
X1820027Y852602D01*
X1819722Y853046D01*
X1819389Y853462D01*
X1819084Y853851D01*
X1818778Y854212D01*
X1818501Y854545D01*
X1818223Y854850D01*
X1817945Y855100D01*
X1817695Y855350D01*
X1817473Y855545D01*
X1817279Y855739D01*
X1817085Y855878D01*
X1816946Y855989D01*
X1816807Y856100D01*
X1816724Y856155D01*
X1816668Y856183D01*
X1816640Y856211D01*
X1816224Y856461D01*
X1815780Y856683D01*
X1815336Y856877D01*
X1814864Y857044D01*
X1813948Y857294D01*
X1813087Y857460D01*
X1812698Y857543D01*
X1812337Y857571D01*
X1812004Y857599D01*
X1811727Y857627D01*
X1811477Y857654D01*
X1834214D01*
X1811171D01*
X1810588Y857627D01*
X1810089Y857599D01*
X1809672Y857543D01*
X1809311Y857488D01*
X1809034Y857432D01*
X1808867Y857377D01*
X1808728Y857321D01*
X1808701D01*
X1808479Y857210D01*
X1808284Y857072D01*
X1807951Y856738D01*
X1807729Y856405D01*
X1807590Y856044D01*
X1807479Y855711D01*
X1807451Y855434D01*
X1807424Y855322D01*
Y855017D01*
X1807396Y854823D01*
X1807368Y854684D01*
X1807340Y854656D01*
Y854628D01*
X1807312Y854379D01*
X1807285Y854212D01*
Y853796D01*
X1807312Y853462D01*
X1807340Y853129D01*
X1807368Y852796D01*
Y852491D01*
X1807396Y852269D01*
X1807424Y852102D01*
Y852047D01*
X1807479Y851575D01*
X1807534Y851158D01*
X1807562Y850797D01*
Y850520D01*
X1807590Y850297D01*
Y850020D01*
X1807562Y844856D01*
Y844690D01*
X1807534Y844495D01*
X1807507Y844051D01*
X1807479Y843857D01*
X1807451Y843690D01*
X1807424Y843579D01*
Y843551D01*
X1807368Y843218D01*
X1807340Y842941D01*
X1807312Y842719D01*
Y842524D01*
X1807285Y842385D01*
Y842191D01*
X1807312Y841830D01*
X1807396Y841497D01*
X1807507Y841191D01*
X1807646Y840969D01*
X1807784Y840775D01*
X1807895Y840609D01*
X1807979Y840525D01*
X1808006Y840498D01*
X1808284Y840275D01*
X1808562Y840109D01*
X1808812Y839998D01*
X1809061Y839914D01*
X1809284Y839859D01*
X1809450Y839831D01*
X1807285D01*
X1834214D01*
Y857654D01*
D02*
G37*
%LPD*%
G36*
X1829245Y944717D02*
X1829217Y944411D01*
Y944162D01*
X1829189Y943939D01*
X1829161Y943745D01*
Y943578D01*
X1829133Y943329D01*
Y943162D01*
X1829106Y943079D01*
Y943023D01*
X1829050Y942524D01*
X1828939Y942052D01*
X1828689Y941135D01*
X1828384Y940275D01*
X1828190Y939886D01*
X1828023Y939525D01*
X1827856Y939192D01*
X1827690Y938914D01*
X1827551Y938665D01*
X1827412Y938443D01*
X1827301Y938248D01*
X1827218Y938137D01*
X1827162Y938054D01*
X1827135Y938026D01*
X1826801Y937582D01*
X1826468Y937193D01*
X1826107Y936860D01*
X1825774Y936582D01*
X1825469Y936333D01*
X1825136Y936138D01*
X1824858Y935972D01*
X1824581Y935833D01*
X1824303Y935750D01*
X1824081Y935666D01*
X1823859Y935611D01*
X1823692Y935555D01*
X1823553D01*
X1823442Y935527D01*
X1823387D01*
X1823359D01*
X1823192Y935555D01*
X1823026Y935639D01*
X1822832Y935777D01*
X1822637Y935888D01*
X1822471Y936027D01*
X1822332Y936166D01*
X1822249Y936249D01*
X1822221Y936277D01*
X1821943Y936555D01*
X1821721Y936860D01*
X1821499Y937138D01*
X1821332Y937388D01*
X1821194Y937582D01*
X1821082Y937776D01*
X1821027Y937887D01*
X1820999Y937915D01*
X1820805Y938332D01*
X1820638Y938776D01*
X1820500Y939275D01*
X1820388Y939803D01*
X1820194Y940858D01*
X1820083Y941885D01*
X1820027Y942385D01*
X1820000Y942829D01*
X1819972Y943245D01*
Y943606D01*
X1819944Y943884D01*
Y944550D01*
X1819972Y944800D01*
Y945050D01*
X1829272D01*
X1829245Y944717D01*
D02*
G37*
G36*
X1825025Y920036D02*
X1825247Y919981D01*
X1825469Y919870D01*
X1825691Y919731D01*
X1826080Y919398D01*
X1826441Y919009D01*
X1826718Y918648D01*
X1826940Y918315D01*
X1827024Y918176D01*
X1827079Y918065D01*
X1827135Y918009D01*
Y917982D01*
X1827496Y917204D01*
X1827773Y916455D01*
X1827968Y915733D01*
X1828106Y915067D01*
X1828134Y914761D01*
X1828190Y914511D01*
X1828217Y914262D01*
Y914067D01*
X1828245Y913901D01*
Y913679D01*
X1828217Y913345D01*
X1828190Y912929D01*
X1828134Y912540D01*
X1828079Y912124D01*
X1827995Y911763D01*
X1827940Y911485D01*
X1827912Y911374D01*
Y911291D01*
X1827884Y911236D01*
Y911208D01*
X1827773Y910625D01*
X1827690Y910125D01*
X1827634Y909709D01*
X1827607Y909348D01*
X1827579Y909098D01*
X1827551Y908904D01*
Y908737D01*
X1827579Y908348D01*
X1827662Y907987D01*
X1827801Y907682D01*
X1827940Y907404D01*
X1828079Y907210D01*
X1828217Y907044D01*
X1828301Y906960D01*
X1828328Y906932D01*
X1828606Y906710D01*
X1828884Y906572D01*
X1829133Y906460D01*
X1829383Y906377D01*
X1829606Y906322D01*
X1829772Y906294D01*
X1829911D01*
X1829939D01*
X1830188Y906322D01*
X1830411Y906433D01*
X1830633Y906572D01*
X1830827Y906794D01*
X1831021Y907016D01*
X1831216Y907293D01*
X1831549Y907849D01*
X1831826Y908432D01*
X1831938Y908709D01*
X1832021Y908931D01*
X1832076Y909153D01*
X1832132Y909292D01*
X1832187Y909403D01*
Y909431D01*
X1832465Y910347D01*
X1832659Y911152D01*
X1832798Y911874D01*
X1832854Y912207D01*
X1832881Y912513D01*
X1832937Y912763D01*
X1832965Y913012D01*
Y913207D01*
X1832993Y913373D01*
Y904406D01*
X1814864D01*
X1815530Y904434D01*
X1816169Y904517D01*
X1816779Y904628D01*
X1817335Y904795D01*
X1817834Y904989D01*
X1818334Y905183D01*
X1818750Y905433D01*
X1819139Y905655D01*
X1819500Y905878D01*
X1819805Y906100D01*
X1820055Y906322D01*
X1820277Y906516D01*
X1820444Y906683D01*
X1820583Y906794D01*
X1820638Y906877D01*
X1820666Y906905D01*
X1820999Y907349D01*
X1821305Y907821D01*
X1821582Y908320D01*
X1821804Y908820D01*
X1821999Y909320D01*
X1822193Y909847D01*
X1822471Y910819D01*
X1822582Y911291D01*
X1822665Y911708D01*
X1822720Y912096D01*
X1822776Y912429D01*
X1822832Y912679D01*
Y912901D01*
X1822859Y913012D01*
Y913068D01*
X1822915Y913901D01*
X1822943Y914706D01*
X1822970Y915455D01*
X1823026Y916122D01*
Y916427D01*
X1823054Y916677D01*
Y917121D01*
X1823081Y917288D01*
Y917510D01*
X1823165Y917954D01*
X1823248Y918343D01*
X1823359Y918676D01*
X1823470Y918953D01*
X1823553Y919148D01*
X1823637Y919314D01*
X1823664Y919398D01*
X1823692Y919425D01*
X1823859Y919648D01*
X1824025Y919786D01*
X1824220Y919897D01*
X1824386Y919981D01*
X1824553Y920036D01*
X1824664Y920064D01*
X1824747D01*
X1824775D01*
X1825025Y920036D01*
D02*
G37*
G36*
X1812393Y896522D02*
X1812865Y896383D01*
X1813365Y896189D01*
X1813809Y895966D01*
X1814253Y895689D01*
X1814642Y895383D01*
X1815030Y895078D01*
X1815391Y894745D01*
X1815697Y894412D01*
X1815974Y894106D01*
X1816224Y893829D01*
X1816418Y893579D01*
X1816585Y893357D01*
X1816696Y893190D01*
X1816779Y893079D01*
X1816807Y893051D01*
X1817307Y892218D01*
X1817807Y891441D01*
X1818279Y890692D01*
X1818695Y890025D01*
X1818889Y889748D01*
X1819056Y889470D01*
X1819195Y889248D01*
X1819306Y889054D01*
X1819417Y888887D01*
X1819500Y888776D01*
X1819528Y888693D01*
X1819556Y888665D01*
X1819861Y888249D01*
X1820139Y887860D01*
X1820444Y887499D01*
X1820722Y887166D01*
X1820999Y886860D01*
X1821277Y886583D01*
X1821749Y886111D01*
X1822165Y885750D01*
X1822360Y885611D01*
X1822498Y885500D01*
X1822609Y885417D01*
X1822693Y885361D01*
X1822748Y885306D01*
X1822776D01*
X1823165Y885056D01*
X1823581Y884834D01*
X1824025Y884667D01*
X1824442Y884501D01*
X1825302Y884251D01*
X1826107Y884084D01*
X1826468Y884029D01*
X1826801Y884001D01*
X1827107Y883945D01*
X1827357D01*
X1827579Y883918D01*
X1827718D01*
X1827829D01*
X1827856D01*
X1828384Y883945D01*
X1828911Y884029D01*
X1829383Y884167D01*
X1829828Y884362D01*
X1830272Y884556D01*
X1830660Y884806D01*
X1831021Y885056D01*
X1831327Y885306D01*
X1831632Y885583D01*
X1831882Y885833D01*
X1832104Y886083D01*
X1832271Y886277D01*
X1832410Y886472D01*
X1832520Y886610D01*
X1832576Y886694D01*
X1832604Y886721D01*
X1832881Y887194D01*
X1833131Y887638D01*
X1833353Y888110D01*
X1833548Y888582D01*
X1833687Y889054D01*
X1833825Y889498D01*
X1833936Y889942D01*
X1834020Y890358D01*
X1834075Y890719D01*
X1834131Y891080D01*
X1834158Y891386D01*
X1834186Y891663D01*
X1834214Y891858D01*
Y883640D01*
X1809617D01*
X1809839Y883668D01*
X1810061Y883723D01*
X1810283Y883807D01*
X1810477Y883918D01*
X1810811Y884223D01*
X1811116Y884556D01*
X1811338Y884889D01*
X1811532Y885195D01*
X1811588Y885306D01*
X1811643Y885389D01*
X1811671Y885444D01*
Y885472D01*
X1811893Y886028D01*
X1812060Y886555D01*
X1812171Y887055D01*
X1812254Y887499D01*
X1812310Y887888D01*
X1812337Y888193D01*
Y889137D01*
X1812310Y889526D01*
Y889942D01*
X1812282Y890830D01*
X1812254Y891719D01*
X1812226Y892135D01*
X1812199Y892524D01*
Y892857D01*
X1812171Y893162D01*
Y893412D01*
X1812143Y893607D01*
Y893773D01*
X1812088Y894439D01*
X1812032Y895022D01*
X1811976Y895494D01*
X1811949Y895883D01*
X1811921Y896216D01*
X1811893Y896438D01*
X1811865Y896549D01*
Y896605D01*
X1812393Y896522D01*
D02*
G37*
G36*
Y852713D02*
X1812865Y852574D01*
X1813365Y852380D01*
X1813809Y852158D01*
X1814253Y851880D01*
X1814642Y851575D01*
X1815030Y851269D01*
X1815391Y850936D01*
X1815697Y850603D01*
X1815974Y850297D01*
X1816224Y850020D01*
X1816418Y849770D01*
X1816585Y849548D01*
X1816696Y849381D01*
X1816779Y849270D01*
X1816807Y849243D01*
X1817307Y848410D01*
X1817807Y847632D01*
X1818279Y846883D01*
X1818695Y846217D01*
X1818889Y845939D01*
X1819056Y845661D01*
X1819195Y845439D01*
X1819306Y845245D01*
X1819417Y845078D01*
X1819500Y844967D01*
X1819528Y844884D01*
X1819556Y844856D01*
X1819861Y844440D01*
X1820139Y844051D01*
X1820444Y843690D01*
X1820722Y843357D01*
X1820999Y843052D01*
X1821277Y842774D01*
X1821749Y842302D01*
X1822165Y841941D01*
X1822360Y841802D01*
X1822498Y841691D01*
X1822609Y841608D01*
X1822693Y841552D01*
X1822748Y841497D01*
X1822776D01*
X1823165Y841247D01*
X1823581Y841025D01*
X1824025Y840858D01*
X1824442Y840692D01*
X1825302Y840442D01*
X1826107Y840275D01*
X1826468Y840220D01*
X1826801Y840192D01*
X1827107Y840137D01*
X1827357D01*
X1827579Y840109D01*
X1827718D01*
X1827829D01*
X1827856D01*
X1828384Y840137D01*
X1828911Y840220D01*
X1829383Y840359D01*
X1829828Y840553D01*
X1830272Y840747D01*
X1830660Y840997D01*
X1831021Y841247D01*
X1831327Y841497D01*
X1831632Y841775D01*
X1831882Y842024D01*
X1832104Y842274D01*
X1832271Y842469D01*
X1832410Y842663D01*
X1832520Y842802D01*
X1832576Y842885D01*
X1832604Y842913D01*
X1832881Y843385D01*
X1833131Y843829D01*
X1833353Y844301D01*
X1833548Y844773D01*
X1833687Y845245D01*
X1833825Y845689D01*
X1833936Y846133D01*
X1834020Y846550D01*
X1834075Y846910D01*
X1834131Y847271D01*
X1834158Y847577D01*
X1834186Y847855D01*
X1834214Y848049D01*
Y839831D01*
X1809617D01*
X1809839Y839859D01*
X1810061Y839914D01*
X1810283Y839998D01*
X1810477Y840109D01*
X1810811Y840414D01*
X1811116Y840747D01*
X1811338Y841080D01*
X1811532Y841386D01*
X1811588Y841497D01*
X1811643Y841580D01*
X1811671Y841636D01*
Y841664D01*
X1811893Y842219D01*
X1812060Y842746D01*
X1812171Y843246D01*
X1812254Y843690D01*
X1812310Y844079D01*
X1812337Y844384D01*
Y845328D01*
X1812310Y845717D01*
Y846133D01*
X1812282Y847022D01*
X1812254Y847910D01*
X1812226Y848326D01*
X1812199Y848715D01*
Y849048D01*
X1812171Y849354D01*
Y849604D01*
X1812143Y849798D01*
Y849964D01*
X1812088Y850631D01*
X1812032Y851214D01*
X1811976Y851686D01*
X1811949Y852074D01*
X1811921Y852408D01*
X1811893Y852630D01*
X1811865Y852741D01*
Y852796D01*
X1812393Y852713D01*
D02*
G37*
%LPC*%
G36*
X50871Y931108D02*
X22526D01*
Y911869D01*
D01*
Y918892D01*
X22554Y918365D01*
Y917893D01*
X22582Y917449D01*
X22609Y917060D01*
X22637Y916699D01*
X22693Y916366D01*
X22720Y916088D01*
X22748Y915838D01*
X22804Y915616D01*
X22831Y915450D01*
X22859Y915283D01*
X22887Y915172D01*
Y915089D01*
X22915Y915061D01*
Y915033D01*
X22998Y914534D01*
X23109Y914090D01*
X23220Y913701D01*
X23387Y913368D01*
X23525Y913062D01*
X23692Y912812D01*
X23886Y912618D01*
X24053Y912451D01*
X24220Y912313D01*
X24386Y912202D01*
X24664Y912063D01*
X24747Y912007D01*
X24830D01*
X24886Y911980D01*
X24913D01*
X25274Y911924D01*
X25663Y911896D01*
X26052Y911869D01*
X50871D01*
X27190D01*
X27634Y911896D01*
X28078Y911924D01*
X28467D01*
X28828Y911952D01*
X29133D01*
X29383Y911980D01*
X29522D01*
X29550D01*
X29578D01*
X48123D01*
X48484Y912007D01*
X48845Y912118D01*
X49150Y912229D01*
X49428Y912396D01*
X49677Y912535D01*
X49844Y912674D01*
X49983Y912757D01*
X50011Y912785D01*
X50288Y913118D01*
X50510Y913423D01*
X50649Y913756D01*
X50760Y914034D01*
X50816Y914284D01*
X50843Y914506D01*
X50871Y914617D01*
Y914672D01*
X50843Y915811D01*
X50816Y916921D01*
X50732Y917948D01*
X50649Y918920D01*
X50510Y919836D01*
X50399Y920697D01*
X50260Y921474D01*
X50122Y922168D01*
X49983Y922807D01*
X49844Y923390D01*
X49705Y923862D01*
X49594Y924278D01*
X49511Y924584D01*
X49428Y924806D01*
X49400Y924945D01*
X49372Y925000D01*
X49067Y925694D01*
X48734Y926333D01*
X48373Y926943D01*
X48039Y927471D01*
X47734Y927915D01*
X47595Y928109D01*
X47484Y928248D01*
X47401Y928387D01*
X47318Y928470D01*
X47290Y928526D01*
X47262Y928554D01*
X46873Y928998D01*
X46485Y929387D01*
X46068Y929747D01*
X45680Y930025D01*
X45319Y930275D01*
X44958Y930497D01*
X44597Y930664D01*
X44264Y930802D01*
X43958Y930886D01*
X43709Y930969D01*
X43459Y931024D01*
X43237Y931080D01*
X43070D01*
X42959Y931108D01*
X50871D01*
D02*
G37*
G36*
X51093Y908787D02*
X24358D01*
Y885522D01*
D01*
Y899514D01*
X24386Y898709D01*
X24469Y897932D01*
X24608Y897182D01*
X24802Y896460D01*
X25025Y895766D01*
X25274Y895100D01*
X25524Y894489D01*
X25774Y893934D01*
X26052Y893407D01*
X26302Y892935D01*
X26551Y892546D01*
X26774Y892213D01*
X26940Y891935D01*
X27107Y891741D01*
X27190Y891630D01*
X27218Y891574D01*
X27745Y890936D01*
X28300Y890381D01*
X28856Y889909D01*
X29383Y889492D01*
X29911Y889159D01*
X30438Y888854D01*
X30938Y888632D01*
X31410Y888437D01*
X31826Y888271D01*
X32243Y888160D01*
X32576Y888076D01*
X32881Y888021D01*
X33131Y887993D01*
X33298Y887965D01*
X33437D01*
X33464D01*
X33964Y887993D01*
X34436Y888076D01*
X34852Y888243D01*
X35269Y888437D01*
X35630Y888687D01*
X35991Y888937D01*
X36296Y889242D01*
X36574Y889520D01*
X36823Y889825D01*
X37046Y890103D01*
X37240Y890381D01*
X37379Y890630D01*
X37490Y890825D01*
X37573Y890991D01*
X37629Y891102D01*
X37656Y891130D01*
X38017Y892046D01*
X38267Y892990D01*
X38461Y893906D01*
X38545Y894351D01*
X38600Y894767D01*
X38656Y895128D01*
X38684Y895489D01*
X38711Y895794D01*
X38739Y896072D01*
X38767Y896266D01*
Y896572D01*
X38795Y897266D01*
X38822Y897904D01*
X38850Y898487D01*
X38906Y899015D01*
X38961Y899487D01*
X39017Y899931D01*
X39072Y900292D01*
X39100Y900625D01*
X39155Y900902D01*
X39211Y901152D01*
X39267Y901347D01*
X39294Y901513D01*
X39322Y901624D01*
X39350Y901708D01*
X39378Y901735D01*
Y901763D01*
X39516Y902096D01*
X39711Y902374D01*
X39905Y902624D01*
X40127Y902818D01*
X40349Y903012D01*
X40599Y903151D01*
X41071Y903373D01*
X41543Y903512D01*
X41737Y903540D01*
X41904Y903568D01*
X42071Y903595D01*
X42182D01*
X42237D01*
X42265D01*
X42570Y903568D01*
X42848Y903457D01*
X43126Y903318D01*
X43403Y903123D01*
X43653Y902901D01*
X43903Y902652D01*
X44347Y902124D01*
X44708Y901597D01*
X44847Y901347D01*
X44986Y901124D01*
X45069Y900930D01*
X45152Y900791D01*
X45180Y900680D01*
X45208Y900653D01*
X45430Y900125D01*
X45624Y899598D01*
X45957Y898570D01*
X46179Y897571D01*
X46290Y897127D01*
X46346Y896683D01*
X46402Y896294D01*
X46429Y895933D01*
X46485Y895600D01*
Y895350D01*
X46512Y895128D01*
Y894822D01*
X46485Y894184D01*
X46429Y893629D01*
X46318Y893101D01*
X46179Y892629D01*
X46013Y892213D01*
X45846Y891852D01*
X45652Y891519D01*
X45430Y891241D01*
X45236Y891019D01*
X45041Y890825D01*
X44875Y890658D01*
X44708Y890519D01*
X44569Y890436D01*
X44458Y890381D01*
X44403Y890325D01*
X44375D01*
X44097Y890186D01*
X43820Y890020D01*
X43625Y889825D01*
X43431Y889659D01*
X43264Y889464D01*
X43126Y889270D01*
X42931Y888881D01*
X42820Y888521D01*
X42765Y888243D01*
X42737Y888132D01*
Y887993D01*
X42765Y887577D01*
X42848Y887216D01*
X42987Y886910D01*
X43098Y886633D01*
X43237Y886438D01*
X43375Y886272D01*
X43459Y886189D01*
X43486Y886161D01*
X43764Y885939D01*
X44069Y885800D01*
X44375Y885689D01*
X44680Y885605D01*
X44930Y885550D01*
X45124Y885522D01*
X45319D01*
X45707Y885550D01*
X46096Y885605D01*
X46485Y885716D01*
X46818Y885855D01*
X47484Y886189D01*
X48039Y886605D01*
X48261Y886799D01*
X48484Y886994D01*
X48678Y887160D01*
X48845Y887327D01*
X48956Y887466D01*
X49039Y887577D01*
X49094Y887632D01*
X49122Y887660D01*
X49455Y888160D01*
X49761Y888687D01*
X50038Y889242D01*
X50260Y889825D01*
X50455Y890408D01*
X50621Y890991D01*
X50732Y891574D01*
X50843Y892130D01*
X50927Y892629D01*
X50982Y893129D01*
X51038Y893546D01*
X51066Y893934D01*
X51093Y894240D01*
Y894656D01*
X51066Y895600D01*
X51010Y896488D01*
X50927Y897349D01*
X50816Y898182D01*
X50677Y898987D01*
X50538Y899709D01*
X50371Y900403D01*
X50205Y901041D01*
X50066Y901597D01*
X49900Y902124D01*
X49761Y902568D01*
X49622Y902929D01*
X49511Y903234D01*
X49428Y903457D01*
X49372Y903568D01*
X49344Y903623D01*
X49122Y904095D01*
X48872Y904539D01*
X48622Y904956D01*
X48373Y905317D01*
X47845Y906011D01*
X47290Y906621D01*
X46707Y907121D01*
X46152Y907538D01*
X45596Y907871D01*
X45041Y908148D01*
X44514Y908343D01*
X44042Y908509D01*
X43597Y908620D01*
X43237Y908704D01*
X42931Y908759D01*
X42681Y908787D01*
X51093D01*
D02*
G37*
G36*
X51288Y882968D02*
D01*
Y870808D01*
X51260Y871252D01*
X51232Y871669D01*
X51066Y872502D01*
X50843Y873279D01*
X50594Y873973D01*
X50455Y874251D01*
X50344Y874528D01*
X50233Y874778D01*
X50122Y874973D01*
X50038Y875139D01*
X49955Y875250D01*
X49927Y875333D01*
X49900Y875361D01*
X49428Y876000D01*
X48956Y876610D01*
X48484Y877138D01*
X48012Y877582D01*
X47623Y877943D01*
X47290Y878221D01*
X47179Y878304D01*
X47095Y878387D01*
X47040Y878415D01*
X47012Y878443D01*
X46263Y878970D01*
X45458Y879442D01*
X44625Y879859D01*
X43792Y880275D01*
X42959Y880608D01*
X42154Y880941D01*
X41349Y881219D01*
X40571Y881469D01*
X39850Y881663D01*
X39183Y881830D01*
X38600Y881996D01*
X38101Y882107D01*
X37684Y882191D01*
X37518Y882218D01*
X37351Y882246D01*
X37240Y882274D01*
X37157Y882302D01*
X37129D01*
X37101D01*
X36352Y882413D01*
X35519Y882524D01*
X34686Y882607D01*
X33797Y882690D01*
X31993Y882802D01*
X31105Y882857D01*
X30272Y882885D01*
X29467Y882913D01*
X28717Y882940D01*
X28051D01*
X27468Y882968D01*
X26329D01*
X26024Y882940D01*
X25774Y882885D01*
X25524Y882829D01*
X25302Y882746D01*
X25136Y882635D01*
X24997Y882579D01*
X24913Y882524D01*
X24886Y882496D01*
X24580Y882246D01*
X24358Y881969D01*
X24220Y881691D01*
X24108Y881386D01*
X24053Y881136D01*
X23997Y880914D01*
Y880470D01*
X24053Y880220D01*
X24192Y879748D01*
X24386Y879387D01*
X24608Y879054D01*
X24830Y878804D01*
X25025Y878609D01*
X25163Y878498D01*
X25191Y878471D01*
X25219D01*
X25552Y878276D01*
X25913Y878137D01*
X26218Y878054D01*
X26496Y877999D01*
X26746Y877943D01*
X26940Y877915D01*
X27051D01*
X27107D01*
X28467D01*
X29744Y877888D01*
X30938Y877832D01*
X32048Y877776D01*
X33076Y877721D01*
X34019Y877638D01*
X34880Y877554D01*
X35657Y877499D01*
X36352Y877416D01*
X36962Y877332D01*
X37462Y877249D01*
X37906Y877194D01*
X38239Y877138D01*
X38461Y877083D01*
X38600Y877055D01*
X38656D01*
X39378Y876888D01*
X40044Y876722D01*
X40683Y876527D01*
X41266Y876333D01*
X41821Y876111D01*
X42320Y875889D01*
X42792Y875639D01*
X43237Y875389D01*
X43625Y875139D01*
X43986Y874889D01*
X44319Y874639D01*
X44625Y874362D01*
X44902Y874112D01*
X45152Y873834D01*
X45569Y873335D01*
X45874Y872835D01*
X46124Y872363D01*
X46290Y871946D01*
X46402Y871558D01*
X46457Y871252D01*
X46512Y871003D01*
Y870309D01*
X46485Y869864D01*
X46457Y869448D01*
X46402Y869087D01*
X46374Y868754D01*
X46318Y868476D01*
X46263Y868226D01*
X46207Y868032D01*
X46152Y867838D01*
X46096Y867699D01*
X46068Y867560D01*
X46013Y867477D01*
X45957Y867338D01*
X45929Y867310D01*
X45707Y867060D01*
X45458Y866811D01*
X44875Y866366D01*
X44236Y866005D01*
X43625Y865700D01*
X43042Y865450D01*
X42792Y865367D01*
X42570Y865284D01*
X42376Y865228D01*
X42237Y865173D01*
X42154Y865145D01*
X42126D01*
X41266Y864950D01*
X40405Y864784D01*
X39572Y864673D01*
X38795Y864617D01*
X38461Y864589D01*
X38156Y864562D01*
X37878D01*
X37629Y864534D01*
X37434D01*
X37295D01*
X37212D01*
X37184D01*
X36851D01*
X36463Y864562D01*
X36046D01*
X35657Y864589D01*
X35269D01*
X34991Y864617D01*
X34880D01*
X34797D01*
X34741D01*
X34714D01*
X34131Y864645D01*
X33631Y864673D01*
X33187Y864700D01*
X32854Y864728D01*
X32576D01*
X32382D01*
X32271D01*
X32243D01*
X31826D01*
X31354D01*
X30855D01*
X30383D01*
X29938D01*
X29772D01*
X29605D01*
X29467D01*
X29355D01*
X29300D01*
X29272D01*
X28578D01*
X27967Y864756D01*
X27440D01*
X27023D01*
X26718D01*
X26496D01*
X26357D01*
X26302D01*
X25941Y864728D01*
X25608Y864617D01*
X25330Y864506D01*
X25080Y864340D01*
X24886Y864201D01*
X24747Y864062D01*
X24664Y863951D01*
X24636Y863923D01*
X24414Y863646D01*
X24275Y863368D01*
X24164Y863063D01*
X24081Y862813D01*
X24025Y862563D01*
X23997Y862396D01*
Y862230D01*
X24025Y862008D01*
X24081Y861786D01*
X24136Y861591D01*
X24247Y861425D01*
X24525Y861091D01*
X24802Y860814D01*
X25108Y860592D01*
X25385Y860453D01*
X25496Y860397D01*
X25552Y860342D01*
X25608Y860314D01*
X25635D01*
X26107Y860147D01*
X26551Y860036D01*
X26996Y859925D01*
X27384Y859870D01*
X27717Y859842D01*
X27995Y859814D01*
X28162D01*
X28189D01*
X28217D01*
X28495D01*
X28800D01*
X29133Y859787D01*
X29467D01*
X29772D01*
X29994Y859759D01*
X30161D01*
X30188D01*
X30216D01*
X30688D01*
X31105Y859731D01*
X31438D01*
X31715D01*
X31965D01*
X32104D01*
X32215D01*
X32243D01*
X32576D01*
X32992D01*
X33409Y859703D01*
X33797D01*
X34158Y859676D01*
X34464D01*
X34575Y859648D01*
X34658D01*
X34714D01*
X34741D01*
X35324Y859620D01*
X35824D01*
X36268D01*
X36601Y859592D01*
X23997D01*
X51288D01*
Y882968D01*
D02*
G37*
%LPD*%
G36*
X42515Y931080D02*
X42154Y931052D01*
X41488Y930886D01*
X40877Y930636D01*
X40322Y930358D01*
X39850Y930080D01*
X39655Y929969D01*
X39461Y929831D01*
X39350Y929747D01*
X39239Y929664D01*
X39183Y929636D01*
X39155Y929609D01*
X38572Y929109D01*
X38073Y928581D01*
X37629Y928082D01*
X37295Y927610D01*
X37018Y927193D01*
X36935Y927027D01*
X36823Y926860D01*
X36768Y926749D01*
X36713Y926666D01*
X36685Y926610D01*
Y926582D01*
X36213Y927082D01*
X35769Y927499D01*
X35352Y927859D01*
X34991Y928137D01*
X34686Y928359D01*
X34464Y928498D01*
X34325Y928581D01*
X34269Y928609D01*
X33742Y928859D01*
X33159Y929053D01*
X32604Y929164D01*
X32076Y929275D01*
X31604Y929331D01*
X31382D01*
X31216Y929359D01*
X31077D01*
X30966D01*
X30910D01*
X30882D01*
X30188Y929331D01*
X29550Y929192D01*
X28939Y929025D01*
X28328Y928803D01*
X27801Y928526D01*
X27273Y928220D01*
X26801Y927915D01*
X26385Y927582D01*
X25996Y927249D01*
X25663Y926916D01*
X25358Y926610D01*
X25108Y926333D01*
X24913Y926111D01*
X24775Y925944D01*
X24691Y925805D01*
X24664Y925777D01*
X24275Y925222D01*
X23970Y924639D01*
X23664Y924084D01*
X23414Y923501D01*
X23220Y922973D01*
X23054Y922446D01*
X22915Y921946D01*
X22804Y921474D01*
X22693Y921058D01*
X22637Y920641D01*
X22582Y920308D01*
X22554Y920003D01*
X22526Y919781D01*
Y931108D01*
X42848D01*
X42515Y931080D01*
D02*
G37*
G36*
X43237Y926305D02*
X43403Y926222D01*
X43597Y926055D01*
X43764Y925861D01*
X43931Y925639D01*
X44069Y925389D01*
X44347Y924806D01*
X44597Y924250D01*
X44680Y924001D01*
X44763Y923751D01*
X44847Y923556D01*
X44902Y923418D01*
X44930Y923307D01*
Y923279D01*
X45263Y921974D01*
X45541Y920780D01*
X45624Y920197D01*
X45735Y919670D01*
X45819Y919170D01*
X45874Y918698D01*
X45929Y918282D01*
X45957Y917893D01*
X46013Y917560D01*
X46041Y917282D01*
Y917060D01*
X46068Y916893D01*
Y916755D01*
X39516D01*
X39544Y917338D01*
X39572Y917865D01*
Y918365D01*
X39600Y918837D01*
Y919253D01*
X39627Y919642D01*
Y920308D01*
X39655Y920586D01*
Y921502D01*
X39739Y922002D01*
X39877Y922501D01*
X40016Y922973D01*
X40183Y923418D01*
X40349Y923779D01*
X40488Y924084D01*
X40544Y924195D01*
X40599Y924278D01*
X40627Y924306D01*
Y924334D01*
X40821Y924667D01*
X41043Y924972D01*
X41238Y925250D01*
X41460Y925472D01*
X41654Y925666D01*
X41849Y925833D01*
X42043Y925944D01*
X42237Y926055D01*
X42543Y926222D01*
X42820Y926305D01*
X42987Y926333D01*
X43014D01*
X43042D01*
X43237Y926305D01*
D02*
G37*
G36*
X31216Y924473D02*
X31493Y924445D01*
X32076Y924278D01*
X32548Y924001D01*
X32992Y923667D01*
X33353Y923251D01*
X33686Y922807D01*
X33936Y922335D01*
X34186Y921835D01*
X34353Y921335D01*
X34519Y920836D01*
X34630Y920391D01*
X34714Y919975D01*
X34769Y919642D01*
X34797Y919364D01*
X34825Y919198D01*
Y918420D01*
X34797Y918032D01*
X34769Y917643D01*
X34741Y917310D01*
X34714Y917004D01*
Y916893D01*
X34686Y916838D01*
Y916755D01*
X31021Y916782D01*
X27301Y916755D01*
Y917171D01*
X27273Y917365D01*
Y919781D01*
X27329Y920114D01*
X27468Y920752D01*
X27662Y921363D01*
X27884Y921863D01*
X28106Y922307D01*
X28217Y922474D01*
X28300Y922640D01*
X28384Y922751D01*
X28439Y922835D01*
X28467Y922890D01*
X28495Y922918D01*
X28717Y923195D01*
X28911Y923445D01*
X29133Y923640D01*
X29355Y923834D01*
X29550Y924001D01*
X29744Y924112D01*
X30105Y924306D01*
X30438Y924417D01*
X30660Y924473D01*
X30827Y924500D01*
X30855D01*
X30882D01*
X31216Y924473D01*
D02*
G37*
G36*
X41821Y908759D02*
X41182Y908676D01*
X40571Y908565D01*
X40016Y908398D01*
X39516Y908204D01*
X39017Y908010D01*
X38600Y907760D01*
X38212Y907538D01*
X37851Y907316D01*
X37545Y907093D01*
X37295Y906871D01*
X37073Y906677D01*
X36907Y906510D01*
X36768Y906399D01*
X36713Y906316D01*
X36685Y906288D01*
X36352Y905844D01*
X36046Y905372D01*
X35769Y904872D01*
X35547Y904373D01*
X35352Y903873D01*
X35158Y903345D01*
X34880Y902374D01*
X34769Y901902D01*
X34686Y901485D01*
X34630Y901097D01*
X34575Y900764D01*
X34519Y900514D01*
Y900292D01*
X34492Y900181D01*
Y900125D01*
X34436Y899292D01*
X34408Y898487D01*
X34380Y897738D01*
X34325Y897071D01*
Y896766D01*
X34297Y896516D01*
Y896072D01*
X34269Y895905D01*
Y895683D01*
X34186Y895239D01*
X34103Y894850D01*
X33992Y894517D01*
X33881Y894240D01*
X33797Y894045D01*
X33714Y893879D01*
X33686Y893795D01*
X33659Y893768D01*
X33492Y893546D01*
X33326Y893407D01*
X33131Y893296D01*
X32965Y893212D01*
X32798Y893157D01*
X32687Y893129D01*
X32604D01*
X32576D01*
X32326Y893157D01*
X32104Y893212D01*
X31882Y893323D01*
X31660Y893462D01*
X31271Y893795D01*
X30910Y894184D01*
X30633Y894545D01*
X30410Y894878D01*
X30327Y895017D01*
X30272Y895128D01*
X30216Y895183D01*
Y895211D01*
X29855Y895988D01*
X29578Y896738D01*
X29383Y897460D01*
X29244Y898126D01*
X29217Y898432D01*
X29161Y898681D01*
X29133Y898931D01*
Y899126D01*
X29106Y899292D01*
Y899514D01*
X29133Y899847D01*
X29161Y900264D01*
X29217Y900653D01*
X29272Y901069D01*
X29355Y901430D01*
X29411Y901708D01*
X29439Y901819D01*
Y901902D01*
X29467Y901957D01*
Y901985D01*
X29578Y902568D01*
X29661Y903068D01*
X29716Y903484D01*
X29744Y903845D01*
X29772Y904095D01*
X29800Y904289D01*
Y904456D01*
X29772Y904845D01*
X29689Y905206D01*
X29550Y905511D01*
X29411Y905789D01*
X29272Y905983D01*
X29133Y906150D01*
X29050Y906233D01*
X29022Y906261D01*
X28745Y906483D01*
X28467Y906621D01*
X28217Y906732D01*
X27967Y906816D01*
X27745Y906871D01*
X27579Y906899D01*
X27440D01*
X27412D01*
X27162Y906871D01*
X26940Y906760D01*
X26718Y906621D01*
X26524Y906399D01*
X26329Y906177D01*
X26135Y905900D01*
X25802Y905344D01*
X25524Y904761D01*
X25413Y904484D01*
X25330Y904262D01*
X25274Y904040D01*
X25219Y903901D01*
X25163Y903790D01*
Y903762D01*
X24886Y902846D01*
X24691Y902041D01*
X24553Y901319D01*
X24497Y900986D01*
X24469Y900680D01*
X24414Y900431D01*
X24386Y900181D01*
Y899986D01*
X24358Y899820D01*
Y908787D01*
X42487D01*
X41821Y908759D01*
D02*
G37*
G36*
X51288Y859592D02*
X37240D01*
X38045Y859620D01*
X38822Y859648D01*
X39572Y859703D01*
X40294Y859787D01*
X40988Y859898D01*
X41654Y860009D01*
X42293Y860147D01*
X42903Y860314D01*
X43486Y860481D01*
X44014Y860647D01*
X44541Y860842D01*
X45041Y861036D01*
X45929Y861452D01*
X46735Y861897D01*
X47429Y862313D01*
X48039Y862729D01*
X48539Y863118D01*
X48928Y863451D01*
X49233Y863757D01*
X49455Y863979D01*
X49566Y864118D01*
X49622Y864173D01*
X49927Y864617D01*
X50177Y865089D01*
X50399Y865589D01*
X50594Y866116D01*
X50732Y866672D01*
X50871Y867227D01*
X51066Y868310D01*
X51149Y868809D01*
X51204Y869281D01*
X51232Y869698D01*
X51260Y870086D01*
X51288Y870392D01*
Y859592D01*
D02*
G37*
%LPC*%
G36*
X1280820Y1209164D02*
X1280182D01*
X1279654Y1209137D01*
X1279099Y1209109D01*
X1278572D01*
X1278072Y1209081D01*
X1277878Y1209053D01*
X1277683D01*
X1277544Y1209025D01*
X1277322D01*
X1276545Y1208970D01*
X1275879Y1208942D01*
X1275324Y1208914D01*
X1274852D01*
X1274491Y1208887D01*
X1273519D01*
X1272936Y1208914D01*
X1272686D01*
X1272464Y1208942D01*
X1272270D01*
X1271853Y1208970D01*
X1271492D01*
X1271187Y1208998D01*
X1270493D01*
X1269938Y1208970D01*
X1269466Y1208887D01*
X1269049Y1208776D01*
X1268688Y1208637D01*
X1268383Y1208443D01*
X1268133Y1208248D01*
X1267939Y1208026D01*
X1267772Y1207804D01*
X1267633Y1207582D01*
X1267550Y1207360D01*
X1267467Y1207166D01*
X1267439Y1206971D01*
X1267411Y1206832D01*
X1267384Y1206721D01*
Y1206638D01*
Y1206610D01*
X1267411Y1206221D01*
X1267495Y1205888D01*
X1267633Y1205583D01*
X1267772Y1205333D01*
X1267883Y1205139D01*
X1268022Y1204972D01*
X1268105Y1204889D01*
X1268133Y1204861D01*
X1268411Y1204639D01*
X1268716Y1204500D01*
X1268994Y1204389D01*
X1269271Y1204306D01*
X1269521Y1204250D01*
X1269716Y1204223D01*
X1270437D01*
X1270771Y1204195D01*
X1271437D01*
X1271714Y1204167D01*
X1271964D01*
X1272409Y1204139D01*
X1274019D01*
X1274435Y1204167D01*
Y1203862D01*
X1274463Y1203612D01*
Y1203390D01*
Y1203251D01*
Y1203140D01*
Y1203057D01*
Y1203001D01*
Y1201918D01*
Y1200863D01*
X1274435Y1199892D01*
Y1198948D01*
X1274407Y1198059D01*
X1274380Y1197254D01*
X1274352Y1196505D01*
Y1195811D01*
X1274324Y1195200D01*
X1274296Y1194645D01*
X1274269Y1194173D01*
X1274241Y1193784D01*
Y1193479D01*
X1274213Y1193257D01*
Y1193118D01*
Y1193062D01*
X1274157Y1192202D01*
X1274102Y1191424D01*
X1274074Y1190730D01*
X1274019Y1190147D01*
X1273991Y1189620D01*
X1273963Y1189175D01*
X1273935Y1188815D01*
X1273908Y1188509D01*
Y1188232D01*
X1273880Y1188037D01*
Y1187871D01*
Y1187760D01*
X1273852Y1187676D01*
Y1187621D01*
Y1187593D01*
X1273797Y1187177D01*
X1273713Y1186843D01*
X1273658Y1186538D01*
X1273575Y1186261D01*
X1273519Y1186038D01*
X1273436Y1185844D01*
X1273352Y1185705D01*
X1273269Y1185566D01*
X1273158Y1185400D01*
X1273047Y1185317D01*
X1272964Y1185289D01*
X1272936D01*
X1272353Y1185344D01*
X1271770Y1185483D01*
X1271187Y1185650D01*
X1270687Y1185872D01*
X1270243Y1186094D01*
X1270077Y1186177D01*
X1269910Y1186261D01*
X1269771Y1186344D01*
X1269688Y1186399D01*
X1269632Y1186455D01*
X1269604D01*
X1269299Y1186677D01*
X1269022Y1186899D01*
X1268772Y1187093D01*
X1268577Y1187316D01*
X1268411Y1187510D01*
X1268272Y1187676D01*
X1268050Y1188009D01*
X1267911Y1188287D01*
X1267856Y1188509D01*
X1267828Y1188620D01*
Y1188676D01*
X1267800Y1189148D01*
X1267717Y1189564D01*
X1267606Y1189925D01*
X1267439Y1190258D01*
X1267245Y1190508D01*
X1267050Y1190730D01*
X1266828Y1190925D01*
X1266606Y1191063D01*
X1266356Y1191174D01*
X1266134Y1191258D01*
X1265940Y1191313D01*
X1265746Y1191369D01*
X1265579D01*
X1265468Y1191396D01*
X1265357D01*
X1264913Y1191369D01*
X1264552Y1191285D01*
X1264219Y1191147D01*
X1263941Y1190980D01*
X1263691Y1190758D01*
X1263497Y1190536D01*
X1263330Y1190286D01*
X1263192Y1190036D01*
X1263080Y1189759D01*
X1263025Y1189509D01*
X1262969Y1189287D01*
X1262914Y1189092D01*
Y1188898D01*
X1262886Y1188759D01*
Y1188648D01*
X1262914Y1188037D01*
X1263053Y1187427D01*
X1263219Y1186843D01*
X1263441Y1186288D01*
X1263719Y1185789D01*
X1264024Y1185289D01*
X1264358Y1184845D01*
X1264691Y1184428D01*
X1265024Y1184040D01*
X1265357Y1183706D01*
X1265662Y1183429D01*
X1265940Y1183179D01*
X1266162Y1182985D01*
X1266329Y1182846D01*
X1266467Y1182763D01*
X1266495Y1182735D01*
X1267078Y1182346D01*
X1267689Y1182013D01*
X1268272Y1181708D01*
X1268827Y1181458D01*
X1269382Y1181236D01*
X1269938Y1181069D01*
X1270437Y1180902D01*
X1270909Y1180791D01*
X1271326Y1180708D01*
X1271742Y1180625D01*
X1272075Y1180569D01*
X1272381Y1180542D01*
X1272603D01*
X1272797Y1180514D01*
X1272936D01*
X1273547Y1180569D01*
X1274130Y1180708D01*
X1274630Y1180902D01*
X1275101Y1181180D01*
X1275546Y1181485D01*
X1275934Y1181846D01*
X1276267Y1182235D01*
X1276573Y1182624D01*
X1276851Y1183012D01*
X1277073Y1183401D01*
X1277239Y1183762D01*
X1277406Y1184067D01*
X1277517Y1184345D01*
X1277600Y1184567D01*
X1277628Y1184678D01*
X1277656Y1184734D01*
X1277822Y1185289D01*
X1277961Y1185872D01*
X1278100Y1186510D01*
X1278239Y1187149D01*
X1278461Y1188537D01*
X1278655Y1190008D01*
X1278849Y1191508D01*
X1278988Y1193035D01*
X1279099Y1194534D01*
X1279183Y1196005D01*
X1279266Y1197421D01*
X1279294Y1198087D01*
X1279321Y1198726D01*
Y1199336D01*
X1279349Y1199920D01*
X1279377Y1200447D01*
Y1200947D01*
Y1201391D01*
X1279405Y1201807D01*
Y1202168D01*
Y1202446D01*
Y1202696D01*
Y1202862D01*
Y1202973D01*
Y1203001D01*
Y1203279D01*
Y1203501D01*
Y1203695D01*
Y1203834D01*
Y1203973D01*
Y1204056D01*
X1279432Y1204195D01*
Y1204250D01*
X1281126D01*
X1281487Y1204223D01*
X1281653D01*
X1281764Y1204195D01*
X1281875D01*
X1282125Y1204167D01*
X1282514D01*
X1282653Y1204139D01*
X1282903D01*
X1283291Y1204167D01*
X1283652Y1204250D01*
X1283958Y1204389D01*
X1284207Y1204528D01*
X1284430Y1204667D01*
X1284568Y1204806D01*
X1284679Y1204889D01*
X1284707Y1204917D01*
X1284929Y1205194D01*
X1285068Y1205472D01*
X1285179Y1205750D01*
X1285262Y1205999D01*
X1285318Y1206221D01*
X1285346Y1206388D01*
Y1206555D01*
X1285290Y1207027D01*
X1285151Y1207415D01*
X1284901Y1207776D01*
X1284596Y1208054D01*
X1284263Y1208304D01*
X1283847Y1208526D01*
X1283430Y1208692D01*
X1282986Y1208831D01*
X1282542Y1208942D01*
X1282125Y1209025D01*
X1281709Y1209081D01*
X1281376Y1209137D01*
X1281070D01*
X1280820Y1209164D01*
D02*
G37*
G36*
X1288649D02*
X1288094D01*
X1287706Y1209081D01*
X1287372Y1208942D01*
X1287095Y1208803D01*
X1286873Y1208665D01*
X1286706Y1208526D01*
X1286595Y1208415D01*
X1286567Y1208387D01*
X1286373Y1208109D01*
X1286206Y1207832D01*
X1286095Y1207554D01*
X1286040Y1207304D01*
X1285984Y1207110D01*
X1285957Y1206916D01*
Y1206777D01*
X1285984Y1206444D01*
X1286040Y1206166D01*
X1286123Y1205888D01*
X1286262Y1205639D01*
X1286567Y1205250D01*
X1286928Y1204945D01*
X1287289Y1204750D01*
X1287594Y1204611D01*
X1287733Y1204556D01*
X1287817Y1204528D01*
X1287872Y1204500D01*
X1287900D01*
X1288344Y1204417D01*
X1288816Y1204306D01*
X1289815Y1204167D01*
X1290870Y1204084D01*
X1291842Y1204028D01*
X1292314Y1204001D01*
X1292731Y1203973D01*
X1293119D01*
X1293452Y1203945D01*
X1295007D01*
X1295035Y1203584D01*
Y1203168D01*
X1295063Y1202696D01*
X1295118Y1202196D01*
X1295173Y1201141D01*
X1295257Y1200086D01*
X1295312Y1199586D01*
X1295340Y1199114D01*
X1295368Y1198670D01*
X1295423Y1198309D01*
X1295451Y1198004D01*
Y1197754D01*
X1295479Y1197615D01*
Y1197560D01*
X1295534Y1196838D01*
X1295590Y1196144D01*
X1295645Y1195478D01*
X1295701Y1194895D01*
X1295729Y1194312D01*
X1295757Y1193784D01*
X1295784Y1193312D01*
Y1192896D01*
X1295812Y1192507D01*
Y1192174D01*
X1295840Y1191869D01*
Y1191646D01*
Y1191452D01*
Y1191313D01*
Y1191230D01*
Y1191202D01*
Y1190869D01*
X1295868Y1190453D01*
Y1190064D01*
X1295895Y1189648D01*
X1295923Y1189287D01*
Y1189009D01*
X1295951Y1188898D01*
Y1188815D01*
Y1188759D01*
Y1188731D01*
X1296006Y1188176D01*
X1296034Y1187676D01*
X1296062Y1187260D01*
Y1186927D01*
X1296090Y1186649D01*
Y1186455D01*
Y1186344D01*
Y1186316D01*
Y1186066D01*
X1296062Y1185816D01*
X1296034Y1185705D01*
Y1185622D01*
X1296006Y1185566D01*
Y1185539D01*
X1295951Y1185206D01*
X1295923Y1184984D01*
Y1184872D01*
Y1184817D01*
X1295951Y1184428D01*
X1296062Y1184095D01*
X1296173Y1183817D01*
X1296340Y1183568D01*
X1296478Y1183373D01*
X1296617Y1183207D01*
X1296700Y1183123D01*
X1296728Y1183096D01*
X1297006Y1182901D01*
X1297311Y1182735D01*
X1297617Y1182624D01*
X1297867Y1182568D01*
X1298116Y1182513D01*
X1298283Y1182485D01*
X1298450D01*
X1298699Y1182513D01*
X1298921Y1182540D01*
X1299338Y1182707D01*
X1299699Y1182901D01*
X1299976Y1183151D01*
X1300199Y1183401D01*
X1300365Y1183623D01*
X1300476Y1183762D01*
X1300504Y1183790D01*
Y1183817D01*
X1300698Y1184234D01*
X1300837Y1184622D01*
X1300920Y1185039D01*
X1301004Y1185400D01*
X1301031Y1185705D01*
X1301059Y1185955D01*
Y1186122D01*
Y1186150D01*
Y1186177D01*
Y1186427D01*
X1301031Y1186705D01*
X1301004Y1187010D01*
Y1187288D01*
X1300976Y1187565D01*
X1300948Y1187760D01*
X1300920Y1187898D01*
Y1187954D01*
X1300892Y1188370D01*
X1300865Y1188731D01*
X1300837Y1189037D01*
Y1189287D01*
X1300809Y1189481D01*
Y1189620D01*
Y1189703D01*
Y1189731D01*
Y1190230D01*
X1300782Y1190786D01*
X1300754Y1191952D01*
X1300698Y1193146D01*
X1300643Y1193728D01*
X1300615Y1194284D01*
X1300587Y1194811D01*
X1300532Y1195311D01*
X1300504Y1195727D01*
X1300476Y1196116D01*
X1300448Y1196422D01*
Y1196671D01*
X1300421Y1196810D01*
Y1196866D01*
X1300365Y1197782D01*
X1300282Y1198643D01*
X1300226Y1199420D01*
X1300199Y1200142D01*
X1300143Y1200808D01*
X1300115Y1201391D01*
X1300087Y1201891D01*
X1300060Y1202363D01*
X1300032Y1202751D01*
X1300004Y1203084D01*
Y1203390D01*
Y1203612D01*
X1299976Y1203779D01*
Y1203917D01*
Y1203973D01*
Y1204001D01*
X1300587D01*
X1301254Y1203973D01*
X1301975Y1203945D01*
X1302642Y1203917D01*
X1302975Y1203889D01*
X1303280Y1203862D01*
X1303530D01*
X1303780Y1203834D01*
X1303946D01*
X1304113Y1203806D01*
X1304224D01*
X1304751Y1203779D01*
X1305224Y1203751D01*
X1305695Y1203723D01*
X1306112D01*
X1306501Y1203695D01*
X1306834Y1203667D01*
X1307666D01*
X1307889Y1203640D01*
X1308472D01*
X1308860Y1203667D01*
X1309193Y1203751D01*
X1309499Y1203862D01*
X1309749Y1203973D01*
X1309971Y1204084D01*
X1310110Y1204195D01*
X1310221Y1204278D01*
X1310248Y1204306D01*
X1310498Y1204584D01*
X1310665Y1204861D01*
X1310804Y1205139D01*
X1310887Y1205416D01*
X1310943Y1205639D01*
X1310970Y1205833D01*
Y1205999D01*
X1310943Y1206360D01*
X1310859Y1206693D01*
X1310748Y1206971D01*
X1310609Y1207221D01*
X1310470Y1207415D01*
X1310359Y1207582D01*
X1310276Y1207665D01*
X1310248Y1207693D01*
X1309971Y1207915D01*
X1309665Y1208082D01*
X1309360Y1208220D01*
X1309082Y1208304D01*
X1308833Y1208359D01*
X1308638Y1208387D01*
X1307916D01*
X1307278Y1208415D01*
X1306612Y1208443D01*
X1305973Y1208470D01*
X1305390Y1208498D01*
X1305140Y1208526D01*
X1304724D01*
X1304585Y1208554D01*
X1304474D01*
X1304002Y1208581D01*
X1303558Y1208609D01*
X1303141Y1208637D01*
X1302753Y1208665D01*
X1302392Y1208692D01*
X1302059D01*
X1301753Y1208720D01*
X1301281D01*
X1301059Y1208748D01*
X1299532D01*
X1299005Y1208720D01*
X1298005D01*
X1297811Y1208692D01*
X1296534D01*
X1295895Y1208665D01*
X1293674D01*
X1293202Y1208692D01*
X1292731Y1208720D01*
X1292286Y1208776D01*
X1291898Y1208803D01*
X1291564Y1208831D01*
X1291453D01*
X1291370Y1208859D01*
X1291287D01*
X1290898Y1208914D01*
X1290537Y1208942D01*
X1290232Y1208970D01*
X1289954Y1209025D01*
X1289677Y1209053D01*
X1289454D01*
X1289260Y1209081D01*
X1289094Y1209109D01*
X1288816Y1209137D01*
X1288649Y1209164D01*
D02*
G37*
G36*
X1350948Y1210136D02*
X1350781D01*
X1350254Y1210108D01*
X1349754Y1210053D01*
X1349254Y1209942D01*
X1348782Y1209803D01*
X1347894Y1209498D01*
X1347505Y1209303D01*
X1347117Y1209109D01*
X1346783Y1208914D01*
X1346478Y1208720D01*
X1346201Y1208554D01*
X1345978Y1208415D01*
X1345812Y1208276D01*
X1345673Y1208165D01*
X1345590Y1208109D01*
X1345562Y1208082D01*
X1344923Y1207499D01*
X1344313Y1206916D01*
X1343757Y1206277D01*
X1343202Y1205639D01*
X1342702Y1205000D01*
X1342231Y1204361D01*
X1341814Y1203751D01*
X1341425Y1203140D01*
X1341064Y1202585D01*
X1340759Y1202057D01*
X1340481Y1201613D01*
X1340259Y1201197D01*
X1340093Y1200863D01*
X1339982Y1200641D01*
X1339898Y1200475D01*
X1339871Y1200419D01*
X1339482Y1199531D01*
X1339149Y1198670D01*
X1338844Y1197837D01*
X1338594Y1197004D01*
X1338399Y1196199D01*
X1338205Y1195450D01*
X1338066Y1194728D01*
X1337955Y1194062D01*
X1337872Y1193451D01*
X1337789Y1192896D01*
X1337733Y1192424D01*
X1337705Y1192007D01*
Y1191674D01*
X1337677Y1191424D01*
Y1191230D01*
X1337705Y1190342D01*
X1337789Y1189509D01*
X1337900Y1188731D01*
X1338038Y1188009D01*
X1338205Y1187343D01*
X1338399Y1186732D01*
X1338621Y1186177D01*
X1338844Y1185705D01*
X1339038Y1185261D01*
X1339260Y1184900D01*
X1339454Y1184567D01*
X1339621Y1184317D01*
X1339760Y1184095D01*
X1339871Y1183956D01*
X1339954Y1183873D01*
X1339982Y1183845D01*
X1340454Y1183429D01*
X1340953Y1183040D01*
X1341481Y1182707D01*
X1342064Y1182429D01*
X1342647Y1182207D01*
X1343230Y1182013D01*
X1343785Y1181846D01*
X1344368Y1181708D01*
X1344896Y1181597D01*
X1345368Y1181541D01*
X1345840Y1181485D01*
X1346201Y1181430D01*
X1346534D01*
X1346783Y1181402D01*
X1346978D01*
X1347894Y1181430D01*
X1348755Y1181541D01*
X1349615Y1181680D01*
X1350420Y1181902D01*
X1351170Y1182124D01*
X1351864Y1182402D01*
X1352530Y1182679D01*
X1353141Y1182985D01*
X1353669Y1183262D01*
X1354168Y1183540D01*
X1354585Y1183817D01*
X1354946Y1184040D01*
X1355223Y1184262D01*
X1355417Y1184400D01*
X1355556Y1184511D01*
X1355584Y1184539D01*
X1356223Y1185150D01*
X1356833Y1185789D01*
X1357361Y1186483D01*
X1357861Y1187177D01*
X1358305Y1187871D01*
X1358693Y1188565D01*
X1359027Y1189231D01*
X1359332Y1189897D01*
X1359610Y1190508D01*
X1359832Y1191091D01*
X1359998Y1191591D01*
X1360137Y1192035D01*
X1360248Y1192396D01*
X1360331Y1192674D01*
X1360359Y1192757D01*
X1360387Y1192840D01*
Y1192868D01*
Y1192896D01*
X1360748Y1193173D01*
X1360998Y1193506D01*
X1361192Y1193812D01*
X1361303Y1194145D01*
X1361386Y1194423D01*
X1361414Y1194645D01*
X1361442Y1194811D01*
Y1194867D01*
X1361414Y1195228D01*
X1361331Y1195561D01*
X1361220Y1195838D01*
X1361081Y1196088D01*
X1360942Y1196283D01*
X1360831Y1196449D01*
X1360748Y1196533D01*
X1360720Y1196560D01*
X1360443Y1196782D01*
X1360137Y1196949D01*
X1359859Y1197088D01*
X1359582Y1197171D01*
X1359332Y1197227D01*
X1359138Y1197254D01*
X1358083D01*
X1357250Y1197227D01*
X1356417Y1197199D01*
X1355640Y1197171D01*
X1354918Y1197115D01*
X1354224Y1197060D01*
X1353585Y1197004D01*
X1353002Y1196949D01*
X1352475Y1196893D01*
X1352003Y1196838D01*
X1351586Y1196782D01*
X1351253Y1196727D01*
X1350976Y1196699D01*
X1350781Y1196671D01*
X1350670Y1196644D01*
X1350615D01*
X1350032Y1196533D01*
X1349504Y1196422D01*
X1349004Y1196310D01*
X1348533Y1196172D01*
X1348088Y1196061D01*
X1347672Y1195922D01*
X1347311Y1195755D01*
X1346950Y1195616D01*
X1346645Y1195478D01*
X1346339Y1195311D01*
X1345840Y1195006D01*
X1345423Y1194700D01*
X1345090Y1194395D01*
X1344812Y1194090D01*
X1344618Y1193812D01*
X1344479Y1193562D01*
X1344396Y1193368D01*
X1344340Y1193173D01*
X1344285Y1193035D01*
Y1192951D01*
Y1192923D01*
X1344313Y1192590D01*
X1344396Y1192285D01*
X1344479Y1192007D01*
X1344618Y1191785D01*
X1344729Y1191591D01*
X1344812Y1191424D01*
X1344896Y1191341D01*
X1344923Y1191313D01*
X1345201Y1191036D01*
X1345506Y1190841D01*
X1345812Y1190703D01*
X1346089Y1190619D01*
X1346339Y1190564D01*
X1346561Y1190508D01*
X1346728D01*
X1347144Y1190536D01*
X1347478Y1190647D01*
X1347616Y1190675D01*
X1347727Y1190730D01*
X1347783Y1190758D01*
X1347811D01*
X1348977Y1191202D01*
X1350198Y1191563D01*
X1351392Y1191841D01*
X1351947Y1191980D01*
X1352502Y1192063D01*
X1353002Y1192146D01*
X1353474Y1192229D01*
X1353891Y1192285D01*
X1354224Y1192313D01*
X1354529Y1192368D01*
X1354751D01*
X1354862Y1192396D01*
X1354918D01*
X1354696Y1191841D01*
X1354474Y1191313D01*
X1354224Y1190814D01*
X1353974Y1190342D01*
X1353696Y1189925D01*
X1353446Y1189537D01*
X1353169Y1189175D01*
X1352919Y1188870D01*
X1352669Y1188593D01*
X1352447Y1188343D01*
X1352225Y1188148D01*
X1352058Y1187982D01*
X1351892Y1187843D01*
X1351781Y1187760D01*
X1351725Y1187704D01*
X1351697Y1187676D01*
X1351309Y1187427D01*
X1350920Y1187177D01*
X1350504Y1186982D01*
X1350115Y1186816D01*
X1349310Y1186538D01*
X1348588Y1186372D01*
X1348255Y1186316D01*
X1347950Y1186261D01*
X1347672Y1186233D01*
X1347422Y1186205D01*
X1347228Y1186177D01*
X1346506D01*
X1346089Y1186233D01*
X1345673Y1186288D01*
X1345340Y1186344D01*
X1345007Y1186427D01*
X1344729Y1186510D01*
X1344451Y1186621D01*
X1344229Y1186732D01*
X1344035Y1186816D01*
X1343868Y1186927D01*
X1343757Y1187010D01*
X1343646Y1187093D01*
X1343508Y1187204D01*
X1343452Y1187260D01*
X1343313Y1187482D01*
X1343174Y1187732D01*
X1343063Y1188009D01*
X1342980Y1188343D01*
X1342814Y1188981D01*
X1342730Y1189648D01*
X1342675Y1190258D01*
X1342647Y1190536D01*
Y1190786D01*
X1342619Y1190980D01*
Y1191119D01*
Y1191230D01*
Y1191258D01*
X1342675Y1192313D01*
X1342786Y1193368D01*
X1342980Y1194367D01*
X1343230Y1195367D01*
X1343535Y1196283D01*
X1343841Y1197171D01*
X1344202Y1198004D01*
X1344563Y1198754D01*
X1344923Y1199448D01*
X1345284Y1200086D01*
X1345618Y1200614D01*
X1345895Y1201086D01*
X1346145Y1201446D01*
X1346339Y1201724D01*
X1346450Y1201891D01*
X1346506Y1201946D01*
X1347006Y1202557D01*
X1347450Y1203084D01*
X1347894Y1203529D01*
X1348310Y1203917D01*
X1348699Y1204250D01*
X1349032Y1204528D01*
X1349365Y1204750D01*
X1349643Y1204945D01*
X1349921Y1205083D01*
X1350143Y1205194D01*
X1350337Y1205250D01*
X1350504Y1205305D01*
X1350615Y1205333D01*
X1350698Y1205361D01*
X1350781D01*
X1351337Y1205305D01*
X1351920Y1205194D01*
X1352475Y1205055D01*
X1352974Y1204861D01*
X1353419Y1204667D01*
X1353585Y1204584D01*
X1353752Y1204528D01*
X1353891Y1204445D01*
X1353974Y1204417D01*
X1354029Y1204361D01*
X1354057D01*
X1354390Y1204195D01*
X1354668Y1204028D01*
X1355195Y1203806D01*
X1355584Y1203640D01*
X1355889Y1203501D01*
X1356139Y1203445D01*
X1356278Y1203418D01*
X1356361Y1203390D01*
X1356389D01*
X1356778Y1203418D01*
X1357111Y1203501D01*
X1357416Y1203612D01*
X1357666Y1203751D01*
X1357888Y1203889D01*
X1358027Y1204001D01*
X1358138Y1204084D01*
X1358166Y1204112D01*
X1358416Y1204389D01*
X1358582Y1204695D01*
X1358721Y1204972D01*
X1358804Y1205250D01*
X1358860Y1205472D01*
X1358888Y1205639D01*
Y1205777D01*
Y1205805D01*
X1358860Y1206111D01*
X1358749Y1206416D01*
X1358555Y1206693D01*
X1358333Y1206971D01*
X1358083Y1207249D01*
X1357777Y1207499D01*
X1357139Y1207971D01*
X1356500Y1208332D01*
X1356195Y1208498D01*
X1355945Y1208637D01*
X1355723Y1208748D01*
X1355529Y1208831D01*
X1355417Y1208859D01*
X1355390Y1208887D01*
X1354862Y1209109D01*
X1354362Y1209303D01*
X1353891Y1209470D01*
X1353446Y1209609D01*
X1353030Y1209720D01*
X1352641Y1209831D01*
X1352308Y1209914D01*
X1352003Y1209969D01*
X1351725Y1210025D01*
X1351475Y1210080D01*
X1351253Y1210108D01*
X1351087D01*
X1350948Y1210136D01*
D02*
G37*
G36*
X1327378Y1208498D02*
X1327294D01*
X1327183Y1208470D01*
X1327072Y1208415D01*
X1326933Y1208332D01*
X1326767Y1208220D01*
X1326600Y1208054D01*
X1326434Y1207887D01*
X1326045Y1207471D01*
X1325601Y1206943D01*
X1325157Y1206388D01*
X1324685Y1205777D01*
X1324241Y1205167D01*
X1323769Y1204556D01*
X1323352Y1203945D01*
X1322964Y1203390D01*
X1322603Y1202890D01*
X1322325Y1202446D01*
X1322214Y1202279D01*
X1322103Y1202113D01*
X1322020Y1202002D01*
X1321964Y1201918D01*
X1321909Y1201863D01*
Y1201835D01*
X1320798Y1200142D01*
X1320271Y1199309D01*
X1319743Y1198504D01*
X1319271Y1197726D01*
X1318799Y1197004D01*
X1318383Y1196310D01*
X1317994Y1195644D01*
X1317633Y1195061D01*
X1317300Y1194534D01*
X1317022Y1194062D01*
X1316800Y1193673D01*
X1316606Y1193340D01*
X1316467Y1193118D01*
X1316384Y1192979D01*
X1316356Y1192923D01*
X1316078Y1192840D01*
X1315829Y1192729D01*
X1315607Y1192618D01*
X1315412Y1192507D01*
X1315107Y1192285D01*
X1314913Y1192091D01*
X1314774Y1191896D01*
X1314690Y1191730D01*
X1314663Y1191619D01*
Y1191591D01*
X1314690Y1191230D01*
X1314774Y1190925D01*
X1314801Y1190786D01*
X1314857Y1190675D01*
X1314885Y1190619D01*
Y1190591D01*
X1314440Y1189675D01*
X1314052Y1188842D01*
X1313691Y1188121D01*
X1313413Y1187454D01*
X1313163Y1186899D01*
X1312941Y1186399D01*
X1312775Y1185983D01*
X1312664Y1185622D01*
X1312553Y1185317D01*
X1312469Y1185067D01*
X1312414Y1184872D01*
X1312358Y1184734D01*
Y1184622D01*
X1312331Y1184567D01*
Y1184511D01*
X1312358Y1184151D01*
X1312442Y1183817D01*
X1312580Y1183540D01*
X1312719Y1183318D01*
X1312830Y1183123D01*
X1312969Y1182957D01*
X1313052Y1182874D01*
X1313080Y1182846D01*
X1313385Y1182624D01*
X1313691Y1182485D01*
X1313969Y1182374D01*
X1314246Y1182290D01*
X1314468Y1182235D01*
X1314663Y1182207D01*
X1314829D01*
X1315079Y1182235D01*
X1315301Y1182263D01*
X1315745Y1182402D01*
X1316106Y1182596D01*
X1316412Y1182846D01*
X1316662Y1183068D01*
X1316828Y1183262D01*
X1316939Y1183401D01*
X1316967Y1183456D01*
X1317328Y1184151D01*
X1317661Y1184817D01*
X1317966Y1185428D01*
X1318244Y1186011D01*
X1318494Y1186538D01*
X1318716Y1187010D01*
X1318938Y1187454D01*
X1319105Y1187843D01*
X1319271Y1188176D01*
X1319410Y1188482D01*
X1319521Y1188731D01*
X1319604Y1188926D01*
X1319688Y1189092D01*
X1319743Y1189203D01*
X1319771Y1189259D01*
Y1189287D01*
X1320049Y1189342D01*
X1320382Y1189370D01*
X1321048Y1189453D01*
X1321742Y1189537D01*
X1322436Y1189592D01*
X1322741Y1189620D01*
X1323047Y1189648D01*
X1323297Y1189675D01*
X1323546Y1189703D01*
X1323741D01*
X1323880Y1189731D01*
X1323991D01*
X1324518Y1189759D01*
X1325018Y1189814D01*
X1325490Y1189842D01*
X1325906Y1189870D01*
X1326267Y1189897D01*
X1326628Y1189953D01*
X1326933Y1189981D01*
X1327211Y1190008D01*
X1327461Y1190036D01*
X1327683D01*
X1327850Y1190064D01*
X1327988Y1190092D01*
X1328100D01*
X1328183Y1190119D01*
X1328238D01*
X1328488Y1189148D01*
X1328766Y1188232D01*
X1328905Y1187815D01*
X1329043Y1187427D01*
X1329182Y1187038D01*
X1329293Y1186705D01*
X1329404Y1186399D01*
X1329515Y1186150D01*
X1329599Y1185900D01*
X1329682Y1185705D01*
X1329765Y1185566D01*
X1329821Y1185428D01*
X1329848Y1185372D01*
Y1185344D01*
X1330098Y1184789D01*
X1330376Y1184289D01*
X1330626Y1183873D01*
X1330876Y1183484D01*
X1331098Y1183179D01*
X1331348Y1182901D01*
X1331542Y1182707D01*
X1331764Y1182513D01*
X1331958Y1182374D01*
X1332125Y1182290D01*
X1332264Y1182207D01*
X1332375Y1182152D01*
X1332486Y1182124D01*
X1332569Y1182096D01*
X1332625D01*
X1332986Y1182124D01*
X1333291Y1182179D01*
X1333596Y1182290D01*
X1333846Y1182402D01*
X1334068Y1182513D01*
X1334207Y1182624D01*
X1334318Y1182707D01*
X1334346Y1182735D01*
X1334596Y1183012D01*
X1334790Y1183290D01*
X1334929Y1183568D01*
X1335040Y1183845D01*
X1335096Y1184067D01*
X1335123Y1184262D01*
Y1184428D01*
X1335096Y1184734D01*
X1335012Y1185095D01*
X1334929Y1185483D01*
X1334818Y1185844D01*
X1334679Y1186177D01*
X1334596Y1186427D01*
X1334540Y1186538D01*
X1334513Y1186621D01*
X1334485Y1186649D01*
Y1186677D01*
X1334346Y1187010D01*
X1334235Y1187316D01*
X1334124Y1187565D01*
X1334013Y1187815D01*
X1333874Y1188232D01*
X1333763Y1188537D01*
X1333680Y1188759D01*
X1333624Y1188898D01*
X1333596Y1188981D01*
Y1189009D01*
X1333319Y1190203D01*
X1333041Y1191369D01*
X1332764Y1192479D01*
X1332542Y1193562D01*
X1332292Y1194561D01*
X1332070Y1195505D01*
X1331875Y1196394D01*
X1331709Y1197199D01*
X1331542Y1197948D01*
X1331375Y1198587D01*
X1331264Y1199170D01*
X1331153Y1199642D01*
X1331070Y1200031D01*
X1331015Y1200308D01*
X1330987Y1200391D01*
X1330959Y1200475D01*
Y1200530D01*
X1330820Y1201224D01*
X1330709Y1201863D01*
X1330570Y1202446D01*
X1330487Y1203001D01*
X1330376Y1203501D01*
X1330293Y1203973D01*
X1330209Y1204389D01*
X1330126Y1204750D01*
X1330071Y1205083D01*
X1330015Y1205361D01*
X1329987Y1205611D01*
X1329932Y1205805D01*
X1329904Y1205972D01*
Y1206083D01*
X1329876Y1206138D01*
Y1206166D01*
X1329738Y1206582D01*
X1329571Y1206943D01*
X1329404Y1207249D01*
X1329182Y1207526D01*
X1328988Y1207748D01*
X1328766Y1207943D01*
X1328544Y1208082D01*
X1328349Y1208220D01*
X1327933Y1208387D01*
X1327600Y1208470D01*
X1327489D01*
X1327378Y1208498D01*
D02*
G37*
%LPD*%
G36*
X1326239Y1199392D02*
X1326351Y1198754D01*
X1326461Y1198143D01*
X1326573Y1197588D01*
X1326684Y1197060D01*
X1326767Y1196588D01*
X1326878Y1196144D01*
X1326933Y1195727D01*
X1327017Y1195367D01*
X1327072Y1195061D01*
X1327128Y1194783D01*
X1327156Y1194561D01*
X1327183Y1194367D01*
X1327211Y1194256D01*
X1327239Y1194173D01*
Y1194145D01*
X1327128Y1194117D01*
X1326989D01*
X1326656Y1194090D01*
X1326239Y1194034D01*
X1325823Y1194006D01*
X1325407Y1193978D01*
X1325073D01*
X1324962Y1193951D01*
X1324768D01*
X1324185Y1193895D01*
X1323685Y1193867D01*
X1323269Y1193812D01*
X1322936Y1193784D01*
X1322658Y1193728D01*
X1322464Y1193701D01*
X1322353Y1193673D01*
X1322325D01*
X1322769Y1194423D01*
X1323186Y1195117D01*
X1323574Y1195755D01*
X1323935Y1196366D01*
X1324268Y1196949D01*
X1324574Y1197476D01*
X1324851Y1197948D01*
X1325101Y1198365D01*
X1325323Y1198754D01*
X1325545Y1199087D01*
X1325712Y1199392D01*
X1325851Y1199614D01*
X1325962Y1199809D01*
X1326045Y1199947D01*
X1326073Y1200031D01*
X1326101Y1200058D01*
X1326239Y1199392D01*
D02*
G37*
%LPC*%
G36*
X614344Y1208887D02*
X614177D01*
X613789Y1208859D01*
X613428Y1208776D01*
X613122Y1208637D01*
X612845Y1208498D01*
X612623Y1208359D01*
X612456Y1208220D01*
X612345Y1208137D01*
X612317Y1208109D01*
X611956Y1208193D01*
X611595Y1208248D01*
X611429D01*
X611318Y1208276D01*
X611207D01*
X610735Y1208304D01*
X610513Y1208332D01*
X609846D01*
X609430Y1208304D01*
X608986Y1208276D01*
X608153Y1208109D01*
X607320Y1207859D01*
X606543Y1207526D01*
X605765Y1207138D01*
X605016Y1206693D01*
X604322Y1206221D01*
X603683Y1205750D01*
X603073Y1205250D01*
X602545Y1204778D01*
X602073Y1204334D01*
X601657Y1203945D01*
X601351Y1203612D01*
X601101Y1203362D01*
X600963Y1203195D01*
X600907Y1203168D01*
Y1203140D01*
X600435Y1202557D01*
X600019Y1202002D01*
X599602Y1201446D01*
X599213Y1200863D01*
X598547Y1199781D01*
X597964Y1198698D01*
X597464Y1197671D01*
X597048Y1196671D01*
X596715Y1195727D01*
X596437Y1194867D01*
X596215Y1194062D01*
X596076Y1193340D01*
X595965Y1192729D01*
X595882Y1192174D01*
X595854Y1191952D01*
X595826Y1191757D01*
Y1191591D01*
X595799Y1191452D01*
Y1191174D01*
X595826Y1190480D01*
X595910Y1189814D01*
X596049Y1189175D01*
X596215Y1188565D01*
X596410Y1188009D01*
X596604Y1187454D01*
X596854Y1186955D01*
X597104Y1186510D01*
X597326Y1186094D01*
X597576Y1185733D01*
X597770Y1185400D01*
X597992Y1185150D01*
X598131Y1184928D01*
X598270Y1184789D01*
X598353Y1184678D01*
X598381Y1184650D01*
X598908Y1184151D01*
X599436Y1183706D01*
X600019Y1183318D01*
X600574Y1182985D01*
X601129Y1182735D01*
X601684Y1182485D01*
X602212Y1182290D01*
X602739Y1182152D01*
X603211Y1182041D01*
X603656Y1181930D01*
X604044Y1181874D01*
X604377Y1181846D01*
X604655Y1181819D01*
X604877Y1181791D01*
X605044D01*
X605988Y1181846D01*
X606904Y1181957D01*
X607820Y1182179D01*
X608680Y1182429D01*
X609541Y1182735D01*
X610346Y1183068D01*
X611124Y1183429D01*
X611845Y1183817D01*
X612484Y1184206D01*
X613067Y1184567D01*
X613594Y1184900D01*
X614039Y1185206D01*
X614399Y1185483D01*
X614649Y1185677D01*
X614816Y1185789D01*
X614871Y1185844D01*
X615177Y1186150D01*
X615399Y1186455D01*
X615565Y1186732D01*
X615676Y1187038D01*
X615732Y1187288D01*
X615788Y1187482D01*
Y1187593D01*
Y1187649D01*
X615760Y1187982D01*
X615676Y1188287D01*
X615565Y1188565D01*
X615454Y1188815D01*
X615316Y1189009D01*
X615205Y1189148D01*
X615121Y1189259D01*
X615093Y1189287D01*
X614788Y1189537D01*
X614483Y1189731D01*
X614205Y1189870D01*
X613900Y1189981D01*
X613650Y1190036D01*
X613456Y1190064D01*
X613289D01*
X613011Y1190036D01*
X612678Y1189925D01*
X612345Y1189786D01*
X612012Y1189620D01*
X611707Y1189425D01*
X611457Y1189287D01*
X611290Y1189175D01*
X611262Y1189148D01*
X611235D01*
X610874Y1188898D01*
X610541Y1188676D01*
X610235Y1188482D01*
X609958Y1188287D01*
X609708Y1188121D01*
X609513Y1187982D01*
X609152Y1187760D01*
X608875Y1187593D01*
X608708Y1187510D01*
X608597Y1187454D01*
X608569Y1187427D01*
X607903Y1187121D01*
X607265Y1186927D01*
X606682Y1186760D01*
X606154Y1186649D01*
X605682Y1186594D01*
X605516Y1186566D01*
X605349D01*
X605210Y1186538D01*
X605044D01*
X604710Y1186566D01*
X604405Y1186594D01*
X603822Y1186760D01*
X603295Y1186982D01*
X602850Y1187232D01*
X602490Y1187482D01*
X602212Y1187676D01*
X602045Y1187843D01*
X602018Y1187871D01*
X601990Y1187898D01*
X601768Y1188148D01*
X601573Y1188426D01*
X601240Y1188981D01*
X601018Y1189537D01*
X600879Y1190036D01*
X600768Y1190508D01*
X600741Y1190703D01*
Y1190841D01*
X600713Y1190980D01*
Y1191091D01*
Y1191147D01*
Y1191174D01*
X600768Y1191952D01*
X600879Y1192757D01*
X601074Y1193562D01*
X601351Y1194339D01*
X601657Y1195089D01*
X601990Y1195838D01*
X602351Y1196560D01*
X602739Y1197227D01*
X603100Y1197837D01*
X603461Y1198393D01*
X603794Y1198892D01*
X604100Y1199336D01*
X604377Y1199670D01*
X604572Y1199920D01*
X604683Y1200086D01*
X604738Y1200142D01*
X605266Y1200752D01*
X605793Y1201280D01*
X606293Y1201752D01*
X606765Y1202141D01*
X607209Y1202474D01*
X607626Y1202751D01*
X608014Y1202973D01*
X608375Y1203168D01*
X608708Y1203307D01*
X608986Y1203390D01*
X609236Y1203473D01*
X609458Y1203529D01*
X609624Y1203556D01*
X609735Y1203584D01*
X610235D01*
X610541Y1203556D01*
X610763Y1203529D01*
X610957D01*
X611096Y1203501D01*
X611179Y1203473D01*
X611235Y1203445D01*
X611373Y1203362D01*
X611484Y1203223D01*
X611707Y1202918D01*
X611790Y1202751D01*
X611873Y1202640D01*
X611901Y1202529D01*
X611929Y1202501D01*
X612067Y1202224D01*
X612234Y1201974D01*
X612428Y1201752D01*
X612623Y1201557D01*
X612789Y1201391D01*
X612984Y1201252D01*
X613372Y1201058D01*
X613733Y1200947D01*
X614011Y1200891D01*
X614122Y1200863D01*
X614261D01*
X614705Y1200891D01*
X615093Y1201002D01*
X615427Y1201169D01*
X615676Y1201335D01*
X615899Y1201502D01*
X616065Y1201668D01*
X616148Y1201780D01*
X616176Y1201807D01*
X616343Y1202085D01*
X616482Y1202335D01*
X616565Y1202613D01*
X616648Y1202862D01*
X616676Y1203084D01*
X616704Y1203251D01*
Y1204112D01*
X616648Y1204750D01*
X616620Y1205333D01*
X616565Y1205861D01*
X616509Y1206277D01*
X616482Y1206444D01*
X616454Y1206582D01*
X616426Y1206693D01*
Y1206777D01*
X616398Y1206805D01*
Y1206832D01*
X616315Y1207193D01*
X616176Y1207499D01*
X616037Y1207776D01*
X615871Y1208026D01*
X615704Y1208220D01*
X615510Y1208387D01*
X615316Y1208526D01*
X615121Y1208637D01*
X614760Y1208776D01*
X614455Y1208859D01*
X614344Y1208887D01*
D02*
G37*
G36*
X543772Y1207887D02*
X543467D01*
X542662Y1207859D01*
X541885Y1207776D01*
X541135Y1207637D01*
X540413Y1207443D01*
X539719Y1207221D01*
X539053Y1206971D01*
X538442Y1206721D01*
X537887Y1206471D01*
X537359Y1206194D01*
X536887Y1205944D01*
X536499Y1205694D01*
X536166Y1205472D01*
X535888Y1205305D01*
X535694Y1205139D01*
X535583Y1205055D01*
X535527Y1205028D01*
X534888Y1204500D01*
X534333Y1203945D01*
X533861Y1203390D01*
X533445Y1202862D01*
X533112Y1202335D01*
X532806Y1201807D01*
X532584Y1201308D01*
X532390Y1200836D01*
X532223Y1200419D01*
X532112Y1200003D01*
X532029Y1199670D01*
X531973Y1199364D01*
X531946Y1199114D01*
X531918Y1198948D01*
Y1198809D01*
Y1198781D01*
X531946Y1198282D01*
X532029Y1197810D01*
X532196Y1197393D01*
X532390Y1196977D01*
X532640Y1196616D01*
X532890Y1196255D01*
X533195Y1195949D01*
X533473Y1195672D01*
X533778Y1195422D01*
X534056Y1195200D01*
X534333Y1195006D01*
X534583Y1194867D01*
X534777Y1194756D01*
X534944Y1194672D01*
X535055Y1194617D01*
X535083Y1194589D01*
X535999Y1194228D01*
X536943Y1193978D01*
X537859Y1193784D01*
X538303Y1193701D01*
X538720Y1193645D01*
X539081Y1193590D01*
X539441Y1193562D01*
X539747Y1193534D01*
X540024Y1193506D01*
X540219Y1193479D01*
X540524D01*
X541218Y1193451D01*
X541857Y1193423D01*
X542440Y1193395D01*
X542967Y1193340D01*
X543439Y1193284D01*
X543884Y1193229D01*
X544244Y1193173D01*
X544577Y1193146D01*
X544855Y1193090D01*
X545105Y1193035D01*
X545299Y1192979D01*
X545466Y1192951D01*
X545577Y1192923D01*
X545660Y1192896D01*
X545688Y1192868D01*
X545716D01*
X546049Y1192729D01*
X546326Y1192535D01*
X546576Y1192340D01*
X546771Y1192118D01*
X546965Y1191896D01*
X547104Y1191646D01*
X547326Y1191174D01*
X547465Y1190703D01*
X547493Y1190508D01*
X547520Y1190342D01*
X547548Y1190175D01*
Y1190064D01*
Y1190008D01*
Y1189981D01*
X547520Y1189675D01*
X547409Y1189398D01*
X547271Y1189120D01*
X547076Y1188842D01*
X546854Y1188593D01*
X546604Y1188343D01*
X546077Y1187898D01*
X545549Y1187538D01*
X545299Y1187399D01*
X545077Y1187260D01*
X544883Y1187177D01*
X544744Y1187093D01*
X544633Y1187066D01*
X544605Y1187038D01*
X544078Y1186816D01*
X543550Y1186621D01*
X542523Y1186288D01*
X541524Y1186066D01*
X541079Y1185955D01*
X540635Y1185900D01*
X540247Y1185844D01*
X539886Y1185816D01*
X539553Y1185761D01*
X539303D01*
X539081Y1185733D01*
X538775D01*
X538137Y1185761D01*
X537581Y1185816D01*
X537054Y1185927D01*
X536582Y1186066D01*
X536166Y1186233D01*
X535805Y1186399D01*
X535471Y1186594D01*
X535194Y1186816D01*
X534972Y1187010D01*
X534777Y1187204D01*
X534611Y1187371D01*
X534472Y1187538D01*
X534389Y1187676D01*
X534333Y1187787D01*
X534278Y1187843D01*
Y1187871D01*
X534139Y1188148D01*
X533972Y1188426D01*
X533778Y1188620D01*
X533611Y1188815D01*
X533417Y1188981D01*
X533223Y1189120D01*
X532834Y1189314D01*
X532473Y1189425D01*
X532196Y1189481D01*
X532085Y1189509D01*
X531946D01*
X531529Y1189481D01*
X531168Y1189398D01*
X530863Y1189259D01*
X530585Y1189148D01*
X530391Y1189009D01*
X530224Y1188870D01*
X530141Y1188787D01*
X530113Y1188759D01*
X529891Y1188482D01*
X529753Y1188176D01*
X529641Y1187871D01*
X529558Y1187565D01*
X529503Y1187316D01*
X529475Y1187121D01*
Y1186927D01*
X529503Y1186538D01*
X529558Y1186150D01*
X529669Y1185761D01*
X529808Y1185428D01*
X530141Y1184761D01*
X530558Y1184206D01*
X530752Y1183984D01*
X530946Y1183762D01*
X531113Y1183568D01*
X531279Y1183401D01*
X531418Y1183290D01*
X531529Y1183207D01*
X531585Y1183151D01*
X531613Y1183123D01*
X532112Y1182790D01*
X532640Y1182485D01*
X533195Y1182207D01*
X533778Y1181985D01*
X534361Y1181791D01*
X534944Y1181624D01*
X535527Y1181513D01*
X536082Y1181402D01*
X536582Y1181319D01*
X537082Y1181263D01*
X537498Y1181208D01*
X537887Y1181180D01*
X538192Y1181152D01*
X538609D01*
X539553Y1181180D01*
X540441Y1181236D01*
X541302Y1181319D01*
X542135Y1181430D01*
X542940Y1181569D01*
X543661Y1181708D01*
X544355Y1181874D01*
X544994Y1182041D01*
X545549Y1182179D01*
X546077Y1182346D01*
X546521Y1182485D01*
X546882Y1182624D01*
X547187Y1182735D01*
X547409Y1182818D01*
X547520Y1182874D01*
X547576Y1182901D01*
X548048Y1183123D01*
X548492Y1183373D01*
X548908Y1183623D01*
X549269Y1183873D01*
X549963Y1184400D01*
X550574Y1184956D01*
X551074Y1185539D01*
X551490Y1186094D01*
X551824Y1186649D01*
X552101Y1187204D01*
X552295Y1187732D01*
X552462Y1188204D01*
X552573Y1188648D01*
X552656Y1189009D01*
X552712Y1189314D01*
X552740Y1189564D01*
Y1189759D01*
X552712Y1190425D01*
X552629Y1191063D01*
X552518Y1191674D01*
X552351Y1192229D01*
X552157Y1192729D01*
X551962Y1193229D01*
X551712Y1193645D01*
X551490Y1194034D01*
X551268Y1194395D01*
X551046Y1194700D01*
X550824Y1194950D01*
X550630Y1195172D01*
X550463Y1195339D01*
X550352Y1195478D01*
X550269Y1195533D01*
X550241Y1195561D01*
X549797Y1195894D01*
X549325Y1196199D01*
X548825Y1196477D01*
X548325Y1196699D01*
X547826Y1196893D01*
X547298Y1197088D01*
X546326Y1197365D01*
X545855Y1197476D01*
X545438Y1197560D01*
X545050Y1197615D01*
X544716Y1197671D01*
X544467Y1197726D01*
X544244D01*
X544133Y1197754D01*
X544078D01*
X543245Y1197810D01*
X542440Y1197837D01*
X541690Y1197865D01*
X541024Y1197921D01*
X540719D01*
X540469Y1197948D01*
X540024D01*
X539858Y1197976D01*
X539636D01*
X539192Y1198059D01*
X538803Y1198143D01*
X538470Y1198254D01*
X538192Y1198365D01*
X537998Y1198448D01*
X537831Y1198531D01*
X537748Y1198559D01*
X537720Y1198587D01*
X537498Y1198754D01*
X537359Y1198920D01*
X537248Y1199114D01*
X537165Y1199281D01*
X537109Y1199448D01*
X537082Y1199559D01*
Y1199642D01*
Y1199670D01*
X537109Y1199920D01*
X537165Y1200142D01*
X537276Y1200364D01*
X537415Y1200586D01*
X537748Y1200975D01*
X538137Y1201335D01*
X538498Y1201613D01*
X538831Y1201835D01*
X538970Y1201918D01*
X539081Y1201974D01*
X539136Y1202029D01*
X539164D01*
X539941Y1202390D01*
X540691Y1202668D01*
X541413Y1202862D01*
X542079Y1203001D01*
X542384Y1203029D01*
X542634Y1203084D01*
X542884Y1203112D01*
X543078D01*
X543245Y1203140D01*
X543467D01*
X543800Y1203112D01*
X544217Y1203084D01*
X544605Y1203029D01*
X545022Y1202973D01*
X545383Y1202890D01*
X545660Y1202835D01*
X545771Y1202807D01*
X545855D01*
X545910Y1202779D01*
X545938D01*
X546521Y1202668D01*
X547021Y1202585D01*
X547437Y1202529D01*
X547798Y1202501D01*
X548048Y1202474D01*
X548242Y1202446D01*
X548409D01*
X548797Y1202474D01*
X549158Y1202557D01*
X549464Y1202696D01*
X549741Y1202835D01*
X549936Y1202973D01*
X550102Y1203112D01*
X550186Y1203195D01*
X550213Y1203223D01*
X550435Y1203501D01*
X550574Y1203779D01*
X550685Y1204028D01*
X550769Y1204278D01*
X550824Y1204500D01*
X550852Y1204667D01*
Y1204806D01*
Y1204833D01*
X550824Y1205083D01*
X550713Y1205305D01*
X550574Y1205527D01*
X550352Y1205722D01*
X550130Y1205916D01*
X549852Y1206111D01*
X549297Y1206444D01*
X548714Y1206721D01*
X548437Y1206832D01*
X548214Y1206916D01*
X547992Y1206971D01*
X547854Y1207027D01*
X547742Y1207082D01*
X547715D01*
X546799Y1207360D01*
X545993Y1207554D01*
X545272Y1207693D01*
X544938Y1207748D01*
X544633Y1207776D01*
X544383Y1207832D01*
X544133Y1207859D01*
X543939D01*
X543772Y1207887D01*
D02*
G37*
G36*
X671839Y1210136D02*
X671673D01*
X671312Y1210108D01*
X671007Y1210053D01*
X670729Y1209942D01*
X670479Y1209803D01*
X670285Y1209664D01*
X670090Y1209470D01*
X669813Y1209109D01*
X669619Y1208720D01*
X669507Y1208387D01*
X669452Y1208248D01*
Y1208137D01*
X669424Y1208082D01*
Y1208054D01*
X669369Y1207582D01*
X669313Y1207054D01*
X669258Y1206444D01*
X669202Y1205805D01*
X669146Y1205139D01*
X669119Y1204445D01*
X669035Y1203057D01*
X669008Y1202418D01*
X668980Y1201807D01*
X668952Y1201252D01*
X668924Y1200752D01*
Y1200364D01*
Y1200197D01*
X668897Y1200031D01*
Y1199920D01*
Y1199836D01*
Y1199809D01*
Y1199781D01*
X668286Y1200142D01*
X667980Y1200280D01*
X667703Y1200419D01*
X667453Y1200502D01*
X667259Y1200558D01*
X667148Y1200614D01*
X667092D01*
X666703Y1200725D01*
X666287Y1200780D01*
X665898Y1200836D01*
X665537Y1200891D01*
X665204D01*
X664954Y1200919D01*
X664732D01*
X663955Y1200891D01*
X663205Y1200808D01*
X662511Y1200641D01*
X661845Y1200475D01*
X661234Y1200253D01*
X660651Y1200003D01*
X660124Y1199725D01*
X659652Y1199475D01*
X659235Y1199198D01*
X658875Y1198920D01*
X658541Y1198670D01*
X658264Y1198448D01*
X658069Y1198282D01*
X657903Y1198143D01*
X657820Y1198032D01*
X657792Y1198004D01*
X657320Y1197449D01*
X656903Y1196838D01*
X656570Y1196227D01*
X656265Y1195589D01*
X655987Y1194950D01*
X655765Y1194339D01*
X655599Y1193701D01*
X655460Y1193118D01*
X655349Y1192562D01*
X655265Y1192035D01*
X655210Y1191591D01*
X655182Y1191174D01*
X655154Y1190841D01*
X655127Y1190619D01*
Y1190397D01*
X655154Y1189675D01*
X655238Y1188981D01*
X655377Y1188343D01*
X655543Y1187732D01*
X655737Y1187149D01*
X655959Y1186621D01*
X656209Y1186122D01*
X656459Y1185677D01*
X656681Y1185261D01*
X656931Y1184928D01*
X657153Y1184622D01*
X657348Y1184373D01*
X657514Y1184151D01*
X657653Y1184012D01*
X657736Y1183929D01*
X657764Y1183901D01*
X658264Y1183456D01*
X658791Y1183068D01*
X659319Y1182735D01*
X659874Y1182457D01*
X660429Y1182207D01*
X660957Y1182013D01*
X661484Y1181846D01*
X661984Y1181708D01*
X662456Y1181624D01*
X662900Y1181541D01*
X663261Y1181485D01*
X663622Y1181430D01*
X663872D01*
X664094Y1181402D01*
X664760D01*
X665260Y1181430D01*
X665704Y1181485D01*
X666093Y1181513D01*
X666426Y1181569D01*
X666676Y1181597D01*
X666842Y1181624D01*
X666898D01*
X667370Y1181735D01*
X667814Y1181874D01*
X668230Y1182013D01*
X668619Y1182179D01*
X668924Y1182318D01*
X669174Y1182429D01*
X669313Y1182513D01*
X669369Y1182540D01*
X669646Y1182152D01*
X669952Y1181874D01*
X670257Y1181680D01*
X670590Y1181541D01*
X670868Y1181458D01*
X671090Y1181430D01*
X671256Y1181402D01*
X671312D01*
X671645Y1181430D01*
X671951Y1181513D01*
X672228Y1181597D01*
X672450Y1181735D01*
X672645Y1181846D01*
X672811Y1181930D01*
X672894Y1182013D01*
X672922Y1182041D01*
X673172Y1182290D01*
X673339Y1182540D01*
X673477Y1182818D01*
X673561Y1183068D01*
X673616Y1183290D01*
X673644Y1183456D01*
Y1183568D01*
Y1183623D01*
Y1183790D01*
X673616Y1183956D01*
X673588Y1184067D01*
Y1184123D01*
X673533Y1184567D01*
X673450Y1185095D01*
X673422Y1185677D01*
X673366Y1186344D01*
X673339Y1187010D01*
X673283Y1187704D01*
X673255Y1189120D01*
X673228Y1189786D01*
Y1190425D01*
X673200Y1190980D01*
Y1191508D01*
Y1191924D01*
Y1192091D01*
Y1192229D01*
Y1192340D01*
Y1192424D01*
Y1192479D01*
Y1192507D01*
Y1193007D01*
X673228Y1193590D01*
Y1194173D01*
X673255Y1194783D01*
X673311Y1196061D01*
X673366Y1196699D01*
X673394Y1197310D01*
X673422Y1197893D01*
X673477Y1198420D01*
X673505Y1198920D01*
X673533Y1199336D01*
X673561Y1199697D01*
Y1199947D01*
X673588Y1200114D01*
Y1200169D01*
X673644Y1201086D01*
X673727Y1201946D01*
X673783Y1202751D01*
X673811Y1203501D01*
X673838Y1204195D01*
X673894Y1204806D01*
X673922Y1205389D01*
Y1205888D01*
X673949Y1206333D01*
Y1206721D01*
X673977Y1207054D01*
Y1207804D01*
X673949Y1208165D01*
X673866Y1208470D01*
X673783Y1208748D01*
X673672Y1208998D01*
X673533Y1209192D01*
X673450Y1209331D01*
X673366Y1209414D01*
X673339Y1209442D01*
X673089Y1209664D01*
X672811Y1209831D01*
X672533Y1209969D01*
X672256Y1210053D01*
X672034Y1210108D01*
X671839Y1210136D01*
D02*
G37*
G36*
X650102Y1200669D02*
X649963D01*
X649269Y1200641D01*
X648575Y1200558D01*
X647936Y1200447D01*
X647298Y1200308D01*
X646687Y1200142D01*
X646132Y1199947D01*
X645604Y1199725D01*
X645132Y1199531D01*
X644688Y1199309D01*
X644272Y1199087D01*
X643938Y1198892D01*
X643661Y1198726D01*
X643411Y1198587D01*
X643244Y1198476D01*
X643133Y1198393D01*
X643106Y1198365D01*
X643022Y1198726D01*
X642884Y1199031D01*
X642745Y1199281D01*
X642578Y1199531D01*
X642384Y1199725D01*
X642189Y1199864D01*
X641995Y1200003D01*
X641801Y1200114D01*
X641412Y1200253D01*
X641079Y1200336D01*
X640968Y1200364D01*
X640773D01*
X640385Y1200336D01*
X640052Y1200253D01*
X639774Y1200142D01*
X639524Y1200031D01*
X639358Y1199920D01*
X639219Y1199809D01*
X639136Y1199725D01*
X639108Y1199697D01*
X638913Y1199448D01*
X638775Y1199170D01*
X638664Y1198892D01*
X638608Y1198643D01*
X638553Y1198393D01*
X638525Y1198226D01*
Y1198115D01*
Y1198059D01*
Y1197837D01*
Y1197560D01*
Y1197032D01*
X638497Y1196782D01*
Y1196588D01*
Y1196477D01*
Y1196422D01*
Y1196061D01*
X638469Y1195727D01*
Y1183345D01*
X638497Y1182985D01*
X638553Y1182679D01*
X638636Y1182402D01*
X638747Y1182179D01*
X638858Y1182013D01*
X638941Y1181874D01*
X638997Y1181791D01*
X639025Y1181763D01*
X639274Y1181513D01*
X639524Y1181347D01*
X639802Y1181208D01*
X640079Y1181124D01*
X640329Y1181069D01*
X640524Y1181041D01*
X640690D01*
X641079Y1181069D01*
X641412Y1181152D01*
X641690Y1181263D01*
X641940Y1181374D01*
X642134Y1181485D01*
X642300Y1181597D01*
X642384Y1181680D01*
X642411Y1181708D01*
X642634Y1181957D01*
X642800Y1182235D01*
X642939Y1182513D01*
X643022Y1182763D01*
X643078Y1182985D01*
X643106Y1183179D01*
Y1183290D01*
Y1183345D01*
Y1192146D01*
X643439Y1192757D01*
X643827Y1193312D01*
X644244Y1193784D01*
X644688Y1194228D01*
X645160Y1194589D01*
X645632Y1194922D01*
X646104Y1195200D01*
X646548Y1195450D01*
X646992Y1195644D01*
X647409Y1195811D01*
X647770Y1195949D01*
X648103Y1196061D01*
X648380Y1196116D01*
X648575Y1196172D01*
X648686Y1196199D01*
X648741D01*
X648825Y1194423D01*
X648852Y1194034D01*
X648908Y1193673D01*
X649019Y1193368D01*
X649158Y1193118D01*
X649324Y1192896D01*
X649519Y1192701D01*
X649713Y1192562D01*
X649935Y1192424D01*
X650324Y1192257D01*
X650685Y1192174D01*
X650824D01*
X650935Y1192146D01*
X651018D01*
X651434Y1192174D01*
X651767Y1192257D01*
X652101Y1192396D01*
X652350Y1192562D01*
X652600Y1192757D01*
X652795Y1192979D01*
X652961Y1193229D01*
X653100Y1193479D01*
X653294Y1193978D01*
X653350Y1194201D01*
X653405Y1194395D01*
X653433Y1194561D01*
X653461Y1194700D01*
Y1194783D01*
Y1194811D01*
Y1194950D01*
X653489Y1195117D01*
Y1195977D01*
X653461Y1196810D01*
X653350Y1197532D01*
X653156Y1198143D01*
X652933Y1198698D01*
X652683Y1199142D01*
X652378Y1199531D01*
X652045Y1199836D01*
X651740Y1200086D01*
X651406Y1200280D01*
X651073Y1200419D01*
X650768Y1200530D01*
X650518Y1200586D01*
X650296Y1200641D01*
X650102Y1200669D01*
D02*
G37*
G36*
X628919Y1200502D02*
X628614D01*
X627809Y1200475D01*
X627059Y1200364D01*
X626309Y1200225D01*
X625615Y1200031D01*
X624977Y1199809D01*
X624366Y1199559D01*
X623783Y1199281D01*
X623283Y1199003D01*
X622811Y1198698D01*
X622395Y1198448D01*
X622034Y1198170D01*
X621729Y1197948D01*
X621479Y1197754D01*
X621312Y1197615D01*
X621201Y1197504D01*
X621173Y1197476D01*
X620618Y1196893D01*
X620146Y1196310D01*
X619730Y1195700D01*
X619369Y1195089D01*
X619063Y1194478D01*
X618814Y1193867D01*
X618619Y1193284D01*
X618453Y1192757D01*
X618314Y1192229D01*
X618231Y1191757D01*
X618147Y1191341D01*
X618120Y1190952D01*
X618092Y1190675D01*
X618064Y1190453D01*
Y1190258D01*
X618092Y1189425D01*
X618147Y1188676D01*
X618258Y1187954D01*
X618397Y1187288D01*
X618564Y1186677D01*
X618730Y1186122D01*
X618925Y1185622D01*
X619119Y1185178D01*
X619313Y1184789D01*
X619508Y1184428D01*
X619674Y1184151D01*
X619841Y1183901D01*
X619980Y1183734D01*
X620091Y1183595D01*
X620146Y1183512D01*
X620174Y1183484D01*
X620590Y1183096D01*
X621062Y1182735D01*
X621534Y1182429D01*
X622062Y1182179D01*
X622589Y1181957D01*
X623117Y1181791D01*
X623616Y1181624D01*
X624144Y1181513D01*
X624616Y1181430D01*
X625060Y1181347D01*
X625449Y1181319D01*
X625810Y1181263D01*
X626115D01*
X626309Y1181236D01*
X626504D01*
X626837Y1181263D01*
X627198Y1181291D01*
X627531Y1181374D01*
X627864Y1181458D01*
X628142Y1181513D01*
X628392Y1181597D01*
X628530Y1181624D01*
X628586Y1181652D01*
X629058Y1181819D01*
X629558Y1181985D01*
X630030Y1182179D01*
X630474Y1182374D01*
X630835Y1182540D01*
X631140Y1182679D01*
X631251Y1182707D01*
X631334Y1182763D01*
X631390Y1182790D01*
X631418D01*
X631723Y1182513D01*
X632029Y1182290D01*
X632306Y1182068D01*
X632556Y1181902D01*
X633000Y1181624D01*
X633361Y1181430D01*
X633639Y1181319D01*
X633833Y1181263D01*
X633944Y1181236D01*
X633972D01*
X634305Y1181263D01*
X634610Y1181319D01*
X634888Y1181430D01*
X635138Y1181541D01*
X635332Y1181652D01*
X635471Y1181763D01*
X635582Y1181819D01*
X635610Y1181846D01*
X635860Y1182068D01*
X636026Y1182318D01*
X636165Y1182568D01*
X636248Y1182818D01*
X636304Y1183012D01*
X636332Y1183207D01*
Y1183401D01*
X636304Y1183484D01*
X636221Y1183706D01*
X636110Y1183984D01*
X635998Y1184289D01*
X635860Y1184595D01*
X635749Y1184817D01*
X635665Y1185011D01*
X635638Y1185039D01*
Y1185067D01*
X635499Y1185344D01*
X635388Y1185622D01*
X635277Y1185844D01*
X635193Y1186038D01*
X635055Y1186372D01*
X634944Y1186594D01*
X634888Y1186732D01*
X634860Y1186816D01*
X634832Y1186871D01*
X634749Y1187177D01*
X634694Y1187482D01*
X634638Y1187843D01*
X634583Y1188232D01*
X634499Y1189009D01*
X634444Y1189814D01*
X634416Y1190175D01*
Y1190508D01*
Y1190841D01*
X634388Y1191091D01*
Y1191341D01*
Y1191508D01*
Y1191619D01*
Y1191646D01*
Y1192146D01*
X634416Y1192618D01*
Y1193035D01*
X634444Y1193395D01*
Y1193673D01*
X634472Y1193895D01*
Y1194034D01*
Y1194090D01*
X634499Y1194478D01*
X634555Y1194811D01*
X634583Y1195117D01*
X634638Y1195367D01*
X634666Y1195561D01*
X634694Y1195727D01*
X634721Y1195811D01*
Y1195838D01*
X634860Y1196033D01*
X634971Y1196199D01*
X635027Y1196394D01*
X635082Y1196560D01*
X635110Y1196699D01*
X635138Y1196810D01*
Y1196893D01*
Y1196921D01*
X635110Y1197199D01*
X635027Y1197476D01*
X634888Y1197726D01*
X634721Y1197976D01*
X634527Y1198198D01*
X634305Y1198420D01*
X633805Y1198809D01*
X633306Y1199114D01*
X633083Y1199253D01*
X632889Y1199364D01*
X632723Y1199448D01*
X632584Y1199503D01*
X632500Y1199559D01*
X632473D01*
X631668Y1199864D01*
X630946Y1200114D01*
X630279Y1200280D01*
X629724Y1200391D01*
X629474Y1200419D01*
X629252Y1200447D01*
X629058Y1200475D01*
X628919Y1200502D01*
D02*
G37*
G36*
X559069Y1209470D02*
X559042D01*
X558653Y1209442D01*
X558292Y1209331D01*
X557959Y1209164D01*
X557654Y1208998D01*
X557404Y1208803D01*
X557237Y1208665D01*
X557126Y1208554D01*
X557071Y1208498D01*
X556765Y1208137D01*
X556543Y1207804D01*
X556376Y1207471D01*
X556265Y1207193D01*
X556210Y1206943D01*
X556182Y1206749D01*
X556154Y1206638D01*
Y1206582D01*
Y1206194D01*
Y1205777D01*
Y1205333D01*
X556182Y1204861D01*
Y1203889D01*
X556210Y1202946D01*
Y1202501D01*
Y1202085D01*
Y1201724D01*
X556238Y1201391D01*
Y1201113D01*
Y1200919D01*
Y1200808D01*
Y1200752D01*
X556265Y1200058D01*
Y1199392D01*
Y1198781D01*
X556293Y1198198D01*
Y1197671D01*
Y1197199D01*
Y1196755D01*
X556321Y1196394D01*
Y1196033D01*
Y1195755D01*
Y1195505D01*
Y1195283D01*
Y1195117D01*
Y1195006D01*
Y1194950D01*
Y1194922D01*
Y1194589D01*
Y1194201D01*
X556293Y1193368D01*
X556265Y1192507D01*
X556238Y1191646D01*
X556210Y1191258D01*
Y1190869D01*
X556182Y1190536D01*
Y1190258D01*
Y1190008D01*
X556154Y1189842D01*
Y1189703D01*
Y1189675D01*
X556127Y1189037D01*
X556099Y1188454D01*
X556071Y1187898D01*
Y1187371D01*
X556043Y1186899D01*
X556016Y1186483D01*
Y1186066D01*
Y1185733D01*
Y1185428D01*
X555988Y1185150D01*
Y1184400D01*
X556016Y1184040D01*
X556099Y1183734D01*
X556210Y1183456D01*
X556349Y1183207D01*
X556460Y1183012D01*
X556571Y1182846D01*
X556654Y1182763D01*
X556682Y1182735D01*
X556959Y1182513D01*
X557237Y1182346D01*
X557542Y1182235D01*
X557792Y1182152D01*
X558042Y1182096D01*
X558237Y1182068D01*
X558403D01*
X558875Y1181791D01*
X559403Y1181569D01*
X559930Y1181374D01*
X560430Y1181180D01*
X560874Y1181069D01*
X561068Y1181013D01*
X561235Y1180958D01*
X561374Y1180930D01*
X561485Y1180902D01*
X561540Y1180875D01*
X561568D01*
X562179Y1180736D01*
X562734Y1180653D01*
X563234Y1180569D01*
X563678Y1180542D01*
X564011Y1180514D01*
X564289Y1180486D01*
X564511D01*
X565482Y1180514D01*
X566371Y1180569D01*
X567231Y1180653D01*
X568009Y1180791D01*
X568758Y1180930D01*
X569425Y1181097D01*
X570036Y1181263D01*
X570591Y1181430D01*
X571063Y1181597D01*
X571507Y1181791D01*
X571868Y1181930D01*
X572173Y1182068D01*
X572395Y1182207D01*
X572562Y1182290D01*
X572673Y1182346D01*
X572701Y1182374D01*
X573617Y1183040D01*
X574033Y1183401D01*
X574422Y1183762D01*
X574783Y1184151D01*
X575116Y1184511D01*
X575421Y1184872D01*
X575699Y1185233D01*
X575949Y1185539D01*
X576171Y1185844D01*
X576365Y1186122D01*
X576504Y1186344D01*
X576615Y1186538D01*
X576726Y1186705D01*
X576754Y1186788D01*
X576782Y1186816D01*
X577059Y1187343D01*
X577281Y1187843D01*
X577476Y1188370D01*
X577642Y1188870D01*
X577920Y1189842D01*
X578003Y1190314D01*
X578087Y1190730D01*
X578170Y1191119D01*
X578198Y1191480D01*
X578225Y1191813D01*
X578253Y1192063D01*
X578281Y1192285D01*
Y1192590D01*
X578225Y1193534D01*
X578087Y1194423D01*
X577892Y1195311D01*
X577615Y1196144D01*
X577281Y1196949D01*
X576921Y1197699D01*
X576532Y1198420D01*
X576115Y1199059D01*
X575699Y1199670D01*
X575310Y1200197D01*
X574949Y1200669D01*
X574616Y1201058D01*
X574339Y1201363D01*
X574144Y1201585D01*
X574006Y1201724D01*
X573950Y1201780D01*
X573256Y1202418D01*
X572534Y1203001D01*
X571785Y1203556D01*
X571035Y1204056D01*
X570313Y1204500D01*
X569563Y1204917D01*
X568869Y1205305D01*
X568203Y1205639D01*
X567565Y1205944D01*
X566982Y1206194D01*
X566482Y1206416D01*
X566038Y1206610D01*
X565677Y1206749D01*
X565399Y1206832D01*
X565233Y1206888D01*
X565205Y1206916D01*
X565177D01*
X565066Y1206971D01*
X564899Y1207027D01*
X564705Y1207110D01*
X564455Y1207221D01*
X563928Y1207443D01*
X563372Y1207693D01*
X562845Y1207943D01*
X562595Y1208054D01*
X562401Y1208165D01*
X562206Y1208248D01*
X562068Y1208304D01*
X561984Y1208359D01*
X561957D01*
X561540Y1208554D01*
X561152Y1208720D01*
X560818Y1208887D01*
X560513Y1208998D01*
X560235Y1209109D01*
X560013Y1209192D01*
X559791Y1209275D01*
X559625Y1209331D01*
X559347Y1209414D01*
X559180Y1209442D01*
X559069Y1209470D01*
D02*
G37*
%LPD*%
G36*
X665288Y1196449D02*
X665704Y1196394D01*
X666065Y1196310D01*
X666398Y1196199D01*
X666648Y1196088D01*
X666842Y1196005D01*
X666981Y1195949D01*
X667009Y1195922D01*
X667342Y1195700D01*
X667647Y1195422D01*
X667897Y1195172D01*
X668119Y1194895D01*
X668314Y1194645D01*
X668425Y1194450D01*
X668508Y1194339D01*
X668536Y1194284D01*
Y1193784D01*
Y1193284D01*
X668508Y1192396D01*
Y1191619D01*
Y1190925D01*
Y1190314D01*
Y1189814D01*
Y1189370D01*
Y1188981D01*
Y1188676D01*
X668536Y1188426D01*
Y1188232D01*
Y1188093D01*
Y1187982D01*
Y1187926D01*
Y1187871D01*
X668314Y1187649D01*
X668119Y1187482D01*
X668008Y1187371D01*
X667953Y1187316D01*
X667564Y1187010D01*
X667231Y1186760D01*
X666953Y1186566D01*
X666731Y1186427D01*
X666565Y1186316D01*
X666426Y1186261D01*
X666370Y1186205D01*
X666342D01*
X666037Y1186094D01*
X665732Y1186038D01*
X665371Y1185983D01*
X665038Y1185927D01*
X664760D01*
X664510Y1185900D01*
X664288D01*
X663955Y1185927D01*
X663622Y1185955D01*
X662983Y1186122D01*
X662428Y1186316D01*
X661956Y1186566D01*
X661567Y1186816D01*
X661262Y1187038D01*
X661151Y1187121D01*
X661068Y1187177D01*
X661040Y1187204D01*
X661012Y1187232D01*
X660762Y1187482D01*
X660568Y1187760D01*
X660374Y1188037D01*
X660207Y1188315D01*
X659957Y1188870D01*
X659791Y1189370D01*
X659707Y1189814D01*
X659680Y1190008D01*
X659652Y1190175D01*
X659624Y1190286D01*
Y1190397D01*
Y1190453D01*
Y1190480D01*
X659652Y1191036D01*
X659680Y1191535D01*
X659735Y1192007D01*
X659818Y1192451D01*
X659930Y1192840D01*
X660041Y1193229D01*
X660152Y1193562D01*
X660263Y1193867D01*
X660374Y1194117D01*
X660485Y1194339D01*
X660596Y1194534D01*
X660707Y1194700D01*
X660790Y1194811D01*
X660846Y1194922D01*
X660901Y1194950D01*
Y1194978D01*
X661151Y1195256D01*
X661456Y1195478D01*
X661734Y1195672D01*
X662067Y1195838D01*
X662706Y1196116D01*
X663344Y1196283D01*
X663927Y1196394D01*
X664177Y1196422D01*
X664399Y1196449D01*
X664566Y1196477D01*
X664816D01*
X665288Y1196449D01*
D02*
G37*
G36*
X629169Y1196283D02*
X629280Y1196255D01*
X629336Y1196227D01*
X629558Y1196144D01*
X629752Y1196061D01*
X629919Y1196005D01*
X629946Y1195977D01*
X629974D01*
X629919Y1195644D01*
X629863Y1195339D01*
X629835Y1195061D01*
X629780Y1194811D01*
X629752Y1194617D01*
Y1194478D01*
X629724Y1194367D01*
Y1194339D01*
X629696Y1193840D01*
Y1193617D01*
X629669Y1193423D01*
Y1193284D01*
Y1193173D01*
Y1193090D01*
Y1193062D01*
Y1192646D01*
X629696Y1192202D01*
X629724Y1191702D01*
X629752Y1191202D01*
X629835Y1190175D01*
X629919Y1189148D01*
X629974Y1188676D01*
X630002Y1188232D01*
X630057Y1187843D01*
X630085Y1187510D01*
X630113Y1187204D01*
X630141Y1187010D01*
X630168Y1186871D01*
Y1186816D01*
X629835Y1186566D01*
X629530Y1186344D01*
X629225Y1186150D01*
X628919Y1186011D01*
X628697Y1185900D01*
X628503Y1185789D01*
X628392Y1185761D01*
X628336Y1185733D01*
X627975Y1185622D01*
X627614Y1185539D01*
X627253Y1185483D01*
X626948Y1185455D01*
X626670Y1185428D01*
X626476Y1185400D01*
X626282D01*
X625699Y1185455D01*
X625171Y1185594D01*
X624727Y1185761D01*
X624394Y1185983D01*
X624116Y1186205D01*
X623922Y1186372D01*
X623783Y1186510D01*
X623755Y1186566D01*
X623478Y1187066D01*
X623283Y1187621D01*
X623117Y1188204D01*
X623033Y1188787D01*
X622978Y1189287D01*
X622950Y1189509D01*
Y1189703D01*
X622923Y1189870D01*
Y1189981D01*
Y1190064D01*
Y1190092D01*
X622950Y1190536D01*
X623006Y1190980D01*
X623089Y1191396D01*
X623200Y1191813D01*
X623478Y1192562D01*
X623644Y1192868D01*
X623811Y1193173D01*
X623977Y1193451D01*
X624144Y1193701D01*
X624283Y1193923D01*
X624422Y1194090D01*
X624533Y1194228D01*
X624616Y1194339D01*
X624672Y1194395D01*
X624699Y1194423D01*
X625032Y1194756D01*
X625393Y1195033D01*
X625754Y1195311D01*
X626087Y1195505D01*
X626448Y1195700D01*
X626809Y1195838D01*
X627448Y1196088D01*
X627753Y1196144D01*
X628003Y1196199D01*
X628253Y1196255D01*
X628475Y1196283D01*
X628642Y1196310D01*
X629030D01*
X629169Y1196283D01*
D02*
G37*
G36*
X561984Y1203001D02*
X562901Y1202613D01*
X563733Y1202252D01*
X564483Y1201918D01*
X565149Y1201613D01*
X565732Y1201335D01*
X566260Y1201086D01*
X566704Y1200863D01*
X567093Y1200669D01*
X567426Y1200502D01*
X567703Y1200364D01*
X567898Y1200225D01*
X568064Y1200142D01*
X568175Y1200086D01*
X568231Y1200031D01*
X568259D01*
X568731Y1199725D01*
X569147Y1199420D01*
X569563Y1199114D01*
X569924Y1198809D01*
X570619Y1198170D01*
X571202Y1197532D01*
X571701Y1196893D01*
X572090Y1196283D01*
X572423Y1195672D01*
X572701Y1195089D01*
X572923Y1194561D01*
X573061Y1194062D01*
X573173Y1193645D01*
X573256Y1193257D01*
X573311Y1192951D01*
X573339Y1192729D01*
Y1192590D01*
Y1192535D01*
X573311Y1191841D01*
X573200Y1191202D01*
X573034Y1190591D01*
X572867Y1190036D01*
X572701Y1189592D01*
X572617Y1189398D01*
X572534Y1189259D01*
X572478Y1189120D01*
X572423Y1189037D01*
X572395Y1188981D01*
Y1188953D01*
X572034Y1188343D01*
X571618Y1187815D01*
X571202Y1187343D01*
X570813Y1186955D01*
X570452Y1186649D01*
X570174Y1186427D01*
X570063Y1186344D01*
X570008Y1186288D01*
X569952Y1186233D01*
X569924D01*
X569591Y1186066D01*
X569230Y1185900D01*
X568814Y1185761D01*
X568397Y1185650D01*
X567481Y1185455D01*
X566593Y1185344D01*
X566176Y1185289D01*
X565788Y1185261D01*
X565427Y1185233D01*
X565122D01*
X564872Y1185206D01*
X564122D01*
X563733Y1185233D01*
X563400Y1185261D01*
X563123Y1185317D01*
X562873Y1185344D01*
X562706Y1185372D01*
X562567Y1185400D01*
X562540D01*
X562206Y1185483D01*
X561929Y1185594D01*
X561651Y1185705D01*
X561429Y1185816D01*
X561235Y1185927D01*
X561096Y1185983D01*
X561013Y1186038D01*
X560985Y1186066D01*
Y1203418D01*
X561984Y1203001D01*
D02*
G37*
D10*
X753200Y75000D02*
X1203200D01*
X753200Y105000D02*
X1203200D01*
Y75000D02*
Y105000D01*
X753200Y75000D02*
Y105000D01*
X142400Y215600D02*
X1682400D01*
X142400Y1075600D02*
X1682400D01*
Y215600D02*
Y1075600D01*
X142400Y215600D02*
Y1075600D01*
X105000Y105000D02*
X1755000D01*
X105000Y1144500D02*
X1755000D01*
Y105000D02*
Y1144500D01*
X105000Y105000D02*
Y1144500D01*
M02*
