G04*
G04 #@! TF.GenerationSoftware,Altium Limited,Altium Designer,24.1.2 (44)*
G04*
G04 Layer_Physical_Order=2*
G04 Layer_Color=1265191*
%FSLAX44Y44*%
%MOMM*%
G71*
G04*
G04 #@! TF.SameCoordinates,7BAFBD56-1BE7-4131-8B7C-D97C60B49404*
G04*
G04*
G04 #@! TF.FilePolarity,Positive*
G04*
G01*
G75*
%ADD15C,0.3000*%
%ADD18C,1.3500*%
%ADD19R,2.5000X2.5000*%
%ADD20C,6.3500*%
%ADD21C,1.0000*%
%ADD22C,3.0450*%
%ADD23C,0.6000*%
%ADD24C,0.8000*%
%ADD25C,1.0000*%
G36*
X20000Y1247451D02*
X1650000D01*
X1650020Y1247455D01*
X1653406Y1247122D01*
X1656680Y1246128D01*
X1659699Y1244515D01*
X1662344Y1242344D01*
X1664515Y1239699D01*
X1666128Y1236681D01*
X1667122Y1233406D01*
X1667451Y1230061D01*
Y20000D01*
X1667455Y19980D01*
X1667122Y16594D01*
X1666128Y13319D01*
X1664515Y10301D01*
X1662344Y7656D01*
X1659699Y5485D01*
X1656680Y3872D01*
X1653406Y2878D01*
X1650006Y2544D01*
X1650000Y2549D01*
Y2549D01*
X1649677Y2485D01*
X20000D01*
X19980Y2481D01*
X16594Y2814D01*
X13319Y3808D01*
X10301Y5421D01*
X7656Y7592D01*
X5485Y10237D01*
X3872Y13255D01*
X2878Y16530D01*
X2548Y19888D01*
X2557Y19936D01*
Y1230000D01*
X2548Y1230047D01*
X2878Y1233406D01*
X3872Y1236681D01*
X5485Y1239699D01*
X7656Y1242344D01*
X10301Y1244515D01*
X13319Y1246128D01*
X16594Y1247122D01*
X19980Y1247455D01*
X20000Y1247451D01*
D02*
G37*
%LPC*%
G36*
X1621617Y1232850D02*
X1616383D01*
X1611214Y1232031D01*
X1606236Y1230414D01*
X1601573Y1228038D01*
X1597339Y1224962D01*
X1593638Y1221261D01*
X1590562Y1217027D01*
X1588186Y1212364D01*
X1586569Y1207386D01*
X1585750Y1202217D01*
Y1196983D01*
X1586569Y1191814D01*
X1588186Y1186836D01*
X1590562Y1182173D01*
X1593638Y1177939D01*
X1597339Y1174238D01*
X1601573Y1171162D01*
X1606236Y1168786D01*
X1611214Y1167169D01*
X1616383Y1166350D01*
X1621617D01*
X1626786Y1167169D01*
X1631764Y1168786D01*
X1636427Y1171162D01*
X1640661Y1174238D01*
X1644362Y1177939D01*
X1647438Y1182173D01*
X1649814Y1186836D01*
X1651431Y1191814D01*
X1652250Y1196983D01*
Y1202217D01*
X1651431Y1207386D01*
X1649814Y1212364D01*
X1647438Y1217027D01*
X1644362Y1221261D01*
X1640661Y1224962D01*
X1636427Y1228038D01*
X1631764Y1230414D01*
X1626786Y1232031D01*
X1621617Y1232850D01*
D02*
G37*
G36*
X837617D02*
X832383D01*
X827214Y1232031D01*
X822236Y1230414D01*
X817573Y1228038D01*
X813339Y1224962D01*
X809638Y1221261D01*
X806562Y1217027D01*
X804186Y1212364D01*
X802569Y1207386D01*
X801750Y1202217D01*
Y1196983D01*
X802569Y1191814D01*
X804186Y1186836D01*
X806562Y1182173D01*
X809638Y1177939D01*
X813339Y1174238D01*
X817573Y1171162D01*
X822236Y1168786D01*
X827214Y1167169D01*
X832383Y1166350D01*
X837617D01*
X842786Y1167169D01*
X847764Y1168786D01*
X852427Y1171162D01*
X856661Y1174238D01*
X860362Y1177939D01*
X863438Y1182173D01*
X865814Y1186836D01*
X867431Y1191814D01*
X868250Y1196983D01*
Y1202217D01*
X867431Y1207386D01*
X865814Y1212364D01*
X863438Y1217027D01*
X860362Y1221261D01*
X856661Y1224962D01*
X852427Y1228038D01*
X847764Y1230414D01*
X842786Y1232031D01*
X837617Y1232850D01*
D02*
G37*
G36*
X52617D02*
X47383D01*
X42214Y1232031D01*
X37236Y1230414D01*
X32573Y1228038D01*
X28339Y1224962D01*
X24638Y1221261D01*
X21562Y1217027D01*
X19186Y1212364D01*
X17569Y1207386D01*
X16750Y1202217D01*
Y1196983D01*
X17569Y1191814D01*
X19186Y1186836D01*
X21562Y1182173D01*
X24638Y1177939D01*
X28339Y1174238D01*
X32573Y1171162D01*
X37236Y1168786D01*
X42214Y1167169D01*
X47383Y1166350D01*
X52617D01*
X57786Y1167169D01*
X62764Y1168786D01*
X67427Y1171162D01*
X71661Y1174238D01*
X75362Y1177939D01*
X78438Y1182173D01*
X80814Y1186836D01*
X82431Y1191814D01*
X83250Y1196983D01*
Y1202217D01*
X82431Y1207386D01*
X80814Y1212364D01*
X78438Y1217027D01*
X75362Y1221261D01*
X71661Y1224962D01*
X67427Y1228038D01*
X62764Y1230414D01*
X57786Y1232031D01*
X52617Y1232850D01*
D02*
G37*
G36*
X128324Y1108491D02*
X126534D01*
X124880Y1107806D01*
X123614Y1106540D01*
X122929Y1104886D01*
Y1103096D01*
X123614Y1101442D01*
X124880Y1100176D01*
X124966Y1100140D01*
Y1098765D01*
X124580Y1098606D01*
X123314Y1097340D01*
X122629Y1095686D01*
Y1093896D01*
X123314Y1092242D01*
X124580Y1090976D01*
X126234Y1090291D01*
X128024D01*
X129678Y1090976D01*
X130944Y1092242D01*
X131629Y1093896D01*
Y1095686D01*
X130944Y1097340D01*
X129678Y1098606D01*
X129592Y1098641D01*
Y1100016D01*
X129978Y1100176D01*
X131244Y1101442D01*
X131929Y1103096D01*
Y1104886D01*
X131244Y1106540D01*
X129978Y1107806D01*
X128324Y1108491D01*
D02*
G37*
G36*
X104702D02*
X102912D01*
X101258Y1107806D01*
X99992Y1106540D01*
X99307Y1104886D01*
Y1103096D01*
X99992Y1101442D01*
X101258Y1100176D01*
X101344Y1100140D01*
Y1098765D01*
X100958Y1098606D01*
X99692Y1097340D01*
X99007Y1095686D01*
Y1093896D01*
X99692Y1092242D01*
X100958Y1090976D01*
X102612Y1090291D01*
X104402D01*
X106056Y1090976D01*
X107322Y1092242D01*
X108007Y1093896D01*
Y1095686D01*
X107322Y1097340D01*
X106056Y1098606D01*
X105970Y1098641D01*
Y1100016D01*
X106356Y1100176D01*
X107622Y1101442D01*
X108307Y1103096D01*
Y1104886D01*
X107622Y1106540D01*
X106356Y1107806D01*
X104702Y1108491D01*
D02*
G37*
G36*
X82350D02*
X80560D01*
X78906Y1107806D01*
X77640Y1106540D01*
X76955Y1104886D01*
Y1103096D01*
X77640Y1101442D01*
X78906Y1100176D01*
X78992Y1100140D01*
Y1098765D01*
X78606Y1098606D01*
X77340Y1097340D01*
X76655Y1095686D01*
Y1093896D01*
X77340Y1092242D01*
X78606Y1090976D01*
X80260Y1090291D01*
X82050D01*
X83704Y1090976D01*
X84970Y1092242D01*
X85655Y1093896D01*
Y1095686D01*
X84970Y1097340D01*
X83704Y1098606D01*
X83618Y1098641D01*
Y1100016D01*
X84004Y1100176D01*
X85270Y1101442D01*
X85955Y1103096D01*
Y1104886D01*
X85270Y1106540D01*
X84004Y1107806D01*
X82350Y1108491D01*
D02*
G37*
G36*
X1592391Y1103160D02*
X1578891D01*
Y1089660D01*
X1592391D01*
Y1103160D01*
D02*
G37*
G36*
X1575891D02*
X1562391D01*
Y1089660D01*
X1575891D01*
Y1103160D01*
D02*
G37*
G36*
X1653391D02*
X1639891D01*
Y1089660D01*
X1653391D01*
Y1103160D01*
D02*
G37*
G36*
X1636891D02*
X1623391D01*
Y1089660D01*
X1636891D01*
Y1103160D01*
D02*
G37*
G36*
X1653391Y1086660D02*
X1639891D01*
Y1073160D01*
X1653391D01*
Y1086660D01*
D02*
G37*
G36*
X1636891D02*
X1623391D01*
Y1073160D01*
X1636891D01*
Y1086660D01*
D02*
G37*
G36*
X1592391Y1086660D02*
X1578891D01*
Y1073160D01*
X1592391D01*
Y1086660D01*
D02*
G37*
G36*
X1575891D02*
X1562391D01*
Y1073160D01*
X1575891D01*
Y1086660D01*
D02*
G37*
G36*
X1533726Y1059852D02*
X1531936D01*
X1530282Y1059167D01*
X1529016Y1057901D01*
X1528331Y1056247D01*
X1527109Y1056147D01*
X1526424Y1057801D01*
X1525158Y1059067D01*
X1523504Y1059752D01*
X1521714D01*
X1520060Y1059067D01*
X1518794Y1057801D01*
X1518109Y1056147D01*
Y1054357D01*
X1518794Y1052703D01*
X1520060Y1051437D01*
X1520146Y1051402D01*
Y1050027D01*
X1519760Y1049867D01*
X1518494Y1048601D01*
X1517809Y1046947D01*
Y1045157D01*
X1518494Y1043503D01*
X1519760Y1042237D01*
X1521414Y1041552D01*
X1523204D01*
X1524858Y1042237D01*
X1526124Y1043503D01*
X1526809Y1045157D01*
Y1046947D01*
X1526124Y1048601D01*
X1524858Y1049867D01*
X1524772Y1049903D01*
Y1051277D01*
X1525158Y1051437D01*
X1526424Y1052703D01*
X1527109Y1054357D01*
X1528331Y1054457D01*
X1529016Y1052803D01*
X1530282Y1051537D01*
X1530668Y1051377D01*
Y1050003D01*
X1530582Y1049967D01*
X1529316Y1048701D01*
X1528631Y1047047D01*
Y1045257D01*
X1529316Y1043603D01*
X1530582Y1042337D01*
X1532236Y1041652D01*
X1534026D01*
X1535680Y1042337D01*
X1536946Y1043603D01*
X1537631Y1045257D01*
Y1047047D01*
X1536946Y1048701D01*
X1535680Y1049967D01*
X1535294Y1050127D01*
Y1051502D01*
X1535380Y1051537D01*
X1536646Y1052803D01*
X1537331Y1054457D01*
Y1056247D01*
X1536646Y1057901D01*
X1535380Y1059167D01*
X1533726Y1059852D01*
D02*
G37*
G36*
X1506295Y1049600D02*
X1504505D01*
X1502851Y1048915D01*
X1501585Y1047649D01*
X1500900Y1045995D01*
Y1044205D01*
X1501585Y1042551D01*
X1502851Y1041285D01*
X1504505Y1040600D01*
X1506295D01*
X1507949Y1041285D01*
X1509215Y1042551D01*
X1509900Y1044205D01*
Y1045995D01*
X1509215Y1047649D01*
X1507949Y1048915D01*
X1506295Y1049600D01*
D02*
G37*
G36*
X1584780Y1043410D02*
X1583003D01*
X1581286Y1042950D01*
X1579747Y1042061D01*
X1578490Y1040805D01*
X1577601Y1039265D01*
X1577141Y1037549D01*
Y1035771D01*
X1577601Y1034055D01*
X1578490Y1032515D01*
X1579747Y1031259D01*
X1581286Y1030370D01*
X1582391Y1030074D01*
Y1035160D01*
X1577305D01*
X1577142Y1036660D01*
X1577305Y1038160D01*
X1582391D01*
Y1043246D01*
X1583891Y1043410D01*
X1585391Y1043246D01*
Y1038160D01*
X1590477D01*
X1590641Y1036660D01*
X1590477Y1035160D01*
X1585391D01*
Y1030074D01*
X1586497Y1030370D01*
X1588036Y1031259D01*
X1589293Y1032515D01*
X1590181Y1034055D01*
X1590641Y1035771D01*
Y1037549D01*
X1590181Y1039265D01*
X1589293Y1040805D01*
X1588036Y1042061D01*
X1586497Y1042950D01*
X1584780Y1043410D01*
D02*
G37*
G36*
X1585391Y1030074D02*
X1583892Y1029910D01*
X1584780D01*
X1585391Y1030074D01*
D02*
G37*
G36*
X1582392Y1030074D02*
X1583003Y1029910D01*
X1583891D01*
X1582392Y1030074D01*
D02*
G37*
G36*
X1483795Y1016700D02*
X1482005D01*
X1480351Y1016015D01*
X1479085Y1014749D01*
X1478400Y1013095D01*
Y1011305D01*
X1479085Y1009651D01*
X1480351Y1008385D01*
X1482005Y1007700D01*
X1483795D01*
X1485449Y1008385D01*
X1486715Y1009651D01*
X1487400Y1011305D01*
Y1013095D01*
X1486715Y1014749D01*
X1485449Y1016015D01*
X1483795Y1016700D01*
D02*
G37*
G36*
X1454295Y1020800D02*
X1452505D01*
X1450851Y1020115D01*
X1449585Y1018849D01*
X1448900Y1017195D01*
Y1015405D01*
X1449585Y1013751D01*
X1450786Y1012550D01*
X1449585Y1011349D01*
X1448900Y1009695D01*
Y1007905D01*
X1449585Y1006251D01*
X1450851Y1004985D01*
X1452505Y1004300D01*
X1454295D01*
X1455949Y1004985D01*
X1457215Y1006251D01*
X1457900Y1007905D01*
Y1009695D01*
X1457215Y1011349D01*
X1456014Y1012550D01*
X1457215Y1013751D01*
X1457900Y1015405D01*
Y1017195D01*
X1457215Y1018849D01*
X1455949Y1020115D01*
X1454295Y1020800D01*
D02*
G37*
G36*
X1583891Y994410D02*
X1583003D01*
X1582392Y994246D01*
X1583891Y994410D01*
D02*
G37*
G36*
X1584780D02*
X1583892D01*
X1585391Y994246D01*
X1584780Y994410D01*
D02*
G37*
G36*
X1585391Y994246D02*
Y989160D01*
X1590477D01*
X1590641Y987660D01*
X1590477Y986160D01*
X1585391D01*
Y981074D01*
X1583891Y980910D01*
X1582391Y981074D01*
Y986160D01*
X1577305D01*
X1577142Y987660D01*
X1577305Y989160D01*
X1582391D01*
Y994246D01*
X1581286Y993950D01*
X1579747Y993061D01*
X1578490Y991805D01*
X1577601Y990265D01*
X1577141Y988549D01*
Y986771D01*
X1577601Y985055D01*
X1578490Y983515D01*
X1579747Y982259D01*
X1581286Y981370D01*
X1583003Y980910D01*
X1584780D01*
X1586497Y981370D01*
X1588036Y982259D01*
X1589293Y983515D01*
X1590181Y985055D01*
X1590641Y986771D01*
Y988549D01*
X1590181Y990265D01*
X1589293Y991805D01*
X1588036Y993061D01*
X1586497Y993950D01*
X1585391Y994246D01*
D02*
G37*
G36*
X1592391Y951160D02*
X1578891D01*
Y937660D01*
X1592391D01*
Y951160D01*
D02*
G37*
G36*
X1575891D02*
X1562391D01*
Y937660D01*
X1575891D01*
Y951160D01*
D02*
G37*
G36*
X1653391D02*
X1639891D01*
Y937660D01*
X1653391D01*
Y951160D01*
D02*
G37*
G36*
X1636891D02*
X1623391D01*
Y937660D01*
X1636891D01*
Y951160D01*
D02*
G37*
G36*
X1653391Y934660D02*
X1639891D01*
Y921160D01*
X1653391D01*
Y934660D01*
D02*
G37*
G36*
X1636891D02*
X1623391D01*
Y921160D01*
X1636891D01*
Y934660D01*
D02*
G37*
G36*
X1592391Y934660D02*
X1578891D01*
Y921160D01*
X1592391D01*
Y934660D01*
D02*
G37*
G36*
X1575891D02*
X1562391D01*
Y921160D01*
X1575891D01*
Y934660D01*
D02*
G37*
G36*
X131195Y847300D02*
X129405D01*
X127751Y846615D01*
X126485Y845349D01*
X125800Y843695D01*
Y841905D01*
X126485Y840251D01*
X127751Y838985D01*
X129405Y838300D01*
X131195D01*
X132849Y838985D01*
X134115Y840251D01*
X134800Y841905D01*
Y843695D01*
X134115Y845349D01*
X132849Y846615D01*
X131195Y847300D01*
D02*
G37*
G36*
X1235700Y1099408D02*
X1233554Y1098981D01*
X1231735Y1097765D01*
X1230519Y1095946D01*
X1230092Y1093800D01*
Y803924D01*
X859573D01*
X805024Y858473D01*
Y1006200D01*
X804548Y1007348D01*
X740848Y1071048D01*
X739700Y1071524D01*
X412049D01*
X412047Y1071523D01*
X412044Y1071524D01*
X411471Y1071284D01*
X410901Y1071048D01*
X410900Y1071045D01*
X410897Y1071044D01*
X335048Y994682D01*
X334813Y994109D01*
X334576Y993537D01*
Y865673D01*
X290128Y821224D01*
X201400D01*
X200252Y820748D01*
X199776Y819600D01*
Y677500D01*
X200252Y676352D01*
X201400Y675876D01*
X323526D01*
X505251Y493753D01*
X505252Y493753D01*
X505252Y493752D01*
X570952Y428052D01*
X572100Y427576D01*
X574918Y427576D01*
X643818D01*
X644966Y428052D01*
X680190Y463276D01*
X708500D01*
X709648Y463752D01*
X716748Y470852D01*
X717224Y472000D01*
Y482827D01*
X719973Y485576D01*
X819300D01*
X820448Y486052D01*
X856424Y522028D01*
X857327Y521931D01*
X858050Y520694D01*
X857803Y520098D01*
Y518400D01*
X856105D01*
X854451Y517715D01*
X853185Y516449D01*
X852500Y514795D01*
Y513005D01*
X853185Y511351D01*
X854451Y510085D01*
X856105Y509400D01*
X857895D01*
X859549Y510085D01*
X860815Y511351D01*
X861500Y513005D01*
Y514703D01*
X863198D01*
X864852Y515388D01*
X866118Y516654D01*
X866803Y518308D01*
Y520098D01*
X866344Y521206D01*
X867054Y522476D01*
X1175836D01*
X1176313Y522674D01*
X1176813Y522803D01*
X1176873Y522906D01*
X1176984Y522952D01*
X1177181Y523429D01*
X1177444Y523874D01*
X1177613Y525074D01*
X1177788Y525300D01*
X1177795D01*
X1179449Y525985D01*
X1180715Y527251D01*
X1181400Y528905D01*
Y530695D01*
X1181485Y530859D01*
X1182331Y531052D01*
X1182701Y531314D01*
X1183119Y531487D01*
X1183471Y531838D01*
X1184528Y532276D01*
X1185672D01*
X1186729Y531838D01*
X1187539Y531029D01*
X1187976Y529972D01*
Y528828D01*
X1187539Y527771D01*
X1186729Y526962D01*
X1186508Y526870D01*
X1186173Y526535D01*
X1185780Y526272D01*
X1185747Y526109D01*
X1185630Y525991D01*
Y525518D01*
X1185537Y525053D01*
X1185790Y523783D01*
X1186053Y523390D01*
X1186234Y522952D01*
X1186388Y522888D01*
X1186480Y522750D01*
X1186945Y522658D01*
X1187382Y522476D01*
X1201136D01*
X1201613Y522674D01*
X1202113Y522803D01*
X1202173Y522906D01*
X1202284Y522952D01*
X1202482Y523429D01*
X1202744Y523874D01*
X1202913Y525074D01*
X1203088Y525300D01*
X1203095D01*
X1204749Y525985D01*
X1206015Y527251D01*
X1206700Y528905D01*
Y530695D01*
X1206968Y531031D01*
X1207900Y531623D01*
X1208007Y531775D01*
X1208178Y531846D01*
X1208471Y532138D01*
X1209414Y532529D01*
X1209489Y532604D01*
X1209595Y532618D01*
X1209919Y533034D01*
X1210263Y533378D01*
X1211202Y533249D01*
X1211459Y533142D01*
X1211475Y532941D01*
X1211649Y532600D01*
X1211666Y532470D01*
X1211744Y532409D01*
X1211945Y531923D01*
X1212539Y531329D01*
X1212976Y530272D01*
Y529128D01*
X1212539Y528071D01*
X1211729Y527262D01*
X1210784Y526870D01*
X1210449Y526535D01*
X1210055Y526272D01*
X1210023Y526109D01*
X1209905Y525991D01*
Y525518D01*
X1209813Y525053D01*
X1210066Y523783D01*
X1210329Y523390D01*
X1210510Y522952D01*
X1210664Y522888D01*
X1210756Y522750D01*
X1211221Y522658D01*
X1211658Y522476D01*
X1313600D01*
X1314748Y522952D01*
X1359248Y567452D01*
X1359724Y568600D01*
Y764600D01*
X1359248Y765748D01*
X1321548Y803448D01*
X1320400Y803924D01*
X1241308D01*
Y1093800D01*
X1240881Y1095946D01*
X1239665Y1097765D01*
X1237846Y1098981D01*
X1235700Y1099408D01*
D02*
G37*
G36*
X180889Y657691D02*
X179099D01*
X177445Y657006D01*
X176179Y655740D01*
X175494Y654086D01*
Y652296D01*
X176179Y650642D01*
X177445Y649376D01*
X179099Y648691D01*
X180889D01*
X182543Y649376D01*
X183809Y650642D01*
X184494Y652296D01*
Y654086D01*
X183809Y655740D01*
X182543Y657006D01*
X180889Y657691D01*
D02*
G37*
G36*
X162420D02*
X160630D01*
X158976Y657006D01*
X157710Y655740D01*
X157025Y654086D01*
Y652296D01*
X157710Y650642D01*
X158976Y649376D01*
X160630Y648691D01*
X162420D01*
X164074Y649376D01*
X165340Y650642D01*
X166025Y652296D01*
Y654086D01*
X165340Y655740D01*
X164074Y657006D01*
X162420Y657691D01*
D02*
G37*
G36*
X143950D02*
X142160D01*
X140506Y657006D01*
X139240Y655740D01*
X138555Y654086D01*
Y652296D01*
X139240Y650642D01*
X140506Y649376D01*
X142160Y648691D01*
X143950D01*
X145604Y649376D01*
X146870Y650642D01*
X147555Y652296D01*
Y654086D01*
X146870Y655740D01*
X145604Y657006D01*
X143950Y657691D01*
D02*
G37*
G36*
X190124Y644991D02*
X188334D01*
X186680Y644306D01*
X185414Y643040D01*
X184729Y641386D01*
Y639596D01*
X185414Y637942D01*
X186680Y636676D01*
X188334Y635991D01*
X190124D01*
X191778Y636676D01*
X193044Y637942D01*
X193729Y639596D01*
Y641386D01*
X193044Y643040D01*
X191778Y644306D01*
X190124Y644991D01*
D02*
G37*
G36*
X171654D02*
X169864D01*
X168210Y644306D01*
X166945Y643040D01*
X166259Y641386D01*
Y639596D01*
X166945Y637942D01*
X168210Y636676D01*
X169864Y635991D01*
X171654D01*
X173309Y636676D01*
X174574Y637942D01*
X175259Y639596D01*
Y641386D01*
X174574Y643040D01*
X173309Y644306D01*
X171654Y644991D01*
D02*
G37*
G36*
X153185D02*
X151395D01*
X149741Y644306D01*
X148475Y643040D01*
X147790Y641386D01*
Y639596D01*
X148475Y637942D01*
X149741Y636676D01*
X151395Y635991D01*
X153185D01*
X154839Y636676D01*
X156105Y637942D01*
X156790Y639596D01*
Y641386D01*
X156105Y643040D01*
X154839Y644306D01*
X153185Y644991D01*
D02*
G37*
G36*
X1621617Y658250D02*
X1616383D01*
X1611214Y657431D01*
X1606236Y655814D01*
X1601573Y653438D01*
X1597339Y650362D01*
X1593638Y646661D01*
X1590562Y642427D01*
X1588186Y637764D01*
X1586569Y632786D01*
X1585750Y627617D01*
Y622383D01*
X1586569Y617214D01*
X1588186Y612236D01*
X1590562Y607573D01*
X1593638Y603339D01*
X1597339Y599638D01*
X1601573Y596562D01*
X1606236Y594186D01*
X1611214Y592569D01*
X1616383Y591750D01*
X1621617D01*
X1626786Y592569D01*
X1631764Y594186D01*
X1636427Y596562D01*
X1640661Y599638D01*
X1644362Y603339D01*
X1647438Y607573D01*
X1649814Y612236D01*
X1651431Y617214D01*
X1652250Y622383D01*
Y627617D01*
X1651431Y632786D01*
X1649814Y637764D01*
X1647438Y642427D01*
X1644362Y646661D01*
X1640661Y650362D01*
X1636427Y653438D01*
X1631764Y655814D01*
X1626786Y657431D01*
X1621617Y658250D01*
D02*
G37*
G36*
X52617D02*
X47383D01*
X42214Y657431D01*
X37236Y655814D01*
X32573Y653438D01*
X28339Y650362D01*
X24638Y646661D01*
X21562Y642427D01*
X19186Y637764D01*
X17569Y632786D01*
X16750Y627617D01*
Y622383D01*
X17569Y617214D01*
X19186Y612236D01*
X21562Y607573D01*
X24638Y603339D01*
X28339Y599638D01*
X32573Y596562D01*
X37236Y594186D01*
X42214Y592569D01*
X47383Y591750D01*
X52617D01*
X57786Y592569D01*
X62764Y594186D01*
X67427Y596562D01*
X71661Y599638D01*
X75362Y603339D01*
X78438Y607573D01*
X80814Y612236D01*
X82431Y617214D01*
X83250Y622383D01*
Y627617D01*
X82431Y632786D01*
X80814Y637764D01*
X78438Y642427D01*
X75362Y646661D01*
X71661Y650362D01*
X67427Y653438D01*
X62764Y655814D01*
X57786Y657431D01*
X52617Y658250D01*
D02*
G37*
G36*
X477795Y516500D02*
X476005D01*
X474351Y515815D01*
X473085Y514549D01*
X472400Y512895D01*
Y511105D01*
X473085Y509451D01*
X474351Y508185D01*
X476005Y507500D01*
X477795D01*
X479449Y508185D01*
X480715Y509451D01*
X481400Y511105D01*
Y512895D01*
X480715Y514549D01*
X479449Y515815D01*
X477795Y516500D01*
D02*
G37*
G36*
X1533595Y498600D02*
X1531805D01*
X1530151Y497915D01*
X1528885Y496649D01*
X1528200Y494995D01*
Y493205D01*
X1528885Y491551D01*
X1530151Y490285D01*
X1531805Y489600D01*
X1533595D01*
X1535249Y490285D01*
X1536515Y491551D01*
X1537200Y493205D01*
Y494995D01*
X1536515Y496649D01*
X1535249Y497915D01*
X1533595Y498600D01*
D02*
G37*
G36*
X1493995Y489400D02*
X1492205D01*
X1490551Y488715D01*
X1489285Y487449D01*
X1488600Y485795D01*
Y484005D01*
X1489285Y482351D01*
X1490551Y481085D01*
X1492205Y480400D01*
X1493995D01*
X1495649Y481085D01*
X1496915Y482351D01*
X1497600Y484005D01*
Y485795D01*
X1496915Y487449D01*
X1495649Y488715D01*
X1493995Y489400D01*
D02*
G37*
G36*
X1621944Y484595D02*
X1619955D01*
X1618117Y483834D01*
X1616711Y482428D01*
X1615950Y480590D01*
Y478601D01*
X1616711Y476763D01*
X1618117Y475357D01*
X1619955Y474595D01*
X1621944D01*
X1623782Y475357D01*
X1625188Y476763D01*
X1625950Y478601D01*
Y480590D01*
X1625188Y482428D01*
X1623782Y483834D01*
X1621944Y484595D01*
D02*
G37*
G36*
X766594Y482369D02*
X764804D01*
X763150Y481684D01*
X761884Y480418D01*
X761199Y478764D01*
Y476974D01*
X761884Y475320D01*
X763150Y474054D01*
X764804Y473369D01*
X766594D01*
X768248Y474054D01*
X769514Y475320D01*
X770199Y476974D01*
Y478764D01*
X769514Y480418D01*
X768248Y481684D01*
X766594Y482369D01*
D02*
G37*
G36*
X751600Y472919D02*
X749810D01*
X748156Y472234D01*
X747563Y471641D01*
X746845Y470999D01*
X745904Y471641D01*
X745421Y472123D01*
X743767Y472808D01*
X741977D01*
X740323Y472123D01*
X739057Y470857D01*
X738372Y469203D01*
Y468867D01*
X737316Y468161D01*
X737128Y468239D01*
X735338D01*
X733684Y467554D01*
X732418Y466288D01*
X731733Y464634D01*
Y462844D01*
X732418Y461190D01*
X733684Y459924D01*
X735338Y459239D01*
X737128D01*
X738782Y459924D01*
X740048Y461190D01*
X740733Y462844D01*
Y463181D01*
X741789Y463886D01*
X741977Y463808D01*
X743767D01*
X745421Y464493D01*
X746014Y465086D01*
X746732Y465728D01*
X747674Y465086D01*
X748156Y464604D01*
X749810Y463919D01*
X751600D01*
X753254Y464604D01*
X754349Y465699D01*
X754388Y465691D01*
X755654Y464425D01*
X757308Y463740D01*
X759098D01*
X760752Y464425D01*
X762018Y465691D01*
X762703Y467345D01*
Y469135D01*
X762018Y470789D01*
X760752Y472055D01*
X759098Y472740D01*
X757308D01*
X755654Y472055D01*
X754559Y470960D01*
X754520Y470968D01*
X753254Y472234D01*
X751600Y472919D01*
D02*
G37*
G36*
X783638D02*
X781848D01*
X780194Y472234D01*
X778928Y470968D01*
X778604Y470186D01*
X777230D01*
X776906Y470968D01*
X775640Y472234D01*
X773986Y472919D01*
X772196D01*
X770542Y472234D01*
X769276Y470968D01*
X768591Y469314D01*
Y467524D01*
X769276Y465870D01*
X770542Y464604D01*
X772196Y463919D01*
X773986D01*
X775640Y464604D01*
X776906Y465870D01*
X777230Y466652D01*
X778604D01*
X778928Y465870D01*
X780194Y464604D01*
X781848Y463919D01*
X783638D01*
X785292Y464604D01*
X786558Y465870D01*
X787243Y467524D01*
Y469314D01*
X786558Y470968D01*
X785292Y472234D01*
X783638Y472919D01*
D02*
G37*
G36*
X1493995Y477100D02*
X1492205D01*
X1490551Y476415D01*
X1489285Y475149D01*
X1488600Y473495D01*
Y471705D01*
X1489285Y470051D01*
X1490551Y468785D01*
X1492205Y468100D01*
X1493995D01*
X1495649Y468785D01*
X1496915Y470051D01*
X1497600Y471705D01*
Y473495D01*
X1496915Y475149D01*
X1495649Y476415D01*
X1493995Y477100D01*
D02*
G37*
G36*
X191795Y466586D02*
X190005D01*
X188351Y465901D01*
X187085Y464635D01*
X186400Y462981D01*
Y461191D01*
X187085Y459537D01*
X188351Y458271D01*
X190005Y457586D01*
X191795D01*
X193449Y458271D01*
X194715Y459537D01*
X195400Y461191D01*
Y462981D01*
X194715Y464635D01*
X193449Y465901D01*
X191795Y466586D01*
D02*
G37*
G36*
X721279Y464016D02*
X719489D01*
X717835Y463331D01*
X716569Y462065D01*
X715884Y460411D01*
Y458621D01*
X716569Y456967D01*
X717835Y455701D01*
X719489Y455016D01*
X721279D01*
X722933Y455701D01*
X724199Y456967D01*
X724884Y458621D01*
Y460411D01*
X724199Y462065D01*
X722933Y463331D01*
X721279Y464016D01*
D02*
G37*
G36*
X173819Y461862D02*
X172029D01*
X170375Y461177D01*
X169109Y459911D01*
X168424Y458257D01*
Y456467D01*
X169109Y454813D01*
X170375Y453547D01*
X172029Y452862D01*
X173819D01*
X175473Y453547D01*
X176739Y454813D01*
X177424Y456467D01*
Y458257D01*
X176739Y459911D01*
X175473Y461177D01*
X173819Y461862D01*
D02*
G37*
G36*
X1493995Y456400D02*
X1492205D01*
X1490551Y455715D01*
X1489285Y454449D01*
X1488600Y452795D01*
Y451005D01*
X1489285Y449351D01*
X1490551Y448085D01*
X1492205Y447400D01*
X1493995D01*
X1495649Y448085D01*
X1496915Y449351D01*
X1497600Y451005D01*
Y452795D01*
X1496915Y454449D01*
X1495649Y455715D01*
X1493995Y456400D01*
D02*
G37*
G36*
X174073Y435700D02*
X172283D01*
X170629Y435015D01*
X169363Y433749D01*
X168678Y432095D01*
Y430305D01*
X169363Y428651D01*
X170629Y427385D01*
X172283Y426700D01*
X174073D01*
X175727Y427385D01*
X176993Y428651D01*
X177678Y430305D01*
Y432095D01*
X176993Y433749D01*
X175727Y435015D01*
X174073Y435700D01*
D02*
G37*
G36*
X1493995Y434600D02*
X1492205D01*
X1490551Y433915D01*
X1489285Y432649D01*
X1488600Y430995D01*
Y429205D01*
X1489285Y427551D01*
X1490551Y426285D01*
X1492205Y425600D01*
X1493995D01*
X1495649Y426285D01*
X1496915Y427551D01*
X1497600Y429205D01*
Y430995D01*
X1496915Y432649D01*
X1495649Y433915D01*
X1493995Y434600D01*
D02*
G37*
G36*
X1463295Y411800D02*
X1461505D01*
X1459851Y411115D01*
X1458585Y409849D01*
X1457900Y408195D01*
Y406405D01*
X1458585Y404751D01*
X1459851Y403485D01*
X1461505Y402800D01*
X1463295D01*
X1464949Y403485D01*
X1466215Y404751D01*
X1466900Y406405D01*
Y408195D01*
X1466215Y409849D01*
X1464949Y411115D01*
X1463295Y411800D01*
D02*
G37*
G36*
X1450095Y405800D02*
X1448305D01*
X1446651Y405115D01*
X1445385Y403849D01*
X1444700Y402195D01*
Y400405D01*
X1445385Y398751D01*
X1446651Y397485D01*
X1448305Y396800D01*
X1450095D01*
X1451749Y397485D01*
X1453015Y398751D01*
X1453700Y400405D01*
Y402195D01*
X1453015Y403849D01*
X1451749Y405115D01*
X1450095Y405800D01*
D02*
G37*
G36*
X1621944Y404795D02*
X1619955D01*
X1618117Y404034D01*
X1616711Y402628D01*
X1615950Y400790D01*
Y398801D01*
X1616711Y396963D01*
X1618117Y395557D01*
X1619955Y394795D01*
X1621944D01*
X1623782Y395557D01*
X1625188Y396963D01*
X1625950Y398801D01*
Y400790D01*
X1625188Y402628D01*
X1623782Y404034D01*
X1621944Y404795D01*
D02*
G37*
G36*
X1363973Y222599D02*
Y222549D01*
X1069053D01*
Y222599D01*
X1067087Y222208D01*
X1065419Y221094D01*
X1064306Y219426D01*
X1063914Y217460D01*
X1063964D01*
Y182540D01*
X1063914D01*
X1064306Y180574D01*
X1065419Y178906D01*
X1067087Y177792D01*
X1069053Y177401D01*
Y177451D01*
X1363973D01*
Y177401D01*
X1365940Y177792D01*
X1367607Y178906D01*
X1368721Y180574D01*
X1369112Y182540D01*
X1369062D01*
Y217460D01*
X1369112D01*
X1368721Y219426D01*
X1367607Y221094D01*
X1365940Y222208D01*
X1363973Y222599D01*
D02*
G37*
G36*
X118089Y181142D02*
X116299D01*
X114645Y180457D01*
X113379Y179191D01*
X112694Y177537D01*
Y175747D01*
X113379Y174093D01*
X114645Y172827D01*
X116299Y172142D01*
X118089D01*
X119743Y172827D01*
X121009Y174093D01*
X121694Y175747D01*
Y177537D01*
X121009Y179191D01*
X119743Y180457D01*
X118089Y181142D01*
D02*
G37*
G36*
X442300Y506056D02*
X440603Y505833D01*
X439022Y505178D01*
X437664Y504136D01*
X436622Y502778D01*
X435967Y501197D01*
X435744Y499500D01*
Y396600D01*
X435967Y394903D01*
X436622Y393322D01*
X437664Y391964D01*
X563829Y265800D01*
Y101301D01*
X562655Y100815D01*
X531135Y132336D01*
X529777Y133378D01*
X528196Y134033D01*
X526499Y134256D01*
X398371D01*
X396674Y134033D01*
X395093Y133378D01*
X393735Y132336D01*
X360730Y99330D01*
X359363Y99896D01*
X356132Y100539D01*
X352838D01*
X349606Y99896D01*
X346563Y98635D01*
X343823Y96805D01*
X341494Y94475D01*
X339663Y91736D01*
X338403Y88692D01*
X337760Y85461D01*
Y82167D01*
X338403Y78935D01*
X339663Y75892D01*
X341494Y73152D01*
X343823Y70823D01*
X346563Y68992D01*
X349606Y67732D01*
X352838Y67089D01*
X356132D01*
X359363Y67732D01*
X362407Y68992D01*
X365146Y70823D01*
X367476Y73152D01*
X369306Y75892D01*
X370567Y78935D01*
X371210Y82167D01*
Y85461D01*
X370567Y88692D01*
X370001Y90059D01*
X401087Y121144D01*
X523783D01*
X554869Y90059D01*
X554303Y88692D01*
X553660Y85461D01*
Y82167D01*
X554303Y78935D01*
X555563Y75892D01*
X557394Y73152D01*
X559723Y70823D01*
X562463Y68992D01*
X565506Y67732D01*
X568738Y67089D01*
X572032D01*
X575263Y67732D01*
X578307Y68992D01*
X581046Y70823D01*
X583376Y73152D01*
X585206Y75892D01*
X586467Y78935D01*
X587110Y82167D01*
Y85461D01*
X586467Y88692D01*
X585206Y91736D01*
X583376Y94475D01*
X581046Y96805D01*
X578307Y98635D01*
X576941Y99201D01*
Y268515D01*
X576718Y270212D01*
X576063Y271793D01*
X575021Y273151D01*
X448856Y399316D01*
Y499500D01*
X448633Y501197D01*
X447978Y502778D01*
X446936Y504136D01*
X445578Y505178D01*
X443997Y505833D01*
X442300Y506056D01*
D02*
G37*
G36*
X1621617Y83250D02*
X1616383D01*
X1611214Y82431D01*
X1606236Y80814D01*
X1601573Y78438D01*
X1597339Y75362D01*
X1593638Y71661D01*
X1590562Y67427D01*
X1588186Y62764D01*
X1586569Y57786D01*
X1585750Y52617D01*
Y47383D01*
X1586569Y42214D01*
X1588186Y37236D01*
X1590562Y32573D01*
X1593638Y28339D01*
X1597339Y24638D01*
X1601573Y21562D01*
X1606236Y19186D01*
X1611214Y17569D01*
X1616383Y16750D01*
X1621617D01*
X1626786Y17569D01*
X1631764Y19186D01*
X1636427Y21562D01*
X1640661Y24638D01*
X1644362Y28339D01*
X1647438Y32573D01*
X1649814Y37236D01*
X1651431Y42214D01*
X1652250Y47383D01*
Y52617D01*
X1651431Y57786D01*
X1649814Y62764D01*
X1647438Y67427D01*
X1644362Y71661D01*
X1640661Y75362D01*
X1636427Y78438D01*
X1631764Y80814D01*
X1626786Y82431D01*
X1621617Y83250D01*
D02*
G37*
G36*
X837617D02*
X832383D01*
X827214Y82431D01*
X822236Y80814D01*
X817573Y78438D01*
X813339Y75362D01*
X809638Y71661D01*
X806562Y67427D01*
X804186Y62764D01*
X802569Y57786D01*
X801750Y52617D01*
Y47383D01*
X802569Y42214D01*
X804186Y37236D01*
X806562Y32573D01*
X809638Y28339D01*
X813339Y24638D01*
X817573Y21562D01*
X822236Y19186D01*
X827214Y17569D01*
X832383Y16750D01*
X837617D01*
X842786Y17569D01*
X847764Y19186D01*
X852427Y21562D01*
X856661Y24638D01*
X860362Y28339D01*
X863438Y32573D01*
X865814Y37236D01*
X867431Y42214D01*
X868250Y47383D01*
Y52617D01*
X867431Y57786D01*
X865814Y62764D01*
X863438Y67427D01*
X860362Y71661D01*
X856661Y75362D01*
X852427Y78438D01*
X847764Y80814D01*
X842786Y82431D01*
X837617Y83250D01*
D02*
G37*
G36*
X52617D02*
X47383D01*
X42214Y82431D01*
X37236Y80814D01*
X32573Y78438D01*
X28339Y75362D01*
X24638Y71661D01*
X21562Y67427D01*
X19186Y62764D01*
X17569Y57786D01*
X16750Y52617D01*
Y47383D01*
X17569Y42214D01*
X19186Y37236D01*
X21562Y32573D01*
X24638Y28339D01*
X28339Y24638D01*
X32573Y21562D01*
X37236Y19186D01*
X42214Y17569D01*
X47383Y16750D01*
X52617D01*
X57786Y17569D01*
X62764Y19186D01*
X67427Y21562D01*
X71661Y24638D01*
X75362Y28339D01*
X78438Y32573D01*
X80814Y37236D01*
X82431Y42214D01*
X83250Y47383D01*
Y52617D01*
X82431Y57786D01*
X80814Y62764D01*
X78438Y67427D01*
X75362Y71661D01*
X71661Y75362D01*
X67427Y78438D01*
X62764Y80814D01*
X57786Y82431D01*
X52617Y83250D01*
D02*
G37*
%LPD*%
G36*
X803400Y1006200D02*
Y857800D01*
X858900Y802300D01*
X1230092D01*
Y753723D01*
X1223077Y746708D01*
X1216955D01*
X1216702Y747978D01*
X1217444Y748285D01*
X1218710Y749551D01*
X1219395Y751205D01*
Y752995D01*
X1218710Y754649D01*
X1217444Y755915D01*
X1215790Y756600D01*
X1214000D01*
X1212845Y756121D01*
X1211904Y757106D01*
X1212400Y758305D01*
Y760095D01*
X1211715Y761749D01*
X1210449Y763015D01*
X1208795Y763700D01*
X1207005D01*
X1205351Y763015D01*
X1204085Y761749D01*
X1203637Y760668D01*
X1202263D01*
X1201815Y761749D01*
X1200549Y763015D01*
X1198895Y763700D01*
X1197105D01*
X1195451Y763015D01*
X1194185Y761749D01*
X1193500Y760095D01*
Y758305D01*
X1194185Y756651D01*
X1195451Y755385D01*
X1197105Y754700D01*
X1198895D01*
X1199841Y753717D01*
X1199672Y753310D01*
Y751520D01*
X1200357Y749866D01*
X1201623Y748600D01*
X1203277Y747915D01*
X1203125Y746708D01*
X1198423D01*
X1194665Y750465D01*
X1192846Y751681D01*
X1190700Y752108D01*
X1129558D01*
X1127412Y751681D01*
X1125593Y750465D01*
X1117135Y742007D01*
X1115919Y740188D01*
X1115492Y738042D01*
Y730900D01*
X1115919Y728754D01*
X1117135Y726935D01*
X1118954Y725719D01*
X1121100Y725292D01*
X1123246Y725719D01*
X1125065Y726935D01*
X1126281Y728754D01*
X1126708Y730900D01*
Y735719D01*
X1131881Y740892D01*
X1188377D01*
X1192135Y737135D01*
X1193954Y735919D01*
X1196100Y735492D01*
X1225400D01*
X1227546Y735919D01*
X1229365Y737135D01*
X1239665Y747435D01*
X1240881Y749254D01*
X1241308Y751400D01*
Y802300D01*
X1320400D01*
X1358100Y764600D01*
Y568600D01*
X1313600Y524100D01*
X1211658D01*
X1211405Y525370D01*
X1212649Y525885D01*
X1213915Y527151D01*
X1214600Y528805D01*
Y530595D01*
X1213915Y532249D01*
X1213093Y533071D01*
X1213077Y533272D01*
X1213407Y534471D01*
X1214649Y534985D01*
X1215120Y535456D01*
X1216255Y535938D01*
X1216780Y535456D01*
X1217551Y534685D01*
X1219205Y534000D01*
X1220995D01*
X1222649Y534685D01*
X1223915Y535951D01*
X1224600Y537605D01*
Y539395D01*
X1223915Y541049D01*
X1222649Y542315D01*
X1220995Y543000D01*
X1219205D01*
X1217551Y542315D01*
X1217080Y541844D01*
X1215945Y541362D01*
X1215420Y541844D01*
X1214649Y542615D01*
X1212995Y543300D01*
X1211205D01*
X1209551Y542615D01*
X1208285Y541349D01*
X1207600Y539695D01*
Y537905D01*
X1208285Y536251D01*
X1209107Y535429D01*
X1209123Y535228D01*
X1208793Y534029D01*
X1207551Y533515D01*
X1207030Y532994D01*
X1206098Y532402D01*
X1205370Y532994D01*
X1204749Y533615D01*
X1203095Y534300D01*
X1201305D01*
X1199651Y533615D01*
X1198385Y532349D01*
X1197700Y530695D01*
Y528905D01*
X1198385Y527251D01*
X1199651Y525985D01*
X1201305Y525300D01*
X1201136Y524100D01*
X1187382D01*
X1187130Y525370D01*
X1187649Y525585D01*
X1188915Y526851D01*
X1189600Y528505D01*
Y530295D01*
X1188915Y531949D01*
X1187649Y533215D01*
X1185995Y533900D01*
X1184205D01*
X1182551Y533215D01*
X1181971Y532635D01*
X1180777Y532363D01*
X1180370Y532694D01*
X1179449Y533615D01*
X1177795Y534300D01*
X1176005D01*
X1174351Y533615D01*
X1173085Y532349D01*
X1172400Y530695D01*
Y528905D01*
X1173085Y527251D01*
X1174351Y525985D01*
X1176005Y525300D01*
X1175836Y524100D01*
X856200D01*
X819300Y487200D01*
X719300D01*
X715600Y483500D01*
Y472000D01*
X708500Y464900D01*
X679518D01*
X643818Y429200D01*
X574918D01*
X572100Y429200D01*
X506400Y494900D01*
X324200Y677500D01*
X201400D01*
Y819600D01*
X290800D01*
X336200Y865000D01*
Y993537D01*
X412049Y1069900D01*
X739700D01*
X803400Y1006200D01*
D02*
G37*
%LPC*%
G36*
X567407Y1051612D02*
X565617D01*
X563963Y1050927D01*
X562697Y1049661D01*
X562012Y1048007D01*
Y1046217D01*
X562697Y1044563D01*
X563444Y1043816D01*
X563674Y1042760D01*
X563382Y1042218D01*
X562453Y1041289D01*
X561768Y1039635D01*
Y1037845D01*
X561941Y1037427D01*
X560969Y1036455D01*
X559989Y1036861D01*
X558199D01*
X556545Y1036176D01*
X555279Y1034910D01*
X555055Y1034369D01*
X553680D01*
X553280Y1035336D01*
X552014Y1036602D01*
X550360Y1037287D01*
X548570D01*
X546916Y1036602D01*
X545650Y1035336D01*
X544965Y1033682D01*
Y1031892D01*
X545650Y1030238D01*
X546916Y1028972D01*
X548570Y1028287D01*
X550360D01*
X552014Y1028972D01*
X553280Y1030238D01*
X553504Y1030779D01*
X554879D01*
X555279Y1029812D01*
X556545Y1028546D01*
X558199Y1027861D01*
X559989D01*
X561643Y1028546D01*
X562909Y1029812D01*
X563594Y1031466D01*
Y1033256D01*
X563421Y1033674D01*
X564393Y1034646D01*
X565373Y1034240D01*
X567163D01*
X568817Y1034925D01*
X570083Y1036191D01*
X570768Y1037845D01*
Y1039635D01*
X570083Y1041289D01*
X569336Y1042036D01*
X569106Y1043091D01*
X569398Y1043634D01*
X570327Y1044563D01*
X571012Y1046217D01*
Y1048007D01*
X570327Y1049661D01*
X569061Y1050927D01*
X567407Y1051612D01*
D02*
G37*
G36*
X516093Y1029646D02*
X514303D01*
X512649Y1028961D01*
X511383Y1027695D01*
X510698Y1026041D01*
Y1024251D01*
X511383Y1022597D01*
X512649Y1021331D01*
X514303Y1020646D01*
X516093D01*
X517747Y1021331D01*
X518925Y1022509D01*
X520273Y1022573D01*
X520275Y1022569D01*
X521541Y1021303D01*
X523195Y1020618D01*
X524985D01*
X526639Y1021303D01*
X527905Y1022569D01*
X528590Y1024223D01*
Y1026013D01*
X527905Y1027667D01*
X526639Y1028933D01*
X524985Y1029618D01*
X523195D01*
X521541Y1028933D01*
X520363Y1027755D01*
X519015Y1027690D01*
X519013Y1027695D01*
X517747Y1028961D01*
X516093Y1029646D01*
D02*
G37*
G36*
X470827Y1016219D02*
X469037D01*
X467383Y1015534D01*
X466117Y1014268D01*
X465432Y1012614D01*
Y1010824D01*
X465776Y1009994D01*
X464826Y1009297D01*
X464711Y1009246D01*
X463086Y1009919D01*
X461296D01*
X459642Y1009234D01*
X458719Y1008311D01*
X457805Y1009170D01*
X458085Y1009846D01*
X458490Y1010824D01*
Y1012614D01*
X457805Y1014268D01*
X456539Y1015534D01*
X454885Y1016219D01*
X453095D01*
X451441Y1015534D01*
X450175Y1014268D01*
X449490Y1012614D01*
Y1010824D01*
X449887Y1009865D01*
X448811Y1009145D01*
X448722Y1009234D01*
X447068Y1009919D01*
X445278D01*
X443624Y1009234D01*
X442358Y1007968D01*
X441673Y1006314D01*
Y1004524D01*
X442358Y1002870D01*
X443624Y1001604D01*
X445278Y1000919D01*
X447068D01*
X448722Y1001604D01*
X449988Y1002870D01*
X450673Y1004524D01*
Y1006314D01*
X450276Y1007273D01*
X451352Y1007993D01*
X451441Y1007904D01*
X453095Y1007219D01*
X454885D01*
X456539Y1007904D01*
X457462Y1008827D01*
X458376Y1007968D01*
X458096Y1007292D01*
X457691Y1006314D01*
Y1004524D01*
X458376Y1002870D01*
X459642Y1001604D01*
X461296Y1000919D01*
X463086D01*
X464740Y1001604D01*
X466006Y1002870D01*
X466691Y1004524D01*
Y1006314D01*
X466348Y1007144D01*
X467297Y1007841D01*
X467412Y1007892D01*
X469037Y1007219D01*
X470827D01*
X472283Y1007822D01*
X472897Y1007437D01*
X473307Y1006976D01*
X473033Y1006314D01*
Y1004524D01*
X473718Y1002870D01*
X474984Y1001604D01*
X476638Y1000919D01*
X478428D01*
X480082Y1001604D01*
X481348Y1002870D01*
X482033Y1004524D01*
Y1006314D01*
X481348Y1007968D01*
X480082Y1009234D01*
X478428Y1009919D01*
X476638D01*
X475182Y1009316D01*
X474568Y1009701D01*
X474158Y1010162D01*
X474432Y1010824D01*
Y1012614D01*
X473747Y1014268D01*
X472481Y1015534D01*
X470827Y1016219D01*
D02*
G37*
G36*
X438576D02*
X436786D01*
X435132Y1015534D01*
X433866Y1014268D01*
X433181Y1012614D01*
Y1010824D01*
X433714Y1009537D01*
X432637Y1008818D01*
X432221Y1009234D01*
X430567Y1009919D01*
X428777D01*
X427123Y1009234D01*
X425857Y1007968D01*
X425172Y1006314D01*
Y1004524D01*
X425857Y1002870D01*
X427123Y1001604D01*
X428777Y1000919D01*
X430567D01*
X432221Y1001604D01*
X433487Y1002870D01*
X434172Y1004524D01*
Y1006314D01*
X433639Y1007601D01*
X434716Y1008320D01*
X435132Y1007904D01*
X436786Y1007219D01*
X438576D01*
X440230Y1007904D01*
X441496Y1009170D01*
X442181Y1010824D01*
Y1012614D01*
X441496Y1014268D01*
X440230Y1015534D01*
X438576Y1016219D01*
D02*
G37*
G36*
X470709Y1002919D02*
X468919D01*
X467265Y1002234D01*
X465999Y1000968D01*
X465314Y999314D01*
Y997524D01*
X465999Y995870D01*
X467265Y994604D01*
X468919Y993919D01*
X470709D01*
X472363Y994604D01*
X473629Y995870D01*
X474314Y997524D01*
Y999314D01*
X473629Y1000968D01*
X472363Y1002234D01*
X470709Y1002919D01*
D02*
G37*
G36*
X454594D02*
X452804D01*
X451150Y1002234D01*
X449884Y1000968D01*
X449199Y999314D01*
Y997524D01*
X449884Y995870D01*
X451150Y994604D01*
X452804Y993919D01*
X454594D01*
X456248Y994604D01*
X457514Y995870D01*
X458199Y997524D01*
Y999314D01*
X457514Y1000968D01*
X456248Y1002234D01*
X454594Y1002919D01*
D02*
G37*
G36*
X438962D02*
X437172D01*
X435518Y1002234D01*
X434252Y1000968D01*
X433567Y999314D01*
Y997524D01*
X434252Y995870D01*
X435518Y994604D01*
X437172Y993919D01*
X438962D01*
X440616Y994604D01*
X441882Y995870D01*
X442567Y997524D01*
Y999314D01*
X441882Y1000968D01*
X440616Y1002234D01*
X438962Y1002919D01*
D02*
G37*
G36*
X422892Y996000D02*
X421102D01*
X419448Y995315D01*
X418182Y994049D01*
X417497Y992395D01*
Y990605D01*
X418182Y988951D01*
X419448Y987685D01*
X421102Y987000D01*
X422892D01*
X424546Y987685D01*
X425812Y988951D01*
X426497Y990605D01*
Y992395D01*
X425812Y994049D01*
X424546Y995315D01*
X422892Y996000D01*
D02*
G37*
G36*
X614474Y995919D02*
X612684D01*
X611030Y995234D01*
X609764Y993968D01*
X609079Y992314D01*
Y990524D01*
X609764Y988870D01*
X611030Y987604D01*
X612684Y986919D01*
X614474D01*
X616128Y987604D01*
X617394Y988870D01*
X618079Y990524D01*
Y992314D01*
X617394Y993968D01*
X616128Y995234D01*
X614474Y995919D01*
D02*
G37*
G36*
X526336D02*
X524546D01*
X522892Y995234D01*
X521626Y993968D01*
X520941Y992314D01*
Y990524D01*
X521626Y988870D01*
X522892Y987604D01*
X524546Y986919D01*
X526336D01*
X527990Y987604D01*
X529256Y988870D01*
X529941Y990524D01*
Y992314D01*
X529256Y993968D01*
X527990Y995234D01*
X526336Y995919D01*
D02*
G37*
G36*
X566437Y995458D02*
X564647D01*
X562993Y994773D01*
X561727Y993507D01*
X561042Y991853D01*
Y990063D01*
X561727Y988409D01*
X562993Y987143D01*
X564647Y986458D01*
X566437D01*
X568091Y987143D01*
X569357Y988409D01*
X570042Y990063D01*
Y991853D01*
X569357Y993507D01*
X568091Y994773D01*
X566437Y995458D01*
D02*
G37*
G36*
X641239Y979590D02*
X639449D01*
X637795Y978905D01*
X636529Y977639D01*
X635844Y975985D01*
Y974195D01*
X636529Y972541D01*
X637795Y971275D01*
X639449Y970590D01*
X641239D01*
X642893Y971275D01*
X644159Y972541D01*
X644844Y974195D01*
Y975985D01*
X644159Y977639D01*
X642893Y978905D01*
X641239Y979590D01*
D02*
G37*
G36*
X422617Y962127D02*
X420827D01*
X419173Y961442D01*
X417907Y960176D01*
X417222Y958522D01*
Y956732D01*
X417907Y955078D01*
X419173Y953812D01*
X420827Y953127D01*
X422617D01*
X424271Y953812D01*
X425537Y955078D01*
X426222Y956732D01*
Y958522D01*
X425537Y960176D01*
X424271Y961442D01*
X422617Y962127D01*
D02*
G37*
G36*
X427522Y952725D02*
X425732D01*
X424078Y952040D01*
X422812Y950774D01*
X422127Y949120D01*
Y947330D01*
X422812Y945676D01*
X424078Y944410D01*
X425732Y943725D01*
X427522D01*
X429176Y944410D01*
X430442Y945676D01*
X431127Y947330D01*
Y949120D01*
X430442Y950774D01*
X429176Y952040D01*
X427522Y952725D01*
D02*
G37*
G36*
X444478Y952612D02*
X442688D01*
X441034Y951927D01*
X439768Y950661D01*
X439083Y949007D01*
Y947217D01*
X439768Y945563D01*
X441034Y944297D01*
X442688Y943612D01*
X444478D01*
X446132Y944297D01*
X447398Y945563D01*
X448083Y947217D01*
Y949007D01*
X447398Y950661D01*
X446132Y951927D01*
X444478Y952612D01*
D02*
G37*
G36*
X522649Y945660D02*
X520859D01*
X519205Y944975D01*
X517939Y943709D01*
X517254Y942055D01*
Y940265D01*
X517939Y938611D01*
X519205Y937345D01*
X520859Y936660D01*
X522649D01*
X524303Y937345D01*
X525569Y938611D01*
X526254Y940265D01*
Y942055D01*
X525569Y943709D01*
X524303Y944975D01*
X522649Y945660D01*
D02*
G37*
G36*
X469422Y943025D02*
X467632D01*
X465978Y942340D01*
X464712Y941074D01*
X464027Y939420D01*
Y937630D01*
X464712Y935976D01*
X465978Y934710D01*
X467632Y934025D01*
X469422D01*
X471076Y934710D01*
X472342Y935976D01*
X473027Y937630D01*
Y939420D01*
X472342Y941074D01*
X471076Y942340D01*
X469422Y943025D01*
D02*
G37*
G36*
X486378Y942912D02*
X484588D01*
X482934Y942227D01*
X481668Y940961D01*
X480983Y939307D01*
Y937517D01*
X481668Y935863D01*
X482934Y934597D01*
X484588Y933912D01*
X486378D01*
X488032Y934597D01*
X489298Y935863D01*
X489983Y937517D01*
Y939307D01*
X489298Y940961D01*
X488032Y942227D01*
X486378Y942912D01*
D02*
G37*
G36*
X435822Y942625D02*
X434032D01*
X432378Y941940D01*
X431112Y940674D01*
X430427Y939020D01*
Y937230D01*
X431112Y935576D01*
X432378Y934310D01*
X434032Y933625D01*
X435822D01*
X437476Y934310D01*
X438742Y935576D01*
X439427Y937230D01*
Y939020D01*
X438742Y940674D01*
X437476Y941940D01*
X435822Y942625D01*
D02*
G37*
G36*
X452778Y942512D02*
X450988D01*
X449334Y941827D01*
X448068Y940561D01*
X447383Y938907D01*
Y937117D01*
X448068Y935463D01*
X449334Y934197D01*
X450988Y933512D01*
X452778D01*
X454432Y934197D01*
X455698Y935463D01*
X456383Y937117D01*
Y938907D01*
X455698Y940561D01*
X454432Y941827D01*
X452778Y942512D01*
D02*
G37*
G36*
X522713Y934248D02*
X520923D01*
X519269Y933563D01*
X518003Y932297D01*
X517318Y930643D01*
Y928853D01*
X518003Y927199D01*
X519269Y925933D01*
X520923Y925248D01*
X522713D01*
X524367Y925933D01*
X525633Y927199D01*
X526318Y928853D01*
Y930643D01*
X525633Y932297D01*
X524367Y933563D01*
X522713Y934248D01*
D02*
G37*
G36*
X424222Y932225D02*
X422432D01*
X420778Y931540D01*
X419512Y930274D01*
X418827Y928620D01*
Y926830D01*
X419512Y925176D01*
X420778Y923910D01*
X422432Y923225D01*
X424222D01*
X425876Y923910D01*
X427142Y925176D01*
X427827Y926830D01*
Y928620D01*
X427142Y930274D01*
X425876Y931540D01*
X424222Y932225D01*
D02*
G37*
G36*
X441178Y932112D02*
X439388D01*
X437734Y931427D01*
X436468Y930161D01*
X435783Y928507D01*
Y926717D01*
X436468Y925063D01*
X437734Y923797D01*
X439388Y923112D01*
X441178D01*
X442832Y923797D01*
X444098Y925063D01*
X444783Y926717D01*
Y928507D01*
X444098Y930161D01*
X442832Y931427D01*
X441178Y932112D01*
D02*
G37*
G36*
X511125Y934010D02*
X509335D01*
X507681Y933325D01*
X506415Y932059D01*
X505730Y930405D01*
Y928615D01*
X506415Y926961D01*
X507343Y926033D01*
X507355Y925954D01*
X507117Y924734D01*
X507067Y924649D01*
X505867Y924152D01*
X504601Y922886D01*
X503916Y921232D01*
Y919442D01*
X504601Y917788D01*
X505867Y916522D01*
X507521Y915837D01*
X509311D01*
X510965Y916522D01*
X512231Y917788D01*
X512916Y919442D01*
Y921232D01*
X512231Y922886D01*
X511303Y923814D01*
X511291Y923893D01*
X511529Y925113D01*
X511579Y925198D01*
X512779Y925695D01*
X514045Y926961D01*
X514730Y928615D01*
Y930405D01*
X514045Y932059D01*
X512779Y933325D01*
X511125Y934010D01*
D02*
G37*
G36*
X494191Y917983D02*
X492401D01*
X490747Y917298D01*
X489481Y916032D01*
X488796Y914378D01*
Y912588D01*
X489481Y910934D01*
X490747Y909668D01*
X492401Y908983D01*
X494191D01*
X495691Y909604D01*
X496371Y909347D01*
X496961Y908988D01*
Y908556D01*
X497646Y906902D01*
X498912Y905636D01*
X500566Y904951D01*
X502356D01*
X504010Y905636D01*
X505276Y906902D01*
X505961Y908556D01*
Y910346D01*
X505276Y912000D01*
X504010Y913266D01*
X502356Y913951D01*
X500566D01*
X499066Y913330D01*
X498386Y913587D01*
X497796Y913946D01*
Y914378D01*
X497111Y916032D01*
X495845Y917298D01*
X494191Y917983D01*
D02*
G37*
G36*
X503695Y894700D02*
X501905D01*
X500251Y894015D01*
X498985Y892749D01*
X498300Y891095D01*
Y889305D01*
X498985Y887651D01*
X500251Y886385D01*
X501905Y885700D01*
X503695D01*
X505349Y886385D01*
X506615Y887651D01*
X507300Y889305D01*
Y891095D01*
X506615Y892749D01*
X505349Y894015D01*
X503695Y894700D01*
D02*
G37*
G36*
X470959Y882257D02*
X469169D01*
X467515Y881572D01*
X466249Y880306D01*
X465564Y878652D01*
Y877494D01*
X465005Y877143D01*
X464294Y876870D01*
X462807Y877486D01*
X461017D01*
X459363Y876801D01*
X458097Y875535D01*
X457412Y873881D01*
Y872091D01*
X458097Y870437D01*
X459363Y869171D01*
X461017Y868486D01*
X462807D01*
X464461Y869171D01*
X465727Y870437D01*
X466412Y872091D01*
Y873249D01*
X466971Y873600D01*
X467682Y873873D01*
X469169Y873257D01*
X470959D01*
X472411Y873858D01*
X472424Y873856D01*
X473171Y873468D01*
X473584Y873117D01*
Y871826D01*
X474269Y870172D01*
X475535Y868906D01*
X477189Y868221D01*
X478979D01*
X480633Y868906D01*
X481899Y870172D01*
X482584Y871826D01*
Y873616D01*
X481899Y875270D01*
X480633Y876536D01*
X478979Y877221D01*
X477189D01*
X475737Y876620D01*
X475724Y876622D01*
X474977Y877010D01*
X474564Y877361D01*
Y878652D01*
X473879Y880306D01*
X472613Y881572D01*
X470959Y882257D01*
D02*
G37*
G36*
X643895Y861300D02*
X642105D01*
X640451Y860615D01*
X639185Y859349D01*
X638500Y857695D01*
Y855905D01*
X639185Y854251D01*
X640451Y852985D01*
X642105Y852300D01*
X643895D01*
X645549Y852985D01*
X646815Y854251D01*
X647500Y855905D01*
Y857695D01*
X646815Y859349D01*
X645549Y860615D01*
X643895Y861300D01*
D02*
G37*
G36*
X475326Y852472D02*
X473536D01*
X471882Y851787D01*
X470616Y850521D01*
X470435Y850083D01*
X469060D01*
X468949Y850352D01*
X467683Y851618D01*
X466029Y852303D01*
X464239D01*
X462585Y851618D01*
X461319Y850352D01*
X461051Y849704D01*
X459676D01*
X459449Y850252D01*
X458183Y851518D01*
X456529Y852203D01*
X454739D01*
X453085Y851518D01*
X451819Y850252D01*
X451134Y848598D01*
Y846808D01*
X451819Y845154D01*
X453085Y843888D01*
X454739Y843203D01*
X456529D01*
X458183Y843888D01*
X459449Y845154D01*
X459717Y845802D01*
X461092D01*
X461319Y845254D01*
X462585Y843988D01*
X464239Y843303D01*
X466029D01*
X467683Y843988D01*
X468949Y845254D01*
X469130Y845692D01*
X470505D01*
X470616Y845423D01*
X471882Y844157D01*
X473536Y843472D01*
X475326D01*
X476980Y844157D01*
X478246Y845423D01*
X478931Y847077D01*
Y848867D01*
X478246Y850521D01*
X476980Y851787D01*
X475326Y852472D01*
D02*
G37*
G36*
X542553Y854292D02*
X540763D01*
X539109Y853607D01*
X537843Y852341D01*
X537158Y850687D01*
Y848897D01*
X537843Y847243D01*
X539109Y845977D01*
X540763Y845292D01*
X542553D01*
X544207Y845977D01*
X545473Y847243D01*
X546158Y848897D01*
Y850687D01*
X545473Y852341D01*
X544207Y853607D01*
X542553Y854292D01*
D02*
G37*
G36*
X414502Y853411D02*
X412712D01*
X411058Y852726D01*
X409792Y851460D01*
X409107Y849806D01*
Y848016D01*
X409792Y846362D01*
X411058Y845096D01*
X412712Y844411D01*
X414502D01*
X416156Y845096D01*
X417422Y846362D01*
X418107Y848016D01*
Y849806D01*
X417422Y851460D01*
X416156Y852726D01*
X414502Y853411D01*
D02*
G37*
G36*
X607571Y852200D02*
X605781D01*
X604127Y851515D01*
X602861Y850249D01*
X602176Y848595D01*
Y846805D01*
X602861Y845151D01*
X604127Y843885D01*
X605781Y843200D01*
X607571D01*
X609225Y843885D01*
X610491Y845151D01*
X611176Y846805D01*
Y848595D01*
X610491Y850249D01*
X609225Y851515D01*
X607571Y852200D01*
D02*
G37*
G36*
X622388Y851827D02*
X620598D01*
X618944Y851142D01*
X617678Y849876D01*
X616993Y848222D01*
Y846432D01*
X617678Y844778D01*
X618944Y843512D01*
X620598Y842827D01*
X622388D01*
X624042Y843512D01*
X625308Y844778D01*
X625993Y846432D01*
Y848222D01*
X625308Y849876D01*
X624042Y851142D01*
X622388Y851827D01*
D02*
G37*
G36*
X638706Y850731D02*
X636916D01*
X635262Y850046D01*
X633996Y848780D01*
X633311Y847126D01*
Y845336D01*
X633996Y843682D01*
X635262Y842416D01*
X636916Y841731D01*
X638706D01*
X640360Y842416D01*
X641626Y843682D01*
X642311Y845336D01*
Y847126D01*
X641626Y848780D01*
X640360Y850046D01*
X638706Y850731D01*
D02*
G37*
G36*
X502817Y849653D02*
X501027D01*
X499373Y848968D01*
X498107Y847702D01*
X497422Y846048D01*
Y844258D01*
X498107Y842604D01*
X499373Y841338D01*
X501027Y840653D01*
X502817D01*
X504471Y841338D01*
X505737Y842604D01*
X506422Y844258D01*
Y846048D01*
X505737Y847702D01*
X504471Y848968D01*
X502817Y849653D01*
D02*
G37*
G36*
X414938Y837781D02*
X413148D01*
X411494Y837096D01*
X410228Y835830D01*
X409543Y834176D01*
Y832386D01*
X410228Y830732D01*
X411494Y829466D01*
X413148Y828781D01*
X414938D01*
X416592Y829466D01*
X417858Y830732D01*
X418543Y832386D01*
Y834176D01*
X417858Y835830D01*
X416592Y837096D01*
X414938Y837781D01*
D02*
G37*
G36*
X545529Y834336D02*
X543739D01*
X542085Y833651D01*
X540819Y832385D01*
X540134Y830731D01*
Y828941D01*
X540819Y827287D01*
X542085Y826021D01*
X543739Y825336D01*
X545529D01*
X547183Y826021D01*
X548449Y827287D01*
X549134Y828941D01*
Y830731D01*
X548449Y832385D01*
X547183Y833651D01*
X545529Y834336D01*
D02*
G37*
G36*
X582216Y840337D02*
X580426D01*
X578772Y839652D01*
X577506Y838386D01*
X576821Y836732D01*
Y834942D01*
X577506Y833288D01*
X578573Y832222D01*
X578768Y831958D01*
X578691Y830681D01*
X578014Y830004D01*
X577329Y828350D01*
Y826560D01*
X578014Y824906D01*
X578954Y823967D01*
X579238Y823437D01*
X579020Y822373D01*
X578268Y821622D01*
X577583Y819968D01*
Y818178D01*
X578268Y816524D01*
X579534Y815258D01*
X581188Y814573D01*
X582978D01*
X584632Y815258D01*
X585898Y816524D01*
X586583Y818178D01*
Y819968D01*
X585898Y821622D01*
X584959Y822561D01*
X584674Y823091D01*
X584893Y824155D01*
X585644Y824906D01*
X586329Y826560D01*
Y828350D01*
X585644Y830004D01*
X584578Y831070D01*
X584382Y831334D01*
X584459Y832611D01*
X585136Y833288D01*
X585821Y834942D01*
Y836732D01*
X585136Y838386D01*
X583870Y839652D01*
X582216Y840337D01*
D02*
G37*
G36*
X761657Y812919D02*
X759867D01*
X758213Y812234D01*
X756947Y810968D01*
X756262Y809314D01*
Y807524D01*
X756947Y805870D01*
X758213Y804604D01*
X759522Y804062D01*
X759893Y803043D01*
X759905Y802649D01*
X759224Y801968D01*
X758928Y801254D01*
X757554D01*
X757258Y801968D01*
X755992Y803234D01*
X754338Y803919D01*
X752548D01*
X750894Y803234D01*
X749628Y801968D01*
X749571Y801831D01*
X748197D01*
X748140Y801968D01*
X747389Y802719D01*
X747378Y802800D01*
X747753Y804140D01*
X748874Y804604D01*
X750140Y805870D01*
X750825Y807524D01*
Y809314D01*
X750140Y810968D01*
X748874Y812234D01*
X747220Y812919D01*
X745430D01*
X743776Y812234D01*
X742510Y810968D01*
X741825Y809314D01*
Y807524D01*
X742510Y805870D01*
X743261Y805119D01*
X743272Y805038D01*
X742897Y803698D01*
X741776Y803234D01*
X740510Y801968D01*
X739825Y800314D01*
Y798524D01*
X740510Y796870D01*
X741776Y795604D01*
X743430Y794919D01*
X745220D01*
X746874Y795604D01*
X748140Y796870D01*
X748197Y797007D01*
X749571D01*
X749628Y796870D01*
X750894Y795604D01*
X752548Y794919D01*
X754338D01*
X755992Y795604D01*
X757258Y796870D01*
X757554Y797584D01*
X758928D01*
X759224Y796870D01*
X760490Y795604D01*
X762144Y794919D01*
X763934D01*
X765588Y795604D01*
X766854Y796870D01*
X767539Y798524D01*
Y800314D01*
X766854Y801968D01*
X765588Y803234D01*
X764279Y803776D01*
X763908Y804795D01*
X763896Y805189D01*
X764577Y805870D01*
X765262Y807524D01*
Y809314D01*
X764577Y810968D01*
X763311Y812234D01*
X761657Y812919D01*
D02*
G37*
G36*
X1156595Y795300D02*
X1154805D01*
X1153151Y794615D01*
X1151885Y793349D01*
X1151200Y791695D01*
Y789905D01*
X1151885Y788251D01*
X1153151Y786985D01*
X1154805Y786300D01*
X1156595D01*
X1158249Y786985D01*
X1159515Y788251D01*
X1160200Y789905D01*
Y791695D01*
X1159515Y793349D01*
X1158249Y794615D01*
X1156595Y795300D01*
D02*
G37*
G36*
X1108495D02*
X1106705D01*
X1105051Y794615D01*
X1103785Y793349D01*
X1103100Y791695D01*
Y789905D01*
X1103785Y788251D01*
X1105051Y786985D01*
X1106705Y786300D01*
X1108495D01*
X1110149Y786985D01*
X1111415Y788251D01*
X1112100Y789905D01*
Y791695D01*
X1111415Y793349D01*
X1110149Y794615D01*
X1108495Y795300D01*
D02*
G37*
G36*
X1195795Y795000D02*
X1194005D01*
X1192351Y794315D01*
X1191085Y793049D01*
X1190400Y791395D01*
Y789605D01*
X1191085Y787951D01*
X1192351Y786685D01*
X1194005Y786000D01*
X1195795D01*
X1197449Y786685D01*
X1198715Y787951D01*
X1199400Y789605D01*
Y791395D01*
X1198715Y793049D01*
X1197449Y794315D01*
X1195795Y795000D01*
D02*
G37*
G36*
X1170395Y794900D02*
X1168605D01*
X1166951Y794215D01*
X1165685Y792949D01*
X1165000Y791295D01*
Y789505D01*
X1165685Y787851D01*
X1166951Y786585D01*
X1168605Y785900D01*
X1170395D01*
X1172049Y786585D01*
X1173315Y787851D01*
X1174000Y789505D01*
Y791295D01*
X1173315Y792949D01*
X1172049Y794215D01*
X1170395Y794900D01*
D02*
G37*
G36*
X1170195Y777600D02*
X1168405D01*
X1166751Y776915D01*
X1165485Y775649D01*
X1164800Y773995D01*
Y772205D01*
X1165485Y770551D01*
X1166751Y769285D01*
X1168405Y768600D01*
X1170195D01*
X1171849Y769285D01*
X1173115Y770551D01*
X1173800Y772205D01*
Y773995D01*
X1173115Y775649D01*
X1171849Y776915D01*
X1170195Y777600D01*
D02*
G37*
G36*
X1207695Y777300D02*
X1205905D01*
X1204251Y776615D01*
X1202985Y775349D01*
X1202300Y773695D01*
Y771905D01*
X1202985Y770251D01*
X1204251Y768985D01*
X1205905Y768300D01*
X1207695D01*
X1209349Y768985D01*
X1210615Y770251D01*
X1211300Y771905D01*
Y773695D01*
X1210615Y775349D01*
X1209349Y776615D01*
X1207695Y777300D01*
D02*
G37*
G36*
X779828Y771503D02*
X778038D01*
X776384Y770818D01*
X775118Y769552D01*
X774433Y767898D01*
Y766108D01*
X775118Y764454D01*
X776384Y763188D01*
X778038Y762503D01*
X779828D01*
X781482Y763188D01*
X782748Y764454D01*
X783433Y766108D01*
Y767898D01*
X782748Y769552D01*
X781482Y770818D01*
X779828Y771503D01*
D02*
G37*
G36*
X712573Y770486D02*
X710783D01*
X709129Y769801D01*
X707863Y768535D01*
X707178Y766881D01*
Y765091D01*
X707863Y763437D01*
X709129Y762171D01*
X710783Y761486D01*
X712573D01*
X714227Y762171D01*
X715493Y763437D01*
X716178Y765091D01*
Y766881D01*
X715493Y768535D01*
X714227Y769801D01*
X712573Y770486D01*
D02*
G37*
G36*
X636665Y744887D02*
X634875D01*
X633221Y744202D01*
X631955Y742936D01*
X631270Y741282D01*
Y739492D01*
X631955Y737838D01*
X633221Y736572D01*
X634875Y735887D01*
X636665D01*
X638319Y736572D01*
X639585Y737838D01*
X640270Y739492D01*
Y741282D01*
X639585Y742936D01*
X638319Y744202D01*
X636665Y744887D01*
D02*
G37*
G36*
X641918Y735562D02*
X640128D01*
X638474Y734877D01*
X637227Y733630D01*
X637206Y733611D01*
X635761Y733436D01*
X635082Y734115D01*
X633428Y734800D01*
X631638D01*
X629984Y734115D01*
X628718Y732849D01*
X628033Y731195D01*
Y729405D01*
X628718Y727751D01*
X629984Y726485D01*
X631408Y725895D01*
X631755Y725062D01*
X631839Y724530D01*
X631649Y724340D01*
X630964Y722686D01*
Y720896D01*
X631649Y719242D01*
X632915Y717976D01*
X634569Y717291D01*
X636359D01*
X638013Y717976D01*
X639279Y719242D01*
X639964Y720896D01*
Y722686D01*
X639279Y724340D01*
X638013Y725606D01*
X637468Y725832D01*
X636909Y727266D01*
X638145Y727576D01*
X638474Y727247D01*
X640128Y726562D01*
X641918D01*
X643572Y727247D01*
X644838Y728513D01*
X645523Y730167D01*
Y731957D01*
X644838Y733611D01*
X643572Y734877D01*
X641918Y735562D01*
D02*
G37*
G36*
X1293995Y739000D02*
X1292205D01*
X1290551Y738315D01*
X1289285Y737049D01*
X1288600Y735395D01*
Y733605D01*
X1288823Y733066D01*
X1287851Y732094D01*
X1287595Y732200D01*
X1285805D01*
X1284151Y731515D01*
X1283112Y730477D01*
X1282572Y730284D01*
X1281570Y730394D01*
X1280649Y731315D01*
X1278995Y732000D01*
X1277205D01*
X1275551Y731315D01*
X1274285Y730049D01*
X1273600Y728395D01*
Y726605D01*
X1274285Y724951D01*
X1275551Y723685D01*
X1277205Y723000D01*
X1278995D01*
X1280649Y723685D01*
X1281687Y724724D01*
X1282228Y724917D01*
X1283230Y724806D01*
X1284151Y723885D01*
X1285090Y723496D01*
Y722121D01*
X1284351Y721815D01*
X1283085Y720549D01*
X1282400Y718895D01*
Y717105D01*
X1283085Y715451D01*
X1283966Y714570D01*
X1283440Y713300D01*
X1283277D01*
X1281623Y712615D01*
X1280357Y711349D01*
X1279672Y709695D01*
Y707905D01*
X1280357Y706251D01*
X1281623Y704985D01*
X1283277Y704300D01*
X1285067D01*
X1286721Y704985D01*
X1287987Y706251D01*
X1288672Y707905D01*
Y709695D01*
X1287987Y711349D01*
X1287106Y712230D01*
X1287632Y713500D01*
X1287795D01*
X1289449Y714185D01*
X1290715Y715451D01*
X1291400Y717105D01*
Y718895D01*
X1290715Y720549D01*
X1289449Y721815D01*
X1288510Y722204D01*
Y723579D01*
X1289249Y723885D01*
X1290515Y725151D01*
X1291200Y726805D01*
Y728595D01*
X1290977Y729134D01*
X1291949Y730106D01*
X1292205Y730000D01*
X1293995D01*
X1295649Y730685D01*
X1296915Y731951D01*
X1297600Y733605D01*
Y735395D01*
X1296915Y737049D01*
X1295649Y738315D01*
X1293995Y739000D01*
D02*
G37*
G36*
X1161395Y732000D02*
X1159605D01*
X1157951Y731315D01*
X1156685Y730049D01*
X1156000Y728395D01*
Y728000D01*
X1154730Y727152D01*
X1154131Y727400D01*
X1152340D01*
X1150686Y726715D01*
X1149421Y725449D01*
X1148736Y723795D01*
Y722005D01*
X1149421Y720351D01*
X1150686Y719085D01*
X1152340Y718400D01*
X1154131D01*
X1155785Y719085D01*
X1157050Y720351D01*
X1157736Y722005D01*
Y722400D01*
X1159006Y723248D01*
X1159605Y723000D01*
X1161395D01*
X1161402Y723003D01*
X1162672Y722154D01*
Y721705D01*
X1163357Y720051D01*
X1164623Y718785D01*
X1166277Y718100D01*
X1168067D01*
X1169721Y718785D01*
X1170987Y720051D01*
X1171672Y721705D01*
Y723495D01*
X1170987Y725149D01*
X1169721Y726415D01*
X1168067Y727100D01*
X1166277D01*
X1166270Y727097D01*
X1165000Y727946D01*
Y728395D01*
X1164315Y730049D01*
X1163049Y731315D01*
X1161395Y732000D01*
D02*
G37*
G36*
X1147595Y735800D02*
X1145805D01*
X1144151Y735115D01*
X1142885Y733849D01*
X1142200Y732195D01*
Y730405D01*
X1142885Y728751D01*
X1144151Y727485D01*
X1145805Y726800D01*
X1147595D01*
X1149249Y727485D01*
X1150515Y728751D01*
X1151200Y730405D01*
Y732195D01*
X1150515Y733849D01*
X1149249Y735115D01*
X1147595Y735800D01*
D02*
G37*
G36*
X1106495D02*
X1104705D01*
X1103051Y735115D01*
X1101785Y733849D01*
X1101100Y732195D01*
Y730405D01*
X1101785Y728751D01*
X1103051Y727485D01*
X1104705Y726800D01*
X1106495D01*
X1108149Y727485D01*
X1109415Y728751D01*
X1110100Y730405D01*
Y732195D01*
X1109415Y733849D01*
X1108149Y735115D01*
X1106495Y735800D01*
D02*
G37*
G36*
X1180895Y735100D02*
X1179105D01*
X1177451Y734415D01*
X1176185Y733149D01*
X1175500Y731495D01*
Y729705D01*
X1176185Y728051D01*
X1177451Y726785D01*
X1179105Y726100D01*
X1180895D01*
X1182549Y726785D01*
X1182743Y726979D01*
X1184241Y726681D01*
X1184585Y725851D01*
X1185851Y724585D01*
X1187505Y723900D01*
X1189295D01*
X1190949Y724585D01*
X1192215Y725851D01*
X1192900Y727505D01*
Y729295D01*
X1192215Y730949D01*
X1190949Y732215D01*
X1189295Y732900D01*
X1187505D01*
X1185851Y732215D01*
X1185657Y732021D01*
X1184159Y732319D01*
X1183815Y733149D01*
X1182549Y734415D01*
X1180895Y735100D01*
D02*
G37*
G36*
X612505Y744742D02*
X610715D01*
X609061Y744057D01*
X607795Y742791D01*
X607110Y741137D01*
Y739347D01*
X607795Y737693D01*
X609061Y736427D01*
X610715Y735742D01*
X610734D01*
X611027Y735383D01*
X611425Y734472D01*
X610857Y733100D01*
Y731403D01*
X610845Y731295D01*
X609930Y730230D01*
X608932D01*
X607278Y729545D01*
X606012Y728279D01*
X605327Y726625D01*
Y724835D01*
X606012Y723181D01*
X607278Y721915D01*
X608932Y721230D01*
X610722D01*
X612376Y721915D01*
X613642Y723181D01*
X614327Y724835D01*
Y726532D01*
X614339Y726640D01*
X615254Y727705D01*
X616252D01*
X617906Y728390D01*
X619172Y729656D01*
X619857Y731310D01*
Y733100D01*
X619390Y734227D01*
X619394Y734243D01*
X620185Y735400D01*
X621428D01*
X623082Y736085D01*
X624348Y737351D01*
X625033Y739005D01*
Y740795D01*
X624348Y742449D01*
X623082Y743715D01*
X621428Y744400D01*
X619638D01*
X617984Y743715D01*
X616876Y742607D01*
X616022Y742598D01*
X615455Y742718D01*
X615425Y742791D01*
X614159Y744057D01*
X612505Y744742D01*
D02*
G37*
G36*
X1252795Y722300D02*
X1251005D01*
X1249351Y721615D01*
X1248200Y720464D01*
X1247654Y720373D01*
X1246741Y720423D01*
X1245649Y721515D01*
X1243995Y722200D01*
X1242205D01*
X1240551Y721515D01*
X1239285Y720249D01*
X1238600Y718595D01*
Y716805D01*
X1239285Y715151D01*
X1240551Y713885D01*
X1242205Y713200D01*
X1243995D01*
X1245649Y713885D01*
X1246800Y715036D01*
X1247346Y715127D01*
X1248259Y715077D01*
X1249351Y713985D01*
X1251005Y713300D01*
X1252795D01*
X1254449Y713985D01*
X1255715Y715251D01*
X1256400Y716905D01*
Y718695D01*
X1255715Y720349D01*
X1254449Y721615D01*
X1252795Y722300D01*
D02*
G37*
G36*
X656242Y728644D02*
X654452D01*
X652798Y727959D01*
X651532Y726693D01*
X650847Y725039D01*
Y723249D01*
X651532Y721595D01*
X652798Y720329D01*
X654452Y719644D01*
X656242D01*
X657896Y720329D01*
X659162Y721595D01*
X659847Y723249D01*
Y725039D01*
X659162Y726693D01*
X657896Y727959D01*
X656242Y728644D01*
D02*
G37*
G36*
X588342Y736761D02*
X586552D01*
X584898Y736076D01*
X583632Y734810D01*
X582947Y733156D01*
Y731366D01*
X583632Y729712D01*
X584898Y728446D01*
X586552Y727761D01*
X586751D01*
X587277Y726491D01*
X586650Y725864D01*
X585965Y724210D01*
Y722420D01*
X586650Y720766D01*
X587916Y719500D01*
X589570Y718815D01*
X591360D01*
X593014Y719500D01*
X594280Y720766D01*
X594965Y722420D01*
Y724210D01*
X594280Y725864D01*
X593014Y727130D01*
X591360Y727815D01*
X591161D01*
X590635Y729085D01*
X591262Y729712D01*
X591947Y731366D01*
Y733156D01*
X591262Y734810D01*
X589996Y736076D01*
X588342Y736761D01*
D02*
G37*
G36*
X678917Y731216D02*
X677127D01*
X675473Y730531D01*
X674207Y729265D01*
X673522Y727611D01*
Y725821D01*
X674207Y724167D01*
X675473Y722901D01*
X677127Y722216D01*
X678246D01*
X679131Y721034D01*
X679076Y720902D01*
Y719112D01*
X679761Y717458D01*
X681027Y716192D01*
X682681Y715507D01*
X684471D01*
X686125Y716192D01*
X687391Y717458D01*
X688076Y719112D01*
Y720902D01*
X687391Y722556D01*
X686125Y723822D01*
X684471Y724507D01*
X683353D01*
X682467Y725688D01*
X682522Y725821D01*
Y727611D01*
X681837Y729265D01*
X680571Y730531D01*
X678917Y731216D01*
D02*
G37*
G36*
X1160067Y714600D02*
X1158277D01*
X1156623Y713915D01*
X1155357Y712649D01*
X1154672Y710995D01*
Y709205D01*
X1155357Y707551D01*
X1156623Y706285D01*
X1158277Y705600D01*
X1160067D01*
X1161721Y706285D01*
X1162987Y707551D01*
X1163672Y709205D01*
Y710995D01*
X1162987Y712649D01*
X1161721Y713915D01*
X1160067Y714600D01*
D02*
G37*
G36*
X1019629Y713603D02*
X1017839D01*
X1016185Y712918D01*
X1014919Y711652D01*
X1014234Y709998D01*
Y708208D01*
X1014919Y706554D01*
X1016185Y705288D01*
X1017839Y704603D01*
X1019629D01*
X1021283Y705288D01*
X1022549Y706554D01*
X1023234Y708208D01*
Y709998D01*
X1022549Y711652D01*
X1021283Y712918D01*
X1019629Y713603D01*
D02*
G37*
G36*
X1041629Y713503D02*
X1039839D01*
X1038185Y712818D01*
X1036919Y711552D01*
X1036234Y709898D01*
Y708108D01*
X1036919Y706454D01*
X1038185Y705188D01*
X1039839Y704503D01*
X1041629D01*
X1043283Y705188D01*
X1044549Y706454D01*
X1045234Y708108D01*
Y709898D01*
X1044549Y711552D01*
X1043283Y712818D01*
X1041629Y713503D01*
D02*
G37*
G36*
X1258995Y707300D02*
X1257205D01*
X1255551Y706615D01*
X1254285Y705349D01*
X1253600Y703695D01*
Y701905D01*
X1254285Y700251D01*
X1255551Y698985D01*
X1257205Y698300D01*
X1258995D01*
X1260649Y698985D01*
X1261915Y700251D01*
X1262600Y701905D01*
Y703695D01*
X1261915Y705349D01*
X1260649Y706615D01*
X1258995Y707300D01*
D02*
G37*
G36*
X561695Y702400D02*
X559905D01*
X558251Y701715D01*
X556985Y700449D01*
X556300Y698795D01*
Y697005D01*
X556985Y695351D01*
X558251Y694085D01*
X559905Y693400D01*
X561695D01*
X563349Y694085D01*
X564615Y695351D01*
X565300Y697005D01*
Y698795D01*
X564615Y700449D01*
X563349Y701715D01*
X561695Y702400D01*
D02*
G37*
G36*
X692261Y696083D02*
X690471D01*
X688817Y695398D01*
X687551Y694132D01*
X686866Y692478D01*
Y690939D01*
X686085Y690083D01*
X685857Y689907D01*
X684910Y689963D01*
X684366Y690688D01*
Y692478D01*
X683680Y694132D01*
X682415Y695398D01*
X680761Y696083D01*
X678970D01*
X677317Y695398D01*
X676051Y694132D01*
X675970Y693938D01*
X674595D01*
X674515Y694132D01*
X673249Y695398D01*
X671595Y696083D01*
X669805D01*
X668151Y695398D01*
X666885Y694132D01*
X666200Y692478D01*
Y690688D01*
X666885Y689034D01*
X668151Y687768D01*
X669805Y687083D01*
X671595D01*
X672474Y686072D01*
X672188Y685383D01*
Y683593D01*
X672873Y681939D01*
X674139Y680673D01*
X675793Y679988D01*
X677583D01*
X679237Y680673D01*
X680302Y681738D01*
X680559Y681936D01*
X681843Y681857D01*
X682507Y681193D01*
X684161Y680508D01*
X685951D01*
X687350Y681087D01*
X688647Y681275D01*
X689913Y680010D01*
X691567Y679324D01*
X693357D01*
X695011Y680010D01*
X696277Y681275D01*
X696962Y682929D01*
Y684720D01*
X696277Y686374D01*
X695011Y687639D01*
X694808Y688661D01*
X695181Y689034D01*
X695866Y690688D01*
Y692478D01*
X695181Y694132D01*
X693915Y695398D01*
X692261Y696083D01*
D02*
G37*
G36*
X444668Y695463D02*
X442878D01*
X441224Y694778D01*
X439958Y693512D01*
X439273Y691858D01*
Y690068D01*
X439958Y688414D01*
X441224Y687148D01*
X442878Y686463D01*
X444668D01*
X446322Y687148D01*
X447588Y688414D01*
X448273Y690068D01*
Y691858D01*
X447588Y693512D01*
X446322Y694778D01*
X444668Y695463D01*
D02*
G37*
G36*
X723195Y694500D02*
X721405D01*
X719751Y693815D01*
X718485Y692549D01*
X717800Y690895D01*
Y689105D01*
X718485Y687451D01*
X719751Y686185D01*
X721405Y685500D01*
X723195D01*
X724849Y686185D01*
X726115Y687451D01*
X726800Y689105D01*
Y690895D01*
X726115Y692549D01*
X724849Y693815D01*
X723195Y694500D01*
D02*
G37*
G36*
X735695Y694300D02*
X733905D01*
X732251Y693615D01*
X730985Y692349D01*
X730300Y690695D01*
Y688905D01*
X730985Y687251D01*
X732251Y685985D01*
X733905Y685300D01*
X735695D01*
X737349Y685985D01*
X738615Y687251D01*
X739300Y688905D01*
Y690695D01*
X738615Y692349D01*
X737349Y693615D01*
X735695Y694300D01*
D02*
G37*
G36*
X711756Y694287D02*
X709966D01*
X708312Y693602D01*
X707046Y692336D01*
X706361Y690682D01*
Y688892D01*
X707046Y687238D01*
X708312Y685972D01*
X709966Y685287D01*
X711756D01*
X713410Y685972D01*
X714676Y687238D01*
X715361Y688892D01*
Y690682D01*
X714676Y692336D01*
X713410Y693602D01*
X711756Y694287D01*
D02*
G37*
G36*
X606781Y691898D02*
X604991D01*
X603337Y691213D01*
X602071Y689947D01*
X601386Y688293D01*
Y686503D01*
X602071Y684849D01*
X603337Y683583D01*
X604991Y682898D01*
X606781D01*
X608435Y683583D01*
X609701Y684849D01*
X610386Y686503D01*
Y688293D01*
X609701Y689947D01*
X608435Y691213D01*
X606781Y691898D01*
D02*
G37*
G36*
X751263Y695243D02*
X749473D01*
X747819Y694558D01*
X746553Y693292D01*
X745868Y691638D01*
Y690380D01*
X745832Y689827D01*
X744759Y689207D01*
X744002D01*
X742348Y688522D01*
X741082Y687256D01*
X740397Y685602D01*
Y683812D01*
X741082Y682158D01*
X742348Y680892D01*
X744002Y680207D01*
X745792D01*
X747446Y680892D01*
X748712Y682158D01*
X749397Y683812D01*
Y685070D01*
X749410Y685264D01*
X750338Y685781D01*
X751293Y685250D01*
X751298Y685070D01*
Y683848D01*
X751983Y682194D01*
X753249Y680928D01*
X754903Y680243D01*
X756693D01*
X758347Y680928D01*
X759613Y682194D01*
X760298Y683848D01*
Y685638D01*
X759613Y687292D01*
X758347Y688558D01*
X756693Y689243D01*
X755992D01*
X754885Y689839D01*
X754868Y690416D01*
Y691638D01*
X754183Y693292D01*
X752917Y694558D01*
X751263Y695243D01*
D02*
G37*
G36*
X551966Y697495D02*
X550176D01*
X548522Y696810D01*
X547256Y695544D01*
X546571Y693890D01*
Y693302D01*
X545561Y692627D01*
X543771D01*
X542117Y691942D01*
X540851Y690676D01*
X540166Y689022D01*
Y687232D01*
X540851Y685578D01*
X542117Y684312D01*
X543771Y683627D01*
X545561D01*
X546490Y684012D01*
X547462Y683039D01*
X547321Y682700D01*
Y680910D01*
X548006Y679256D01*
X549272Y677990D01*
X550926Y677305D01*
X552716D01*
X554370Y677990D01*
X555636Y679256D01*
X556321Y680910D01*
Y682700D01*
X555636Y684354D01*
X554370Y685620D01*
X552716Y686305D01*
X550926D01*
X550277Y686036D01*
X549300Y686882D01*
X549428Y687996D01*
X550176Y688495D01*
X551966D01*
X553620Y689180D01*
X554886Y690446D01*
X555571Y692100D01*
Y693890D01*
X554886Y695544D01*
X553620Y696810D01*
X551966Y697495D01*
D02*
G37*
G36*
X586175Y683174D02*
X584385D01*
X582731Y682489D01*
X581465Y681223D01*
X580780Y679569D01*
Y677779D01*
X581465Y676125D01*
X582731Y674859D01*
X584385Y674174D01*
X586175D01*
X587830Y674859D01*
X589095Y676125D01*
X589780Y677779D01*
Y679569D01*
X589095Y681223D01*
X587830Y682489D01*
X586175Y683174D01*
D02*
G37*
G36*
X1129395Y682100D02*
X1127605D01*
X1125951Y681415D01*
X1124685Y680149D01*
X1124000Y678495D01*
Y676705D01*
X1124685Y675051D01*
X1125951Y673785D01*
X1127605Y673100D01*
X1129395D01*
X1131049Y673785D01*
X1132315Y675051D01*
X1133000Y676705D01*
Y678495D01*
X1132315Y680149D01*
X1131049Y681415D01*
X1129395Y682100D01*
D02*
G37*
G36*
X1171295Y681300D02*
X1169505D01*
X1167851Y680615D01*
X1166585Y679349D01*
X1165900Y677695D01*
Y675905D01*
X1166585Y674251D01*
X1167851Y672985D01*
X1169505Y672300D01*
X1171295D01*
X1172949Y672985D01*
X1174215Y674251D01*
X1174900Y675905D01*
Y677695D01*
X1174215Y679349D01*
X1172949Y680615D01*
X1171295Y681300D01*
D02*
G37*
G36*
X1157895Y681200D02*
X1156105D01*
X1154451Y680515D01*
X1153185Y679249D01*
X1152500Y677595D01*
Y675805D01*
X1153185Y674151D01*
X1154451Y672885D01*
X1156105Y672200D01*
X1157895D01*
X1159549Y672885D01*
X1160815Y674151D01*
X1161500Y675805D01*
Y677595D01*
X1160815Y679249D01*
X1159549Y680515D01*
X1157895Y681200D01*
D02*
G37*
G36*
X1273795Y678400D02*
X1272005D01*
X1270351Y677715D01*
X1269085Y676449D01*
X1268400Y674795D01*
Y673005D01*
X1269085Y671351D01*
X1270351Y670085D01*
X1272005Y669400D01*
X1273795D01*
X1275449Y670085D01*
X1276715Y671351D01*
X1276750Y671437D01*
X1278125D01*
X1278285Y671051D01*
X1279551Y669785D01*
X1281205Y669100D01*
X1282995D01*
X1284649Y669785D01*
X1285915Y671051D01*
X1286600Y672705D01*
Y674495D01*
X1285915Y676149D01*
X1284649Y677415D01*
X1282995Y678100D01*
X1281205D01*
X1279551Y677415D01*
X1278285Y676149D01*
X1278250Y676063D01*
X1276875D01*
X1276715Y676449D01*
X1275449Y677715D01*
X1273795Y678400D01*
D02*
G37*
G36*
X1293895Y677800D02*
X1292105D01*
X1290451Y677115D01*
X1289185Y675849D01*
X1288500Y674195D01*
Y672405D01*
X1289185Y670751D01*
X1290451Y669485D01*
X1292105Y668800D01*
X1293895D01*
X1295549Y669485D01*
X1296815Y670751D01*
X1297500Y672405D01*
Y674195D01*
X1296815Y675849D01*
X1295549Y677115D01*
X1293895Y677800D01*
D02*
G37*
G36*
X735395Y671043D02*
X733605D01*
X731951Y670358D01*
X730685Y669092D01*
X730000Y667438D01*
Y665648D01*
X730685Y663994D01*
X731951Y662728D01*
X733605Y662043D01*
X735395D01*
X737049Y662728D01*
X738315Y663994D01*
X739000Y665648D01*
Y667438D01*
X738315Y669092D01*
X737049Y670358D01*
X735395Y671043D01*
D02*
G37*
G36*
X682095Y671000D02*
X680305D01*
X678651Y670315D01*
X677385Y669049D01*
X676700Y667395D01*
Y665605D01*
X677385Y663951D01*
X678651Y662685D01*
X680305Y662000D01*
X682095D01*
X683749Y662685D01*
X685015Y663951D01*
X685700Y665605D01*
Y667395D01*
X685015Y669049D01*
X683749Y670315D01*
X682095Y671000D01*
D02*
G37*
G36*
X746095Y670700D02*
X744305D01*
X742651Y670015D01*
X741385Y668749D01*
X740700Y667095D01*
Y665305D01*
X741385Y663651D01*
X742651Y662385D01*
X744305Y661700D01*
X746095D01*
X747749Y662385D01*
X749015Y663651D01*
X749700Y665305D01*
Y667095D01*
X749015Y668749D01*
X747749Y670015D01*
X746095Y670700D01*
D02*
G37*
G36*
X722795Y670500D02*
X721005D01*
X719351Y669815D01*
X718085Y668549D01*
X717400Y666895D01*
Y665105D01*
X718085Y663451D01*
X719351Y662185D01*
X721005Y661500D01*
X722795D01*
X724449Y662185D01*
X725715Y663451D01*
X726400Y665105D01*
Y666895D01*
X725715Y668549D01*
X724449Y669815D01*
X722795Y670500D01*
D02*
G37*
G36*
X1145067Y676100D02*
X1143277D01*
X1141623Y675415D01*
X1140357Y674149D01*
X1139672Y672495D01*
Y670705D01*
X1140357Y669051D01*
X1141623Y667785D01*
X1143277Y667100D01*
X1145067D01*
X1145873Y667434D01*
X1146525Y666901D01*
X1146900Y666485D01*
Y664805D01*
X1147585Y663151D01*
X1148851Y661885D01*
X1150505Y661200D01*
X1152295D01*
X1153949Y661885D01*
X1155215Y663151D01*
X1155900Y664805D01*
Y666595D01*
X1155215Y668249D01*
X1153949Y669515D01*
X1152295Y670200D01*
X1150505D01*
X1149699Y669866D01*
X1149046Y670399D01*
X1148672Y670815D01*
Y672495D01*
X1147987Y674149D01*
X1146721Y675415D01*
X1145067Y676100D01*
D02*
G37*
G36*
X1267495Y663600D02*
X1265705D01*
X1264051Y662915D01*
X1262785Y661649D01*
X1262100Y659995D01*
Y658205D01*
X1262785Y656551D01*
X1264051Y655285D01*
X1265705Y654600D01*
X1267495D01*
X1269149Y655285D01*
X1270415Y656551D01*
X1271100Y658205D01*
Y659995D01*
X1270415Y661649D01*
X1269149Y662915D01*
X1267495Y663600D01*
D02*
G37*
G36*
X1183695Y662900D02*
X1181905D01*
X1180251Y662215D01*
X1178985Y660949D01*
X1178300Y659295D01*
Y657505D01*
X1178985Y655851D01*
X1180251Y654585D01*
X1181905Y653900D01*
X1183695D01*
X1185349Y654585D01*
X1186615Y655851D01*
X1187300Y657505D01*
Y659295D01*
X1186615Y660949D01*
X1185349Y662215D01*
X1183695Y662900D01*
D02*
G37*
G36*
X1261495Y654700D02*
X1259705D01*
X1258051Y654015D01*
X1256785Y652749D01*
X1256100Y651095D01*
Y649305D01*
X1256180Y649111D01*
X1255208Y648139D01*
X1254095Y648600D01*
X1252305D01*
X1250651Y647915D01*
X1249780Y647044D01*
X1249276Y646681D01*
X1248158Y647006D01*
X1247549Y647615D01*
X1245895Y648300D01*
X1244105D01*
X1242451Y647615D01*
X1241185Y646349D01*
X1240500Y644695D01*
Y642905D01*
X1241185Y641251D01*
X1242451Y639985D01*
X1244105Y639300D01*
X1245895D01*
X1247549Y639985D01*
X1248420Y640856D01*
X1248924Y641219D01*
X1250042Y640894D01*
X1250651Y640285D01*
X1252305Y639600D01*
X1254095D01*
X1255749Y640285D01*
X1257015Y641551D01*
X1257700Y643205D01*
Y644995D01*
X1257620Y645189D01*
X1258592Y646161D01*
X1259705Y645700D01*
X1261495D01*
X1263149Y646385D01*
X1264415Y647651D01*
X1265100Y649305D01*
Y651095D01*
X1264415Y652749D01*
X1263149Y654015D01*
X1261495Y654700D01*
D02*
G37*
G36*
X1170795Y650300D02*
X1169005D01*
X1167351Y649615D01*
X1166085Y648349D01*
X1165400Y646695D01*
Y644905D01*
X1166085Y643251D01*
X1167351Y641985D01*
X1169005Y641300D01*
X1170795D01*
X1172449Y641985D01*
X1173715Y643251D01*
X1174400Y644905D01*
Y646695D01*
X1173715Y648349D01*
X1172449Y649615D01*
X1170795Y650300D01*
D02*
G37*
G36*
X868395Y647700D02*
X866605D01*
X864951Y647015D01*
X863685Y645749D01*
X863000Y644095D01*
Y642305D01*
X863685Y640651D01*
X864951Y639385D01*
X866605Y638700D01*
X868395D01*
X870049Y639385D01*
X871315Y640651D01*
X872000Y642305D01*
Y644095D01*
X871315Y645749D01*
X870049Y647015D01*
X868395Y647700D01*
D02*
G37*
G36*
X771615Y645192D02*
X769825D01*
X768171Y644507D01*
X766905Y643241D01*
X766220Y641587D01*
Y639797D01*
X766905Y638143D01*
X768171Y636877D01*
X769825Y636192D01*
X771615D01*
X773269Y636877D01*
X774535Y638143D01*
X775220Y639797D01*
Y641587D01*
X774535Y643241D01*
X773269Y644507D01*
X771615Y645192D01*
D02*
G37*
G36*
X547258Y650859D02*
X545468D01*
X543814Y650174D01*
X542548Y648908D01*
X541863Y647254D01*
Y645464D01*
X542548Y643810D01*
X543814Y642544D01*
X545468Y641859D01*
X546739D01*
X547576Y640850D01*
X547627Y640686D01*
X547583Y640579D01*
Y638789D01*
X548268Y637135D01*
X549534Y635869D01*
X551188Y635184D01*
X552978D01*
X554632Y635869D01*
X555898Y637135D01*
X556583Y638789D01*
Y640579D01*
X555898Y642233D01*
X554632Y643499D01*
X552978Y644184D01*
X551708D01*
X550871Y645193D01*
X550819Y645357D01*
X550863Y645464D01*
Y647254D01*
X550178Y648908D01*
X548912Y650174D01*
X547258Y650859D01*
D02*
G37*
G36*
X859995Y640600D02*
X858205D01*
X856551Y639915D01*
X855285Y638649D01*
X854600Y636995D01*
Y635205D01*
X855285Y633551D01*
X856551Y632285D01*
X858205Y631600D01*
X859995D01*
X861649Y632285D01*
X862915Y633551D01*
X863600Y635205D01*
Y636995D01*
X862915Y638649D01*
X861649Y639915D01*
X859995Y640600D01*
D02*
G37*
G36*
X641398Y626977D02*
X639608D01*
X637954Y626292D01*
X636688Y625026D01*
X636003Y623372D01*
Y621582D01*
X636688Y619928D01*
X637954Y618662D01*
X639608Y617977D01*
X641398D01*
X643052Y618662D01*
X644318Y619928D01*
X645003Y621582D01*
Y623372D01*
X644318Y625026D01*
X643052Y626292D01*
X641398Y626977D01*
D02*
G37*
G36*
X1128595Y624500D02*
X1126805D01*
X1125151Y623815D01*
X1123885Y622549D01*
X1123200Y620895D01*
Y619105D01*
X1123456Y618487D01*
X1122484Y617515D01*
X1121795Y617800D01*
X1120005D01*
X1118351Y617115D01*
X1117085Y615849D01*
X1116400Y614195D01*
Y612405D01*
X1117085Y610751D01*
X1118351Y609485D01*
X1120005Y608800D01*
X1121795D01*
X1122193Y608965D01*
X1123165Y607993D01*
X1123000Y607595D01*
Y605805D01*
X1123685Y604151D01*
X1124951Y602885D01*
X1126605Y602200D01*
X1128395D01*
X1130049Y602885D01*
X1131315Y604151D01*
X1132000Y605805D01*
Y607595D01*
X1131315Y609249D01*
X1130049Y610515D01*
X1128395Y611200D01*
X1126605D01*
X1126207Y611035D01*
X1125235Y612007D01*
X1125400Y612405D01*
Y614195D01*
X1125144Y614813D01*
X1126116Y615785D01*
X1126805Y615500D01*
X1128595D01*
X1130249Y616185D01*
X1131515Y617451D01*
X1132200Y619105D01*
Y620895D01*
X1131515Y622549D01*
X1130249Y623815D01*
X1128595Y624500D01*
D02*
G37*
G36*
X1240067Y624300D02*
X1238277D01*
X1236623Y623615D01*
X1235357Y622349D01*
X1234672Y620695D01*
Y618905D01*
X1235357Y617251D01*
X1236623Y615985D01*
X1238277Y615300D01*
X1240067D01*
X1241721Y615985D01*
X1242987Y617251D01*
X1243672Y618905D01*
Y620695D01*
X1242987Y622349D01*
X1241721Y623615D01*
X1240067Y624300D01*
D02*
G37*
G36*
X807790Y630153D02*
X806000D01*
X804346Y629468D01*
X803080Y628202D01*
X802395Y626548D01*
Y625413D01*
X801225Y624524D01*
X801222Y624523D01*
X799434D01*
X797780Y623838D01*
X796514Y622572D01*
X795829Y620918D01*
Y619128D01*
X796514Y617474D01*
X797780Y616208D01*
X799434Y615523D01*
X801224D01*
X802615Y616099D01*
X802886Y616204D01*
X804084Y615618D01*
X804394Y614870D01*
X805660Y613604D01*
X807314Y612919D01*
X809104D01*
X810758Y613604D01*
X812024Y614870D01*
X812709Y616524D01*
Y618314D01*
X812024Y619968D01*
X810758Y621234D01*
X810672Y621270D01*
X810374Y622768D01*
X810710Y623104D01*
X811395Y624758D01*
Y626548D01*
X810710Y628202D01*
X809444Y629468D01*
X807790Y630153D01*
D02*
G37*
G36*
X1193203Y620593D02*
X1191412D01*
X1189758Y619907D01*
X1188493Y618642D01*
X1187807Y616988D01*
Y615921D01*
X1187322Y615033D01*
X1186634Y614800D01*
X1185405D01*
X1183751Y614115D01*
X1182485Y612849D01*
X1181800Y611195D01*
Y609405D01*
X1182485Y607751D01*
X1183751Y606485D01*
X1185405Y605800D01*
X1187195D01*
X1188849Y606485D01*
X1190115Y607751D01*
X1190800Y609405D01*
Y610472D01*
X1191285Y611359D01*
X1191973Y611593D01*
X1193203D01*
X1194856Y612278D01*
X1196122Y613544D01*
X1196807Y615197D01*
Y616988D01*
X1196122Y618642D01*
X1194856Y619907D01*
X1193203Y620593D01*
D02*
G37*
G36*
X753007Y612977D02*
X751217D01*
X749563Y612292D01*
X748297Y611026D01*
X747612Y609372D01*
Y607582D01*
X748297Y605928D01*
X749563Y604662D01*
X751217Y603977D01*
X753007D01*
X754192Y604468D01*
X755171Y603512D01*
X754875Y602798D01*
Y601008D01*
X755560Y599354D01*
X756826Y598088D01*
X758480Y597403D01*
X760270D01*
X761924Y598088D01*
X763190Y599354D01*
X763875Y601008D01*
Y602798D01*
X763425Y603885D01*
X764501Y604605D01*
X764820Y604286D01*
X766474Y603601D01*
X768264D01*
X769918Y604286D01*
X771184Y605552D01*
X771869Y607206D01*
Y608996D01*
X771184Y610650D01*
X769918Y611916D01*
X768264Y612601D01*
X766474D01*
X764820Y611916D01*
X763554Y610650D01*
X762869Y608996D01*
Y607206D01*
X763319Y606119D01*
X762243Y605399D01*
X761924Y605718D01*
X760270Y606403D01*
X758480D01*
X757295Y605912D01*
X756316Y606867D01*
X756612Y607582D01*
Y609372D01*
X755927Y611026D01*
X754661Y612292D01*
X753007Y612977D01*
D02*
G37*
G36*
X1164067Y611200D02*
X1162277D01*
X1160623Y610515D01*
X1159357Y609249D01*
X1158672Y607595D01*
Y605805D01*
X1159357Y604151D01*
X1160623Y602885D01*
X1162277Y602200D01*
X1164067D01*
X1165721Y602885D01*
X1166987Y604151D01*
X1167007Y604200D01*
X1168382D01*
X1168485Y603951D01*
X1169751Y602685D01*
X1171405Y602000D01*
X1173195D01*
X1174849Y602685D01*
X1176115Y603951D01*
X1176800Y605605D01*
Y607395D01*
X1176115Y609049D01*
X1174849Y610315D01*
X1173195Y611000D01*
X1171405D01*
X1169751Y610315D01*
X1168485Y609049D01*
X1168465Y609000D01*
X1167090D01*
X1166987Y609249D01*
X1165721Y610515D01*
X1164067Y611200D01*
D02*
G37*
G36*
X1139067D02*
X1137277D01*
X1135623Y610515D01*
X1134357Y609249D01*
X1133672Y607595D01*
Y605805D01*
X1134357Y604151D01*
X1135623Y602885D01*
X1137277Y602200D01*
X1139067D01*
X1140721Y602885D01*
X1141221Y603385D01*
X1142485Y603651D01*
X1143751Y602385D01*
X1145405Y601700D01*
X1147195D01*
X1148849Y602385D01*
X1150115Y603651D01*
X1150800Y605305D01*
Y607095D01*
X1150115Y608749D01*
X1148849Y610015D01*
X1147195Y610700D01*
X1145405D01*
X1143751Y610015D01*
X1143251Y609515D01*
X1141987Y609249D01*
X1140721Y610515D01*
X1139067Y611200D01*
D02*
G37*
G36*
X545983Y608318D02*
X544193D01*
X542539Y607633D01*
X541273Y606367D01*
X540588Y604713D01*
Y602923D01*
X541273Y601269D01*
X542539Y600003D01*
X544193Y599318D01*
X545983D01*
X547637Y600003D01*
X548903Y601269D01*
X549588Y602923D01*
Y604713D01*
X548903Y606367D01*
X547637Y607633D01*
X545983Y608318D01*
D02*
G37*
G36*
X1206589Y612860D02*
X1204799D01*
X1203145Y612174D01*
X1201879Y610909D01*
X1201194Y609255D01*
Y607464D01*
X1201635Y606400D01*
X1201462Y606143D01*
X1199808Y605457D01*
X1198542Y604192D01*
X1197857Y602538D01*
Y600747D01*
X1198542Y599094D01*
X1199808Y597828D01*
X1201462Y597143D01*
X1203252D01*
X1204906Y597828D01*
X1206172Y599094D01*
X1206857Y600747D01*
Y602538D01*
X1206417Y603602D01*
X1206589Y603860D01*
X1208243Y604545D01*
X1209509Y605811D01*
X1210194Y607464D01*
Y609255D01*
X1209509Y610909D01*
X1208243Y612174D01*
X1206589Y612860D01*
D02*
G37*
G36*
X596972Y593133D02*
X595182D01*
X593528Y592448D01*
X592262Y591182D01*
X591805Y590079D01*
X590694Y589594D01*
X590345Y589621D01*
X588901Y590219D01*
X587111D01*
X585457Y589534D01*
X584191Y588268D01*
X583506Y586614D01*
Y584824D01*
X584191Y583170D01*
X585457Y581904D01*
X587111Y581219D01*
X588901D01*
X590555Y581904D01*
X591821Y583170D01*
X592277Y584272D01*
X593389Y584757D01*
X593737Y584731D01*
X595182Y584133D01*
X596972D01*
X598626Y584818D01*
X599892Y586084D01*
X600577Y587738D01*
Y589528D01*
X599892Y591182D01*
X598626Y592448D01*
X596972Y593133D01*
D02*
G37*
G36*
X1163995Y596800D02*
X1162205D01*
X1160551Y596115D01*
X1159285Y594849D01*
X1158600Y593195D01*
Y591405D01*
X1159285Y589751D01*
X1160551Y588485D01*
X1162205Y587800D01*
X1163995D01*
X1165649Y588485D01*
X1166087Y588923D01*
X1167285Y589351D01*
X1168551Y588085D01*
X1170205Y587400D01*
X1171995D01*
X1173649Y588085D01*
X1174915Y589351D01*
X1175600Y591005D01*
Y592795D01*
X1174915Y594449D01*
X1173649Y595715D01*
X1171995Y596400D01*
X1170205D01*
X1168551Y595715D01*
X1168112Y595276D01*
X1166915Y594849D01*
X1165649Y596115D01*
X1163995Y596800D01*
D02*
G37*
G36*
X1212720Y592275D02*
X1210929D01*
X1209276Y591590D01*
X1208010Y590324D01*
X1207325Y588671D01*
Y586880D01*
X1208010Y585226D01*
X1209276Y583960D01*
X1210929Y583275D01*
X1212720D01*
X1214374Y583960D01*
X1214921Y584508D01*
X1216419Y584210D01*
X1216485Y584051D01*
X1217751Y582785D01*
X1219405Y582100D01*
X1221195D01*
X1222849Y582785D01*
X1224115Y584051D01*
X1224800Y585705D01*
Y587495D01*
X1224115Y589149D01*
X1222849Y590415D01*
X1221195Y591100D01*
X1219405D01*
X1217751Y590415D01*
X1217203Y589867D01*
X1215705Y590165D01*
X1215639Y590324D01*
X1214374Y591590D01*
X1212720Y592275D01*
D02*
G37*
G36*
X559206Y587908D02*
X557416D01*
X555762Y587223D01*
X554496Y585957D01*
X553811Y584303D01*
Y582578D01*
X553800Y582562D01*
X553538Y582315D01*
X552754Y581746D01*
X551482Y582273D01*
X549692D01*
X548038Y581588D01*
X546772Y580322D01*
X546087Y578668D01*
Y576878D01*
X546772Y575224D01*
X548038Y573958D01*
X549692Y573273D01*
X551482D01*
X553136Y573958D01*
X554402Y575224D01*
X555087Y576878D01*
Y578602D01*
X555098Y578619D01*
X555360Y578866D01*
X556144Y579435D01*
X557416Y578908D01*
X559206D01*
X560860Y579593D01*
X562126Y580859D01*
X562811Y582513D01*
Y584303D01*
X562126Y585957D01*
X560860Y587223D01*
X559206Y587908D01*
D02*
G37*
G36*
X797100Y588115D02*
X795310D01*
X793656Y587430D01*
X792390Y586164D01*
X791705Y584510D01*
Y582720D01*
X792390Y581066D01*
X793656Y579800D01*
X795310Y579115D01*
X797100D01*
X798754Y579800D01*
X800020Y581066D01*
X800705Y582720D01*
Y584510D01*
X800020Y586164D01*
X798754Y587430D01*
X797100Y588115D01*
D02*
G37*
G36*
X773478Y599173D02*
X771688D01*
X770034Y598488D01*
X768768Y597222D01*
X768083Y595568D01*
Y593860D01*
X768066Y593758D01*
X767160Y592687D01*
X766100D01*
X764446Y592002D01*
X763180Y590736D01*
X762495Y589082D01*
Y587292D01*
X762845Y586447D01*
X762665Y586071D01*
X761945Y585300D01*
X760505D01*
X758851Y584615D01*
X757585Y583349D01*
X756900Y581695D01*
Y579905D01*
X757585Y578251D01*
X758851Y576985D01*
X760505Y576300D01*
X762295D01*
X763949Y576985D01*
X765215Y578251D01*
X765900Y579905D01*
Y581695D01*
X765550Y582540D01*
X765730Y582916D01*
X766450Y583687D01*
X767890D01*
X769544Y584372D01*
X770810Y585638D01*
X771495Y587292D01*
Y588999D01*
X771512Y589102D01*
X772418Y590173D01*
X773478D01*
X775132Y590858D01*
X776398Y592124D01*
X777083Y593778D01*
Y595568D01*
X776398Y597222D01*
X775132Y598488D01*
X773478Y599173D01*
D02*
G37*
G36*
X1203895Y580800D02*
X1202105D01*
X1200451Y580115D01*
X1199185Y578849D01*
X1198500Y577195D01*
Y576244D01*
X1197235Y575394D01*
X1196495Y575700D01*
X1194705D01*
X1193051Y575015D01*
X1191785Y573749D01*
X1191100Y572095D01*
Y570305D01*
X1191785Y568651D01*
X1193051Y567385D01*
X1194705Y566700D01*
X1196495D01*
X1198149Y567385D01*
X1199415Y568651D01*
X1200100Y570305D01*
Y571256D01*
X1201365Y572106D01*
X1202105Y571800D01*
X1203895D01*
X1205549Y572485D01*
X1206815Y573751D01*
X1207500Y575405D01*
Y577195D01*
X1206815Y578849D01*
X1205549Y580115D01*
X1203895Y580800D01*
D02*
G37*
G36*
X598908Y582712D02*
X597117D01*
X595463Y582027D01*
X594198Y580761D01*
X593512Y579108D01*
Y577317D01*
X594198Y575663D01*
X595463Y574398D01*
X597117Y573712D01*
X598908D01*
X600561Y574398D01*
X601827Y575663D01*
X602512Y577317D01*
Y579108D01*
X601827Y580761D01*
X600561Y582027D01*
X598908Y582712D01*
D02*
G37*
G36*
X542235Y574875D02*
X540445D01*
X538791Y574190D01*
X537525Y572924D01*
X536840Y571270D01*
Y569480D01*
X537525Y567826D01*
X538791Y566560D01*
X540445Y565875D01*
X542235D01*
X543889Y566560D01*
X545155Y567826D01*
X545840Y569480D01*
Y571270D01*
X545155Y572924D01*
X543889Y574190D01*
X542235Y574875D01*
D02*
G37*
G36*
X715689Y570419D02*
X713899D01*
X712245Y569734D01*
X710979Y568468D01*
X710294Y566814D01*
Y565024D01*
X710979Y563370D01*
X712245Y562104D01*
X713899Y561419D01*
X715689D01*
X717343Y562104D01*
X718609Y563370D01*
X719294Y565024D01*
Y566814D01*
X718609Y568468D01*
X717343Y569734D01*
X715689Y570419D01*
D02*
G37*
G36*
X695500D02*
X693710D01*
X692056Y569734D01*
X690790Y568468D01*
X690105Y566814D01*
Y565024D01*
X690790Y563370D01*
X692056Y562104D01*
X693710Y561419D01*
X695500D01*
X697154Y562104D01*
X698420Y563370D01*
X699105Y565024D01*
Y566814D01*
X698420Y568468D01*
X697154Y569734D01*
X695500Y570419D01*
D02*
G37*
G36*
X676554D02*
X674764D01*
X673110Y569734D01*
X671844Y568468D01*
X671159Y566814D01*
Y565024D01*
X671844Y563370D01*
X673110Y562104D01*
X674764Y561419D01*
X676554D01*
X678208Y562104D01*
X679474Y563370D01*
X680159Y565024D01*
Y566814D01*
X679474Y568468D01*
X678208Y569734D01*
X676554Y570419D01*
D02*
G37*
G36*
X489215Y569188D02*
X487425D01*
X485771Y568503D01*
X484505Y567237D01*
X483820Y565583D01*
Y563793D01*
X484505Y562139D01*
X485771Y560873D01*
X487425Y560188D01*
X489215D01*
X490869Y560873D01*
X492135Y562139D01*
X492820Y563793D01*
Y565583D01*
X492135Y567237D01*
X490869Y568503D01*
X489215Y569188D01*
D02*
G37*
G36*
X687372Y563477D02*
X685582D01*
X683928Y562792D01*
X682662Y561526D01*
X681977Y559872D01*
Y558082D01*
X682662Y556428D01*
X683928Y555162D01*
X685582Y554477D01*
X687372D01*
X689026Y555162D01*
X690292Y556428D01*
X690977Y558082D01*
Y559872D01*
X690292Y561526D01*
X689026Y562792D01*
X687372Y563477D01*
D02*
G37*
G36*
X613060Y560782D02*
X611270D01*
X609616Y560097D01*
X608350Y558831D01*
X607665Y557177D01*
Y555387D01*
X606689Y554424D01*
X605593Y554878D01*
X603803D01*
X602149Y554193D01*
X600883Y552927D01*
X600198Y551273D01*
Y549483D01*
X600883Y547829D01*
X602149Y546563D01*
X603803Y545878D01*
X605593D01*
X607247Y546563D01*
X608513Y547829D01*
X609198Y549483D01*
Y551273D01*
X610174Y552236D01*
X611270Y551782D01*
X613060D01*
X614714Y552467D01*
X615980Y553733D01*
X616665Y555387D01*
Y557177D01*
X615980Y558831D01*
X614714Y560097D01*
X613060Y560782D01*
D02*
G37*
G36*
X1187195Y558300D02*
X1185405D01*
X1183751Y557615D01*
X1182485Y556349D01*
X1181800Y554695D01*
Y552905D01*
X1182485Y551251D01*
X1183751Y549985D01*
X1185405Y549300D01*
X1187195D01*
X1188849Y549985D01*
X1190115Y551251D01*
X1190800Y552905D01*
Y554695D01*
X1190115Y556349D01*
X1188849Y557615D01*
X1187195Y558300D01*
D02*
G37*
G36*
X695672Y557045D02*
X693882D01*
X692228Y556359D01*
X690962Y555094D01*
X690277Y553440D01*
Y551650D01*
X690962Y549996D01*
X692228Y548730D01*
X693882Y548045D01*
X695672D01*
X697326Y548730D01*
X698592Y549996D01*
X699277Y551650D01*
Y553440D01*
X698592Y555094D01*
X697326Y556359D01*
X695672Y557045D01*
D02*
G37*
G36*
X651363Y557306D02*
X649573D01*
X647919Y556621D01*
X646653Y555355D01*
X645968Y553701D01*
Y551911D01*
X646653Y550257D01*
X647919Y548991D01*
X649573Y548306D01*
X651363D01*
X651980Y548562D01*
X653250Y547713D01*
Y547316D01*
X653935Y545662D01*
X655201Y544396D01*
X656855Y543711D01*
X658645D01*
X660299Y544396D01*
X661565Y545662D01*
X662250Y547316D01*
Y549106D01*
X661565Y550760D01*
X660299Y552026D01*
X658645Y552711D01*
X656855D01*
X656238Y552455D01*
X654968Y553304D01*
Y553701D01*
X654283Y555355D01*
X653017Y556621D01*
X651363Y557306D01*
D02*
G37*
G36*
X619715Y552689D02*
X617925D01*
X616271Y552004D01*
X615005Y550738D01*
X614320Y549084D01*
Y547294D01*
X615005Y545640D01*
X616271Y544374D01*
X617925Y543689D01*
X619715D01*
X621369Y544374D01*
X622635Y545640D01*
X623320Y547294D01*
Y549084D01*
X622635Y550738D01*
X621369Y552004D01*
X619715Y552689D01*
D02*
G37*
G36*
X584964Y537391D02*
X583174D01*
X581520Y536706D01*
X580254Y535440D01*
X579569Y533786D01*
Y531996D01*
X580254Y530342D01*
X581520Y529076D01*
X583174Y528391D01*
X584964D01*
X586618Y529076D01*
X587884Y530342D01*
X588569Y531996D01*
Y533786D01*
X587884Y535440D01*
X586618Y536706D01*
X584964Y537391D01*
D02*
G37*
G36*
X769160Y531981D02*
X767370D01*
X765716Y531296D01*
X764450Y530030D01*
X763765Y528376D01*
Y526586D01*
X764450Y524932D01*
X765716Y523666D01*
X767370Y522981D01*
X769160D01*
X770814Y523666D01*
X772080Y524932D01*
X772765Y526586D01*
Y528376D01*
X772080Y530030D01*
X770814Y531296D01*
X769160Y531981D01*
D02*
G37*
G36*
X584764Y525201D02*
X582974D01*
X581320Y524516D01*
X580054Y523250D01*
X579369Y521596D01*
Y519806D01*
X580054Y518152D01*
X581320Y516886D01*
X582974Y516201D01*
X584764D01*
X586418Y516886D01*
X587684Y518152D01*
X588369Y519806D01*
Y521596D01*
X587684Y523250D01*
X586418Y524516D01*
X584764Y525201D01*
D02*
G37*
G36*
X559125Y531646D02*
X557335D01*
X555681Y530961D01*
X554415Y529695D01*
X553730Y528041D01*
Y526251D01*
X554415Y524597D01*
X555509Y523503D01*
X555481Y523364D01*
X554215Y522098D01*
X553530Y520444D01*
Y518654D01*
X554215Y517000D01*
X555481Y515734D01*
X557135Y515049D01*
X558925D01*
X560579Y515734D01*
X561845Y517000D01*
X562530Y518654D01*
Y520444D01*
X561845Y522098D01*
X560751Y523192D01*
X560779Y523331D01*
X562045Y524597D01*
X562730Y526251D01*
Y528041D01*
X562045Y529695D01*
X560779Y530961D01*
X559125Y531646D01*
D02*
G37*
G36*
X775166Y522005D02*
X773376D01*
X771722Y521320D01*
X770456Y520054D01*
X769771Y518400D01*
Y516610D01*
X770456Y514956D01*
X771722Y513690D01*
X773376Y513005D01*
X775166D01*
X776820Y513690D01*
X778086Y514956D01*
X778771Y516610D01*
Y518400D01*
X778086Y520054D01*
X776820Y521320D01*
X775166Y522005D01*
D02*
G37*
G36*
X612416Y524900D02*
X610626D01*
X608972Y524215D01*
X607706Y522949D01*
X607021Y521295D01*
Y519505D01*
X607706Y517851D01*
X608972Y516585D01*
X610626Y515900D01*
X611668D01*
X612538Y514680D01*
X612212Y513895D01*
Y512105D01*
X612897Y510451D01*
X614163Y509185D01*
X615817Y508500D01*
X617607D01*
X619261Y509185D01*
X620527Y510451D01*
X621212Y512105D01*
Y513895D01*
X620527Y515549D01*
X619261Y516815D01*
X617607Y517500D01*
X616565D01*
X615696Y518720D01*
X616021Y519505D01*
Y521295D01*
X615336Y522949D01*
X614070Y524215D01*
X612416Y524900D01*
D02*
G37*
G36*
X661795Y510000D02*
X660005D01*
X658351Y509315D01*
X657085Y508049D01*
X656400Y506395D01*
Y504605D01*
X657085Y502951D01*
X658351Y501685D01*
X660005Y501000D01*
X661795D01*
X663449Y501685D01*
X664715Y502951D01*
X665400Y504605D01*
Y506395D01*
X664715Y508049D01*
X663449Y509315D01*
X661795Y510000D01*
D02*
G37*
%LPD*%
G36*
X1622449Y484386D02*
Y481095D01*
X1625740D01*
X1625949Y479595D01*
X1625740Y478095D01*
X1622449D01*
Y474805D01*
X1620950Y474595D01*
X1619449Y474805D01*
Y478095D01*
X1616159D01*
X1615950Y479595D01*
X1616159Y481095D01*
X1619449D01*
Y484386D01*
X1620950Y484595D01*
X1622449Y484386D01*
D02*
G37*
G36*
Y404586D02*
Y401295D01*
X1625740D01*
X1625949Y399795D01*
X1625740Y398295D01*
X1622449D01*
Y395005D01*
X1620950Y394795D01*
X1619449Y395005D01*
Y398295D01*
X1616159D01*
X1615950Y399795D01*
X1616159Y401295D01*
X1619449D01*
Y404586D01*
X1620950Y404795D01*
X1622449Y404586D01*
D02*
G37*
D15*
X722100Y689800D02*
X722300Y690000D01*
X721900Y666000D02*
X722100Y666200D01*
D18*
X1583891Y987660D02*
D03*
Y1036660D02*
D03*
D19*
X1638391Y936160D02*
D03*
X1577391D02*
D03*
X1638391Y1088160D02*
D03*
X1577391D02*
D03*
D20*
X1619000Y625000D02*
D03*
X50000D02*
D03*
X835000Y50000D02*
D03*
Y1199600D02*
D03*
X1619000D02*
D03*
Y50000D02*
D03*
X50000D02*
D03*
Y1199600D02*
D03*
D21*
X1619000Y648250D02*
D03*
X1595750Y625000D02*
D03*
X1619000Y602140D02*
D03*
X1642250Y625000D02*
D03*
X1635440Y641440D02*
D03*
X1602560Y608560D02*
D03*
X1635440D02*
D03*
X1602560Y641440D02*
D03*
X50000Y648250D02*
D03*
X26750Y625000D02*
D03*
X50000Y602140D02*
D03*
X73250Y625000D02*
D03*
X66440Y641440D02*
D03*
X33560Y608560D02*
D03*
X66440D02*
D03*
X33560Y641440D02*
D03*
X835000Y73250D02*
D03*
X811750Y50000D02*
D03*
X835000Y27140D02*
D03*
X858250Y50000D02*
D03*
X851440Y66440D02*
D03*
X818560Y33560D02*
D03*
X851440D02*
D03*
X818560Y66440D02*
D03*
X835000Y1222850D02*
D03*
X811750Y1199600D02*
D03*
X835000Y1176740D02*
D03*
X858250Y1199600D02*
D03*
X851440Y1216040D02*
D03*
X818560Y1183160D02*
D03*
X851440D02*
D03*
X818560Y1216040D02*
D03*
X1620950Y479595D02*
D03*
Y399795D02*
D03*
X1619000Y1222850D02*
D03*
X1595750Y1199600D02*
D03*
X1619000Y1176740D02*
D03*
X1642250Y1199600D02*
D03*
X1635440Y1216040D02*
D03*
X1602560Y1183160D02*
D03*
X1635440D02*
D03*
X1602560Y1216040D02*
D03*
X33560Y66440D02*
D03*
X66440Y33560D02*
D03*
X33560D02*
D03*
X66440Y66440D02*
D03*
X73250Y50000D02*
D03*
X50000Y27140D02*
D03*
X26750Y50000D02*
D03*
X50000Y73250D02*
D03*
X33560Y1216040D02*
D03*
X66440Y1183160D02*
D03*
X33560D02*
D03*
X66440Y1216040D02*
D03*
X73250Y1199600D02*
D03*
X50000Y1176740D02*
D03*
X26750Y1199600D02*
D03*
X50000Y1222850D02*
D03*
X1602560Y66440D02*
D03*
X1635440Y33560D02*
D03*
X1602560D02*
D03*
X1635440Y66440D02*
D03*
X1642250Y50000D02*
D03*
X1619000Y27140D02*
D03*
X1595750Y50000D02*
D03*
X1619000Y73250D02*
D03*
D22*
X570385Y83814D02*
D03*
X354485D02*
D03*
D23*
X1128500Y677600D02*
D03*
X1170400Y676800D02*
D03*
X1018734Y709103D02*
D03*
X1040734Y709003D02*
D03*
X455634Y847703D02*
D03*
X521754Y941160D02*
D03*
X426627Y948225D02*
D03*
X443583Y948112D02*
D03*
X423327Y927725D02*
D03*
X440283Y927612D02*
D03*
X434927Y938125D02*
D03*
X451883Y938012D02*
D03*
X643000Y856800D02*
D03*
X1647155Y1172170D02*
D03*
X1627155Y1132170D02*
D03*
Y1052170D02*
D03*
X1647155Y1012170D02*
D03*
X1627155Y972170D02*
D03*
Y892170D02*
D03*
X1647155Y852170D02*
D03*
X1627155Y812170D02*
D03*
X1647155Y772170D02*
D03*
X1627155Y732170D02*
D03*
X1647155Y692170D02*
D03*
X1627155Y572170D02*
D03*
X1647155Y532170D02*
D03*
X1627155Y492170D02*
D03*
X1647155Y452170D02*
D03*
X1627155Y412170D02*
D03*
X1647155Y372170D02*
D03*
X1627155Y332170D02*
D03*
X1647155Y292170D02*
D03*
X1627155Y252170D02*
D03*
X1647155Y212170D02*
D03*
X1627155Y172170D02*
D03*
X1647155Y132170D02*
D03*
X1627155Y92170D02*
D03*
Y12170D02*
D03*
X1587155Y1132170D02*
D03*
X1607155Y1092170D02*
D03*
X1587155Y1052170D02*
D03*
X1607155Y1012170D02*
D03*
X1587155Y972170D02*
D03*
X1607155Y932170D02*
D03*
X1587155Y892170D02*
D03*
X1607155Y852170D02*
D03*
X1587155Y812170D02*
D03*
X1607155Y772170D02*
D03*
X1587155Y732170D02*
D03*
X1607155Y692170D02*
D03*
X1587155Y652170D02*
D03*
Y572170D02*
D03*
X1607155Y532170D02*
D03*
X1587155Y492170D02*
D03*
X1607155Y452170D02*
D03*
X1587155Y412170D02*
D03*
X1607155Y372170D02*
D03*
X1587155Y332170D02*
D03*
X1607155Y292170D02*
D03*
X1587155Y252170D02*
D03*
X1607155Y212170D02*
D03*
X1587155Y172170D02*
D03*
X1607155Y132170D02*
D03*
X1587155Y92170D02*
D03*
Y12170D02*
D03*
X1547155Y1212170D02*
D03*
X1567155Y1172170D02*
D03*
X1547155Y892170D02*
D03*
X1567155Y852170D02*
D03*
X1547155Y812170D02*
D03*
X1567155Y772170D02*
D03*
X1547155Y732170D02*
D03*
X1567155Y692170D02*
D03*
X1547155Y652170D02*
D03*
X1567155Y612170D02*
D03*
X1547155Y572170D02*
D03*
X1567155Y532170D02*
D03*
X1547155Y492170D02*
D03*
X1567155Y452170D02*
D03*
X1547155Y412170D02*
D03*
X1567155Y372170D02*
D03*
X1547155Y332170D02*
D03*
X1567155Y292170D02*
D03*
X1547155Y252170D02*
D03*
X1567155Y212170D02*
D03*
X1547155Y172170D02*
D03*
X1567155Y132170D02*
D03*
X1547155Y92170D02*
D03*
X1567155Y52170D02*
D03*
X1547155Y12170D02*
D03*
X1507155Y1212170D02*
D03*
X1527155Y1172170D02*
D03*
X1507155Y972170D02*
D03*
X1527155Y932170D02*
D03*
X1507155Y892170D02*
D03*
X1527155Y852170D02*
D03*
X1507155Y812170D02*
D03*
X1527155Y772170D02*
D03*
X1507155Y732170D02*
D03*
X1527155Y692170D02*
D03*
X1507155Y652170D02*
D03*
X1527155Y612170D02*
D03*
X1507155Y572170D02*
D03*
X1527155Y532170D02*
D03*
Y372170D02*
D03*
X1507155Y332170D02*
D03*
X1527155Y292170D02*
D03*
X1507155Y252170D02*
D03*
X1527155Y212170D02*
D03*
X1507155Y172170D02*
D03*
X1527155Y132170D02*
D03*
X1507155Y92170D02*
D03*
X1527155Y52170D02*
D03*
X1507155Y12170D02*
D03*
X1467155Y1212170D02*
D03*
X1487155Y1172170D02*
D03*
X1467155Y1052170D02*
D03*
Y972170D02*
D03*
X1487155Y932170D02*
D03*
X1467155Y892170D02*
D03*
X1487155Y852170D02*
D03*
X1467155Y812170D02*
D03*
X1487155Y772170D02*
D03*
X1467155Y732170D02*
D03*
X1487155Y692170D02*
D03*
X1467155Y652170D02*
D03*
X1487155Y612170D02*
D03*
X1467155Y572170D02*
D03*
X1487155Y532170D02*
D03*
X1467155Y492170D02*
D03*
X1487155Y372170D02*
D03*
X1467155Y332170D02*
D03*
X1487155Y292170D02*
D03*
X1467155Y252170D02*
D03*
X1487155Y212170D02*
D03*
X1467155Y172170D02*
D03*
X1487155Y132170D02*
D03*
X1467155Y92170D02*
D03*
X1487155Y52170D02*
D03*
X1467155Y12170D02*
D03*
X1427155Y1212170D02*
D03*
X1447155Y1172170D02*
D03*
X1427155Y1052170D02*
D03*
Y972170D02*
D03*
X1447155Y932170D02*
D03*
X1427155Y892170D02*
D03*
X1447155Y852170D02*
D03*
X1427155Y812170D02*
D03*
X1447155Y772170D02*
D03*
X1427155Y732170D02*
D03*
X1447155Y692170D02*
D03*
X1427155Y652170D02*
D03*
X1447155Y612170D02*
D03*
X1427155Y572170D02*
D03*
X1447155Y532170D02*
D03*
X1427155Y492170D02*
D03*
Y332170D02*
D03*
X1447155Y292170D02*
D03*
X1427155Y252170D02*
D03*
X1447155Y212170D02*
D03*
X1427155Y172170D02*
D03*
X1447155Y132170D02*
D03*
X1427155Y92170D02*
D03*
X1447155Y52170D02*
D03*
X1427155Y12170D02*
D03*
X1387155Y1212170D02*
D03*
X1407155Y1172170D02*
D03*
X1387155Y1052170D02*
D03*
X1407155Y1012170D02*
D03*
X1387155Y972170D02*
D03*
Y892170D02*
D03*
Y812170D02*
D03*
Y732170D02*
D03*
X1407155Y532170D02*
D03*
Y452170D02*
D03*
X1387155Y332170D02*
D03*
X1407155Y292170D02*
D03*
X1387155Y252170D02*
D03*
X1407155Y212170D02*
D03*
X1387155Y172170D02*
D03*
X1407155Y132170D02*
D03*
X1387155Y92170D02*
D03*
X1407155Y52170D02*
D03*
X1387155Y12170D02*
D03*
X1347155Y1212170D02*
D03*
X1367155Y1172170D02*
D03*
X1347155Y1052170D02*
D03*
X1367155Y1012170D02*
D03*
X1347155Y972170D02*
D03*
X1367155Y932170D02*
D03*
X1347155Y892170D02*
D03*
X1367155Y852170D02*
D03*
X1347155Y812170D02*
D03*
X1367155Y772170D02*
D03*
Y692170D02*
D03*
Y612170D02*
D03*
Y532170D02*
D03*
Y452170D02*
D03*
Y292170D02*
D03*
X1347155Y252170D02*
D03*
Y172170D02*
D03*
X1367155Y132170D02*
D03*
X1347155Y92170D02*
D03*
X1367155Y52170D02*
D03*
X1347155Y12170D02*
D03*
X1307155Y1212170D02*
D03*
X1327155Y1172170D02*
D03*
X1307155Y1052170D02*
D03*
X1327155Y1012170D02*
D03*
X1307155Y972170D02*
D03*
X1327155Y932170D02*
D03*
X1307155Y892170D02*
D03*
X1327155Y852170D02*
D03*
X1307155Y812170D02*
D03*
X1327155Y292170D02*
D03*
X1307155Y252170D02*
D03*
Y172170D02*
D03*
X1327155Y132170D02*
D03*
X1307155Y92170D02*
D03*
X1327155Y52170D02*
D03*
X1307155Y12170D02*
D03*
X1267155Y1212170D02*
D03*
X1287155Y1172170D02*
D03*
X1267155Y1052170D02*
D03*
X1287155Y1012170D02*
D03*
X1267155Y972170D02*
D03*
X1287155Y932170D02*
D03*
X1267155Y892170D02*
D03*
X1287155Y852170D02*
D03*
X1267155Y812170D02*
D03*
Y492170D02*
D03*
X1287155Y452170D02*
D03*
Y292170D02*
D03*
X1267155Y252170D02*
D03*
Y172170D02*
D03*
X1287155Y132170D02*
D03*
X1267155Y92170D02*
D03*
X1287155Y52170D02*
D03*
X1267155Y12170D02*
D03*
X1227155Y1212170D02*
D03*
X1247155Y1172170D02*
D03*
Y1012170D02*
D03*
Y932170D02*
D03*
Y852170D02*
D03*
X1227155Y492170D02*
D03*
X1247155Y452170D02*
D03*
Y292170D02*
D03*
X1227155Y252170D02*
D03*
Y172170D02*
D03*
X1247155Y132170D02*
D03*
X1227155Y92170D02*
D03*
X1247155Y52170D02*
D03*
X1227155Y12170D02*
D03*
X1187155Y1212170D02*
D03*
X1207155Y1172170D02*
D03*
X1187155Y1052170D02*
D03*
X1207155Y1012170D02*
D03*
X1187155Y972170D02*
D03*
X1207155Y932170D02*
D03*
X1187155Y892170D02*
D03*
X1207155Y852170D02*
D03*
X1187155Y812170D02*
D03*
Y492170D02*
D03*
X1207155Y452170D02*
D03*
Y292170D02*
D03*
X1187155Y252170D02*
D03*
Y172170D02*
D03*
X1207155Y132170D02*
D03*
X1187155Y92170D02*
D03*
X1207155Y52170D02*
D03*
X1187155Y12170D02*
D03*
X1147155Y1212170D02*
D03*
X1167155Y1172170D02*
D03*
X1147155Y1052170D02*
D03*
X1167155Y1012170D02*
D03*
X1147155Y972170D02*
D03*
X1167155Y932170D02*
D03*
X1147155Y892170D02*
D03*
X1167155Y852170D02*
D03*
X1147155Y812170D02*
D03*
X1167155Y452170D02*
D03*
Y292170D02*
D03*
X1147155Y252170D02*
D03*
Y172170D02*
D03*
X1167155Y132170D02*
D03*
X1147155Y92170D02*
D03*
X1167155Y52170D02*
D03*
X1147155Y12170D02*
D03*
X1107155Y1212170D02*
D03*
X1127155Y1172170D02*
D03*
X1107155Y1052170D02*
D03*
X1127155Y1012170D02*
D03*
X1107155Y972170D02*
D03*
X1127155Y932170D02*
D03*
X1107155Y892170D02*
D03*
X1127155Y852170D02*
D03*
X1107155Y812170D02*
D03*
X1127155Y292170D02*
D03*
X1107155Y252170D02*
D03*
Y172170D02*
D03*
X1127155Y132170D02*
D03*
X1107155Y92170D02*
D03*
X1127155Y52170D02*
D03*
X1107155Y12170D02*
D03*
X1067155Y1212170D02*
D03*
X1087155Y1172170D02*
D03*
X1067155Y1052170D02*
D03*
X1087155Y1012170D02*
D03*
X1067155Y972170D02*
D03*
X1087155Y932170D02*
D03*
X1067155Y892170D02*
D03*
X1087155Y852170D02*
D03*
X1067155Y812170D02*
D03*
X1087155Y292170D02*
D03*
X1067155Y252170D02*
D03*
Y172170D02*
D03*
X1087155Y132170D02*
D03*
X1067155Y92170D02*
D03*
X1087155Y52170D02*
D03*
X1067155Y12170D02*
D03*
X1027155Y1212170D02*
D03*
X1047155Y1172170D02*
D03*
X1027155Y1052170D02*
D03*
X1047155Y1012170D02*
D03*
X1027155Y972170D02*
D03*
X1047155Y932170D02*
D03*
X1027155Y892170D02*
D03*
X1047155Y852170D02*
D03*
X1027155Y812170D02*
D03*
X1047155Y292170D02*
D03*
X1027155Y252170D02*
D03*
X1047155Y212170D02*
D03*
X1027155Y172170D02*
D03*
X1047155Y132170D02*
D03*
X1027155Y92170D02*
D03*
X1047155Y52170D02*
D03*
X1027155Y12170D02*
D03*
X987155Y1212170D02*
D03*
X1007155Y1172170D02*
D03*
X987155Y1052170D02*
D03*
X1007155Y1012170D02*
D03*
X987155Y972170D02*
D03*
X1007155Y932170D02*
D03*
X987155Y892170D02*
D03*
X1007155Y852170D02*
D03*
X987155Y812170D02*
D03*
X1007155Y292170D02*
D03*
X987155Y252170D02*
D03*
X1007155Y212170D02*
D03*
X987155Y172170D02*
D03*
X1007155Y132170D02*
D03*
X987155Y92170D02*
D03*
X1007155Y52170D02*
D03*
X987155Y12170D02*
D03*
X947155Y1212170D02*
D03*
X967155Y1172170D02*
D03*
X947155Y1052170D02*
D03*
X967155Y1012170D02*
D03*
X947155Y972170D02*
D03*
X967155Y932170D02*
D03*
X947155Y892170D02*
D03*
X967155Y852170D02*
D03*
X947155Y812170D02*
D03*
X967155Y292170D02*
D03*
X947155Y252170D02*
D03*
X967155Y212170D02*
D03*
X947155Y172170D02*
D03*
X967155Y132170D02*
D03*
X947155Y92170D02*
D03*
X967155Y52170D02*
D03*
X947155Y12170D02*
D03*
X907155Y1212170D02*
D03*
X927155Y1172170D02*
D03*
X907155Y1052170D02*
D03*
X927155Y1012170D02*
D03*
X907155Y972170D02*
D03*
X927155Y932170D02*
D03*
X907155Y892170D02*
D03*
X927155Y852170D02*
D03*
X907155Y812170D02*
D03*
X927155Y292170D02*
D03*
X907155Y252170D02*
D03*
X927155Y212170D02*
D03*
X907155Y172170D02*
D03*
X927155Y132170D02*
D03*
X907155Y92170D02*
D03*
X927155Y52170D02*
D03*
X907155Y12170D02*
D03*
X887155Y1172170D02*
D03*
X867155Y1052170D02*
D03*
X887155Y1012170D02*
D03*
X867155Y972170D02*
D03*
X887155Y932170D02*
D03*
X867155Y892170D02*
D03*
X887155Y852170D02*
D03*
X867155Y812170D02*
D03*
Y492170D02*
D03*
X887155Y292170D02*
D03*
X867155Y252170D02*
D03*
X887155Y212170D02*
D03*
X867155Y172170D02*
D03*
X887155Y132170D02*
D03*
X867155Y92170D02*
D03*
X887155Y52170D02*
D03*
X867155Y12170D02*
D03*
X827155Y1052170D02*
D03*
X847155Y1012170D02*
D03*
X827155Y972170D02*
D03*
X847155Y932170D02*
D03*
Y852170D02*
D03*
Y292170D02*
D03*
X827155Y252170D02*
D03*
X847155Y212170D02*
D03*
X827155Y172170D02*
D03*
X847155Y132170D02*
D03*
X827155Y92170D02*
D03*
Y12170D02*
D03*
X787155Y1212170D02*
D03*
X807155Y1172170D02*
D03*
X787155Y1052170D02*
D03*
X807155Y1012170D02*
D03*
Y452170D02*
D03*
Y292170D02*
D03*
X787155Y252170D02*
D03*
X807155Y212170D02*
D03*
X787155Y172170D02*
D03*
X807155Y132170D02*
D03*
X787155Y92170D02*
D03*
Y12170D02*
D03*
X747155Y1212170D02*
D03*
X767155Y1172170D02*
D03*
Y292170D02*
D03*
X747155Y252170D02*
D03*
X767155Y212170D02*
D03*
X747155Y172170D02*
D03*
X767155Y132170D02*
D03*
X747155Y92170D02*
D03*
X767155Y52170D02*
D03*
X747155Y12170D02*
D03*
X707155Y1212170D02*
D03*
X727155Y1172170D02*
D03*
Y452170D02*
D03*
Y292170D02*
D03*
X707155Y252170D02*
D03*
X727155Y212170D02*
D03*
X707155Y172170D02*
D03*
X727155Y132170D02*
D03*
X707155Y92170D02*
D03*
X727155Y52170D02*
D03*
X707155Y12170D02*
D03*
X667155Y1212170D02*
D03*
X687155Y1172170D02*
D03*
Y292170D02*
D03*
X667155Y252170D02*
D03*
X687155Y212170D02*
D03*
X667155Y172170D02*
D03*
X687155Y132170D02*
D03*
X667155Y92170D02*
D03*
X687155Y52170D02*
D03*
X667155Y12170D02*
D03*
X627155Y1212170D02*
D03*
X647155Y1172170D02*
D03*
X627155Y412170D02*
D03*
X647155Y372170D02*
D03*
Y292170D02*
D03*
X627155Y252170D02*
D03*
X647155Y212170D02*
D03*
X627155Y172170D02*
D03*
X647155Y132170D02*
D03*
X627155Y92170D02*
D03*
X647155Y52170D02*
D03*
X627155Y12170D02*
D03*
X587155Y1212170D02*
D03*
X607155Y1172170D02*
D03*
X587155Y412170D02*
D03*
X607155Y372170D02*
D03*
Y292170D02*
D03*
X587155Y252170D02*
D03*
X607155Y212170D02*
D03*
X587155Y172170D02*
D03*
X607155Y132170D02*
D03*
Y52170D02*
D03*
X587155Y12170D02*
D03*
X547155Y1212170D02*
D03*
X567155Y1172170D02*
D03*
X547155Y412170D02*
D03*
X567155Y372170D02*
D03*
Y292170D02*
D03*
X547155Y252170D02*
D03*
Y172170D02*
D03*
Y92170D02*
D03*
X567155Y52170D02*
D03*
X547155Y12170D02*
D03*
X507155Y1212170D02*
D03*
X527155Y1172170D02*
D03*
Y452170D02*
D03*
X507155Y412170D02*
D03*
X527155Y372170D02*
D03*
Y292170D02*
D03*
X507155Y252170D02*
D03*
X527155Y212170D02*
D03*
X507155Y172170D02*
D03*
Y92170D02*
D03*
X527155Y52170D02*
D03*
X507155Y12170D02*
D03*
X467155Y1212170D02*
D03*
X487155Y1172170D02*
D03*
X467155Y492170D02*
D03*
X487155Y452170D02*
D03*
X467155Y412170D02*
D03*
X487155Y372170D02*
D03*
Y292170D02*
D03*
X467155Y252170D02*
D03*
X487155Y212170D02*
D03*
X467155Y172170D02*
D03*
X487155Y52170D02*
D03*
X467155Y12170D02*
D03*
X427155Y1212170D02*
D03*
X447155Y1172170D02*
D03*
X427155Y492170D02*
D03*
Y412170D02*
D03*
X447155Y372170D02*
D03*
Y292170D02*
D03*
X427155Y252170D02*
D03*
X447155Y212170D02*
D03*
X427155Y172170D02*
D03*
Y92170D02*
D03*
X447155Y52170D02*
D03*
X427155Y12170D02*
D03*
X387155Y1212170D02*
D03*
X407155Y1172170D02*
D03*
X387155Y1052170D02*
D03*
Y572170D02*
D03*
X407155Y532170D02*
D03*
X387155Y492170D02*
D03*
X407155Y452170D02*
D03*
X387155Y412170D02*
D03*
X407155Y372170D02*
D03*
X387155Y332170D02*
D03*
X407155Y292170D02*
D03*
X387155Y252170D02*
D03*
X407155Y212170D02*
D03*
X387155Y172170D02*
D03*
Y92170D02*
D03*
X407155Y52170D02*
D03*
X387155Y12170D02*
D03*
X347155Y1212170D02*
D03*
X367155Y1172170D02*
D03*
X347155Y1052170D02*
D03*
Y572170D02*
D03*
Y492170D02*
D03*
X367155Y452170D02*
D03*
Y372170D02*
D03*
X347155Y332170D02*
D03*
X367155Y292170D02*
D03*
X347155Y252170D02*
D03*
X367155Y212170D02*
D03*
X347155Y172170D02*
D03*
X367155Y132170D02*
D03*
Y52170D02*
D03*
X347155Y12170D02*
D03*
X307155Y1212170D02*
D03*
X327155Y1172170D02*
D03*
Y1012170D02*
D03*
X307155Y972170D02*
D03*
X327155Y932170D02*
D03*
X307155Y652170D02*
D03*
Y572170D02*
D03*
X327155Y532170D02*
D03*
X307155Y492170D02*
D03*
X327155Y452170D02*
D03*
X307155Y412170D02*
D03*
X327155Y372170D02*
D03*
X307155Y332170D02*
D03*
X327155Y292170D02*
D03*
X307155Y252170D02*
D03*
X327155Y212170D02*
D03*
X307155Y172170D02*
D03*
X327155Y132170D02*
D03*
X307155Y92170D02*
D03*
X327155Y52170D02*
D03*
X307155Y12170D02*
D03*
X267155Y1212170D02*
D03*
X287155Y1172170D02*
D03*
X267155Y972170D02*
D03*
X287155Y932170D02*
D03*
X267155Y892170D02*
D03*
X287155Y852170D02*
D03*
X267155Y652170D02*
D03*
X287155Y612170D02*
D03*
X267155Y572170D02*
D03*
X287155Y532170D02*
D03*
X267155Y492170D02*
D03*
X287155Y452170D02*
D03*
X267155Y412170D02*
D03*
X287155Y372170D02*
D03*
X267155Y332170D02*
D03*
X287155Y292170D02*
D03*
X267155Y252170D02*
D03*
X287155Y212170D02*
D03*
X267155Y172170D02*
D03*
X287155Y132170D02*
D03*
X267155Y92170D02*
D03*
X287155Y52170D02*
D03*
X267155Y12170D02*
D03*
X227155Y1212170D02*
D03*
X247155Y1172170D02*
D03*
X227155Y1052170D02*
D03*
X247155Y932170D02*
D03*
X227155Y892170D02*
D03*
X247155Y852170D02*
D03*
Y612170D02*
D03*
X227155Y572170D02*
D03*
X247155Y532170D02*
D03*
X227155Y492170D02*
D03*
X247155Y452170D02*
D03*
X227155Y412170D02*
D03*
X247155Y372170D02*
D03*
X227155Y332170D02*
D03*
X247155Y292170D02*
D03*
X227155Y252170D02*
D03*
X247155Y212170D02*
D03*
X227155Y172170D02*
D03*
X247155Y132170D02*
D03*
X227155Y92170D02*
D03*
X247155Y52170D02*
D03*
X227155Y12170D02*
D03*
X187155Y1212170D02*
D03*
X207155Y1172170D02*
D03*
Y932170D02*
D03*
X187155Y892170D02*
D03*
X207155Y852170D02*
D03*
X187155Y572170D02*
D03*
X207155Y532170D02*
D03*
X187155Y492170D02*
D03*
X207155Y452170D02*
D03*
X187155Y412170D02*
D03*
X207155Y372170D02*
D03*
X187155Y332170D02*
D03*
X207155Y292170D02*
D03*
X187155Y252170D02*
D03*
X207155Y212170D02*
D03*
X187155Y172170D02*
D03*
X207155Y132170D02*
D03*
X187155Y92170D02*
D03*
X207155Y52170D02*
D03*
X187155Y12170D02*
D03*
X147155Y1212170D02*
D03*
X167155Y1172170D02*
D03*
Y1012170D02*
D03*
Y932170D02*
D03*
X147155Y892170D02*
D03*
X167155Y852170D02*
D03*
X147155Y732170D02*
D03*
Y572170D02*
D03*
X167155Y532170D02*
D03*
X147155Y412170D02*
D03*
Y332170D02*
D03*
X167155Y292170D02*
D03*
X147155Y252170D02*
D03*
X167155Y212170D02*
D03*
X147155Y172170D02*
D03*
X167155Y132170D02*
D03*
X147155Y92170D02*
D03*
X167155Y52170D02*
D03*
X147155Y12170D02*
D03*
X107155Y1212170D02*
D03*
X127155Y1172170D02*
D03*
Y932170D02*
D03*
Y852170D02*
D03*
X107155Y572170D02*
D03*
X127155Y532170D02*
D03*
Y372170D02*
D03*
X107155Y332170D02*
D03*
X127155Y212170D02*
D03*
Y132170D02*
D03*
X107155Y92170D02*
D03*
X127155Y52170D02*
D03*
X107155Y12170D02*
D03*
X87155Y1172170D02*
D03*
Y612170D02*
D03*
Y532170D02*
D03*
Y372170D02*
D03*
Y292170D02*
D03*
Y132170D02*
D03*
X67155Y92170D02*
D03*
X87155Y52170D02*
D03*
X67155Y12170D02*
D03*
X27155Y1132170D02*
D03*
X47155Y1092170D02*
D03*
X27155Y1052170D02*
D03*
X47155Y1012170D02*
D03*
Y932170D02*
D03*
X27155Y892170D02*
D03*
X47155Y852170D02*
D03*
X27155Y812170D02*
D03*
X47155Y772170D02*
D03*
X27155Y732170D02*
D03*
X47155Y692170D02*
D03*
X27155Y572170D02*
D03*
X47155Y532170D02*
D03*
X27155Y492170D02*
D03*
X47155Y452170D02*
D03*
X27155Y412170D02*
D03*
X47155Y372170D02*
D03*
X27155Y332170D02*
D03*
X47155Y292170D02*
D03*
X27155Y252170D02*
D03*
Y172170D02*
D03*
X47155Y132170D02*
D03*
X27155Y92170D02*
D03*
Y12170D02*
D03*
X1105600Y731300D02*
D03*
X1146700D02*
D03*
X1235700Y1093800D02*
D03*
X1204172Y752415D02*
D03*
X859100Y636100D02*
D03*
X721900Y666000D02*
D03*
X681200Y666500D02*
D03*
X734500Y666543D02*
D03*
X745200Y666200D02*
D03*
X502800Y890200D02*
D03*
X620533Y739900D02*
D03*
X632533Y730300D02*
D03*
X670700Y691583D02*
D03*
X1206800Y772800D02*
D03*
X1169300Y773100D02*
D03*
X1194900Y790500D02*
D03*
X1169500Y790400D02*
D03*
X1188400Y728400D02*
D03*
X1205694Y608360D02*
D03*
X1157000Y676700D02*
D03*
X29622Y369452D02*
D03*
X12316D02*
D03*
X29139Y379452D02*
D03*
X20825Y374234D02*
D03*
X12734Y379452D02*
D03*
X30022Y536552D02*
D03*
X12716D02*
D03*
X29539Y546552D02*
D03*
X21225Y541334D02*
D03*
X13134Y546552D02*
D03*
X29122Y959652D02*
D03*
X11816D02*
D03*
X28639Y969652D02*
D03*
X20325Y964434D02*
D03*
X12234Y969652D02*
D03*
X1155700Y790800D02*
D03*
X1107600D02*
D03*
X476900Y512000D02*
D03*
X1134400Y730900D02*
D03*
X442300Y499500D02*
D03*
X819600Y617900D02*
D03*
X568900Y460600D02*
D03*
X596600Y434300D02*
D03*
X655771Y474720D02*
D03*
X130300Y842800D02*
D03*
X230209Y781042D02*
D03*
Y758055D02*
D03*
Y804029D02*
D03*
X217509D02*
D03*
Y758055D02*
D03*
Y781042D02*
D03*
X103807Y1103991D02*
D03*
X81455D02*
D03*
X127429D02*
D03*
X103507Y1094791D02*
D03*
X81155D02*
D03*
X127129D02*
D03*
X170760Y640491D02*
D03*
X152290D02*
D03*
X189229D02*
D03*
X179994Y653191D02*
D03*
X143055D02*
D03*
X161525D02*
D03*
X128200Y738900D02*
D03*
X104300Y738500D02*
D03*
X104500Y753500D02*
D03*
X125500Y752500D02*
D03*
X116000Y745700D02*
D03*
X1533131Y1046152D02*
D03*
X1522309Y1046052D02*
D03*
X1532831Y1055352D02*
D03*
X1522609Y1055252D02*
D03*
X1505400Y1045100D02*
D03*
X1153235Y722900D02*
D03*
X1525400Y462300D02*
D03*
X1462700Y399700D02*
D03*
X1449300Y392900D02*
D03*
X1483400Y430000D02*
D03*
X1493000Y462800D02*
D03*
X1485700Y491400D02*
D03*
X1485800Y478800D02*
D03*
X1449200Y401300D02*
D03*
X1462400Y407300D02*
D03*
X1490600Y1012300D02*
D03*
X1482900Y1012200D02*
D03*
X857000Y513900D02*
D03*
X862303Y519203D02*
D03*
X1453400Y1016300D02*
D03*
Y1008800D02*
D03*
X1532700Y494100D02*
D03*
X1493100Y484900D02*
D03*
Y472600D02*
D03*
Y451900D02*
D03*
Y430100D02*
D03*
X720384Y459516D02*
D03*
X736233Y463739D02*
D03*
X742872Y468308D02*
D03*
X750705Y468419D02*
D03*
X758203Y468240D02*
D03*
X773091Y468419D02*
D03*
X782743D02*
D03*
X190900Y462086D02*
D03*
X765699Y477869D02*
D03*
X768265Y527481D02*
D03*
X560800Y697900D02*
D03*
X734800Y689800D02*
D03*
X722300Y690000D02*
D03*
X652700Y430700D02*
D03*
X1293100Y734500D02*
D03*
X1220300Y586600D02*
D03*
X1211825Y587775D02*
D03*
X1195600Y571200D02*
D03*
X1186300Y553800D02*
D03*
X1185100Y529400D02*
D03*
X1210100Y529700D02*
D03*
X1220100Y538500D02*
D03*
X1127500Y606700D02*
D03*
X1146300Y606200D02*
D03*
X1171100Y591900D02*
D03*
X1172300Y606500D02*
D03*
X1186300Y610300D02*
D03*
X1260600Y650200D02*
D03*
X1266600Y659100D02*
D03*
X1258100Y702800D02*
D03*
X1282100Y673600D02*
D03*
X1293000Y673300D02*
D03*
X1286900Y718000D02*
D03*
X1286700Y727700D02*
D03*
X1251900Y717800D02*
D03*
X1180000Y730600D02*
D03*
X1160500Y727500D02*
D03*
X867500Y643200D02*
D03*
X1278100Y727500D02*
D03*
X1253200Y644100D02*
D03*
X1167172Y722600D02*
D03*
X1127700Y620000D02*
D03*
X1120900Y613300D02*
D03*
X1212100Y538800D02*
D03*
X1176900Y529800D02*
D03*
X1151400Y665700D02*
D03*
X1144172Y671600D02*
D03*
X1138172Y606700D02*
D03*
X1121100Y730900D02*
D03*
X1182800Y658400D02*
D03*
X1169900Y645800D02*
D03*
X1163172Y606700D02*
D03*
X1214895Y752100D02*
D03*
X1207900Y759200D02*
D03*
X1198000D02*
D03*
X1272900Y673900D02*
D03*
X1245000Y643800D02*
D03*
X1239172Y619800D02*
D03*
X1192307Y616093D02*
D03*
X1202357Y601643D02*
D03*
X1202200Y529800D02*
D03*
X1203000Y576300D02*
D03*
X1163100Y592300D02*
D03*
X1284172Y708800D02*
D03*
X1243100Y717700D02*
D03*
X1159172Y710100D02*
D03*
X641023Y731062D02*
D03*
X635464Y721791D02*
D03*
X778900Y725900D02*
D03*
X752112Y608477D02*
D03*
X598012Y578212D02*
D03*
X692462Y683824D02*
D03*
X676688Y684488D02*
D03*
X761400Y580800D02*
D03*
X611521Y520400D02*
D03*
X616712Y513000D02*
D03*
X660900Y505500D02*
D03*
X708488Y474743D02*
D03*
X11034Y1112252D02*
D03*
X19125Y1107034D02*
D03*
X27439Y1112252D02*
D03*
X10616Y1102252D02*
D03*
X27922D02*
D03*
X615357Y732205D02*
D03*
X122699Y789559D02*
D03*
X173178Y431200D02*
D03*
X172924Y457362D02*
D03*
X117194Y176642D02*
D03*
X611081Y1060117D02*
D03*
X532129Y1061869D02*
D03*
X566512Y1047112D02*
D03*
X414043Y833281D02*
D03*
X413607Y848911D02*
D03*
X493296Y913483D02*
D03*
X470064Y877757D02*
D03*
X478084Y872721D02*
D03*
X461912Y872986D02*
D03*
X501922Y845153D02*
D03*
X474431Y847972D02*
D03*
X465134Y847803D02*
D03*
X501461Y909451D02*
D03*
X440758Y664875D02*
D03*
X443773Y690963D02*
D03*
X488320Y564688D02*
D03*
X485483Y938412D02*
D03*
X438067Y998419D02*
D03*
X446173Y1005419D02*
D03*
X462191D02*
D03*
X477533D02*
D03*
X453699Y998419D02*
D03*
X469814D02*
D03*
X873330Y518488D02*
D03*
X849818Y508098D02*
D03*
X469932Y1011719D02*
D03*
X453990D02*
D03*
X437681D02*
D03*
X468527Y938525D02*
D03*
X421722Y957627D02*
D03*
X421997Y991500D02*
D03*
X429672Y1005419D02*
D03*
X421327Y840452D02*
D03*
X806895Y625653D02*
D03*
X766995Y588187D02*
D03*
X796205Y583615D02*
D03*
X767369Y608101D02*
D03*
X772583Y594673D02*
D03*
X814493Y583869D02*
D03*
X759375Y601903D02*
D03*
X770720Y640692D02*
D03*
X800329Y620023D02*
D03*
X808209Y617419D02*
D03*
X694605Y565919D02*
D03*
X675659D02*
D03*
X714794D02*
D03*
X686477Y558977D02*
D03*
X657750Y548211D02*
D03*
X694777Y552545D02*
D03*
X650468Y552806D02*
D03*
X685056Y685008D02*
D03*
X744897Y684707D02*
D03*
X710861Y689787D02*
D03*
X750368Y690743D02*
D03*
X755798Y684743D02*
D03*
X544666Y688127D02*
D03*
X562453Y767725D02*
D03*
X585280Y678674D02*
D03*
X611610Y740242D02*
D03*
X605886Y687398D02*
D03*
X587447Y732261D02*
D03*
X551071Y692995D02*
D03*
X551821Y681805D02*
D03*
X609827Y725730D02*
D03*
X590465Y723315D02*
D03*
X550587Y577773D02*
D03*
X522248Y555317D02*
D03*
X552083Y639684D02*
D03*
X558311Y583408D02*
D03*
X558030Y519549D02*
D03*
X558230Y527146D02*
D03*
X545088Y603818D02*
D03*
X541340Y570375D02*
D03*
X546363Y646359D02*
D03*
X760762Y808419D02*
D03*
X763039Y799419D02*
D03*
X744325D02*
D03*
X746325Y808419D02*
D03*
X778933Y767003D02*
D03*
X753443Y799419D02*
D03*
X711678Y765986D02*
D03*
X712639Y725601D02*
D03*
X604698Y550378D02*
D03*
X612165Y556282D02*
D03*
X618820Y548189D02*
D03*
X596077Y588633D02*
D03*
X588006Y585719D02*
D03*
X584069Y532891D02*
D03*
X583869Y520701D02*
D03*
X515198Y1025146D02*
D03*
X565542Y990958D02*
D03*
X524090Y1025118D02*
D03*
X559094Y1032361D02*
D03*
X549465Y1032787D02*
D03*
X566268Y1038740D02*
D03*
X525441Y991419D02*
D03*
X640503Y622477D02*
D03*
X679866Y691583D02*
D03*
X678022Y726716D02*
D03*
X663614Y723495D02*
D03*
X691366Y691583D02*
D03*
X683576Y720007D02*
D03*
X655347Y724144D02*
D03*
X635770Y740387D02*
D03*
X613579Y991419D02*
D03*
X640344Y975090D02*
D03*
X614016Y835038D02*
D03*
X621493Y847327D02*
D03*
X606676Y847700D02*
D03*
X637811Y846231D02*
D03*
X521818Y929748D02*
D03*
X541658Y849792D02*
D03*
X582083Y819073D02*
D03*
X581321Y835837D02*
D03*
X581829Y827455D02*
D03*
X544634Y829836D02*
D03*
X508416Y920337D02*
D03*
X510230Y929510D02*
D03*
X543971Y838986D02*
D03*
X774271Y517505D02*
D03*
X793171Y460883D02*
D03*
X793375Y495752D02*
D03*
X737644Y478089D02*
D03*
X793136Y478104D02*
D03*
X765445Y460382D02*
D03*
X466922Y93293D02*
D03*
X475705Y85158D02*
D03*
X475816Y93293D02*
D03*
X448817Y85158D02*
D03*
X449134Y93293D02*
D03*
X457780Y85158D02*
D03*
X458028Y93293D02*
D03*
X466742Y85158D02*
D03*
D24*
X1121100Y738042D02*
X1129558Y746500D01*
X1190700D02*
X1196100Y741100D01*
X1129558Y746500D02*
X1190700D01*
X1121100Y730900D02*
Y738042D01*
X1196100Y741100D02*
X1225400D01*
X1235700Y751400D02*
Y1093800D01*
X1225400Y741100D02*
X1235700Y751400D01*
D25*
X570385Y83814D02*
Y268515D01*
X442300Y396600D02*
Y499500D01*
Y396600D02*
X570385Y268515D01*
X526499Y127700D02*
X570385Y83814D01*
X354485D02*
X398371Y127700D01*
X526499D01*
M02*
