G04*
G04 #@! TF.GenerationSoftware,Altium Limited,Altium Designer,24.1.2 (44)*
G04*
G04 Layer_Color=255*
%FSLAX44Y44*%
%MOMM*%
G71*
G04*
G04 #@! TF.SameCoordinates,7BAFBD56-1BE7-4131-8B7C-D97C60B49404*
G04*
G04*
G04 #@! TF.FilePolarity,Positive*
G04*
G01*
G75*
%ADD18C,1.3500*%
%ADD19R,2.5000X2.5000*%
%ADD20C,6.3500*%
%ADD21C,1.0000*%
%ADD22C,3.0450*%
D18*
X1583891Y987660D02*
D03*
Y1036660D02*
D03*
D19*
X1638391Y936160D02*
D03*
X1577391D02*
D03*
X1638391Y1088160D02*
D03*
X1577391D02*
D03*
D20*
X1619000Y625000D02*
D03*
X50000D02*
D03*
X835000Y50000D02*
D03*
Y1199600D02*
D03*
X1619000D02*
D03*
Y50000D02*
D03*
X50000D02*
D03*
Y1199600D02*
D03*
D21*
X1619000Y648250D02*
D03*
X1595750Y625000D02*
D03*
X1619000Y602140D02*
D03*
X1642250Y625000D02*
D03*
X1635440Y641440D02*
D03*
X1602560Y608560D02*
D03*
X1635440D02*
D03*
X1602560Y641440D02*
D03*
X50000Y648250D02*
D03*
X26750Y625000D02*
D03*
X50000Y602140D02*
D03*
X73250Y625000D02*
D03*
X66440Y641440D02*
D03*
X33560Y608560D02*
D03*
X66440D02*
D03*
X33560Y641440D02*
D03*
X835000Y73250D02*
D03*
X811750Y50000D02*
D03*
X835000Y27140D02*
D03*
X858250Y50000D02*
D03*
X851440Y66440D02*
D03*
X818560Y33560D02*
D03*
X851440D02*
D03*
X818560Y66440D02*
D03*
X835000Y1222850D02*
D03*
X811750Y1199600D02*
D03*
X835000Y1176740D02*
D03*
X858250Y1199600D02*
D03*
X851440Y1216040D02*
D03*
X818560Y1183160D02*
D03*
X851440D02*
D03*
X818560Y1216040D02*
D03*
X1620950Y479595D02*
D03*
Y399795D02*
D03*
X1619000Y1222850D02*
D03*
X1595750Y1199600D02*
D03*
X1619000Y1176740D02*
D03*
X1642250Y1199600D02*
D03*
X1635440Y1216040D02*
D03*
X1602560Y1183160D02*
D03*
X1635440D02*
D03*
X1602560Y1216040D02*
D03*
X33560Y66440D02*
D03*
X66440Y33560D02*
D03*
X33560D02*
D03*
X66440Y66440D02*
D03*
X73250Y50000D02*
D03*
X50000Y27140D02*
D03*
X26750Y50000D02*
D03*
X50000Y73250D02*
D03*
X33560Y1216040D02*
D03*
X66440Y1183160D02*
D03*
X33560D02*
D03*
X66440Y1216040D02*
D03*
X73250Y1199600D02*
D03*
X50000Y1176740D02*
D03*
X26750Y1199600D02*
D03*
X50000Y1222850D02*
D03*
X1602560Y66440D02*
D03*
X1635440Y33560D02*
D03*
X1602560D02*
D03*
X1635440Y66440D02*
D03*
X1642250Y50000D02*
D03*
X1619000Y27140D02*
D03*
X1595750Y50000D02*
D03*
X1619000Y73250D02*
D03*
D22*
X570385Y83814D02*
D03*
X354485D02*
D03*
M02*
